<?xml version="1.0" encoding="utf-8"?>
<!-- Generator: Adobe Illustrator 23.0.2, SVG Export Plug-In . SVG Version: 6.00 Build 0)  -->
<svg version="1.1" id="Layer_1" xmlns="http://www.w3.org/2000/svg" xmlns:xlink="http://www.w3.org/1999/xlink" x="0px" y="0px"
	 viewBox="0 0 82.452 99.776" style="enable-background:new 0 0 82.452 99.776;" xml:space="preserve">
<style type="text/css">
	.st0{fill:#FFFFFF;}
	.st1{fill:#ED1C24;}
	.st2{fill:#FFCB05;}
	.st3{fill:#21409A;}
	.st4{fill:#D4D5D6;}
	.st5{fill:#000100;}
	.st6{fill:#300505;}
	.st7{fill:#BFD730;}
	.st8{fill:#F15A22;}
</style>
<g>
	<path class="st0" d="M62.846,17.656H19.605c-1.563,0-2.836,1.272-2.836,2.836v62.82c0,1.564,1.272,2.836,2.836,2.836h43.241
		c1.564,0,2.836-1.272,2.836-2.836v-62.82C65.682,18.929,64.41,17.656,62.846,17.656z M23.53,33.585
		c-0.254,0.536-0.895,0.764-1.431,0.51c-0.232-0.11-0.406-0.293-0.508-0.509h-0.001c-0.001-0.003-0.002-0.005-0.003-0.008
		l-0.222-0.452v0.51c0,0.482,0.237,1.502,0.802,1.72h-1.802c0.564-0.218,0.801-1.238,0.801-1.72v-0.51l-0.222,0.452
		c-0.001,0.002-0.003,0.005-0.003,0.008c-0.103,0.216-0.277,0.399-0.51,0.509c-0.536,0.254-1.176,0.025-1.43-0.51
		c-0.254-0.536-0.026-1.177,0.51-1.43c0.233-0.11,0.484-0.129,0.716-0.072h0.001c0.003,0.001,0.006,0.001,0.008,0.001l0.565,0.132
		l-0.361-0.454c-0.003-0.002-0.005-0.004-0.006-0.006l-0.001,0c-0.151-0.186-0.241-0.421-0.241-0.678
		c0-0.593,0.48-1.074,1.073-1.074c0.593,0,1.074,0.481,1.074,1.074c0,0.257-0.091,0.492-0.242,0.678l-0.001,0
		c-0.002,0.002-0.003,0.004-0.005,0.006l-0.362,0.454l0.565-0.132c0.003-0.001,0.006-0.001,0.008-0.001h0.001
		c0.231-0.057,0.484-0.038,0.716,0.072C23.555,32.408,23.783,33.049,23.53,33.585z M23.377,28.202h-4.345
		c0.091-0.727,0.273-1.254,0.609-1.773c0.346-0.527,0.764-0.954,1.8-1.818c0.418-0.345,0.618-0.573,0.754-0.836
		c0.127-0.263,0.191-0.536,0.191-0.836c0-0.791-0.427-1.309-1.073-1.309c-0.427,0-0.709,0.209-0.845,0.609
		c-0.073,0.227-0.082,0.318-0.1,0.827c-0.018,0.354-0.182,0.5-0.582,0.5c-0.436,0-0.645-0.155-0.645-0.482
		c0-0.491,0.273-0.954,0.755-1.282c0.409-0.273,0.9-0.409,1.509-0.409c1.372,0,2.191,0.627,2.191,1.682
		c0,0.455-0.136,0.827-0.409,1.145c-0.191,0.227-0.536,0.482-1,0.745c-1.2,0.673-1.472,0.854-1.891,1.236
		c-0.364,0.327-0.527,0.563-0.718,1.027h2.636c0.745,0,1.009-0.236,1.173-1.055l0.309,0.064L23.377,28.202z M45.571,75.283
		c-0.576,0.272-1.2,0.32-1.773,0.179h-0.002c-0.005-0.002-0.013-0.002-0.019-0.004l-1.399-0.327l0.895,1.124
		c0.005,0.005,0.01,0.01,0.013,0.016l0.002,0.001c0.374,0.459,0.597,1.043,0.597,1.679c0,1.469-1.189,2.66-2.658,2.66
		c-1.468,0-2.659-1.191-2.659-2.66c0-0.636,0.225-1.22,0.597-1.679l0.002-0.001c0.005-0.006,0.008-0.011,0.012-0.016l0.895-1.124
		l-1.398,0.327c-0.006,0.001-0.015,0.001-0.021,0.004h-0.002c-0.573,0.141-1.197,0.093-1.773-0.179
		c-1.327-0.629-1.892-2.215-1.263-3.542c0.628-1.327,2.215-1.893,3.544-1.264c0.575,0.272,1.007,0.726,1.259,1.26h0.002
		c0.002,0.007,0.005,0.014,0.008,0.019l0.55,1.121v-1.263c0-1.194-0.588-3.719-1.985-4.26h4.464
		c-1.397,0.542-1.983,3.067-1.983,4.26v1.263l0.549-1.121c0.004-0.005,0.007-0.012,0.009-0.019c0.254-0.533,0.686-0.988,1.262-1.26
		c1.328-0.63,2.914-0.064,3.542,1.264C47.465,73.069,46.899,74.654,45.571,75.283z M46.836,32.064
		c-0.629,1.327-2.215,1.893-3.544,1.263c-0.575-0.272-1.007-0.726-1.259-1.26h-0.001c-0.002-0.007-0.005-0.014-0.008-0.019
		l-0.55-1.12v1.263c0,1.194,0.588,3.719,1.985,4.26h-4.464c1.397-0.542,1.984-3.066,1.984-4.26v-1.263l-0.549,1.12
		c-0.004,0.005-0.007,0.012-0.009,0.019c-0.254,0.533-0.686,0.988-1.262,1.26c-1.327,0.63-2.914,0.064-3.541-1.263
		c-0.63-1.328-0.065-2.913,1.263-3.542c0.576-0.272,1.2-0.32,1.772-0.179h0.003c0.005,0.003,0.013,0.003,0.02,0.004l1.399,0.327
		l-0.895-1.124c-0.004-0.006-0.01-0.011-0.012-0.016l-0.002-0.001c-0.374-0.459-0.597-1.043-0.597-1.679
		c0-1.469,1.19-2.66,2.659-2.66c1.468,0,2.659,1.191,2.659,2.66c0,0.636-0.225,1.22-0.597,1.679l-0.002,0.001
		c-0.005,0.005-0.008,0.01-0.012,0.016l-0.896,1.124l1.398-0.327c0.005-0.001,0.014-0.001,0.021-0.004h0.002
		c0.573-0.141,1.198-0.093,1.773,0.179C46.9,29.15,47.464,30.736,46.836,32.064z M61.138,82.175c0.427,0,0.709-0.209,0.845-0.609
		c0.073-0.227,0.082-0.318,0.1-0.827c0.018-0.354,0.182-0.5,0.582-0.5c0.436,0,0.645,0.155,0.645,0.482
		c0,0.491-0.273,0.954-0.755,1.282c-0.409,0.273-0.9,0.409-1.509,0.409c-1.372,0-2.191-0.627-2.191-1.682
		c0-0.455,0.136-0.827,0.409-1.145c0.191-0.227,0.536-0.482,1-0.745c1.2-0.673,1.472-0.854,1.891-1.236
		c0.364-0.327,0.527-0.564,0.718-1.027h-2.636c-0.745,0-1.009,0.236-1.173,1.055l-0.309-0.064l0.318-1.963h4.345
		c-0.091,0.727-0.273,1.254-0.609,1.772c-0.346,0.527-0.764,0.954-1.8,1.818c-0.418,0.345-0.618,0.573-0.754,0.836
		c-0.128,0.264-0.191,0.536-0.191,0.836C60.065,81.657,60.493,82.175,61.138,82.175z M62.942,71.65
		c-0.232,0.11-0.484,0.129-0.716,0.072h-0.001c-0.003-0.001-0.006-0.001-0.009-0.001l-0.565-0.132l0.361,0.454
		c0.002,0.002,0.004,0.004,0.006,0.006l0.001,0c0.151,0.186,0.241,0.421,0.241,0.678c0,0.593-0.481,1.074-1.074,1.074
		c-0.593,0-1.074-0.481-1.074-1.074c0-0.257,0.091-0.493,0.241-0.678l0.001,0c0.001-0.002,0.003-0.004,0.004-0.006l0.362-0.454
		l-0.564,0.132c-0.003,0-0.006,0-0.009,0.001h-0.001c-0.231,0.057-0.484,0.038-0.716-0.072c-0.536-0.254-0.764-0.894-0.51-1.43
		c0.254-0.536,0.895-0.764,1.431-0.51c0.232,0.11,0.407,0.293,0.509,0.509h0.001c0.001,0.003,0.002,0.006,0.003,0.008l0.222,0.453
		v-0.51c0-0.482-0.238-1.501-0.802-1.72h1.803c-0.564,0.219-0.801,1.239-0.801,1.72v0.51l0.222-0.453
		c0.001-0.002,0.003-0.005,0.003-0.008c0.102-0.215,0.277-0.399,0.509-0.509c0.536-0.254,1.177-0.026,1.43,0.51
		C63.707,70.756,63.479,71.397,62.942,71.65z"/>
	<path d="M62.846,17.227H19.605c-1.801,0-3.266,1.465-3.266,3.266v62.82c0,1.801,1.465,3.266,3.266,3.266h43.241
		c1.801,0,3.266-1.465,3.266-3.266v-62.82C66.112,18.691,64.647,17.227,62.846,17.227z M65.682,83.312
		c0,1.564-1.272,2.836-2.836,2.836H19.605c-1.563,0-2.836-1.272-2.836-2.836v-62.82c0-1.563,1.272-2.836,2.836-2.836h43.241
		c1.564,0,2.836,1.272,2.836,2.836V83.312z"/>
	<path d="M23.019,32.155c-0.232-0.11-0.484-0.129-0.716-0.072h-0.001c-0.002,0.001-0.006,0.001-0.008,0.001l-0.565,0.132
		l0.362-0.454c0.001-0.002,0.003-0.004,0.005-0.006l0.001,0c0.15-0.186,0.242-0.421,0.242-0.678c0-0.593-0.481-1.074-1.074-1.074
		c-0.593,0-1.073,0.481-1.073,1.074c0,0.257,0.09,0.492,0.241,0.678l0.001,0c0.001,0.002,0.003,0.004,0.006,0.006l0.361,0.454
		l-0.565-0.132c-0.003-0.001-0.005-0.001-0.008-0.001h-0.001c-0.231-0.057-0.483-0.038-0.716,0.072
		c-0.536,0.253-0.765,0.894-0.51,1.43c0.254,0.536,0.894,0.764,1.43,0.51c0.233-0.11,0.407-0.293,0.51-0.509
		c0.001-0.003,0.002-0.005,0.003-0.008l0.222-0.452v0.51c0,0.482-0.237,1.502-0.801,1.72h1.802c-0.564-0.218-0.802-1.238-0.802-1.72
		v-0.51l0.222,0.452c0.001,0.002,0.002,0.005,0.003,0.008h0.001c0.102,0.216,0.277,0.399,0.508,0.509
		c0.536,0.254,1.177,0.025,1.431-0.51C23.783,33.049,23.555,32.408,23.019,32.155z"/>
	<path d="M45.573,28.522c-0.575-0.272-1.2-0.32-1.773-0.179h-0.002c-0.006,0.003-0.015,0.003-0.021,0.004l-1.398,0.327l0.896-1.124
		c0.004-0.006,0.007-0.011,0.012-0.016l0.002-0.001c0.372-0.459,0.597-1.043,0.597-1.679c0-1.469-1.191-2.66-2.659-2.66
		c-1.469,0-2.659,1.191-2.659,2.66c0,0.636,0.223,1.22,0.597,1.679l0.002,0.001c0.002,0.005,0.008,0.01,0.012,0.016l0.895,1.124
		l-1.399-0.327c-0.007-0.001-0.015-0.001-0.02-0.004h-0.003c-0.572-0.141-1.196-0.093-1.772,0.179
		c-1.328,0.629-1.894,2.214-1.263,3.542c0.628,1.327,2.214,1.893,3.541,1.263c0.576-0.272,1.008-0.726,1.262-1.26
		c0.001-0.007,0.005-0.014,0.009-0.019l0.549-1.12v1.263c0,1.194-0.587,3.719-1.984,4.26h4.464c-1.397-0.542-1.985-3.066-1.985-4.26
		v-1.263l0.55,1.12c0.003,0.005,0.006,0.012,0.008,0.019h0.001c0.252,0.533,0.684,0.988,1.259,1.26
		c1.329,0.63,2.916,0.064,3.544-1.263C47.464,30.736,46.9,29.15,45.573,28.522z"/>
	<path d="M43.293,70.478c-0.576,0.272-1.008,0.726-1.262,1.26c-0.001,0.007-0.005,0.014-0.009,0.019l-0.549,1.121v-1.263
		c0-1.194,0.586-3.719,1.983-4.26h-4.464c1.398,0.542,1.985,3.067,1.985,4.26v1.263l-0.55-1.121
		c-0.003-0.005-0.006-0.012-0.008-0.019h-0.002c-0.252-0.533-0.684-0.988-1.259-1.26c-1.329-0.63-2.915-0.064-3.544,1.264
		c-0.629,1.327-0.064,2.913,1.263,3.542c0.575,0.272,1.2,0.32,1.773,0.179h0.002c0.006-0.002,0.015-0.002,0.021-0.004l1.398-0.327
		l-0.895,1.124c-0.004,0.005-0.007,0.01-0.012,0.016l-0.002,0.001c-0.372,0.459-0.597,1.043-0.597,1.679
		c0,1.469,1.191,2.66,2.659,2.66c1.469,0,2.658-1.191,2.658-2.66c0-0.636-0.223-1.22-0.597-1.679l-0.002-0.001
		c-0.002-0.006-0.008-0.011-0.013-0.016l-0.895-1.124l1.399,0.327c0.007,0.001,0.014,0.001,0.019,0.004h0.002
		c0.572,0.141,1.197,0.093,1.773-0.179c1.328-0.629,1.894-2.215,1.263-3.542C46.207,70.414,44.62,69.848,43.293,70.478z"/>
	<path class="st5" d="M22.213,27.229h-2.636c0.191-0.464,0.354-0.7,0.718-1.027c0.418-0.382,0.691-0.563,1.891-1.236
		c0.464-0.263,0.809-0.518,1-0.745c0.273-0.318,0.409-0.691,0.409-1.145c0-1.055-0.818-1.682-2.191-1.682
		c-0.609,0-1.1,0.136-1.509,0.409c-0.482,0.327-0.755,0.791-0.755,1.282c0,0.327,0.209,0.482,0.645,0.482
		c0.4,0,0.564-0.145,0.582-0.5c0.018-0.509,0.027-0.6,0.1-0.827c0.136-0.4,0.418-0.609,0.845-0.609c0.645,0,1.073,0.518,1.073,1.309
		c0,0.3-0.064,0.573-0.191,0.836c-0.136,0.264-0.336,0.491-0.754,0.836c-1.036,0.864-1.454,1.291-1.8,1.818
		c-0.336,0.518-0.518,1.045-0.609,1.773h4.345l0.318-1.964l-0.309-0.064C23.222,26.993,22.959,27.229,22.213,27.229z"/>
	<path d="M62.022,69.71c-0.232,0.11-0.407,0.293-0.509,0.509c-0.001,0.003-0.002,0.006-0.003,0.008l-0.222,0.453v-0.51
		c0-0.482,0.237-1.501,0.801-1.72h-1.803c0.564,0.219,0.802,1.239,0.802,1.72v0.51l-0.222-0.453
		c-0.001-0.002-0.002-0.005-0.003-0.008h-0.001c-0.102-0.215-0.277-0.399-0.509-0.509c-0.536-0.254-1.177-0.026-1.431,0.51
		c-0.254,0.536-0.026,1.177,0.51,1.43c0.232,0.11,0.485,0.129,0.716,0.072h0.001c0.003-0.001,0.006-0.001,0.009-0.001l0.564-0.132
		l-0.362,0.454c-0.001,0.002-0.003,0.004-0.004,0.006l-0.001,0c-0.151,0.186-0.241,0.421-0.241,0.678
		c0,0.593,0.481,1.074,1.074,1.074c0.593,0,1.074-0.481,1.074-1.074c0-0.257-0.09-0.493-0.241-0.678l-0.001,0
		c-0.001-0.002-0.004-0.004-0.006-0.006l-0.361-0.454l0.565,0.132c0.003,0,0.006,0,0.009,0.001h0.001
		c0.231,0.057,0.483,0.038,0.716-0.072c0.536-0.254,0.765-0.894,0.51-1.43C63.199,69.684,62.558,69.456,62.022,69.71z"/>
	<path class="st5" d="M61.01,79.194c1.036-0.863,1.454-1.291,1.8-1.818c0.336-0.518,0.518-1.045,0.609-1.772h-4.345l-0.318,1.963
		l0.309,0.064c0.164-0.818,0.427-1.055,1.173-1.055h2.636c-0.191,0.464-0.354,0.7-0.718,1.027c-0.418,0.382-0.691,0.563-1.891,1.236
		c-0.464,0.263-0.809,0.518-1,0.745c-0.273,0.318-0.409,0.691-0.409,1.145c0,1.054,0.818,1.682,2.191,1.682
		c0.609,0,1.1-0.136,1.509-0.409c0.482-0.327,0.755-0.791,0.755-1.282c0-0.327-0.209-0.482-0.645-0.482
		c-0.4,0-0.564,0.145-0.582,0.5c-0.018,0.509-0.027,0.6-0.1,0.827c-0.136,0.4-0.418,0.609-0.845,0.609
		c-0.645,0-1.073-0.518-1.073-1.309c0-0.3,0.064-0.573,0.191-0.836C60.392,79.766,60.592,79.539,61.01,79.194z"/>
</g>
</svg>
