<?xml version="1.0" encoding="utf-8"?>
<!-- Generator: Adobe Illustrator 23.0.2, SVG Export Plug-In . SVG Version: 6.00 Build 0)  -->
<svg version="1.1" id="Layer_1" xmlns="http://www.w3.org/2000/svg" xmlns:xlink="http://www.w3.org/1999/xlink" x="0px" y="0px"
	 viewBox="0 0 82.452 99.776" style="enable-background:new 0 0 82.452 99.776;" xml:space="preserve">
<style type="text/css">
	.st0{fill:#FFFFFF;}
	.st1{fill:#ED1C24;}
	.st2{fill:#FFCB05;}
	.st3{fill:#21409A;}
	.st4{fill:#D4D5D6;}
	.st5{fill:#000100;}
	.st6{fill:#300505;}
	.st7{fill:#BFD730;}
	.st8{fill:#F15A22;}
</style>
<g>
	<path class="st0" d="M67.025,18.244H23.784c-1.563,0-2.836,1.272-2.836,2.836V83.9c0,1.564,1.272,2.836,2.836,2.836h43.241
		c1.564,0,2.836-1.272,2.836-2.836V21.08C69.861,19.516,68.589,18.244,67.025,18.244z M65.366,69.017
		c0.249,0.867,1.252,2.228,2.067,2.693c-0.814,0.465-1.818,1.825-2.067,2.693c-0.249-0.868-1.254-2.228-2.068-2.693
		C64.112,71.245,65.117,69.884,65.366,69.017z M25.443,35.963c-0.249-0.868-1.252-2.227-2.067-2.693
		c0.814-0.465,1.818-1.825,2.067-2.693c0.249,0.868,1.253,2.228,2.068,2.693C26.697,33.736,25.692,35.096,25.443,35.963z
		 M27.556,28.79h-4.345c0.091-0.727,0.273-1.254,0.609-1.772c0.346-0.527,0.764-0.954,1.8-1.818
		c0.418-0.345,0.618-0.573,0.754-0.836c0.127-0.263,0.191-0.536,0.191-0.836c0-0.791-0.427-1.309-1.073-1.309
		c-0.427,0-0.709,0.209-0.845,0.609c-0.073,0.227-0.082,0.318-0.1,0.827c-0.018,0.354-0.182,0.5-0.582,0.5
		c-0.436,0-0.645-0.155-0.645-0.482c0-0.491,0.273-0.954,0.755-1.282c0.409-0.273,0.9-0.409,1.509-0.409
		c1.372,0,2.191,0.627,2.191,1.682c0,0.455-0.136,0.827-0.409,1.145c-0.191,0.227-0.536,0.482-1,0.745
		c-1.2,0.673-1.472,0.854-1.891,1.236c-0.364,0.327-0.527,0.563-0.718,1.027h2.636c0.745,0,1.009-0.236,1.173-1.055l0.309,0.064
		L27.556,28.79z M45.404,81.249c-0.617-2.15-3.105-5.523-5.124-6.674c2.02-1.152,4.507-4.523,5.124-6.674
		c0.617,2.15,3.106,5.522,5.124,6.674C48.509,75.727,46.02,79.099,45.404,81.249z M45.404,37.079
		c-0.617-2.151-3.105-5.522-5.124-6.674c2.02-1.152,4.507-4.524,5.124-6.675c0.617,2.151,3.106,5.523,5.124,6.675
		C48.509,31.557,46.02,34.928,45.404,37.079z M65.317,82.763c0.427,0,0.709-0.209,0.845-0.609c0.073-0.227,0.082-0.318,0.1-0.827
		c0.018-0.354,0.182-0.5,0.582-0.5c0.436,0,0.645,0.155,0.645,0.482c0,0.491-0.273,0.954-0.755,1.282
		c-0.409,0.273-0.9,0.409-1.509,0.409c-1.372,0-2.191-0.627-2.191-1.682c0-0.455,0.136-0.827,0.409-1.145
		c0.191-0.227,0.536-0.482,1-0.745c1.2-0.673,1.472-0.854,1.891-1.236c0.364-0.327,0.527-0.563,0.718-1.027h-2.636
		c-0.745,0-1.009,0.236-1.173,1.055l-0.309-0.064l0.318-1.963h4.345c-0.091,0.727-0.273,1.254-0.609,1.772
		c-0.346,0.527-0.764,0.954-1.8,1.818c-0.418,0.345-0.618,0.573-0.754,0.836c-0.128,0.263-0.191,0.536-0.191,0.836
		C64.244,82.245,64.671,82.763,65.317,82.763z"/>
	<path d="M67.025,17.814H23.784c-1.801,0-3.266,1.465-3.266,3.266V83.9c0,1.801,1.465,3.266,3.266,3.266h43.241
		c1.801,0,3.266-1.465,3.266-3.266V21.08C70.291,19.279,68.826,17.814,67.025,17.814z M69.861,83.9c0,1.564-1.272,2.836-2.836,2.836
		H23.784c-1.563,0-2.836-1.272-2.836-2.836V21.08c0-1.564,1.272-2.836,2.836-2.836h43.241c1.564,0,2.836,1.272,2.836,2.836V83.9z"/>
	<path class="st1" d="M26.392,27.817h-2.636c0.191-0.464,0.354-0.7,0.718-1.027c0.418-0.382,0.691-0.563,1.891-1.236
		c0.464-0.263,0.809-0.518,1-0.745c0.273-0.318,0.409-0.691,0.409-1.145c0-1.054-0.818-1.682-2.191-1.682
		c-0.609,0-1.1,0.136-1.509,0.409c-0.482,0.327-0.755,0.791-0.755,1.282c0,0.327,0.209,0.482,0.645,0.482
		c0.4,0,0.564-0.146,0.582-0.5c0.018-0.509,0.027-0.6,0.1-0.827c0.136-0.4,0.418-0.609,0.845-0.609c0.645,0,1.073,0.518,1.073,1.309
		c0,0.3-0.064,0.573-0.191,0.836c-0.136,0.264-0.336,0.491-0.754,0.836c-1.036,0.863-1.454,1.291-1.8,1.818
		c-0.336,0.518-0.518,1.045-0.609,1.772h4.345l0.318-1.963l-0.309-0.064C27.401,27.581,27.137,27.817,26.392,27.817z"/>
	<path class="st1" d="M65.189,79.781c1.036-0.864,1.454-1.291,1.8-1.818c0.336-0.518,0.518-1.045,0.609-1.772h-4.345l-0.318,1.963
		l0.309,0.064c0.164-0.818,0.427-1.055,1.173-1.055h2.636c-0.191,0.464-0.354,0.7-0.718,1.027c-0.418,0.382-0.691,0.563-1.891,1.236
		c-0.464,0.263-0.809,0.518-1,0.745c-0.273,0.318-0.409,0.691-0.409,1.145c0,1.054,0.818,1.682,2.191,1.682
		c0.609,0,1.1-0.136,1.509-0.409c0.482-0.327,0.755-0.791,0.755-1.282c0-0.327-0.209-0.482-0.645-0.482
		c-0.4,0-0.564,0.146-0.582,0.5c-0.018,0.509-0.027,0.6-0.1,0.827c-0.136,0.4-0.418,0.609-0.845,0.609
		c-0.645,0-1.073-0.518-1.073-1.309c0-0.3,0.064-0.573,0.191-0.836C64.571,80.354,64.771,80.127,65.189,79.781z"/>
	<path class="st1" d="M45.404,23.731c-0.617,2.151-3.105,5.523-5.124,6.675c2.02,1.152,4.507,4.523,5.124,6.674
		c0.617-2.151,3.106-5.522,5.124-6.674C48.509,29.254,46.02,25.882,45.404,23.731z"/>
	<path class="st1" d="M45.404,67.901c-0.617,2.15-3.105,5.522-5.124,6.674c2.02,1.152,4.507,4.524,5.124,6.674
		c0.617-2.15,3.106-5.523,5.124-6.674C48.509,73.423,46.02,70.052,45.404,67.901z"/>
	<path class="st1" d="M25.443,30.578c-0.249,0.868-1.252,2.228-2.067,2.693c0.814,0.465,1.818,1.825,2.067,2.693
		c0.249-0.868,1.253-2.227,2.068-2.693C26.697,32.806,25.692,31.446,25.443,30.578z"/>
	<path class="st1" d="M65.366,74.403c0.249-0.868,1.252-2.228,2.067-2.693c-0.814-0.465-1.818-1.825-2.067-2.693
		c-0.249,0.867-1.254,2.228-2.068,2.693C64.112,72.175,65.117,73.535,65.366,74.403z"/>
</g>
</svg>
