<?xml version="1.0" encoding="utf-8"?>
<!-- Generator: Adobe Illustrator 23.0.2, SVG Export Plug-In . SVG Version: 6.00 Build 0)  -->
<svg version="1.1" id="Layer_1" xmlns="http://www.w3.org/2000/svg" xmlns:xlink="http://www.w3.org/1999/xlink" x="0px" y="0px"
	 viewBox="0 0 82.452 99.776" style="enable-background:new 0 0 82.452 99.776;" xml:space="preserve">
<style type="text/css">
	.st0{fill:#FFFFFF;}
	.st1{fill:#ED1C24;}
	.st2{fill:#FFCB05;}
	.st3{fill:#21409A;}
	.st4{fill:#D4D5D6;}
	.st5{fill:#000100;}
	.st6{fill:#300505;}
	.st7{fill:#BFD730;}
	.st8{fill:#F15A22;}
</style>
<g>
	<path class="st0" d="M66.978,18.269H23.737c-1.563,0-2.836,1.272-2.836,2.836v62.82c0,1.564,1.272,2.836,2.836,2.836h43.241
		c1.564,0,2.836-1.272,2.836-2.836v-62.82C69.814,19.541,68.542,18.269,66.978,18.269z M26.444,34.728
		c-0.329,0.362-0.766,0.846-1.046,1.354c-0.28-0.507-0.717-0.992-1.047-1.354c-0.658-0.724-1.283-1.488-1.283-2.641
		c0-1.763,1.857-2.261,2.33-0.392c0.473-1.869,2.33-1.371,2.33,0.392C27.727,33.24,27.102,34.004,26.444,34.728z M27.509,28.815
		h-4.345c0.091-0.727,0.273-1.254,0.609-1.772c0.346-0.527,0.764-0.954,1.8-1.818c0.418-0.345,0.618-0.573,0.754-0.836
		c0.127-0.264,0.191-0.536,0.191-0.836c0-0.791-0.427-1.309-1.073-1.309c-0.427,0-0.709,0.209-0.845,0.609
		c-0.073,0.227-0.082,0.318-0.1,0.827c-0.018,0.355-0.182,0.5-0.582,0.5c-0.436,0-0.645-0.155-0.645-0.482
		c0-0.491,0.273-0.954,0.755-1.282c0.409-0.273,0.9-0.409,1.509-0.409c1.372,0,2.191,0.627,2.191,1.682
		c0,0.455-0.136,0.827-0.409,1.145c-0.191,0.227-0.536,0.482-1,0.745c-1.2,0.673-1.472,0.854-1.891,1.236
		c-0.364,0.327-0.527,0.563-0.718,1.027h2.636c0.745,0,1.009-0.236,1.173-1.055l0.309,0.064L27.509,28.815z M45.358,78.568
		c-1.174,4.633-5.777,3.4-5.777-0.971c0-2.859,1.552-4.754,3.182-6.548c0.816-0.898,1.899-2.099,2.595-3.357
		c0.694,1.258,1.778,2.459,2.594,3.357c1.631,1.794,3.181,3.689,3.181,6.548C51.133,81.968,46.531,83.201,45.358,78.568z
		 M47.952,33.982c-0.816,0.898-1.9,2.099-2.594,3.357c-0.696-1.258-1.779-2.458-2.595-3.357c-1.63-1.794-3.182-3.69-3.182-6.548
		c0-4.37,4.604-5.604,5.777-0.971c1.173-4.633,5.775-3.399,5.775,0.971C51.133,30.292,49.582,32.188,47.952,33.982z M65.27,82.788
		c0.427,0,0.709-0.209,0.845-0.609c0.073-0.227,0.082-0.318,0.1-0.827c0.018-0.355,0.182-0.5,0.582-0.5
		c0.436,0,0.645,0.155,0.645,0.482c0,0.49-0.273,0.954-0.755,1.282c-0.409,0.273-0.9,0.409-1.509,0.409
		c-1.373,0-2.191-0.627-2.191-1.681c0-0.455,0.136-0.828,0.409-1.145c0.191-0.228,0.536-0.482,1-0.746
		c1.2-0.672,1.472-0.854,1.891-1.236c0.364-0.327,0.527-0.564,0.718-1.027H64.37c-0.745,0-1.009,0.236-1.173,1.055l-0.309-0.064
		l0.318-1.963h4.345c-0.091,0.727-0.273,1.254-0.609,1.772c-0.346,0.528-0.764,0.955-1.8,1.818
		c-0.418,0.346-0.618,0.573-0.754,0.836c-0.128,0.264-0.191,0.536-0.191,0.836C64.197,82.27,64.624,82.788,65.27,82.788z
		 M65.317,73.335c-0.473,1.869-2.329,1.372-2.329-0.392c0-1.153,0.625-1.917,1.283-2.641c0.329-0.362,0.767-0.846,1.046-1.353
		c0.281,0.508,0.717,0.992,1.047,1.353c0.658,0.724,1.283,1.489,1.283,2.641C67.648,74.707,65.791,75.204,65.317,73.335z"/>
	<path d="M66.978,17.839H23.737c-1.801,0-3.266,1.465-3.266,3.266v62.82c0,1.801,1.465,3.266,3.266,3.266h43.241
		c1.801,0,3.266-1.465,3.266-3.266v-62.82C70.244,19.304,68.779,17.839,66.978,17.839z M69.814,83.925
		c0,1.564-1.272,2.836-2.836,2.836H23.737c-1.563,0-2.836-1.272-2.836-2.836v-62.82c0-1.564,1.272-2.836,2.836-2.836h43.241
		c1.564,0,2.836,1.272,2.836,2.836V83.925z"/>
	<path class="st1" d="M26.345,27.842h-2.636c0.191-0.464,0.354-0.7,0.718-1.027c0.418-0.382,0.691-0.564,1.891-1.236
		c0.464-0.263,0.809-0.518,1-0.745c0.273-0.318,0.409-0.691,0.409-1.145c0-1.054-0.818-1.682-2.191-1.682
		c-0.609,0-1.1,0.136-1.509,0.409c-0.482,0.327-0.755,0.791-0.755,1.282c0,0.327,0.209,0.482,0.645,0.482
		c0.4,0,0.564-0.145,0.582-0.5c0.018-0.509,0.027-0.6,0.1-0.827c0.136-0.4,0.418-0.609,0.845-0.609c0.645,0,1.073,0.518,1.073,1.309
		c0,0.3-0.064,0.573-0.191,0.836c-0.136,0.264-0.336,0.491-0.754,0.836c-1.036,0.863-1.454,1.291-1.8,1.818
		c-0.336,0.518-0.518,1.045-0.609,1.772h4.345l0.318-1.963l-0.309-0.064C27.354,27.606,27.091,27.842,26.345,27.842z"/>
	<path class="st1" d="M65.142,79.807c1.036-0.863,1.454-1.291,1.8-1.818c0.336-0.518,0.518-1.045,0.609-1.772h-4.345l-0.318,1.963
		l0.309,0.064c0.164-0.818,0.427-1.055,1.173-1.055h2.636c-0.191,0.464-0.354,0.7-0.718,1.027c-0.418,0.382-0.691,0.563-1.891,1.236
		c-0.464,0.263-0.809,0.518-1,0.746c-0.273,0.318-0.409,0.69-0.409,1.145c0,1.054,0.818,1.681,2.191,1.681
		c0.609,0,1.1-0.136,1.509-0.409c0.482-0.327,0.755-0.791,0.755-1.282c0-0.327-0.209-0.482-0.645-0.482
		c-0.4,0-0.564,0.145-0.582,0.5c-0.018,0.509-0.027,0.6-0.1,0.827c-0.136,0.4-0.418,0.609-0.845,0.609
		c-0.645,0-1.073-0.518-1.073-1.309c0-0.3,0.064-0.573,0.191-0.836C64.524,80.379,64.724,80.152,65.142,79.807z"/>
	<path class="st1" d="M25.397,31.695c-0.473-1.869-2.33-1.371-2.33,0.392c0,1.153,0.626,1.917,1.283,2.641
		c0.329,0.362,0.766,0.846,1.047,1.354c0.28-0.507,0.717-0.992,1.046-1.354c0.658-0.724,1.283-1.488,1.283-2.641
		C27.727,30.324,25.871,29.826,25.397,31.695z"/>
	<path class="st1" d="M65.317,68.949c-0.279,0.508-0.717,0.992-1.046,1.353c-0.658,0.724-1.283,1.489-1.283,2.641
		c0,1.763,1.856,2.261,2.329,0.392c0.474,1.869,2.33,1.372,2.33-0.392c0-1.153-0.625-1.917-1.283-2.641
		C66.035,69.94,65.599,69.456,65.317,68.949z"/>
	<path class="st1" d="M45.358,26.463c-1.174-4.633-5.777-3.399-5.777,0.971c0,2.858,1.552,4.754,3.182,6.548
		c0.816,0.898,1.899,2.099,2.595,3.357c0.694-1.258,1.778-2.458,2.594-3.357c1.631-1.794,3.181-3.69,3.181-6.548
		C51.133,23.063,46.531,21.829,45.358,26.463z"/>
	<path class="st1" d="M45.358,67.692c-0.696,1.258-1.779,2.459-2.595,3.357c-1.63,1.794-3.182,3.689-3.182,6.548
		c0,4.37,4.604,5.604,5.777,0.971c1.173,4.633,5.775,3.4,5.775-0.971c0-2.859-1.551-4.754-3.181-6.548
		C47.136,70.151,46.052,68.95,45.358,67.692z"/>
</g>
</svg>
