<?xml version="1.0" encoding="utf-8"?>
<!-- Generator: Adobe Illustrator 23.0.2, SVG Export Plug-In . SVG Version: 6.00 Build 0)  -->
<svg version="1.1" id="Layer_1" xmlns="http://www.w3.org/2000/svg" xmlns:xlink="http://www.w3.org/1999/xlink" x="0px" y="0px"
	 viewBox="0 0 82.452 99.776" style="enable-background:new 0 0 82.452 99.776;" xml:space="preserve">
<style type="text/css">
	.st0{fill:#FFFFFF;}
	.st1{fill:#ED1C24;}
	.st2{fill:#FFCB05;}
	.st3{fill:#21409A;}
	.st4{fill:#D4D5D6;}
	.st5{fill:#000100;}
	.st6{fill:#300505;}
	.st7{fill:#BFD730;}
	.st8{fill:#F15A22;}
</style>
<g>
	<path class="st0" d="M62.872,15.872H19.631c-1.563,0-2.836,1.272-2.836,2.836v62.82c0,1.563,1.272,2.836,2.836,2.836h43.241
		c1.564,0,2.836-1.272,2.836-2.836v-62.82C65.708,17.144,64.436,15.872,62.872,15.872z M21.403,32.067
		c0.055,0.521,0.298,1.316,0.788,1.505H20.39c0.491-0.189,0.733-0.984,0.788-1.505c-0.6,1.182-2.216,0.742-2.216-0.596
		c0-0.937,0.626-1.559,1.283-2.147c0.329-0.294,0.767-0.688,1.047-1.101c0.281,0.413,0.717,0.807,1.047,1.101
		c0.657,0.589,1.282,1.211,1.282,2.147C23.62,32.808,22.004,33.249,21.403,32.067z M23.403,26.417h-4.345
		c0.091-0.727,0.273-1.254,0.609-1.773c0.346-0.527,0.764-0.954,1.8-1.818c0.418-0.346,0.618-0.573,0.754-0.836
		c0.127-0.264,0.191-0.537,0.191-0.837c0-0.79-0.427-1.309-1.073-1.309c-0.427,0-0.709,0.209-0.845,0.609
		c-0.073,0.228-0.082,0.318-0.1,0.828c-0.018,0.354-0.182,0.5-0.582,0.5c-0.436,0-0.645-0.155-0.645-0.482
		c0-0.49,0.273-0.954,0.755-1.281c0.409-0.273,0.9-0.409,1.509-0.409c1.372,0,2.191,0.627,2.191,1.682
		c0,0.454-0.136,0.827-0.409,1.145c-0.191,0.227-0.536,0.481-1,0.745c-1.2,0.673-1.472,0.855-1.891,1.237
		c-0.364,0.327-0.527,0.563-0.718,1.027h2.636c0.745,0,1.009-0.236,1.173-1.055l0.309,0.064L23.403,26.417z M43.846,76.107
		c-0.817,0.731-1.9,1.706-2.596,2.73c-0.695-1.023-1.778-1.998-2.595-2.73c-1.63-1.459-3.182-3.001-3.182-5.326
		c0-3.318,4.007-4.411,5.497-1.479c-0.137-1.293-0.738-3.262-1.954-3.732h4.468c-1.216,0.47-1.817,2.439-1.955,3.732
		c1.489-2.931,5.497-1.839,5.497,1.479C47.028,73.106,45.476,74.648,43.846,76.107z M41.531,30.935
		c0.137,1.292,0.739,3.262,1.955,3.731h-4.468c1.216-0.469,1.817-2.439,1.954-3.731c-1.489,2.931-5.497,1.838-5.497-1.48
		c0-2.325,1.552-3.866,3.182-5.326c0.816-0.731,1.9-1.706,2.595-2.729c0.695,1.023,1.778,1.998,2.596,2.729
		c1.63,1.46,3.181,3.002,3.181,5.326C47.028,32.773,43.019,33.866,41.531,30.935z M61.164,80.391c0.427,0,0.709-0.209,0.845-0.609
		c0.073-0.228,0.082-0.318,0.1-0.828c0.018-0.354,0.182-0.5,0.582-0.5c0.436,0,0.645,0.155,0.645,0.482
		c0,0.491-0.273,0.954-0.755,1.282c-0.409,0.273-0.9,0.409-1.509,0.409c-1.372,0-2.191-0.627-2.191-1.681
		c0-0.455,0.136-0.828,0.409-1.146c0.191-0.227,0.536-0.481,1-0.745c1.2-0.672,1.472-0.854,1.891-1.236
		c0.364-0.327,0.527-0.564,0.718-1.027h-2.636c-0.745,0-1.009,0.236-1.173,1.055l-0.309-0.064l0.318-1.963h4.345
		c-0.091,0.727-0.273,1.254-0.609,1.773c-0.346,0.527-0.764,0.954-1.8,1.818c-0.418,0.346-0.618,0.573-0.754,0.836
		c-0.128,0.263-0.191,0.537-0.191,0.837C60.091,79.873,60.519,80.391,61.164,80.391z M62.26,70.913
		c-0.329,0.295-0.766,0.688-1.047,1.101c-0.279-0.413-0.717-0.806-1.046-1.101c-0.657-0.588-1.283-1.211-1.283-2.148
		c0-1.337,1.616-1.778,2.216-0.596c-0.055-0.521-0.297-1.315-0.788-1.505h1.802c-0.491,0.19-0.733,0.984-0.789,1.505
		c0.601-1.182,2.217-0.741,2.217,0.596C63.543,69.703,62.917,70.325,62.26,70.913z"/>
	<path d="M62.872,15.442H19.631c-1.801,0-3.266,1.465-3.266,3.266v62.82c0,1.801,1.465,3.266,3.266,3.266h43.241
		c1.801,0,3.266-1.465,3.266-3.266v-62.82C66.138,16.907,64.673,15.442,62.872,15.442z M65.708,81.528
		c0,1.563-1.272,2.836-2.836,2.836H19.631c-1.563,0-2.836-1.272-2.836-2.836v-62.82c0-1.563,1.272-2.836,2.836-2.836h43.241
		c1.564,0,2.836,1.272,2.836,2.836V81.528z"/>
	<path class="st5" d="M22.239,25.445h-2.636c0.191-0.464,0.354-0.7,0.718-1.027c0.418-0.382,0.691-0.564,1.891-1.237
		c0.464-0.263,0.809-0.518,1-0.745c0.273-0.318,0.409-0.691,0.409-1.145c0-1.055-0.818-1.682-2.191-1.682
		c-0.609,0-1.1,0.136-1.509,0.409c-0.482,0.327-0.755,0.791-0.755,1.281c0,0.327,0.209,0.482,0.645,0.482
		c0.4,0,0.564-0.145,0.582-0.5c0.018-0.509,0.027-0.6,0.1-0.828c0.136-0.4,0.418-0.609,0.845-0.609c0.645,0,1.073,0.518,1.073,1.309
		c0,0.3-0.064,0.573-0.191,0.837c-0.136,0.264-0.336,0.491-0.754,0.836c-1.036,0.863-1.454,1.291-1.8,1.818
		c-0.336,0.518-0.518,1.045-0.609,1.773h4.345l0.318-1.963l-0.309-0.064C23.248,25.209,22.985,25.445,22.239,25.445z"/>
	<path class="st5" d="M61.037,77.409c1.036-0.863,1.454-1.291,1.8-1.818c0.336-0.518,0.518-1.045,0.609-1.773h-4.345l-0.318,1.963
		l0.309,0.064c0.164-0.818,0.427-1.055,1.173-1.055H62.9c-0.191,0.464-0.354,0.7-0.718,1.027c-0.418,0.382-0.691,0.563-1.891,1.236
		c-0.464,0.264-0.809,0.518-1,0.745c-0.273,0.318-0.409,0.691-0.409,1.146c0,1.054,0.818,1.681,2.191,1.681
		c0.609,0,1.1-0.136,1.509-0.409c0.482-0.327,0.755-0.791,0.755-1.282c0-0.327-0.209-0.482-0.645-0.482
		c-0.4,0-0.564,0.145-0.582,0.5c-0.018,0.509-0.027,0.6-0.1,0.828c-0.136,0.4-0.418,0.609-0.845,0.609
		c-0.645,0-1.073-0.518-1.073-1.309c0-0.3,0.064-0.573,0.191-0.837C60.419,77.982,60.618,77.755,61.037,77.409z"/>
	<path d="M43.846,24.129c-0.817-0.731-1.9-1.706-2.596-2.729c-0.695,1.023-1.778,1.998-2.595,2.729
		c-1.63,1.46-3.182,3.002-3.182,5.326c0,3.318,4.007,4.411,5.497,1.48c-0.137,1.292-0.738,3.262-1.954,3.731h4.468
		c-1.216-0.469-1.817-2.439-1.955-3.731c1.489,2.931,5.497,1.838,5.497-1.48C47.028,27.131,45.476,25.589,43.846,24.129z"/>
	<path d="M41.531,69.302c0.137-1.293,0.739-3.262,1.955-3.732h-4.468c1.216,0.47,1.817,2.439,1.954,3.732
		c-1.489-2.931-5.497-1.839-5.497,1.479c0,2.325,1.552,3.867,3.182,5.326c0.816,0.731,1.9,1.706,2.595,2.73
		c0.695-1.023,1.778-1.998,2.596-2.73c1.63-1.459,3.181-3.001,3.181-5.326C47.028,67.463,43.019,66.37,41.531,69.302z"/>
	<path d="M22.337,29.323c-0.329-0.294-0.766-0.688-1.047-1.101c-0.28,0.413-0.717,0.807-1.047,1.101
		c-0.657,0.589-1.283,1.211-1.283,2.147c0,1.338,1.616,1.779,2.216,0.596c-0.055,0.521-0.297,1.316-0.788,1.505h1.802
		c-0.49-0.189-0.733-0.984-0.788-1.505c0.601,1.182,2.217,0.742,2.217-0.596C23.62,30.534,22.995,29.912,22.337,29.323z"/>
	<path d="M61.326,68.17c0.055-0.521,0.298-1.315,0.789-1.505h-1.802c0.49,0.19,0.733,0.984,0.788,1.505
		c-0.6-1.182-2.216-0.741-2.216,0.596c0,0.937,0.626,1.56,1.283,2.148c0.329,0.295,0.767,0.688,1.046,1.101
		c0.281-0.413,0.718-0.806,1.047-1.101c0.658-0.588,1.283-1.211,1.283-2.148C63.543,67.428,61.926,66.988,61.326,68.17z"/>
</g>
</svg>
