<?xml version="1.0" encoding="utf-8"?>
<!-- Generator: Adobe Illustrator 23.0.2, SVG Export Plug-In . SVG Version: 6.00 Build 0)  -->
<svg version="1.1" id="Layer_1" xmlns="http://www.w3.org/2000/svg" xmlns:xlink="http://www.w3.org/1999/xlink" x="0px" y="0px"
	 viewBox="0 0 82.452 99.776" style="enable-background:new 0 0 82.452 99.776;" xml:space="preserve">
<style type="text/css">
	.st0{fill:#FFFFFF;}
	.st1{fill:#ED1C24;}
	.st2{fill:#FFCB05;}
	.st3{fill:#21409A;}
	.st4{fill:#D4D5D6;}
	.st5{fill:#000100;}
	.st6{fill:#300505;}
	.st7{fill:#BFD730;}
	.st8{fill:#F15A22;}
</style>
<g>
	<path class="st0" d="M66.912,15.801H23.671c-1.563,0-2.836,1.272-2.836,2.836v62.82c0,1.564,1.272,2.836,2.836,2.836h43.241
		c1.563,0,2.836-1.272,2.836-2.836v-62.82C69.748,17.073,68.476,15.801,66.912,15.801z M25.971,23.274
		c-0.236-0.173-0.691-0.291-1.182-0.291h-0.273v-0.282h0.255c1.027-0.009,1.563-0.546,1.563-1.573c0-0.882-0.336-1.354-0.982-1.354
		c-0.337,0-0.582,0.127-0.718,0.382c-0.109,0.2-0.173,0.463-0.182,0.736c-0.009,0.3-0.027,0.364-0.109,0.455
		c-0.091,0.091-0.255,0.136-0.473,0.136c-0.418,0-0.636-0.155-0.636-0.445c0-0.845,0.936-1.5,2.145-1.5
		c0.646,0,1.236,0.182,1.618,0.5c0.309,0.264,0.5,0.682,0.5,1.118c0,0.891-0.691,1.481-1.909,1.636v0.073
		c1.381,0.109,2.091,0.709,2.091,1.754c0,1.164-0.9,1.873-2.373,1.873c-1.291,0-2.227-0.591-2.227-1.409
		c0-0.345,0.254-0.546,0.682-0.546c0.218,0,0.391,0.064,0.463,0.173c0.055,0.073,0.055,0.091,0.073,0.509
		c0.009,0.255,0.118,0.563,0.245,0.727c0.146,0.191,0.436,0.309,0.745,0.309c0.754,0,1.181-0.609,1.181-1.663
		C26.471,23.965,26.298,23.51,25.971,23.274z M27.595,31.729c-0.253,0.536-0.894,0.764-1.431,0.51
		c-0.232-0.11-0.407-0.293-0.508-0.509h-0.001c-0.001-0.003-0.002-0.005-0.003-0.008l-0.222-0.452v0.51
		c0,0.482,0.237,1.502,0.802,1.72h-1.802c0.564-0.218,0.801-1.238,0.801-1.72v-0.51l-0.222,0.452
		c-0.001,0.002-0.003,0.005-0.004,0.008c-0.102,0.216-0.277,0.399-0.509,0.509c-0.536,0.254-1.177,0.025-1.43-0.51
		c-0.254-0.536-0.026-1.177,0.51-1.43c0.233-0.11,0.485-0.129,0.716-0.072h0.001c0.002,0.001,0.005,0.001,0.008,0.001l0.565,0.132
		l-0.361-0.454c-0.002-0.002-0.004-0.004-0.005-0.006l-0.001,0c-0.151-0.186-0.241-0.421-0.241-0.678
		c0-0.593,0.48-1.074,1.074-1.074c0.593,0,1.074,0.481,1.074,1.074c0,0.257-0.091,0.492-0.241,0.678l-0.001,0
		c-0.002,0.002-0.003,0.004-0.005,0.006l-0.362,0.454l0.565-0.132c0.002-0.001,0.006-0.001,0.008-0.001h0.001
		c0.231-0.057,0.484-0.038,0.715,0.072C27.621,30.553,27.849,31.194,27.595,31.729z M49.638,73.428
		c-0.576,0.272-1.201,0.32-1.772,0.179h-0.003c-0.005-0.002-0.013-0.002-0.019-0.004l-1.399-0.327l0.894,1.124
		c0.005,0.005,0.011,0.01,0.013,0.016l0.002,0.001c0.373,0.459,0.596,1.043,0.596,1.679c0,1.469-1.189,2.66-2.658,2.66
		c-1.469,0-2.659-1.191-2.659-2.66c0-0.636,0.225-1.22,0.597-1.679l0.002-0.001c0.004-0.006,0.008-0.011,0.012-0.016l0.895-1.124
		l-1.398,0.327c-0.006,0.001-0.014,0.001-0.021,0.004h-0.002c-0.573,0.141-1.198,0.093-1.773-0.179
		c-1.327-0.629-1.892-2.215-1.264-3.542c0.628-1.327,2.215-1.893,3.544-1.264c0.575,0.272,1.006,0.726,1.259,1.26h0.001
		c0.002,0.007,0.006,0.014,0.009,0.019l0.549,1.121v-1.263c0-1.194-0.588-3.719-1.985-4.26h4.464
		c-1.396,0.542-1.983,3.067-1.983,4.26v1.263l0.549-1.121c0.004-0.005,0.008-0.012,0.009-0.019c0.254-0.533,0.686-0.988,1.262-1.26
		c1.327-0.63,2.914-0.064,3.542,1.264C51.531,71.213,50.965,72.799,49.638,73.428z M50.902,52.288
		c-0.628,1.327-2.215,1.893-3.544,1.263c-0.575-0.272-1.006-0.726-1.259-1.26h-0.001c-0.002-0.007-0.005-0.014-0.008-0.019
		l-0.549-1.12v1.263c0,1.194,0.588,3.719,1.985,4.26h-4.464c1.397-0.542,1.983-3.066,1.983-4.26v-1.263l-0.549,1.12
		c-0.004,0.005-0.008,0.012-0.009,0.019c-0.254,0.533-0.686,0.988-1.262,1.26c-1.327,0.63-2.914,0.064-3.542-1.263
		c-0.63-1.327-0.064-2.913,1.264-3.542c0.576-0.272,1.2-0.32,1.772-0.179h0.003c0.005,0.003,0.012,0.003,0.02,0.004l1.399,0.327
		l-0.894-1.124c-0.005-0.006-0.011-0.011-0.013-0.016l-0.002-0.001c-0.373-0.459-0.596-1.043-0.596-1.679
		c0-1.469,1.189-2.66,2.658-2.66c1.469,0,2.659,1.191,2.659,2.66c0,0.636-0.225,1.22-0.597,1.679l-0.002,0.001
		c-0.004,0.005-0.008,0.01-0.012,0.016l-0.895,1.124l1.398-0.327c0.006-0.001,0.014-0.001,0.02-0.004h0.002
		c0.573-0.141,1.198-0.093,1.773,0.179C50.966,49.375,51.531,50.96,50.902,52.288z M50.902,30.208
		c-0.628,1.327-2.215,1.893-3.544,1.263c-0.575-0.272-1.006-0.726-1.259-1.26h-0.001c-0.002-0.007-0.005-0.014-0.008-0.019
		l-0.549-1.12v1.263c0,1.194,0.588,3.719,1.985,4.26h-4.464c1.397-0.542,1.983-3.066,1.983-4.26v-1.263l-0.549,1.12
		c-0.004,0.005-0.008,0.012-0.009,0.019c-0.254,0.533-0.686,0.988-1.262,1.26c-1.327,0.63-2.914,0.064-3.542-1.263
		c-0.63-1.328-0.064-2.913,1.264-3.542c0.576-0.272,1.2-0.32,1.772-0.179h0.003c0.005,0.003,0.012,0.003,0.02,0.004l1.399,0.327
		l-0.894-1.124c-0.005-0.006-0.011-0.011-0.013-0.016l-0.002-0.001c-0.373-0.459-0.596-1.043-0.596-1.679
		c0-1.469,1.189-2.66,2.658-2.66c1.469,0,2.659,1.191,2.659,2.66c0,0.636-0.225,1.22-0.597,1.679l-0.002,0.001
		c-0.004,0.005-0.008,0.01-0.012,0.016l-0.895,1.124l1.398-0.327c0.006-0.001,0.014-0.001,0.02-0.004h0.002
		c0.573-0.141,1.198-0.093,1.773,0.179C50.966,27.295,51.531,28.881,50.902,30.208z M64.613,76.82
		c0.236,0.173,0.691,0.291,1.182,0.291h0.273v0.282h-0.255c-1.027,0.009-1.563,0.546-1.563,1.573c0,0.882,0.336,1.354,0.982,1.354
		c0.337,0,0.582-0.127,0.718-0.382c0.109-0.2,0.173-0.463,0.182-0.736c0.009-0.3,0.027-0.363,0.109-0.454
		c0.091-0.091,0.255-0.136,0.473-0.136c0.418,0,0.636,0.154,0.636,0.445c0,0.846-0.936,1.5-2.145,1.5
		c-0.646,0-1.236-0.182-1.618-0.5c-0.309-0.264-0.5-0.682-0.5-1.118c0-0.891,0.691-1.482,1.909-1.636v-0.073
		c-1.381-0.109-2.091-0.709-2.091-1.754c0-1.163,0.9-1.872,2.373-1.872c1.291,0,2.227,0.591,2.227,1.409
		c0,0.345-0.254,0.546-0.682,0.546c-0.218,0-0.391-0.064-0.463-0.173c-0.055-0.073-0.055-0.091-0.073-0.509
		c-0.009-0.254-0.118-0.563-0.245-0.727c-0.145-0.191-0.436-0.309-0.745-0.309c-0.754,0-1.181,0.609-1.181,1.663
		C64.113,76.129,64.285,76.584,64.613,76.82z M67.009,69.795c-0.232,0.11-0.484,0.129-0.715,0.072h-0.001
		c-0.003-0.001-0.005-0.001-0.008-0.001l-0.565-0.132l0.361,0.454c0.002,0.002,0.004,0.004,0.005,0.006l0.001,0
		c0.151,0.186,0.241,0.421,0.241,0.678c0,0.593-0.481,1.074-1.074,1.074c-0.593,0-1.074-0.481-1.074-1.074
		c0-0.257,0.091-0.493,0.242-0.678l0.001,0c0.001-0.002,0.003-0.004,0.004-0.006l0.362-0.454l-0.564,0.132
		c-0.003,0-0.007,0-0.009,0.001h-0.001c-0.231,0.057-0.483,0.038-0.716-0.072c-0.536-0.254-0.764-0.894-0.51-1.43
		c0.253-0.536,0.895-0.764,1.431-0.51c0.232,0.11,0.407,0.293,0.509,0.509h0.001c0.001,0.003,0.002,0.006,0.003,0.008l0.222,0.453
		v-0.51c0-0.482-0.238-1.501-0.802-1.72h1.802c-0.564,0.219-0.801,1.239-0.801,1.72v0.51l0.222-0.453
		c0.001-0.002,0.003-0.005,0.004-0.008c0.102-0.215,0.277-0.399,0.509-0.509c0.536-0.254,1.177-0.026,1.43,0.51
		C67.773,68.901,67.545,69.541,67.009,69.795z"/>
	<path d="M66.912,15.371H23.671c-1.801,0-3.266,1.465-3.266,3.266v62.82c0,1.801,1.465,3.266,3.266,3.266h43.241
		c1.801,0,3.266-1.465,3.266-3.266v-62.82C70.178,16.836,68.713,15.371,66.912,15.371z M69.748,81.457
		c0,1.564-1.272,2.836-2.836,2.836H23.671c-1.563,0-2.836-1.272-2.836-2.836v-62.82c0-1.563,1.272-2.836,2.836-2.836h43.241
		c1.563,0,2.836,1.272,2.836,2.836V81.457z"/>
	<path d="M27.085,30.299c-0.232-0.11-0.484-0.129-0.715-0.072h-0.001c-0.003,0.001-0.006,0.001-0.008,0.001l-0.565,0.132
		l0.362-0.454c0.001-0.002,0.003-0.004,0.005-0.006l0.001,0c0.15-0.186,0.241-0.421,0.241-0.678c0-0.593-0.481-1.074-1.074-1.074
		c-0.593,0-1.074,0.481-1.074,1.074c0,0.257,0.09,0.492,0.241,0.678l0.001,0c0.001,0.002,0.003,0.004,0.005,0.006l0.361,0.454
		L24.3,30.228c-0.003-0.001-0.006-0.001-0.008-0.001h-0.001c-0.231-0.057-0.483-0.038-0.716,0.072
		c-0.536,0.253-0.764,0.894-0.51,1.43c0.254,0.536,0.894,0.764,1.43,0.51c0.233-0.11,0.407-0.293,0.509-0.509
		c0.001-0.003,0.002-0.005,0.004-0.008l0.222-0.452v0.51c0,0.482-0.237,1.502-0.801,1.72h1.802c-0.564-0.218-0.802-1.238-0.802-1.72
		v-0.51l0.222,0.452c0.001,0.002,0.003,0.005,0.003,0.008h0.001c0.102,0.216,0.276,0.399,0.508,0.509
		c0.537,0.254,1.177,0.025,1.431-0.51C27.849,31.194,27.621,30.553,27.085,30.299z"/>
	<path d="M49.639,48.746c-0.576-0.272-1.201-0.32-1.773-0.179h-0.002c-0.006,0.003-0.015,0.003-0.02,0.004l-1.398,0.327l0.895-1.124
		c0.004-0.006,0.008-0.011,0.012-0.016l0.002-0.001c0.372-0.459,0.597-1.043,0.597-1.679c0-1.469-1.191-2.66-2.659-2.66
		c-1.469,0-2.658,1.191-2.658,2.66c0,0.636,0.223,1.22,0.596,1.679l0.002,0.001c0.002,0.005,0.008,0.01,0.013,0.016l0.894,1.124
		l-1.399-0.327c-0.007-0.001-0.015-0.001-0.02-0.004h-0.003c-0.572-0.141-1.196-0.093-1.772,0.179
		c-1.328,0.628-1.894,2.214-1.264,3.542c0.628,1.327,2.214,1.893,3.542,1.263c0.576-0.272,1.009-0.726,1.262-1.26
		c0.001-0.007,0.005-0.014,0.009-0.019l0.549-1.12v1.263c0,1.194-0.587,3.719-1.983,4.26h4.464c-1.397-0.542-1.985-3.066-1.985-4.26
		v-1.263l0.549,1.12c0.003,0.005,0.006,0.012,0.008,0.019h0.001c0.252,0.533,0.684,0.988,1.259,1.26
		c1.329,0.63,2.916,0.064,3.544-1.263C51.531,50.96,50.966,49.375,49.639,48.746z"/>
	<path d="M49.639,26.666c-0.576-0.272-1.201-0.32-1.773-0.179h-0.002c-0.006,0.003-0.015,0.003-0.02,0.004l-1.398,0.327l0.895-1.124
		c0.004-0.006,0.008-0.011,0.012-0.016l0.002-0.001c0.372-0.459,0.597-1.043,0.597-1.679c0-1.469-1.191-2.66-2.659-2.66
		c-1.469,0-2.658,1.191-2.658,2.66c0,0.636,0.223,1.22,0.596,1.679l0.002,0.001c0.002,0.005,0.008,0.01,0.013,0.016l0.894,1.124
		l-1.399-0.327c-0.007-0.001-0.015-0.001-0.02-0.004h-0.003c-0.572-0.141-1.196-0.093-1.772,0.179
		c-1.328,0.629-1.894,2.214-1.264,3.542c0.628,1.327,2.214,1.893,3.542,1.263c0.576-0.272,1.009-0.726,1.262-1.26
		c0.001-0.007,0.005-0.014,0.009-0.019l0.549-1.12v1.263c0,1.194-0.587,3.719-1.983,4.26h4.464c-1.397-0.542-1.985-3.066-1.985-4.26
		v-1.263l0.549,1.12c0.003,0.005,0.006,0.012,0.008,0.019h0.001c0.252,0.533,0.684,0.988,1.259,1.26
		c1.329,0.63,2.916,0.064,3.544-1.263C51.531,28.881,50.966,27.295,49.639,26.666z"/>
	<path d="M47.359,68.622c-0.576,0.272-1.008,0.726-1.262,1.26c-0.001,0.007-0.005,0.014-0.009,0.019l-0.549,1.121v-1.263
		c0-1.194,0.587-3.719,1.983-4.26h-4.464c1.398,0.542,1.985,3.067,1.985,4.26v1.263l-0.549-1.121
		c-0.003-0.005-0.007-0.012-0.009-0.019h-0.001c-0.252-0.533-0.684-0.988-1.259-1.26c-1.329-0.63-2.916-0.064-3.544,1.264
		c-0.629,1.327-0.064,2.913,1.264,3.542c0.575,0.272,1.2,0.32,1.773,0.179h0.002c0.006-0.002,0.015-0.002,0.021-0.004l1.398-0.327
		l-0.895,1.124c-0.004,0.005-0.008,0.01-0.012,0.016l-0.002,0.001c-0.372,0.459-0.597,1.043-0.597,1.679
		c0,1.469,1.191,2.66,2.659,2.66c1.469,0,2.658-1.191,2.658-2.66c0-0.636-0.223-1.22-0.596-1.679l-0.002-0.001
		c-0.002-0.006-0.008-0.011-0.013-0.016l-0.894-1.124l1.399,0.327c0.007,0.001,0.015,0.001,0.019,0.004h0.003
		c0.572,0.141,1.196,0.093,1.772-0.179c1.328-0.629,1.894-2.215,1.263-3.542C50.273,68.559,48.687,67.993,47.359,68.622z"/>
	<path class="st5" d="M25.289,26.256c-0.309,0-0.6-0.118-0.745-0.309c-0.127-0.164-0.236-0.473-0.245-0.727
		c-0.018-0.418-0.018-0.436-0.073-0.509c-0.073-0.109-0.245-0.173-0.463-0.173c-0.427,0-0.682,0.2-0.682,0.546
		c0,0.818,0.936,1.409,2.227,1.409c1.473,0,2.373-0.709,2.373-1.873c0-1.045-0.709-1.645-2.091-1.754v-0.073
		c1.218-0.155,1.909-0.745,1.909-1.636c0-0.436-0.191-0.854-0.5-1.118c-0.382-0.318-0.972-0.5-1.618-0.5
		c-1.209,0-2.145,0.655-2.145,1.5c0,0.291,0.218,0.445,0.636,0.445c0.218,0,0.382-0.045,0.473-0.136
		c0.082-0.091,0.1-0.155,0.109-0.455c0.009-0.273,0.073-0.536,0.182-0.736c0.136-0.255,0.382-0.382,0.718-0.382
		c0.645,0,0.982,0.473,0.982,1.354c0,1.027-0.536,1.564-1.563,1.573h-0.255v0.282h0.273c0.491,0,0.946,0.118,1.182,0.291
		c0.327,0.236,0.5,0.691,0.5,1.318C26.471,25.646,26.044,26.256,25.289,26.256z"/>
	<path d="M66.089,67.855c-0.232,0.11-0.407,0.293-0.509,0.509c-0.001,0.003-0.002,0.006-0.004,0.008l-0.222,0.453v-0.51
		c0-0.482,0.237-1.501,0.801-1.72h-1.802c0.564,0.219,0.802,1.239,0.802,1.72v0.51l-0.222-0.453
		c-0.001-0.002-0.002-0.005-0.003-0.008h-0.001c-0.102-0.215-0.277-0.399-0.509-0.509c-0.536-0.254-1.177-0.026-1.431,0.51
		c-0.254,0.536-0.026,1.177,0.51,1.43c0.233,0.11,0.485,0.129,0.716,0.072h0.001c0.002-0.001,0.006-0.001,0.009-0.001l0.564-0.132
		l-0.362,0.454c-0.001,0.002-0.003,0.004-0.004,0.006l-0.001,0c-0.151,0.186-0.242,0.421-0.242,0.678
		c0,0.593,0.481,1.074,1.074,1.074c0.593,0,1.074-0.481,1.074-1.074c0-0.257-0.09-0.493-0.241-0.678l-0.001,0
		c-0.001-0.002-0.003-0.004-0.005-0.006l-0.361-0.454l0.565,0.132c0.003,0,0.005,0,0.008,0.001h0.001
		c0.231,0.057,0.483,0.038,0.715-0.072c0.536-0.254,0.764-0.894,0.51-1.43C67.265,67.829,66.625,67.6,66.089,67.855z"/>
	<path class="st5" d="M65.294,73.839c0.309,0,0.6,0.118,0.745,0.309c0.127,0.164,0.236,0.473,0.245,0.727
		c0.018,0.418,0.018,0.436,0.073,0.509c0.073,0.109,0.245,0.173,0.463,0.173c0.427,0,0.682-0.2,0.682-0.546
		c0-0.818-0.936-1.409-2.227-1.409c-1.473,0-2.373,0.709-2.373,1.872c0,1.045,0.709,1.645,2.091,1.754v0.073
		c-1.218,0.154-1.909,0.745-1.909,1.636c0,0.436,0.191,0.854,0.5,1.118c0.382,0.318,0.972,0.5,1.618,0.5
		c1.209,0,2.145-0.654,2.145-1.5c0-0.291-0.218-0.445-0.636-0.445c-0.218,0-0.382,0.045-0.473,0.136
		c-0.082,0.091-0.1,0.155-0.109,0.454c-0.009,0.273-0.073,0.536-0.182,0.736c-0.136,0.255-0.382,0.382-0.718,0.382
		c-0.645,0-0.982-0.473-0.982-1.354c0-1.027,0.536-1.564,1.563-1.573h0.255v-0.282h-0.273c-0.491,0-0.946-0.118-1.182-0.291
		c-0.327-0.236-0.5-0.691-0.5-1.318C64.113,74.448,64.54,73.839,65.294,73.839z"/>
</g>
</svg>
