<?xml version="1.0" encoding="utf-8"?>
<!-- Generator: Adobe Illustrator 23.0.2, SVG Export Plug-In . SVG Version: 6.00 Build 0)  -->
<svg version="1.1" id="Layer_1" xmlns="http://www.w3.org/2000/svg" xmlns:xlink="http://www.w3.org/1999/xlink" x="0px" y="0px"
	 viewBox="0 0 82.452 99.776" style="enable-background:new 0 0 82.452 99.776;" xml:space="preserve">
<style type="text/css">
	.st0{fill:#FFFFFF;}
	.st1{fill:#ED1C24;}
	.st2{fill:#FFCB05;}
	.st3{fill:#21409A;}
	.st4{fill:#D4D5D6;}
	.st5{fill:#000100;}
	.st6{fill:#300505;}
	.st7{fill:#BFD730;}
	.st8{fill:#F15A22;}
</style>
<g>
	<path class="st0" d="M62.846,16.755H19.606c-1.563,0-2.836,1.272-2.836,2.836v62.82c0,1.564,1.272,2.836,2.836,2.836h43.241
		c1.563,0,2.836-1.272,2.836-2.836v-62.82C65.682,18.027,64.41,16.755,62.846,16.755z M61.187,67.528
		c0.249,0.867,1.252,2.228,2.067,2.693c-0.815,0.465-1.818,1.825-2.067,2.693c-0.249-0.868-1.254-2.228-2.068-2.693
		C59.934,69.756,60.938,68.395,61.187,67.528z M21.265,34.474c-0.249-0.868-1.252-2.227-2.067-2.693
		c0.814-0.465,1.818-1.825,2.067-2.693c0.249,0.868,1.253,2.228,2.068,2.693C22.518,32.247,21.514,33.607,21.265,34.474z
		 M21.242,27.446c-1.291,0-2.227-0.591-2.227-1.409c0-0.345,0.254-0.546,0.682-0.546c0.218,0,0.391,0.064,0.463,0.173
		c0.055,0.073,0.055,0.091,0.073,0.509c0.009,0.254,0.118,0.563,0.245,0.727c0.146,0.191,0.436,0.309,0.745,0.309
		c0.754,0,1.181-0.609,1.181-1.663c0-0.627-0.172-1.082-0.5-1.318c-0.236-0.173-0.691-0.291-1.182-0.291h-0.273v-0.282h0.255
		c1.027-0.009,1.563-0.545,1.563-1.573c0-0.882-0.336-1.354-0.982-1.354c-0.337,0-0.582,0.127-0.718,0.382
		c-0.109,0.2-0.173,0.463-0.182,0.736c-0.009,0.3-0.027,0.363-0.109,0.454c-0.091,0.091-0.255,0.136-0.473,0.136
		c-0.418,0-0.636-0.154-0.636-0.445c0-0.846,0.936-1.5,2.145-1.5c0.646,0,1.236,0.182,1.618,0.5c0.309,0.264,0.5,0.682,0.5,1.118
		c0,0.891-0.691,1.482-1.909,1.636v0.073c1.381,0.109,2.091,0.709,2.091,1.754C23.614,26.737,22.714,27.446,21.242,27.446z
		 M41.225,79.749c-0.617-2.15-3.105-5.522-5.124-6.674c2.019-1.152,4.507-4.524,5.124-6.674c0.617,2.15,3.106,5.523,5.124,6.674
		C44.331,74.227,41.842,77.599,41.225,79.749z M41.225,57.67c-0.617-2.151-3.105-5.522-5.124-6.674
		c2.019-1.152,4.507-4.524,5.124-6.674c0.617,2.15,3.106,5.523,5.124,6.674C44.331,52.148,41.842,55.519,41.225,57.67z
		 M41.225,35.59c-0.617-2.151-3.105-5.522-5.124-6.674c2.019-1.152,4.507-4.524,5.124-6.675c0.617,2.151,3.106,5.523,5.124,6.675
		C44.331,30.068,41.842,33.439,41.225,35.59z M60.547,77.774c0.236,0.173,0.691,0.291,1.182,0.291h0.273v0.282h-0.255
		c-1.027,0.009-1.563,0.545-1.563,1.573c0,0.882,0.336,1.354,0.982,1.354c0.337,0,0.582-0.127,0.718-0.382
		c0.109-0.2,0.173-0.463,0.182-0.736c0.009-0.3,0.027-0.363,0.109-0.454c0.091-0.091,0.255-0.136,0.473-0.136
		c0.418,0,0.636,0.154,0.636,0.445c0,0.846-0.936,1.5-2.145,1.5c-0.646,0-1.236-0.182-1.618-0.5c-0.309-0.264-0.5-0.682-0.5-1.118
		c0-0.891,0.691-1.482,1.909-1.636v-0.073c-1.381-0.109-2.091-0.709-2.091-1.754c0-1.164,0.9-1.872,2.373-1.872
		c1.291,0,2.227,0.591,2.227,1.409c0,0.345-0.254,0.546-0.682,0.546c-0.218,0-0.391-0.064-0.463-0.173
		c-0.055-0.073-0.055-0.091-0.073-0.509c-0.009-0.254-0.118-0.563-0.245-0.727c-0.145-0.191-0.436-0.309-0.745-0.309
		c-0.754,0-1.181,0.609-1.181,1.663C60.047,77.084,60.22,77.538,60.547,77.774z"/>
	<path d="M62.846,16.325H19.606c-1.801,0-3.266,1.465-3.266,3.266v62.82c0,1.801,1.465,3.266,3.266,3.266h43.241
		c1.801,0,3.266-1.465,3.266-3.266v-62.82C66.112,17.79,64.647,16.325,62.846,16.325z M65.682,82.411
		c0,1.564-1.272,2.836-2.836,2.836H19.606c-1.563,0-2.836-1.272-2.836-2.836v-62.82c0-1.564,1.272-2.836,2.836-2.836h43.241
		c1.563,0,2.836,1.272,2.836,2.836V82.411z"/>
	<path class="st1" d="M21.524,23.819v-0.073c1.218-0.154,1.909-0.745,1.909-1.636c0-0.436-0.191-0.854-0.5-1.118
		c-0.382-0.318-0.972-0.5-1.618-0.5c-1.209,0-2.145,0.654-2.145,1.5c0,0.291,0.218,0.445,0.636,0.445
		c0.218,0,0.382-0.045,0.473-0.136c0.082-0.091,0.1-0.155,0.109-0.454c0.009-0.273,0.073-0.536,0.182-0.736
		c0.136-0.255,0.382-0.382,0.718-0.382c0.645,0,0.982,0.473,0.982,1.354c0,1.027-0.536,1.564-1.563,1.573h-0.255v0.282h0.273
		c0.491,0,0.946,0.118,1.182,0.291c0.327,0.236,0.5,0.691,0.5,1.318c0,1.054-0.427,1.663-1.181,1.663
		c-0.309,0-0.6-0.118-0.745-0.309c-0.127-0.164-0.236-0.473-0.245-0.727c-0.018-0.418-0.018-0.436-0.073-0.509
		c-0.073-0.109-0.245-0.173-0.463-0.173c-0.427,0-0.682,0.2-0.682,0.546c0,0.818,0.936,1.409,2.227,1.409
		c1.473,0,2.373-0.709,2.373-1.872C23.614,24.529,22.905,23.928,21.524,23.819z"/>
	<path class="st1" d="M61.228,74.793c0.309,0,0.6,0.118,0.745,0.309c0.127,0.164,0.236,0.473,0.245,0.727
		c0.018,0.418,0.018,0.436,0.073,0.509c0.073,0.109,0.245,0.173,0.463,0.173c0.427,0,0.682-0.2,0.682-0.546
		c0-0.818-0.936-1.409-2.227-1.409c-1.473,0-2.373,0.709-2.373,1.872c0,1.045,0.709,1.645,2.091,1.754v0.073
		c-1.218,0.154-1.909,0.745-1.909,1.636c0,0.436,0.191,0.854,0.5,1.118c0.382,0.318,0.972,0.5,1.618,0.5
		c1.209,0,2.145-0.654,2.145-1.5c0-0.291-0.218-0.445-0.636-0.445c-0.218,0-0.382,0.045-0.473,0.136
		c-0.082,0.091-0.1,0.155-0.109,0.454c-0.009,0.273-0.073,0.536-0.182,0.736c-0.136,0.255-0.382,0.382-0.718,0.382
		c-0.645,0-0.982-0.473-0.982-1.354c0-1.027,0.536-1.564,1.563-1.573h0.255v-0.282h-0.273c-0.491,0-0.946-0.118-1.182-0.291
		c-0.327-0.236-0.5-0.691-0.5-1.318C60.047,75.402,60.474,74.793,61.228,74.793z"/>
	<path class="st1" d="M41.225,22.242c-0.617,2.151-3.105,5.523-5.124,6.675c2.019,1.152,4.507,4.523,5.124,6.674
		c0.617-2.151,3.106-5.522,5.124-6.674C44.331,27.765,41.842,24.393,41.225,22.242z"/>
	<path class="st1" d="M41.225,44.322c-0.617,2.15-3.105,5.523-5.124,6.674c2.019,1.152,4.507,4.523,5.124,6.674
		c0.617-2.151,3.106-5.522,5.124-6.674C44.331,49.844,41.842,46.472,41.225,44.322z"/>
	<path class="st1" d="M41.225,66.401c-0.617,2.15-3.105,5.523-5.124,6.674c2.019,1.152,4.507,4.523,5.124,6.674
		c0.617-2.15,3.106-5.522,5.124-6.674C44.331,71.924,41.842,68.552,41.225,66.401z"/>
	<path class="st1" d="M21.265,29.089c-0.249,0.868-1.252,2.228-2.067,2.693c0.814,0.465,1.818,1.825,2.067,2.693
		c0.249-0.868,1.253-2.227,2.068-2.693C22.518,31.317,21.514,29.957,21.265,29.089z"/>
	<path class="st1" d="M61.187,72.914c0.249-0.868,1.252-2.228,2.067-2.693c-0.815-0.465-1.818-1.825-2.067-2.693
		c-0.249,0.867-1.254,2.228-2.068,2.693C59.934,70.686,60.938,72.046,61.187,72.914z"/>
</g>
</svg>
