<?xml version="1.0" encoding="utf-8"?>
<!-- Generator: Adobe Illustrator 23.0.2, SVG Export Plug-In . SVG Version: 6.00 Build 0)  -->
<svg version="1.1" id="Layer_1" xmlns="http://www.w3.org/2000/svg" xmlns:xlink="http://www.w3.org/1999/xlink" x="0px" y="0px"
	 viewBox="0 0 82.452 99.776" style="enable-background:new 0 0 82.452 99.776;" xml:space="preserve">
<style type="text/css">
	.st0{fill:#FFFFFF;}
	.st1{fill:#ED1C24;}
	.st2{fill:#FFCB05;}
	.st3{fill:#21409A;}
	.st4{fill:#D4D5D6;}
	.st5{fill:#000100;}
	.st6{fill:#300505;}
	.st7{fill:#BFD730;}
	.st8{fill:#F15A22;}
</style>
<g>
	<path class="st0" d="M68.616,13.581H25.375c-1.563,0-2.836,1.272-2.836,2.836v62.82c0,1.564,1.272,2.836,2.836,2.836h43.241
		c1.563,0,2.836-1.272,2.836-2.836v-62.82C71.451,14.853,70.179,13.581,68.616,13.581z M28.081,30.04
		c-0.329,0.362-0.766,0.846-1.046,1.354c-0.281-0.507-0.718-0.992-1.047-1.354c-0.658-0.724-1.284-1.488-1.284-2.641
		c0-1.763,1.857-2.261,2.33-0.392c0.473-1.869,2.329-1.371,2.329,0.392C29.364,28.551,28.739,29.316,28.081,30.04z M27.011,24.272
		c-1.291,0-2.227-0.591-2.227-1.409c0-0.345,0.254-0.546,0.682-0.546c0.218,0,0.391,0.064,0.463,0.173
		c0.055,0.073,0.055,0.091,0.073,0.509c0.009,0.254,0.118,0.563,0.245,0.727c0.146,0.191,0.436,0.309,0.745,0.309
		c0.754,0,1.181-0.609,1.181-1.663c0-0.627-0.172-1.082-0.5-1.318c-0.236-0.173-0.691-0.291-1.182-0.291H26.22v-0.282h0.255
		c1.027-0.009,1.563-0.546,1.563-1.573c0-0.882-0.336-1.354-0.982-1.354c-0.337,0-0.582,0.127-0.718,0.382
		c-0.109,0.2-0.173,0.463-0.182,0.736c-0.009,0.3-0.027,0.363-0.109,0.454c-0.091,0.091-0.255,0.136-0.473,0.136
		c-0.418,0-0.636-0.154-0.636-0.445c0-0.846,0.936-1.5,2.145-1.5c0.646,0,1.236,0.182,1.618,0.5c0.309,0.264,0.5,0.682,0.5,1.118
		c0,0.891-0.691,1.482-1.909,1.636v0.073c1.381,0.109,2.091,0.709,2.091,1.754C29.383,23.563,28.483,24.272,27.011,24.272z
		 M46.992,73.88c-1.174,4.633-5.778,3.4-5.778-0.971c0-2.859,1.552-4.754,3.183-6.548c0.816-0.898,1.899-2.099,2.595-3.357
		c0.694,1.258,1.778,2.459,2.594,3.357c1.631,1.794,3.181,3.689,3.181,6.548C52.768,77.279,48.165,78.513,46.992,73.88z
		 M49.59,51.373c-0.816,0.898-1.9,2.099-2.594,3.356c-0.695-1.258-1.779-2.458-2.595-3.356c-1.63-1.794-3.182-3.69-3.182-6.548
		c0-4.37,4.604-5.604,5.778-0.971c1.173-4.633,5.775-3.399,5.775,0.971C52.771,47.683,51.22,49.579,49.59,51.373z M49.59,29.293
		c-0.816,0.898-1.9,2.099-2.594,3.357c-0.695-1.258-1.779-2.458-2.595-3.357c-1.63-1.794-3.182-3.69-3.182-6.548
		c0-4.37,4.604-5.604,5.778-0.971c1.173-4.633,5.775-3.399,5.775,0.971C52.771,25.603,51.22,27.499,49.59,29.293z M66.316,74.6
		c0.236,0.172,0.691,0.291,1.182,0.291h0.273v0.282h-0.255c-1.027,0.009-1.563,0.545-1.563,1.572c0,0.882,0.336,1.355,0.982,1.355
		c0.337,0,0.582-0.128,0.718-0.382c0.109-0.2,0.173-0.463,0.182-0.736c0.009-0.299,0.027-0.363,0.109-0.455
		c0.091-0.091,0.255-0.136,0.473-0.136c0.418,0,0.636,0.154,0.636,0.445c0,0.845-0.936,1.5-2.145,1.5
		c-0.646,0-1.236-0.182-1.618-0.5c-0.309-0.264-0.5-0.682-0.5-1.118c0-0.891,0.691-1.482,1.909-1.636v-0.072
		c-1.381-0.109-2.091-0.709-2.091-1.754c0-1.163,0.9-1.872,2.373-1.872c1.291,0,2.227,0.591,2.227,1.409
		c0,0.346-0.254,0.545-0.682,0.545c-0.218,0-0.391-0.063-0.463-0.172c-0.055-0.073-0.055-0.091-0.073-0.509
		c-0.009-0.254-0.118-0.563-0.245-0.727c-0.145-0.191-0.436-0.309-0.745-0.309c-0.754,0-1.181,0.609-1.181,1.663
		C65.816,73.909,65.989,74.364,66.316,74.6z M66.955,68.647c-0.473,1.869-2.33,1.372-2.33-0.392c0-1.153,0.625-1.917,1.283-2.641
		c0.329-0.362,0.766-0.846,1.046-1.353c0.281,0.508,0.717,0.992,1.047,1.353c0.658,0.724,1.284,1.489,1.284,2.641
		C69.285,70.018,67.428,70.516,66.955,68.647z"/>
	<path d="M68.616,13.151H25.375c-1.801,0-3.266,1.465-3.266,3.266v62.82c0,1.801,1.465,3.266,3.266,3.266h43.241
		c1.801,0,3.266-1.465,3.266-3.266v-62.82C71.881,14.616,70.416,13.151,68.616,13.151z M71.451,79.237
		c0,1.564-1.272,2.836-2.836,2.836H25.375c-1.563,0-2.836-1.272-2.836-2.836v-62.82c0-1.564,1.272-2.836,2.836-2.836h43.241
		c1.563,0,2.836,1.272,2.836,2.836V79.237z"/>
	<path class="st1" d="M27.293,20.645v-0.073c1.218-0.154,1.909-0.745,1.909-1.636c0-0.436-0.191-0.854-0.5-1.118
		c-0.382-0.318-0.972-0.5-1.618-0.5c-1.209,0-2.145,0.654-2.145,1.5c0,0.291,0.218,0.445,0.636,0.445
		c0.218,0,0.382-0.045,0.473-0.136c0.082-0.091,0.1-0.155,0.109-0.454c0.009-0.273,0.073-0.536,0.182-0.736
		c0.136-0.255,0.382-0.382,0.718-0.382c0.645,0,0.982,0.473,0.982,1.354c0,1.027-0.536,1.564-1.563,1.573H26.22v0.282h0.273
		c0.491,0,0.946,0.118,1.182,0.291c0.327,0.236,0.5,0.691,0.5,1.318c0,1.054-0.427,1.663-1.181,1.663
		c-0.309,0-0.6-0.118-0.745-0.309c-0.127-0.164-0.236-0.473-0.245-0.727c-0.018-0.418-0.018-0.436-0.073-0.509
		c-0.073-0.109-0.245-0.173-0.463-0.173c-0.427,0-0.682,0.2-0.682,0.546c0,0.818,0.936,1.409,2.227,1.409
		c1.473,0,2.373-0.709,2.373-1.872C29.383,21.354,28.674,20.754,27.293,20.645z"/>
	<path class="st1" d="M66.997,71.619c0.309,0,0.6,0.119,0.745,0.309c0.127,0.164,0.236,0.473,0.245,0.727
		c0.018,0.418,0.018,0.436,0.073,0.509c0.073,0.109,0.245,0.172,0.463,0.172c0.427,0,0.682-0.2,0.682-0.545
		c0-0.818-0.936-1.409-2.227-1.409c-1.473,0-2.373,0.709-2.373,1.872c0,1.045,0.709,1.645,2.091,1.754v0.072
		c-1.218,0.155-1.909,0.745-1.909,1.636c0,0.436,0.191,0.854,0.5,1.118c0.382,0.318,0.972,0.5,1.618,0.5
		c1.209,0,2.145-0.655,2.145-1.5c0-0.291-0.218-0.445-0.636-0.445c-0.218,0-0.382,0.045-0.473,0.136
		c-0.082,0.091-0.1,0.155-0.109,0.455c-0.009,0.273-0.073,0.537-0.182,0.736c-0.136,0.254-0.382,0.382-0.718,0.382
		c-0.645,0-0.982-0.473-0.982-1.355c0-1.027,0.536-1.563,1.563-1.572h0.255v-0.282h-0.273c-0.491,0-0.946-0.119-1.182-0.291
		c-0.327-0.237-0.5-0.691-0.5-1.319C65.816,72.228,66.243,71.619,66.997,71.619z"/>
	<path class="st1" d="M46.996,21.774c-1.174-4.633-5.778-3.399-5.778,0.971c0,2.858,1.552,4.754,3.182,6.548
		c0.817,0.898,1.9,2.099,2.595,3.357c0.694-1.258,1.778-2.458,2.594-3.357c1.631-1.794,3.181-3.69,3.181-6.548
		C52.771,18.375,48.169,17.141,46.996,21.774z"/>
	<path class="st1" d="M46.996,43.854c-1.174-4.633-5.778-3.399-5.778,0.971c0,2.858,1.552,4.754,3.182,6.548
		c0.817,0.898,1.9,2.099,2.595,3.356c0.694-1.258,1.778-2.458,2.594-3.356c1.631-1.794,3.181-3.69,3.181-6.548
		C52.771,40.454,48.169,39.221,46.996,43.854z"/>
	<path class="st1" d="M46.992,63.004c-0.696,1.258-1.779,2.459-2.595,3.357c-1.63,1.794-3.183,3.689-3.183,6.548
		c0,4.37,4.604,5.604,5.778,0.971c1.173,4.633,5.775,3.4,5.775-0.971c0-2.859-1.551-4.754-3.181-6.548
		C48.771,65.463,47.687,64.262,46.992,63.004z"/>
	<path class="st1" d="M27.035,27.007c-0.473-1.869-2.33-1.371-2.33,0.392c0,1.153,0.626,1.917,1.284,2.641
		c0.329,0.362,0.766,0.846,1.047,1.354c0.28-0.507,0.717-0.992,1.046-1.354c0.658-0.724,1.283-1.488,1.283-2.641
		C29.364,25.635,27.508,25.138,27.035,27.007z"/>
	<path class="st1" d="M66.955,64.26c-0.28,0.508-0.717,0.992-1.046,1.353c-0.658,0.724-1.283,1.489-1.283,2.641
		c0,1.763,1.856,2.261,2.33,0.392c0.473,1.869,2.33,1.372,2.33-0.392c0-1.153-0.626-1.917-1.284-2.641
		C67.673,65.252,67.236,64.768,66.955,64.26z"/>
</g>
</svg>
