<?xml version="1.0" encoding="utf-8"?>
<!-- Generator: Adobe Illustrator 23.0.2, SVG Export Plug-In . SVG Version: 6.00 Build 0)  -->
<svg version="1.1" id="Layer_1" xmlns="http://www.w3.org/2000/svg" xmlns:xlink="http://www.w3.org/1999/xlink" x="0px" y="0px"
	 viewBox="0 0 82.452 99.776" style="enable-background:new 0 0 82.452 99.776;" xml:space="preserve">
<style type="text/css">
	.st0{fill:#FFFFFF;}
	.st1{fill:#ED1C24;}
	.st2{fill:#FFCB05;}
	.st3{fill:#21409A;}
	.st4{fill:#D4D5D6;}
	.st5{fill:#000100;}
	.st6{fill:#300505;}
	.st7{fill:#BFD730;}
	.st8{fill:#F15A22;}
</style>
<g>
	<path class="st0" d="M61.657,13.656H18.416c-1.563,0-2.836,1.272-2.836,2.836v62.82c0,1.563,1.272,2.836,2.836,2.836h43.241
		c1.563,0,2.836-1.272,2.836-2.836v-62.82C64.493,14.928,63.22,13.656,61.657,13.656z M20.188,29.851
		c0.055,0.521,0.298,1.316,0.789,1.505h-1.802c0.49-0.189,0.733-0.984,0.788-1.505c-0.6,1.182-2.216,0.742-2.216-0.596
		c0-0.937,0.626-1.559,1.283-2.147c0.329-0.294,0.767-0.688,1.047-1.101c0.281,0.413,0.717,0.807,1.047,1.101
		c0.657,0.589,1.282,1.211,1.282,2.147C22.405,30.592,20.789,31.033,20.188,29.851z M20.052,24.347
		c-1.291,0-2.227-0.591-2.227-1.409c0-0.346,0.254-0.545,0.682-0.545c0.218,0,0.391,0.063,0.463,0.173
		c0.055,0.072,0.055,0.091,0.073,0.509c0.009,0.254,0.118,0.564,0.245,0.727c0.146,0.191,0.436,0.309,0.745,0.309
		c0.754,0,1.181-0.609,1.181-1.664c0-0.627-0.172-1.081-0.5-1.318c-0.236-0.172-0.691-0.291-1.182-0.291h-0.273v-0.282h0.255
		c1.027-0.009,1.563-0.545,1.563-1.572c0-0.882-0.336-1.355-0.982-1.355c-0.337,0-0.582,0.128-0.718,0.382
		c-0.109,0.2-0.173,0.464-0.182,0.736c-0.009,0.3-0.027,0.363-0.109,0.455c-0.091,0.091-0.255,0.136-0.473,0.136
		c-0.418,0-0.636-0.155-0.636-0.445c0-0.845,0.936-1.5,2.145-1.5c0.646,0,1.236,0.182,1.618,0.5c0.309,0.264,0.5,0.682,0.5,1.118
		c0,0.891-0.691,1.482-1.909,1.636v0.072c1.381,0.109,2.091,0.709,2.091,1.754C22.425,23.638,21.525,24.347,20.052,24.347z
		 M42.628,73.891c-0.817,0.731-1.9,1.706-2.596,2.73c-0.695-1.023-1.778-1.998-2.595-2.73c-1.629-1.459-3.182-3.001-3.182-5.326
		c0-3.318,4.008-4.411,5.497-1.479c-0.137-1.293-0.738-3.262-1.954-3.732h4.468c-1.216,0.47-1.817,2.439-1.955,3.732
		c1.489-2.931,5.497-1.839,5.497,1.479C45.809,70.89,44.258,72.432,42.628,73.891z M40.316,50.799
		c0.138,1.292,0.739,3.262,1.955,3.732h-4.468c1.216-0.47,1.817-2.439,1.954-3.732c-1.489,2.932-5.497,1.838-5.497-1.48
		c0-2.325,1.552-3.866,3.182-5.326c0.816-0.73,1.9-1.706,2.594-2.73c0.695,1.023,1.778,2,2.596,2.73
		c1.63,1.46,3.182,3.001,3.182,5.326C45.813,52.637,41.805,53.73,40.316,50.799z M40.316,28.719
		c0.138,1.292,0.739,3.262,1.955,3.731h-4.468c1.216-0.469,1.817-2.439,1.954-3.731c-1.489,2.931-5.497,1.838-5.497-1.48
		c0-2.325,1.552-3.866,3.182-5.326c0.816-0.731,1.9-1.706,2.594-2.729c0.695,1.023,1.778,1.998,2.596,2.729
		c1.63,1.46,3.182,3.002,3.182,5.326C45.813,30.557,41.805,31.65,40.316,28.719z M59.357,74.676
		c0.236,0.172,0.691,0.291,1.182,0.291h0.273v0.282h-0.255c-1.027,0.009-1.563,0.545-1.563,1.572c0,0.882,0.336,1.355,0.982,1.355
		c0.337,0,0.582-0.128,0.718-0.382c0.109-0.2,0.173-0.464,0.182-0.736c0.009-0.3,0.027-0.363,0.109-0.455
		c0.091-0.091,0.255-0.136,0.473-0.136c0.418,0,0.636,0.155,0.636,0.445c0,0.845-0.936,1.5-2.145,1.5
		c-0.646,0-1.236-0.182-1.618-0.5c-0.309-0.263-0.5-0.682-0.5-1.118c0-0.891,0.691-1.482,1.909-1.636v-0.072
		c-1.381-0.109-2.091-0.709-2.091-1.754c0-1.163,0.9-1.872,2.373-1.872c1.291,0,2.227,0.591,2.227,1.409
		c0,0.346-0.254,0.545-0.682,0.545c-0.218,0-0.391-0.063-0.463-0.172c-0.055-0.073-0.055-0.091-0.073-0.509
		c-0.009-0.254-0.118-0.563-0.245-0.727c-0.145-0.191-0.436-0.309-0.745-0.309c-0.754,0-1.181,0.609-1.181,1.664
		C58.858,73.984,59.03,74.439,59.357,74.676z M61.045,68.697c-0.329,0.295-0.766,0.688-1.047,1.101
		c-0.28-0.413-0.717-0.806-1.047-1.101c-0.657-0.588-1.283-1.211-1.283-2.148c0-1.337,1.616-1.778,2.216-0.596
		c-0.055-0.521-0.297-1.315-0.788-1.505h1.802c-0.491,0.19-0.733,0.984-0.789,1.505c0.601-1.182,2.217-0.741,2.217,0.596
		C62.327,67.487,61.702,68.109,61.045,68.697z"/>
	<path d="M61.657,13.226H18.416c-1.801,0-3.266,1.465-3.266,3.266v62.82c0,1.801,1.465,3.266,3.266,3.266h43.241
		c1.801,0,3.266-1.465,3.266-3.266v-62.82C64.923,14.691,63.458,13.226,61.657,13.226z M64.493,79.312
		c0,1.563-1.272,2.836-2.836,2.836H18.416c-1.563,0-2.836-1.272-2.836-2.836v-62.82c0-1.563,1.272-2.836,2.836-2.836h43.241
		c1.563,0,2.836,1.272,2.836,2.836V79.312z"/>
	<path class="st5" d="M20.334,20.72v-0.072c1.218-0.155,1.909-0.745,1.909-1.636c0-0.436-0.191-0.854-0.5-1.118
		c-0.382-0.318-0.972-0.5-1.618-0.5c-1.209,0-2.145,0.655-2.145,1.5c0,0.291,0.218,0.445,0.636,0.445
		c0.218,0,0.382-0.046,0.473-0.136c0.082-0.091,0.1-0.154,0.109-0.455c0.009-0.273,0.073-0.537,0.182-0.736
		c0.136-0.254,0.382-0.382,0.718-0.382c0.645,0,0.982,0.473,0.982,1.355c0,1.027-0.536,1.563-1.563,1.572h-0.255v0.282h0.273
		c0.491,0,0.946,0.119,1.182,0.291c0.327,0.237,0.5,0.691,0.5,1.318c0,1.055-0.427,1.664-1.181,1.664
		c-0.309,0-0.6-0.118-0.745-0.309c-0.127-0.164-0.236-0.473-0.245-0.727c-0.018-0.418-0.018-0.436-0.073-0.509
		c-0.073-0.109-0.245-0.173-0.463-0.173c-0.427,0-0.682,0.2-0.682,0.545c0,0.818,0.936,1.409,2.227,1.409
		c1.473,0,2.373-0.709,2.373-1.872C22.425,21.429,21.715,20.829,20.334,20.72z"/>
	<path class="st5" d="M60.039,71.694c0.309,0,0.6,0.118,0.745,0.309c0.127,0.164,0.236,0.473,0.245,0.727
		c0.018,0.418,0.018,0.436,0.073,0.509c0.073,0.109,0.245,0.172,0.463,0.172c0.427,0,0.682-0.2,0.682-0.545
		c0-0.818-0.936-1.409-2.227-1.409c-1.473,0-2.373,0.709-2.373,1.872c0,1.045,0.709,1.645,2.091,1.754v0.072
		c-1.218,0.155-1.909,0.745-1.909,1.636c0,0.436,0.191,0.854,0.5,1.118c0.382,0.318,0.972,0.5,1.618,0.5
		c1.209,0,2.145-0.655,2.145-1.5c0-0.291-0.218-0.445-0.636-0.445c-0.218,0-0.382,0.046-0.473,0.136
		c-0.082,0.091-0.1,0.155-0.109,0.455c-0.009,0.273-0.073,0.537-0.182,0.736c-0.136,0.254-0.382,0.382-0.718,0.382
		c-0.645,0-0.982-0.473-0.982-1.355c0-1.027,0.536-1.563,1.563-1.572h0.255v-0.282h-0.273c-0.491,0-0.946-0.119-1.182-0.291
		c-0.327-0.237-0.5-0.691-0.5-1.318C58.858,72.303,59.285,71.694,60.039,71.694z"/>
	<path d="M42.632,21.913c-0.817-0.731-1.9-1.706-2.596-2.729c-0.695,1.023-1.778,1.998-2.594,2.729
		c-1.63,1.46-3.182,3.002-3.182,5.326c0,3.318,4.008,4.411,5.497,1.48c-0.137,1.292-0.738,3.262-1.954,3.731h4.468
		c-1.216-0.469-1.817-2.439-1.955-3.731c1.489,2.931,5.497,1.838,5.497-1.48C45.813,24.915,44.262,23.373,42.632,21.913z"/>
	<path d="M42.632,43.993c-0.817-0.73-1.9-1.706-2.596-2.73c-0.695,1.023-1.778,2-2.594,2.73c-1.63,1.46-3.182,3.001-3.182,5.326
		c0,3.318,4.008,4.412,5.497,1.48c-0.137,1.292-0.738,3.262-1.954,3.732h4.468c-1.216-0.47-1.817-2.439-1.955-3.732
		c1.489,2.932,5.497,1.838,5.497-1.48C45.813,46.994,44.262,45.453,42.632,43.993z"/>
	<path d="M40.312,67.086c0.137-1.293,0.739-3.262,1.955-3.732h-4.468c1.216,0.47,1.817,2.439,1.954,3.732
		c-1.489-2.931-5.497-1.839-5.497,1.479c0,2.325,1.552,3.867,3.182,5.326c0.817,0.731,1.9,1.706,2.595,2.73
		c0.695-1.023,1.778-1.998,2.596-2.73c1.63-1.459,3.181-3.001,3.181-5.326C45.809,65.247,41.801,64.154,40.312,67.086z"/>
	<path d="M21.122,27.107c-0.329-0.294-0.766-0.688-1.047-1.101c-0.28,0.413-0.717,0.807-1.047,1.101
		c-0.657,0.589-1.283,1.211-1.283,2.147c0,1.338,1.616,1.779,2.216,0.596c-0.055,0.521-0.297,1.316-0.788,1.505h1.802
		c-0.491-0.189-0.733-0.984-0.789-1.505c0.601,1.182,2.217,0.742,2.217-0.596C22.405,28.318,21.78,27.696,21.122,27.107z"/>
	<path d="M60.111,65.954c0.055-0.521,0.298-1.315,0.789-1.505h-1.802c0.491,0.19,0.733,0.984,0.788,1.505
		c-0.6-1.182-2.216-0.741-2.216,0.596c0,0.937,0.626,1.56,1.283,2.148c0.329,0.295,0.766,0.688,1.047,1.101
		c0.281-0.413,0.717-0.806,1.047-1.101c0.657-0.588,1.282-1.211,1.282-2.148C62.327,65.212,60.711,64.772,60.111,65.954z"/>
</g>
</svg>
