<?xml version="1.0" encoding="utf-8"?>
<!-- Generator: Adobe Illustrator 23.0.2, SVG Export Plug-In . SVG Version: 6.00 Build 0)  -->
<svg version="1.1" id="Layer_1" xmlns="http://www.w3.org/2000/svg" xmlns:xlink="http://www.w3.org/1999/xlink" x="0px" y="0px"
	 viewBox="0 0 82.452 99.776" style="enable-background:new 0 0 82.452 99.776;" xml:space="preserve">
<style type="text/css">
	.st0{fill:#FFFFFF;}
	.st1{fill:#ED1C24;}
	.st2{fill:#FFCB05;}
	.st3{fill:#21409A;}
	.st4{fill:#D4D5D6;}
	.st5{fill:#000100;}
	.st6{fill:#300505;}
	.st7{fill:#BFD730;}
	.st8{fill:#F15A22;}
</style>
<g>
	<polygon class="st0" points="21.595,28.477 21.595,24.877 19.068,28.477 	"/>
	<polygon class="st0" points="60.764,83.877 63.291,80.277 60.764,80.277 	"/>
	<path class="st0" d="M62.8,20.131H19.559c-1.563,0-2.836,1.272-2.836,2.836v62.82c0,1.564,1.272,2.836,2.836,2.836H62.8
		c1.563,0,2.836-1.272,2.836-2.836v-62.82C65.636,21.403,64.363,20.131,62.8,20.131z M61.14,70.904
		c0.249,0.867,1.252,2.228,2.067,2.693c-0.815,0.465-1.818,1.825-2.067,2.693c-0.249-0.868-1.253-2.228-2.068-2.693
		C59.887,73.131,60.892,71.771,61.14,70.904z M21.218,37.85c-0.249-0.868-1.252-2.227-2.067-2.693
		c0.814-0.465,1.818-1.825,2.067-2.693c0.249,0.868,1.253,2.228,2.067,2.693C22.471,35.623,21.467,36.983,21.218,37.85z
		 M23.658,28.886h-0.972v0.645c0,0.755,0.118,0.882,0.818,0.891v0.254h-2.736v-0.245c0.427-0.018,0.527-0.036,0.636-0.127
		c0.136-0.1,0.191-0.337,0.191-0.773v-0.645h-2.936V28.45l3.182-4.518h0.845v4.545h0.972V28.886z M31.132,83.136
		c-0.617-2.151-3.105-5.523-5.124-6.674c2.019-1.152,4.507-4.523,5.124-6.674c0.617,2.15,3.106,5.522,5.124,6.674
		C34.238,77.613,31.749,80.985,31.132,83.136z M31.132,38.966c-0.617-2.151-3.105-5.522-5.124-6.674
		c2.019-1.152,4.507-4.524,5.124-6.675c0.617,2.151,3.106,5.523,5.124,6.675C34.238,33.444,31.749,36.815,31.132,38.966z
		 M51.221,83.136c-0.617-2.151-3.105-5.523-5.124-6.674c2.019-1.152,4.507-4.523,5.124-6.674c0.616,2.15,3.106,5.522,5.124,6.674
		C54.326,77.613,51.837,80.985,51.221,83.136z M51.221,38.966c-0.617-2.151-3.105-5.522-5.124-6.674
		c2.019-1.152,4.507-4.524,5.124-6.675c0.616,2.151,3.106,5.523,5.124,6.675C54.326,33.444,51.837,36.815,51.221,38.966z
		 M63.7,80.305l-3.181,4.518h-0.845v-4.545H58.7v-0.409h0.973v-0.645c0-0.755-0.118-0.882-0.818-0.891v-0.254h2.736v0.245
		c-0.427,0.018-0.527,0.036-0.636,0.127c-0.137,0.1-0.191,0.337-0.191,0.773v0.645H63.7V80.305z"/>
	<path d="M62.8,19.701H19.559c-1.801,0-3.266,1.465-3.266,3.266v62.82c0,1.801,1.465,3.266,3.266,3.266H62.8
		c1.801,0,3.266-1.465,3.266-3.266v-62.82C66.065,21.166,64.6,19.701,62.8,19.701z M65.636,85.787c0,1.564-1.272,2.836-2.836,2.836
		H19.559c-1.563,0-2.836-1.272-2.836-2.836v-62.82c0-1.564,1.272-2.836,2.836-2.836H62.8c1.563,0,2.836,1.272,2.836,2.836V85.787z"
		/>
	<path class="st1" d="M22.685,23.932H21.84l-3.182,4.518v0.436h2.936v0.645c0,0.436-0.055,0.673-0.191,0.773
		c-0.109,0.091-0.209,0.109-0.636,0.127v0.245h2.736v-0.254c-0.7-0.009-0.818-0.136-0.818-0.891v-0.645h0.972v-0.409h-0.972V23.932z
		 M21.595,28.477h-2.527l2.527-3.6V28.477z"/>
	<path class="st1" d="M60.764,79.223c0-0.436,0.055-0.673,0.191-0.773c0.109-0.091,0.209-0.109,0.636-0.127v-0.245h-2.736v0.254
		c0.7,0.009,0.818,0.136,0.818,0.891v0.645H58.7v0.409h0.973v4.545h0.845l3.181-4.518v-0.436h-2.936V79.223z M63.291,80.277
		l-2.527,3.6v-3.6H63.291z"/>
	<path class="st1" d="M31.132,25.618c-0.617,2.151-3.105,5.523-5.124,6.675c2.019,1.152,4.507,4.523,5.124,6.674
		c0.617-2.151,3.106-5.522,5.124-6.674C34.238,31.141,31.749,27.769,31.132,25.618z"/>
	<path class="st1" d="M51.221,25.618c-0.617,2.151-3.105,5.523-5.124,6.675c2.019,1.152,4.507,4.523,5.124,6.674
		c0.616-2.151,3.106-5.522,5.124-6.674C54.326,31.141,51.837,27.769,51.221,25.618z"/>
	<path class="st1" d="M31.132,69.788c-0.617,2.15-3.105,5.522-5.124,6.674c2.019,1.151,4.507,4.524,5.124,6.674
		c0.617-2.151,3.106-5.523,5.124-6.674C34.238,75.31,31.749,71.938,31.132,69.788z"/>
	<path class="st1" d="M51.221,69.788c-0.617,2.15-3.105,5.522-5.124,6.674c2.019,1.151,4.507,4.524,5.124,6.674
		c0.616-2.151,3.106-5.523,5.124-6.674C54.326,75.31,51.837,71.938,51.221,69.788z"/>
	<path class="st1" d="M21.218,32.464c-0.249,0.868-1.252,2.228-2.067,2.693c0.814,0.465,1.818,1.825,2.067,2.693
		c0.249-0.868,1.253-2.227,2.067-2.693C22.471,34.693,21.467,33.333,21.218,32.464z"/>
	<path class="st1" d="M61.14,76.29c0.249-0.868,1.252-2.228,2.067-2.693c-0.815-0.465-1.818-1.825-2.067-2.693
		c-0.249,0.867-1.253,2.228-2.068,2.693C59.887,74.061,60.892,75.421,61.14,76.29z"/>
</g>
</svg>
