<?xml version="1.0" encoding="utf-8"?>
<!-- Generator: Adobe Illustrator 23.0.2, SVG Export Plug-In . SVG Version: 6.00 Build 0)  -->
<svg version="1.1" id="Layer_1" xmlns="http://www.w3.org/2000/svg" xmlns:xlink="http://www.w3.org/1999/xlink" x="0px" y="0px"
	 viewBox="0 0 82.452 99.776" style="enable-background:new 0 0 82.452 99.776;" xml:space="preserve">
<style type="text/css">
	.st0{fill:#FFFFFF;}
	.st1{fill:#ED1C24;}
	.st2{fill:#FFCB05;}
	.st3{fill:#21409A;}
	.st4{fill:#D4D5D6;}
	.st5{fill:#000100;}
	.st6{fill:#300505;}
	.st7{fill:#BFD730;}
	.st8{fill:#F15A22;}
</style>
<g>
	<polygon class="st0" points="25.937,31.455 25.937,27.856 23.41,31.455 	"/>
	<polygon class="st0" points="65.106,86.855 67.633,83.256 65.106,83.256 	"/>
	<path class="st0" d="M67.142,23.109H23.902c-1.563,0-2.836,1.272-2.836,2.836v62.82c0,1.564,1.272,2.836,2.836,2.836h43.241
		c1.563,0,2.836-1.272,2.836-2.836v-62.82C69.978,24.381,68.706,23.109,67.142,23.109z M64.436,75.142
		c0.329-0.362,0.766-0.846,1.046-1.353c0.281,0.508,0.718,0.992,1.047,1.353c0.658,0.724,1.283,1.489,1.283,2.641
		c0,1.763-1.857,2.261-2.33,0.392c-0.473,1.869-2.329,1.372-2.329-0.392C63.153,76.63,63.778,75.866,64.436,75.142z M26.608,39.568
		c-0.329,0.362-0.766,0.846-1.046,1.354c-0.281-0.507-0.717-0.992-1.047-1.354c-0.658-0.724-1.284-1.488-1.284-2.641
		c0-1.763,1.857-2.261,2.33-0.392c0.473-1.869,2.329-1.371,2.329,0.392C27.891,38.08,27.266,38.844,26.608,39.568z M28.001,31.864
		h-0.972v0.645c0,0.755,0.118,0.882,0.818,0.891v0.254H25.11V33.41c0.427-0.018,0.527-0.036,0.636-0.127
		c0.136-0.1,0.191-0.336,0.191-0.773v-0.645h-2.936v-0.436l3.182-4.518h0.845v4.545h0.972V31.864z M35.476,83.408
		c-1.174,4.633-5.777,3.399-5.777-0.971c0-2.858,1.552-4.754,3.182-6.548c0.817-0.898,1.9-2.099,2.595-3.356
		c0.695,1.258,1.779,2.458,2.594,3.356c1.631,1.794,3.181,3.69,3.181,6.548C41.252,86.807,36.649,88.041,35.476,83.408z
		 M38.071,38.822c-0.816,0.898-1.9,2.099-2.594,3.357c-0.695-1.258-1.778-2.458-2.595-3.357c-1.631-1.794-3.182-3.69-3.182-6.548
		c0-4.37,4.603-5.604,5.777-0.971c1.173-4.633,5.775-3.4,5.775,0.971C41.252,35.132,39.701,37.028,38.071,38.822z M55.565,83.408
		c-1.174,4.633-5.777,3.399-5.777-0.971c0-2.858,1.551-4.754,3.182-6.548c0.816-0.898,1.9-2.099,2.595-3.356
		c0.694,1.258,1.778,2.458,2.594,3.356c1.631,1.794,3.182,3.69,3.182,6.548C61.341,86.807,56.738,88.041,55.565,83.408z
		 M58.159,38.822c-0.816,0.898-1.9,2.099-2.594,3.357c-0.695-1.258-1.779-2.458-2.595-3.357c-1.631-1.794-3.182-3.69-3.182-6.548
		c0-4.37,4.603-5.604,5.777-0.971c1.173-4.633,5.776-3.4,5.776,0.971C61.341,35.132,59.79,37.028,58.159,38.822z M68.042,83.283
		L64.861,87.8h-0.845v-4.544h-0.973v-0.409h0.973v-0.645c0-0.755-0.118-0.882-0.818-0.891v-0.254h2.736v0.245
		c-0.427,0.018-0.527,0.036-0.636,0.127c-0.137,0.1-0.191,0.336-0.191,0.773v0.645h2.936V83.283z"/>
	<path d="M67.142,22.679H23.902c-1.801,0-3.266,1.465-3.266,3.266v62.82c0,1.801,1.465,3.266,3.266,3.266h43.241
		c1.801,0,3.266-1.465,3.266-3.266v-62.82C70.408,24.144,68.943,22.679,67.142,22.679z M69.978,88.765
		c0,1.564-1.272,2.836-2.836,2.836H23.902c-1.563,0-2.836-1.272-2.836-2.836v-62.82c0-1.564,1.272-2.836,2.836-2.836h43.241
		c1.563,0,2.836,1.272,2.836,2.836V88.765z"/>
	<path class="st1" d="M27.028,26.91h-0.845l-3.182,4.518v0.436h2.936v0.645c0,0.436-0.055,0.673-0.191,0.773
		c-0.109,0.091-0.209,0.109-0.636,0.127v0.245h2.736V33.4c-0.7-0.009-0.818-0.136-0.818-0.891v-0.645h0.972v-0.409h-0.972V26.91z
		 M25.937,31.455H23.41l2.527-3.6V31.455z"/>
	<path class="st1" d="M65.106,82.202c0-0.436,0.055-0.672,0.191-0.773c0.109-0.091,0.209-0.109,0.636-0.127v-0.245h-2.736v0.254
		c0.7,0.009,0.818,0.136,0.818,0.891v0.645h-0.973v0.409h0.973V87.8h0.845l3.181-4.517v-0.437h-2.936V82.202z M67.633,83.256
		l-2.527,3.599v-3.599H67.633z"/>
	<path class="st1" d="M35.476,31.303c-1.174-4.633-5.777-3.4-5.777,0.971c0,2.858,1.552,4.754,3.182,6.548
		c0.817,0.898,1.9,2.099,2.595,3.357c0.695-1.258,1.779-2.458,2.594-3.357c1.631-1.794,3.181-3.69,3.181-6.548
		C41.252,27.903,36.649,26.67,35.476,31.303z"/>
	<path class="st1" d="M55.565,31.303c-1.174-4.633-5.777-3.4-5.777,0.971c0,2.858,1.551,4.754,3.182,6.548
		c0.816,0.898,1.9,2.099,2.595,3.357c0.694-1.258,1.778-2.458,2.594-3.357c1.631-1.794,3.182-3.69,3.182-6.548
		C61.341,27.903,56.738,26.67,55.565,31.303z"/>
	<path class="st1" d="M35.476,72.533c-0.695,1.258-1.778,2.458-2.595,3.356c-1.631,1.794-3.182,3.69-3.182,6.548
		c0,4.37,4.603,5.604,5.777,0.971c1.173,4.633,5.775,3.399,5.775-0.971c0-2.858-1.551-4.754-3.181-6.548
		C37.255,74.991,36.171,73.79,35.476,72.533z"/>
	<path class="st1" d="M55.565,72.533c-0.695,1.258-1.779,2.458-2.595,3.356c-1.631,1.794-3.182,3.69-3.182,6.548
		c0,4.37,4.603,5.604,5.777,0.971c1.173,4.633,5.776,3.399,5.776-0.971c0-2.858-1.551-4.754-3.182-6.548
		C57.344,74.991,56.26,73.79,55.565,72.533z"/>
	<path class="st1" d="M25.562,36.535c-0.473-1.869-2.33-1.371-2.33,0.392c0,1.153,0.626,1.917,1.284,2.641
		c0.329,0.362,0.766,0.846,1.047,1.354c0.28-0.507,0.717-0.992,1.046-1.354c0.658-0.724,1.283-1.488,1.283-2.641
		C27.891,35.164,26.035,34.666,25.562,36.535z"/>
	<path class="st1" d="M65.482,78.175c0.473,1.869,2.33,1.372,2.33-0.392c0-1.153-0.626-1.917-1.283-2.641
		c-0.329-0.362-0.766-0.846-1.047-1.353c-0.28,0.508-0.717,0.992-1.046,1.353c-0.658,0.724-1.283,1.489-1.283,2.641
		C63.153,79.547,65.009,80.044,65.482,78.175z"/>
</g>
</svg>
