<?xml version="1.0" encoding="utf-8"?>
<!-- Generator: Adobe Illustrator 23.0.2, SVG Export Plug-In . SVG Version: 6.00 Build 0)  -->
<svg version="1.1" id="Layer_1" xmlns="http://www.w3.org/2000/svg" xmlns:xlink="http://www.w3.org/1999/xlink" x="0px" y="0px"
	 viewBox="0 0 82.452 99.776" style="enable-background:new 0 0 82.452 99.776;" xml:space="preserve">
<style type="text/css">
	.st0{fill:#FFFFFF;}
	.st1{fill:#ED1C24;}
	.st2{fill:#FFCB05;}
	.st3{fill:#21409A;}
	.st4{fill:#D4D5D6;}
	.st5{fill:#000100;}
	.st6{fill:#300505;}
	.st7{fill:#BFD730;}
	.st8{fill:#F15A22;}
</style>
<g>
	<polygon class="st0" points="56.07,87.175 58.597,83.576 56.07,83.576 	"/>
	<path class="st0" d="M58.106,23.429H14.865c-1.563,0-2.836,1.272-2.836,2.836v62.82c0,1.563,1.272,2.836,2.836,2.836h43.241
		c1.563,0,2.836-1.272,2.836-2.836v-62.82C60.941,24.701,59.669,23.429,58.106,23.429z M56.333,75.726
		c-0.054-0.521-0.297-1.315-0.788-1.505h1.802c-0.491,0.19-0.733,0.984-0.788,1.505c0.601-1.182,2.216-0.741,2.216,0.596
		c0,0.937-0.625,1.56-1.282,2.148c-0.329,0.295-0.766,0.688-1.047,1.101c-0.28-0.413-0.717-0.806-1.047-1.101
		c-0.657-0.588-1.283-1.211-1.283-2.148C54.117,74.985,55.734,74.545,56.333,75.726z M16.637,39.624
		c0.055,0.521,0.298,1.316,0.789,1.505h-1.802c0.49-0.189,0.733-0.984,0.787-1.505c-0.6,1.182-2.216,0.742-2.216-0.596
		c0-0.937,0.626-1.559,1.283-2.147c0.329-0.294,0.767-0.688,1.047-1.101c0.281,0.413,0.717,0.807,1.047,1.101
		c0.658,0.589,1.283,1.211,1.283,2.147C18.853,40.365,17.237,40.806,16.637,39.624z M18.964,32.184h-0.972v0.645
		c0,0.755,0.118,0.882,0.818,0.891v0.254h-2.736v-0.245c0.427-0.018,0.527-0.036,0.636-0.127c0.136-0.1,0.191-0.337,0.191-0.773
		v-0.645h-2.936v-0.436l3.182-4.518h0.845v4.544h0.972V32.184z M29.034,83.664c-0.817,0.731-1.9,1.706-2.596,2.73
		c-0.695-1.023-1.778-1.998-2.594-2.73c-1.63-1.459-3.182-3.001-3.182-5.326c0-3.318,4.008-4.411,5.497-1.479
		c-0.137-1.293-0.738-3.262-1.954-3.732h4.468c-1.216,0.47-1.817,2.439-1.955,3.732c1.489-2.931,5.497-1.839,5.497,1.479
		C32.215,80.663,30.664,82.205,29.034,83.664z M26.718,38.492c0.137,1.292,0.739,3.262,1.955,3.731h-4.468
		c1.216-0.469,1.816-2.439,1.954-3.731c-1.489,2.931-5.497,1.838-5.497-1.48c0-2.325,1.552-3.866,3.182-5.326
		c0.816-0.731,1.9-1.706,2.594-2.729c0.695,1.023,1.779,1.998,2.596,2.729c1.63,1.46,3.181,3.002,3.181,5.326
		C32.215,40.33,28.207,41.423,26.718,38.492z M49.123,83.664c-0.817,0.731-1.9,1.706-2.596,2.73
		c-0.695-1.023-1.778-1.998-2.594-2.73c-1.63-1.459-3.182-3.001-3.182-5.326c0-3.318,4.007-4.411,5.497-1.479
		c-0.137-1.293-0.739-3.262-1.954-3.732h4.468c-1.216,0.47-1.817,2.439-1.955,3.732c1.489-2.931,5.497-1.839,5.497,1.479
		C52.304,80.663,50.753,82.205,49.123,83.664z M46.807,38.492c0.138,1.292,0.739,3.262,1.955,3.731h-4.468
		c1.216-0.469,1.817-2.439,1.954-3.731c-1.49,2.931-5.497,1.838-5.497-1.48c0-2.325,1.552-3.866,3.182-5.326
		c0.816-0.731,1.899-1.706,2.594-2.729c0.695,1.023,1.778,1.998,2.596,2.729c1.63,1.46,3.182,3.002,3.182,5.326
		C52.304,40.33,48.296,41.423,46.807,38.492z M59.006,83.603l-3.181,4.518h-0.845v-4.544h-0.973v-0.409h0.973v-0.645
		c0-0.755-0.118-0.882-0.818-0.891v-0.254h2.736v0.245c-0.427,0.018-0.527,0.036-0.636,0.127c-0.137,0.1-0.191,0.337-0.191,0.773
		v0.645h2.936V83.603z"/>
	<polygon class="st0" points="16.901,31.774 16.901,28.175 14.374,31.774 	"/>
	<path d="M58.106,22.999H14.865c-1.801,0-3.266,1.465-3.266,3.266v62.82c0,1.801,1.465,3.266,3.266,3.266h43.241
		c1.801,0,3.266-1.465,3.266-3.266v-62.82C61.371,24.464,59.906,22.999,58.106,22.999z M60.941,89.085
		c0,1.563-1.272,2.836-2.836,2.836H14.865c-1.563,0-2.836-1.272-2.836-2.836v-62.82c0-1.563,1.272-2.836,2.836-2.836h43.241
		c1.563,0,2.836,1.272,2.836,2.836V89.085z"/>
	<path class="st5" d="M17.991,27.23h-0.845l-3.182,4.518v0.436h2.936v0.645c0,0.436-0.055,0.673-0.191,0.773
		c-0.109,0.091-0.209,0.109-0.636,0.127v0.245h2.736V33.72c-0.7-0.009-0.818-0.136-0.818-0.891v-0.645h0.972v-0.409h-0.972V27.23z
		 M16.901,31.774h-2.527l2.527-3.599V31.774z"/>
	<path class="st5" d="M56.07,82.521c0-0.436,0.055-0.672,0.191-0.773c0.109-0.091,0.209-0.109,0.636-0.127v-0.245h-2.736v0.254
		c0.7,0.009,0.818,0.136,0.818,0.891v0.645h-0.973v0.409h0.973v4.544h0.845l3.181-4.518v-0.436H56.07V82.521z M58.597,83.576
		l-2.527,3.599v-3.599H58.597z"/>
	<path d="M29.034,31.686c-0.817-0.731-1.9-1.706-2.596-2.729c-0.695,1.023-1.778,1.998-2.594,2.729
		c-1.63,1.46-3.182,3.002-3.182,5.326c0,3.318,4.008,4.411,5.497,1.48c-0.137,1.292-0.738,3.262-1.954,3.731h4.468
		c-1.216-0.469-1.817-2.439-1.955-3.731c1.489,2.931,5.497,1.838,5.497-1.48C32.215,34.688,30.664,33.146,29.034,31.686z"/>
	<path d="M49.123,31.686c-0.817-0.731-1.9-1.706-2.596-2.729c-0.695,1.023-1.778,1.998-2.594,2.729
		c-1.63,1.46-3.182,3.002-3.182,5.326c0,3.318,4.007,4.411,5.497,1.48c-0.137,1.292-0.739,3.262-1.954,3.731h4.468
		c-1.216-0.469-1.817-2.439-1.955-3.731c1.489,2.931,5.497,1.838,5.497-1.48C52.304,34.688,50.753,33.146,49.123,31.686z"/>
	<path d="M26.718,76.858c0.137-1.293,0.739-3.262,1.955-3.732h-4.468c1.216,0.47,1.816,2.439,1.954,3.732
		c-1.489-2.931-5.497-1.839-5.497,1.479c0,2.325,1.552,3.867,3.182,5.326c0.816,0.731,1.9,1.706,2.594,2.73
		c0.695-1.023,1.779-1.998,2.596-2.73c1.63-1.459,3.181-3.001,3.181-5.326C32.215,75.02,28.207,73.927,26.718,76.858z"/>
	<path d="M46.807,76.858c0.138-1.293,0.739-3.262,1.955-3.732h-4.468c1.216,0.47,1.817,2.439,1.954,3.732
		c-1.49-2.931-5.497-1.839-5.497,1.479c0,2.325,1.552,3.867,3.182,5.326c0.816,0.731,1.899,1.706,2.594,2.73
		c0.695-1.023,1.778-1.998,2.596-2.73c1.63-1.459,3.182-3.001,3.182-5.326C52.304,75.02,48.296,73.927,46.807,76.858z"/>
	<path d="M17.571,36.88c-0.329-0.294-0.766-0.688-1.047-1.101c-0.28,0.413-0.717,0.807-1.047,1.101
		c-0.657,0.589-1.283,1.211-1.283,2.147c0,1.338,1.616,1.779,2.216,0.596c-0.055,0.521-0.297,1.316-0.787,1.505h1.802
		c-0.491-0.189-0.733-0.984-0.789-1.505c0.601,1.182,2.217,0.742,2.217-0.596C18.853,38.091,18.228,37.468,17.571,36.88z"/>
	<path d="M55.4,78.47c0.329,0.295,0.767,0.688,1.047,1.101c0.281-0.413,0.717-0.806,1.047-1.101
		c0.658-0.588,1.282-1.211,1.282-2.148c0-1.337-1.616-1.778-2.216-0.596c0.055-0.521,0.298-1.315,0.788-1.505h-1.802
		c0.49,0.19,0.733,0.984,0.788,1.505c-0.6-1.182-2.216-0.741-2.216,0.596C54.117,77.259,54.743,77.882,55.4,78.47z"/>
</g>
</svg>
