<?xml version="1.0" encoding="utf-8"?>
<!-- Generator: Adobe Illustrator 23.0.2, SVG Export Plug-In . SVG Version: 6.00 Build 0)  -->
<svg version="1.1" id="Layer_1" xmlns="http://www.w3.org/2000/svg" xmlns:xlink="http://www.w3.org/1999/xlink" x="0px" y="0px"
	 viewBox="0 0 82.452 99.776" style="enable-background:new 0 0 82.452 99.776;" xml:space="preserve">
<style type="text/css">
	.st0{fill:#FFFFFF;}
	.st1{fill:#ED1C24;}
	.st2{fill:#FFCB05;}
	.st3{fill:#21409A;}
	.st4{fill:#D4D5D6;}
	.st5{fill:#000100;}
	.st6{fill:#300505;}
	.st7{fill:#BFD730;}
	.st8{fill:#F15A22;}
</style>
<g>
	<path class="st0" d="M62.846,17.227h-43.24c-1.564,0-2.836,1.272-2.836,2.836v62.82c0,1.564,1.272,2.836,2.836,2.836h43.24
		c1.564,0,2.836-1.272,2.836-2.836v-62.82C65.682,18.499,64.41,17.227,62.846,17.227z M26.834,28.092
		c0.576-0.272,1.201-0.32,1.773-0.179h0.003c0.005,0.003,0.013,0.003,0.02,0.004l1.399,0.327l-0.894-1.124
		c-0.005-0.006-0.01-0.011-0.013-0.016l-0.002-0.001c-0.374-0.459-0.596-1.043-0.596-1.679c0-1.469,1.189-2.66,2.658-2.66
		c1.469,0,2.659,1.191,2.659,2.66c0,0.636-0.225,1.22-0.597,1.679l-0.002,0.001c-0.004,0.005-0.008,0.01-0.012,0.016l-0.895,1.124
		l1.398-0.327c0.006-0.001,0.014-0.001,0.02-0.004h0.002c0.572-0.141,1.197-0.093,1.773,0.179c1.327,0.629,1.892,2.214,1.263,3.542
		c-0.629,1.327-2.215,1.893-3.544,1.263c-0.575-0.272-1.007-0.726-1.259-1.26h-0.001c-0.002-0.007-0.006-0.014-0.009-0.019
		l-0.549-1.12v1.263c0,1.194,0.588,3.719,1.985,4.26H28.95c1.397-0.542,1.983-3.066,1.983-4.26v-1.263l-0.549,1.12
		c-0.004,0.005-0.008,0.012-0.009,0.019c-0.253,0.533-0.686,0.988-1.262,1.26c-1.328,0.63-2.914,0.064-3.542-1.263
		C24.941,30.306,25.506,28.721,26.834,28.092z M23.529,33.155c-0.253,0.536-0.894,0.764-1.431,0.51
		c-0.232-0.11-0.406-0.293-0.508-0.509H21.59c-0.001-0.003-0.002-0.005-0.004-0.008l-0.222-0.452v0.51
		c0,0.482,0.238,1.502,0.802,1.72h-1.802c0.564-0.218,0.801-1.238,0.801-1.72v-0.51l-0.222,0.452
		c-0.001,0.002-0.003,0.005-0.003,0.008c-0.102,0.216-0.277,0.399-0.509,0.509c-0.536,0.254-1.177,0.025-1.43-0.51
		c-0.254-0.536-0.026-1.177,0.51-1.43c0.233-0.11,0.485-0.129,0.716-0.072h0.001c0.002,0.001,0.005,0.001,0.008,0.001l0.565,0.132
		l-0.361-0.454c-0.002-0.002-0.004-0.004-0.005-0.006l-0.001,0c-0.151-0.186-0.241-0.421-0.241-0.678
		c0-0.593,0.48-1.074,1.074-1.074c0.593,0,1.074,0.481,1.074,1.074c0,0.257-0.091,0.492-0.241,0.678l-0.001,0
		c-0.002,0.002-0.003,0.004-0.005,0.006l-0.362,0.454l0.565-0.132c0.002-0.001,0.005-0.001,0.008-0.001h0.001
		c0.231-0.057,0.483-0.038,0.715,0.072C23.555,31.978,23.783,32.619,23.529,33.155z M21.186,27.918
		c-1.191,0-2.118-0.573-2.118-1.318c0-0.346,0.227-0.527,0.645-0.527c0.209,0,0.373,0.055,0.455,0.155
		c0.064,0.073,0.082,0.145,0.091,0.409c0.009,0.336,0.091,0.573,0.254,0.745c0.173,0.191,0.436,0.3,0.709,0.3
		c0.373,0,0.682-0.164,0.891-0.464c0.218-0.336,0.346-0.836,0.346-1.4c0-1.145-0.473-1.809-1.291-1.809
		c-0.6,0-1.164,0.373-1.527,0.991l-0.3-0.073l0.3-3.818h3.718l-0.163,1.018h-3.273l-0.182,2.263
		c0.564-0.527,1.063-0.736,1.754-0.736c1.327,0,2.154,0.782,2.154,2.045C23.649,27.054,22.695,27.918,21.186,27.918z M35.527,74.853
		c-0.576,0.272-1.201,0.32-1.773,0.179h-0.002c-0.007-0.002-0.015-0.002-0.02-0.004l-1.398-0.327l0.895,1.124
		c0.004,0.005,0.008,0.01,0.012,0.016l0.002,0.001c0.372,0.459,0.597,1.043,0.597,1.679c0,1.469-1.191,2.66-2.659,2.66
		c-1.469,0-2.658-1.191-2.658-2.66c0-0.636,0.223-1.22,0.596-1.679l0.002-0.001c0.002-0.006,0.008-0.011,0.013-0.016l0.894-1.124
		l-1.399,0.327c-0.007,0.001-0.015,0.001-0.02,0.004h-0.003c-0.572,0.141-1.197,0.093-1.773-0.179
		c-1.328-0.629-1.893-2.215-1.263-3.542c0.628-1.327,2.214-1.893,3.542-1.264c0.576,0.272,1.008,0.726,1.262,1.26
		c0.001,0.007,0.005,0.014,0.009,0.019l0.549,1.121v-1.263c0-1.194-0.586-3.719-1.983-4.26h4.464
		c-1.397,0.542-1.985,3.067-1.985,4.26v1.263l0.549-1.121c0.003-0.005,0.006-0.012,0.009-0.019h0.001
		c0.252-0.533,0.684-0.988,1.259-1.26c1.329-0.63,2.916-0.064,3.544,1.264C37.419,72.639,36.854,74.225,35.527,74.853z
		 M43.46,58.101h-4.464c1.396-0.542,1.983-3.066,1.983-4.26v-1.263l-0.549,1.12c-0.004,0.005-0.008,0.012-0.009,0.019
		c-0.254,0.533-0.686,0.988-1.262,1.26c-1.327,0.63-2.914,0.064-3.542-1.263c-0.63-1.327-0.064-2.913,1.264-3.542
		c0.576-0.272,1.201-0.32,1.772-0.179h0.003c0.005,0.003,0.013,0.003,0.019,0.004l1.399,0.327L39.179,49.2
		c-0.005-0.006-0.011-0.011-0.013-0.016l-0.002-0.001c-0.374-0.459-0.596-1.043-0.596-1.679c0-1.469,1.189-2.66,2.658-2.66
		s2.659,1.191,2.659,2.66c0,0.636-0.225,1.22-0.597,1.679l-0.002,0.001c-0.004,0.005-0.008,0.01-0.012,0.016l-0.895,1.124
		l1.398-0.327c0.006-0.001,0.014-0.001,0.021-0.004H43.8c0.573-0.141,1.198-0.093,1.773,0.179c1.327,0.628,1.892,2.214,1.263,3.542
		c-0.628,1.327-2.215,1.893-3.544,1.263c-0.575-0.272-1.006-0.726-1.259-1.26h-0.001c-0.002-0.007-0.005-0.014-0.009-0.019
		l-0.549-1.12v1.263C41.474,55.034,42.062,57.559,43.46,58.101z M55.618,74.853c-0.576,0.272-1.201,0.32-1.773,0.179h-0.003
		c-0.005-0.002-0.012-0.002-0.019-0.004l-1.399-0.327l0.894,1.124c0.005,0.005,0.01,0.01,0.013,0.016l0.002,0.001
		c0.374,0.459,0.596,1.043,0.596,1.679c0,1.469-1.189,2.66-2.658,2.66c-1.469,0-2.659-1.191-2.659-2.66
		c0-0.636,0.225-1.22,0.597-1.679l0.002-0.001c0.005-0.006,0.008-0.011,0.012-0.016l0.895-1.124l-1.398,0.327
		c-0.006,0.001-0.014,0.001-0.021,0.004h-0.002c-0.573,0.141-1.198,0.093-1.773-0.179c-1.327-0.629-1.892-2.215-1.264-3.542
		c0.629-1.327,2.215-1.893,3.545-1.264c0.575,0.272,1.006,0.726,1.258,1.26h0.001c0.002,0.007,0.006,0.014,0.008,0.019l0.55,1.121
		v-1.263c0-1.194-0.588-3.719-1.985-4.26h4.464c-1.396,0.542-1.983,3.067-1.983,4.26v1.263l0.55-1.121
		c0.004-0.005,0.008-0.012,0.009-0.019c0.253-0.533,0.686-0.988,1.262-1.26c1.327-0.63,2.914-0.064,3.542,1.264
		C57.511,72.639,56.945,74.225,55.618,74.853z M56.881,31.634c-0.628,1.327-2.214,1.893-3.542,1.263
		c-0.576-0.272-1.008-0.726-1.262-1.26c-0.001-0.007-0.005-0.014-0.009-0.019l-0.55-1.12v1.263c0,1.194,0.587,3.719,1.983,4.26
		h-4.464c1.397-0.542,1.985-3.066,1.985-4.26v-1.263l-0.55,1.12c-0.003,0.005-0.007,0.012-0.008,0.019h-0.001
		c-0.252,0.533-0.684,0.988-1.258,1.26c-1.329,0.63-2.916,0.064-3.545-1.263c-0.628-1.328-0.064-2.913,1.264-3.542
		c0.575-0.272,1.2-0.32,1.773-0.179H48.7c0.006,0.003,0.015,0.003,0.021,0.004l1.398,0.327l-0.895-1.124
		c-0.004-0.006-0.008-0.011-0.012-0.016l-0.002-0.001c-0.372-0.459-0.597-1.043-0.597-1.679c0-1.469,1.19-2.66,2.659-2.66
		c1.469,0,2.658,1.191,2.658,2.66c0,0.636-0.223,1.22-0.596,1.679l-0.002,0.001c-0.002,0.005-0.008,0.01-0.013,0.016l-0.894,1.124
		l1.399-0.327c0.007-0.001,0.015-0.001,0.019-0.004h0.003c0.572-0.141,1.196-0.093,1.773,0.179
		C56.945,28.721,57.511,30.306,56.881,31.634z M62.737,76.873c-0.209,0-0.373-0.055-0.455-0.155
		c-0.064-0.073-0.082-0.145-0.091-0.409c-0.009-0.336-0.091-0.573-0.254-0.745c-0.173-0.191-0.436-0.3-0.709-0.3
		c-0.373,0-0.681,0.164-0.891,0.464c-0.218,0.336-0.346,0.836-0.346,1.4c0,1.145,0.473,1.809,1.291,1.809
		c0.6,0,1.163-0.373,1.527-0.991l0.3,0.073l-0.3,3.818h-3.718l0.163-1.018h3.273l0.182-2.263c-0.564,0.527-1.063,0.736-1.754,0.736
		c-1.327,0-2.154-0.782-2.154-2.045c0-1.354,0.954-2.218,2.463-2.218c1.191,0,2.118,0.573,2.118,1.318
		C63.382,76.692,63.155,76.873,62.737,76.873z M62.943,71.221c-0.233,0.11-0.484,0.129-0.715,0.072h-0.001
		c-0.003-0.001-0.006-0.001-0.008-0.001l-0.565-0.132l0.361,0.454c0.002,0.002,0.004,0.004,0.006,0.006l0.001,0
		c0.151,0.186,0.241,0.421,0.241,0.678c0,0.593-0.481,1.074-1.074,1.074c-0.593,0-1.074-0.481-1.074-1.074
		c0-0.257,0.091-0.493,0.242-0.678l0.001,0c0.001-0.002,0.003-0.004,0.004-0.006l0.362-0.454l-0.564,0.132
		c-0.003,0-0.006,0-0.008,0.001h0c-0.231,0.057-0.484,0.038-0.716-0.072c-0.536-0.254-0.764-0.894-0.51-1.43
		c0.254-0.536,0.895-0.764,1.431-0.51c0.232,0.11,0.407,0.293,0.509,0.509h0.001c0.001,0.003,0.002,0.006,0.003,0.008l0.222,0.453
		v-0.51c0-0.482-0.237-1.501-0.802-1.72h1.802c-0.564,0.219-0.801,1.239-0.801,1.72v0.51l0.222-0.453
		c0.001-0.002,0.003-0.005,0.003-0.008c0.102-0.215,0.277-0.399,0.51-0.509c0.536-0.254,1.177-0.026,1.43,0.51
		C63.707,70.326,63.479,70.967,62.943,71.221z"/>
	<path d="M62.846,16.797h-43.24c-1.801,0-3.266,1.465-3.266,3.266v62.82c0,1.801,1.465,3.266,3.266,3.266h43.24
		c1.801,0,3.266-1.465,3.266-3.266v-62.82C66.112,18.262,64.647,16.797,62.846,16.797z M65.682,82.883
		c0,1.564-1.272,2.836-2.836,2.836h-43.24c-1.564,0-2.836-1.272-2.836-2.836v-62.82c0-1.563,1.272-2.836,2.836-2.836h43.24
		c1.564,0,2.836,1.272,2.836,2.836V82.883z"/>
	<path d="M23.019,31.725c-0.232-0.11-0.484-0.129-0.715-0.072h-0.001c-0.003,0.001-0.006,0.001-0.008,0.001l-0.565,0.132
		l0.362-0.454c0.001-0.002,0.003-0.004,0.005-0.006l0.001,0c0.15-0.186,0.241-0.421,0.241-0.678c0-0.593-0.481-1.074-1.074-1.074
		c-0.593,0-1.074,0.481-1.074,1.074c0,0.257,0.09,0.492,0.241,0.678l0.001,0c0.001,0.002,0.003,0.004,0.005,0.006l0.361,0.454
		l-0.565-0.132c-0.003-0.001-0.006-0.001-0.008-0.001h-0.001c-0.231-0.057-0.484-0.038-0.716,0.072
		c-0.536,0.253-0.764,0.894-0.51,1.43c0.254,0.536,0.894,0.764,1.43,0.51c0.232-0.11,0.407-0.293,0.509-0.509
		c0.001-0.003,0.002-0.005,0.003-0.008l0.222-0.452v0.51c0,0.482-0.237,1.502-0.801,1.72h1.802c-0.564-0.218-0.802-1.238-0.802-1.72
		v-0.51l0.222,0.452c0.001,0.002,0.003,0.005,0.004,0.008h0.001c0.102,0.216,0.276,0.399,0.508,0.509
		c0.537,0.254,1.177,0.025,1.431-0.51C23.783,32.619,23.555,31.978,23.019,31.725z"/>
	<path d="M42.024,53.698c0.003,0.005,0.007,0.012,0.009,0.019h0.001c0.252,0.533,0.684,0.988,1.259,1.26
		c1.329,0.63,2.916,0.064,3.544-1.263c0.629-1.327,0.064-2.913-1.263-3.542c-0.575-0.272-1.2-0.32-1.773-0.179h-0.002
		c-0.006,0.003-0.015,0.003-0.021,0.004l-1.398,0.327l0.895-1.124c0.004-0.006,0.008-0.011,0.012-0.016l0.002-0.001
		c0.372-0.459,0.597-1.043,0.597-1.679c0-1.469-1.191-2.66-2.659-2.66s-2.658,1.191-2.658,2.66c0,0.636,0.223,1.22,0.596,1.679
		l0.002,0.001c0.002,0.005,0.007,0.01,0.013,0.016l0.894,1.124l-1.399-0.327c-0.007-0.001-0.015-0.001-0.019-0.004h-0.003
		c-0.572-0.141-1.196-0.093-1.772,0.179c-1.328,0.628-1.893,2.214-1.264,3.542c0.628,1.327,2.215,1.893,3.542,1.263
		c0.576-0.272,1.008-0.726,1.262-1.26c0.001-0.007,0.005-0.014,0.009-0.019l0.549-1.12v1.263c0,1.194-0.587,3.719-1.983,4.26h4.464
		c-1.398-0.542-1.985-3.066-1.985-4.26v-1.263L42.024,53.698z"/>
	<path d="M29.112,32.897c0.576-0.272,1.008-0.726,1.262-1.26c0.001-0.007,0.005-0.014,0.009-0.019l0.549-1.12v1.263
		c0,1.194-0.586,3.719-1.983,4.26h4.464c-1.397-0.542-1.985-3.066-1.985-4.26v-1.263l0.549,1.12
		c0.003,0.005,0.006,0.012,0.009,0.019h0.001c0.252,0.533,0.684,0.988,1.259,1.26c1.329,0.63,2.916,0.064,3.544-1.263
		c0.629-1.328,0.064-2.913-1.263-3.542c-0.576-0.272-1.201-0.32-1.773-0.179h-0.002c-0.007,0.003-0.015,0.003-0.02,0.004
		l-1.398,0.327l0.895-1.124c0.004-0.006,0.008-0.011,0.012-0.016l0.002-0.001c0.372-0.459,0.597-1.043,0.597-1.679
		c0-1.469-1.191-2.66-2.659-2.66c-1.469,0-2.658,1.191-2.658,2.66c0,0.636,0.223,1.22,0.596,1.679l0.002,0.001
		c0.002,0.005,0.008,0.01,0.013,0.016l0.894,1.124l-1.399-0.327c-0.007-0.001-0.015-0.001-0.02-0.004h-0.003
		c-0.572-0.141-1.197-0.093-1.773,0.179c-1.328,0.629-1.893,2.214-1.263,3.542C26.198,32.961,27.785,33.527,29.112,32.897z"/>
	<path d="M55.618,28.092c-0.576-0.272-1.201-0.32-1.773-0.179h-0.003c-0.005,0.003-0.012,0.003-0.019,0.004l-1.399,0.327
		l0.894-1.124c0.005-0.006,0.01-0.011,0.013-0.016l0.002-0.001c0.374-0.459,0.596-1.043,0.596-1.679c0-1.469-1.189-2.66-2.658-2.66
		c-1.469,0-2.659,1.191-2.659,2.66c0,0.636,0.225,1.22,0.597,1.679l0.002,0.001c0.005,0.005,0.008,0.01,0.012,0.016l0.895,1.124
		l-1.398-0.327c-0.006-0.001-0.014-0.001-0.021-0.004h-0.002c-0.573-0.141-1.198-0.093-1.773,0.179
		c-1.327,0.629-1.892,2.214-1.264,3.542c0.629,1.327,2.215,1.893,3.545,1.263c0.575-0.272,1.006-0.726,1.258-1.26h0.001
		c0.002-0.007,0.006-0.014,0.008-0.019l0.55-1.12v1.263c0,1.194-0.588,3.719-1.985,4.26h4.464c-1.396-0.542-1.983-3.066-1.983-4.26
		v-1.263l0.55,1.12c0.004,0.005,0.008,0.012,0.009,0.019c0.253,0.533,0.686,0.988,1.262,1.26c1.327,0.63,2.914,0.064,3.542-1.263
		C57.511,30.306,56.945,28.721,55.618,28.092z"/>
	<path d="M33.246,70.048c-0.575,0.272-1.007,0.726-1.259,1.26h-0.001c-0.002,0.007-0.006,0.014-0.009,0.019l-0.549,1.121v-1.263
		c0-1.194,0.588-3.719,1.985-4.26H28.95c1.397,0.542,1.983,3.067,1.983,4.26v1.263l-0.549-1.121
		c-0.004-0.005-0.008-0.012-0.009-0.019c-0.253-0.533-0.686-0.988-1.262-1.26c-1.328-0.63-2.914-0.064-3.542,1.264
		c-0.63,1.327-0.065,2.913,1.263,3.542c0.576,0.272,1.201,0.32,1.773,0.179h0.003c0.005-0.002,0.013-0.002,0.02-0.004l1.399-0.327
		l-0.894,1.124c-0.005,0.005-0.01,0.01-0.013,0.016l-0.002,0.001c-0.374,0.459-0.596,1.043-0.596,1.679
		c0,1.469,1.189,2.66,2.658,2.66c1.469,0,2.659-1.191,2.659-2.66c0-0.636-0.225-1.22-0.597-1.679l-0.002-0.001
		c-0.004-0.006-0.008-0.011-0.012-0.016l-0.895-1.124l1.398,0.327c0.006,0.001,0.014,0.001,0.02,0.004h0.002
		c0.572,0.141,1.197,0.093,1.773-0.179c1.327-0.629,1.892-2.215,1.263-3.542C36.162,69.984,34.575,69.418,33.246,70.048z"/>
	<path d="M53.34,70.048c-0.576,0.272-1.008,0.726-1.262,1.26c-0.001,0.007-0.005,0.014-0.009,0.019l-0.55,1.121v-1.263
		c0-1.194,0.587-3.719,1.983-4.26h-4.464c1.397,0.542,1.985,3.067,1.985,4.26v1.263l-0.55-1.121
		c-0.003-0.005-0.007-0.012-0.008-0.019h-0.001c-0.252-0.533-0.684-0.988-1.258-1.26c-1.329-0.63-2.916-0.064-3.545,1.264
		c-0.628,1.327-0.064,2.913,1.264,3.542c0.575,0.272,1.2,0.32,1.773,0.179H48.7c0.006-0.002,0.015-0.002,0.021-0.004l1.398-0.327
		l-0.895,1.124c-0.004,0.005-0.008,0.01-0.012,0.016l-0.002,0.001c-0.372,0.459-0.597,1.043-0.597,1.679
		c0,1.469,1.19,2.66,2.659,2.66c1.469,0,2.658-1.191,2.658-2.66c0-0.636-0.223-1.22-0.596-1.679l-0.002-0.001
		c-0.002-0.006-0.008-0.011-0.013-0.016l-0.894-1.124l1.399,0.327c0.007,0.001,0.015,0.001,0.019,0.004h0.003
		c0.572,0.141,1.196,0.093,1.773-0.179c1.327-0.629,1.893-2.215,1.263-3.542C56.253,69.984,54.667,69.418,53.34,70.048z"/>
	<path class="st5" d="M21.495,23.654c-0.691,0-1.191,0.209-1.754,0.736l0.182-2.263h3.273l0.163-1.018h-3.718l-0.3,3.818l0.3,0.073
		c0.364-0.618,0.927-0.991,1.527-0.991c0.818,0,1.291,0.664,1.291,1.809c0,0.564-0.127,1.064-0.346,1.4
		c-0.209,0.3-0.518,0.464-0.891,0.464c-0.273,0-0.536-0.109-0.709-0.3c-0.163-0.173-0.245-0.409-0.254-0.745
		c-0.009-0.264-0.027-0.336-0.091-0.409c-0.082-0.1-0.246-0.155-0.455-0.155c-0.418,0-0.645,0.182-0.645,0.527
		c0,0.745,0.927,1.318,2.118,1.318c1.509,0,2.463-0.864,2.463-2.218C23.649,24.436,22.822,23.654,21.495,23.654z"/>
	<path d="M62.023,69.28c-0.233,0.11-0.407,0.293-0.51,0.509c-0.001,0.003-0.002,0.006-0.003,0.008l-0.222,0.453v-0.51
		c0-0.482,0.237-1.501,0.801-1.72h-1.802c0.564,0.219,0.802,1.239,0.802,1.72v0.51l-0.222-0.453
		c-0.001-0.002-0.002-0.005-0.003-0.008h-0.001c-0.102-0.215-0.277-0.399-0.509-0.509c-0.536-0.254-1.177-0.026-1.431,0.51
		c-0.254,0.536-0.026,1.177,0.51,1.43c0.233,0.11,0.485,0.129,0.716,0.072h0c0.002-0.001,0.006-0.001,0.008-0.001l0.564-0.132
		l-0.362,0.454c-0.001,0.002-0.003,0.004-0.004,0.006l-0.001,0c-0.151,0.186-0.242,0.421-0.242,0.678
		c0,0.593,0.481,1.074,1.074,1.074c0.593,0,1.074-0.481,1.074-1.074c0-0.257-0.091-0.493-0.241-0.678l-0.001,0
		c-0.001-0.002-0.003-0.004-0.006-0.006l-0.361-0.454l0.565,0.132c0.003,0,0.005,0,0.008,0.001h0.001
		c0.231,0.057,0.483,0.038,0.715-0.072c0.536-0.254,0.764-0.894,0.51-1.43C63.199,69.254,62.559,69.026,62.023,69.28z"/>
	<path class="st5" d="M61.264,75.028c-1.509,0-2.463,0.863-2.463,2.218c0,1.264,0.827,2.045,2.154,2.045
		c0.691,0,1.191-0.209,1.754-0.736l-0.182,2.263h-3.273l-0.163,1.018h3.718l0.3-3.818l-0.3-0.073
		c-0.364,0.618-0.927,0.991-1.527,0.991c-0.818,0-1.291-0.664-1.291-1.809c0-0.564,0.128-1.064,0.346-1.4
		c0.209-0.3,0.518-0.464,0.891-0.464c0.273,0,0.536,0.109,0.709,0.3c0.163,0.173,0.245,0.409,0.254,0.745
		c0.009,0.263,0.027,0.336,0.091,0.409c0.082,0.1,0.246,0.155,0.455,0.155c0.418,0,0.645-0.182,0.645-0.527
		C63.382,75.601,62.455,75.028,61.264,75.028z"/>
</g>
</svg>
