<?xml version="1.0" encoding="utf-8"?>
<!-- Generator: Adobe Illustrator 23.0.2, SVG Export Plug-In . SVG Version: 6.00 Build 0)  -->
<svg version="1.1" id="Layer_1" xmlns="http://www.w3.org/2000/svg" xmlns:xlink="http://www.w3.org/1999/xlink" x="0px" y="0px"
	 viewBox="0 0 82.452 99.776" style="enable-background:new 0 0 82.452 99.776;" xml:space="preserve">
<style type="text/css">
	.st0{fill:#FFFFFF;}
	.st1{fill:#ED1C24;}
	.st2{fill:#FFCB05;}
	.st3{fill:#21409A;}
	.st4{fill:#D4D5D6;}
	.st5{fill:#000100;}
	.st6{fill:#300505;}
	.st7{fill:#BFD730;}
	.st8{fill:#F15A22;}
</style>
<g>
	<path class="st0" d="M58.574,16.476h-43.24c-1.564,0-2.836,1.272-2.836,2.836v62.82c0,1.564,1.272,2.836,2.836,2.836h43.24
		c1.564,0,2.836-1.272,2.836-2.836v-62.82C61.41,17.749,60.138,16.476,58.574,16.476z M56.915,67.249
		c0.249,0.867,1.252,2.228,2.067,2.693c-0.815,0.465-1.818,1.825-2.067,2.693c-0.249-0.868-1.253-2.228-2.067-2.693
		C55.662,69.477,56.666,68.117,56.915,67.249z M26.907,21.963c0.617,2.151,3.106,5.523,5.125,6.675
		c-2.019,1.152-4.508,4.523-5.125,6.674c-0.617-2.151-3.104-5.522-5.124-6.674C23.802,27.486,26.29,24.114,26.907,21.963z
		 M16.992,34.196c-0.249-0.868-1.252-2.227-2.067-2.693c0.815-0.465,1.818-1.825,2.067-2.693c0.249,0.868,1.254,2.228,2.068,2.693
		C18.246,31.968,17.241,33.328,16.992,34.196z M16.914,27.167c-1.191,0-2.118-0.573-2.118-1.318c0-0.346,0.227-0.527,0.645-0.527
		c0.209,0,0.373,0.055,0.455,0.155c0.064,0.073,0.082,0.145,0.091,0.409c0.009,0.336,0.091,0.573,0.254,0.745
		c0.173,0.191,0.436,0.3,0.709,0.3c0.373,0,0.682-0.164,0.891-0.464c0.218-0.336,0.346-0.836,0.346-1.4
		c0-1.145-0.473-1.809-1.291-1.809c-0.6,0-1.164,0.373-1.527,0.991l-0.3-0.073l0.3-3.818h3.718l-0.163,1.018h-3.273l-0.182,2.263
		c0.564-0.527,1.063-0.736,1.754-0.736c1.327,0,2.154,0.782,2.154,2.045C19.378,26.304,18.423,27.167,16.914,27.167z M26.907,79.481
		c-0.617-2.151-3.104-5.523-5.124-6.674c2.02-1.152,4.507-4.523,5.124-6.674c0.617,2.15,3.106,5.522,5.125,6.674
		C30.013,73.959,27.524,77.331,26.907,79.481z M36.953,57.391c-0.617-2.151-3.104-5.522-5.124-6.674
		c2.02-1.151,4.507-4.524,5.124-6.674c0.617,2.15,3.106,5.523,5.125,6.674C40.059,51.869,37.569,55.24,36.953,57.391z
		 M46.995,79.481c-0.617-2.151-3.105-5.523-5.124-6.674c2.02-1.152,4.507-4.523,5.124-6.674c0.616,2.15,3.106,5.522,5.124,6.674
		C50.101,73.959,47.611,77.331,46.995,79.481z M46.995,35.312c-0.617-2.151-3.105-5.522-5.124-6.674
		c2.02-1.152,4.507-4.524,5.124-6.675c0.616,2.151,3.106,5.523,5.124,6.675C50.101,29.79,47.611,33.161,46.995,35.312z
		 M58.465,76.123c-0.209,0-0.373-0.055-0.455-0.155c-0.064-0.073-0.082-0.145-0.091-0.409c-0.009-0.336-0.091-0.573-0.254-0.745
		c-0.173-0.191-0.436-0.3-0.709-0.3c-0.373,0-0.681,0.164-0.891,0.464c-0.218,0.336-0.346,0.836-0.346,1.4
		c0,1.145,0.473,1.809,1.291,1.809c0.6,0,1.163-0.373,1.527-0.991l0.3,0.073l-0.3,3.818H54.82l0.163-1.018h3.273l0.182-2.263
		c-0.564,0.527-1.063,0.736-1.754,0.736c-1.327,0-2.154-0.782-2.154-2.045c0-1.354,0.954-2.218,2.463-2.218
		c1.191,0,2.118,0.573,2.118,1.318C59.11,75.941,58.883,76.123,58.465,76.123z"/>
	<path d="M58.574,16.046h-43.24c-1.801,0-3.266,1.465-3.266,3.266v62.82c0,1.801,1.465,3.266,3.266,3.266h43.24
		c1.801,0,3.266-1.465,3.266-3.266v-62.82C61.84,17.511,60.375,16.046,58.574,16.046z M61.41,82.132
		c0,1.564-1.272,2.836-2.836,2.836h-43.24c-1.564,0-2.836-1.272-2.836-2.836v-62.82c0-1.564,1.272-2.836,2.836-2.836h43.24
		c1.564,0,2.836,1.272,2.836,2.836V82.132z"/>
	<path class="st1" d="M17.223,22.904c-0.691,0-1.191,0.209-1.754,0.736l0.182-2.263h3.273l0.163-1.018h-3.718l-0.3,3.818l0.3,0.073
		c0.364-0.618,0.927-0.991,1.527-0.991c0.818,0,1.291,0.664,1.291,1.809c0,0.564-0.127,1.064-0.346,1.4
		c-0.209,0.3-0.518,0.464-0.891,0.464c-0.273,0-0.536-0.109-0.709-0.3c-0.163-0.173-0.245-0.409-0.254-0.745
		c-0.009-0.264-0.027-0.336-0.091-0.409c-0.082-0.1-0.246-0.155-0.455-0.155c-0.418,0-0.645,0.182-0.645,0.527
		c0,0.745,0.927,1.318,2.118,1.318c1.509,0,2.463-0.863,2.463-2.218C19.378,23.686,18.551,22.904,17.223,22.904z"/>
	<path class="st1" d="M56.992,74.278c-1.509,0-2.463,0.863-2.463,2.218c0,1.263,0.827,2.045,2.154,2.045
		c0.691,0,1.191-0.209,1.754-0.736l-0.182,2.263h-3.273l-0.163,1.018h3.718l0.3-3.818l-0.3-0.073
		c-0.364,0.618-0.927,0.991-1.527,0.991c-0.818,0-1.291-0.664-1.291-1.809c0-0.564,0.128-1.064,0.346-1.4
		c0.209-0.3,0.518-0.464,0.891-0.464c0.273,0,0.536,0.109,0.709,0.3c0.163,0.173,0.245,0.409,0.254,0.745
		c0.009,0.264,0.027,0.336,0.091,0.409c0.082,0.1,0.246,0.155,0.455,0.155c0.418,0,0.645-0.182,0.645-0.527
		C59.11,74.851,58.183,74.278,56.992,74.278z"/>
	<path class="st1" d="M26.907,35.312c0.617-2.151,3.106-5.522,5.125-6.674c-2.019-1.152-4.508-4.524-5.125-6.675
		c-0.617,2.151-3.104,5.523-5.124,6.675C23.802,29.79,26.29,33.161,26.907,35.312z"/>
	<path class="st1" d="M46.995,21.963c-0.617,2.151-3.105,5.523-5.124,6.675c2.02,1.152,4.507,4.523,5.124,6.674
		c0.616-2.151,3.106-5.522,5.124-6.674C50.101,27.486,47.611,24.114,46.995,21.963z"/>
	<path class="st1" d="M26.907,66.133c-0.617,2.15-3.104,5.522-5.124,6.674c2.02,1.151,4.507,4.524,5.124,6.674
		c0.617-2.151,3.106-5.523,5.125-6.674C30.013,71.655,27.524,68.284,26.907,66.133z"/>
	<path class="st1" d="M46.995,66.133c-0.617,2.15-3.105,5.522-5.124,6.674c2.02,1.151,4.507,4.524,5.124,6.674
		c0.616-2.151,3.106-5.523,5.124-6.674C50.101,71.655,47.611,68.284,46.995,66.133z"/>
	<path class="st1" d="M36.953,44.043c-0.617,2.15-3.104,5.523-5.124,6.674c2.02,1.152,4.507,4.523,5.124,6.674
		c0.617-2.151,3.106-5.522,5.125-6.674C40.059,49.566,37.569,46.194,36.953,44.043z"/>
	<path class="st1" d="M16.992,28.81c-0.249,0.868-1.252,2.228-2.067,2.693c0.815,0.465,1.818,1.825,2.067,2.693
		c0.249-0.868,1.254-2.227,2.068-2.693C18.246,31.038,17.241,29.678,16.992,28.81z"/>
	<path class="st1" d="M56.915,72.635c0.249-0.868,1.252-2.228,2.067-2.693c-0.815-0.465-1.818-1.825-2.067-2.693
		c-0.249,0.867-1.253,2.228-2.067,2.693C55.662,70.407,56.666,71.767,56.915,72.635z"/>
</g>
</svg>
