<?xml version="1.0" encoding="utf-8"?>
<!-- Generator: Adobe Illustrator 23.0.2, SVG Export Plug-In . SVG Version: 6.00 Build 0)  -->
<svg version="1.1" id="Layer_1" xmlns="http://www.w3.org/2000/svg" xmlns:xlink="http://www.w3.org/1999/xlink" x="0px" y="0px"
	 viewBox="0 0 82.452 99.776" style="enable-background:new 0 0 82.452 99.776;" xml:space="preserve">
<style type="text/css">
	.st0{fill:#FFFFFF;}
	.st1{fill:#ED1C24;}
	.st2{fill:#FFCB05;}
	.st3{fill:#21409A;}
	.st4{fill:#D4D5D6;}
	.st5{fill:#000100;}
	.st6{fill:#300505;}
	.st7{fill:#BFD730;}
	.st8{fill:#F15A22;}
</style>
<g>
	<path class="st0" d="M65.927,15.369h-43.24c-1.564,0-2.836,1.272-2.836,2.836v62.82c0,1.564,1.272,2.836,2.836,2.836h43.24
		c1.564,0,2.836-1.272,2.836-2.836v-62.82C68.763,16.641,67.491,15.369,65.927,15.369z M34.261,23.563
		c1.173-4.633,5.776-3.4,5.776,0.971c0,2.858-1.551,4.754-3.181,6.548c-0.816,0.898-1.899,2.099-2.594,3.357
		c-0.695-1.258-1.778-2.458-2.595-3.357c-1.631-1.794-3.182-3.69-3.182-6.548C28.484,20.163,33.087,18.93,34.261,23.563z
		 M25.393,31.828c-0.329,0.362-0.767,0.846-1.046,1.354c-0.281-0.507-0.718-0.992-1.047-1.354c-0.658-0.724-1.283-1.488-1.283-2.641
		c0-1.763,1.856-2.261,2.33-0.392c0.473-1.869,2.329-1.371,2.329,0.392C26.676,30.34,26.051,31.104,25.393,31.828z M24.267,26.06
		c-1.191,0-2.118-0.573-2.118-1.318c0-0.346,0.227-0.527,0.645-0.527c0.209,0,0.373,0.055,0.455,0.155
		c0.064,0.073,0.082,0.145,0.091,0.409c0.009,0.336,0.091,0.573,0.254,0.745c0.173,0.191,0.436,0.3,0.709,0.3
		c0.373,0,0.682-0.164,0.891-0.464c0.218-0.336,0.346-0.836,0.346-1.4c0-1.145-0.473-1.809-1.291-1.809
		c-0.6,0-1.164,0.373-1.527,0.991l-0.3-0.073l0.3-3.818h3.718l-0.163,1.018h-3.273l-0.182,2.263
		c0.564-0.527,1.063-0.736,1.754-0.736c1.327,0,2.154,0.782,2.154,2.045C26.73,25.197,25.776,26.06,24.267,26.06z M34.261,75.669
		c-1.174,4.633-5.777,3.399-5.777-0.971c0-2.858,1.552-4.754,3.182-6.548c0.817-0.898,1.9-2.099,2.595-3.356
		c0.695,1.258,1.779,2.458,2.594,3.356c1.631,1.794,3.181,3.69,3.181,6.548C40.037,79.068,35.434,80.301,34.261,75.669z
		 M44.307,56.518c-0.695-1.258-1.779-2.458-2.595-3.357c-1.631-1.794-3.182-3.69-3.182-6.548c0-4.37,4.603-5.604,5.777-0.971
		c1.173-4.633,5.776-3.4,5.776,0.971c0,2.858-1.551,4.754-3.182,6.548C46.086,54.06,45.002,55.26,44.307,56.518z M54.35,75.669
		c-1.174,4.633-5.777,3.399-5.777-0.971c0-2.858,1.552-4.754,3.182-6.548c0.816-0.898,1.9-2.099,2.595-3.356
		c0.694,1.258,1.778,2.458,2.594,3.356c1.631,1.794,3.182,3.69,3.182,6.548C60.126,79.068,55.523,80.301,54.35,75.669z
		 M56.944,31.082c-0.816,0.898-1.9,2.099-2.594,3.357c-0.695-1.258-1.779-2.458-2.595-3.357c-1.631-1.794-3.182-3.69-3.182-6.548
		c0-4.37,4.603-5.604,5.777-0.971c1.173-4.633,5.776-3.4,5.776,0.971C60.126,27.392,58.575,29.288,56.944,31.082z M65.818,75.016
		c-0.209,0-0.373-0.054-0.455-0.154c-0.064-0.073-0.082-0.146-0.091-0.409c-0.009-0.337-0.091-0.573-0.254-0.745
		c-0.173-0.19-0.436-0.3-0.709-0.3c-0.373,0-0.681,0.164-0.891,0.464c-0.218,0.336-0.346,0.836-0.346,1.4
		c0,1.145,0.473,1.809,1.291,1.809c0.6,0,1.163-0.372,1.527-0.991l0.3,0.072l-0.3,3.818h-3.718l0.163-1.018h3.273l0.182-2.263
		c-0.564,0.527-1.063,0.736-1.754,0.736c-1.327,0-2.154-0.781-2.154-2.045c0-1.354,0.954-2.217,2.463-2.217
		c1.191,0,2.118,0.573,2.118,1.318C66.463,74.834,66.236,75.016,65.818,75.016z M64.267,70.435c-0.473,1.869-2.33,1.372-2.33-0.392
		c0-1.153,0.625-1.917,1.283-2.641c0.328-0.362,0.766-0.846,1.046-1.353c0.28,0.508,0.718,0.992,1.046,1.353
		c0.658,0.724,1.284,1.489,1.284,2.641C66.597,71.807,64.74,72.304,64.267,70.435z"/>
	<path d="M65.927,14.939h-43.24c-1.801,0-3.266,1.465-3.266,3.266v62.82c0,1.801,1.465,3.266,3.266,3.266h43.24
		c1.801,0,3.266-1.465,3.266-3.266v-62.82C69.193,16.404,67.728,14.939,65.927,14.939z M68.763,81.025
		c0,1.564-1.272,2.836-2.836,2.836h-43.24c-1.564,0-2.836-1.272-2.836-2.836v-62.82c0-1.564,1.272-2.836,2.836-2.836h43.24
		c1.564,0,2.836,1.272,2.836,2.836V81.025z"/>
	<path class="st1" d="M24.576,21.797c-0.691,0-1.191,0.209-1.754,0.736l0.182-2.263h3.273l0.163-1.018h-3.718l-0.3,3.818l0.3,0.073
		c0.364-0.618,0.927-0.991,1.527-0.991c0.818,0,1.291,0.664,1.291,1.809c0,0.564-0.127,1.064-0.346,1.4
		c-0.209,0.3-0.518,0.464-0.891,0.464c-0.273,0-0.536-0.109-0.709-0.3c-0.163-0.173-0.245-0.409-0.254-0.745
		c-0.009-0.263-0.027-0.336-0.091-0.409c-0.082-0.1-0.246-0.155-0.455-0.155c-0.418,0-0.645,0.182-0.645,0.527
		c0,0.745,0.927,1.318,2.118,1.318c1.509,0,2.463-0.864,2.463-2.218C26.73,22.579,25.903,21.797,24.576,21.797z"/>
	<path class="st1" d="M64.345,73.171c-1.509,0-2.463,0.863-2.463,2.217c0,1.264,0.827,2.045,2.154,2.045
		c0.691,0,1.191-0.209,1.754-0.736l-0.182,2.263h-3.273l-0.163,1.018h3.718l0.3-3.818l-0.3-0.072
		c-0.364,0.618-0.927,0.991-1.527,0.991c-0.818,0-1.291-0.663-1.291-1.809c0-0.564,0.128-1.064,0.346-1.4
		c0.209-0.3,0.518-0.464,0.891-0.464c0.273,0,0.536,0.109,0.709,0.3c0.163,0.173,0.245,0.409,0.254,0.745
		c0.009,0.263,0.027,0.336,0.091,0.409c0.082,0.1,0.246,0.154,0.455,0.154c0.418,0,0.645-0.182,0.645-0.528
		C66.463,73.744,65.536,73.171,64.345,73.171z"/>
	<path class="st1" d="M44.307,45.643c-1.174-4.633-5.777-3.4-5.777,0.971c0,2.858,1.552,4.754,3.182,6.548
		c0.816,0.899,1.9,2.099,2.595,3.357c0.694-1.258,1.779-2.458,2.594-3.357c1.631-1.794,3.182-3.69,3.182-6.548
		C50.083,42.243,45.48,41.009,44.307,45.643z"/>
	<path class="st1" d="M34.261,34.439c0.695-1.258,1.779-2.458,2.594-3.357c1.631-1.794,3.181-3.69,3.181-6.548
		c0-4.37-4.603-5.604-5.776-0.971c-1.174-4.633-5.777-3.4-5.777,0.971c0,2.858,1.552,4.754,3.182,6.548
		C32.483,31.98,33.566,33.181,34.261,34.439z"/>
	<path class="st1" d="M54.35,23.563c-1.174-4.633-5.777-3.4-5.777,0.971c0,2.858,1.552,4.754,3.182,6.548
		c0.816,0.898,1.9,2.099,2.595,3.357c0.694-1.258,1.778-2.458,2.594-3.357c1.631-1.794,3.182-3.69,3.182-6.548
		C60.126,20.163,55.523,18.93,54.35,23.563z"/>
	<path class="st1" d="M34.261,64.793c-0.695,1.258-1.778,2.458-2.595,3.356c-1.631,1.794-3.182,3.69-3.182,6.548
		c0,4.37,4.603,5.604,5.777,0.971c1.173,4.633,5.776,3.399,5.776-0.971c0-2.858-1.551-4.754-3.181-6.548
		C36.04,67.251,34.956,66.05,34.261,64.793z"/>
	<path class="st1" d="M54.35,64.793c-0.695,1.258-1.779,2.458-2.595,3.356c-1.631,1.794-3.182,3.69-3.182,6.548
		c0,4.37,4.603,5.604,5.777,0.971c1.173,4.633,5.776,3.399,5.776-0.971c0-2.858-1.551-4.754-3.182-6.548
		C56.128,67.251,55.044,66.05,54.35,64.793z"/>
	<path class="st1" d="M24.347,28.795c-0.474-1.869-2.33-1.371-2.33,0.392c0,1.153,0.626,1.917,1.283,2.641
		c0.329,0.362,0.766,0.846,1.047,1.354c0.28-0.507,0.717-0.992,1.046-1.354c0.658-0.724,1.283-1.488,1.283-2.641
		C26.676,27.424,24.82,26.926,24.347,28.795z"/>
	<path class="st1" d="M64.267,66.049c-0.281,0.508-0.718,0.992-1.046,1.353c-0.658,0.724-1.283,1.489-1.283,2.641
		c0,1.763,1.856,2.261,2.33,0.392c0.473,1.869,2.33,1.372,2.33-0.392c0-1.153-0.626-1.917-1.284-2.641
		C64.985,67.041,64.548,66.556,64.267,66.049z"/>
</g>
</svg>
