<?xml version="1.0" encoding="utf-8"?>
<!-- Generator: Adobe Illustrator 23.0.2, SVG Export Plug-In . SVG Version: 6.00 Build 0)  -->
<svg version="1.1" id="Layer_1" xmlns="http://www.w3.org/2000/svg" xmlns:xlink="http://www.w3.org/1999/xlink" x="0px" y="0px"
	 viewBox="0 0 82.452 99.776" style="enable-background:new 0 0 82.452 99.776;" xml:space="preserve">
<style type="text/css">
	.st0{fill:#FFFFFF;}
	.st1{fill:#ED1C24;}
	.st2{fill:#FFCB05;}
	.st3{fill:#21409A;}
	.st4{fill:#D4D5D6;}
	.st5{fill:#000100;}
	.st6{fill:#300505;}
	.st7{fill:#BFD730;}
	.st8{fill:#F15A22;}
</style>
<g>
	<path class="st0" d="M61.126,14.276h-43.24c-1.564,0-2.836,1.272-2.836,2.836v62.82c0,1.563,1.272,2.836,2.836,2.836h43.24
		c1.564,0,2.836-1.272,2.836-2.836v-62.82C63.962,15.548,62.69,14.276,61.126,14.276z M26.864,22.533
		c0.816-0.731,1.899-1.706,2.594-2.729c0.696,1.023,1.779,1.998,2.596,2.729c1.63,1.46,3.181,3.002,3.181,5.326
		c0,3.318-4.008,4.411-5.497,1.48c0.137,1.292,0.739,3.262,1.954,3.731h-4.468c1.216-0.469,1.817-2.439,1.954-3.731
		c-1.49,2.931-5.497,1.838-5.497-1.48C23.682,25.535,25.234,23.993,26.864,22.533z M19.657,30.471
		c0.055,0.521,0.298,1.316,0.788,1.505h-1.802c0.491-0.189,0.733-0.984,0.788-1.505c-0.6,1.182-2.216,0.742-2.216-0.596
		c0-0.937,0.626-1.559,1.282-2.147c0.329-0.294,0.766-0.688,1.047-1.101c0.28,0.413,0.717,0.807,1.046,1.101
		c0.658,0.589,1.283,1.211,1.283,2.147C21.874,31.212,20.258,31.653,19.657,30.471z M19.466,24.967
		c-1.191,0-2.118-0.573-2.118-1.318c0-0.345,0.227-0.527,0.645-0.527c0.209,0,0.373,0.055,0.455,0.155
		c0.064,0.072,0.082,0.145,0.091,0.409c0.009,0.336,0.091,0.573,0.254,0.745c0.173,0.191,0.436,0.3,0.709,0.3
		c0.373,0,0.682-0.164,0.891-0.464c0.218-0.336,0.346-0.836,0.346-1.4c0-1.145-0.473-1.809-1.291-1.809
		c-0.6,0-1.164,0.373-1.527,0.991l-0.3-0.072l0.3-3.818h3.718l-0.163,1.018h-3.273l-0.182,2.264
		c0.564-0.528,1.063-0.736,1.754-0.736c1.327,0,2.154,0.781,2.154,2.045C21.929,24.103,20.975,24.967,19.466,24.967z M32.054,74.511
		c-0.817,0.731-1.899,1.706-2.596,2.73c-0.695-1.023-1.778-1.998-2.594-2.73c-1.63-1.459-3.182-3.001-3.182-5.326
		c0-3.318,4.008-4.411,5.497-1.479c-0.137-1.293-0.739-3.262-1.954-3.732h4.468c-1.216,0.47-1.817,2.439-1.954,3.732
		c1.488-2.931,5.497-1.839,5.497,1.479C35.235,71.51,33.684,73.052,32.054,74.511z M41.739,55.15h-4.468
		c1.216-0.47,1.817-2.439,1.955-3.732c-1.49,2.932-5.497,1.838-5.497-1.48c0-2.325,1.552-3.866,3.182-5.326
		c0.816-0.73,1.9-1.706,2.594-2.73c0.696,1.023,1.779,2,2.596,2.73c1.63,1.46,3.182,3.001,3.182,5.326
		c0,3.318-4.008,4.412-5.497,1.48C39.922,52.711,40.524,54.68,41.739,55.15z M52.143,74.511c-0.817,0.731-1.9,1.706-2.596,2.73
		c-0.694-1.023-1.778-1.998-2.594-2.73c-1.63-1.459-3.182-3.001-3.182-5.326c0-3.318,4.008-4.411,5.498-1.479
		c-0.137-1.293-0.739-3.262-1.955-3.732h4.468c-1.216,0.47-1.817,2.439-1.955,3.732c1.489-2.931,5.497-1.839,5.497,1.479
		C55.324,71.51,53.773,73.052,52.143,74.511z M49.827,29.339c0.138,1.292,0.739,3.262,1.955,3.731h-4.468
		c1.216-0.469,1.817-2.439,1.955-3.731c-1.49,2.931-5.498,1.838-5.498-1.48c0-2.325,1.552-3.866,3.182-5.326
		c0.816-0.731,1.9-1.706,2.594-2.729c0.696,1.023,1.778,1.998,2.596,2.729c1.63,1.46,3.182,3.002,3.182,5.326
		C55.324,31.177,51.316,32.27,49.827,29.339z M61.016,73.923c-0.209,0-0.373-0.055-0.455-0.155
		c-0.064-0.073-0.082-0.146-0.091-0.409c-0.009-0.336-0.091-0.573-0.254-0.745c-0.173-0.191-0.436-0.3-0.709-0.3
		c-0.373,0-0.681,0.164-0.891,0.464c-0.218,0.336-0.346,0.836-0.346,1.4c0,1.145,0.473,1.809,1.291,1.809
		c0.6,0,1.163-0.373,1.527-0.991l0.3,0.072l-0.3,3.818h-3.718l0.163-1.018h3.273l0.182-2.263c-0.564,0.527-1.063,0.736-1.754,0.736
		c-1.327,0-2.154-0.781-2.154-2.045c0-1.354,0.954-2.217,2.463-2.217c1.191,0,2.118,0.573,2.118,1.318
		C61.662,73.741,61.434,73.923,61.016,73.923z M60.513,69.317c-0.329,0.295-0.766,0.688-1.046,1.101
		c-0.281-0.413-0.718-0.806-1.047-1.101c-0.657-0.588-1.282-1.211-1.282-2.148c0-1.337,1.616-1.778,2.216-0.596
		c-0.055-0.521-0.297-1.315-0.788-1.505h1.802c-0.491,0.19-0.733,0.984-0.788,1.505c0.601-1.182,2.217-0.741,2.217,0.596
		C61.796,68.107,61.171,68.729,60.513,69.317z"/>
	<path d="M61.126,13.846h-43.24c-1.801,0-3.266,1.465-3.266,3.266v62.82c0,1.801,1.465,3.266,3.266,3.266h43.24
		c1.801,0,3.266-1.465,3.266-3.266v-62.82C64.392,15.311,62.927,13.846,61.126,13.846z M63.962,79.932
		c0,1.563-1.272,2.836-2.836,2.836h-43.24c-1.564,0-2.836-1.272-2.836-2.836v-62.82c0-1.563,1.272-2.836,2.836-2.836h43.24
		c1.564,0,2.836,1.272,2.836,2.836V79.932z"/>
	<path class="st5" d="M19.775,20.704c-0.691,0-1.191,0.209-1.754,0.736l0.182-2.264h3.273l0.163-1.018h-3.718l-0.3,3.818l0.3,0.072
		c0.364-0.618,0.927-0.991,1.527-0.991c0.818,0,1.291,0.664,1.291,1.809c0,0.564-0.127,1.063-0.346,1.4
		c-0.209,0.3-0.518,0.464-0.891,0.464c-0.273,0-0.536-0.109-0.709-0.3c-0.163-0.173-0.245-0.409-0.254-0.745
		c-0.009-0.263-0.027-0.336-0.091-0.409c-0.082-0.1-0.246-0.155-0.455-0.155c-0.418,0-0.645,0.182-0.645,0.527
		c0,0.745,0.927,1.318,2.118,1.318c1.509,0,2.463-0.863,2.463-2.218C21.929,21.485,21.102,20.704,19.775,20.704z"/>
	<path class="st5" d="M59.544,72.078c-1.509,0-2.463,0.863-2.463,2.217c0,1.264,0.827,2.045,2.154,2.045
		c0.691,0,1.191-0.209,1.754-0.736l-0.182,2.263h-3.273l-0.163,1.018h3.718l0.3-3.818l-0.3-0.072
		c-0.364,0.618-0.927,0.991-1.527,0.991c-0.818,0-1.291-0.664-1.291-1.809c0-0.564,0.128-1.063,0.346-1.4
		c0.209-0.3,0.518-0.464,0.891-0.464c0.273,0,0.536,0.109,0.709,0.3c0.163,0.173,0.245,0.409,0.254,0.745
		c0.009,0.263,0.027,0.336,0.091,0.409c0.082,0.1,0.246,0.155,0.455,0.155c0.418,0,0.645-0.182,0.645-0.527
		C61.662,72.65,60.734,72.078,59.544,72.078z"/>
	<path d="M29.18,29.339c-0.137,1.292-0.739,3.262-1.954,3.731h4.468c-1.216-0.469-1.817-2.439-1.954-3.731
		c1.488,2.931,5.497,1.838,5.497-1.48c0-2.325-1.551-3.866-3.181-5.326c-0.817-0.731-1.899-1.706-2.596-2.729
		c-0.695,1.023-1.778,1.998-2.594,2.729c-1.63,1.46-3.182,3.002-3.182,5.326C23.682,31.177,27.69,32.27,29.18,29.339z"/>
	<path d="M45.282,49.939c0-2.325-1.552-3.866-3.182-5.326c-0.817-0.73-1.9-1.706-2.596-2.73c-0.694,1.023-1.778,2-2.594,2.73
		c-1.63,1.46-3.182,3.001-3.182,5.326c0,3.318,4.008,4.412,5.497,1.48c-0.137,1.292-0.739,3.262-1.955,3.732h4.468
		c-1.216-0.47-1.817-2.439-1.955-3.732C41.274,54.35,45.282,53.257,45.282,49.939z"/>
	<path d="M52.143,22.533c-0.817-0.731-1.9-1.706-2.596-2.729c-0.694,1.023-1.778,1.998-2.594,2.729
		c-1.63,1.46-3.182,3.002-3.182,5.326c0,3.318,4.008,4.411,5.498,1.48c-0.137,1.292-0.739,3.262-1.955,3.731h4.468
		c-1.216-0.469-1.817-2.439-1.955-3.731c1.489,2.931,5.497,1.838,5.497-1.48C55.324,25.535,53.773,23.993,52.143,22.533z"/>
	<path d="M29.739,67.706c0.137-1.293,0.739-3.262,1.954-3.732h-4.468c1.216,0.47,1.817,2.439,1.954,3.732
		c-1.49-2.931-5.497-1.839-5.497,1.479c0,2.325,1.552,3.867,3.182,5.326c0.816,0.731,1.899,1.706,2.594,2.73
		c0.696-1.023,1.779-1.998,2.596-2.73c1.63-1.459,3.181-3.001,3.181-5.326C35.235,65.867,31.227,64.774,29.739,67.706z"/>
	<path d="M49.827,67.706c0.138-1.293,0.739-3.262,1.955-3.732h-4.468c1.216,0.47,1.817,2.439,1.955,3.732
		c-1.49-2.931-5.498-1.839-5.498,1.479c0,2.325,1.552,3.867,3.182,5.326c0.816,0.731,1.9,1.706,2.594,2.73
		c0.696-1.023,1.778-1.998,2.596-2.73c1.63-1.459,3.182-3.001,3.182-5.326C55.324,65.867,51.316,64.774,49.827,67.706z"/>
	<path d="M20.591,27.727c-0.329-0.294-0.766-0.688-1.046-1.101c-0.281,0.413-0.718,0.807-1.047,1.101
		c-0.657,0.589-1.282,1.211-1.282,2.147c0,1.338,1.616,1.779,2.216,0.596c-0.055,0.521-0.297,1.316-0.788,1.505h1.802
		c-0.49-0.189-0.733-0.984-0.788-1.505c0.601,1.182,2.217,0.742,2.217-0.596C21.874,28.938,21.249,28.316,20.591,27.727z"/>
	<path d="M59.579,66.574c0.055-0.521,0.298-1.315,0.788-1.505h-1.802c0.491,0.19,0.733,0.984,0.788,1.505
		c-0.6-1.182-2.216-0.741-2.216,0.596c0,0.937,0.626,1.56,1.282,2.148c0.329,0.295,0.767,0.688,1.047,1.101
		c0.28-0.413,0.717-0.806,1.046-1.101c0.658-0.588,1.283-1.211,1.283-2.148C61.796,65.832,60.18,65.392,59.579,66.574z"/>
</g>
</svg>
