<?xml version="1.0" encoding="utf-8"?>
<!-- Generator: Adobe Illustrator 23.0.2, SVG Export Plug-In . SVG Version: 6.00 Build 0)  -->
<svg version="1.1" id="Layer_1" xmlns="http://www.w3.org/2000/svg" xmlns:xlink="http://www.w3.org/1999/xlink" x="0px" y="0px"
	 viewBox="0 0 82.452 99.776" style="enable-background:new 0 0 82.452 99.776;" xml:space="preserve">
<style type="text/css">
	.st0{fill:#FFFFFF;}
	.st1{fill:#ED1C24;}
	.st2{fill:#FFCB05;}
	.st3{fill:#21409A;}
	.st4{fill:#D4D5D6;}
	.st5{fill:#000100;}
	.st6{fill:#300505;}
	.st7{fill:#BFD730;}
	.st8{fill:#F15A22;}
</style>
<g>
	<path class="st0" d="M60.972,75.496c-0.691,0-1.109,0.773-1.109,2.063c0,1.127,0.427,1.827,1.127,1.827
		c0.4,0,0.782-0.236,1.009-0.636c0.127-0.218,0.182-0.491,0.182-0.909c0-0.618-0.1-1.209-0.291-1.654
		C61.709,75.759,61.363,75.496,60.972,75.496z"/>
	<path class="st0" d="M62.799,17.467H19.559c-1.563,0-2.836,1.272-2.836,2.836v62.82c0,1.564,1.272,2.836,2.836,2.836h43.241
		c1.564,0,2.836-1.272,2.836-2.836v-62.82C65.636,18.739,64.363,17.467,62.799,17.467z M23.482,33.395
		c-0.254,0.536-0.894,0.764-1.431,0.51c-0.232-0.11-0.406-0.293-0.508-0.509h-0.001c-0.001-0.003-0.003-0.005-0.004-0.008
		l-0.222-0.452v0.51c0,0.482,0.238,1.502,0.802,1.72h-1.802c0.564-0.218,0.801-1.238,0.801-1.72v-0.51l-0.222,0.452
		c-0.001,0.002-0.003,0.005-0.003,0.008c-0.102,0.216-0.277,0.399-0.509,0.509c-0.536,0.254-1.177,0.025-1.43-0.51
		c-0.255-0.536-0.026-1.177,0.51-1.43c0.233-0.11,0.485-0.129,0.716-0.072h0c0.002,0.001,0.005,0.001,0.008,0.001l0.565,0.132
		l-0.361-0.454c-0.002-0.002-0.004-0.004-0.005-0.006l-0.001,0c-0.151-0.186-0.241-0.421-0.241-0.678
		c0-0.593,0.48-1.074,1.074-1.074c0.593,0,1.073,0.481,1.073,1.074c0,0.257-0.091,0.492-0.241,0.678l-0.001,0
		c-0.002,0.002-0.003,0.004-0.005,0.006l-0.362,0.454l0.565-0.132c0.002-0.001,0.006-0.001,0.009-0.001h0.001
		c0.231-0.057,0.483-0.038,0.715,0.072C23.509,32.219,23.737,32.859,23.482,33.395z M21.367,28.158
		c-1.545,0-2.381-1.136-2.381-3.245c0-1.227,0.254-2.227,0.718-2.845c0.436-0.582,1.036-0.864,1.845-0.864
		c1.1,0,1.927,0.491,1.927,1.145c0,0.327-0.246,0.527-0.654,0.527c-0.227,0-0.418-0.064-0.5-0.173
		c-0.054-0.072-0.054-0.1-0.082-0.473c-0.027-0.518-0.291-0.8-0.718-0.8c-0.555,0-0.945,0.418-1.136,1.2
		c-0.118,0.491-0.191,1.145-0.191,1.727c0.482-0.455,0.873-0.618,1.473-0.618c1.218,0,2.036,0.846,2.036,2.1
		C23.703,27.231,22.767,28.158,21.367,28.158z M35.48,75.094c-0.576,0.272-1.201,0.32-1.773,0.179h-0.002
		c-0.006-0.002-0.015-0.002-0.02-0.004l-1.398-0.327l0.895,1.124c0.004,0.005,0.008,0.01,0.012,0.016l0.002,0.001
		c0.372,0.459,0.597,1.043,0.597,1.679c0,1.469-1.191,2.66-2.659,2.66c-1.469,0-2.658-1.191-2.658-2.66
		c0-0.636,0.223-1.22,0.597-1.679l0.002-0.001c0.002-0.006,0.008-0.011,0.013-0.016l0.894-1.124l-1.398,0.327
		c-0.007,0.001-0.015,0.001-0.02,0.004H28.56c-0.572,0.141-1.196,0.093-1.772-0.179c-1.328-0.629-1.893-2.215-1.263-3.542
		c0.628-1.327,2.214-1.893,3.542-1.264c0.576,0.272,1.009,0.726,1.262,1.26c0.001,0.007,0.005,0.014,0.009,0.019l0.549,1.121v-1.263
		c0-1.194-0.586-3.719-1.983-4.26h4.464c-1.397,0.542-1.985,3.067-1.985,4.26v1.263l0.549-1.121
		c0.003-0.005,0.006-0.012,0.009-0.019h0.001c0.252-0.533,0.684-0.988,1.259-1.26c1.329-0.63,2.916-0.064,3.544,1.264
		C37.372,72.879,36.808,74.465,35.48,75.094z M36.744,53.954c-0.628,1.327-2.215,1.893-3.544,1.263
		c-0.574-0.272-1.006-0.726-1.259-1.26h-0.001c-0.002-0.007-0.006-0.014-0.009-0.019l-0.549-1.12v1.263
		c0,1.194,0.588,3.719,1.985,4.26h-4.464c1.397-0.542,1.983-3.066,1.983-4.26v-1.263l-0.549,1.12
		c-0.004,0.005-0.008,0.012-0.009,0.019c-0.254,0.533-0.686,0.988-1.262,1.26c-1.327,0.63-2.914,0.064-3.542-1.263
		c-0.63-1.327-0.065-2.913,1.263-3.542c0.576-0.272,1.201-0.32,1.772-0.179h0.003c0.005,0.003,0.013,0.003,0.02,0.004l1.398,0.327
		l-0.894-1.124c-0.005-0.006-0.011-0.011-0.013-0.016l-0.002-0.001c-0.374-0.459-0.597-1.043-0.597-1.679
		c0-1.469,1.189-2.66,2.658-2.66c1.469,0,2.659,1.191,2.659,2.66c0,0.636-0.225,1.22-0.597,1.679l-0.002,0.001
		c-0.004,0.005-0.008,0.01-0.012,0.016l-0.895,1.124l1.398-0.327c0.006-0.001,0.014-0.001,0.02-0.004h0.002
		c0.572-0.141,1.197-0.093,1.773,0.179C36.808,51.041,37.372,52.626,36.744,53.954z M36.744,31.874
		c-0.628,1.327-2.215,1.893-3.544,1.263c-0.574-0.272-1.006-0.726-1.259-1.26h-0.001c-0.002-0.007-0.006-0.014-0.009-0.019
		l-0.549-1.12v1.263c0,1.194,0.588,3.719,1.985,4.26h-4.464c1.397-0.542,1.983-3.066,1.983-4.26v-1.263l-0.549,1.12
		c-0.004,0.005-0.008,0.012-0.009,0.019c-0.254,0.533-0.686,0.988-1.262,1.26c-1.327,0.63-2.914,0.064-3.542-1.263
		c-0.63-1.328-0.065-2.913,1.263-3.542c0.576-0.272,1.201-0.32,1.772-0.179h0.003c0.005,0.003,0.013,0.003,0.02,0.004l1.398,0.327
		l-0.894-1.124c-0.005-0.006-0.011-0.011-0.013-0.016l-0.002-0.001c-0.374-0.459-0.597-1.043-0.597-1.679
		c0-1.469,1.189-2.66,2.658-2.66c1.469,0,2.659,1.191,2.659,2.66c0,0.636-0.225,1.22-0.597,1.679l-0.002,0.001
		c-0.004,0.005-0.008,0.01-0.012,0.016l-0.895,1.124l1.398-0.327c0.006-0.001,0.014-0.001,0.02-0.004h0.002
		c0.572-0.141,1.197-0.093,1.773,0.179C36.808,28.961,37.372,30.547,36.744,31.874z M55.571,75.094
		c-0.576,0.272-1.201,0.32-1.773,0.179h-0.003c-0.005-0.002-0.012-0.002-0.019-0.004l-1.399-0.327l0.894,1.124
		c0.005,0.005,0.01,0.01,0.013,0.016l0.002,0.001c0.374,0.459,0.596,1.043,0.596,1.679c0,1.469-1.189,2.66-2.658,2.66
		c-1.469,0-2.659-1.191-2.659-2.66c0-0.636,0.225-1.22,0.597-1.679l0.002-0.001c0.004-0.006,0.008-0.011,0.012-0.016l0.895-1.124
		l-1.398,0.327c-0.006,0.001-0.014,0.001-0.021,0.004h-0.002c-0.573,0.141-1.198,0.093-1.773-0.179
		c-1.327-0.629-1.892-2.215-1.264-3.542c0.629-1.327,2.215-1.893,3.545-1.264c0.575,0.272,1.006,0.726,1.258,1.26h0.001
		c0.002,0.007,0.006,0.014,0.008,0.019l0.55,1.121v-1.263c0-1.194-0.588-3.719-1.985-4.26h4.464
		c-1.397,0.542-1.983,3.067-1.983,4.26v1.263l0.55-1.121c0.004-0.005,0.008-0.012,0.009-0.019c0.254-0.533,0.686-0.988,1.262-1.26
		c1.327-0.63,2.914-0.064,3.542,1.264C57.465,72.879,56.899,74.465,55.571,75.094z M56.835,53.954
		c-0.628,1.327-2.214,1.893-3.542,1.263c-0.576-0.272-1.008-0.726-1.262-1.26c-0.001-0.007-0.005-0.014-0.009-0.019l-0.55-1.12
		v1.263c0,1.194,0.587,3.719,1.983,4.26h-4.464c1.397-0.542,1.985-3.066,1.985-4.26v-1.263l-0.55,1.12
		c-0.003,0.005-0.006,0.012-0.008,0.019h-0.001c-0.252,0.533-0.684,0.988-1.258,1.26c-1.329,0.63-2.916,0.064-3.545-1.263
		c-0.629-1.327-0.064-2.913,1.264-3.542c0.575-0.272,1.2-0.32,1.773-0.179h0.002c0.006,0.003,0.015,0.003,0.021,0.004l1.398,0.327
		l-0.895-1.124c-0.005-0.006-0.008-0.011-0.012-0.016l-0.002-0.001c-0.372-0.459-0.597-1.043-0.597-1.679
		c0-1.469,1.19-2.66,2.659-2.66c1.469,0,2.658,1.191,2.658,2.66c0,0.636-0.223,1.22-0.596,1.679l-0.002,0.001
		c-0.002,0.005-0.008,0.01-0.013,0.016l-0.894,1.124l1.399-0.327c0.007-0.001,0.015-0.001,0.019-0.004h0.003
		c0.572-0.141,1.196-0.093,1.773,0.179C56.899,51.041,57.465,52.626,56.835,53.954z M56.835,31.874
		c-0.628,1.327-2.214,1.893-3.542,1.263c-0.576-0.272-1.008-0.726-1.262-1.26c-0.001-0.007-0.005-0.014-0.009-0.019l-0.55-1.12
		v1.263c0,1.194,0.587,3.719,1.983,4.26h-4.464c1.397-0.542,1.985-3.066,1.985-4.26v-1.263l-0.55,1.12
		c-0.003,0.005-0.006,0.012-0.008,0.019h-0.001c-0.252,0.533-0.684,0.988-1.258,1.26c-1.329,0.63-2.916,0.064-3.545-1.263
		c-0.629-1.328-0.064-2.913,1.264-3.542c0.575-0.272,1.2-0.32,1.773-0.179h0.002c0.006,0.003,0.015,0.003,0.021,0.004l1.398,0.327
		l-0.895-1.124c-0.005-0.006-0.008-0.011-0.012-0.016l-0.002-0.001c-0.372-0.459-0.597-1.043-0.597-1.679
		c0-1.469,1.19-2.66,2.659-2.66c1.469,0,2.658,1.191,2.658,2.66c0,0.636-0.223,1.22-0.596,1.679l-0.002,0.001
		c-0.002,0.005-0.008,0.01-0.013,0.016l-0.894,1.124l1.399-0.327c0.007-0.001,0.015-0.001,0.019-0.004h0.003
		c0.572-0.141,1.196-0.093,1.773,0.179C56.899,28.961,57.465,30.547,56.835,31.874z M62.654,81.359
		c-0.436,0.582-1.036,0.864-1.845,0.864c-1.1,0-1.927-0.491-1.927-1.145c0-0.327,0.245-0.527,0.654-0.527
		c0.227,0,0.418,0.064,0.5,0.172c0.055,0.073,0.055,0.1,0.082,0.473c0.027,0.518,0.291,0.8,0.718,0.8c0.555,0,0.945-0.418,1.136-1.2
		c0.118-0.491,0.191-1.146,0.191-1.727c-0.482,0.455-0.873,0.618-1.473,0.618c-1.218,0-2.036-0.846-2.036-2.1
		c0-1.391,0.936-2.318,2.336-2.318c1.545,0,2.381,1.136,2.381,3.245C63.372,79.741,63.118,80.74,62.654,81.359z M62.896,71.461
		c-0.233,0.11-0.484,0.129-0.715,0.072H62.18c-0.003-0.001-0.006-0.001-0.008-0.001l-0.565-0.132l0.361,0.454
		c0.002,0.002,0.004,0.004,0.006,0.006l0.001,0c0.151,0.186,0.241,0.421,0.241,0.678c0,0.593-0.481,1.074-1.073,1.074
		c-0.593,0-1.074-0.481-1.074-1.074c0-0.257,0.091-0.493,0.242-0.678l0.001,0c0.001-0.002,0.003-0.004,0.004-0.006l0.362-0.454
		l-0.564,0.132c-0.003,0-0.006,0-0.008,0.001h-0.001c-0.232,0.057-0.484,0.038-0.716-0.072c-0.536-0.254-0.764-0.894-0.51-1.43
		c0.254-0.536,0.895-0.764,1.431-0.51c0.232,0.11,0.407,0.293,0.509,0.509h0.001c0.001,0.003,0.002,0.006,0.003,0.008l0.222,0.453
		v-0.51c0-0.482-0.237-1.501-0.802-1.72h1.802c-0.564,0.219-0.801,1.239-0.801,1.72v0.51l0.222-0.453
		c0.001-0.002,0.003-0.005,0.004-0.008c0.102-0.215,0.277-0.399,0.51-0.509c0.536-0.254,1.177-0.026,1.43,0.51
		C63.661,70.567,63.432,71.207,62.896,71.461z"/>
	<path class="st0" d="M21.367,24.04c-0.4,0-0.782,0.236-1.009,0.636c-0.127,0.218-0.182,0.491-0.182,0.909
		c0,0.618,0.1,1.209,0.291,1.654c0.182,0.427,0.527,0.691,0.918,0.691c0.691,0,1.109-0.773,1.109-2.063
		C22.494,24.74,22.067,24.04,21.367,24.04z"/>
	<path d="M62.799,17.037H19.559c-1.801,0-3.266,1.465-3.266,3.266v62.82c0,1.801,1.465,3.266,3.266,3.266h43.241
		c1.801,0,3.266-1.465,3.266-3.266v-62.82C66.065,18.502,64.601,17.037,62.799,17.037z M65.636,83.123
		c0,1.564-1.272,2.836-2.836,2.836H19.559c-1.563,0-2.836-1.272-2.836-2.836v-62.82c0-1.563,1.272-2.836,2.836-2.836h43.241
		c1.564,0,2.836,1.272,2.836,2.836V83.123z"/>
	<path d="M22.972,31.965c-0.232-0.11-0.484-0.129-0.715-0.072h-0.001c-0.003,0.001-0.007,0.001-0.009,0.001l-0.565,0.132
		l0.362-0.454c0.001-0.002,0.003-0.004,0.005-0.006l0.001,0c0.15-0.186,0.241-0.421,0.241-0.678c0-0.593-0.481-1.074-1.073-1.074
		c-0.593,0-1.074,0.481-1.074,1.074c0,0.257,0.09,0.492,0.241,0.678l0.001,0c0.001,0.002,0.003,0.004,0.005,0.006l0.361,0.454
		l-0.565-0.132c-0.003-0.001-0.006-0.001-0.008-0.001h0c-0.232-0.057-0.484-0.038-0.716,0.072c-0.536,0.253-0.765,0.894-0.51,1.43
		c0.253,0.536,0.894,0.764,1.43,0.51c0.232-0.11,0.407-0.293,0.509-0.509c0.001-0.003,0.002-0.005,0.003-0.008l0.222-0.452v0.51
		c0,0.482-0.237,1.502-0.801,1.72h1.802c-0.564-0.218-0.802-1.238-0.802-1.72v-0.51l0.222,0.452
		c0.001,0.002,0.003,0.005,0.004,0.008h0.001c0.102,0.216,0.276,0.399,0.508,0.509c0.537,0.254,1.177,0.025,1.431-0.51
		C23.737,32.859,23.509,32.219,22.972,31.965z"/>
	<path d="M35.48,28.332c-0.576-0.272-1.201-0.32-1.773-0.179h-0.002c-0.006,0.003-0.015,0.003-0.02,0.004l-1.398,0.327l0.895-1.124
		c0.004-0.006,0.008-0.011,0.012-0.016l0.002-0.001c0.372-0.459,0.597-1.043,0.597-1.679c0-1.469-1.191-2.66-2.659-2.66
		c-1.469,0-2.658,1.191-2.658,2.66c0,0.636,0.223,1.22,0.597,1.679l0.002,0.001c0.002,0.005,0.008,0.01,0.013,0.016l0.894,1.124
		l-1.398-0.327c-0.007-0.001-0.015-0.001-0.02-0.004H28.56c-0.572-0.141-1.196-0.093-1.772,0.179
		c-1.328,0.629-1.893,2.214-1.263,3.542c0.628,1.327,2.214,1.893,3.542,1.263c0.576-0.272,1.009-0.726,1.262-1.26
		c0.001-0.007,0.005-0.014,0.009-0.019l0.549-1.12v1.263c0,1.194-0.586,3.719-1.983,4.26h4.464c-1.397-0.542-1.985-3.066-1.985-4.26
		v-1.263l0.549,1.12c0.003,0.005,0.006,0.012,0.009,0.019h0.001c0.252,0.533,0.684,0.988,1.259,1.26
		c1.329,0.63,2.916,0.064,3.544-1.263C37.372,30.547,36.808,28.961,35.48,28.332z"/>
	<path d="M55.571,28.332c-0.576-0.272-1.201-0.32-1.773-0.179h-0.003c-0.005,0.003-0.012,0.003-0.019,0.004l-1.399,0.327
		l0.894-1.124c0.005-0.006,0.01-0.011,0.013-0.016l0.002-0.001c0.374-0.459,0.596-1.043,0.596-1.679c0-1.469-1.189-2.66-2.658-2.66
		c-1.469,0-2.659,1.191-2.659,2.66c0,0.636,0.225,1.22,0.597,1.679l0.002,0.001c0.004,0.005,0.008,0.01,0.012,0.016l0.895,1.124
		l-1.398-0.327c-0.006-0.001-0.014-0.001-0.021-0.004h-0.002c-0.573-0.141-1.198-0.093-1.773,0.179
		c-1.327,0.629-1.892,2.214-1.264,3.542c0.629,1.327,2.215,1.893,3.545,1.263c0.575-0.272,1.006-0.726,1.258-1.26h0.001
		c0.002-0.007,0.006-0.014,0.008-0.019l0.55-1.12v1.263c0,1.194-0.588,3.719-1.985,4.26h4.464c-1.397-0.542-1.983-3.066-1.983-4.26
		v-1.263l0.55,1.12c0.004,0.005,0.008,0.012,0.009,0.019c0.254,0.533,0.686,0.988,1.262,1.26c1.327,0.63,2.914,0.064,3.542-1.263
		C57.465,30.547,56.899,28.961,55.571,28.332z"/>
	<path d="M35.48,50.412c-0.576-0.272-1.201-0.32-1.773-0.179h-0.002c-0.006,0.003-0.015,0.003-0.02,0.004l-1.398,0.327l0.895-1.124
		c0.004-0.006,0.008-0.011,0.012-0.016l0.002-0.001c0.372-0.459,0.597-1.043,0.597-1.679c0-1.469-1.191-2.66-2.659-2.66
		c-1.469,0-2.658,1.191-2.658,2.66c0,0.636,0.223,1.22,0.597,1.679l0.002,0.001c0.002,0.005,0.008,0.01,0.013,0.016l0.894,1.124
		l-1.398-0.327c-0.007-0.001-0.015-0.001-0.02-0.004H28.56c-0.572-0.141-1.196-0.093-1.772,0.179
		c-1.328,0.628-1.893,2.214-1.263,3.542c0.628,1.327,2.214,1.893,3.542,1.263c0.576-0.272,1.009-0.726,1.262-1.26
		c0.001-0.007,0.005-0.014,0.009-0.019l0.549-1.12v1.263c0,1.194-0.586,3.719-1.983,4.26h4.464c-1.397-0.542-1.985-3.066-1.985-4.26
		v-1.263l0.549,1.12c0.003,0.005,0.006,0.012,0.009,0.019h0.001c0.252,0.533,0.684,0.988,1.259,1.26
		c1.329,0.63,2.916,0.064,3.544-1.263C37.372,52.626,36.808,51.041,35.48,50.412z"/>
	<path d="M55.571,50.412c-0.576-0.272-1.201-0.32-1.773-0.179h-0.003c-0.005,0.003-0.012,0.003-0.019,0.004l-1.399,0.327
		l0.894-1.124c0.005-0.006,0.01-0.011,0.013-0.016l0.002-0.001c0.374-0.459,0.596-1.043,0.596-1.679c0-1.469-1.189-2.66-2.658-2.66
		c-1.469,0-2.659,1.191-2.659,2.66c0,0.636,0.225,1.22,0.597,1.679l0.002,0.001c0.004,0.005,0.008,0.01,0.012,0.016l0.895,1.124
		l-1.398-0.327c-0.006-0.001-0.014-0.001-0.021-0.004h-0.002c-0.573-0.141-1.198-0.093-1.773,0.179
		c-1.327,0.628-1.892,2.214-1.264,3.542c0.629,1.327,2.215,1.893,3.545,1.263c0.575-0.272,1.006-0.726,1.258-1.26h0.001
		c0.002-0.007,0.006-0.014,0.008-0.019l0.55-1.12v1.263c0,1.194-0.588,3.719-1.985,4.26h4.464c-1.397-0.542-1.983-3.066-1.983-4.26
		v-1.263l0.55,1.12c0.004,0.005,0.008,0.012,0.009,0.019c0.254,0.533,0.686,0.988,1.262,1.26c1.327,0.63,2.914,0.064,3.542-1.263
		C57.465,52.626,56.899,51.041,55.571,50.412z"/>
	<path d="M33.199,70.288c-0.574,0.272-1.006,0.726-1.259,1.26h-0.001c-0.002,0.007-0.006,0.014-0.009,0.019l-0.549,1.121v-1.263
		c0-1.194,0.588-3.719,1.985-4.26h-4.464c1.397,0.542,1.983,3.067,1.983,4.26v1.263l-0.549-1.121
		c-0.004-0.005-0.008-0.012-0.009-0.019c-0.254-0.533-0.686-0.988-1.262-1.26c-1.327-0.63-2.914-0.064-3.542,1.264
		c-0.63,1.327-0.065,2.913,1.263,3.542c0.576,0.272,1.201,0.32,1.772,0.179h0.003c0.005-0.002,0.013-0.002,0.02-0.004l1.398-0.327
		l-0.894,1.124c-0.005,0.005-0.011,0.01-0.013,0.016l-0.002,0.001c-0.374,0.459-0.597,1.043-0.597,1.679
		c0,1.469,1.189,2.66,2.658,2.66c1.469,0,2.659-1.191,2.659-2.66c0-0.636-0.225-1.22-0.597-1.679l-0.002-0.001
		c-0.004-0.006-0.008-0.011-0.012-0.016l-0.895-1.124l1.398,0.327c0.006,0.001,0.014,0.001,0.02,0.004h0.002
		c0.572,0.141,1.197,0.093,1.773-0.179c1.327-0.629,1.892-2.215,1.263-3.542C36.115,70.225,34.529,69.659,33.199,70.288z"/>
	<path d="M53.293,70.288c-0.576,0.272-1.008,0.726-1.262,1.26c-0.001,0.007-0.005,0.014-0.009,0.019l-0.55,1.121v-1.263
		c0-1.194,0.587-3.719,1.983-4.26h-4.464c1.397,0.542,1.985,3.067,1.985,4.26v1.263l-0.55-1.121
		c-0.003-0.005-0.006-0.012-0.008-0.019h-0.001c-0.252-0.533-0.684-0.988-1.258-1.26c-1.329-0.63-2.916-0.064-3.545,1.264
		c-0.629,1.327-0.064,2.913,1.264,3.542c0.575,0.272,1.2,0.32,1.773,0.179h0.002c0.006-0.002,0.015-0.002,0.021-0.004l1.398-0.327
		l-0.895,1.124c-0.005,0.005-0.008,0.01-0.012,0.016l-0.002,0.001c-0.372,0.459-0.597,1.043-0.597,1.679
		c0,1.469,1.19,2.66,2.659,2.66c1.469,0,2.658-1.191,2.658-2.66c0-0.636-0.223-1.22-0.596-1.679l-0.002-0.001
		c-0.002-0.006-0.008-0.011-0.013-0.016l-0.894-1.124l1.399,0.327c0.007,0.001,0.015,0.001,0.019,0.004h0.003
		c0.572,0.141,1.196,0.093,1.773-0.179c1.327-0.629,1.893-2.215,1.263-3.542C56.207,70.225,54.62,69.659,53.293,70.288z"/>
	<path class="st5" d="M21.667,23.74c-0.6,0-0.991,0.164-1.473,0.618c0-0.582,0.073-1.236,0.191-1.727
		c0.191-0.782,0.582-1.2,1.136-1.2c0.427,0,0.691,0.282,0.718,0.8c0.027,0.373,0.027,0.4,0.082,0.473
		c0.082,0.109,0.273,0.173,0.5,0.173c0.409,0,0.654-0.2,0.654-0.527c0-0.654-0.827-1.145-1.927-1.145
		c-0.809,0-1.409,0.282-1.845,0.864c-0.464,0.618-0.718,1.618-0.718,2.845c0,2.109,0.836,3.245,2.381,3.245
		c1.4,0,2.336-0.927,2.336-2.318C23.703,24.586,22.885,23.74,21.667,23.74z M21.385,27.931c-0.391,0-0.736-0.264-0.918-0.691
		c-0.191-0.445-0.291-1.036-0.291-1.654c0-0.418,0.055-0.691,0.182-0.909c0.227-0.4,0.609-0.636,1.009-0.636
		c0.7,0,1.127,0.7,1.127,1.827C22.494,27.158,22.076,27.931,21.385,27.931z"/>
	<path d="M61.976,69.52c-0.233,0.11-0.407,0.293-0.51,0.509c-0.001,0.003-0.002,0.006-0.004,0.008l-0.222,0.453v-0.51
		c0-0.482,0.237-1.501,0.801-1.72H60.24c0.564,0.219,0.802,1.239,0.802,1.72v0.51l-0.222-0.453
		c-0.001-0.002-0.002-0.005-0.003-0.008h-0.001c-0.102-0.215-0.277-0.399-0.509-0.509c-0.536-0.254-1.177-0.026-1.431,0.51
		c-0.254,0.536-0.026,1.177,0.51,1.43c0.233,0.11,0.485,0.129,0.716,0.072h0.001c0.002-0.001,0.006-0.001,0.008-0.001l0.564-0.132
		l-0.362,0.454c-0.001,0.002-0.003,0.004-0.004,0.006l-0.001,0c-0.151,0.186-0.242,0.421-0.242,0.678
		c0,0.593,0.481,1.074,1.074,1.074c0.593,0,1.073-0.481,1.073-1.074c0-0.257-0.09-0.493-0.241-0.678l-0.001,0
		c-0.001-0.002-0.003-0.004-0.006-0.006l-0.361-0.454l0.565,0.132c0.003,0,0.006,0,0.008,0.001h0.001
		c0.231,0.057,0.483,0.038,0.715-0.072c0.536-0.254,0.765-0.894,0.51-1.43C63.153,69.495,62.512,69.266,61.976,69.52z"/>
	<path class="st5" d="M60.991,75.269c-1.4,0-2.336,0.927-2.336,2.318c0,1.254,0.818,2.1,2.036,2.1c0.6,0,0.991-0.164,1.473-0.618
		c0,0.582-0.073,1.236-0.191,1.727c-0.191,0.782-0.582,1.2-1.136,1.2c-0.427,0-0.691-0.282-0.718-0.8
		c-0.027-0.373-0.027-0.4-0.082-0.473c-0.082-0.109-0.273-0.172-0.5-0.172c-0.409,0-0.654,0.2-0.654,0.527
		c0,0.654,0.827,1.145,1.927,1.145c0.809,0,1.409-0.282,1.845-0.864c0.464-0.618,0.718-1.618,0.718-2.845
		C63.372,76.405,62.536,75.269,60.991,75.269z M62,78.75c-0.227,0.4-0.609,0.636-1.009,0.636c-0.7,0-1.127-0.7-1.127-1.827
		c0-1.291,0.418-2.063,1.109-2.063c0.391,0,0.736,0.264,0.918,0.691c0.191,0.445,0.291,1.036,0.291,1.654
		C62.181,78.259,62.127,78.532,62,78.75z"/>
</g>
</svg>
