<?xml version="1.0" encoding="utf-8"?>
<!-- Generator: Adobe Illustrator 23.0.2, SVG Export Plug-In . SVG Version: 6.00 Build 0)  -->
<svg version="1.1" id="Layer_1" xmlns="http://www.w3.org/2000/svg" xmlns:xlink="http://www.w3.org/1999/xlink" x="0px" y="0px"
	 viewBox="0 0 82.452 99.776" style="enable-background:new 0 0 82.452 99.776;" xml:space="preserve">
<style type="text/css">
	.st0{fill:#FFFFFF;}
	.st1{fill:#ED1C24;}
	.st2{fill:#FFCB05;}
	.st3{fill:#21409A;}
	.st4{fill:#D4D5D6;}
	.st5{fill:#000100;}
	.st6{fill:#300505;}
	.st7{fill:#BFD730;}
	.st8{fill:#F15A22;}
</style>
<g>
	<path class="st0" d="M61.136,74.344c-0.691,0-1.109,0.773-1.109,2.063c0,1.127,0.427,1.827,1.127,1.827
		c0.4,0,0.782-0.236,1.009-0.636c0.127-0.218,0.182-0.491,0.182-0.909c0-0.618-0.1-1.209-0.291-1.654
		C61.873,74.608,61.527,74.344,61.136,74.344z"/>
	<path class="st0" d="M21.531,22.889c-0.4,0-0.782,0.236-1.009,0.636c-0.127,0.218-0.182,0.491-0.182,0.909
		c0,0.618,0.1,1.209,0.291,1.654c0.182,0.427,0.527,0.691,0.918,0.691c0.691,0,1.109-0.773,1.109-2.063
		C22.658,23.589,22.231,22.889,21.531,22.889z"/>
	<path class="st0" d="M62.963,16.315H19.723c-1.563,0-2.836,1.272-2.836,2.836v62.82c0,1.564,1.272,2.836,2.836,2.836h43.241
		c1.564,0,2.836-1.272,2.836-2.836v-62.82C65.8,17.588,64.527,16.315,62.963,16.315z M61.304,67.088
		c0.249,0.867,1.252,2.228,2.067,2.693c-0.815,0.465-1.818,1.825-2.067,2.693c-0.249-0.868-1.253-2.228-2.067-2.693
		C60.051,69.316,61.055,67.956,61.304,67.088z M21.382,34.035c-0.249-0.868-1.252-2.227-2.067-2.693
		c0.814-0.465,1.818-1.825,2.067-2.693c0.249,0.868,1.254,2.228,2.068,2.693C22.635,31.807,21.63,33.167,21.382,34.035z
		 M21.531,27.006c-1.545,0-2.381-1.136-2.381-3.245c0-1.227,0.254-2.227,0.718-2.845c0.436-0.582,1.036-0.864,1.845-0.864
		c1.1,0,1.927,0.491,1.927,1.145c0,0.327-0.246,0.527-0.654,0.527c-0.227,0-0.418-0.064-0.5-0.172
		c-0.054-0.073-0.054-0.1-0.082-0.473c-0.027-0.518-0.291-0.8-0.718-0.8c-0.555,0-0.945,0.418-1.136,1.2
		c-0.118,0.491-0.191,1.146-0.191,1.727c0.482-0.455,0.873-0.618,1.473-0.618c1.218,0,2.036,0.846,2.036,2.1
		C23.867,26.079,22.931,27.006,21.531,27.006z M31.296,79.32c-0.617-2.151-3.104-5.523-5.124-6.674
		c2.02-1.152,4.507-4.523,5.124-6.674c0.617,2.15,3.106,5.522,5.124,6.674C34.402,73.798,31.913,77.17,31.296,79.32z M26.171,50.556
		c2.02-1.151,4.507-4.524,5.124-6.674c0.617,2.15,3.105,5.523,5.124,6.674c-2.019,1.152-4.508,4.523-5.124,6.674
		C30.679,55.079,28.191,51.708,26.171,50.556z M31.296,35.151c-0.617-2.151-3.104-5.522-5.124-6.674
		c2.02-1.152,4.507-4.524,5.124-6.675c0.617,2.151,3.106,5.523,5.124,6.675C34.402,29.629,31.913,33,31.296,35.151z M51.384,79.32
		c-0.616-2.151-3.104-5.523-5.124-6.674c2.02-1.152,4.507-4.523,5.124-6.674c0.617,2.15,3.106,5.522,5.125,6.674
		C54.49,73.798,52,77.17,51.384,79.32z M51.384,57.23c-0.616-2.151-3.104-5.522-5.124-6.674c2.02-1.151,4.507-4.524,5.124-6.674
		c0.617,2.15,3.106,5.523,5.125,6.674C54.49,51.708,52,55.079,51.384,57.23z M51.384,35.151C50.767,33,48.28,29.629,46.26,28.477
		c2.02-1.152,4.507-4.524,5.124-6.675c0.617,2.151,3.106,5.523,5.125,6.675C54.49,29.629,52,33,51.384,35.151z M62.818,80.207
		c-0.436,0.582-1.036,0.864-1.845,0.864c-1.1,0-1.927-0.491-1.927-1.145c0-0.327,0.245-0.527,0.654-0.527
		c0.227,0,0.418,0.064,0.5,0.173c0.055,0.073,0.055,0.1,0.082,0.473c0.027,0.518,0.291,0.8,0.718,0.8c0.555,0,0.945-0.418,1.136-1.2
		c0.118-0.491,0.191-1.146,0.191-1.727c-0.482,0.455-0.873,0.618-1.473,0.618c-1.218,0-2.036-0.846-2.036-2.1
		c0-1.391,0.936-2.318,2.336-2.318c1.545,0,2.381,1.136,2.381,3.245C63.536,78.589,63.282,79.589,62.818,80.207z"/>
	<path d="M62.963,15.885H19.723c-1.801,0-3.266,1.465-3.266,3.266v62.82c0,1.801,1.465,3.266,3.266,3.266h43.241
		c1.801,0,3.266-1.465,3.266-3.266v-62.82C66.229,17.35,64.765,15.885,62.963,15.885z M65.8,81.971c0,1.564-1.272,2.836-2.836,2.836
		H19.723c-1.563,0-2.836-1.272-2.836-2.836v-62.82c0-1.564,1.272-2.836,2.836-2.836h43.241c1.564,0,2.836,1.272,2.836,2.836V81.971z
		"/>
	<path class="st1" d="M21.831,22.589c-0.6,0-0.991,0.164-1.473,0.618c0-0.582,0.073-1.236,0.191-1.727
		c0.191-0.782,0.582-1.2,1.136-1.2c0.427,0,0.691,0.282,0.718,0.8c0.027,0.373,0.027,0.4,0.082,0.473
		c0.082,0.109,0.273,0.172,0.5,0.172c0.409,0,0.654-0.2,0.654-0.527c0-0.654-0.827-1.145-1.927-1.145
		c-0.809,0-1.409,0.282-1.845,0.864c-0.464,0.618-0.718,1.618-0.718,2.845c0,2.109,0.836,3.245,2.381,3.245
		c1.4,0,2.336-0.927,2.336-2.318C23.867,23.434,23.049,22.589,21.831,22.589z M21.549,26.779c-0.391,0-0.736-0.264-0.918-0.691
		c-0.191-0.445-0.291-1.036-0.291-1.654c0-0.418,0.055-0.691,0.182-0.909c0.227-0.4,0.609-0.636,1.009-0.636
		c0.7,0,1.127,0.7,1.127,1.827C22.658,26.007,22.24,26.779,21.549,26.779z"/>
	<path class="st1" d="M61.155,74.117c-1.4,0-2.336,0.927-2.336,2.318c0,1.254,0.818,2.1,2.036,2.1c0.6,0,0.991-0.164,1.473-0.618
		c0,0.582-0.073,1.236-0.191,1.727c-0.191,0.782-0.582,1.2-1.136,1.2c-0.427,0-0.691-0.282-0.718-0.8
		c-0.027-0.373-0.027-0.4-0.082-0.473c-0.082-0.109-0.273-0.173-0.5-0.173c-0.409,0-0.654,0.2-0.654,0.527
		c0,0.654,0.827,1.145,1.927,1.145c0.809,0,1.409-0.282,1.845-0.864c0.464-0.618,0.718-1.618,0.718-2.845
		C63.536,75.253,62.7,74.117,61.155,74.117z M62.164,77.598c-0.227,0.4-0.609,0.636-1.009,0.636c-0.7,0-1.127-0.7-1.127-1.827
		c0-1.291,0.418-2.063,1.109-2.063c0.391,0,0.736,0.264,0.918,0.691c0.191,0.445,0.291,1.036,0.291,1.654
		C62.345,77.107,62.291,77.38,62.164,77.598z"/>
	<path class="st1" d="M31.296,21.802c-0.617,2.151-3.104,5.523-5.124,6.675c2.02,1.152,4.507,4.523,5.124,6.674
		c0.617-2.151,3.106-5.522,5.124-6.674C34.402,27.325,31.913,23.953,31.296,21.802z"/>
	<path class="st1" d="M51.384,21.802c-0.616,2.151-3.104,5.523-5.124,6.675c2.02,1.152,4.507,4.523,5.124,6.674
		C52,33,54.49,29.629,56.509,28.477C54.49,27.325,52,23.953,51.384,21.802z"/>
	<path class="st1" d="M31.296,65.972c-0.617,2.15-3.104,5.522-5.124,6.674c2.02,1.151,4.507,4.524,5.124,6.674
		c0.617-2.151,3.106-5.523,5.124-6.674C34.402,71.494,31.913,68.123,31.296,65.972z"/>
	<path class="st1" d="M51.384,65.972c-0.616,2.15-3.104,5.522-5.124,6.674c2.02,1.151,4.507,4.524,5.124,6.674
		c0.617-2.151,3.106-5.523,5.125-6.674C54.49,71.494,52,68.123,51.384,65.972z"/>
	<path class="st1" d="M31.295,57.23c0.617-2.151,3.105-5.522,5.124-6.674c-2.019-1.151-4.508-4.524-5.124-6.674
		c-0.617,2.15-3.104,5.523-5.124,6.674C28.191,51.708,30.679,55.079,31.295,57.23z"/>
	<path class="st1" d="M51.384,43.882c-0.616,2.15-3.104,5.523-5.124,6.674c2.02,1.152,4.507,4.523,5.124,6.674
		c0.617-2.151,3.106-5.522,5.125-6.674C54.49,49.405,52,46.033,51.384,43.882z"/>
	<path class="st1" d="M21.382,28.649c-0.249,0.868-1.252,2.228-2.067,2.693c0.814,0.465,1.818,1.825,2.067,2.693
		c0.249-0.868,1.254-2.227,2.068-2.693C22.635,30.877,21.63,29.517,21.382,28.649z"/>
	<path class="st1" d="M61.304,72.474c0.249-0.868,1.252-2.228,2.067-2.693c-0.815-0.465-1.818-1.825-2.067-2.693
		c-0.249,0.867-1.253,2.228-2.067,2.693C60.051,70.246,61.055,71.606,61.304,72.474z"/>
</g>
</svg>
