<?xml version="1.0" encoding="utf-8"?>
<!-- Generator: Adobe Illustrator 23.0.2, SVG Export Plug-In . SVG Version: 6.00 Build 0)  -->
<svg version="1.1" id="Layer_1" xmlns="http://www.w3.org/2000/svg" xmlns:xlink="http://www.w3.org/1999/xlink" x="0px" y="0px"
	 viewBox="0 0 82.452 99.776" style="enable-background:new 0 0 82.452 99.776;" xml:space="preserve">
<style type="text/css">
	.st0{fill:#FFFFFF;}
	.st1{fill:#ED1C24;}
	.st2{fill:#FFCB05;}
	.st3{fill:#21409A;}
	.st4{fill:#D4D5D6;}
	.st5{fill:#000100;}
	.st6{fill:#300505;}
	.st7{fill:#BFD730;}
	.st8{fill:#F15A22;}
</style>
<g>
	<path class="st0" d="M61.558,80.227c-0.691,0-1.109,0.773-1.109,2.063c0,1.127,0.427,1.827,1.127,1.827
		c0.4,0,0.782-0.237,1.009-0.636c0.127-0.218,0.182-0.491,0.182-0.909c0-0.618-0.1-1.209-0.291-1.654
		C62.295,80.49,61.949,80.227,61.558,80.227z"/>
	<path class="st0" d="M63.385,22.198H20.145c-1.563,0-2.836,1.272-2.836,2.836v62.82c0,1.564,1.272,2.836,2.836,2.836h43.241
		c1.564,0,2.836-1.272,2.836-2.836v-62.82C66.222,23.47,64.949,22.198,63.385,22.198z M22.851,38.657
		c-0.329,0.362-0.767,0.846-1.046,1.354c-0.281-0.507-0.717-0.992-1.047-1.354c-0.658-0.724-1.283-1.488-1.283-2.641
		c0-1.763,1.856-2.261,2.33-0.392c0.473-1.869,2.33-1.371,2.33,0.392C24.135,37.169,23.509,37.933,22.851,38.657z M21.953,32.889
		c-1.545,0-2.381-1.136-2.381-3.245c0-1.227,0.254-2.227,0.718-2.845c0.436-0.582,1.036-0.863,1.845-0.863
		c1.1,0,1.927,0.491,1.927,1.145c0,0.327-0.246,0.527-0.654,0.527c-0.227,0-0.418-0.064-0.5-0.172
		c-0.054-0.073-0.054-0.1-0.082-0.473c-0.027-0.518-0.291-0.8-0.718-0.8c-0.555,0-0.945,0.418-1.136,1.2
		c-0.118,0.491-0.191,1.146-0.191,1.727c0.482-0.455,0.873-0.618,1.473-0.618c1.218,0,2.036,0.846,2.036,2.1
		C24.289,31.962,23.353,32.889,21.953,32.889z M31.719,82.497c-1.174,4.633-5.777,3.399-5.777-0.971
		c0-2.858,1.552-4.754,3.182-6.548c0.816-0.898,1.9-2.099,2.595-3.356c0.695,1.258,1.778,2.458,2.594,3.356
		c1.631,1.794,3.181,3.69,3.181,6.548C37.495,85.896,32.892,87.13,31.719,82.497z M25.942,53.442c0-4.37,4.603-5.604,5.777-0.971
		c1.173-4.633,5.776-3.4,5.776,0.971c0,2.858-1.551,4.754-3.181,6.548c-0.816,0.899-1.9,2.099-2.594,3.357
		c-0.695-1.258-1.779-2.458-2.595-3.357C27.493,58.196,25.942,56.3,25.942,53.442z M34.314,37.911
		c-0.816,0.898-1.9,2.099-2.594,3.357c-0.695-1.258-1.779-2.458-2.595-3.357c-1.631-1.794-3.182-3.69-3.182-6.548
		c0-4.37,4.603-5.604,5.777-0.971c1.173-4.633,5.775-3.4,5.775,0.971C37.495,34.221,35.944,36.117,34.314,37.911z M51.808,82.497
		c-1.174,4.633-5.777,3.399-5.777-0.971c0-2.858,1.551-4.754,3.182-6.548c0.817-0.898,1.9-2.099,2.595-3.356
		c0.695,1.258,1.779,2.458,2.594,3.356c1.631,1.794,3.182,3.69,3.182,6.548C57.584,85.896,52.981,87.13,51.808,82.497z
		 M46.03,53.442c0-4.37,4.603-5.604,5.777-0.971c1.173-4.633,5.776-3.4,5.776,0.971c0,2.858-1.551,4.754-3.181,6.548
		c-0.816,0.899-1.9,2.099-2.594,3.357c-0.695-1.258-1.779-2.458-2.595-3.357C47.582,58.196,46.03,56.3,46.03,53.442z M54.402,37.911
		c-0.816,0.898-1.9,2.099-2.594,3.357c-0.695-1.258-1.778-2.458-2.595-3.357c-1.631-1.794-3.182-3.69-3.182-6.548
		c0-4.37,4.603-5.604,5.777-0.971c1.173-4.633,5.776-3.4,5.776,0.971C57.584,34.221,56.033,36.117,54.402,37.911z M63.24,86.09
		c-0.436,0.582-1.036,0.863-1.845,0.863c-1.1,0-1.927-0.491-1.927-1.145c0-0.327,0.245-0.527,0.654-0.527
		c0.227,0,0.418,0.063,0.5,0.172c0.055,0.073,0.055,0.1,0.082,0.473c0.027,0.518,0.291,0.8,0.718,0.8c0.555,0,0.945-0.419,1.136-1.2
		c0.118-0.491,0.191-1.145,0.191-1.727c-0.482,0.454-0.873,0.618-1.473,0.618c-1.218,0-2.036-0.846-2.036-2.1
		c0-1.391,0.936-2.318,2.336-2.318c1.545,0,2.381,1.136,2.381,3.245C63.958,84.472,63.704,85.471,63.24,86.09z M61.725,77.264
		c-0.473,1.869-2.33,1.372-2.33-0.392c0-1.153,0.625-1.917,1.283-2.641c0.328-0.362,0.766-0.846,1.046-1.353
		c0.28,0.508,0.717,0.992,1.046,1.353c0.658,0.724,1.284,1.489,1.284,2.641C64.055,78.635,62.198,79.133,61.725,77.264z"/>
	<path class="st0" d="M21.953,28.772c-0.4,0-0.782,0.236-1.009,0.636c-0.127,0.218-0.182,0.491-0.182,0.909
		c0,0.618,0.1,1.209,0.291,1.654c0.182,0.427,0.527,0.691,0.918,0.691c0.691,0,1.109-0.773,1.109-2.063
		C23.08,29.472,22.653,28.772,21.953,28.772z"/>
	<path d="M63.385,21.768H20.145c-1.801,0-3.266,1.465-3.266,3.266v62.82c0,1.801,1.465,3.266,3.266,3.266h43.241
		c1.801,0,3.266-1.465,3.266-3.266v-62.82C66.651,23.233,65.187,21.768,63.385,21.768z M66.222,87.854
		c0,1.564-1.272,2.836-2.836,2.836H20.145c-1.563,0-2.836-1.272-2.836-2.836v-62.82c0-1.564,1.272-2.836,2.836-2.836h43.241
		c1.564,0,2.836,1.272,2.836,2.836V87.854z"/>
	<path class="st1" d="M22.253,28.472c-0.6,0-0.991,0.164-1.473,0.618c0-0.582,0.073-1.236,0.191-1.727
		c0.191-0.782,0.582-1.2,1.136-1.2c0.427,0,0.691,0.282,0.718,0.8c0.027,0.373,0.027,0.4,0.082,0.473
		c0.082,0.109,0.273,0.172,0.5,0.172c0.409,0,0.654-0.2,0.654-0.527c0-0.654-0.827-1.145-1.927-1.145
		c-0.809,0-1.409,0.282-1.845,0.863c-0.464,0.618-0.718,1.618-0.718,2.845c0,2.109,0.836,3.245,2.381,3.245
		c1.4,0,2.336-0.927,2.336-2.318C24.289,29.317,23.471,28.472,22.253,28.472z M21.971,32.662c-0.391,0-0.736-0.264-0.918-0.691
		c-0.191-0.445-0.291-1.036-0.291-1.654c0-0.418,0.055-0.691,0.182-0.909c0.227-0.4,0.609-0.636,1.009-0.636
		c0.7,0,1.127,0.7,1.127,1.827C23.08,31.889,22.662,32.662,21.971,32.662z"/>
	<path class="st1" d="M61.577,80c-1.4,0-2.336,0.927-2.336,2.318c0,1.254,0.818,2.1,2.036,2.1c0.6,0,0.991-0.164,1.473-0.618
		c0,0.582-0.073,1.236-0.191,1.727c-0.191,0.781-0.582,1.2-1.136,1.2c-0.427,0-0.691-0.282-0.718-0.8
		c-0.027-0.372-0.027-0.4-0.082-0.473c-0.082-0.109-0.273-0.172-0.5-0.172c-0.409,0-0.654,0.2-0.654,0.527
		c0,0.655,0.827,1.145,1.927,1.145c0.809,0,1.409-0.282,1.845-0.863c0.464-0.618,0.718-1.618,0.718-2.845
		C63.958,81.136,63.122,80,61.577,80z M62.586,83.481c-0.227,0.4-0.609,0.636-1.009,0.636c-0.7,0-1.127-0.7-1.127-1.827
		c0-1.291,0.418-2.063,1.109-2.063c0.391,0,0.736,0.263,0.918,0.691c0.191,0.445,0.291,1.036,0.291,1.654
		C62.767,82.99,62.713,83.263,62.586,83.481z"/>
	<path class="st1" d="M31.718,63.347c0.695-1.258,1.779-2.458,2.594-3.357c1.631-1.794,3.181-3.69,3.181-6.548
		c0-4.37-4.603-5.604-5.776-0.971c-1.174-4.633-5.777-3.4-5.777,0.971c0,2.858,1.552,4.754,3.182,6.548
		C29.94,60.889,31.023,62.089,31.718,63.347z"/>
	<path class="st1" d="M51.807,63.347c0.694-1.258,1.779-2.458,2.594-3.357c1.631-1.794,3.181-3.69,3.181-6.548
		c0-4.37-4.603-5.604-5.776-0.971c-1.174-4.633-5.777-3.4-5.777,0.971c0,2.858,1.552,4.754,3.182,6.548
		C50.029,60.889,51.112,62.089,51.807,63.347z"/>
	<path class="st1" d="M31.719,30.392c-1.174-4.633-5.777-3.4-5.777,0.971c0,2.858,1.552,4.754,3.182,6.548
		c0.816,0.898,1.9,2.099,2.595,3.357c0.695-1.258,1.778-2.458,2.594-3.357c1.631-1.794,3.181-3.69,3.181-6.548
		C37.495,26.992,32.892,25.758,31.719,30.392z"/>
	<path class="st1" d="M51.808,30.392c-1.174-4.633-5.777-3.4-5.777,0.971c0,2.858,1.551,4.754,3.182,6.548
		c0.817,0.898,1.9,2.099,2.595,3.357c0.695-1.258,1.779-2.458,2.594-3.357c1.631-1.794,3.182-3.69,3.182-6.548
		C57.584,26.992,52.981,25.758,51.808,30.392z"/>
	<path class="st1" d="M31.719,71.622c-0.695,1.258-1.779,2.458-2.595,3.356c-1.631,1.794-3.182,3.69-3.182,6.548
		c0,4.37,4.603,5.604,5.777,0.971c1.173,4.633,5.775,3.399,5.775-0.971c0-2.858-1.551-4.754-3.181-6.548
		C33.498,74.08,32.414,72.879,31.719,71.622z"/>
	<path class="st1" d="M51.808,71.622c-0.695,1.258-1.778,2.458-2.595,3.356c-1.631,1.794-3.182,3.69-3.182,6.548
		c0,4.37,4.603,5.604,5.777,0.971c1.173,4.633,5.776,3.399,5.776-0.971c0-2.858-1.551-4.754-3.182-6.548
		C53.587,74.08,52.503,72.879,51.808,71.622z"/>
	<path class="st1" d="M21.805,35.624c-0.474-1.869-2.33-1.371-2.33,0.392c0,1.153,0.626,1.917,1.283,2.641
		c0.329,0.362,0.766,0.846,1.047,1.354c0.279-0.507,0.717-0.992,1.046-1.354c0.658-0.724,1.283-1.488,1.283-2.641
		C24.135,34.252,22.278,33.755,21.805,35.624z"/>
	<path class="st1" d="M61.725,72.877c-0.281,0.508-0.718,0.992-1.046,1.353c-0.658,0.724-1.283,1.489-1.283,2.641
		c0,1.763,1.856,2.261,2.33,0.392c0.473,1.869,2.33,1.372,2.33-0.392c0-1.153-0.626-1.917-1.284-2.641
		C62.443,73.869,62.005,73.385,61.725,72.877z"/>
</g>
</svg>
