<?xml version="1.0" encoding="utf-8"?>
<!-- Generator: Adobe Illustrator 23.0.2, SVG Export Plug-In . SVG Version: 6.00 Build 0)  -->
<svg version="1.1" id="Layer_1" xmlns="http://www.w3.org/2000/svg" xmlns:xlink="http://www.w3.org/1999/xlink" x="0px" y="0px"
	 viewBox="0 0 82.452 99.776" style="enable-background:new 0 0 82.452 99.776;" xml:space="preserve">
<style type="text/css">
	.st0{fill:#FFFFFF;}
	.st1{fill:#ED1C24;}
	.st2{fill:#FFCB05;}
	.st3{fill:#21409A;}
	.st4{fill:#D4D5D6;}
	.st5{fill:#000100;}
	.st6{fill:#300505;}
	.st7{fill:#BFD730;}
	.st8{fill:#F15A22;}
</style>
<g>
	<path class="st0" d="M60.15,75.864c-0.691,0-1.109,0.773-1.109,2.063c0,1.127,0.427,1.827,1.127,1.827
		c0.4,0,0.782-0.236,1.009-0.636c0.127-0.219,0.182-0.491,0.182-0.909c0-0.618-0.1-1.209-0.291-1.655
		C60.886,76.128,60.541,75.864,60.15,75.864z"/>
	<path class="st0" d="M20.544,24.409c-0.4,0-0.782,0.236-1.009,0.636c-0.127,0.218-0.182,0.491-0.182,0.909
		c0,0.618,0.1,1.209,0.291,1.655c0.182,0.427,0.527,0.691,0.918,0.691c0.691,0,1.109-0.773,1.109-2.063
		C21.672,25.108,21.244,24.409,20.544,24.409z"/>
	<path class="st0" d="M61.977,17.835H18.736c-1.563,0-2.836,1.272-2.836,2.836v62.82c0,1.563,1.272,2.836,2.836,2.836h43.241
		c1.564,0,2.836-1.272,2.836-2.836v-62.82C64.813,19.108,63.541,17.835,61.977,17.835z M20.508,34.03
		c0.056,0.521,0.298,1.316,0.788,1.505h-1.802c0.49-0.189,0.733-0.984,0.788-1.505c-0.6,1.182-2.216,0.742-2.216-0.596
		c0-0.937,0.626-1.559,1.282-2.147c0.329-0.294,0.767-0.688,1.047-1.101c0.28,0.413,0.717,0.807,1.046,1.101
		c0.658,0.589,1.282,1.211,1.282,2.147C22.724,34.772,21.109,35.212,20.508,34.03z M20.544,28.526c-1.545,0-2.381-1.136-2.381-3.245
		c0-1.227,0.254-2.227,0.718-2.845c0.436-0.582,1.036-0.863,1.845-0.863c1.1,0,1.927,0.491,1.927,1.145
		c0,0.327-0.246,0.528-0.654,0.528c-0.227,0-0.418-0.064-0.5-0.173c-0.054-0.073-0.054-0.1-0.082-0.473
		c-0.027-0.518-0.291-0.8-0.718-0.8c-0.555,0-0.945,0.418-1.136,1.199c-0.118,0.491-0.191,1.145-0.191,1.727
		c0.482-0.455,0.873-0.618,1.473-0.618c1.218,0,2.036,0.845,2.036,2.099C22.88,27.599,21.944,28.526,20.544,28.526z M32.905,78.07
		c-0.817,0.731-1.9,1.706-2.596,2.73c-0.695-1.023-1.778-1.998-2.594-2.73c-1.63-1.459-3.182-3.001-3.182-5.326
		c0-3.318,4.008-4.411,5.497-1.479c-0.137-1.293-0.739-3.262-1.955-3.732h4.468c-1.216,0.47-1.817,2.439-1.954,3.732
		c1.488-2.931,5.497-1.839,5.497,1.479C36.086,75.069,34.535,76.611,32.905,78.07z M30.59,54.978
		c0.138,1.292,0.739,3.262,1.954,3.732h-4.468c1.216-0.47,1.817-2.439,1.955-3.732c-1.49,2.932-5.497,1.838-5.497-1.48
		c0-2.325,1.552-3.866,3.182-5.326c0.816-0.73,1.9-1.706,2.594-2.73c0.696,1.023,1.778,2,2.596,2.73
		c1.63,1.46,3.181,3.001,3.181,5.326C36.086,56.816,32.078,57.909,30.59,54.978z M30.59,32.899c0.138,1.292,0.739,3.262,1.954,3.731
		h-4.468c1.216-0.469,1.817-2.439,1.955-3.731c-1.49,2.931-5.497,1.838-5.497-1.48c0-2.325,1.552-3.866,3.182-5.326
		c0.816-0.731,1.9-1.706,2.594-2.729c0.696,1.023,1.778,1.998,2.596,2.729c1.63,1.46,3.181,3.002,3.181,5.326
		C36.086,34.736,32.078,35.829,30.59,32.899z M52.994,78.07c-0.817,0.731-1.9,1.706-2.596,2.73c-0.694-1.023-1.778-1.998-2.594-2.73
		c-1.63-1.459-3.182-3.001-3.182-5.326c0-3.318,4.008-4.411,5.498-1.479c-0.138-1.293-0.739-3.262-1.955-3.732h4.468
		c-1.216,0.47-1.817,2.439-1.955,3.732c1.489-2.931,5.497-1.839,5.497,1.479C56.176,75.069,54.624,76.611,52.994,78.07z
		 M50.678,54.978c0.137,1.292,0.739,3.262,1.955,3.732h-4.468c1.216-0.47,1.817-2.439,1.955-3.732
		c-1.49,2.932-5.498,1.838-5.498-1.48c0-2.325,1.552-3.866,3.182-5.326c0.816-0.73,1.9-1.706,2.594-2.73
		c0.696,1.023,1.779,2,2.596,2.73c1.63,1.46,3.182,3.001,3.182,5.326C56.176,56.816,52.167,57.909,50.678,54.978z M50.678,32.899
		c0.137,1.292,0.739,3.262,1.955,3.731h-4.468c1.216-0.469,1.817-2.439,1.955-3.731c-1.49,2.931-5.498,1.838-5.498-1.48
		c0-2.325,1.552-3.866,3.182-5.326c0.816-0.731,1.9-1.706,2.594-2.729c0.696,1.023,1.779,1.998,2.596,2.729
		c1.63,1.46,3.182,3.002,3.182,5.326C56.176,34.736,52.167,35.829,50.678,32.899z M61.832,81.727
		c-0.436,0.582-1.036,0.863-1.845,0.863c-1.1,0-1.927-0.491-1.927-1.145c0-0.327,0.245-0.528,0.654-0.528
		c0.227,0,0.418,0.064,0.5,0.173c0.055,0.073,0.055,0.1,0.082,0.473c0.027,0.518,0.291,0.8,0.718,0.8c0.555,0,0.945-0.419,1.136-1.2
		c0.118-0.491,0.191-1.145,0.191-1.727c-0.482,0.454-0.873,0.618-1.473,0.618c-1.218,0-2.036-0.845-2.036-2.099
		c0-1.391,0.936-2.318,2.336-2.318c1.545,0,2.381,1.136,2.381,3.245C62.55,80.109,62.295,81.109,61.832,81.727z M61.364,72.877
		c-0.329,0.295-0.766,0.688-1.046,1.101c-0.281-0.413-0.718-0.806-1.047-1.101c-0.657-0.588-1.282-1.211-1.282-2.148
		c0-1.337,1.616-1.778,2.216-0.596c-0.054-0.521-0.297-1.315-0.788-1.505h1.802c-0.49,0.19-0.733,0.984-0.789,1.505
		c0.601-1.182,2.217-0.741,2.217,0.596C62.647,71.666,62.022,72.289,61.364,72.877z"/>
	<path d="M61.977,17.406H18.736c-1.801,0-3.266,1.465-3.266,3.266v62.82c0,1.801,1.465,3.266,3.266,3.266h43.241
		c1.801,0,3.266-1.465,3.266-3.266v-62.82C65.243,18.87,63.778,17.406,61.977,17.406z M64.813,83.491
		c0,1.563-1.272,2.836-2.836,2.836H18.736c-1.563,0-2.836-1.272-2.836-2.836v-62.82c0-1.563,1.272-2.836,2.836-2.836h43.241
		c1.564,0,2.836,1.272,2.836,2.836V83.491z"/>
	<path class="st5" d="M20.844,24.109c-0.6,0-0.991,0.163-1.473,0.618c0-0.582,0.073-1.236,0.191-1.727
		c0.191-0.781,0.582-1.199,1.136-1.199c0.427,0,0.691,0.282,0.718,0.8c0.027,0.372,0.027,0.4,0.082,0.473
		c0.082,0.109,0.273,0.173,0.5,0.173c0.409,0,0.654-0.2,0.654-0.528c0-0.654-0.827-1.145-1.927-1.145
		c-0.809,0-1.409,0.282-1.845,0.863c-0.464,0.618-0.718,1.618-0.718,2.845c0,2.109,0.836,3.245,2.381,3.245
		c1.4,0,2.336-0.927,2.336-2.318C22.88,24.954,22.062,24.109,20.844,24.109z M20.563,28.299c-0.391,0-0.736-0.263-0.918-0.691
		c-0.191-0.445-0.291-1.036-0.291-1.655c0-0.418,0.055-0.691,0.182-0.909c0.227-0.4,0.609-0.636,1.009-0.636
		c0.7,0,1.127,0.7,1.127,1.827C21.672,27.526,21.253,28.299,20.563,28.299z"/>
	<path class="st5" d="M60.168,75.637c-1.4,0-2.336,0.927-2.336,2.318c0,1.254,0.818,2.099,2.036,2.099
		c0.6,0,0.991-0.164,1.473-0.618c0,0.582-0.073,1.236-0.191,1.727c-0.191,0.781-0.582,1.2-1.136,1.2c-0.427,0-0.691-0.282-0.718-0.8
		c-0.027-0.372-0.027-0.4-0.082-0.473c-0.082-0.109-0.273-0.173-0.5-0.173c-0.409,0-0.654,0.2-0.654,0.528
		c0,0.654,0.827,1.145,1.927,1.145c0.809,0,1.409-0.282,1.845-0.863c0.464-0.618,0.718-1.618,0.718-2.845
		C62.55,76.773,61.713,75.637,60.168,75.637z M61.177,79.118c-0.227,0.4-0.609,0.636-1.009,0.636c-0.7,0-1.127-0.7-1.127-1.827
		c0-1.291,0.418-2.063,1.109-2.063c0.391,0,0.736,0.263,0.918,0.691c0.191,0.445,0.291,1.036,0.291,1.655
		C61.359,78.627,61.304,78.9,61.177,79.118z"/>
	<path d="M32.905,48.172c-0.817-0.73-1.9-1.706-2.596-2.73c-0.695,1.023-1.778,2-2.594,2.73c-1.63,1.46-3.182,3.001-3.182,5.326
		c0,3.318,4.008,4.412,5.497,1.48c-0.137,1.292-0.739,3.262-1.955,3.732h4.468c-1.216-0.47-1.817-2.439-1.954-3.732
		c1.488,2.932,5.497,1.838,5.497-1.48C36.086,51.173,34.535,49.632,32.905,48.172z"/>
	<path d="M52.994,48.172c-0.817-0.73-1.9-1.706-2.596-2.73c-0.694,1.023-1.778,2-2.594,2.73c-1.63,1.46-3.182,3.001-3.182,5.326
		c0,3.318,4.008,4.412,5.498,1.48c-0.138,1.292-0.739,3.262-1.955,3.732h4.468c-1.216-0.47-1.817-2.439-1.955-3.732
		c1.489,2.932,5.497,1.838,5.497-1.48C56.176,51.173,54.624,49.632,52.994,48.172z"/>
	<path d="M32.905,26.092c-0.817-0.731-1.9-1.706-2.596-2.729c-0.695,1.023-1.778,1.998-2.594,2.729
		c-1.63,1.46-3.182,3.002-3.182,5.326c0,3.318,4.008,4.411,5.497,1.48c-0.137,1.292-0.739,3.262-1.955,3.731h4.468
		c-1.216-0.469-1.817-2.439-1.954-3.731c1.488,2.931,5.497,1.838,5.497-1.48C36.086,29.094,34.535,27.552,32.905,26.092z"/>
	<path d="M52.994,26.092c-0.817-0.731-1.9-1.706-2.596-2.729c-0.694,1.023-1.778,1.998-2.594,2.729
		c-1.63,1.46-3.182,3.002-3.182,5.326c0,3.318,4.008,4.411,5.498,1.48c-0.138,1.292-0.739,3.262-1.955,3.731h4.468
		c-1.216-0.469-1.817-2.439-1.955-3.731c1.489,2.931,5.497,1.838,5.497-1.48C56.176,29.094,54.624,27.552,52.994,26.092z"/>
	<path d="M30.59,71.265c0.138-1.293,0.739-3.262,1.954-3.732h-4.468c1.216,0.47,1.817,2.439,1.955,3.732
		c-1.49-2.931-5.497-1.839-5.497,1.479c0,2.325,1.552,3.867,3.182,5.326c0.816,0.731,1.9,1.706,2.594,2.73
		c0.696-1.023,1.778-1.998,2.596-2.73c1.63-1.459,3.181-3.001,3.181-5.326C36.086,69.426,32.078,68.333,30.59,71.265z"/>
	<path d="M50.678,71.265c0.137-1.293,0.739-3.262,1.955-3.732h-4.468c1.216,0.47,1.817,2.439,1.955,3.732
		c-1.49-2.931-5.498-1.839-5.498,1.479c0,2.325,1.552,3.867,3.182,5.326c0.816,0.731,1.9,1.706,2.594,2.73
		c0.696-1.023,1.779-1.998,2.596-2.73c1.63-1.459,3.182-3.001,3.182-5.326C56.176,69.426,52.167,68.333,50.678,71.265z"/>
	<path d="M21.442,31.286c-0.329-0.294-0.766-0.688-1.046-1.101c-0.281,0.413-0.718,0.807-1.047,1.101
		c-0.657,0.589-1.282,1.211-1.282,2.147c0,1.338,1.616,1.779,2.216,0.596c-0.055,0.521-0.297,1.316-0.788,1.505h1.802
		c-0.49-0.189-0.733-0.984-0.788-1.505c0.601,1.182,2.217,0.742,2.217-0.596C22.724,32.497,22.1,31.875,21.442,31.286z"/>
	<path d="M60.43,70.133c0.056-0.521,0.298-1.315,0.789-1.505h-1.802c0.49,0.19,0.733,0.984,0.788,1.505
		c-0.6-1.182-2.216-0.741-2.216,0.596c0,0.937,0.626,1.56,1.282,2.148c0.329,0.295,0.767,0.688,1.047,1.101
		c0.28-0.413,0.717-0.806,1.046-1.101c0.657-0.588,1.282-1.211,1.282-2.148C62.647,69.391,61.031,68.951,60.43,70.133z"/>
</g>
</svg>
