<?xml version="1.0" encoding="utf-8"?>
<!-- Generator: Adobe Illustrator 23.0.2, SVG Export Plug-In . SVG Version: 6.00 Build 0)  -->
<svg version="1.1" id="Layer_1" xmlns="http://www.w3.org/2000/svg" xmlns:xlink="http://www.w3.org/1999/xlink" x="0px" y="0px"
	 viewBox="0 0 82.452 99.776" style="enable-background:new 0 0 82.452 99.776;" xml:space="preserve">
<style type="text/css">
	.st0{fill:#FFFFFF;}
	.st1{fill:#ED1C24;}
	.st2{fill:#FFCB05;}
	.st3{fill:#21409A;}
	.st4{fill:#D4D5D6;}
	.st5{fill:#000100;}
	.st6{fill:#300505;}
	.st7{fill:#BFD730;}
	.st8{fill:#F15A22;}
</style>
<g>
	<path class="st0" d="M62.753,18.855H19.512c-1.563,0-2.836,1.272-2.836,2.836v62.82c0,1.564,1.272,2.836,2.836,2.836h43.241
		c1.563,0,2.835-1.272,2.835-2.836v-62.82C65.588,20.128,64.317,18.855,62.753,18.855z M26.74,29.721
		c0.576-0.272,1.201-0.32,1.773-0.179h0.003c0.005,0.003,0.013,0.003,0.019,0.004l1.399,0.327l-0.894-1.124
		c-0.005-0.006-0.011-0.011-0.013-0.016l-0.002-0.001c-0.374-0.459-0.596-1.043-0.596-1.679c0-1.469,1.189-2.66,2.658-2.66
		c1.469,0,2.659,1.191,2.659,2.66c0,0.636-0.225,1.22-0.597,1.679l-0.002,0.001c-0.004,0.005-0.008,0.01-0.012,0.016l-0.895,1.124
		l1.398-0.327c0.006-0.001,0.014-0.001,0.021-0.004h0.002c0.573-0.141,1.198-0.093,1.773,0.179c1.328,0.629,1.892,2.214,1.264,3.542
		c-0.629,1.327-2.215,1.893-3.545,1.263c-0.574-0.272-1.006-0.726-1.259-1.26h-0.001c-0.002-0.007-0.006-0.014-0.008-0.019
		l-0.549-1.12v1.263c0,1.194,0.588,3.719,1.985,4.26h-4.464c1.397-0.542,1.983-3.066,1.983-4.26v-1.263l-0.549,1.12
		c-0.005,0.005-0.008,0.012-0.009,0.019c-0.254,0.533-0.686,0.988-1.262,1.26c-1.327,0.63-2.914,0.064-3.542-1.263
		C24.847,31.935,25.413,30.35,26.74,29.721z M23.436,34.784c-0.254,0.536-0.894,0.764-1.431,0.51
		c-0.232-0.11-0.407-0.293-0.508-0.509h-0.001c-0.001-0.003-0.002-0.005-0.003-0.008l-0.222-0.452v0.51
		c0,0.482,0.237,1.502,0.801,1.72H20.27c0.564-0.218,0.801-1.238,0.801-1.72v-0.51l-0.222,0.452
		c-0.001,0.002-0.002,0.005-0.003,0.008c-0.102,0.216-0.277,0.399-0.509,0.509c-0.536,0.254-1.177,0.025-1.43-0.51
		c-0.254-0.536-0.026-1.177,0.51-1.43c0.233-0.11,0.485-0.129,0.716-0.072h0.001c0.002,0.001,0.005,0.001,0.007,0.001l0.565,0.132
		l-0.361-0.454c-0.002-0.002-0.004-0.004-0.005-0.006l-0.001,0c-0.151-0.186-0.241-0.421-0.241-0.678
		c0-0.593,0.48-1.074,1.074-1.074c0.593,0,1.073,0.481,1.073,1.074c0,0.257-0.091,0.492-0.241,0.678l-0.001,0
		c-0.002,0.002-0.003,0.004-0.005,0.006l-0.362,0.454l0.565-0.132c0.002-0.001,0.006-0.001,0.009-0.001h0.001
		c0.232-0.057,0.484-0.038,0.715,0.072C23.462,33.607,23.69,34.248,23.436,34.784z M23.575,23.383
		c-0.654,0.954-1.127,1.845-1.445,2.736c-0.191,0.518-0.336,1.082-0.436,1.609c-0.073,0.445-0.073,0.445-0.109,1.218
		c-0.009,0.254-0.064,0.4-0.182,0.491c-0.118,0.091-0.327,0.145-0.582,0.145c-0.4,0-0.6-0.145-0.6-0.436
		c0-0.6,0.482-1.827,1.254-3.154c0.364-0.645,0.745-1.236,1.473-2.281h-2.709c-0.382,0-0.545,0.082-0.718,0.364
		c-0.109,0.172-0.182,0.4-0.273,0.809l-0.3-0.036l0.282-2.109h4.345V23.383z M35.433,76.482c-0.575,0.272-1.2,0.32-1.773,0.179
		h-0.002c-0.006-0.002-0.015-0.002-0.021-0.004L32.24,76.33l0.895,1.124c0.004,0.005,0.008,0.01,0.012,0.016l0.002,0.001
		c0.372,0.459,0.597,1.043,0.597,1.679c0,1.469-1.191,2.66-2.659,2.66c-1.469,0-2.658-1.191-2.658-2.66
		c0-0.636,0.222-1.22,0.596-1.679l0.002-0.001c0.002-0.006,0.007-0.011,0.013-0.016l0.894-1.124l-1.399,0.327
		c-0.007,0.001-0.015,0.001-0.019,0.004h-0.003c-0.572,0.141-1.197,0.093-1.773-0.179c-1.328-0.629-1.893-2.215-1.263-3.542
		c0.628-1.327,2.215-1.893,3.542-1.264c0.576,0.272,1.008,0.726,1.262,1.26c0.001,0.007,0.005,0.014,0.009,0.019l0.549,1.121v-1.263
		c0-1.194-0.586-3.719-1.983-4.26h4.464c-1.397,0.542-1.985,3.067-1.985,4.26v1.263l0.549-1.121
		c0.003-0.005,0.006-0.012,0.008-0.019h0.001c0.253-0.533,0.684-0.988,1.259-1.26c1.329-0.63,2.916-0.064,3.545,1.264
		C37.326,74.268,36.761,75.854,35.433,76.482z M36.697,55.342c-0.629,1.327-2.215,1.893-3.545,1.263
		c-0.574-0.272-1.006-0.726-1.259-1.26h-0.001c-0.002-0.007-0.006-0.014-0.008-0.019l-0.549-1.12v1.263
		c0,1.194,0.588,3.719,1.985,4.26h-4.464c1.397-0.542,1.983-3.066,1.983-4.26v-1.263l-0.549,1.12
		c-0.005,0.005-0.008,0.012-0.009,0.019c-0.254,0.533-0.686,0.988-1.262,1.26c-1.327,0.63-2.914,0.064-3.542-1.263
		c-0.63-1.327-0.065-2.913,1.263-3.542c0.576-0.272,1.201-0.32,1.773-0.179h0.003c0.005,0.003,0.013,0.003,0.019,0.004l1.399,0.327
		l-0.894-1.124c-0.005-0.006-0.011-0.011-0.013-0.016l-0.002-0.001c-0.374-0.459-0.596-1.043-0.596-1.679
		c0-1.469,1.189-2.66,2.658-2.66c1.469,0,2.659,1.191,2.659,2.66c0,0.636-0.225,1.22-0.597,1.679l-0.002,0.001
		c-0.004,0.005-0.008,0.01-0.012,0.016l-0.895,1.124l1.398-0.327c0.006-0.001,0.014-0.001,0.021-0.004h0.002
		c0.573-0.141,1.198-0.093,1.773,0.179C36.761,52.429,37.326,54.015,36.697,55.342z M43.363,48.69h-4.464
		c1.398-0.542,1.986-3.066,1.986-4.26v-1.263l-0.55,1.121c-0.003,0.005-0.006,0.012-0.009,0.019h-0.001
		c-0.253,0.533-0.684,0.988-1.259,1.26c-1.329,0.629-2.916,0.064-3.545-1.264c-0.628-1.327-0.063-2.913,1.264-3.542
		c0.575-0.272,1.2-0.32,1.773-0.179h0.002c0.006,0.002,0.015,0.002,0.021,0.004l1.398,0.327l-0.895-1.124
		c-0.004-0.005-0.008-0.01-0.012-0.016l-0.002-0.001c-0.372-0.459-0.597-1.043-0.597-1.679c0-1.469,1.191-2.66,2.66-2.66
		c1.469,0,2.657,1.191,2.657,2.66c0,0.636-0.222,1.22-0.597,1.679l-0.001,0.001c-0.002,0.006-0.008,0.011-0.012,0.016l-0.895,1.124
		l1.4-0.327c0.007-0.001,0.015-0.001,0.019-0.004h0.002c0.573-0.141,1.197-0.093,1.773,0.179c1.328,0.629,1.893,2.215,1.264,3.542
		c-0.627,1.327-2.215,1.893-3.542,1.264c-0.576-0.272-1.008-0.726-1.263-1.26c-0.001-0.007-0.005-0.014-0.008-0.019l-0.55-1.121
		v1.263C41.38,45.624,41.967,48.148,43.363,48.69z M55.525,76.482c-0.577,0.272-1.2,0.32-1.773,0.179h-0.003
		c-0.005-0.002-0.011-0.002-0.019-0.004l-1.398-0.327l0.894,1.124c0.005,0.005,0.01,0.01,0.013,0.016l0.002,0.001
		c0.373,0.459,0.597,1.043,0.597,1.679c0,1.469-1.19,2.66-2.658,2.66c-1.469,0-2.66-1.191-2.66-2.66c0-0.636,0.225-1.22,0.598-1.679
		l0.002-0.001c0.003-0.006,0.007-0.011,0.011-0.016l0.894-1.124l-1.397,0.327c-0.006,0.001-0.014,0.001-0.021,0.004h-0.002
		c-0.573,0.141-1.198,0.093-1.773-0.179c-1.328-0.629-1.892-2.215-1.264-3.542c0.628-1.327,2.215-1.893,3.544-1.264
		c0.575,0.272,1.007,0.726,1.259,1.26h0.001c0.002,0.007,0.006,0.014,0.008,0.019l0.55,1.121v-1.263c0-1.194-0.587-3.719-1.986-4.26
		h4.465c-1.396,0.542-1.984,3.067-1.984,4.26v1.263l0.55-1.121c0.005-0.005,0.008-0.012,0.009-0.019
		c0.253-0.533,0.687-0.988,1.262-1.26c1.328-0.63,2.914-0.064,3.542,1.264C57.418,74.268,56.852,75.854,55.525,76.482z
		 M56.787,55.342c-0.627,1.327-2.214,1.893-3.542,1.263c-0.575-0.272-1.008-0.726-1.262-1.26c-0.001-0.007-0.005-0.014-0.009-0.019
		l-0.55-1.12v1.263c0,1.194,0.587,3.719,1.984,4.26h-4.465c1.398-0.542,1.986-3.066,1.986-4.26v-1.263l-0.55,1.12
		c-0.002,0.005-0.006,0.012-0.008,0.019h-0.001c-0.252,0.533-0.684,0.988-1.259,1.26c-1.329,0.63-2.916,0.064-3.544-1.263
		c-0.629-1.327-0.064-2.913,1.264-3.542c0.575-0.272,1.2-0.32,1.773-0.179h0.002c0.007,0.003,0.015,0.003,0.021,0.004l1.397,0.327
		l-0.894-1.124c-0.005-0.006-0.008-0.011-0.011-0.016l-0.002-0.001c-0.373-0.459-0.598-1.043-0.598-1.679
		c0-1.469,1.191-2.66,2.66-2.66c1.468,0,2.658,1.191,2.658,2.66c0,0.636-0.224,1.22-0.597,1.679l-0.002,0.001
		c-0.002,0.005-0.008,0.01-0.013,0.016l-0.894,1.124l1.398-0.327c0.008-0.001,0.015-0.001,0.019-0.004h0.003
		c0.573-0.141,1.195-0.093,1.773,0.179C56.852,52.429,57.418,54.015,56.787,55.342z M56.787,33.263
		c-0.627,1.327-2.214,1.893-3.542,1.263c-0.575-0.272-1.008-0.726-1.262-1.26c-0.001-0.007-0.005-0.014-0.009-0.019l-0.55-1.12
		v1.263c0,1.194,0.587,3.719,1.984,4.26h-4.465c1.398-0.542,1.986-3.066,1.986-4.26v-1.263l-0.55,1.12
		c-0.002,0.005-0.006,0.012-0.008,0.019h-0.001c-0.252,0.533-0.684,0.988-1.259,1.26c-1.329,0.63-2.916,0.064-3.544-1.263
		c-0.629-1.328-0.064-2.913,1.264-3.542c0.575-0.272,1.2-0.32,1.773-0.179h0.002c0.007,0.003,0.015,0.003,0.021,0.004l1.397,0.327
		l-0.894-1.124c-0.005-0.006-0.008-0.011-0.011-0.016l-0.002-0.001c-0.373-0.459-0.598-1.043-0.598-1.679
		c0-1.469,1.191-2.66,2.66-2.66c1.468,0,2.658,1.191,2.658,2.66c0,0.636-0.224,1.22-0.597,1.679l-0.002,0.001
		c-0.002,0.005-0.008,0.01-0.013,0.016l-0.894,1.124l1.398-0.327c0.008-0.001,0.015-0.001,0.019-0.004h0.003
		c0.573-0.141,1.195-0.093,1.773,0.179C56.852,30.35,57.418,31.935,56.787,33.263z M63.034,83.465h-4.345V82.82
		c0.655-0.954,1.127-1.845,1.445-2.736c0.191-0.518,0.336-1.082,0.436-1.609c0.073-0.445,0.073-0.445,0.109-1.218
		c0.009-0.254,0.064-0.4,0.182-0.491c0.118-0.091,0.327-0.145,0.582-0.145c0.4,0,0.6,0.145,0.6,0.436c0,0.6-0.482,1.827-1.254,3.154
		c-0.364,0.645-0.745,1.236-1.473,2.281h2.709c0.382,0,0.545-0.082,0.718-0.364c0.109-0.173,0.182-0.4,0.273-0.809l0.3,0.036
		L63.034,83.465z M62.85,72.85c-0.234,0.11-0.485,0.129-0.716,0.072h-0.001c-0.002-0.001-0.006-0.001-0.008-0.001l-0.565-0.132
		l0.36,0.454c0.002,0.002,0.005,0.004,0.006,0.006l0.001,0c0.151,0.186,0.242,0.421,0.242,0.678c0,0.593-0.481,1.074-1.074,1.074
		c-0.592,0-1.073-0.481-1.073-1.074c0-0.257,0.09-0.493,0.241-0.678l0.001,0c0.001-0.002,0.002-0.004,0.005-0.006l0.36-0.454
		l-0.563,0.132c-0.002,0-0.007,0-0.008,0.001h-0.001c-0.23,0.057-0.484,0.038-0.716-0.072c-0.536-0.254-0.763-0.894-0.51-1.43
		c0.253-0.536,0.894-0.764,1.43-0.51c0.233,0.11,0.407,0.293,0.509,0.509h0.001c0.001,0.003,0.002,0.006,0.002,0.008l0.224,0.453
		v-0.51c0-0.482-0.238-1.501-0.802-1.72h1.802c-0.565,0.219-0.801,1.239-0.801,1.72v0.51l0.221-0.453
		c0.001-0.002,0.003-0.005,0.003-0.008c0.103-0.215,0.277-0.399,0.51-0.509c0.536-0.254,1.176-0.026,1.43,0.51
		C63.614,71.955,63.385,72.596,62.85,72.85z"/>
	<path d="M62.753,18.426H19.512c-1.801,0-3.266,1.465-3.266,3.266v62.82c0,1.801,1.465,3.266,3.266,3.266h43.241
		c1.8,0,3.265-1.465,3.265-3.266v-62.82C66.018,19.891,64.553,18.426,62.753,18.426z M65.588,84.512
		c0,1.564-1.271,2.836-2.835,2.836H19.512c-1.563,0-2.836-1.272-2.836-2.836v-62.82c0-1.563,1.272-2.836,2.836-2.836h43.241
		c1.563,0,2.835,1.272,2.835,2.836V84.512z"/>
	<path d="M22.925,33.354c-0.232-0.11-0.484-0.129-0.715-0.072H22.21c-0.003,0.001-0.006,0.001-0.009,0.001l-0.565,0.132l0.362-0.454
		c0.001-0.002,0.003-0.004,0.005-0.006l0.001,0c0.15-0.186,0.241-0.421,0.241-0.678c0-0.593-0.481-1.074-1.073-1.074
		c-0.594,0-1.074,0.481-1.074,1.074c0,0.257,0.09,0.492,0.241,0.678l0.001,0c0.001,0.002,0.003,0.004,0.005,0.006l0.361,0.454
		l-0.565-0.132c-0.003-0.001-0.006-0.001-0.007-0.001h-0.001c-0.232-0.057-0.484-0.038-0.716,0.072
		c-0.536,0.253-0.764,0.894-0.51,1.43c0.253,0.536,0.894,0.764,1.43,0.51c0.233-0.11,0.407-0.293,0.509-0.509
		c0.001-0.003,0.002-0.005,0.003-0.008l0.222-0.452v0.51c0,0.482-0.237,1.502-0.801,1.72h1.802c-0.564-0.218-0.801-1.238-0.801-1.72
		v-0.51l0.222,0.452c0.001,0.002,0.003,0.005,0.003,0.008h0.001c0.102,0.216,0.277,0.399,0.508,0.509
		c0.537,0.254,1.177,0.025,1.431-0.51C23.69,34.248,23.462,33.607,22.925,33.354z"/>
	<path d="M29.019,34.526c0.576-0.272,1.008-0.726,1.262-1.26c0.001-0.007,0.005-0.014,0.009-0.019l0.549-1.12v1.263
		c0,1.194-0.586,3.719-1.983,4.26h4.464c-1.397-0.542-1.985-3.066-1.985-4.26v-1.263l0.549,1.12
		c0.003,0.005,0.006,0.012,0.008,0.019h0.001c0.253,0.533,0.684,0.988,1.259,1.26c1.329,0.63,2.916,0.064,3.545-1.263
		c0.628-1.328,0.064-2.913-1.264-3.542c-0.575-0.272-1.2-0.32-1.773-0.179h-0.002c-0.006,0.003-0.015,0.003-0.021,0.004
		l-1.398,0.327l0.895-1.124c0.004-0.006,0.008-0.011,0.012-0.016l0.002-0.001c0.372-0.459,0.597-1.043,0.597-1.679
		c0-1.469-1.191-2.66-2.659-2.66c-1.469,0-2.658,1.191-2.658,2.66c0,0.636,0.222,1.22,0.596,1.679l0.002,0.001
		c0.002,0.005,0.007,0.01,0.013,0.016l0.894,1.124l-1.399-0.327c-0.007-0.001-0.015-0.001-0.019-0.004h-0.003
		c-0.572-0.141-1.197-0.093-1.773,0.179c-1.328,0.629-1.893,2.214-1.263,3.542C26.105,34.59,27.692,35.156,29.019,34.526z"/>
	<path d="M55.525,29.721c-0.577-0.272-1.2-0.32-1.773-0.179h-0.003c-0.005,0.003-0.011,0.003-0.019,0.004l-1.398,0.327l0.894-1.124
		c0.005-0.006,0.01-0.011,0.013-0.016l0.002-0.001c0.373-0.459,0.597-1.043,0.597-1.679c0-1.469-1.19-2.66-2.658-2.66
		c-1.469,0-2.66,1.191-2.66,2.66c0,0.636,0.225,1.22,0.598,1.679l0.002,0.001c0.003,0.005,0.007,0.01,0.011,0.016l0.894,1.124
		l-1.397-0.327c-0.006-0.001-0.014-0.001-0.021-0.004h-0.002c-0.573-0.141-1.198-0.093-1.773,0.179
		c-1.328,0.629-1.892,2.214-1.264,3.542c0.628,1.327,2.215,1.893,3.544,1.263c0.575-0.272,1.007-0.726,1.259-1.26h0.001
		c0.002-0.007,0.006-0.014,0.008-0.019l0.55-1.12v1.263c0,1.194-0.587,3.719-1.986,4.26h4.465c-1.396-0.542-1.984-3.066-1.984-4.26
		v-1.263l0.55,1.12c0.005,0.005,0.008,0.012,0.009,0.019c0.253,0.533,0.687,0.988,1.262,1.26c1.328,0.63,2.914,0.064,3.542-1.263
		C57.418,31.935,56.852,30.35,55.525,29.721z"/>
	<path d="M35.433,51.801c-0.575-0.272-1.2-0.32-1.773-0.179h-0.002c-0.006,0.003-0.015,0.003-0.021,0.004l-1.398,0.327l0.895-1.124
		c0.004-0.006,0.008-0.011,0.012-0.016l0.002-0.001c0.372-0.459,0.597-1.043,0.597-1.679c0-1.469-1.191-2.66-2.659-2.66
		c-1.469,0-2.658,1.191-2.658,2.66c0,0.636,0.222,1.22,0.596,1.679l0.002,0.001c0.002,0.005,0.007,0.01,0.013,0.016l0.894,1.124
		l-1.399-0.327c-0.007-0.001-0.015-0.001-0.019-0.004h-0.003c-0.572-0.141-1.197-0.093-1.773,0.179
		c-1.328,0.628-1.893,2.214-1.263,3.542c0.628,1.327,2.215,1.893,3.542,1.263c0.576-0.272,1.008-0.726,1.262-1.26
		c0.001-0.007,0.005-0.014,0.009-0.019l0.549-1.12v1.263c0,1.194-0.586,3.719-1.983,4.26h4.464c-1.397-0.542-1.985-3.066-1.985-4.26
		v-1.263l0.549,1.12c0.003,0.005,0.006,0.012,0.008,0.019h0.001c0.253,0.533,0.684,0.988,1.259,1.26
		c1.329,0.63,2.916,0.064,3.545-1.263C37.326,54.015,36.761,52.429,35.433,51.801z"/>
	<path d="M55.525,51.801c-0.577-0.272-1.2-0.32-1.773-0.179h-0.003c-0.005,0.003-0.011,0.003-0.019,0.004l-1.398,0.327l0.894-1.124
		c0.005-0.006,0.01-0.011,0.013-0.016l0.002-0.001c0.373-0.459,0.597-1.043,0.597-1.679c0-1.469-1.19-2.66-2.658-2.66
		c-1.469,0-2.66,1.191-2.66,2.66c0,0.636,0.225,1.22,0.598,1.679l0.002,0.001c0.003,0.005,0.007,0.01,0.011,0.016l0.894,1.124
		l-1.397-0.327c-0.006-0.001-0.014-0.001-0.021-0.004h-0.002c-0.573-0.141-1.198-0.093-1.773,0.179
		c-1.328,0.628-1.892,2.214-1.264,3.542c0.628,1.327,2.215,1.893,3.544,1.263c0.575-0.272,1.007-0.726,1.259-1.26h0.001
		c0.002-0.007,0.006-0.014,0.008-0.019l0.55-1.12v1.263c0,1.194-0.587,3.719-1.986,4.26h4.465c-1.396-0.542-1.984-3.066-1.984-4.26
		v-1.263l0.55,1.12c0.005,0.005,0.008,0.012,0.009,0.019c0.253,0.533,0.687,0.988,1.262,1.26c1.328,0.63,2.914,0.064,3.542-1.263
		C57.418,54.015,56.852,52.429,55.525,51.801z"/>
	<path d="M41.93,44.288c0.003,0.005,0.007,0.012,0.008,0.019c0.254,0.533,0.687,0.988,1.263,1.26
		c1.327,0.629,2.914,0.064,3.542-1.264c0.63-1.327,0.064-2.913-1.264-3.542c-0.576-0.272-1.2-0.32-1.773-0.179h-0.002
		c-0.005,0.002-0.013,0.002-0.019,0.004l-1.4,0.327l0.895-1.124c0.005-0.005,0.01-0.01,0.012-0.016l0.001-0.001
		c0.374-0.459,0.597-1.043,0.597-1.679c0-1.469-1.189-2.66-2.657-2.66c-1.469,0-2.66,1.191-2.66,2.66
		c0,0.636,0.225,1.22,0.597,1.679l0.002,0.001c0.004,0.006,0.008,0.011,0.012,0.016l0.895,1.124l-1.398-0.327
		c-0.006-0.001-0.014-0.001-0.021-0.004h-0.002c-0.573-0.141-1.198-0.093-1.773,0.179c-1.327,0.629-1.892,2.215-1.264,3.542
		c0.628,1.327,2.215,1.893,3.545,1.264c0.575-0.272,1.006-0.726,1.259-1.26h0.001c0.002-0.007,0.006-0.014,0.009-0.019l0.55-1.121
		v1.263c0,1.194-0.588,3.719-1.986,4.26h4.464c-1.396-0.542-1.983-3.066-1.983-4.26v-1.263L41.93,44.288z"/>
	<path d="M33.153,71.677c-0.574,0.272-1.006,0.726-1.259,1.26h-0.001c-0.002,0.007-0.006,0.014-0.008,0.019l-0.549,1.121v-1.263
		c0-1.194,0.588-3.719,1.985-4.26h-4.464c1.397,0.542,1.983,3.067,1.983,4.26v1.263l-0.549-1.121
		c-0.005-0.005-0.008-0.012-0.009-0.019c-0.254-0.533-0.686-0.988-1.262-1.26c-1.327-0.63-2.914-0.064-3.542,1.264
		c-0.63,1.327-0.065,2.913,1.263,3.542c0.576,0.272,1.201,0.32,1.773,0.179h0.003c0.005-0.002,0.013-0.002,0.019-0.004l1.399-0.327
		l-0.894,1.124c-0.005,0.005-0.011,0.01-0.013,0.016l-0.002,0.001c-0.374,0.459-0.596,1.043-0.596,1.679
		c0,1.469,1.189,2.66,2.658,2.66c1.469,0,2.659-1.191,2.659-2.66c0-0.636-0.225-1.22-0.597-1.679l-0.002-0.001
		c-0.004-0.006-0.008-0.011-0.012-0.016L32.24,76.33l1.398,0.327c0.006,0.001,0.014,0.001,0.021,0.004h0.002
		c0.573,0.141,1.198,0.093,1.773-0.179c1.328-0.629,1.892-2.215,1.264-3.542C36.068,71.613,34.482,71.047,33.153,71.677z"/>
	<path d="M53.246,71.677c-0.575,0.272-1.008,0.726-1.262,1.26c-0.001,0.007-0.005,0.014-0.009,0.019l-0.55,1.121v-1.263
		c0-1.194,0.587-3.719,1.984-4.26h-4.465c1.398,0.542,1.986,3.067,1.986,4.26v1.263l-0.55-1.121
		c-0.002-0.005-0.006-0.012-0.008-0.019h-0.001c-0.252-0.533-0.684-0.988-1.259-1.26c-1.329-0.63-2.916-0.064-3.544,1.264
		c-0.629,1.327-0.064,2.913,1.264,3.542c0.575,0.272,1.2,0.32,1.773,0.179h0.002c0.007-0.002,0.015-0.002,0.021-0.004l1.397-0.327
		l-0.894,1.124c-0.005,0.005-0.008,0.01-0.011,0.016l-0.002,0.001c-0.373,0.459-0.598,1.043-0.598,1.679
		c0,1.469,1.191,2.66,2.66,2.66c1.468,0,2.658-1.191,2.658-2.66c0-0.636-0.224-1.22-0.597-1.679l-0.002-0.001
		c-0.002-0.006-0.008-0.011-0.013-0.016l-0.894-1.124l1.398,0.327c0.008,0.001,0.015,0.001,0.019,0.004h0.003
		c0.573,0.141,1.195,0.093,1.773-0.179c1.328-0.629,1.893-2.215,1.263-3.542C56.16,71.613,54.573,71.047,53.246,71.677z"/>
	<path class="st5" d="M18.948,24.847l0.3,0.036c0.091-0.409,0.163-0.636,0.273-0.809c0.173-0.282,0.336-0.364,0.718-0.364h2.709
		c-0.727,1.045-1.109,1.636-1.473,2.281c-0.773,1.327-1.254,2.554-1.254,3.154c0,0.291,0.2,0.436,0.6,0.436
		c0.254,0,0.464-0.055,0.582-0.145c0.118-0.091,0.173-0.236,0.182-0.491c0.036-0.773,0.036-0.773,0.109-1.218
		c0.1-0.527,0.245-1.091,0.436-1.609c0.318-0.891,0.791-1.782,1.445-2.736v-0.645H19.23L18.948,24.847z"/>
	<path d="M61.93,70.909c-0.233,0.11-0.407,0.293-0.51,0.509c0,0.003-0.002,0.006-0.003,0.008l-0.221,0.453v-0.51
		c0-0.482,0.236-1.501,0.801-1.72h-1.802c0.563,0.219,0.802,1.239,0.802,1.72v0.51l-0.224-0.453c0-0.002-0.001-0.005-0.002-0.008
		h-0.001c-0.102-0.215-0.276-0.399-0.509-0.509c-0.536-0.254-1.177-0.026-1.43,0.51c-0.253,0.536-0.026,1.177,0.51,1.43
		c0.233,0.11,0.486,0.129,0.716,0.072h0.001c0.001-0.001,0.006-0.001,0.008-0.001l0.563-0.132l-0.36,0.454
		c-0.002,0.002-0.003,0.004-0.005,0.006l-0.001,0c-0.151,0.186-0.241,0.421-0.241,0.678c0,0.593,0.481,1.074,1.073,1.074
		c0.593,0,1.074-0.481,1.074-1.074c0-0.257-0.091-0.493-0.242-0.678l-0.001,0c-0.001-0.002-0.003-0.004-0.006-0.006l-0.36-0.454
		l0.565,0.132c0.002,0,0.006,0,0.008,0.001h0.001c0.232,0.057,0.483,0.038,0.716-0.072c0.535-0.254,0.764-0.894,0.51-1.43
		C63.106,70.883,62.466,70.655,61.93,70.909z"/>
	<path class="st5" d="M62.743,82.129c-0.173,0.282-0.336,0.364-0.718,0.364h-2.709c0.727-1.045,1.109-1.636,1.473-2.281
		c0.772-1.327,1.254-2.554,1.254-3.154c0-0.291-0.2-0.436-0.6-0.436c-0.254,0-0.464,0.054-0.582,0.145
		c-0.118,0.091-0.173,0.236-0.182,0.491c-0.036,0.773-0.036,0.773-0.109,1.218c-0.1,0.527-0.245,1.091-0.436,1.609
		c-0.318,0.891-0.791,1.782-1.445,2.736v0.645h4.345l0.282-2.109l-0.3-0.036C62.925,81.729,62.852,81.956,62.743,82.129z"/>
</g>
</svg>
