<?xml version="1.0" encoding="utf-8"?>
<!-- Generator: Adobe Illustrator 23.0.2, SVG Export Plug-In . SVG Version: 6.00 Build 0)  -->
<svg version="1.1" id="Layer_1" xmlns="http://www.w3.org/2000/svg" xmlns:xlink="http://www.w3.org/1999/xlink" x="0px" y="0px"
	 viewBox="0 0 82.452 99.776" style="enable-background:new 0 0 82.452 99.776;" xml:space="preserve">
<style type="text/css">
	.st0{fill:#FFFFFF;}
	.st1{fill:#ED1C24;}
	.st2{fill:#FFCB05;}
	.st3{fill:#21409A;}
	.st4{fill:#D4D5D6;}
	.st5{fill:#000100;}
	.st6{fill:#300505;}
	.st7{fill:#BFD730;}
	.st8{fill:#F15A22;}
</style>
<g>
	<path class="st0" d="M63.906,17.598H20.665c-1.563,0-2.836,1.272-2.836,2.836v62.82c0,1.564,1.272,2.836,2.836,2.836h43.241
		c1.563,0,2.835-1.272,2.835-2.836v-62.82C66.741,18.87,65.47,17.598,63.906,17.598z M62.246,68.371
		c0.249,0.867,1.253,2.228,2.068,2.693c-0.816,0.465-1.819,1.825-2.068,2.693c-0.249-0.868-1.252-2.228-2.067-2.693
		C60.994,70.599,61.998,69.239,62.246,68.371z M32.238,23.085c0.617,2.151,3.106,5.523,5.125,6.675
		c-2.019,1.152-4.508,4.523-5.125,6.674c-0.617-2.151-3.104-5.522-5.124-6.674C29.134,28.608,31.621,25.236,32.238,23.085z
		 M22.324,35.318c-0.249-0.868-1.252-2.227-2.066-2.693c0.814-0.465,1.818-1.825,2.066-2.693c0.249,0.868,1.254,2.228,2.068,2.693
		C23.577,33.09,22.572,34.45,22.324,35.318z M24.727,22.126c-0.654,0.954-1.127,1.845-1.445,2.736
		c-0.191,0.518-0.336,1.082-0.436,1.609c-0.073,0.445-0.073,0.445-0.109,1.218c-0.009,0.254-0.064,0.4-0.182,0.491
		c-0.118,0.091-0.327,0.145-0.582,0.145c-0.4,0-0.6-0.145-0.6-0.436c0-0.6,0.482-1.827,1.254-3.154
		c0.364-0.645,0.745-1.236,1.473-2.281h-2.709c-0.382,0-0.545,0.082-0.718,0.364c-0.109,0.172-0.182,0.4-0.273,0.809l-0.3-0.036
		l0.282-2.109h4.345V22.126z M32.237,45.165c0.617,2.15,3.106,5.523,5.125,6.674c-2.019,1.152-4.508,4.523-5.125,6.674
		c-0.616-2.151-3.104-5.522-5.124-6.674C29.133,50.688,31.621,47.316,32.237,45.165z M32.238,80.603
		c-0.617-2.151-3.104-5.523-5.124-6.674c2.02-1.152,4.507-4.523,5.124-6.674c0.617,2.15,3.106,5.522,5.125,6.674
		C35.344,75.081,32.855,78.453,32.238,80.603z M42.281,47.474c-0.617-2.151-3.104-5.522-5.124-6.674
		c2.02-1.151,4.507-4.524,5.124-6.674c0.617,2.15,3.106,5.523,5.125,6.674C45.387,41.951,42.898,45.323,42.281,47.474z
		 M52.326,80.603c-0.616-2.151-3.104-5.523-5.124-6.674c2.02-1.152,4.508-4.523,5.124-6.674c0.617,2.15,3.106,5.522,5.125,6.674
		C55.432,75.081,52.943,78.453,52.326,80.603z M52.326,58.513c-0.616-2.151-3.104-5.522-5.124-6.674
		c2.02-1.151,4.508-4.524,5.124-6.674c0.617,2.15,3.106,5.523,5.125,6.674C55.432,52.991,52.943,56.362,52.326,58.513z
		 M52.326,36.434c-0.616-2.151-3.104-5.522-5.124-6.674c2.02-1.152,4.508-4.524,5.124-6.675c0.617,2.151,3.106,5.523,5.125,6.675
		C55.432,30.912,52.943,34.283,52.326,36.434z M64.187,82.208h-4.345v-0.645c0.655-0.954,1.127-1.845,1.445-2.736
		c0.191-0.518,0.336-1.082,0.436-1.609c0.073-0.445,0.073-0.445,0.109-1.218c0.009-0.254,0.064-0.4,0.182-0.491
		c0.118-0.091,0.327-0.145,0.582-0.145c0.4,0,0.6,0.145,0.6,0.436c0,0.6-0.482,1.827-1.254,3.154
		c-0.364,0.645-0.745,1.236-1.473,2.281h2.709c0.382,0,0.545-0.082,0.718-0.364c0.109-0.173,0.182-0.4,0.273-0.809l0.3,0.036
		L64.187,82.208z"/>
	<path d="M63.906,17.168H20.665c-1.801,0-3.266,1.465-3.266,3.266v62.82c0,1.801,1.465,3.266,3.266,3.266h43.241
		c1.8,0,3.265-1.465,3.265-3.266v-62.82C67.171,18.633,65.706,17.168,63.906,17.168z M66.741,83.254
		c0,1.564-1.271,2.836-2.835,2.836H20.665c-1.563,0-2.836-1.272-2.836-2.836v-62.82c0-1.564,1.272-2.836,2.836-2.836h43.241
		c1.563,0,2.835,1.272,2.835,2.836V83.254z"/>
	<path class="st1" d="M20.101,23.59l0.3,0.036c0.091-0.409,0.163-0.636,0.273-0.809c0.173-0.282,0.336-0.364,0.718-0.364H24.1
		c-0.727,1.045-1.109,1.636-1.473,2.281c-0.773,1.327-1.254,2.554-1.254,3.154c0,0.291,0.2,0.436,0.6,0.436
		c0.254,0,0.464-0.055,0.582-0.145c0.118-0.091,0.173-0.236,0.182-0.491c0.036-0.773,0.036-0.773,0.109-1.218
		c0.1-0.527,0.245-1.091,0.436-1.609c0.318-0.891,0.791-1.782,1.445-2.736v-0.645h-4.345L20.101,23.59z"/>
	<path class="st1" d="M63.896,80.872c-0.173,0.282-0.336,0.364-0.718,0.364h-2.709c0.727-1.045,1.109-1.636,1.473-2.281
		c0.772-1.327,1.254-2.554,1.254-3.154c0-0.291-0.2-0.436-0.6-0.436c-0.254,0-0.464,0.055-0.582,0.145
		C61.896,75.6,61.841,75.745,61.832,76c-0.036,0.773-0.036,0.773-0.109,1.218c-0.1,0.527-0.245,1.091-0.436,1.609
		c-0.318,0.891-0.791,1.782-1.445,2.736v0.645h4.345l0.282-2.109l-0.3-0.036C64.078,80.472,64.005,80.699,63.896,80.872z"/>
	<path class="st1" d="M32.238,36.434c0.617-2.151,3.106-5.522,5.125-6.674c-2.019-1.152-4.508-4.524-5.125-6.675
		c-0.617,2.151-3.104,5.523-5.124,6.675C29.134,30.912,31.621,34.283,32.238,36.434z"/>
	<path class="st1" d="M52.326,23.085c-0.616,2.151-3.104,5.523-5.124,6.675c2.02,1.152,4.508,4.523,5.124,6.674
		c0.617-2.151,3.106-5.522,5.125-6.674C55.432,28.608,52.943,25.236,52.326,23.085z"/>
	<path class="st1" d="M32.238,67.255c-0.617,2.15-3.104,5.522-5.124,6.674c2.02,1.151,4.507,4.524,5.124,6.674
		c0.617-2.151,3.106-5.523,5.125-6.674C35.344,72.777,32.855,69.406,32.238,67.255z"/>
	<path class="st1" d="M52.326,67.255c-0.616,2.15-3.104,5.522-5.124,6.674c2.02,1.151,4.508,4.524,5.124,6.674
		c0.617-2.151,3.106-5.523,5.125-6.674C55.432,72.777,52.943,69.406,52.326,67.255z"/>
	<path class="st1" d="M32.237,58.513c0.617-2.151,3.106-5.522,5.125-6.674c-2.019-1.151-4.508-4.524-5.125-6.674
		c-0.616,2.15-3.104,5.523-5.124,6.674C29.133,52.991,31.621,56.362,32.237,58.513z"/>
	<path class="st1" d="M52.326,45.165c-0.616,2.15-3.104,5.523-5.124,6.674c2.02,1.152,4.508,4.523,5.124,6.674
		c0.617-2.151,3.106-5.522,5.125-6.674C55.432,50.688,52.943,47.316,52.326,45.165z"/>
	<path class="st1" d="M42.281,34.125c-0.617,2.15-3.104,5.523-5.124,6.674c2.02,1.152,4.507,4.523,5.124,6.674
		c0.617-2.151,3.106-5.522,5.125-6.674C45.387,39.648,42.898,36.276,42.281,34.125z"/>
	<path class="st1" d="M22.324,29.932c-0.249,0.868-1.252,2.228-2.066,2.693c0.814,0.465,1.818,1.825,2.066,2.693
		c0.249-0.868,1.254-2.227,2.068-2.693C23.577,32.16,22.572,30.8,22.324,29.932z"/>
	<path class="st1" d="M62.246,73.757c0.249-0.868,1.253-2.228,2.068-2.693c-0.816-0.465-1.819-1.825-2.068-2.693
		c-0.249,0.867-1.252,2.228-2.067,2.693C60.994,71.529,61.998,72.889,62.246,73.757z"/>
</g>
</svg>
