<?xml version="1.0" encoding="utf-8"?>
<!-- Generator: Adobe Illustrator 23.0.2, SVG Export Plug-In . SVG Version: 6.00 Build 0)  -->
<svg version="1.1" id="Layer_1" xmlns="http://www.w3.org/2000/svg" xmlns:xlink="http://www.w3.org/1999/xlink" x="0px" y="0px"
	 viewBox="0 0 82.452 99.776" style="enable-background:new 0 0 82.452 99.776;" xml:space="preserve">
<style type="text/css">
	.st0{fill:#FFFFFF;}
	.st1{fill:#ED1C24;}
	.st2{fill:#FFCB05;}
	.st3{fill:#21409A;}
	.st4{fill:#D4D5D6;}
	.st5{fill:#000100;}
	.st6{fill:#300505;}
	.st7{fill:#BFD730;}
	.st8{fill:#F15A22;}
</style>
<g>
	<path class="st0" d="M63.597,17.575H20.356c-1.563,0-2.836,1.272-2.836,2.836v62.82c0,1.564,1.272,2.836,2.836,2.836h43.241
		c1.563,0,2.835-1.272,2.835-2.836v-62.82C66.432,18.848,65.161,17.575,63.597,17.575z M31.931,25.77
		c1.173-4.633,5.775-3.4,5.775,0.971c0,2.858-1.551,4.754-3.181,6.548c-0.816,0.898-1.899,2.099-2.594,3.357
		c-0.695-1.258-1.778-2.458-2.595-3.357c-1.631-1.794-3.182-3.69-3.182-6.548C26.153,22.37,30.757,21.136,31.931,25.77z
		 M23.063,34.035c-0.33,0.362-0.766,0.846-1.047,1.354c-0.281-0.507-0.717-0.992-1.047-1.354c-0.658-0.724-1.283-1.488-1.283-2.641
		c0-1.763,1.856-2.261,2.33-0.392c0.473-1.869,2.33-1.371,2.33,0.392C24.346,32.546,23.721,33.311,23.063,34.035z M24.419,22.104
		c-0.654,0.954-1.127,1.845-1.445,2.736c-0.191,0.518-0.336,1.082-0.436,1.609c-0.073,0.445-0.073,0.445-0.109,1.218
		c-0.009,0.254-0.064,0.4-0.182,0.491c-0.118,0.091-0.327,0.145-0.582,0.145c-0.4,0-0.6-0.145-0.6-0.436
		c0-0.6,0.482-1.827,1.254-3.154c0.364-0.645,0.745-1.236,1.473-2.281h-2.709c-0.382,0-0.545,0.082-0.718,0.364
		c-0.109,0.173-0.182,0.4-0.273,0.809l-0.3-0.036l0.282-2.109h4.345V22.104z M31.93,47.849c1.173-4.633,5.776-3.4,5.776,0.971
		c0,2.858-1.551,4.754-3.181,6.548c-0.816,0.899-1.9,2.099-2.594,3.357c-0.695-1.258-1.778-2.458-2.594-3.357
		c-1.631-1.794-3.182-3.69-3.182-6.548C26.153,44.45,30.756,43.216,31.93,47.849z M31.931,77.875
		c-1.174,4.633-5.777,3.399-5.777-0.971c0-2.858,1.552-4.754,3.182-6.548c0.817-0.898,1.9-2.099,2.595-3.356
		c0.695,1.258,1.778,2.458,2.594,3.356c1.631,1.794,3.181,3.69,3.181,6.548C37.706,81.274,33.103,82.508,31.931,77.875z
		 M41.974,47.685c-0.695-1.258-1.779-2.458-2.596-3.356c-1.631-1.794-3.182-3.69-3.182-6.548c0-4.371,4.603-5.604,5.777-0.971
		c1.173-4.633,5.776-3.4,5.776,0.971c0,2.858-1.551,4.754-3.181,6.548C43.753,45.227,42.668,46.427,41.974,47.685z M52.019,77.875
		c-1.174,4.633-5.777,3.399-5.777-0.971c0-2.858,1.552-4.754,3.182-6.548c0.817-0.898,1.9-2.099,2.595-3.356
		c0.695,1.258,1.778,2.458,2.594,3.356c1.631,1.794,3.181,3.69,3.181,6.548C57.795,81.274,53.193,82.508,52.019,77.875z
		 M54.613,55.368c-0.817,0.899-1.9,2.099-2.594,3.357c-0.696-1.258-1.779-2.458-2.596-3.357c-1.63-1.794-3.181-3.69-3.181-6.548
		c0-4.37,4.604-5.604,5.777-0.971c1.173-4.633,5.775-3.4,5.775,0.971C57.795,51.678,56.243,53.574,54.613,55.368z M54.613,33.288
		c-0.816,0.898-1.899,2.099-2.594,3.357c-0.695-1.258-1.778-2.458-2.595-3.357c-1.63-1.794-3.182-3.69-3.182-6.548
		c0-4.37,4.604-5.604,5.777-0.971c1.174-4.633,5.775-3.4,5.775,0.971C57.795,29.599,56.244,31.494,54.613,33.288z M63.878,82.186
		h-4.345v-0.645c0.655-0.955,1.127-1.846,1.445-2.737c0.191-0.518,0.336-1.081,0.436-1.609c0.073-0.445,0.073-0.445,0.109-1.218
		c0.009-0.254,0.064-0.4,0.182-0.491c0.118-0.091,0.327-0.145,0.582-0.145c0.4,0,0.6,0.145,0.6,0.436c0,0.6-0.482,1.827-1.254,3.155
		c-0.364,0.645-0.745,1.236-1.473,2.281h2.709c0.382,0,0.545-0.082,0.718-0.364c0.109-0.172,0.182-0.4,0.273-0.809l0.3,0.036
		L63.878,82.186z M61.936,72.642c-0.473,1.869-2.329,1.372-2.329-0.392c0-1.153,0.625-1.917,1.283-2.641
		c0.329-0.362,0.765-0.846,1.046-1.353c0.281,0.508,0.717,0.992,1.046,1.353c0.658,0.724,1.284,1.489,1.284,2.641
		C64.267,74.013,62.41,74.511,61.936,72.642z"/>
	<path d="M63.597,17.146H20.356c-1.801,0-3.266,1.465-3.266,3.266v62.82c0,1.801,1.465,3.266,3.266,3.266h43.241
		c1.8,0,3.265-1.465,3.265-3.266v-62.82C66.862,18.611,65.397,17.146,63.597,17.146z M66.432,83.232
		c0,1.564-1.271,2.836-2.835,2.836H20.356c-1.563,0-2.836-1.272-2.836-2.836v-62.82c0-1.564,1.272-2.836,2.836-2.836h43.241
		c1.563,0,2.835,1.272,2.835,2.836V83.232z"/>
	<path class="st1" d="M19.792,23.568l0.3,0.036c0.091-0.409,0.163-0.636,0.273-0.809c0.173-0.282,0.336-0.364,0.718-0.364h2.709
		c-0.727,1.045-1.109,1.636-1.473,2.281c-0.773,1.327-1.254,2.554-1.254,3.154c0,0.291,0.2,0.436,0.6,0.436
		c0.254,0,0.464-0.055,0.582-0.145c0.118-0.091,0.173-0.236,0.182-0.491c0.036-0.773,0.036-0.773,0.109-1.218
		c0.1-0.527,0.245-1.091,0.436-1.609c0.318-0.891,0.791-1.782,1.445-2.736v-0.645h-4.345L19.792,23.568z"/>
	<path class="st1" d="M63.587,80.849c-0.173,0.282-0.336,0.364-0.718,0.364H60.16c0.727-1.045,1.109-1.636,1.473-2.281
		c0.772-1.328,1.254-2.555,1.254-3.155c0-0.291-0.2-0.436-0.6-0.436c-0.254,0-0.464,0.055-0.582,0.145
		c-0.118,0.091-0.173,0.237-0.182,0.491c-0.036,0.772-0.036,0.772-0.109,1.218c-0.1,0.528-0.245,1.091-0.436,1.609
		c-0.318,0.891-0.791,1.782-1.445,2.737v0.645h4.345l0.282-2.108l-0.3-0.036C63.769,80.45,63.696,80.677,63.587,80.849z"/>
	<path class="st1" d="M41.974,36.809c-1.174-4.633-5.777-3.4-5.777,0.971c0,2.858,1.551,4.754,3.182,6.548
		c0.817,0.898,1.9,2.099,2.596,3.356c0.694-1.258,1.779-2.458,2.594-3.356c1.63-1.794,3.181-3.69,3.181-6.548
		C47.75,33.41,43.147,32.176,41.974,36.809z"/>
	<path class="st1" d="M31.93,58.725c0.695-1.258,1.779-2.458,2.594-3.357c1.631-1.794,3.181-3.69,3.181-6.548
		c0-4.37-4.603-5.604-5.776-0.971c-1.174-4.633-5.777-3.4-5.777,0.971c0,2.858,1.552,4.754,3.182,6.548
		C30.151,56.267,31.235,57.467,31.93,58.725z"/>
	<path class="st1" d="M52.019,47.849c-1.174-4.633-5.777-3.4-5.777,0.971c0,2.858,1.551,4.754,3.181,6.548
		c0.817,0.899,1.9,2.099,2.596,3.357c0.694-1.258,1.777-2.458,2.594-3.357c1.63-1.794,3.181-3.69,3.181-6.548
		C57.795,44.45,53.192,43.216,52.019,47.849z"/>
	<path class="st1" d="M31.931,36.645c0.695-1.258,1.778-2.458,2.594-3.357c1.631-1.794,3.181-3.69,3.181-6.548
		c0-4.37-4.603-5.604-5.775-0.971c-1.174-4.633-5.777-3.4-5.777,0.971c0,2.858,1.552,4.754,3.182,6.548
		C30.152,34.187,31.236,35.387,31.931,36.645z"/>
	<path class="st1" d="M52.019,25.77c-1.174-4.633-5.777-3.4-5.777,0.971c0,2.858,1.552,4.754,3.182,6.548
		c0.817,0.898,1.9,2.099,2.595,3.357c0.695-1.258,1.778-2.458,2.594-3.357c1.631-1.794,3.181-3.69,3.181-6.548
		C57.795,22.37,53.193,21.136,52.019,25.77z"/>
	<path class="st1" d="M31.931,66.999c-0.695,1.258-1.778,2.458-2.595,3.356c-1.631,1.794-3.182,3.69-3.182,6.548
		c0,4.37,4.604,5.604,5.777,0.971c1.173,4.633,5.775,3.399,5.775-0.971c0-2.858-1.551-4.754-3.181-6.548
		C33.709,69.457,32.625,68.257,31.931,66.999z"/>
	<path class="st1" d="M52.019,66.999c-0.695,1.258-1.778,2.458-2.595,3.356c-1.63,1.794-3.182,3.69-3.182,6.548
		c0,4.37,4.604,5.604,5.777,0.971c1.174,4.633,5.775,3.399,5.775-0.971c0-2.858-1.55-4.754-3.181-6.548
		C53.798,69.457,52.714,68.257,52.019,66.999z"/>
	<path class="st1" d="M22.016,31.002c-0.473-1.869-2.33-1.371-2.33,0.392c0,1.153,0.626,1.917,1.283,2.641
		c0.329,0.362,0.765,0.846,1.047,1.354c0.28-0.507,0.717-0.992,1.047-1.354c0.658-0.724,1.283-1.488,1.283-2.641
		C24.346,29.63,22.489,29.133,22.016,31.002z"/>
	<path class="st1" d="M61.936,68.255c-0.281,0.508-0.717,0.992-1.046,1.353c-0.658,0.724-1.283,1.489-1.283,2.641
		c0,1.763,1.856,2.261,2.329,0.392c0.473,1.869,2.33,1.372,2.33-0.392c0-1.153-0.626-1.917-1.284-2.641
		C62.654,69.247,62.217,68.763,61.936,68.255z"/>
</g>
</svg>
