<?xml version="1.0" encoding="utf-8"?>
<!-- Generator: Adobe Illustrator 23.0.2, SVG Export Plug-In . SVG Version: 6.00 Build 0)  -->
<svg version="1.1" id="Layer_1" xmlns="http://www.w3.org/2000/svg" xmlns:xlink="http://www.w3.org/1999/xlink" x="0px" y="0px"
	 viewBox="0 0 82.452 99.776" style="enable-background:new 0 0 82.452 99.776;" xml:space="preserve">
<style type="text/css">
	.st0{fill:#FFFFFF;}
	.st1{fill:#ED1C24;}
	.st2{fill:#FFCB05;}
	.st3{fill:#21409A;}
	.st4{fill:#D4D5D6;}
	.st5{fill:#000100;}
	.st6{fill:#300505;}
	.st7{fill:#BFD730;}
	.st8{fill:#F15A22;}
</style>
<g>
	<path class="st0" d="M58.335,17.246H15.093c-1.563,0-2.836,1.272-2.836,2.836v62.82c0,1.563,1.272,2.836,2.836,2.836h43.241
		c1.563,0,2.835-1.272,2.835-2.836v-62.82C61.17,18.519,59.898,17.246,58.335,17.246z M24.073,25.503
		c0.816-0.731,1.9-1.706,2.594-2.729c0.696,1.023,1.779,1.998,2.596,2.729c1.63,1.46,3.181,3.002,3.181,5.326
		c0,3.318-4.008,4.411-5.496,1.48c0.137,1.292,0.739,3.262,1.955,3.731h-4.468c1.215-0.469,1.817-2.439,1.955-3.731
		c-1.49,2.931-5.498,1.838-5.498-1.48C20.89,28.505,22.443,26.963,24.073,25.503z M16.865,33.441
		c0.055,0.521,0.298,1.316,0.788,1.505h-1.802c0.491-0.189,0.733-0.984,0.788-1.505c-0.6,1.182-2.216,0.742-2.216-0.596
		c0-0.937,0.626-1.559,1.282-2.147c0.33-0.294,0.767-0.688,1.047-1.101c0.281,0.413,0.717,0.807,1.046,1.101
		c0.658,0.589,1.283,1.211,1.283,2.147C19.082,34.183,17.466,34.624,16.865,33.441z M19.156,21.775
		c-0.654,0.954-1.127,1.845-1.445,2.736c-0.191,0.518-0.336,1.081-0.436,1.609c-0.073,0.445-0.073,0.445-0.109,1.218
		c-0.009,0.255-0.064,0.4-0.182,0.491c-0.118,0.091-0.327,0.145-0.582,0.145c-0.4,0-0.6-0.145-0.6-0.436
		c0-0.6,0.482-1.827,1.254-3.154c0.364-0.646,0.745-1.236,1.473-2.282H15.82c-0.382,0-0.545,0.082-0.718,0.364
		c-0.109,0.173-0.182,0.4-0.273,0.809l-0.3-0.036l0.282-2.109h4.345V21.775z M29.262,77.481c-0.817,0.731-1.899,1.706-2.596,2.73
		c-0.694-1.023-1.778-1.998-2.594-2.73c-1.63-1.459-3.182-3.001-3.182-5.326c0-3.318,4.008-4.411,5.498-1.479
		c-0.138-1.293-0.739-3.262-1.955-3.732h4.468c-1.216,0.47-1.817,2.439-1.955,3.732c1.489-2.931,5.496-1.839,5.496,1.479
		C32.443,74.48,30.892,76.022,29.262,77.481z M26.947,54.389c0.137,1.292,0.739,3.262,1.955,3.732h-4.468
		c1.215-0.47,1.817-2.439,1.955-3.732c-1.49,2.932-5.498,1.838-5.498-1.48c0-2.325,1.552-3.866,3.182-5.326
		c0.816-0.73,1.9-1.706,2.594-2.73c0.696,1.023,1.779,2,2.596,2.73c1.63,1.46,3.181,3.001,3.181,5.326
		C32.443,56.227,28.436,57.321,26.947,54.389z M38.944,47.081h-4.468c1.216-0.47,1.817-2.439,1.954-3.732
		c-1.49,2.931-5.497,1.839-5.497-1.479c0-2.325,1.552-3.867,3.182-5.326c0.817-0.731,1.9-1.706,2.594-2.73
		c0.695,1.023,1.778,1.998,2.596,2.73c1.63,1.459,3.181,3.001,3.181,5.326c0,3.318-4.008,4.411-5.497,1.479
		C37.128,44.642,37.729,46.611,38.944,47.081z M49.351,77.481c-0.817,0.731-1.899,1.706-2.595,2.73
		c-0.695-1.023-1.778-1.998-2.595-2.73c-1.629-1.459-3.181-3.001-3.181-5.326c0-3.318,4.007-4.411,5.497-1.479
		c-0.137-1.293-0.738-3.262-1.954-3.732h4.468c-1.216,0.47-1.817,2.439-1.954,3.732c1.487-2.931,5.496-1.839,5.496,1.479
		C52.532,74.48,50.981,76.022,49.351,77.481z M47.036,54.389c0.137,1.292,0.738,3.262,1.954,3.732h-4.468
		c1.216-0.47,1.817-2.439,1.954-3.732c-1.49,2.932-5.497,1.838-5.497-1.48c0-2.325,1.552-3.866,3.181-5.326
		c0.817-0.73,1.9-1.706,2.595-2.73c0.696,1.023,1.778,2,2.595,2.73c1.63,1.46,3.181,3.001,3.181,5.326
		C52.532,56.227,48.524,57.321,47.036,54.389z M47.036,32.31c0.137,1.292,0.738,3.262,1.954,3.731h-4.468
		c1.216-0.469,1.817-2.439,1.954-3.731c-1.49,2.931-5.497,1.838-5.497-1.48c0-2.325,1.552-3.866,3.181-5.326
		c0.817-0.731,1.9-1.706,2.595-2.729c0.696,1.023,1.778,1.998,2.595,2.729c1.63,1.46,3.181,3.002,3.181,5.326
		C52.532,34.147,48.524,35.241,47.036,32.31z M58.615,81.856H54.27v-0.646c0.655-0.954,1.127-1.845,1.445-2.736
		c0.191-0.518,0.336-1.081,0.436-1.609c0.073-0.445,0.073-0.445,0.109-1.218c0.009-0.255,0.064-0.4,0.182-0.491
		c0.118-0.091,0.327-0.145,0.582-0.145c0.4,0,0.6,0.145,0.6,0.436c0,0.6-0.482,1.827-1.254,3.154
		c-0.364,0.646-0.745,1.236-1.473,2.282h2.709c0.382,0,0.545-0.082,0.718-0.364c0.109-0.173,0.182-0.4,0.273-0.809l0.3,0.036
		L58.615,81.856z M57.721,72.288c-0.328,0.295-0.765,0.688-1.045,1.101c-0.282-0.413-0.719-0.806-1.047-1.101
		c-0.657-0.588-1.283-1.211-1.283-2.148c0-1.337,1.616-1.778,2.216-0.596c-0.055-0.521-0.297-1.315-0.787-1.505h1.801
		c-0.49,0.19-0.733,0.984-0.788,1.505c0.6-1.182,2.216-0.741,2.216,0.596C59.004,71.077,58.379,71.7,57.721,72.288z"/>
	<path d="M58.335,16.817H15.093c-1.801,0-3.266,1.465-3.266,3.266v62.82c0,1.801,1.465,3.266,3.266,3.266h43.241
		c1.8,0,3.265-1.465,3.265-3.266v-62.82C61.599,18.282,60.134,16.817,58.335,16.817z M61.17,82.903c0,1.563-1.271,2.836-2.835,2.836
		H15.093c-1.563,0-2.836-1.272-2.836-2.836v-62.82c0-1.563,1.272-2.836,2.836-2.836h43.241c1.563,0,2.835,1.272,2.835,2.836V82.903z
		"/>
	<path class="st5" d="M14.529,23.238l0.3,0.036c0.091-0.409,0.163-0.636,0.273-0.809c0.173-0.282,0.336-0.364,0.718-0.364h2.709
		c-0.727,1.045-1.109,1.636-1.473,2.282c-0.773,1.327-1.254,2.554-1.254,3.154c0,0.291,0.2,0.436,0.6,0.436
		c0.254,0,0.464-0.055,0.582-0.145c0.118-0.091,0.173-0.236,0.182-0.491c0.036-0.772,0.036-0.772,0.109-1.218
		c0.1-0.528,0.245-1.091,0.436-1.609c0.318-0.891,0.791-1.782,1.445-2.736v-0.646h-4.345L14.529,23.238z"/>
	<path class="st5" d="M58.324,80.52c-0.173,0.282-0.336,0.364-0.718,0.364h-2.709c0.727-1.045,1.109-1.636,1.473-2.282
		c0.772-1.327,1.254-2.554,1.254-3.154c0-0.291-0.2-0.436-0.6-0.436c-0.254,0-0.464,0.055-0.582,0.145
		c-0.118,0.091-0.173,0.236-0.182,0.491c-0.036,0.772-0.036,0.772-0.109,1.218c-0.1,0.528-0.245,1.091-0.436,1.609
		c-0.318,0.891-0.791,1.782-1.445,2.736v0.646h4.345l0.282-2.109l-0.3-0.036C58.506,80.12,58.433,80.347,58.324,80.52z"/>
	<path d="M42.487,41.87c0-2.325-1.551-3.867-3.181-5.326c-0.818-0.731-1.9-1.706-2.596-2.73c-0.695,1.023-1.778,1.998-2.594,2.73
		c-1.63,1.459-3.182,3.001-3.182,5.326c0,3.318,4.008,4.411,5.497,1.479c-0.137,1.293-0.739,3.262-1.954,3.732h4.468
		c-1.215-0.47-1.816-2.439-1.954-3.732C38.479,46.281,42.487,45.188,42.487,41.87z"/>
	<path d="M29.262,47.583c-0.817-0.73-1.899-1.706-2.596-2.73c-0.694,1.023-1.778,2-2.594,2.73c-1.63,1.46-3.182,3.001-3.182,5.326
		c0,3.318,4.008,4.412,5.498,1.48c-0.138,1.292-0.739,3.262-1.955,3.732h4.468c-1.216-0.47-1.817-2.439-1.955-3.732
		c1.489,2.932,5.496,1.838,5.496-1.48C32.443,50.584,30.892,49.043,29.262,47.583z"/>
	<path d="M49.351,47.583c-0.817-0.73-1.899-1.706-2.595-2.73c-0.695,1.023-1.778,2-2.595,2.73c-1.629,1.46-3.181,3.001-3.181,5.326
		c0,3.318,4.007,4.412,5.497,1.48c-0.137,1.292-0.738,3.262-1.954,3.732h4.468c-1.216-0.47-1.817-2.439-1.954-3.732
		c1.487,2.932,5.496,1.838,5.496-1.48C52.532,50.584,50.981,49.043,49.351,47.583z"/>
	<path d="M26.388,32.31c-0.138,1.292-0.739,3.262-1.955,3.731h4.468c-1.216-0.469-1.817-2.439-1.955-3.731
		c1.489,2.931,5.496,1.838,5.496-1.48c0-2.325-1.551-3.866-3.181-5.326c-0.817-0.731-1.899-1.706-2.596-2.729
		c-0.694,1.023-1.778,1.998-2.594,2.729c-1.63,1.46-3.182,3.002-3.182,5.326C20.89,34.147,24.898,35.241,26.388,32.31z"/>
	<path d="M49.351,25.503c-0.817-0.731-1.899-1.706-2.595-2.729c-0.695,1.023-1.778,1.998-2.595,2.729
		c-1.629,1.46-3.181,3.002-3.181,5.326c0,3.318,4.007,4.411,5.497,1.48c-0.137,1.292-0.738,3.262-1.954,3.731h4.468
		c-1.216-0.469-1.817-2.439-1.954-3.731c1.487,2.931,5.496,1.838,5.496-1.48C52.532,28.505,50.981,26.963,49.351,25.503z"/>
	<path d="M26.947,70.676c0.137-1.293,0.739-3.262,1.955-3.732h-4.468c1.215,0.47,1.817,2.439,1.955,3.732
		c-1.49-2.931-5.498-1.839-5.498,1.479c0,2.325,1.552,3.867,3.182,5.326c0.816,0.731,1.9,1.706,2.594,2.73
		c0.696-1.023,1.779-1.998,2.596-2.73c1.63-1.459,3.181-3.001,3.181-5.326C32.443,68.837,28.436,67.745,26.947,70.676z"/>
	<path d="M47.036,70.676c0.137-1.293,0.738-3.262,1.954-3.732h-4.468c1.216,0.47,1.817,2.439,1.954,3.732
		c-1.49-2.931-5.497-1.839-5.497,1.479c0,2.325,1.552,3.867,3.181,5.326c0.817,0.731,1.9,1.706,2.595,2.73
		c0.696-1.023,1.778-1.998,2.595-2.73c1.63-1.459,3.181-3.001,3.181-5.326C52.532,68.837,48.524,67.745,47.036,70.676z"/>
	<path d="M17.799,30.697c-0.329-0.294-0.765-0.688-1.046-1.101c-0.281,0.413-0.717,0.807-1.047,1.101
		c-0.656,0.589-1.282,1.211-1.282,2.147c0,1.338,1.616,1.779,2.216,0.596c-0.055,0.521-0.297,1.316-0.788,1.505h1.802
		c-0.491-0.189-0.733-0.984-0.788-1.505c0.601,1.182,2.216,0.742,2.216-0.596C19.082,31.908,18.456,31.286,17.799,30.697z"/>
	<path d="M56.788,69.544c0.055-0.521,0.298-1.315,0.788-1.505h-1.801c0.49,0.19,0.732,0.984,0.787,1.505
		c-0.6-1.182-2.216-0.741-2.216,0.596c0,0.937,0.626,1.56,1.283,2.148c0.329,0.295,0.765,0.688,1.047,1.101
		c0.279-0.413,0.716-0.806,1.045-1.101c0.658-0.588,1.283-1.211,1.283-2.148C59.004,68.802,57.388,68.362,56.788,69.544z"/>
</g>
</svg>
