<?xml version="1.0" encoding="utf-8"?>
<!-- Generator: Adobe Illustrator 23.0.2, SVG Export Plug-In . SVG Version: 6.00 Build 0)  -->
<svg version="1.1" id="Layer_1" xmlns="http://www.w3.org/2000/svg" xmlns:xlink="http://www.w3.org/1999/xlink" x="0px" y="0px"
	 viewBox="0 0 82.452 99.776" style="enable-background:new 0 0 82.452 99.776;" xml:space="preserve">
<style type="text/css">
	.st0{fill:#FFFFFF;}
	.st1{fill:#ED1C24;}
	.st2{fill:#FFCB05;}
	.st3{fill:#21409A;}
	.st4{fill:#D4D5D6;}
	.st5{fill:#000100;}
	.st6{fill:#300505;}
	.st7{fill:#BFD730;}
	.st8{fill:#F15A22;}
</style>
<g>
	<path class="st0" d="M62.964,18.992h-43.24c-1.564,0-2.837,1.272-2.837,2.836v62.82c0,1.564,1.272,2.836,2.837,2.836h43.24
		c1.563,0,2.836-1.272,2.836-2.836v-62.82C65.8,20.264,64.527,18.992,62.964,18.992z M39.295,39.925
		c-0.003-0.005-0.007-0.01-0.011-0.016l-0.002-0.001c-0.372-0.459-0.597-1.043-0.597-1.679c0-1.469,1.191-2.66,2.659-2.66
		c1.469,0,2.658,1.191,2.658,2.66c0,0.636-0.222,1.22-0.595,1.679l-0.002,0.001c-0.002,0.006-0.008,0.011-0.013,0.016l-0.895,1.124
		l1.4-0.327c0.007-0.001,0.015-0.001,0.019-0.004h0.003c0.571-0.141,1.195-0.093,1.771,0.179c1.328,0.629,1.894,2.215,1.264,3.542
		c-0.628,1.327-2.214,1.893-3.542,1.264c-0.576-0.272-1.008-0.726-1.263-1.26c-0.001-0.007-0.005-0.014-0.008-0.019l-0.55-1.121
		v1.263c0,1.194,0.586,3.719,1.984,4.26H39.11c1.397-0.542,1.986-3.066,1.986-4.26v-1.263l-0.55,1.121
		c-0.002,0.005-0.006,0.012-0.008,0.019h-0.001c-0.253,0.533-0.684,0.988-1.259,1.26c-1.329,0.629-2.916,0.064-3.544-1.264
		c-0.629-1.327-0.064-2.913,1.263-3.542c0.576-0.272,1.201-0.32,1.774-0.179h0.002c0.006,0.002,0.014,0.002,0.019,0.004l1.398,0.327
		L39.295,39.925z M26.951,29.857c0.577-0.272,1.201-0.32,1.773-0.179h0.003c0.005,0.003,0.013,0.003,0.019,0.004l1.4,0.327
		l-0.895-1.124c-0.005-0.006-0.01-0.011-0.012-0.016l-0.001-0.001c-0.374-0.459-0.597-1.043-0.597-1.679
		c0-1.469,1.189-2.66,2.658-2.66c1.468,0,2.659,1.191,2.659,2.66c0,0.636-0.225,1.22-0.597,1.679l-0.002,0.001
		c-0.003,0.005-0.008,0.01-0.011,0.016l-0.895,1.124l1.398-0.327c0.006-0.001,0.014-0.001,0.021-0.004h0.001
		c0.573-0.141,1.198-0.093,1.773,0.179c1.328,0.629,1.893,2.214,1.264,3.542c-0.629,1.327-2.214,1.893-3.544,1.263
		c-0.575-0.272-1.006-0.726-1.259-1.26h-0.001c-0.002-0.007-0.006-0.014-0.008-0.019l-0.55-1.12v1.263
		c0,1.194,0.589,3.719,1.986,4.26h-4.465c1.397-0.542,1.984-3.066,1.984-4.26v-1.263l-0.549,1.12
		c-0.005,0.005-0.008,0.012-0.009,0.019c-0.254,0.533-0.687,0.988-1.263,1.26c-1.328,0.63-2.913,0.064-3.542-1.263
		C25.058,32.071,25.623,30.486,26.951,29.857z M26.951,51.937c0.577-0.272,1.201-0.32,1.773-0.179h0.003
		c0.005,0.003,0.013,0.003,0.019,0.004l1.4,0.327l-0.895-1.124c-0.005-0.006-0.01-0.011-0.012-0.016l-0.001-0.001
		c-0.374-0.459-0.597-1.043-0.597-1.679c0-1.469,1.189-2.66,2.658-2.66c1.468,0,2.659,1.191,2.659,2.66
		c0,0.636-0.225,1.22-0.597,1.679l-0.002,0.001c-0.003,0.005-0.008,0.01-0.011,0.016l-0.895,1.124l1.398-0.327
		c0.006-0.001,0.014-0.001,0.021-0.004h0.001c0.573-0.141,1.198-0.093,1.773,0.179c1.328,0.628,1.893,2.214,1.264,3.542
		c-0.629,1.327-2.214,1.893-3.544,1.263c-0.575-0.272-1.006-0.726-1.259-1.26h-0.001c-0.002-0.007-0.006-0.014-0.008-0.019
		l-0.55-1.12v1.263c0,1.194,0.589,3.719,1.986,4.26h-4.465c1.397-0.542,1.984-3.066,1.984-4.26v-1.263l-0.549,1.12
		c-0.005,0.005-0.008,0.012-0.009,0.019c-0.254,0.533-0.687,0.988-1.263,1.26c-1.328,0.63-2.913,0.064-3.542-1.263
		C25.058,54.151,25.623,52.565,26.951,51.937z M23.647,34.92c-0.254,0.536-0.895,0.764-1.432,0.51
		c-0.232-0.11-0.406-0.293-0.508-0.509h-0.001c-0.001-0.003-0.002-0.005-0.003-0.008l-0.222-0.452v0.51
		c0,0.482,0.237,1.502,0.802,1.72h-1.802c0.564-0.218,0.801-1.238,0.801-1.72v-0.51l-0.222,0.452
		c-0.001,0.002-0.002,0.005-0.003,0.008c-0.102,0.216-0.276,0.399-0.509,0.509c-0.536,0.254-1.177,0.025-1.43-0.51
		c-0.254-0.536-0.026-1.177,0.51-1.43c0.233-0.11,0.485-0.129,0.716-0.072c0.002,0.001,0.006,0.001,0.008,0.001l0.565,0.132
		l-0.36-0.454c-0.002-0.002-0.005-0.004-0.005-0.006l-0.001,0c-0.152-0.186-0.241-0.421-0.241-0.678c0-0.593,0.48-1.074,1.073-1.074
		c0.593,0,1.073,0.481,1.073,1.074c0,0.257-0.091,0.492-0.241,0.678l-0.001,0c-0.002,0.002-0.003,0.004-0.005,0.006l-0.362,0.454
		l0.565-0.132c0.002-0.001,0.006-0.001,0.008-0.001h0.001c0.232-0.057,0.484-0.038,0.715,0.072
		C23.672,33.743,23.9,34.384,23.647,34.92z M21.404,29.683c-1.409,0-2.272-0.637-2.272-1.682c0-0.527,0.236-1,0.672-1.336
		c0.219-0.173,0.427-0.273,0.818-0.427c-0.955-0.5-1.3-0.936-1.3-1.682c0-1.109,0.854-1.827,2.191-1.827
		c1.236,0,2.063,0.645,2.063,1.591c0,0.718-0.463,1.236-1.345,1.5c1.127,0.5,1.6,1.082,1.6,1.954
		C23.831,28.937,22.885,29.683,21.404,29.683z M35.644,76.618c-0.575,0.272-1.2,0.32-1.773,0.179H33.87
		c-0.007-0.002-0.015-0.002-0.021-0.004l-1.398-0.327l0.895,1.124c0.003,0.005,0.008,0.01,0.011,0.016l0.002,0.001
		c0.372,0.459,0.597,1.043,0.597,1.679c0,1.469-1.191,2.66-2.659,2.66c-1.469,0-2.658-1.191-2.658-2.66
		c0-0.636,0.222-1.22,0.597-1.679l0.001-0.001c0.002-0.006,0.008-0.011,0.012-0.016l0.895-1.124l-1.4,0.327
		c-0.007,0.001-0.015,0.001-0.019,0.004h-0.003c-0.571,0.141-1.195,0.093-1.773-0.179c-1.328-0.629-1.892-2.215-1.263-3.542
		c0.629-1.327,2.214-1.893,3.542-1.264c0.576,0.272,1.008,0.726,1.263,1.26c0.001,0.007,0.005,0.014,0.009,0.019l0.549,1.121v-1.263
		c0-1.194-0.586-3.719-1.984-4.26h4.465c-1.397,0.542-1.986,3.067-1.986,4.26v1.263l0.55-1.121c0.002-0.005,0.006-0.012,0.008-0.019
		h0.001c0.253-0.533,0.684-0.988,1.259-1.26c1.33-0.63,2.916-0.064,3.544,1.264C37.537,74.404,36.971,75.99,35.644,76.618z
		 M43.391,66.55c0.005,0.006,0.01,0.011,0.013,0.016l0.002,0.001c0.373,0.459,0.595,1.043,0.595,1.679
		c0,1.469-1.189,2.66-2.658,2.66c-1.468,0-2.659-1.191-2.659-2.66c0-0.636,0.225-1.22,0.597-1.679l0.002-0.001
		c0.005-0.005,0.008-0.01,0.011-0.016l0.895-1.124l-1.398,0.327c-0.006,0.001-0.014,0.001-0.019,0.004H38.77
		c-0.573,0.141-1.198,0.093-1.774-0.179c-1.327-0.629-1.891-2.214-1.263-3.542c0.629-1.327,2.215-1.893,3.544-1.263
		c0.575,0.272,1.006,0.726,1.259,1.26h0.001c0.002,0.007,0.006,0.014,0.008,0.019l0.55,1.12v-1.263c0-1.194-0.589-3.719-1.986-4.26
		h4.465c-1.397,0.542-1.984,3.066-1.984,4.26v1.263l0.55-1.12c0.003-0.005,0.007-0.012,0.008-0.019
		c0.254-0.533,0.687-0.988,1.263-1.26c1.328-0.63,2.913-0.064,3.542,1.263c0.63,1.327,0.064,2.913-1.264,3.542
		c-0.576,0.272-1.2,0.32-1.771,0.179h-0.003c-0.005-0.003-0.013-0.003-0.019-0.004l-1.4-0.327L43.391,66.55z M55.735,76.618
		c-0.576,0.272-1.201,0.32-1.773,0.179H53.96c-0.006-0.002-0.013-0.002-0.019-0.004l-1.4-0.327l0.894,1.124
		c0.006,0.005,0.01,0.01,0.013,0.016l0.002,0.001c0.374,0.459,0.597,1.043,0.597,1.679c0,1.469-1.19,2.66-2.658,2.66
		c-1.469,0-2.659-1.191-2.659-2.66c0-0.636,0.225-1.22,0.597-1.679l0.001-0.001c0.005-0.006,0.008-0.011,0.013-0.016l0.895-1.124
		l-1.398,0.327c-0.006,0.001-0.014,0.001-0.021,0.004h-0.002c-0.573,0.141-1.198,0.093-1.773-0.179
		c-1.327-0.629-1.892-2.215-1.264-3.542c0.628-1.327,2.215-1.893,3.545-1.264c0.575,0.272,1.006,0.726,1.258,1.26h0.001
		c0.002,0.007,0.006,0.014,0.009,0.019l0.549,1.121v-1.263c0-1.194-0.588-3.719-1.985-4.26h4.463
		c-1.396,0.542-1.982,3.067-1.982,4.26v1.263l0.549-1.121c0.005-0.005,0.008-0.012,0.009-0.019c0.254-0.533,0.686-0.988,1.263-1.26
		c1.327-0.63,2.913-0.064,3.542,1.264C57.629,74.404,57.063,75.99,55.735,76.618z M56.999,55.478
		c-0.629,1.327-2.215,1.893-3.542,1.263c-0.577-0.272-1.008-0.726-1.263-1.26c-0.001-0.007-0.005-0.014-0.009-0.019l-0.549-1.12
		v1.263c0,1.194,0.586,3.719,1.982,4.26h-4.463c1.397-0.542,1.985-3.066,1.985-4.26v-1.263l-0.549,1.12
		c-0.003,0.005-0.007,0.012-0.009,0.019h-0.001c-0.252,0.533-0.683,0.988-1.258,1.26c-1.33,0.63-2.917,0.064-3.545-1.263
		c-0.629-1.327-0.063-2.913,1.264-3.542c0.575-0.272,1.2-0.32,1.773-0.179h0.002c0.007,0.003,0.015,0.003,0.021,0.004l1.398,0.327
		l-0.895-1.124c-0.005-0.006-0.008-0.011-0.013-0.016l-0.001-0.001c-0.372-0.459-0.597-1.043-0.597-1.679
		c0-1.469,1.19-2.66,2.659-2.66c1.468,0,2.658,1.191,2.658,2.66c0,0.636-0.222,1.22-0.597,1.679l-0.002,0.001
		c-0.002,0.005-0.007,0.01-0.013,0.016l-0.894,1.124l1.4-0.327c0.007-0.001,0.014-0.001,0.019-0.004h0.002
		c0.571-0.141,1.197-0.093,1.773,0.179C57.063,52.565,57.629,54.151,56.999,55.478z M56.999,33.399
		c-0.629,1.327-2.215,1.893-3.542,1.263c-0.577-0.272-1.008-0.726-1.263-1.26c-0.001-0.007-0.005-0.014-0.009-0.019l-0.549-1.12
		v1.263c0,1.194,0.586,3.719,1.982,4.26h-4.463c1.397-0.542,1.985-3.066,1.985-4.26v-1.263l-0.549,1.12
		c-0.003,0.005-0.007,0.012-0.009,0.019h-0.001c-0.252,0.533-0.683,0.988-1.258,1.26c-1.33,0.63-2.917,0.064-3.545-1.263
		c-0.629-1.328-0.063-2.913,1.264-3.542c0.575-0.272,1.2-0.32,1.773-0.179h0.002c0.007,0.003,0.015,0.003,0.021,0.004l1.398,0.327
		l-0.895-1.124c-0.005-0.006-0.008-0.011-0.013-0.016l-0.001-0.001c-0.372-0.459-0.597-1.043-0.597-1.679
		c0-1.469,1.19-2.66,2.659-2.66c1.468,0,2.658,1.191,2.658,2.66c0,0.636-0.222,1.22-0.597,1.679l-0.002,0.001
		c-0.002,0.005-0.007,0.01-0.013,0.016l-0.894,1.124l1.4-0.327c0.007-0.001,0.014-0.001,0.019-0.004h0.002
		c0.571-0.141,1.197-0.093,1.773,0.179C57.063,30.486,57.629,32.071,56.999,33.399z M63.364,81.92c0,1.109-0.854,1.827-2.191,1.827
		c-1.236,0-2.063-0.645-2.063-1.591c0-0.718,0.463-1.236,1.345-1.5c-1.127-0.5-1.6-1.082-1.6-1.954c0-1.164,0.946-1.909,2.427-1.909
		c1.409,0,2.272,0.636,2.272,1.681c0,0.527-0.236,1-0.672,1.336c-0.218,0.173-0.427,0.273-0.818,0.427
		C63.019,80.738,63.364,81.174,63.364,81.92z M63.06,72.986c-0.232,0.11-0.484,0.129-0.715,0.072
		c-0.003-0.001-0.006-0.001-0.008-0.001l-0.565-0.132l0.36,0.454c0.002,0.002,0.003,0.004,0.006,0.006v0
		c0.151,0.186,0.241,0.421,0.241,0.678c0,0.593-0.48,1.074-1.073,1.074s-1.075-0.481-1.075-1.074c0-0.257,0.091-0.493,0.243-0.678v0
		c0.001-0.002,0.003-0.004,0.005-0.006l0.362-0.454l-0.565,0.132c-0.002,0-0.006,0-0.008,0.001
		c-0.233,0.057-0.484,0.038-0.717-0.072c-0.536-0.254-0.763-0.894-0.51-1.43c0.254-0.536,0.895-0.764,1.431-0.51
		c0.232,0.11,0.406,0.293,0.509,0.509c0.001,0.003,0.002,0.006,0.003,0.008l0.221,0.453v-0.51c0-0.482-0.237-1.501-0.802-1.72h1.803
		c-0.565,0.219-0.802,1.239-0.802,1.72v0.51l0.222-0.453c0.002-0.002,0.003-0.005,0.003-0.008c0.103-0.215,0.277-0.399,0.51-0.509
		c0.536-0.254,1.177-0.026,1.43,0.51C63.825,72.091,63.597,72.732,63.06,72.986z"/>
	<path class="st0" d="M61.719,81.265c-0.136-0.082-0.309-0.182-0.591-0.309c-0.1-0.045-0.4-0.182-0.4-0.182
		c-0.245,0.136-0.345,0.209-0.472,0.382c-0.191,0.263-0.282,0.573-0.282,0.991c0,0.291,0.082,0.609,0.209,0.827
		c0.209,0.337,0.573,0.527,1.036,0.527c0.718,0,1.164-0.445,1.164-1.145C62.383,81.901,62.182,81.574,61.719,81.265z"/>
	<path class="st0" d="M61.219,77.029c-0.791,0-1.336,0.536-1.336,1.309c0,0.455,0.191,0.782,0.646,1.109
		c0.182,0.136,0.473,0.291,0.836,0.464c0.118,0.054,0.4,0.182,0.409,0.182c0.273-0.145,0.4-0.245,0.537-0.409
		c0.227-0.264,0.354-0.664,0.354-1.1C62.664,77.648,62.083,77.029,61.219,77.029z"/>
	<path class="st0" d="M20.967,25.21c0.136,0.082,0.309,0.182,0.591,0.309c0.1,0.045,0.4,0.182,0.4,0.182
		c0.245-0.136,0.345-0.209,0.472-0.382c0.191-0.264,0.282-0.573,0.282-0.991c0-0.291-0.082-0.609-0.209-0.827
		c-0.209-0.336-0.573-0.527-1.036-0.527c-0.718,0-1.163,0.445-1.163,1.145C20.304,24.574,20.504,24.901,20.967,25.21z"/>
	<path class="st0" d="M22.158,27.028c-0.182-0.136-0.473-0.291-0.836-0.464c-0.118-0.054-0.4-0.182-0.409-0.182
		c-0.273,0.145-0.4,0.246-0.537,0.409c-0.227,0.264-0.354,0.664-0.354,1.1c0,0.936,0.582,1.554,1.445,1.554
		c0.79,0,1.336-0.536,1.336-1.309C22.804,27.683,22.613,27.356,22.158,27.028z"/>
	<path d="M62.964,18.562h-43.24c-1.802,0-3.267,1.465-3.267,3.266v62.82c0,1.801,1.465,3.266,3.267,3.266h43.24
		c1.801,0,3.266-1.465,3.266-3.266v-62.82C66.229,20.027,64.765,18.562,62.964,18.562z M65.8,84.648
		c0,1.564-1.272,2.836-2.836,2.836h-43.24c-1.564,0-2.837-1.272-2.837-2.836v-62.82c0-1.563,1.272-2.836,2.837-2.836h43.24
		c1.563,0,2.836,1.272,2.836,2.836V84.648z"/>
	<path d="M23.136,33.49c-0.232-0.11-0.484-0.129-0.715-0.072H22.42c-0.002,0.001-0.006,0.001-0.008,0.001l-0.565,0.132l0.362-0.454
		c0.001-0.002,0.002-0.004,0.005-0.006l0.001,0c0.149-0.186,0.241-0.421,0.241-0.678c0-0.593-0.48-1.074-1.073-1.074
		c-0.593,0-1.073,0.481-1.073,1.074c0,0.257,0.089,0.492,0.241,0.678l0.001,0c0,0.002,0.002,0.004,0.005,0.006l0.36,0.454
		l-0.565-0.132c-0.002-0.001-0.006-0.001-0.008-0.001c-0.232-0.057-0.484-0.038-0.716,0.072c-0.536,0.253-0.764,0.894-0.51,1.43
		c0.253,0.536,0.894,0.764,1.43,0.51c0.233-0.11,0.407-0.293,0.509-0.509c0.001-0.003,0.002-0.005,0.003-0.008l0.222-0.452v0.51
		c0,0.482-0.237,1.502-0.801,1.72h1.802c-0.565-0.218-0.802-1.238-0.802-1.72v-0.51l0.222,0.452
		c0.001,0.002,0.002,0.005,0.003,0.008h0.001c0.102,0.216,0.276,0.399,0.508,0.509c0.536,0.254,1.177,0.025,1.432-0.51
		C23.9,34.384,23.672,33.743,23.136,33.49z"/>
	<path d="M29.23,34.662c0.576-0.272,1.008-0.726,1.263-1.26c0.001-0.007,0.005-0.014,0.009-0.019l0.549-1.12v1.263
		c0,1.194-0.586,3.719-1.984,4.26h4.465c-1.397-0.542-1.986-3.066-1.986-4.26v-1.263l0.55,1.12c0.002,0.005,0.006,0.012,0.008,0.019
		h0.001c0.253,0.533,0.684,0.988,1.259,1.26c1.33,0.63,2.916,0.064,3.544-1.263c0.63-1.328,0.064-2.913-1.264-3.542
		c-0.575-0.272-1.2-0.32-1.773-0.179H33.87c-0.007,0.003-0.015,0.003-0.021,0.004l-1.398,0.327l0.895-1.124
		c0.003-0.006,0.008-0.011,0.011-0.016l0.002-0.001c0.372-0.459,0.597-1.043,0.597-1.679c0-1.469-1.191-2.66-2.659-2.66
		c-1.469,0-2.658,1.191-2.658,2.66c0,0.636,0.222,1.22,0.597,1.679l0.001,0.001c0.002,0.005,0.008,0.01,0.012,0.016l0.895,1.124
		l-1.4-0.327c-0.007-0.001-0.015-0.001-0.019-0.004h-0.003c-0.571-0.141-1.195-0.093-1.773,0.179
		c-1.328,0.629-1.892,2.214-1.263,3.542C26.316,34.726,27.902,35.292,29.23,34.662z"/>
	<path d="M55.735,29.857c-0.576-0.272-1.201-0.32-1.773-0.179H53.96c-0.006,0.003-0.013,0.003-0.019,0.004l-1.4,0.327l0.894-1.124
		c0.006-0.006,0.01-0.011,0.013-0.016l0.002-0.001c0.374-0.459,0.597-1.043,0.597-1.679c0-1.469-1.19-2.66-2.658-2.66
		c-1.469,0-2.659,1.191-2.659,2.66c0,0.636,0.225,1.22,0.597,1.679l0.001,0.001c0.005,0.005,0.008,0.01,0.013,0.016l0.895,1.124
		l-1.398-0.327c-0.006-0.001-0.014-0.001-0.021-0.004h-0.002c-0.573-0.141-1.198-0.093-1.773,0.179
		c-1.327,0.629-1.892,2.214-1.264,3.542c0.628,1.327,2.215,1.893,3.545,1.263c0.575-0.272,1.006-0.726,1.258-1.26h0.001
		c0.002-0.007,0.006-0.014,0.009-0.019l0.549-1.12v1.263c0,1.194-0.588,3.719-1.985,4.26h4.463c-1.396-0.542-1.982-3.066-1.982-4.26
		v-1.263l0.549,1.12c0.005,0.005,0.008,0.012,0.009,0.019c0.254,0.533,0.686,0.988,1.263,1.26c1.327,0.63,2.913,0.064,3.542-1.263
		C57.629,32.071,57.063,30.486,55.735,29.857z"/>
	<path d="M29.23,56.742c0.576-0.272,1.008-0.726,1.263-1.26c0.001-0.007,0.005-0.014,0.009-0.019l0.549-1.12v1.263
		c0,1.194-0.586,3.719-1.984,4.26h4.465c-1.397-0.542-1.986-3.066-1.986-4.26v-1.263l0.55,1.12c0.002,0.005,0.006,0.012,0.008,0.019
		h0.001c0.253,0.533,0.684,0.988,1.259,1.26c1.33,0.63,2.916,0.064,3.544-1.263c0.63-1.327,0.064-2.913-1.264-3.542
		c-0.575-0.272-1.2-0.32-1.773-0.179H33.87c-0.007,0.003-0.015,0.003-0.021,0.004l-1.398,0.327l0.895-1.124
		c0.003-0.006,0.008-0.011,0.011-0.016l0.002-0.001c0.372-0.459,0.597-1.043,0.597-1.679c0-1.469-1.191-2.66-2.659-2.66
		c-1.469,0-2.658,1.191-2.658,2.66c0,0.636,0.222,1.22,0.597,1.679l0.001,0.001c0.002,0.005,0.008,0.01,0.012,0.016l0.895,1.124
		l-1.4-0.327c-0.007-0.001-0.015-0.001-0.019-0.004h-0.003c-0.571-0.141-1.195-0.093-1.773,0.179
		c-1.328,0.628-1.892,2.214-1.263,3.542C26.316,56.806,27.902,57.371,29.23,56.742z"/>
	<path d="M55.735,51.937c-0.576-0.272-1.201-0.32-1.773-0.179H53.96c-0.006,0.003-0.013,0.003-0.019,0.004l-1.4,0.327l0.894-1.124
		c0.006-0.006,0.01-0.011,0.013-0.016l0.002-0.001c0.374-0.459,0.597-1.043,0.597-1.679c0-1.469-1.19-2.66-2.658-2.66
		c-1.469,0-2.659,1.191-2.659,2.66c0,0.636,0.225,1.22,0.597,1.679l0.001,0.001c0.005,0.005,0.008,0.01,0.013,0.016l0.895,1.124
		l-1.398-0.327c-0.006-0.001-0.014-0.001-0.021-0.004h-0.002c-0.573-0.141-1.198-0.093-1.773,0.179
		c-1.327,0.628-1.892,2.214-1.264,3.542c0.628,1.327,2.215,1.893,3.545,1.263c0.575-0.272,1.006-0.726,1.258-1.26h0.001
		c0.002-0.007,0.006-0.014,0.009-0.019l0.549-1.12v1.263c0,1.194-0.588,3.719-1.985,4.26h4.463c-1.396-0.542-1.982-3.066-1.982-4.26
		v-1.263l0.549,1.12c0.005,0.005,0.008,0.012,0.009,0.019c0.254,0.533,0.686,0.988,1.263,1.26c1.327,0.63,2.913,0.064,3.542-1.263
		C57.629,54.151,57.063,52.565,55.735,51.937z"/>
	<path d="M38.772,40.718H38.77c-0.573-0.141-1.198-0.093-1.774,0.179c-1.327,0.629-1.891,2.215-1.263,3.542
		c0.629,1.327,2.215,1.893,3.544,1.264c0.575-0.272,1.006-0.726,1.259-1.26h0.001c0.002-0.007,0.006-0.014,0.008-0.019l0.55-1.121
		v1.263c0,1.194-0.589,3.719-1.986,4.26h4.465c-1.397-0.542-1.984-3.066-1.984-4.26v-1.263l0.55,1.121
		c0.003,0.005,0.007,0.012,0.008,0.019c0.254,0.533,0.687,0.988,1.263,1.26c1.328,0.629,2.913,0.064,3.542-1.264
		c0.63-1.327,0.064-2.913-1.264-3.542c-0.576-0.272-1.2-0.32-1.771-0.179h-0.003c-0.005,0.002-0.013,0.002-0.019,0.004l-1.4,0.327
		l0.895-1.124c0.005-0.005,0.01-0.01,0.013-0.016l0.002-0.001c0.373-0.459,0.595-1.043,0.595-1.679c0-1.469-1.189-2.66-2.658-2.66
		c-1.468,0-2.659,1.191-2.659,2.66c0,0.636,0.225,1.22,0.597,1.679l0.002,0.001c0.005,0.006,0.008,0.011,0.011,0.016l0.895,1.124
		l-1.398-0.327C38.786,40.72,38.778,40.72,38.772,40.718z"/>
	<path d="M43.915,65.757h0.003c0.571,0.141,1.195,0.093,1.771-0.179c1.328-0.629,1.894-2.214,1.264-3.542
		c-0.628-1.327-2.214-1.893-3.542-1.263c-0.576,0.272-1.008,0.726-1.263,1.26c-0.001,0.007-0.005,0.014-0.008,0.019l-0.55,1.12
		v-1.263c0-1.194,0.586-3.719,1.984-4.26H39.11c1.397,0.542,1.986,3.066,1.986,4.26v1.263l-0.55-1.12
		c-0.002-0.005-0.006-0.012-0.008-0.019h-0.001c-0.253-0.533-0.684-0.988-1.259-1.26c-1.329-0.63-2.916-0.064-3.544,1.263
		c-0.629,1.327-0.064,2.913,1.263,3.542c0.576,0.272,1.201,0.32,1.774,0.179h0.002c0.006-0.003,0.014-0.003,0.019-0.004l1.398-0.327
		l-0.895,1.124c-0.003,0.006-0.007,0.011-0.011,0.016l-0.002,0.001c-0.372,0.459-0.597,1.043-0.597,1.679
		c0,1.469,1.191,2.66,2.659,2.66c1.469,0,2.658-1.191,2.658-2.66c0-0.636-0.222-1.22-0.595-1.679l-0.002-0.001
		c-0.002-0.005-0.008-0.01-0.013-0.016l-0.895-1.124l1.4,0.327C43.902,65.755,43.91,65.755,43.915,65.757z"/>
	<path d="M33.363,71.813c-0.575,0.272-1.006,0.726-1.259,1.26h-0.001c-0.002,0.007-0.006,0.014-0.008,0.019l-0.55,1.121v-1.263
		c0-1.194,0.589-3.719,1.986-4.26h-4.465c1.397,0.542,1.984,3.067,1.984,4.26v1.263l-0.549-1.121
		c-0.005-0.005-0.008-0.012-0.009-0.019c-0.254-0.533-0.687-0.988-1.263-1.26c-1.328-0.63-2.913-0.064-3.542,1.264
		c-0.63,1.327-0.065,2.913,1.263,3.542c0.577,0.272,1.201,0.32,1.773,0.179h0.003c0.005-0.002,0.013-0.002,0.019-0.004l1.4-0.327
		L29.25,77.59c-0.005,0.005-0.01,0.01-0.012,0.016l-0.001,0.001c-0.374,0.459-0.597,1.043-0.597,1.679
		c0,1.469,1.189,2.66,2.658,2.66c1.468,0,2.659-1.191,2.659-2.66c0-0.636-0.225-1.22-0.597-1.679l-0.002-0.001
		c-0.003-0.006-0.008-0.011-0.011-0.016l-0.895-1.124l1.398,0.327c0.006,0.001,0.014,0.001,0.021,0.004h0.001
		c0.573,0.141,1.198,0.093,1.773-0.179c1.328-0.629,1.893-2.215,1.264-3.542C36.279,71.749,34.694,71.183,33.363,71.813z"/>
	<path d="M53.457,71.813c-0.577,0.272-1.008,0.726-1.263,1.26c-0.001,0.007-0.005,0.014-0.009,0.019l-0.549,1.121v-1.263
		c0-1.194,0.586-3.719,1.982-4.26h-4.463c1.397,0.542,1.985,3.067,1.985,4.26v1.263l-0.549-1.121
		c-0.003-0.005-0.007-0.012-0.009-0.019h-0.001c-0.252-0.533-0.683-0.988-1.258-1.26c-1.33-0.63-2.917-0.064-3.545,1.264
		c-0.629,1.327-0.063,2.913,1.264,3.542c0.575,0.272,1.2,0.32,1.773,0.179h0.002c0.007-0.002,0.015-0.002,0.021-0.004l1.398-0.327
		l-0.895,1.124c-0.005,0.005-0.008,0.01-0.013,0.016l-0.001,0.001c-0.372,0.459-0.597,1.043-0.597,1.679
		c0,1.469,1.19,2.66,2.659,2.66c1.468,0,2.658-1.191,2.658-2.66c0-0.636-0.222-1.22-0.597-1.679l-0.002-0.001
		c-0.002-0.006-0.007-0.011-0.013-0.016l-0.894-1.124l1.4,0.327c0.007,0.001,0.014,0.001,0.019,0.004h0.002
		c0.571,0.141,1.197,0.093,1.773-0.179c1.328-0.629,1.893-2.215,1.264-3.542C56.371,71.749,54.784,71.183,53.457,71.813z"/>
	<path class="st5" d="M22.231,25.819c0.882-0.264,1.345-0.782,1.345-1.5c0-0.945-0.827-1.591-2.063-1.591
		c-1.336,0-2.191,0.718-2.191,1.827c0,0.745,0.345,1.182,1.3,1.682c-0.391,0.154-0.6,0.254-0.818,0.427
		c-0.436,0.336-0.672,0.809-0.672,1.336c0,1.045,0.863,1.682,2.272,1.682c1.482,0,2.427-0.745,2.427-1.909
		C23.831,26.901,23.358,26.319,22.231,25.819z M20.304,24.119c0-0.7,0.445-1.145,1.163-1.145c0.464,0,0.827,0.191,1.036,0.527
		c0.127,0.218,0.209,0.536,0.209,0.827c0,0.418-0.091,0.727-0.282,0.991c-0.127,0.172-0.227,0.245-0.472,0.382
		c0,0-0.3-0.136-0.4-0.182c-0.282-0.128-0.455-0.227-0.591-0.309C20.504,24.901,20.304,24.574,20.304,24.119z M21.467,29.446
		c-0.863,0-1.445-0.618-1.445-1.554c0-0.436,0.127-0.836,0.354-1.1c0.136-0.163,0.264-0.263,0.537-0.409
		c0.009,0,0.291,0.127,0.409,0.182c0.363,0.173,0.654,0.327,0.836,0.464c0.455,0.327,0.646,0.654,0.646,1.109
		C22.804,28.91,22.258,29.446,21.467,29.446z"/>
	<path d="M62.14,71.045c-0.233,0.11-0.407,0.293-0.51,0.509c0,0.003-0.001,0.006-0.003,0.008l-0.222,0.453v-0.51
		c0-0.482,0.237-1.501,0.802-1.72h-1.803c0.565,0.219,0.802,1.239,0.802,1.72v0.51l-0.221-0.453
		c-0.001-0.002-0.002-0.005-0.003-0.008c-0.103-0.215-0.277-0.399-0.509-0.509c-0.536-0.254-1.177-0.026-1.431,0.51
		c-0.253,0.536-0.026,1.177,0.51,1.43c0.234,0.11,0.485,0.129,0.717,0.072c0.002-0.001,0.006-0.001,0.008-0.001l0.565-0.132
		l-0.362,0.454c-0.001,0.002-0.003,0.004-0.005,0.006v0c-0.152,0.186-0.243,0.421-0.243,0.678c0,0.593,0.481,1.074,1.075,1.074
		s1.073-0.481,1.073-1.074c0-0.257-0.09-0.493-0.241-0.678v0c-0.002-0.002-0.003-0.004-0.006-0.006l-0.36-0.454l0.565,0.132
		c0.002,0,0.005,0,0.008,0.001c0.232,0.057,0.484,0.038,0.715-0.072c0.537-0.254,0.765-0.894,0.511-1.43
		C63.317,71.019,62.676,70.791,62.14,71.045z"/>
	<path class="st5" d="M63.555,78.474c0-1.045-0.863-1.681-2.272-1.681c-1.482,0-2.427,0.745-2.427,1.909
		c0,0.873,0.473,1.454,1.6,1.954c-0.882,0.264-1.345,0.782-1.345,1.5c0,0.945,0.827,1.591,2.063,1.591
		c1.336,0,2.191-0.718,2.191-1.827c0-0.745-0.345-1.182-1.3-1.682c0.391-0.155,0.6-0.254,0.818-0.427
		C63.319,79.475,63.555,79.002,63.555,78.474z M62.383,82.356c0,0.7-0.445,1.145-1.164,1.145c-0.464,0-0.827-0.191-1.036-0.527
		c-0.127-0.218-0.209-0.536-0.209-0.827c0-0.418,0.091-0.727,0.282-0.991c0.127-0.173,0.227-0.246,0.472-0.382
		c0,0,0.3,0.136,0.4,0.182c0.282,0.127,0.455,0.227,0.591,0.309C62.182,81.574,62.383,81.901,62.383,82.356z M62.31,79.684
		c-0.137,0.164-0.264,0.264-0.537,0.409c-0.009,0-0.291-0.127-0.409-0.182c-0.363-0.173-0.654-0.327-0.836-0.464
		c-0.455-0.327-0.646-0.654-0.646-1.109c0-0.772,0.545-1.309,1.336-1.309c0.863,0,1.445,0.618,1.445,1.554
		C62.664,79.02,62.537,79.42,62.31,79.684z"/>
</g>
</svg>
