<?xml version="1.0" encoding="utf-8"?>
<!-- Generator: Adobe Illustrator 23.0.2, SVG Export Plug-In . SVG Version: 6.00 Build 0)  -->
<svg version="1.1" id="Layer_1" xmlns="http://www.w3.org/2000/svg" xmlns:xlink="http://www.w3.org/1999/xlink" x="0px" y="0px"
	 viewBox="0 0 82.452 99.776" style="enable-background:new 0 0 82.452 99.776;" xml:space="preserve">
<style type="text/css">
	.st0{fill:#FFFFFF;}
	.st1{fill:#ED1C24;}
	.st2{fill:#FFCB05;}
	.st3{fill:#21409A;}
	.st4{fill:#D4D5D6;}
	.st5{fill:#000100;}
	.st6{fill:#300505;}
	.st7{fill:#BFD730;}
	.st8{fill:#F15A22;}
</style>
<g>
	<path class="st0" d="M22.335,27.702c0.136,0.082,0.309,0.182,0.591,0.309c0.1,0.045,0.4,0.182,0.4,0.182
		c0.245-0.136,0.345-0.209,0.472-0.382c0.191-0.263,0.282-0.573,0.282-0.991c0-0.291-0.082-0.609-0.209-0.827
		c-0.209-0.337-0.573-0.527-1.036-0.527c-0.718,0-1.163,0.445-1.163,1.145C21.672,27.066,21.872,27.393,22.335,27.702z"/>
	<path class="st0" d="M23.526,29.52c-0.182-0.136-0.473-0.291-0.836-0.464c-0.118-0.054-0.4-0.182-0.409-0.182
		c-0.273,0.145-0.4,0.245-0.537,0.409c-0.227,0.264-0.354,0.664-0.354,1.1c0,0.936,0.582,1.554,1.445,1.554
		c0.79,0,1.336-0.536,1.336-1.309C24.171,30.174,23.98,29.847,23.526,29.52z"/>
	<path class="st0" d="M63.087,83.756c-0.136-0.082-0.309-0.182-0.591-0.309c-0.1-0.045-0.4-0.182-0.4-0.182
		c-0.245,0.136-0.345,0.209-0.472,0.382c-0.191,0.263-0.282,0.573-0.282,0.991c0,0.291,0.082,0.609,0.209,0.827
		c0.209,0.337,0.573,0.527,1.036,0.527c0.718,0,1.164-0.445,1.164-1.145C63.75,84.393,63.55,84.065,63.087,83.756z"/>
	<path class="st0" d="M62.587,79.52c-0.791,0-1.336,0.536-1.336,1.309c0,0.455,0.191,0.782,0.646,1.109
		c0.182,0.136,0.473,0.291,0.836,0.464c0.118,0.055,0.4,0.182,0.409,0.182c0.273-0.145,0.4-0.245,0.537-0.409
		c0.227-0.264,0.354-0.664,0.354-1.1C64.032,80.139,63.45,79.52,62.587,79.52z"/>
	<path class="st0" d="M64.331,21.483h-43.24c-1.564,0-2.837,1.272-2.837,2.836v62.82c0,1.564,1.272,2.836,2.837,2.836h43.24
		c1.563,0,2.836-1.272,2.836-2.836v-62.82C67.167,22.755,65.895,21.483,64.331,21.483z M62.673,72.256
		c0.249,0.867,1.251,2.228,2.066,2.693c-0.814,0.465-1.817,1.825-2.066,2.693c-0.25-0.868-1.255-2.228-2.069-2.693
		C61.418,74.483,62.423,73.123,62.673,72.256z M42.708,38.01c0.617,2.15,3.106,5.523,5.124,6.674
		c-2.018,1.152-4.507,4.523-5.124,6.674c-0.616-2.151-3.105-5.522-5.124-6.674C39.603,43.533,42.092,40.16,42.708,38.01z
		 M32.664,26.97c0.617,2.151,3.106,5.523,5.124,6.675c-2.018,1.152-4.507,4.523-5.124,6.674c-0.616-2.151-3.105-5.522-5.124-6.674
		C29.559,32.493,32.048,29.121,32.664,26.97z M32.663,49.05c0.617,2.15,3.106,5.523,5.125,6.674
		c-2.019,1.152-4.508,4.523-5.125,6.674c-0.616-2.151-3.104-5.522-5.123-6.674C29.559,54.572,32.047,51.2,32.663,49.05z
		 M22.751,39.202c-0.249-0.868-1.252-2.227-2.068-2.693c0.816-0.465,1.819-1.825,2.068-2.693c0.249,0.868,1.253,2.228,2.066,2.693
		C24.003,36.975,22.999,38.334,22.751,39.202z M22.771,32.174c-1.409,0-2.272-0.636-2.272-1.681c0-0.527,0.236-1,0.672-1.336
		c0.219-0.173,0.427-0.273,0.818-0.427c-0.955-0.5-1.3-0.936-1.3-1.682c0-1.109,0.854-1.827,2.191-1.827
		c1.236,0,2.063,0.645,2.063,1.591c0,0.718-0.463,1.236-1.345,1.5c1.127,0.5,1.6,1.082,1.6,1.954
		C25.198,31.429,24.253,32.174,22.771,32.174z M32.664,84.488c-0.616-2.151-3.105-5.523-5.124-6.674
		c2.019-1.152,4.508-4.523,5.124-6.674c0.617,2.15,3.106,5.522,5.124,6.674C35.77,78.965,33.281,82.337,32.664,84.488z
		 M42.708,73.448c-0.616-2.15-3.105-5.523-5.124-6.674c2.019-1.152,4.508-4.523,5.124-6.674c0.617,2.15,3.106,5.522,5.124,6.674
		C45.814,67.925,43.325,71.297,42.708,73.448z M52.752,84.488c-0.617-2.151-3.105-5.523-5.124-6.674
		c2.019-1.152,4.507-4.523,5.124-6.674c0.617,2.15,3.106,5.522,5.124,6.674C55.858,78.965,53.37,82.337,52.752,84.488z
		 M52.752,62.398c-0.617-2.151-3.105-5.522-5.124-6.674c2.019-1.151,4.507-4.524,5.124-6.674c0.617,2.15,3.106,5.523,5.124,6.674
		C55.858,56.876,53.37,60.247,52.752,62.398z M52.752,40.318c-0.617-2.151-3.105-5.522-5.124-6.674
		c2.019-1.152,4.507-4.524,5.124-6.675c0.617,2.151,3.106,5.523,5.124,6.675C55.858,34.796,53.37,38.167,52.752,40.318z
		 M64.732,84.411c0,1.109-0.854,1.827-2.191,1.827c-1.236,0-2.063-0.645-2.063-1.591c0-0.718,0.463-1.236,1.345-1.5
		c-1.127-0.5-1.6-1.082-1.6-1.954c0-1.163,0.946-1.909,2.427-1.909c1.409,0,2.272,0.636,2.272,1.681c0,0.527-0.236,1-0.672,1.336
		c-0.218,0.173-0.427,0.273-0.818,0.427C64.387,83.229,64.732,83.665,64.732,84.411z"/>
	<path d="M64.331,21.053h-43.24c-1.802,0-3.267,1.465-3.267,3.266v62.82c0,1.801,1.465,3.266,3.267,3.266h43.24
		c1.801,0,3.266-1.465,3.266-3.266v-62.82C67.597,22.518,66.132,21.053,64.331,21.053z M67.167,87.139
		c0,1.564-1.272,2.836-2.836,2.836h-43.24c-1.564,0-2.837-1.272-2.837-2.836v-62.82c0-1.564,1.272-2.836,2.837-2.836h43.24
		c1.563,0,2.836,1.272,2.836,2.836V87.139z"/>
	<path class="st1" d="M23.599,28.311c0.882-0.264,1.345-0.782,1.345-1.5c0-0.945-0.827-1.591-2.063-1.591
		c-1.336,0-2.191,0.718-2.191,1.827c0,0.745,0.345,1.182,1.3,1.682c-0.391,0.155-0.6,0.254-0.818,0.427
		c-0.436,0.336-0.672,0.809-0.672,1.336c0,1.045,0.863,1.681,2.272,1.681c1.482,0,2.427-0.745,2.427-1.909
		C25.198,29.393,24.726,28.811,23.599,28.311z M21.672,26.611c0-0.7,0.445-1.145,1.163-1.145c0.464,0,0.827,0.191,1.036,0.527
		c0.127,0.218,0.209,0.536,0.209,0.827c0,0.418-0.091,0.727-0.282,0.991c-0.127,0.173-0.227,0.246-0.472,0.382
		c0,0-0.3-0.136-0.4-0.182c-0.282-0.127-0.455-0.227-0.591-0.309C21.872,27.393,21.672,27.066,21.672,26.611z M22.835,31.938
		c-0.863,0-1.445-0.618-1.445-1.554c0-0.436,0.127-0.836,0.354-1.1c0.136-0.164,0.264-0.263,0.537-0.409
		c0.009,0,0.291,0.127,0.409,0.182c0.363,0.173,0.654,0.327,0.836,0.464c0.455,0.327,0.646,0.654,0.646,1.109
		C24.171,31.401,23.625,31.938,22.835,31.938z"/>
	<path class="st1" d="M64.923,80.966c0-1.045-0.863-1.681-2.272-1.681c-1.482,0-2.427,0.745-2.427,1.909
		c0,0.873,0.473,1.454,1.6,1.954c-0.882,0.264-1.345,0.782-1.345,1.5c0,0.945,0.827,1.591,2.063,1.591
		c1.336,0,2.191-0.718,2.191-1.827c0-0.745-0.345-1.182-1.3-1.682c0.391-0.154,0.6-0.254,0.818-0.427
		C64.687,81.966,64.923,81.493,64.923,80.966z M63.75,84.847c0,0.7-0.445,1.145-1.164,1.145c-0.464,0-0.827-0.191-1.036-0.527
		c-0.127-0.218-0.209-0.536-0.209-0.827c0-0.418,0.091-0.727,0.282-0.991c0.127-0.173,0.227-0.246,0.472-0.382
		c0,0,0.3,0.136,0.4,0.182c0.282,0.127,0.455,0.227,0.591,0.309C63.55,84.065,63.75,84.393,63.75,84.847z M63.678,82.175
		c-0.137,0.164-0.264,0.263-0.537,0.409c-0.009,0-0.291-0.127-0.409-0.182c-0.363-0.173-0.654-0.327-0.836-0.464
		c-0.455-0.327-0.646-0.654-0.646-1.109c0-0.773,0.545-1.309,1.336-1.309c0.863,0,1.445,0.618,1.445,1.554
		C64.032,81.511,63.905,81.911,63.678,82.175z"/>
	<path class="st1" d="M32.664,40.318c0.617-2.151,3.106-5.522,5.124-6.674c-2.018-1.152-4.507-4.524-5.124-6.675
		c-0.616,2.151-3.105,5.523-5.124,6.675C29.559,34.796,32.048,38.167,32.664,40.318z"/>
	<path class="st1" d="M52.752,26.97c-0.617,2.151-3.105,5.523-5.124,6.675c2.019,1.152,4.507,4.523,5.124,6.674
		c0.617-2.151,3.106-5.522,5.124-6.674C55.858,32.493,53.37,29.121,52.752,26.97z"/>
	<path class="st1" d="M32.664,71.14c-0.616,2.15-3.105,5.522-5.124,6.674c2.019,1.151,4.508,4.524,5.124,6.674
		c0.617-2.151,3.106-5.523,5.124-6.674C35.77,76.662,33.281,73.29,32.664,71.14z"/>
	<path class="st1" d="M52.752,71.14c-0.617,2.15-3.105,5.522-5.124,6.674c2.019,1.151,4.507,4.524,5.124,6.674
		c0.617-2.151,3.106-5.523,5.124-6.674C55.858,76.662,53.37,73.29,52.752,71.14z"/>
	<path class="st1" d="M32.663,62.398c0.617-2.151,3.106-5.522,5.125-6.674c-2.019-1.151-4.508-4.524-5.125-6.674
		c-0.616,2.15-3.104,5.523-5.123,6.674C29.559,56.876,32.047,60.247,32.663,62.398z"/>
	<path class="st1" d="M52.752,49.05c-0.617,2.15-3.105,5.523-5.124,6.674c2.019,1.152,4.507,4.523,5.124,6.674
		c0.617-2.151,3.106-5.522,5.124-6.674C55.858,54.572,53.37,51.2,52.752,49.05z"/>
	<ellipse class="st1" cx="42.708" cy="44.684" rx="5.124" ry="6.674"/>
	<path class="st1" d="M42.708,60.1c-0.616,2.15-3.105,5.522-5.124,6.674c2.019,1.152,4.508,4.524,5.124,6.674
		c0.617-2.15,3.106-5.523,5.124-6.674C45.814,65.622,43.325,62.25,42.708,60.1z"/>
	<path class="st1" d="M22.751,33.816c-0.249,0.868-1.252,2.228-2.068,2.693c0.816,0.465,1.819,1.825,2.068,2.693
		c0.249-0.868,1.253-2.227,2.066-2.693C24.003,36.045,22.999,34.685,22.751,33.816z"/>
	<path class="st1" d="M62.673,77.642c0.249-0.868,1.251-2.228,2.066-2.693c-0.814-0.465-1.817-1.825-2.066-2.693
		c-0.25,0.867-1.255,2.228-2.069,2.693C61.418,75.413,62.423,76.773,62.673,77.642z"/>
</g>
</svg>
