<?xml version="1.0" encoding="utf-8"?>
<!-- Generator: Adobe Illustrator 23.0.2, SVG Export Plug-In . SVG Version: 6.00 Build 0)  -->
<svg version="1.1" id="Layer_1" xmlns="http://www.w3.org/2000/svg" xmlns:xlink="http://www.w3.org/1999/xlink" x="0px" y="0px"
	 viewBox="0 0 82.452 99.776" style="enable-background:new 0 0 82.452 99.776;" xml:space="preserve">
<style type="text/css">
	.st0{fill:#FFFFFF;}
	.st1{fill:#ED1C24;}
	.st2{fill:#FFCB05;}
	.st3{fill:#21409A;}
	.st4{fill:#D4D5D6;}
	.st5{fill:#000100;}
	.st6{fill:#300505;}
	.st7{fill:#BFD730;}
	.st8{fill:#F15A22;}
</style>
<g>
	<path class="st0" d="M65.694,79.141c-0.136-0.082-0.309-0.182-0.591-0.309c-0.1-0.045-0.4-0.182-0.4-0.182
		c-0.245,0.137-0.345,0.209-0.472,0.382c-0.191,0.264-0.282,0.573-0.282,0.991c0,0.291,0.082,0.609,0.209,0.827
		c0.209,0.336,0.573,0.528,1.036,0.528c0.718,0,1.164-0.446,1.164-1.145C66.358,79.777,66.157,79.45,65.694,79.141z"/>
	<path class="st0" d="M65.194,74.905c-0.791,0-1.336,0.536-1.336,1.309c0,0.455,0.191,0.782,0.646,1.109
		c0.182,0.136,0.473,0.291,0.836,0.463c0.118,0.055,0.4,0.182,0.409,0.182c0.273-0.145,0.4-0.245,0.537-0.409
		c0.227-0.263,0.354-0.664,0.354-1.1C66.639,75.523,66.058,74.905,65.194,74.905z"/>
	<path class="st0" d="M66.939,16.867h-43.24c-1.564,0-2.837,1.272-2.837,2.836v62.82c0,1.564,1.272,2.836,2.837,2.836h43.24
		c1.563,0,2.836-1.272,2.836-2.836v-62.82C69.775,18.139,68.502,16.867,66.939,16.867z M45.316,36.101
		c1.173-4.633,5.776-3.4,5.776,0.971c0,2.858-1.551,4.754-3.182,6.548c-0.814,0.898-1.899,2.099-2.594,3.356
		c-0.695-1.258-1.778-2.458-2.595-3.356c-1.63-1.794-3.181-3.69-3.181-6.548C39.54,32.701,44.143,31.468,45.316,36.101z
		 M35.273,25.061c1.174-4.633,5.776-3.4,5.776,0.971c0,2.858-1.55,4.754-3.181,6.548c-0.816,0.898-1.899,2.099-2.595,3.357
		c-0.695-1.258-1.778-2.458-2.594-3.357c-1.631-1.794-3.182-3.69-3.182-6.548C29.496,21.661,34.099,20.428,35.273,25.061z
		 M26.404,33.326c-0.328,0.362-0.765,0.846-1.046,1.354c-0.281-0.507-0.717-0.992-1.046-1.354c-0.658-0.724-1.284-1.488-1.284-2.641
		c0-1.763,1.857-2.261,2.33-0.392c0.473-1.869,2.329-1.371,2.329,0.392C27.687,31.838,27.062,32.602,26.404,33.326z M25.379,27.558
		c-1.409,0-2.272-0.636-2.272-1.681c0-0.527,0.236-1,0.672-1.336c0.219-0.173,0.427-0.273,0.818-0.427
		c-0.955-0.5-1.3-0.936-1.3-1.682c0-1.109,0.854-1.827,2.191-1.827c1.236,0,2.063,0.645,2.063,1.591c0,0.718-0.463,1.236-1.345,1.5
		c1.127,0.5,1.6,1.082,1.6,1.954C27.806,26.813,26.86,27.558,25.379,27.558z M35.273,47.141c1.173-4.633,5.775-3.4,5.775,0.971
		c0,2.858-1.55,4.754-3.181,6.548c-0.816,0.899-1.899,2.099-2.594,3.357c-0.696-1.258-1.778-2.458-2.595-3.357
		c-1.631-1.794-3.182-3.69-3.182-6.548C29.495,43.741,34.099,42.507,35.273,47.141z M35.273,77.167
		c-1.174,4.633-5.776,3.399-5.776-0.971c0-2.858,1.551-4.754,3.182-6.548c0.816-0.898,1.899-2.099,2.594-3.356
		c0.696,1.258,1.779,2.458,2.595,3.356c1.631,1.794,3.181,3.69,3.181,6.548C41.049,80.566,36.446,81.799,35.273,77.167z
		 M45.316,66.127c-1.174,4.633-5.776,3.4-5.776-0.971c0-2.859,1.551-4.754,3.181-6.549c0.817-0.898,1.9-2.099,2.595-3.356
		c0.695,1.258,1.779,2.459,2.594,3.356c1.631,1.794,3.182,3.69,3.182,6.549C51.093,69.526,46.489,70.759,45.316,66.127z
		 M55.362,77.167c-1.174,4.633-5.777,3.399-5.777-0.971c0-2.858,1.551-4.754,3.182-6.548c0.817-0.898,1.899-2.099,2.595-3.356
		c0.695,1.258,1.778,2.458,2.594,3.356c1.631,1.794,3.181,3.69,3.181,6.548C61.137,80.566,56.536,81.799,55.362,77.167z
		 M57.956,54.66c-0.817,0.899-1.9,2.099-2.594,3.357c-0.696-1.258-1.779-2.458-2.596-3.357c-1.63-1.794-3.181-3.69-3.181-6.548
		c0-4.37,4.604-5.604,5.777-0.971c1.173-4.633,5.775-3.4,5.775,0.971C61.137,50.97,59.586,52.865,57.956,54.66z M57.956,32.58
		c-0.816,0.898-1.899,2.099-2.594,3.357c-0.696-1.258-1.778-2.458-2.595-3.357c-1.631-1.794-3.182-3.69-3.182-6.548
		c0-4.37,4.604-5.604,5.777-0.971c1.174-4.633,5.775-3.4,5.775,0.971C61.137,28.89,59.587,30.786,57.956,32.58z M67.339,79.795
		c0,1.109-0.854,1.827-2.191,1.827c-1.236,0-2.063-0.646-2.063-1.591c0-0.718,0.463-1.236,1.345-1.5c-1.127-0.5-1.6-1.082-1.6-1.955
		c0-1.164,0.946-1.908,2.427-1.908c1.409,0,2.272,0.637,2.272,1.681c0,0.527-0.236,1-0.672,1.336
		c-0.218,0.173-0.427,0.273-0.818,0.427C66.994,78.614,67.339,79.05,67.339,79.795z M65.279,71.933
		c-0.473,1.869-2.33,1.372-2.33-0.392c0-1.153,0.626-1.917,1.284-2.641c0.328-0.362,0.765-0.846,1.046-1.353
		c0.281,0.508,0.717,0.992,1.046,1.353c0.658,0.724,1.283,1.489,1.283,2.641C67.608,73.305,65.752,73.802,65.279,71.933z"/>
	<path class="st0" d="M26.133,24.904c-0.182-0.136-0.473-0.291-0.836-0.464c-0.118-0.054-0.4-0.182-0.409-0.182
		c-0.273,0.145-0.4,0.245-0.537,0.409c-0.227,0.264-0.354,0.664-0.354,1.1c0,0.936,0.582,1.554,1.445,1.554
		c0.79,0,1.336-0.536,1.336-1.309C26.779,25.559,26.588,25.231,26.133,24.904z"/>
	<path class="st0" d="M24.942,23.087c0.136,0.082,0.309,0.182,0.591,0.309c0.1,0.045,0.4,0.182,0.4,0.182
		c0.245-0.136,0.345-0.209,0.472-0.382c0.191-0.263,0.282-0.573,0.282-0.991c0-0.291-0.082-0.609-0.209-0.827
		c-0.209-0.336-0.573-0.527-1.036-0.527c-0.718,0-1.163,0.445-1.163,1.145C24.279,22.45,24.479,22.777,24.942,23.087z"/>
	<path d="M66.939,16.437h-43.24c-1.802,0-3.267,1.465-3.267,3.266v62.82c0,1.801,1.465,3.266,3.267,3.266h43.24
		c1.801,0,3.266-1.465,3.266-3.266v-62.82C70.204,17.902,68.74,16.437,66.939,16.437z M69.775,82.523
		c0,1.564-1.272,2.836-2.836,2.836h-43.24c-1.564,0-2.837-1.272-2.837-2.836v-62.82c0-1.564,1.272-2.836,2.837-2.836h43.24
		c1.563,0,2.836,1.272,2.836,2.836V82.523z"/>
	<path class="st1" d="M26.206,23.696c0.882-0.264,1.345-0.782,1.345-1.5c0-0.945-0.827-1.591-2.063-1.591
		c-1.336,0-2.191,0.718-2.191,1.827c0,0.745,0.345,1.182,1.3,1.682c-0.391,0.155-0.6,0.254-0.818,0.427
		c-0.436,0.336-0.672,0.809-0.672,1.336c0,1.045,0.863,1.681,2.272,1.681c1.482,0,2.427-0.745,2.427-1.909
		C27.806,24.777,27.333,24.196,26.206,23.696z M24.279,21.996c0-0.7,0.445-1.145,1.163-1.145c0.464,0,0.827,0.191,1.036,0.527
		c0.127,0.218,0.209,0.536,0.209,0.827c0,0.418-0.091,0.727-0.282,0.991c-0.127,0.173-0.227,0.246-0.472,0.382
		c0,0-0.3-0.136-0.4-0.182c-0.282-0.127-0.455-0.227-0.591-0.309C24.479,22.777,24.279,22.45,24.279,21.996z M25.442,27.322
		c-0.863,0-1.445-0.618-1.445-1.554c0-0.436,0.127-0.836,0.354-1.1c0.136-0.164,0.264-0.264,0.537-0.409
		c0.009,0,0.291,0.127,0.409,0.182c0.363,0.173,0.654,0.327,0.836,0.464c0.455,0.327,0.646,0.654,0.646,1.109
		C26.779,26.786,26.233,27.322,25.442,27.322z"/>
	<path class="st1" d="M67.53,76.35c0-1.045-0.863-1.681-2.272-1.681c-1.482,0-2.427,0.745-2.427,1.908
		c0,0.873,0.473,1.454,1.6,1.955c-0.882,0.264-1.345,0.782-1.345,1.5c0,0.945,0.827,1.591,2.063,1.591
		c1.336,0,2.191-0.718,2.191-1.827c0-0.745-0.345-1.182-1.3-1.681c0.391-0.155,0.6-0.254,0.818-0.427
		C67.294,77.351,67.53,76.877,67.53,76.35z M66.358,80.232c0,0.699-0.445,1.145-1.164,1.145c-0.464,0-0.827-0.191-1.036-0.528
		c-0.127-0.218-0.209-0.536-0.209-0.827c0-0.418,0.091-0.727,0.282-0.991c0.127-0.173,0.227-0.245,0.472-0.382
		c0,0,0.3,0.137,0.4,0.182c0.282,0.127,0.455,0.228,0.591,0.309C66.157,79.45,66.358,79.777,66.358,80.232z M66.285,77.56
		c-0.137,0.164-0.264,0.264-0.537,0.409c-0.009,0-0.291-0.127-0.409-0.182c-0.363-0.172-0.654-0.327-0.836-0.463
		c-0.455-0.327-0.646-0.655-0.646-1.109c0-0.773,0.545-1.309,1.336-1.309c0.863,0,1.445,0.618,1.445,1.555
		C66.639,76.896,66.512,77.296,66.285,77.56z"/>
	<path class="st1" d="M39.54,37.072c0,2.858,1.551,4.754,3.181,6.548c0.817,0.898,1.9,2.099,2.595,3.356
		c0.695-1.258,1.779-2.458,2.594-3.356c1.631-1.794,3.182-3.69,3.182-6.548c0-4.371-4.604-5.604-5.776-0.971
		C44.143,31.468,39.54,32.701,39.54,37.072z"/>
	<path class="st1" d="M51.093,65.156c0-2.859-1.551-4.754-3.182-6.549c-0.814-0.898-1.899-2.099-2.594-3.356
		c-0.695,1.258-1.778,2.459-2.595,3.356c-1.63,1.794-3.181,3.69-3.181,6.549c0,4.37,4.603,5.604,5.776,0.971
		C46.489,70.759,51.093,69.526,51.093,65.156z"/>
	<path class="st1" d="M35.273,58.017c0.695-1.258,1.778-2.458,2.594-3.357c1.631-1.794,3.181-3.69,3.181-6.548
		c0-4.37-4.603-5.604-5.775-0.971c-1.174-4.633-5.777-3.4-5.777,0.971c0,2.858,1.551,4.754,3.182,6.548
		C33.494,55.558,34.577,56.758,35.273,58.017z"/>
	<path class="st1" d="M55.362,47.141c-1.174-4.633-5.777-3.4-5.777,0.971c0,2.858,1.551,4.754,3.181,6.548
		c0.817,0.899,1.9,2.099,2.596,3.357c0.693-1.258,1.777-2.458,2.594-3.357c1.63-1.794,3.181-3.69,3.181-6.548
		C61.137,43.741,56.535,42.507,55.362,47.141z"/>
	<path class="st1" d="M35.273,35.937c0.696-1.258,1.779-2.458,2.595-3.357c1.631-1.794,3.181-3.69,3.181-6.548
		c0-4.37-4.603-5.604-5.776-0.971c-1.174-4.633-5.776-3.4-5.776,0.971c0,2.858,1.551,4.754,3.182,6.548
		C33.494,33.478,34.578,34.679,35.273,35.937z"/>
	<path class="st1" d="M55.362,25.061c-1.174-4.633-5.777-3.4-5.777,0.971c0,2.858,1.551,4.754,3.182,6.548
		c0.817,0.898,1.899,2.099,2.595,3.357c0.695-1.258,1.778-2.458,2.594-3.357c1.631-1.794,3.181-3.69,3.181-6.548
		C61.137,21.661,56.536,20.428,55.362,25.061z"/>
	<path class="st1" d="M35.273,66.291c-0.695,1.258-1.778,2.458-2.594,3.356c-1.631,1.794-3.182,3.69-3.182,6.548
		c0,4.37,4.603,5.604,5.776,0.971c1.174,4.633,5.776,3.399,5.776-0.971c0-2.858-1.55-4.754-3.181-6.548
		C37.052,68.749,35.968,67.548,35.273,66.291z"/>
	<path class="st1" d="M55.362,66.291c-0.696,1.258-1.778,2.458-2.595,3.356c-1.631,1.794-3.182,3.69-3.182,6.548
		c0,4.37,4.604,5.604,5.777,0.971c1.174,4.633,5.775,3.399,5.775-0.971c0-2.858-1.55-4.754-3.181-6.548
		C57.14,68.749,56.057,67.548,55.362,66.291z"/>
	<path class="st1" d="M25.358,30.293c-0.473-1.869-2.33-1.371-2.33,0.392c0,1.153,0.626,1.917,1.284,2.641
		c0.329,0.362,0.765,0.846,1.046,1.354c0.281-0.507,0.718-0.992,1.046-1.354c0.658-0.724,1.283-1.488,1.283-2.641
		C27.687,28.922,25.831,28.424,25.358,30.293z"/>
	<path class="st1" d="M65.279,67.547c-0.281,0.508-0.717,0.992-1.046,1.353c-0.658,0.724-1.284,1.489-1.284,2.641
		c0,1.763,1.857,2.261,2.33,0.392c0.473,1.869,2.329,1.372,2.329-0.392c0-1.153-0.625-1.917-1.283-2.641
		C65.997,68.539,65.56,68.054,65.279,67.547z"/>
</g>
</svg>
