<?xml version="1.0" encoding="utf-8"?>
<!-- Generator: Adobe Illustrator 23.0.2, SVG Export Plug-In . SVG Version: 6.00 Build 0)  -->
<svg version="1.1" id="Layer_1" xmlns="http://www.w3.org/2000/svg" xmlns:xlink="http://www.w3.org/1999/xlink" x="0px" y="0px"
	 viewBox="0 0 82.452 99.776" style="enable-background:new 0 0 82.452 99.776;" xml:space="preserve">
<style type="text/css">
	.st0{fill:#FFFFFF;}
	.st1{fill:#ED1C24;}
	.st2{fill:#FFCB05;}
	.st3{fill:#21409A;}
	.st4{fill:#D4D5D6;}
	.st5{fill:#000100;}
	.st6{fill:#300505;}
	.st7{fill:#BFD730;}
	.st8{fill:#F15A22;}
</style>
<g>
	<path class="st0" d="M64.094,74.131c-0.791,0-1.336,0.536-1.336,1.309c0,0.455,0.191,0.782,0.646,1.109
		c0.182,0.136,0.473,0.291,0.836,0.463c0.118,0.055,0.4,0.182,0.409,0.182c0.273-0.145,0.4-0.245,0.537-0.409
		c0.227-0.263,0.354-0.664,0.354-1.1C65.539,74.749,64.958,74.131,64.094,74.131z"/>
	<path class="st0" d="M64.594,78.367c-0.136-0.082-0.309-0.182-0.591-0.309c-0.1-0.046-0.4-0.182-0.4-0.182
		c-0.245,0.136-0.345,0.209-0.472,0.382c-0.191,0.263-0.282,0.573-0.282,0.991c0,0.291,0.082,0.609,0.209,0.827
		c0.209,0.337,0.573,0.528,1.036,0.528c0.718,0,1.164-0.445,1.164-1.145C65.258,79.003,65.057,78.676,64.594,78.367z"/>
	<path class="st0" d="M23.842,22.311c0.136,0.082,0.309,0.182,0.591,0.309c0.1,0.046,0.4,0.182,0.4,0.182
		c0.245-0.136,0.345-0.209,0.472-0.382c0.191-0.263,0.282-0.573,0.282-0.991c0-0.291-0.082-0.609-0.209-0.827
		c-0.209-0.336-0.573-0.528-1.036-0.528c-0.718,0-1.163,0.445-1.163,1.146C23.179,21.675,23.379,22.002,23.842,22.311z"/>
	<path class="st0" d="M25.033,24.13c-0.182-0.137-0.473-0.291-0.836-0.464c-0.118-0.055-0.4-0.182-0.409-0.182
		c-0.273,0.145-0.4,0.245-0.537,0.409c-0.227,0.264-0.354,0.664-0.354,1.1c0,0.936,0.582,1.554,1.445,1.554
		c0.79,0,1.336-0.536,1.336-1.309C25.679,24.784,25.488,24.456,25.033,24.13z"/>
	<path class="st0" d="M65.839,16.093h-43.24c-1.564,0-2.837,1.272-2.837,2.836v62.82c0,1.563,1.272,2.836,2.837,2.836h43.24
		c1.563,0,2.836-1.272,2.836-2.836v-62.82C68.675,17.365,67.402,16.093,65.839,16.093z M41.62,35.39
		c0.817-0.731,1.899-1.706,2.595-2.73c0.696,1.023,1.778,1.998,2.595,2.73c1.631,1.459,3.182,3.001,3.182,5.326
		c0,3.318-4.008,4.411-5.498,1.479c0.138,1.293,0.739,3.262,1.955,3.732h-4.468c1.216-0.47,1.816-2.439,1.954-3.732
		c-1.49,2.931-5.497,1.839-5.497-1.479C38.439,38.391,39.99,36.849,41.62,35.39z M31.577,24.35c0.817-0.731,1.9-1.706,2.595-2.729
		c0.696,1.023,1.779,1.998,2.596,2.729c1.63,1.46,3.181,3.002,3.181,5.326c0,3.318-4.008,4.411-5.498,1.48
		c0.138,1.292,0.739,3.262,1.955,3.731h-4.468c1.216-0.469,1.817-2.439,1.954-3.731c-1.489,2.931-5.497,1.838-5.497-1.48
		C28.395,27.352,29.947,25.81,31.577,24.35z M31.577,46.43c0.817-0.73,1.9-1.706,2.595-2.73c0.696,1.023,1.779,2,2.596,2.73
		c1.63,1.46,3.181,3.001,3.181,5.326c0,3.318-4.008,4.412-5.498,1.48c0.138,1.292,0.739,3.262,1.955,3.732h-4.468
		c1.216-0.47,1.817-2.439,1.954-3.732c-1.489,2.932-5.497,1.838-5.497-1.48C28.395,49.431,29.947,47.89,31.577,46.43z
		 M24.371,32.288c0.055,0.521,0.298,1.316,0.788,1.505h-1.802c0.49-0.189,0.733-0.984,0.787-1.505
		c-0.599,1.182-2.216,0.742-2.216-0.596c0-0.937,0.626-1.559,1.283-2.147c0.33-0.294,0.767-0.688,1.047-1.101
		c0.281,0.413,0.716,0.807,1.046,1.101c0.657,0.589,1.283,1.211,1.283,2.147C26.587,33.029,24.971,33.47,24.371,32.288z
		 M24.279,26.783c-1.409,0-2.272-0.636-2.272-1.681c0-0.528,0.236-1,0.672-1.336c0.219-0.173,0.427-0.273,0.818-0.427
		c-0.955-0.5-1.3-0.936-1.3-1.682c0-1.109,0.854-1.827,2.191-1.827c1.236,0,2.063,0.646,2.063,1.591c0,0.718-0.463,1.236-1.345,1.5
		c1.127,0.5,1.6,1.081,1.6,1.954C26.706,26.038,25.76,26.783,24.279,26.783z M36.768,76.328c-0.817,0.731-1.9,1.706-2.596,2.73
		c-0.695-1.023-1.778-1.998-2.595-2.73c-1.63-1.459-3.181-3.001-3.181-5.326c0-3.318,4.008-4.411,5.497-1.479
		c-0.137-1.293-0.738-3.262-1.954-3.732h4.468c-1.216,0.47-1.817,2.439-1.955,3.732c1.49-2.931,5.498-1.839,5.498,1.479
		C39.949,73.327,38.398,74.869,36.768,76.328z M46.817,65.288c-0.817,0.731-1.9,1.706-2.594,2.73
		c-0.697-1.023-1.779-1.999-2.596-2.73c-1.63-1.46-3.182-3.001-3.182-5.326c0-3.318,4.009-4.412,5.498-1.48
		c-0.138-1.292-0.739-3.262-1.955-3.732h4.468c-1.215,0.47-1.817,2.439-1.954,3.732c1.49-2.932,5.497-1.838,5.497,1.48
		C49.998,62.287,48.447,63.828,46.817,65.288z M56.856,76.328c-0.817,0.731-1.9,1.706-2.595,2.73
		c-0.696-1.023-1.779-1.998-2.595-2.73c-1.63-1.459-3.181-3.001-3.181-5.326c0-3.318,4.007-4.411,5.497-1.479
		c-0.138-1.293-0.739-3.262-1.954-3.732h4.467c-1.215,0.47-1.817,2.439-1.954,3.732c1.489-2.931,5.497-1.839,5.497,1.479
		C60.037,73.327,58.486,74.869,56.856,76.328z M54.54,53.235c0.137,1.292,0.739,3.262,1.954,3.732h-4.467
		c1.215-0.47,1.816-2.439,1.954-3.732c-1.49,2.932-5.497,1.838-5.497-1.48c0-2.325,1.551-3.866,3.181-5.326
		c0.816-0.73,1.899-1.706,2.595-2.73c0.695,1.023,1.778,2,2.595,2.73c1.63,1.46,3.181,3.001,3.181,5.326
		C60.037,55.074,56.029,56.167,54.54,53.235z M54.54,31.156c0.137,1.292,0.739,3.262,1.954,3.731h-4.467
		c1.215-0.469,1.816-2.439,1.954-3.731c-1.49,2.931-5.497,1.838-5.497-1.48c0-2.325,1.551-3.866,3.181-5.326
		c0.816-0.731,1.899-1.706,2.595-2.729c0.695,1.023,1.778,1.998,2.595,2.729c1.63,1.46,3.181,3.002,3.181,5.326
		C60.037,32.994,56.029,34.087,54.54,31.156z M66.239,79.021c0,1.109-0.854,1.827-2.191,1.827c-1.236,0-2.063-0.646-2.063-1.591
		c0-0.718,0.463-1.236,1.345-1.5c-1.127-0.5-1.6-1.081-1.6-1.954c0-1.164,0.946-1.909,2.427-1.909c1.409,0,2.272,0.636,2.272,1.681
		c0,0.528-0.236,1-0.672,1.336c-0.218,0.173-0.427,0.273-0.818,0.427C65.894,77.84,66.239,78.276,66.239,79.021z M65.227,71.134
		c-0.33,0.295-0.767,0.688-1.047,1.101c-0.279-0.413-0.716-0.806-1.046-1.101c-0.658-0.588-1.283-1.211-1.283-2.148
		c0-1.337,1.616-1.778,2.216-0.596c-0.055-0.521-0.298-1.315-0.788-1.505h1.802c-0.49,0.19-0.733,0.984-0.788,1.505
		c0.6-1.182,2.216-0.741,2.216,0.596C66.509,69.923,65.884,70.546,65.227,71.134z"/>
	<path d="M65.839,15.663h-43.24c-1.802,0-3.267,1.465-3.267,3.266v62.82c0,1.801,1.465,3.266,3.267,3.266h43.24
		c1.801,0,3.266-1.465,3.266-3.266v-62.82C69.104,17.128,67.64,15.663,65.839,15.663z M68.675,81.749
		c0,1.563-1.272,2.836-2.836,2.836h-43.24c-1.564,0-2.837-1.272-2.837-2.836v-62.82c0-1.563,1.272-2.836,2.837-2.836h43.24
		c1.563,0,2.836,1.272,2.836,2.836V81.749z"/>
	<path class="st5" d="M25.106,22.921c0.882-0.264,1.345-0.782,1.345-1.5c0-0.945-0.827-1.591-2.063-1.591
		c-1.336,0-2.191,0.718-2.191,1.827c0,0.745,0.345,1.182,1.3,1.682c-0.391,0.155-0.6,0.254-0.818,0.427
		c-0.436,0.337-0.672,0.809-0.672,1.336c0,1.045,0.863,1.681,2.272,1.681c1.482,0,2.427-0.745,2.427-1.909
		C26.706,24.002,26.233,23.42,25.106,22.921z M23.179,21.221c0-0.7,0.445-1.146,1.163-1.146c0.464,0,0.827,0.191,1.036,0.528
		c0.127,0.218,0.209,0.536,0.209,0.827c0,0.418-0.091,0.727-0.282,0.991c-0.127,0.173-0.227,0.246-0.472,0.382
		c0,0-0.3-0.136-0.4-0.182c-0.282-0.127-0.455-0.228-0.591-0.309C23.379,22.002,23.179,21.675,23.179,21.221z M24.342,26.547
		c-0.863,0-1.445-0.618-1.445-1.554c0-0.436,0.127-0.837,0.354-1.1c0.136-0.164,0.264-0.263,0.537-0.409
		c0.009,0,0.291,0.127,0.409,0.182c0.363,0.173,0.654,0.327,0.836,0.464c0.455,0.327,0.646,0.654,0.646,1.109
		C25.679,26.011,25.133,26.547,24.342,26.547z"/>
	<path class="st5" d="M66.43,75.576c0-1.045-0.863-1.681-2.272-1.681c-1.482,0-2.427,0.745-2.427,1.909
		c0,0.873,0.473,1.454,1.6,1.954c-0.882,0.264-1.345,0.782-1.345,1.5c0,0.945,0.827,1.591,2.063,1.591
		c1.336,0,2.191-0.718,2.191-1.827c0-0.745-0.345-1.181-1.3-1.681c0.391-0.155,0.6-0.254,0.818-0.427
		C66.194,76.576,66.43,76.104,66.43,75.576z M65.258,79.458c0,0.7-0.445,1.145-1.164,1.145c-0.464,0-0.827-0.191-1.036-0.528
		c-0.127-0.218-0.209-0.536-0.209-0.827c0-0.418,0.091-0.727,0.282-0.991c0.127-0.173,0.227-0.246,0.472-0.382
		c0,0,0.3,0.136,0.4,0.182c0.282,0.127,0.455,0.228,0.591,0.309C65.057,78.676,65.258,79.003,65.258,79.458z M65.185,76.785
		c-0.137,0.164-0.264,0.263-0.537,0.409c-0.009,0-0.291-0.127-0.409-0.182c-0.363-0.172-0.654-0.327-0.836-0.463
		c-0.455-0.327-0.646-0.655-0.646-1.109c0-0.773,0.545-1.309,1.336-1.309c0.863,0,1.445,0.618,1.445,1.554
		C65.539,76.121,65.412,76.522,65.185,76.785z"/>
	<path d="M33.892,53.235c-0.137,1.292-0.738,3.262-1.954,3.732h4.468c-1.216-0.47-1.817-2.439-1.955-3.732
		c1.49,2.932,5.498,1.838,5.498-1.48c0-2.325-1.551-3.866-3.181-5.326c-0.817-0.73-1.9-1.706-2.596-2.73
		c-0.695,1.023-1.778,2-2.595,2.73c-1.63,1.46-3.181,3.001-3.181,5.326C28.395,55.074,32.404,56.167,33.892,53.235z"/>
	<path d="M56.856,46.43c-0.817-0.73-1.9-1.706-2.595-2.73c-0.696,1.023-1.779,2-2.595,2.73c-1.63,1.46-3.181,3.001-3.181,5.326
		c0,3.318,4.007,4.412,5.497,1.48c-0.138,1.292-0.739,3.262-1.954,3.732h4.467c-1.215-0.47-1.817-2.439-1.954-3.732
		c1.489,2.932,5.497,1.838,5.497-1.48C60.037,49.431,58.486,47.89,56.856,46.43z"/>
	<path d="M33.892,31.156c-0.137,1.292-0.738,3.262-1.954,3.731h4.468c-1.216-0.469-1.817-2.439-1.955-3.731
		c1.49,2.931,5.498,1.838,5.498-1.48c0-2.325-1.551-3.866-3.181-5.326c-0.817-0.731-1.9-1.706-2.596-2.729
		c-0.695,1.023-1.778,1.998-2.595,2.729c-1.63,1.46-3.181,3.002-3.181,5.326C28.395,32.994,32.404,34.087,33.892,31.156z"/>
	<path d="M56.856,24.35c-0.817-0.731-1.9-1.706-2.595-2.729c-0.696,1.023-1.779,1.998-2.595,2.729
		c-1.63,1.46-3.181,3.002-3.181,5.326c0,3.318,4.007,4.411,5.497,1.48c-0.138,1.292-0.739,3.262-1.954,3.731h4.467
		c-1.215-0.469-1.817-2.439-1.954-3.731c1.489,2.931,5.497,1.838,5.497-1.48C60.037,27.352,58.486,25.81,56.856,24.35z"/>
	<path d="M43.936,42.196c-0.138,1.293-0.738,3.262-1.954,3.732h4.468c-1.216-0.47-1.817-2.439-1.955-3.732
		c1.49,2.931,5.498,1.839,5.498-1.479c0-2.325-1.551-3.867-3.182-5.326c-0.817-0.731-1.899-1.706-2.595-2.73
		c-0.696,1.023-1.778,1.998-2.595,2.73c-1.63,1.459-3.181,3.001-3.181,5.326C38.439,44.034,42.446,45.127,43.936,42.196z"/>
	<path d="M44.501,58.483c0.137-1.292,0.739-3.262,1.954-3.732h-4.468c1.216,0.47,1.817,2.439,1.955,3.732
		c-1.489-2.932-5.498-1.838-5.498,1.48c0,2.325,1.552,3.866,3.182,5.326c0.817,0.731,1.899,1.706,2.596,2.73
		c0.694-1.023,1.777-1.999,2.594-2.73c1.63-1.46,3.181-3.001,3.181-5.326C49.998,56.644,45.991,55.551,44.501,58.483z"/>
	<path d="M34.451,69.522c0.138-1.293,0.739-3.262,1.955-3.732h-4.468c1.216,0.47,1.817,2.439,1.954,3.732
		c-1.489-2.931-5.497-1.839-5.497,1.479c0,2.325,1.551,3.867,3.181,5.326c0.817,0.731,1.9,1.706,2.595,2.73
		c0.696-1.023,1.779-1.998,2.596-2.73c1.63-1.459,3.181-3.001,3.181-5.326C39.949,67.684,35.941,66.591,34.451,69.522z"/>
	<path d="M54.54,69.522c0.137-1.293,0.739-3.262,1.954-3.732h-4.467c1.215,0.47,1.816,2.439,1.954,3.732
		c-1.49-2.931-5.497-1.839-5.497,1.479c0,2.325,1.551,3.867,3.181,5.326c0.816,0.731,1.899,1.706,2.595,2.73
		c0.695-1.023,1.778-1.998,2.595-2.73c1.63-1.459,3.181-3.001,3.181-5.326C60.037,67.684,56.029,66.591,54.54,69.522z"/>
	<path d="M25.304,29.544c-0.33-0.294-0.765-0.688-1.046-1.101c-0.281,0.413-0.717,0.807-1.047,1.101
		c-0.657,0.589-1.283,1.211-1.283,2.147c0,1.338,1.617,1.779,2.216,0.596c-0.054,0.521-0.297,1.316-0.787,1.505h1.802
		c-0.49-0.189-0.733-0.984-0.788-1.505c0.6,1.182,2.216,0.742,2.216-0.596C26.587,30.755,25.961,30.132,25.304,29.544z"/>
	<path d="M64.293,68.39c0.055-0.521,0.298-1.315,0.788-1.505h-1.802c0.49,0.19,0.733,0.984,0.788,1.505
		c-0.6-1.182-2.216-0.741-2.216,0.596c0,0.937,0.625,1.56,1.283,2.148c0.33,0.295,0.767,0.688,1.046,1.101
		c0.281-0.413,0.717-0.806,1.047-1.101c0.657-0.588,1.282-1.211,1.282-2.148C66.509,67.649,64.893,67.209,64.293,68.39z"/>
</g>
</svg>
