<?xml version="1.0" encoding="utf-8"?>
<!-- Generator: Adobe Illustrator 23.0.2, SVG Export Plug-In . SVG Version: 6.00 Build 0)  -->
<svg version="1.1" id="Layer_1" xmlns="http://www.w3.org/2000/svg" xmlns:xlink="http://www.w3.org/1999/xlink" x="0px" y="0px"
	 viewBox="0 0 82.452 99.776" style="enable-background:new 0 0 82.452 99.776;" xml:space="preserve">
<style type="text/css">
	.st0{fill:#FFFFFF;}
	.st1{fill:#ED1C24;}
	.st2{fill:#FFCB05;}
	.st3{fill:#21409A;}
	.st4{fill:#D4D5D6;}
	.st5{fill:#000100;}
	.st6{fill:#300505;}
	.st7{fill:#BFD730;}
	.st8{fill:#F15A22;}
</style>
<g>
	<path class="st0" d="M17.588,19.734c-0.691,0-1.109,0.773-1.109,2.063c0,0.627,0.118,1.091,0.355,1.418
		c0.2,0.273,0.472,0.418,0.772,0.418c0.391,0,0.782-0.245,1.009-0.636c0.127-0.227,0.182-0.5,0.182-0.918
		c0-0.609-0.109-1.209-0.291-1.655C18.324,19.997,17.979,19.734,17.588,19.734z"/>
	<path class="st0" d="M57.429,76.398c-0.391,0-0.782,0.245-1.009,0.636c-0.127,0.227-0.182,0.5-0.182,0.918
		c0,0.609,0.109,1.209,0.291,1.654c0.182,0.427,0.527,0.691,0.918,0.691c0.691,0,1.109-0.773,1.109-2.063
		c0-0.627-0.118-1.091-0.355-1.418C58.002,76.543,57.729,76.398,57.429,76.398z"/>
	<path class="st0" d="M59.139,15.769h-43.24c-1.564,0-2.837,1.272-2.837,2.836v62.82c0,1.564,1.272,2.836,2.837,2.836h43.24
		c1.564,0,2.837-1.272,2.837-2.836v-62.82C61.976,17.042,60.704,15.769,59.139,15.769z M23.563,26.765
		c0.517-0.245,1.079-0.287,1.595-0.161h0.001c0.006,0.002,0.011,0.002,0.018,0.003l1.259,0.295l-0.805-1.012
		c-0.005-0.005-0.009-0.009-0.011-0.014l-0.001-0.001c-0.337-0.413-0.537-0.939-0.537-1.511c0-1.322,1.07-2.394,2.392-2.394
		s2.393,1.072,2.393,2.394c0,0.572-0.202,1.098-0.537,1.511l-0.001,0.001c-0.003,0.005-0.008,0.009-0.011,0.014l-0.805,1.012
		l1.258-0.295c0.006-0.001,0.013-0.001,0.018-0.003h0.002c0.516-0.127,1.078-0.084,1.596,0.161c1.195,0.566,1.703,1.993,1.137,3.188
		c-0.566,1.194-1.994,1.704-3.19,1.137c-0.517-0.245-0.906-0.654-1.133-1.134h-0.001c-0.002-0.006-0.006-0.013-0.007-0.017
		l-0.495-1.008v1.136c0,1.074,0.529,3.347,1.787,3.834h-4.017c1.256-0.488,1.784-2.76,1.784-3.834v-1.136l-0.494,1.008
		c-0.003,0.005-0.007,0.011-0.009,0.017c-0.228,0.48-0.617,0.889-1.135,1.134c-1.194,0.566-2.624,0.057-3.188-1.137
		C21.859,28.758,22.368,27.331,23.563,26.765z M23.563,41.485c0.517-0.245,1.079-0.288,1.595-0.161h0.001
		c0.006,0.002,0.011,0.002,0.018,0.003l1.259,0.295l-0.805-1.011c-0.005-0.005-0.009-0.01-0.011-0.015l-0.001-0.001
		c-0.337-0.413-0.537-0.939-0.537-1.511c0-1.322,1.07-2.394,2.392-2.394s2.393,1.072,2.393,2.394c0,0.572-0.202,1.098-0.537,1.511
		l-0.001,0.001c-0.003,0.005-0.008,0.009-0.011,0.015l-0.805,1.011l1.258-0.295c0.006-0.001,0.013-0.001,0.018-0.003h0.002
		c0.516-0.127,1.078-0.084,1.596,0.161c1.195,0.566,1.703,1.993,1.137,3.188c-0.566,1.194-1.994,1.703-3.19,1.137
		c-0.517-0.245-0.906-0.654-1.133-1.134h-0.001c-0.002-0.006-0.006-0.013-0.007-0.017l-0.495-1.009v1.136
		c0,1.074,0.529,3.347,1.787,3.834h-4.017c1.256-0.487,1.784-2.76,1.784-3.834V43.65l-0.494,1.009
		c-0.003,0.005-0.007,0.011-0.009,0.017c-0.228,0.48-0.617,0.889-1.135,1.134c-1.194,0.566-2.624,0.057-3.188-1.137
		C21.859,43.478,22.368,42.051,23.563,41.485z M19.822,31.698c-0.253,0.536-0.893,0.764-1.43,0.51
		c-0.232-0.11-0.406-0.293-0.508-0.509h-0.001c0-0.003-0.002-0.005-0.003-0.008l-0.222-0.452v0.51c0,0.482,0.238,1.502,0.802,1.72
		h-1.802c0.565-0.218,0.801-1.238,0.801-1.72v-0.51l-0.222,0.452c-0.001,0.002-0.002,0.005-0.003,0.008
		c-0.102,0.216-0.276,0.399-0.509,0.509c-0.536,0.254-1.177,0.025-1.43-0.51c-0.254-0.536-0.026-1.177,0.51-1.43
		c0.233-0.11,0.485-0.129,0.716-0.072h0.001c0.002,0.001,0.005,0.001,0.008,0.001l0.565,0.132l-0.362-0.454
		c-0.002-0.002-0.003-0.004-0.005-0.006l-0.001,0c-0.151-0.186-0.241-0.421-0.241-0.678c0-0.593,0.48-1.074,1.073-1.074
		c0.593,0,1.073,0.481,1.073,1.074c0,0.257-0.09,0.492-0.241,0.678l-0.001,0c-0.001,0.002-0.003,0.004-0.005,0.006l-0.362,0.454
		l0.565-0.132c0.002-0.001,0.006-0.001,0.009-0.001c0.232-0.057,0.484-0.038,0.715,0.072C19.849,30.521,20.077,31.162,19.822,31.698
		z M17.434,26.46c-1.109,0-1.936-0.491-1.936-1.155c0-0.354,0.245-0.563,0.654-0.563c0.228,0,0.418,0.064,0.5,0.173
		c0.054,0.082,0.054,0.1,0.082,0.491c0.036,0.536,0.291,0.827,0.727,0.827c0.545,0,0.936-0.418,1.127-1.2
		c0.119-0.482,0.191-1.145,0.191-1.727c-0.482,0.455-0.882,0.627-1.473,0.627c-1.209,0-2.036-0.854-2.036-2.109
		c0-1.391,0.937-2.318,2.345-2.318c0.791,0,1.427,0.309,1.809,0.891c0.4,0.591,0.573,1.318,0.573,2.354
		C19.997,25.169,19.106,26.46,17.434,26.46z M31.386,73.266c-0.518,0.245-1.08,0.288-1.596,0.161h-0.002
		c-0.006-0.002-0.013-0.002-0.018-0.004l-1.258-0.295l0.805,1.011c0.003,0.005,0.008,0.009,0.011,0.015l0.001,0.001
		c0.335,0.413,0.537,0.939,0.537,1.511c0,1.322-1.071,2.394-2.393,2.394s-2.392-1.072-2.392-2.394c0-0.572,0.201-1.098,0.537-1.511
		l0.001-0.001c0.002-0.005,0.007-0.009,0.011-0.015l0.805-1.011l-1.259,0.295c-0.007,0.001-0.013,0.001-0.018,0.004h-0.001
		c-0.516,0.127-1.078,0.084-1.595-0.161c-1.195-0.566-1.704-1.993-1.138-3.188c0.565-1.194,1.994-1.704,3.188-1.137
		c0.518,0.245,0.907,0.654,1.135,1.134c0.002,0.007,0.006,0.013,0.009,0.017l0.494,1.009v-1.136c0-1.075-0.528-3.347-1.784-3.834
		h4.017c-1.258,0.487-1.787,2.76-1.787,3.834v1.136l0.495-1.009c0.001-0.004,0.005-0.011,0.007-0.017H28.2
		c0.227-0.48,0.616-0.889,1.133-1.134c1.197-0.567,2.625-0.057,3.19,1.137C33.089,71.273,32.581,72.7,31.386,73.266z M31.386,58.546
		c-0.518,0.245-1.08,0.288-1.596,0.161h-0.002c-0.006-0.002-0.013-0.002-0.018-0.003l-1.258-0.295l0.805,1.012
		c0.003,0.005,0.008,0.009,0.011,0.014l0.001,0.001c0.335,0.413,0.537,0.939,0.537,1.511c0,1.322-1.071,2.394-2.393,2.394
		s-2.392-1.072-2.392-2.394c0-0.573,0.201-1.098,0.537-1.511l0.001-0.001c0.002-0.005,0.007-0.009,0.011-0.014l0.805-1.012
		l-1.259,0.295c-0.007,0.001-0.013,0.001-0.018,0.003h-0.001c-0.516,0.127-1.078,0.084-1.595-0.161
		c-1.195-0.566-1.704-1.993-1.138-3.188c0.565-1.194,1.994-1.704,3.188-1.137c0.518,0.245,0.907,0.654,1.135,1.134
		c0.002,0.006,0.006,0.013,0.009,0.017l0.494,1.008v-1.136c0-1.074-0.528-3.347-1.784-3.834h4.017
		c-1.258,0.487-1.787,2.76-1.787,3.834v1.136l0.495-1.008c0.001-0.004,0.005-0.011,0.007-0.017H28.2
		c0.227-0.48,0.616-0.889,1.133-1.134c1.197-0.566,2.625-0.057,3.19,1.137C33.089,56.553,32.581,57.98,31.386,58.546z
		 M39.381,53.169c-0.519-0.245-0.908-0.654-1.135-1.133c-0.002-0.006-0.005-0.013-0.009-0.017l-0.494-1.008v1.137
		c0,1.074,0.527,3.347,1.784,3.834h-4.017c1.258-0.487,1.787-2.76,1.787-3.834V51.01l-0.495,1.008
		c-0.002,0.005-0.006,0.011-0.007,0.017h-0.002c-0.226,0.48-0.615,0.889-1.132,1.133c-1.197,0.567-2.625,0.057-3.19-1.137
		c-0.566-1.195-0.057-2.622,1.137-3.187c0.517-0.245,1.08-0.288,1.596-0.161h0.001c0.006,0.002,0.014,0.002,0.018,0.004l1.259,0.294
		l-0.805-1.011c-0.005-0.005-0.008-0.01-0.011-0.015l-0.001-0.001c-0.335-0.413-0.538-0.939-0.538-1.511
		c0-1.322,1.072-2.394,2.393-2.394c1.323,0,2.393,1.072,2.393,2.394c0,0.572-0.201,1.098-0.537,1.511l-0.002,0.001
		c-0.001,0.005-0.007,0.01-0.011,0.015l-0.804,1.011l1.258-0.294c0.007-0.001,0.014-0.001,0.018-0.004h0.002
		c0.514-0.127,1.077-0.084,1.596,0.161c1.195,0.565,1.704,1.993,1.136,3.187C42.003,53.227,40.575,53.736,39.381,53.169z
		 M51.476,73.266c-0.518,0.245-1.08,0.288-1.595,0.161h-0.002c-0.005-0.002-0.011-0.002-0.018-0.004l-1.259-0.295l0.805,1.011
		c0.005,0.005,0.009,0.009,0.011,0.015l0.002,0.001c0.335,0.413,0.537,0.939,0.537,1.511c0,1.322-1.071,2.394-2.393,2.394
		c-1.322,0-2.393-1.072-2.393-2.394c0-0.572,0.202-1.098,0.537-1.511l0.001-0.001c0.005-0.005,0.007-0.009,0.011-0.015l0.805-1.011
		l-1.258,0.295c-0.005,0.001-0.014,0.001-0.019,0.004h-0.001c-0.516,0.127-1.078,0.084-1.595-0.161
		c-1.195-0.566-1.703-1.993-1.137-3.188c0.565-1.194,1.994-1.704,3.189-1.137c0.517,0.245,0.906,0.654,1.133,1.134h0.001
		c0.002,0.007,0.005,0.013,0.008,0.017l0.495,1.009v-1.136c0-1.075-0.529-3.347-1.787-3.834h4.017
		c-1.257,0.487-1.784,2.76-1.784,3.834v1.136l0.494-1.009c0.003-0.004,0.007-0.011,0.008-0.017c0.228-0.48,0.617-0.889,1.135-1.134
		c1.195-0.567,2.623-0.057,3.188,1.137C53.18,71.273,52.672,72.7,51.476,73.266z M51.476,58.546
		c-0.518,0.245-1.08,0.288-1.595,0.161h-0.002c-0.005-0.002-0.011-0.002-0.018-0.003l-1.259-0.295l0.805,1.012
		c0.005,0.005,0.009,0.009,0.011,0.014l0.002,0.001c0.335,0.413,0.537,0.939,0.537,1.511c0,1.322-1.071,2.394-2.393,2.394
		c-1.322,0-2.393-1.072-2.393-2.394c0-0.573,0.202-1.098,0.537-1.511l0.001-0.001c0.005-0.005,0.007-0.009,0.011-0.014l0.805-1.012
		l-1.258,0.295c-0.005,0.001-0.014,0.001-0.019,0.003h-0.001c-0.516,0.127-1.078,0.084-1.595-0.161
		c-1.195-0.566-1.703-1.993-1.137-3.188c0.565-1.194,1.994-1.704,3.189-1.137c0.517,0.245,0.906,0.654,1.133,1.134h0.001
		c0.002,0.006,0.005,0.013,0.008,0.017l0.495,1.008v-1.136c0-1.074-0.529-3.347-1.787-3.834h4.017
		c-1.257,0.487-1.784,2.76-1.784,3.834v1.136l0.494-1.008c0.003-0.004,0.007-0.011,0.008-0.017c0.228-0.48,0.617-0.889,1.135-1.134
		c1.195-0.566,2.623-0.057,3.188,1.137C53.18,56.553,52.672,57.98,51.476,58.546z M52.613,44.673
		c-0.565,1.194-1.993,1.703-3.188,1.137c-0.518-0.245-0.907-0.654-1.135-1.134c-0.001-0.006-0.005-0.013-0.008-0.017l-0.494-1.009
		v1.136c0,1.074,0.527,3.347,1.784,3.834h-4.017c1.258-0.487,1.787-2.76,1.787-3.834V43.65l-0.495,1.009
		c-0.003,0.005-0.006,0.011-0.008,0.017h-0.001c-0.227,0.48-0.616,0.889-1.133,1.134c-1.195,0.566-2.625,0.057-3.189-1.137
		c-0.566-1.195-0.058-2.622,1.137-3.188c0.517-0.245,1.079-0.288,1.595-0.161h0.001c0.006,0.002,0.015,0.002,0.019,0.003
		l1.258,0.295l-0.805-1.011c-0.005-0.005-0.007-0.01-0.011-0.015l-0.001-0.001c-0.335-0.413-0.537-0.939-0.537-1.511
		c0-1.322,1.071-2.394,2.393-2.394c1.322,0,2.393,1.072,2.393,2.394c0,0.572-0.202,1.098-0.537,1.511l-0.002,0.001
		c-0.002,0.005-0.007,0.009-0.011,0.015l-0.805,1.011l1.259-0.295c0.007-0.001,0.014-0.001,0.018-0.003h0.002
		c0.514-0.127,1.077-0.084,1.595,0.161C52.672,42.051,53.18,43.478,52.613,44.673z M52.613,29.953
		c-0.565,1.194-1.993,1.704-3.188,1.137c-0.518-0.245-0.907-0.654-1.135-1.134c-0.001-0.006-0.005-0.013-0.008-0.017l-0.494-1.008
		v1.136c0,1.074,0.527,3.347,1.784,3.834h-4.017c1.258-0.488,1.787-2.76,1.787-3.834v-1.136l-0.495,1.008
		c-0.003,0.005-0.006,0.011-0.008,0.017h-0.001c-0.227,0.48-0.616,0.889-1.133,1.134c-1.195,0.566-2.625,0.057-3.189-1.137
		c-0.566-1.195-0.058-2.622,1.137-3.188c0.517-0.245,1.079-0.287,1.595-0.161h0.001c0.006,0.002,0.015,0.002,0.019,0.003
		l1.258,0.295l-0.805-1.012c-0.005-0.005-0.007-0.009-0.011-0.014l-0.001-0.001c-0.335-0.413-0.537-0.939-0.537-1.511
		c0-1.322,1.071-2.394,2.393-2.394c1.322,0,2.393,1.072,2.393,2.394c0,0.572-0.202,1.098-0.537,1.511l-0.002,0.001
		c-0.002,0.005-0.007,0.009-0.011,0.014l-0.805,1.012l1.259-0.295c0.007-0.001,0.014-0.001,0.018-0.003h0.002
		c0.514-0.127,1.077-0.084,1.595,0.161C52.672,27.331,53.18,28.758,52.613,29.953z M57.42,80.525c-0.791,0-1.427-0.309-1.809-0.891
		c-0.4-0.591-0.573-1.318-0.573-2.354c0-2.418,0.891-3.708,2.564-3.708c1.109,0,1.936,0.491,1.936,1.154
		c0,0.354-0.245,0.563-0.654,0.563c-0.228,0-0.418-0.064-0.5-0.173c-0.054-0.082-0.054-0.1-0.082-0.491
		c-0.036-0.536-0.291-0.827-0.727-0.827c-0.545,0-0.937,0.418-1.127,1.2c-0.119,0.482-0.191,1.145-0.191,1.727
		c0.482-0.455,0.882-0.627,1.473-0.627c1.208,0,2.036,0.854,2.036,2.109C59.765,79.597,58.829,80.525,57.42,80.525z M59.236,69.764
		c-0.233,0.11-0.485,0.129-0.715,0.072H58.52c-0.002-0.001-0.006-0.001-0.008-0.001l-0.566-0.132l0.362,0.454
		c0.002,0.002,0.005,0.004,0.006,0.006l0.001,0c0.149,0.186,0.241,0.421,0.241,0.678c0,0.593-0.481,1.074-1.073,1.074
		c-0.593,0-1.075-0.481-1.075-1.074c0-0.257,0.091-0.493,0.242-0.678l0.001,0c0.001-0.002,0.002-0.004,0.003-0.006l0.362-0.454
		l-0.565,0.132c-0.002,0-0.006,0-0.008,0.001h-0.001c-0.23,0.057-0.484,0.038-0.715-0.072c-0.536-0.254-0.764-0.894-0.511-1.43
		c0.254-0.536,0.895-0.764,1.432-0.51c0.232,0.11,0.406,0.293,0.509,0.509h0.001c0,0.003,0.002,0.006,0.002,0.008l0.222,0.453v-0.51
		c0-0.482-0.237-1.501-0.802-1.72h1.802c-0.563,0.219-0.801,1.239-0.801,1.72v0.51l0.222-0.453c0.001-0.002,0.002-0.005,0.003-0.008
		c0.102-0.215,0.276-0.399,0.51-0.509c0.535-0.254,1.176-0.026,1.429,0.51C60,68.869,59.772,69.51,59.236,69.764z"/>
	<path d="M59.139,15.34h-43.24c-1.802,0-3.267,1.465-3.267,3.266v62.82c0,1.801,1.465,3.266,3.267,3.266h43.24
		c1.802,0,3.267-1.465,3.267-3.266v-62.82C62.406,16.805,60.941,15.34,59.139,15.34z M61.976,81.426
		c0,1.564-1.272,2.836-2.837,2.836h-43.24c-1.564,0-2.837-1.272-2.837-2.836v-62.82c0-1.563,1.272-2.836,2.837-2.836h43.24
		c1.564,0,2.837,1.272,2.837,2.836V81.426z"/>
	<path d="M19.312,30.268c-0.232-0.11-0.484-0.129-0.715-0.072c-0.003,0.001-0.007,0.001-0.009,0.001l-0.565,0.132l0.362-0.454
		c0.001-0.002,0.003-0.004,0.005-0.006l0.001,0c0.151-0.186,0.241-0.421,0.241-0.678c0-0.593-0.48-1.074-1.073-1.074
		c-0.593,0-1.073,0.481-1.073,1.074c0,0.257,0.09,0.492,0.241,0.678l0.001,0c0.001,0.002,0.002,0.004,0.005,0.006l0.362,0.454
		l-0.565-0.132c-0.003-0.001-0.006-0.001-0.008-0.001h-0.001c-0.232-0.057-0.484-0.038-0.716,0.072
		c-0.536,0.253-0.764,0.894-0.51,1.43c0.253,0.536,0.894,0.764,1.43,0.51c0.233-0.11,0.407-0.293,0.509-0.509
		c0.001-0.003,0.002-0.005,0.003-0.008l0.222-0.452v0.51c0,0.482-0.236,1.502-0.801,1.72h1.802c-0.563-0.218-0.802-1.238-0.802-1.72
		v-0.51l0.222,0.452c0.001,0.002,0.003,0.005,0.003,0.008h0.001c0.102,0.216,0.276,0.399,0.508,0.509
		c0.537,0.254,1.177,0.025,1.43-0.51C20.077,31.162,19.849,30.521,19.312,30.268z"/>
	<path d="M25.613,31.09c0.518-0.245,0.907-0.654,1.135-1.134c0.002-0.006,0.006-0.013,0.009-0.017l0.494-1.008v1.136
		c0,1.074-0.528,3.347-1.784,3.834h4.017c-1.258-0.488-1.787-2.76-1.787-3.834v-1.136l0.495,1.008
		c0.001,0.005,0.005,0.011,0.007,0.017H28.2c0.227,0.48,0.616,0.889,1.133,1.134c1.197,0.566,2.625,0.057,3.19-1.137
		c0.566-1.195,0.058-2.622-1.137-3.188c-0.518-0.245-1.08-0.287-1.596-0.161h-0.002c-0.006,0.002-0.013,0.002-0.018,0.003
		l-1.258,0.295l0.805-1.012c0.003-0.005,0.008-0.009,0.011-0.014l0.001-0.001c0.335-0.413,0.537-0.939,0.537-1.511
		c0-1.322-1.071-2.394-2.393-2.394s-2.392,1.072-2.392,2.394c0,0.572,0.201,1.098,0.537,1.511l0.001,0.001
		c0.002,0.005,0.007,0.009,0.011,0.014l0.805,1.012l-1.259-0.295c-0.007-0.001-0.013-0.001-0.018-0.003h-0.001
		c-0.516-0.127-1.078-0.084-1.595,0.161c-1.195,0.566-1.704,1.993-1.138,3.188C22.989,31.147,24.418,31.656,25.613,31.09z"/>
	<path d="M51.476,26.765c-0.518-0.245-1.08-0.287-1.595-0.161h-0.002c-0.005,0.002-0.011,0.002-0.018,0.003l-1.259,0.295
		l0.805-1.012c0.005-0.005,0.009-0.009,0.011-0.014l0.002-0.001c0.335-0.413,0.537-0.939,0.537-1.511
		c0-1.322-1.071-2.394-2.393-2.394c-1.322,0-2.393,1.072-2.393,2.394c0,0.572,0.202,1.098,0.537,1.511l0.001,0.001
		c0.005,0.005,0.007,0.009,0.011,0.014l0.805,1.012l-1.258-0.295c-0.005-0.001-0.014-0.001-0.019-0.003h-0.001
		c-0.516-0.127-1.078-0.084-1.595,0.161c-1.195,0.566-1.703,1.993-1.137,3.188c0.565,1.194,1.994,1.704,3.189,1.137
		c0.517-0.245,0.906-0.654,1.133-1.134h0.001c0.002-0.006,0.005-0.013,0.008-0.017l0.495-1.008v1.136
		c0,1.074-0.529,3.347-1.787,3.834h4.017c-1.257-0.488-1.784-2.76-1.784-3.834v-1.136l0.494,1.008
		c0.003,0.005,0.007,0.011,0.008,0.017c0.228,0.48,0.617,0.889,1.135,1.134c1.195,0.566,2.623,0.057,3.188-1.137
		C53.18,28.758,52.672,27.331,51.476,26.765z"/>
	<path d="M25.613,45.809c0.518-0.245,0.907-0.654,1.135-1.134c0.002-0.006,0.006-0.013,0.009-0.017l0.494-1.009v1.136
		c0,1.074-0.528,3.347-1.784,3.834h4.017c-1.258-0.487-1.787-2.76-1.787-3.834V43.65l0.495,1.009
		c0.001,0.005,0.005,0.011,0.007,0.017H28.2c0.227,0.48,0.616,0.889,1.133,1.134c1.197,0.566,2.625,0.057,3.19-1.137
		c0.566-1.195,0.058-2.622-1.137-3.188c-0.518-0.245-1.08-0.288-1.596-0.161h-0.002c-0.006,0.002-0.013,0.002-0.018,0.003
		l-1.258,0.295l0.805-1.011c0.003-0.005,0.008-0.01,0.011-0.015l0.001-0.001c0.335-0.413,0.537-0.939,0.537-1.511
		c0-1.322-1.071-2.394-2.393-2.394s-2.392,1.072-2.392,2.394c0,0.572,0.201,1.098,0.537,1.511l0.001,0.001
		c0.002,0.005,0.007,0.009,0.011,0.015l0.805,1.011l-1.259-0.295c-0.007-0.001-0.013-0.001-0.018-0.003h-0.001
		c-0.516-0.127-1.078-0.084-1.595,0.161c-1.195,0.566-1.704,1.993-1.138,3.188C22.989,45.867,24.418,46.376,25.613,45.809z"/>
	<path d="M51.476,41.485c-0.518-0.245-1.08-0.288-1.595-0.161h-0.002c-0.005,0.002-0.011,0.002-0.018,0.003l-1.259,0.295
		l0.805-1.011c0.005-0.005,0.009-0.01,0.011-0.015l0.002-0.001c0.335-0.413,0.537-0.939,0.537-1.511
		c0-1.322-1.071-2.394-2.393-2.394c-1.322,0-2.393,1.072-2.393,2.394c0,0.572,0.202,1.098,0.537,1.511l0.001,0.001
		c0.005,0.005,0.007,0.009,0.011,0.015l0.805,1.011l-1.258-0.295c-0.005-0.001-0.014-0.001-0.019-0.003h-0.001
		c-0.516-0.127-1.078-0.084-1.595,0.161c-1.195,0.566-1.703,1.993-1.137,3.188c0.565,1.194,1.994,1.703,3.189,1.137
		c0.517-0.245,0.906-0.654,1.133-1.134h0.001c0.002-0.006,0.005-0.013,0.008-0.017l0.495-1.009v1.136
		c0,1.074-0.529,3.347-1.787,3.834h4.017c-1.257-0.487-1.784-2.76-1.784-3.834V43.65l0.494,1.009
		c0.003,0.005,0.007,0.011,0.008,0.017c0.228,0.48,0.617,0.889,1.135,1.134c1.195,0.566,2.623,0.057,3.188-1.137
		C53.18,43.478,52.672,42.051,51.476,41.485z"/>
	<path d="M41.432,48.845c-0.519-0.245-1.081-0.288-1.596-0.161h-0.002c-0.005,0.002-0.011,0.002-0.018,0.004l-1.258,0.294
		l0.804-1.011c0.005-0.005,0.01-0.01,0.011-0.015l0.002-0.001c0.336-0.413,0.537-0.939,0.537-1.511c0-1.322-1.07-2.394-2.393-2.394
		c-1.321,0-2.393,1.072-2.393,2.394c0,0.572,0.203,1.098,0.538,1.511l0.001,0.001c0.003,0.005,0.007,0.01,0.011,0.015l0.805,1.011
		l-1.259-0.294c-0.005-0.001-0.013-0.001-0.018-0.004h-0.001c-0.516-0.127-1.079-0.084-1.596,0.161
		c-1.194,0.565-1.703,1.993-1.137,3.187c0.566,1.194,1.994,1.704,3.19,1.137c0.517-0.245,0.906-0.654,1.132-1.133h0.002
		c0.001-0.006,0.005-0.013,0.007-0.017l0.495-1.008v1.137c0,1.074-0.529,3.347-1.787,3.834h4.017
		c-1.257-0.487-1.784-2.76-1.784-3.834V51.01l0.494,1.008c0.005,0.005,0.007,0.011,0.009,0.017c0.227,0.48,0.616,0.889,1.135,1.133
		c1.194,0.567,2.622,0.057,3.187-1.137C43.136,50.838,42.627,49.411,41.432,48.845z"/>
	<path d="M29.332,68.941c-0.517,0.245-0.906,0.654-1.133,1.134h-0.001c-0.002,0.007-0.006,0.013-0.007,0.017l-0.495,1.009v-1.136
		c0-1.075,0.529-3.347,1.787-3.834h-4.017c1.256,0.487,1.784,2.76,1.784,3.834v1.136l-0.494-1.009
		c-0.003-0.004-0.007-0.011-0.009-0.017c-0.228-0.48-0.617-0.889-1.135-1.134c-1.194-0.567-2.624-0.057-3.188,1.137
		c-0.566,1.195-0.057,2.622,1.138,3.188c0.517,0.245,1.079,0.288,1.595,0.161h0.001c0.006-0.002,0.011-0.002,0.018-0.004
		l1.259-0.295l-0.805,1.011c-0.005,0.005-0.009,0.009-0.011,0.015l-0.001,0.001c-0.337,0.413-0.537,0.939-0.537,1.511
		c0,1.322,1.07,2.394,2.392,2.394s2.393-1.072,2.393-2.394c0-0.572-0.202-1.098-0.537-1.511l-0.001-0.001
		c-0.003-0.005-0.008-0.009-0.011-0.015l-0.805-1.011l1.258,0.295c0.006,0.001,0.013,0.001,0.018,0.004h0.002
		c0.516,0.127,1.078,0.084,1.596-0.161c1.195-0.566,1.703-1.993,1.137-3.188C31.957,68.884,30.529,68.375,29.332,68.941z"/>
	<path d="M29.332,54.221c-0.517,0.245-0.906,0.654-1.133,1.134h-0.001c-0.002,0.006-0.006,0.013-0.007,0.017l-0.495,1.008v-1.136
		c0-1.074,0.529-3.347,1.787-3.834h-4.017c1.256,0.487,1.784,2.76,1.784,3.834v1.136l-0.494-1.008
		c-0.003-0.004-0.007-0.011-0.009-0.017c-0.228-0.48-0.617-0.889-1.135-1.134c-1.194-0.566-2.624-0.057-3.188,1.137
		c-0.566,1.195-0.057,2.622,1.138,3.188c0.517,0.245,1.079,0.288,1.595,0.161h0.001c0.006-0.002,0.011-0.002,0.018-0.003
		l1.259-0.295l-0.805,1.012c-0.005,0.005-0.009,0.009-0.011,0.014l-0.001,0.001c-0.337,0.413-0.537,0.939-0.537,1.511
		c0,1.322,1.07,2.394,2.392,2.394s2.393-1.072,2.393-2.394c0-0.573-0.202-1.098-0.537-1.511l-0.001-0.001
		c-0.003-0.005-0.008-0.009-0.011-0.014l-0.805-1.012l1.258,0.295c0.006,0.001,0.013,0.001,0.018,0.003h0.002
		c0.516,0.127,1.078,0.084,1.596-0.161c1.195-0.566,1.703-1.993,1.137-3.188C31.957,54.164,30.529,53.655,29.332,54.221z"/>
	<path d="M49.425,68.941c-0.518,0.245-0.907,0.654-1.135,1.134c-0.001,0.007-0.005,0.013-0.008,0.017l-0.494,1.009v-1.136
		c0-1.075,0.527-3.347,1.784-3.834h-4.017c1.258,0.487,1.787,2.76,1.787,3.834v1.136l-0.495-1.009
		c-0.003-0.004-0.006-0.011-0.008-0.017h-0.001c-0.227-0.48-0.616-0.889-1.133-1.134c-1.195-0.567-2.625-0.057-3.189,1.137
		c-0.566,1.195-0.058,2.622,1.137,3.188c0.517,0.245,1.079,0.288,1.595,0.161h0.001c0.006-0.002,0.015-0.002,0.019-0.004
		l1.258-0.295l-0.805,1.011c-0.005,0.005-0.007,0.009-0.011,0.015l-0.001,0.001c-0.335,0.413-0.537,0.939-0.537,1.511
		c0,1.322,1.071,2.394,2.393,2.394c1.322,0,2.393-1.072,2.393-2.394c0-0.572-0.202-1.098-0.537-1.511l-0.002-0.001
		c-0.002-0.005-0.007-0.009-0.011-0.015l-0.805-1.011l1.259,0.295c0.007,0.001,0.014,0.001,0.018,0.004h0.002
		c0.514,0.127,1.077,0.084,1.595-0.161c1.195-0.566,1.704-1.993,1.137-3.188C52.049,68.884,50.621,68.375,49.425,68.941z"/>
	<path d="M49.425,54.221c-0.518,0.245-0.907,0.654-1.135,1.134c-0.001,0.006-0.005,0.013-0.008,0.017l-0.494,1.008v-1.136
		c0-1.074,0.527-3.347,1.784-3.834h-4.017c1.258,0.487,1.787,2.76,1.787,3.834v1.136l-0.495-1.008
		c-0.003-0.004-0.006-0.011-0.008-0.017h-0.001c-0.227-0.48-0.616-0.889-1.133-1.134c-1.195-0.566-2.625-0.057-3.189,1.137
		c-0.566,1.195-0.058,2.622,1.137,3.188c0.517,0.245,1.079,0.288,1.595,0.161h0.001c0.006-0.002,0.015-0.002,0.019-0.003
		l1.258-0.295l-0.805,1.012c-0.005,0.005-0.007,0.009-0.011,0.014l-0.001,0.001c-0.335,0.413-0.537,0.939-0.537,1.511
		c0,1.322,1.071,2.394,2.393,2.394c1.322,0,2.393-1.072,2.393-2.394c0-0.573-0.202-1.098-0.537-1.511l-0.002-0.001
		c-0.002-0.005-0.007-0.009-0.011-0.014l-0.805-1.012l1.259,0.295c0.007,0.001,0.014,0.001,0.018,0.003h0.002
		c0.514,0.127,1.077,0.084,1.595-0.161c1.195-0.566,1.704-1.993,1.137-3.188C52.049,54.164,50.621,53.655,49.425,54.221z"/>
	<path class="st5" d="M17.616,19.507c-1.409,0-2.345,0.927-2.345,2.318c0,1.254,0.828,2.109,2.036,2.109
		c0.591,0,0.991-0.173,1.473-0.627c0,0.582-0.072,1.245-0.191,1.727c-0.191,0.782-0.582,1.2-1.127,1.2
		c-0.436,0-0.691-0.291-0.727-0.827c-0.027-0.391-0.027-0.409-0.082-0.491c-0.082-0.109-0.273-0.173-0.5-0.173
		c-0.409,0-0.654,0.209-0.654,0.563c0,0.664,0.827,1.155,1.936,1.155c1.673,0,2.564-1.291,2.564-3.709
		c0-1.036-0.173-1.763-0.573-2.354C19.043,19.816,18.407,19.507,17.616,19.507z M18.615,22.997
		c-0.227,0.391-0.618,0.636-1.009,0.636c-0.3,0-0.573-0.145-0.772-0.418c-0.237-0.327-0.355-0.791-0.355-1.418
		c0-1.291,0.418-2.063,1.109-2.063c0.391,0,0.736,0.264,0.918,0.691c0.182,0.445,0.291,1.045,0.291,1.655
		C18.797,22.497,18.743,22.77,18.615,22.997z"/>
	<path d="M58.317,67.823c-0.234,0.11-0.408,0.293-0.51,0.509c-0.001,0.003-0.002,0.006-0.003,0.008l-0.222,0.453v-0.51
		c0-0.482,0.237-1.501,0.801-1.72H56.58c0.565,0.219,0.802,1.239,0.802,1.72v0.51l-0.222-0.453c0-0.002-0.002-0.005-0.002-0.008
		h-0.001c-0.103-0.215-0.277-0.399-0.509-0.509c-0.536-0.254-1.177-0.026-1.432,0.51c-0.253,0.536-0.025,1.177,0.511,1.43
		c0.232,0.11,0.485,0.129,0.715,0.072h0.001c0.002-0.001,0.006-0.001,0.008-0.001l0.565-0.132l-0.362,0.454
		c-0.001,0.002-0.002,0.004-0.003,0.006l-0.001,0c-0.151,0.186-0.242,0.421-0.242,0.678c0,0.593,0.481,1.074,1.075,1.074
		c0.592,0,1.073-0.481,1.073-1.074c0-0.257-0.091-0.493-0.241-0.678l-0.001,0c-0.001-0.002-0.003-0.004-0.006-0.006l-0.362-0.454
		l0.566,0.132c0.002,0,0.006,0,0.008,0.001h0.001c0.23,0.057,0.482,0.038,0.715-0.072c0.536-0.254,0.764-0.894,0.51-1.43
		C59.493,67.797,58.852,67.569,58.317,67.823z"/>
	<path class="st5" d="M57.729,76.098c-0.591,0-0.991,0.173-1.473,0.627c0-0.582,0.072-1.245,0.191-1.727
		c0.19-0.782,0.582-1.2,1.127-1.2c0.436,0,0.691,0.291,0.727,0.827c0.027,0.391,0.027,0.409,0.082,0.491
		c0.082,0.109,0.273,0.173,0.5,0.173c0.409,0,0.654-0.209,0.654-0.563c0-0.664-0.827-1.154-1.936-1.154
		c-1.673,0-2.564,1.291-2.564,3.708c0,1.036,0.173,1.763,0.573,2.354c0.382,0.582,1.018,0.891,1.809,0.891
		c1.409,0,2.345-0.927,2.345-2.318C59.765,76.952,58.938,76.098,57.729,76.098z M57.448,80.297c-0.391,0-0.736-0.263-0.918-0.691
		c-0.182-0.445-0.291-1.045-0.291-1.654c0-0.418,0.055-0.691,0.182-0.918c0.227-0.391,0.618-0.636,1.009-0.636
		c0.3,0,0.573,0.146,0.772,0.418c0.237,0.327,0.355,0.791,0.355,1.418C58.556,79.525,58.138,80.297,57.448,80.297z"/>
</g>
</svg>
