<?xml version="1.0" encoding="utf-8"?>
<!-- Generator: Adobe Illustrator 23.0.2, SVG Export Plug-In . SVG Version: 6.00 Build 0)  -->
<svg version="1.1" id="Layer_1" xmlns="http://www.w3.org/2000/svg" xmlns:xlink="http://www.w3.org/1999/xlink" x="0px" y="0px"
	 viewBox="0 0 82.452 99.776" style="enable-background:new 0 0 82.452 99.776;" xml:space="preserve">
<style type="text/css">
	.st0{fill:#FFFFFF;}
	.st1{fill:#ED1C24;}
	.st2{fill:#FFCB05;}
	.st3{fill:#21409A;}
	.st4{fill:#D4D5D6;}
	.st5{fill:#000100;}
	.st6{fill:#300505;}
	.st7{fill:#BFD730;}
	.st8{fill:#F15A22;}
</style>
<g>
	<path class="st0" d="M22.046,25.356c-0.691,0-1.109,0.773-1.109,2.063c0,0.627,0.118,1.091,0.355,1.418
		c0.2,0.273,0.472,0.418,0.772,0.418c0.391,0,0.782-0.245,1.009-0.636c0.127-0.227,0.182-0.5,0.182-0.918
		c0-0.609-0.109-1.209-0.291-1.654C22.783,25.62,22.438,25.356,22.046,25.356z"/>
	<path class="st0" d="M61.888,82.02c-0.391,0-0.782,0.245-1.009,0.636c-0.127,0.227-0.182,0.5-0.182,0.918
		c0,0.609,0.109,1.209,0.291,1.654c0.182,0.427,0.527,0.691,0.918,0.691c0.691,0,1.109-0.773,1.109-2.063
		c0-0.627-0.118-1.091-0.355-1.418C62.46,82.165,62.187,82.02,61.888,82.02z"/>
	<path class="st0" d="M63.597,21.391h-43.24c-1.564,0-2.837,1.272-2.837,2.836v62.82c0,1.564,1.272,2.836,2.837,2.836h43.24
		c1.564,0,2.837-1.272,2.837-2.836v-62.82C66.434,22.663,65.162,21.391,63.597,21.391z M61.939,72.164
		c0.249,0.867,1.253,2.228,2.067,2.693c-0.814,0.465-1.818,1.825-2.067,2.693c-0.249-0.868-1.254-2.228-2.068-2.693
		C60.685,74.392,61.69,73.032,61.939,72.164z M31.93,26.878c0.617,2.151,3.106,5.523,5.125,6.675
		c-2.019,1.152-4.508,4.523-5.125,6.674c-0.616-2.151-3.104-5.522-5.124-6.674C28.826,32.401,31.314,29.029,31.93,26.878z
		 M31.93,41.602c0.617,2.15,3.106,5.523,5.124,6.674c-2.018,1.152-4.507,4.523-5.124,6.674c-0.617-2.151-3.105-5.522-5.125-6.674
		C28.825,47.124,31.313,43.752,31.93,41.602z M22.017,39.111c-0.25-0.868-1.252-2.227-2.068-2.693
		c0.816-0.465,1.818-1.825,2.068-2.693c0.249,0.868,1.252,2.228,2.067,2.693C23.269,36.883,22.265,38.243,22.017,39.111z
		 M21.892,32.082c-1.109,0-1.936-0.491-1.936-1.154c0-0.354,0.245-0.563,0.654-0.563c0.228,0,0.418,0.064,0.5,0.173
		c0.054,0.082,0.054,0.1,0.082,0.491c0.036,0.536,0.291,0.827,0.727,0.827c0.545,0,0.936-0.418,1.127-1.2
		c0.119-0.482,0.191-1.145,0.191-1.727c-0.482,0.455-0.882,0.627-1.473,0.627c-1.209,0-2.036-0.854-2.036-2.109
		c0-1.391,0.937-2.318,2.345-2.318c0.791,0,1.427,0.309,1.809,0.891c0.4,0.591,0.573,1.318,0.573,2.354
		C24.455,30.792,23.565,32.082,21.892,32.082z M31.93,56.325c0.617,2.15,3.106,5.523,5.124,6.674
		c-2.018,1.152-4.507,4.523-5.124,6.674c-0.617-2.15-3.105-5.522-5.125-6.674C28.825,61.848,31.313,58.475,31.93,56.325z
		 M31.93,84.396c-0.616-2.151-3.104-5.523-5.124-6.674c2.02-1.152,4.508-4.523,5.124-6.674c0.617,2.15,3.106,5.522,5.125,6.674
		C35.036,78.874,32.547,82.246,31.93,84.396z M41.974,62.306c-0.617-2.151-3.105-5.522-5.123-6.674
		c2.018-1.152,4.506-4.523,5.123-6.674c0.617,2.151,3.106,5.522,5.124,6.674C45.08,56.784,42.591,60.156,41.974,62.306z
		 M52.018,84.396c-0.616-2.151-3.105-5.523-5.124-6.674c2.019-1.152,4.508-4.523,5.124-6.674c0.617,2.15,3.106,5.522,5.124,6.674
		C55.125,78.874,52.636,82.246,52.018,84.396z M52.018,69.673c-0.616-2.15-3.105-5.522-5.124-6.674
		c2.019-1.152,4.508-4.524,5.124-6.674c0.617,2.15,3.106,5.523,5.124,6.674C55.125,64.151,52.636,67.522,52.018,69.673z
		 M52.018,54.95c-0.616-2.151-3.105-5.522-5.124-6.674c2.019-1.151,4.508-4.524,5.124-6.674c0.617,2.15,3.106,5.523,5.124,6.674
		C55.125,49.428,52.636,52.799,52.018,54.95z M52.018,40.227c-0.616-2.151-3.105-5.522-5.124-6.674
		c2.019-1.152,4.508-4.524,5.124-6.675c0.617,2.151,3.106,5.523,5.124,6.675C55.125,34.705,52.636,38.076,52.018,40.227z
		 M61.878,86.146c-0.791,0-1.427-0.309-1.809-0.891c-0.4-0.591-0.573-1.318-0.573-2.354c0-2.418,0.891-3.708,2.564-3.708
		c1.109,0,1.936,0.491,1.936,1.154c0,0.354-0.245,0.563-0.654,0.563c-0.228,0-0.418-0.064-0.5-0.173
		c-0.054-0.082-0.054-0.1-0.082-0.491c-0.036-0.536-0.291-0.827-0.727-0.827c-0.545,0-0.937,0.418-1.127,1.2
		c-0.119,0.482-0.191,1.145-0.191,1.727c0.482-0.455,0.882-0.627,1.473-0.627c1.208,0,2.036,0.854,2.036,2.109
		C64.224,85.219,63.287,86.146,61.878,86.146z"/>
	<path d="M63.597,20.961h-43.24c-1.802,0-3.267,1.465-3.267,3.266v62.82c0,1.801,1.465,3.266,3.267,3.266h43.24
		c1.802,0,3.267-1.465,3.267-3.266v-62.82C66.864,22.426,65.399,20.961,63.597,20.961z M66.434,87.047
		c0,1.564-1.272,2.836-2.837,2.836h-43.24c-1.564,0-2.837-1.272-2.837-2.836v-62.82c0-1.564,1.272-2.836,2.837-2.836h43.24
		c1.564,0,2.837,1.272,2.837,2.836V87.047z"/>
	<path class="st1" d="M22.074,25.129c-1.409,0-2.345,0.927-2.345,2.318c0,1.254,0.828,2.109,2.036,2.109
		c0.591,0,0.991-0.173,1.473-0.627c0,0.582-0.072,1.245-0.191,1.727c-0.191,0.782-0.582,1.2-1.127,1.2
		c-0.436,0-0.691-0.291-0.727-0.827c-0.027-0.391-0.027-0.409-0.082-0.491c-0.082-0.109-0.273-0.173-0.5-0.173
		c-0.409,0-0.654,0.209-0.654,0.563c0,0.664,0.827,1.154,1.936,1.154c1.673,0,2.564-1.291,2.564-3.708
		c0-1.036-0.173-1.763-0.573-2.354C23.501,25.438,22.865,25.129,22.074,25.129z M23.073,28.619
		c-0.227,0.391-0.618,0.636-1.009,0.636c-0.3,0-0.573-0.145-0.772-0.418c-0.237-0.327-0.355-0.791-0.355-1.418
		c0-1.291,0.418-2.063,1.109-2.063c0.391,0,0.736,0.263,0.918,0.691c0.182,0.445,0.291,1.045,0.291,1.654
		C23.255,28.119,23.201,28.392,23.073,28.619z"/>
	<path class="st1" d="M62.187,81.72c-0.591,0-0.991,0.173-1.473,0.627c0-0.582,0.072-1.245,0.191-1.727
		c0.19-0.782,0.582-1.2,1.127-1.2c0.436,0,0.691,0.291,0.727,0.827c0.027,0.391,0.027,0.409,0.082,0.491
		c0.082,0.109,0.273,0.173,0.5,0.173c0.409,0,0.654-0.209,0.654-0.563c0-0.664-0.827-1.154-1.936-1.154
		c-1.673,0-2.564,1.291-2.564,3.708c0,1.036,0.173,1.763,0.573,2.354c0.382,0.582,1.018,0.891,1.809,0.891
		c1.409,0,2.345-0.927,2.345-2.318C64.224,82.574,63.396,81.72,62.187,81.72z M61.906,85.919c-0.391,0-0.736-0.263-0.918-0.691
		c-0.182-0.445-0.291-1.045-0.291-1.654c0-0.418,0.055-0.691,0.182-0.918c0.227-0.391,0.618-0.636,1.009-0.636
		c0.3,0,0.573,0.145,0.772,0.418c0.237,0.327,0.355,0.791,0.355,1.418C63.014,85.147,62.596,85.919,61.906,85.919z"/>
	<path class="st1" d="M31.93,40.227c0.617-2.151,3.106-5.522,5.125-6.674c-2.019-1.152-4.508-4.524-5.125-6.675
		c-0.616,2.151-3.104,5.523-5.124,6.675C28.826,34.705,31.314,38.076,31.93,40.227z"/>
	<path class="st1" d="M52.018,26.878c-0.616,2.151-3.105,5.523-5.124,6.675c2.019,1.152,4.508,4.523,5.124,6.674
		c0.617-2.151,3.106-5.522,5.124-6.674C55.125,32.401,52.636,29.029,52.018,26.878z"/>
	<path class="st1" d="M31.93,71.048c-0.616,2.15-3.104,5.522-5.124,6.674c2.02,1.151,4.508,4.524,5.124,6.674
		c0.617-2.151,3.106-5.523,5.125-6.674C35.036,76.57,32.547,73.199,31.93,71.048z"/>
	<path class="st1" d="M52.018,71.048c-0.616,2.15-3.105,5.522-5.124,6.674c2.019,1.151,4.508,4.524,5.124,6.674
		c0.617-2.151,3.106-5.523,5.124-6.674C55.125,76.57,52.636,73.199,52.018,71.048z"/>
	<path class="st1" d="M31.93,69.673c0.617-2.15,3.106-5.522,5.124-6.674c-2.018-1.152-4.507-4.524-5.124-6.674
		c-0.617,2.15-3.105,5.523-5.125,6.674C28.825,64.151,31.313,67.522,31.93,69.673z"/>
	<path class="st1" d="M31.93,54.95c0.617-2.151,3.106-5.522,5.124-6.674c-2.018-1.151-4.507-4.524-5.124-6.674
		c-0.617,2.15-3.105,5.523-5.125,6.674C28.825,49.428,31.313,52.799,31.93,54.95z"/>
	<path class="st1" d="M52.018,56.325c-0.616,2.15-3.105,5.523-5.124,6.674c2.019,1.152,4.508,4.523,5.124,6.674
		c0.617-2.15,3.106-5.522,5.124-6.674C55.125,61.848,52.636,58.475,52.018,56.325z"/>
	<ellipse class="st1" cx="52.018" cy="48.276" rx="5.124" ry="6.674"/>
	<path class="st1" d="M41.974,48.958c-0.617,2.151-3.105,5.522-5.123,6.674c2.018,1.152,4.506,4.524,5.123,6.674
		c0.617-2.151,3.106-5.522,5.124-6.674C45.08,54.48,42.591,51.109,41.974,48.958z"/>
	<path class="st1" d="M22.017,33.725c-0.25,0.868-1.252,2.228-2.068,2.693c0.816,0.465,1.818,1.825,2.068,2.693
		c0.249-0.868,1.252-2.227,2.067-2.693C23.269,35.953,22.265,34.593,22.017,33.725z"/>
	<path class="st1" d="M61.939,77.55c0.249-0.868,1.253-2.228,2.067-2.693c-0.814-0.465-1.818-1.825-2.067-2.693
		c-0.249,0.867-1.254,2.228-2.068,2.693C60.685,75.322,61.69,76.682,61.939,77.55z"/>
</g>
</svg>
