<?xml version="1.0" encoding="utf-8"?>
<!-- Generator: Adobe Illustrator 23.0.2, SVG Export Plug-In . SVG Version: 6.00 Build 0)  -->
<svg version="1.1" id="Layer_1" xmlns="http://www.w3.org/2000/svg" xmlns:xlink="http://www.w3.org/1999/xlink" x="0px" y="0px"
	 viewBox="0 0 82.452 99.776" style="enable-background:new 0 0 82.452 99.776;" xml:space="preserve">
<style type="text/css">
	.st0{fill:#FFFFFF;}
	.st1{fill:#ED1C24;}
	.st2{fill:#FFCB05;}
	.st3{fill:#21409A;}
	.st4{fill:#D4D5D6;}
	.st5{fill:#000100;}
	.st6{fill:#300505;}
	.st7{fill:#BFD730;}
	.st8{fill:#F15A22;}
</style>
<g>
	<path class="st0" d="M65.043,81.216c-0.391,0-0.782,0.245-1.009,0.636c-0.127,0.227-0.182,0.5-0.182,0.918
		c0,0.609,0.109,1.209,0.291,1.654c0.182,0.428,0.527,0.691,0.918,0.691c0.691,0,1.109-0.773,1.109-2.063
		c0-0.627-0.118-1.091-0.355-1.418C65.616,81.362,65.343,81.216,65.043,81.216z"/>
	<path class="st0" d="M25.202,24.553c-0.691,0-1.109,0.773-1.109,2.063c0,0.627,0.118,1.091,0.355,1.418
		c0.2,0.273,0.472,0.418,0.772,0.418c0.391,0,0.782-0.245,1.009-0.636c0.127-0.227,0.182-0.5,0.182-0.918
		c0-0.609-0.109-1.209-0.291-1.654C25.938,24.816,25.593,24.553,25.202,24.553z"/>
	<path class="st0" d="M66.753,20.588h-43.24c-1.564,0-2.837,1.272-2.837,2.836v62.82c0,1.564,1.272,2.836,2.837,2.836h43.24
		c1.564,0,2.837-1.272,2.837-2.836v-62.82C69.59,21.86,68.317,20.588,66.753,20.588z M35.088,29.178
		c1.055-4.17,5.197-3.06,5.197,0.873c0,2.573-1.395,4.279-2.863,5.893c-0.733,0.809-1.709,1.889-2.334,3.021
		c-0.626-1.132-1.602-2.212-2.336-3.021c-1.468-1.614-2.864-3.321-2.864-5.893C29.888,26.119,34.031,25.009,35.088,29.178z
		 M35.087,43.902c1.055-4.17,5.198-3.06,5.198,0.874c0,2.572-1.395,4.278-2.863,5.893c-0.735,0.808-1.71,1.889-2.335,3.021
		c-0.626-1.132-1.6-2.212-2.336-3.021c-1.467-1.615-2.863-3.321-2.863-5.893C29.888,40.843,34.031,39.732,35.087,43.902z
		 M26.219,37.047c-0.33,0.362-0.767,0.846-1.047,1.354c-0.279-0.507-0.716-0.992-1.046-1.354c-0.658-0.724-1.283-1.488-1.283-2.641
		c0-1.763,1.857-2.261,2.329-0.392c0.473-1.869,2.33-1.371,2.33,0.392C27.503,35.558,26.877,36.323,26.219,37.047z M25.047,31.279
		c-1.109,0-1.936-0.491-1.936-1.154c0-0.354,0.245-0.563,0.654-0.563c0.228,0,0.418,0.064,0.5,0.173
		c0.054,0.082,0.054,0.1,0.082,0.491c0.036,0.536,0.291,0.827,0.727,0.827c0.545,0,0.936-0.418,1.127-1.2
		c0.119-0.482,0.191-1.145,0.191-1.727c-0.482,0.455-0.882,0.627-1.473,0.627c-1.209,0-2.036-0.854-2.036-2.109
		c0-1.391,0.937-2.318,2.345-2.318c0.791,0,1.427,0.309,1.809,0.891c0.4,0.591,0.573,1.318,0.573,2.354
		C27.611,29.988,26.72,31.279,25.047,31.279z M35.088,80.49c-1.057,4.17-5.2,3.06-5.2-0.874c0-2.572,1.396-4.279,2.864-5.893
		c0.735-0.809,1.71-1.889,2.336-3.021c0.625,1.132,1.6,2.212,2.334,3.021c1.468,1.615,2.863,3.321,2.863,5.893
		C40.285,83.55,36.143,84.66,35.088,80.49z M35.088,65.767c-1.057,4.169-5.2,3.059-5.2-0.874c0-2.572,1.396-4.279,2.864-5.893
		c0.735-0.809,1.71-1.889,2.336-3.02c0.625,1.132,1.6,2.212,2.334,3.02c1.468,1.615,2.863,3.321,2.863,5.893
		C40.285,68.826,36.143,69.936,35.088,65.767z M45.13,61.046c-0.626-1.133-1.6-2.213-2.336-3.021
		c-1.467-1.615-2.863-3.321-2.863-5.893c0-3.934,4.143-5.043,5.199-0.874c1.056-4.17,5.198-3.06,5.198,0.874
		c0,2.572-1.396,4.279-2.863,5.893C46.731,58.833,45.755,59.913,45.13,61.046z M49.976,44.776c0-3.933,4.143-5.044,5.199-0.874
		c1.056-4.17,5.198-3.06,5.198,0.874c0,2.572-1.395,4.278-2.863,5.893c-0.733,0.808-1.709,1.889-2.335,3.021
		c-0.625-1.132-1.6-2.212-2.335-3.021C51.373,49.054,49.976,47.348,49.976,44.776z M55.176,80.49
		c-1.056,4.17-5.199,3.06-5.199-0.874c0-2.572,1.396-4.279,2.863-5.893c0.736-0.809,1.711-1.889,2.336-3.021
		c0.625,1.132,1.6,2.212,2.334,3.021c1.469,1.615,2.864,3.321,2.864,5.893C60.374,83.55,56.233,84.66,55.176,80.49z M55.176,65.767
		c-1.056,4.169-5.199,3.059-5.199-0.874c0-2.572,1.396-4.279,2.863-5.893c0.736-0.809,1.711-1.889,2.336-3.02
		c0.625,1.132,1.6,2.212,2.334,3.02c1.469,1.615,2.864,3.321,2.864,5.893C60.374,68.826,56.233,69.936,55.176,65.767z M57.51,35.945
		c-0.733,0.809-1.709,1.889-2.334,3.021c-0.625-1.132-1.6-2.212-2.336-3.021c-1.467-1.614-2.863-3.321-2.863-5.893
		c0-3.933,4.143-5.043,5.199-0.873c1.056-4.17,5.198-3.06,5.198,0.873C60.374,32.624,58.979,34.331,57.51,35.945z M65.034,85.343
		c-0.791,0-1.427-0.309-1.809-0.891c-0.4-0.591-0.573-1.318-0.573-2.354c0-2.418,0.891-3.708,2.564-3.708
		c1.109,0,1.936,0.491,1.936,1.154c0,0.355-0.245,0.563-0.654,0.563c-0.228,0-0.418-0.064-0.5-0.173
		c-0.054-0.082-0.054-0.1-0.082-0.491c-0.036-0.536-0.291-0.827-0.727-0.827c-0.545,0-0.937,0.419-1.127,1.2
		c-0.119,0.481-0.191,1.145-0.191,1.727c0.482-0.455,0.882-0.627,1.473-0.627c1.208,0,2.036,0.854,2.036,2.109
		C67.379,84.416,66.443,85.343,65.034,85.343z M65.093,75.654c-0.473,1.869-2.329,1.372-2.329-0.392
		c0-1.153,0.624-1.917,1.282-2.641c0.33-0.362,0.768-0.846,1.047-1.353c0.281,0.508,0.717,0.992,1.047,1.353
		c0.657,0.724,1.283,1.489,1.283,2.641C67.424,77.025,65.567,77.523,65.093,75.654z"/>
	<path d="M66.753,20.158h-43.24c-1.802,0-3.267,1.465-3.267,3.266v62.82c0,1.801,1.465,3.266,3.267,3.266h43.24
		c1.802,0,3.267-1.465,3.267-3.266v-62.82C70.019,21.623,68.555,20.158,66.753,20.158z M69.59,86.244
		c0,1.564-1.272,2.836-2.837,2.836h-43.24c-1.564,0-2.837-1.272-2.837-2.836v-62.82c0-1.564,1.272-2.836,2.837-2.836h43.24
		c1.564,0,2.837,1.272,2.837,2.836V86.244z"/>
	<path class="st1" d="M25.229,24.325c-1.409,0-2.345,0.927-2.345,2.318c0,1.254,0.828,2.109,2.036,2.109
		c0.591,0,0.991-0.172,1.473-0.627c0,0.582-0.072,1.245-0.191,1.727c-0.191,0.782-0.582,1.2-1.127,1.2
		c-0.436,0-0.691-0.291-0.727-0.827c-0.027-0.391-0.027-0.409-0.082-0.491c-0.082-0.109-0.273-0.173-0.5-0.173
		c-0.409,0-0.654,0.209-0.654,0.563c0,0.664,0.827,1.154,1.936,1.154c1.673,0,2.564-1.291,2.564-3.708
		c0-1.036-0.173-1.763-0.573-2.354C26.656,24.635,26.02,24.325,25.229,24.325z M26.229,27.816c-0.227,0.391-0.618,0.636-1.009,0.636
		c-0.3,0-0.573-0.146-0.772-0.418c-0.237-0.327-0.355-0.791-0.355-1.418c0-1.291,0.418-2.063,1.109-2.063
		c0.391,0,0.736,0.263,0.918,0.691c0.182,0.445,0.291,1.045,0.291,1.654C26.411,27.316,26.356,27.589,26.229,27.816z"/>
	<path class="st1" d="M65.343,80.916c-0.591,0-0.991,0.173-1.473,0.627c0-0.582,0.072-1.246,0.191-1.727
		c0.19-0.781,0.582-1.2,1.127-1.2c0.436,0,0.691,0.291,0.727,0.827c0.027,0.391,0.027,0.409,0.082,0.491
		c0.082,0.109,0.273,0.173,0.5,0.173c0.409,0,0.654-0.209,0.654-0.563c0-0.664-0.827-1.154-1.936-1.154
		c-1.673,0-2.564,1.291-2.564,3.708c0,1.036,0.173,1.763,0.573,2.354c0.382,0.582,1.018,0.891,1.809,0.891
		c1.409,0,2.345-0.927,2.345-2.318C67.379,81.771,66.551,80.916,65.343,80.916z M65.061,85.116c-0.391,0-0.736-0.264-0.918-0.691
		c-0.182-0.445-0.291-1.045-0.291-1.654c0-0.419,0.055-0.691,0.182-0.918c0.227-0.391,0.618-0.636,1.009-0.636
		c0.3,0,0.573,0.146,0.772,0.419c0.237,0.327,0.355,0.79,0.355,1.418C66.17,84.343,65.752,85.116,65.061,85.116z"/>
	<path class="st1" d="M45.13,51.258c-1.056-4.17-5.199-3.06-5.199,0.874c0,2.572,1.396,4.279,2.863,5.893
		c0.736,0.808,1.71,1.888,2.336,3.021c0.625-1.133,1.6-2.213,2.335-3.021c1.467-1.615,2.863-3.321,2.863-5.893
		C50.328,48.198,46.187,47.088,45.13,51.258z"/>
	<path class="st1" d="M35.087,53.69c0.625-1.132,1.6-2.212,2.335-3.021c1.468-1.615,2.863-3.321,2.863-5.893
		c0-3.933-4.143-5.044-5.198-0.874c-1.056-4.17-5.199-3.06-5.199,0.874c0,2.572,1.396,4.278,2.863,5.893
		C33.486,51.478,34.461,52.558,35.087,53.69z"/>
	<path class="st1" d="M55.175,53.69c0.626-1.132,1.601-2.212,2.335-3.021c1.468-1.615,2.863-3.321,2.863-5.893
		c0-3.933-4.142-5.044-5.198-0.874c-1.056-4.17-5.199-3.06-5.199,0.874c0,2.572,1.397,4.278,2.864,5.893
		C53.575,51.478,54.55,52.558,55.175,53.69z"/>
	<path class="st1" d="M35.088,38.966c0.625-1.132,1.6-2.212,2.334-3.021c1.468-1.614,2.863-3.321,2.863-5.893
		c0-3.933-4.142-5.043-5.197-0.873c-1.057-4.17-5.2-3.06-5.2,0.873c0,2.573,1.396,4.279,2.864,5.893
		C33.486,36.754,34.462,37.834,35.088,38.966z"/>
	<path class="st1" d="M55.176,29.178c-1.056-4.17-5.199-3.06-5.199,0.873c0,2.573,1.396,4.279,2.863,5.893
		c0.736,0.809,1.711,1.889,2.336,3.021c0.625-1.132,1.6-2.212,2.334-3.021c1.469-1.614,2.864-3.321,2.864-5.893
		C60.374,26.119,56.233,25.009,55.176,29.178z"/>
	<path class="st1" d="M35.088,70.702c-0.626,1.132-1.602,2.212-2.336,3.021c-1.468,1.615-2.864,3.321-2.864,5.893
		c0,3.934,4.143,5.043,5.2,0.874c1.055,4.17,5.197,3.06,5.197-0.874c0-2.572-1.395-4.279-2.863-5.893
		C36.688,72.914,35.713,71.834,35.088,70.702z"/>
	<path class="st1" d="M55.176,70.702c-0.625,1.132-1.6,2.212-2.336,3.021c-1.467,1.615-2.863,3.321-2.863,5.893
		c0,3.934,4.143,5.043,5.199,0.874c1.056,4.17,5.198,3.06,5.198-0.874c0-2.572-1.395-4.279-2.864-5.893
		C56.777,72.914,55.801,71.834,55.176,70.702z"/>
	<path class="st1" d="M35.088,55.979c-0.626,1.132-1.602,2.212-2.336,3.02c-1.468,1.615-2.864,3.321-2.864,5.893
		c0,3.933,4.143,5.043,5.2,0.874c1.055,4.169,5.197,3.059,5.197-0.874c0-2.572-1.395-4.279-2.863-5.893
		C36.688,58.191,35.713,57.111,35.088,55.979z"/>
	<path class="st1" d="M55.176,55.979c-0.625,1.132-1.6,2.212-2.336,3.02c-1.467,1.615-2.863,3.321-2.863,5.893
		c0,3.933,4.143,5.043,5.199,0.874c1.056,4.169,5.198,3.059,5.198-0.874c0-2.572-1.395-4.279-2.864-5.893
		C56.777,58.191,55.801,57.111,55.176,55.979z"/>
	<path class="st1" d="M25.172,34.014c-0.472-1.869-2.329-1.371-2.329,0.392c0,1.153,0.625,1.917,1.283,2.641
		c0.33,0.362,0.767,0.846,1.046,1.354c0.281-0.507,0.717-0.992,1.047-1.354c0.658-0.724,1.283-1.488,1.283-2.641
		C27.503,32.642,25.646,32.145,25.172,34.014z"/>
	<path class="st1" d="M65.093,71.267c-0.279,0.508-0.717,0.992-1.047,1.353c-0.658,0.724-1.282,1.489-1.282,2.641
		c0,1.763,1.856,2.261,2.329,0.392c0.473,1.869,2.33,1.372,2.33-0.392c0-1.153-0.626-1.917-1.283-2.641
		C65.811,72.259,65.374,71.775,65.093,71.267z"/>
</g>
</svg>
