<?xml version="1.0" encoding="utf-8"?>
<!-- Generator: Adobe Illustrator 23.0.2, SVG Export Plug-In . SVG Version: 6.00 Build 0)  -->
<svg version="1.1" id="Layer_1" xmlns="http://www.w3.org/2000/svg" xmlns:xlink="http://www.w3.org/1999/xlink" x="0px" y="0px"
	 viewBox="0 0 82.452 99.776" style="enable-background:new 0 0 82.452 99.776;" xml:space="preserve">
<style type="text/css">
	.st0{fill:#FFFFFF;}
	.st1{fill:#ED1C24;}
	.st2{fill:#FFCB05;}
	.st3{fill:#21409A;}
	.st4{fill:#D4D5D6;}
	.st5{fill:#000100;}
	.st6{fill:#300505;}
	.st7{fill:#BFD730;}
	.st8{fill:#F15A22;}
</style>
<g>
	<path class="st0" d="M16.982,24.518c-0.691,0-1.109,0.772-1.109,2.063c0,0.627,0.118,1.091,0.355,1.418
		c0.2,0.273,0.472,0.418,0.772,0.418c0.391,0,0.782-0.246,1.009-0.637c0.127-0.227,0.182-0.5,0.182-0.918
		c0-0.609-0.109-1.209-0.291-1.654C17.718,24.782,17.373,24.518,16.982,24.518z"/>
	<path class="st0" d="M58.533,20.554h-43.24c-1.564,0-2.837,1.272-2.837,2.836v62.82c0,1.563,1.272,2.836,2.837,2.836h43.24
		c1.564,0,2.837-1.272,2.837-2.836V23.39C61.369,21.826,60.097,20.554,58.533,20.554z M24.531,29.201
		c0.736-0.657,1.71-1.536,2.335-2.457c0.626,0.921,1.602,1.8,2.336,2.457c1.468,1.313,2.863,2.701,2.863,4.794
		c0,2.986-3.607,3.97-4.947,1.331c0.124,1.164,0.665,2.936,1.759,3.359h-4.02c1.094-0.424,1.635-2.195,1.758-3.359
		c-1.34,2.638-4.947,1.655-4.947-1.331C21.667,31.902,23.064,30.515,24.531,29.201z M24.531,43.922
		c0.736-0.658,1.71-1.536,2.335-2.457c0.626,0.921,1.602,1.799,2.336,2.457c1.468,1.313,2.863,2.701,2.863,4.792
		c0,2.986-3.607,3.971-4.947,1.332c0.124,1.163,0.665,2.935,1.759,3.358h-4.02c1.094-0.423,1.635-2.195,1.758-3.358
		c-1.34,2.638-4.947,1.654-4.947-1.332C21.667,46.622,23.064,45.235,24.531,43.922z M17.065,36.749
		c0.055,0.521,0.298,1.316,0.788,1.505h-1.802c0.49-0.189,0.733-0.984,0.788-1.505c-0.6,1.182-2.216,0.742-2.216-0.596
		c0-0.937,0.625-1.559,1.283-2.147c0.33-0.294,0.767-0.688,1.046-1.101c0.281,0.413,0.717,0.807,1.047,1.101
		c0.657,0.589,1.282,1.211,1.282,2.147C19.281,37.49,17.665,37.931,17.065,36.749z M16.827,31.244c-1.109,0-1.936-0.49-1.936-1.154
		c0-0.354,0.245-0.564,0.654-0.564c0.228,0,0.418,0.064,0.5,0.173c0.054,0.082,0.054,0.1,0.082,0.49
		c0.036,0.537,0.291,0.828,0.727,0.828c0.545,0,0.936-0.418,1.127-1.2c0.119-0.482,0.191-1.145,0.191-1.727
		c-0.482,0.455-0.882,0.627-1.473,0.627c-1.209,0-2.036-0.855-2.036-2.109c0-1.39,0.937-2.318,2.345-2.318
		c0.791,0,1.427,0.309,1.809,0.891c0.4,0.591,0.573,1.318,0.573,2.354C19.391,29.954,18.5,31.244,16.827,31.244z M29.202,80.399
		c-0.735,0.658-1.71,1.536-2.336,2.458c-0.625-0.922-1.599-1.8-2.335-2.458c-1.467-1.313-2.863-2.702-2.863-4.793
		c0-2.986,3.607-3.97,4.947-1.332c-0.123-1.164-0.664-2.936-1.758-3.359h4.02c-1.094,0.423-1.635,2.195-1.759,3.359
		c1.34-2.638,4.947-1.655,4.947,1.332C32.065,77.697,30.67,79.085,29.202,80.399z M29.202,65.679
		c-0.735,0.657-1.71,1.535-2.336,2.457c-0.625-0.922-1.599-1.8-2.335-2.457c-1.467-1.314-2.863-2.701-2.863-4.793
		c0-2.986,3.607-3.97,4.947-1.332c-0.123-1.164-0.664-2.936-1.758-3.359h4.02c-1.094,0.424-1.635,2.195-1.759,3.359
		c1.34-2.638,4.947-1.655,4.947,1.332C32.065,62.978,30.67,64.365,29.202,65.679z M37.161,57.406
		c0.123,1.164,0.665,2.936,1.759,3.359h-4.021c1.094-0.423,1.636-2.195,1.759-3.359c-1.34,2.638-4.948,1.654-4.948-1.332
		c0-2.091,1.397-3.48,2.864-4.793c0.735-0.658,1.709-1.535,2.335-2.456c0.626,0.921,1.602,1.799,2.336,2.456
		c1.467,1.313,2.863,2.701,2.863,4.793C42.108,59.06,38.501,60.044,37.161,57.406z M49.29,80.399
		c-0.735,0.658-1.709,1.536-2.335,2.458c-0.625-0.922-1.6-1.8-2.335-2.458c-1.467-1.313-2.864-2.702-2.864-4.793
		c0-2.986,3.607-3.97,4.947-1.332c-0.123-1.164-0.664-2.936-1.758-3.359h4.02c-1.093,0.423-1.633,2.195-1.758,3.359
		c1.339-2.638,4.947-1.655,4.947,1.332C52.154,77.697,50.758,79.085,49.29,80.399z M49.29,65.679
		c-0.735,0.657-1.709,1.535-2.335,2.457c-0.625-0.922-1.6-1.8-2.335-2.457c-1.467-1.314-2.864-2.701-2.864-4.793
		c0-2.986,3.607-3.97,4.947-1.332c-0.123-1.164-0.664-2.936-1.758-3.359h4.02c-1.093,0.424-1.633,2.195-1.758,3.359
		c1.339-2.638,4.947-1.655,4.947,1.332C52.154,62.978,50.758,64.365,49.29,65.679z M47.207,50.047
		c0.124,1.163,0.665,2.935,1.758,3.358h-4.02c1.094-0.423,1.635-2.195,1.758-3.358c-1.34,2.638-4.947,1.654-4.947-1.332
		c0-2.092,1.397-3.479,2.864-4.792c0.735-0.658,1.71-1.536,2.335-2.457c0.626,0.921,1.6,1.799,2.335,2.457
		c1.468,1.313,2.864,2.701,2.864,4.792C52.154,51.7,48.546,52.685,47.207,50.047z M47.207,35.326
		c0.124,1.164,0.665,2.936,1.758,3.359h-4.02c1.094-0.424,1.635-2.195,1.758-3.359c-1.34,2.638-4.947,1.655-4.947-1.331
		c0-2.093,1.397-3.48,2.864-4.794c0.735-0.657,1.71-1.536,2.335-2.457c0.626,0.921,1.6,1.8,2.335,2.457
		c1.468,1.313,2.864,2.701,2.864,4.794C52.154,36.981,48.546,37.965,47.207,35.326z M56.814,85.309
		c-0.791,0-1.427-0.309-1.809-0.891c-0.4-0.591-0.573-1.318-0.573-2.354c0-2.418,0.891-3.708,2.564-3.708
		c1.109,0,1.936,0.49,1.936,1.154c0,0.354-0.245,0.563-0.654,0.563c-0.228,0-0.418-0.064-0.5-0.173
		c-0.054-0.081-0.054-0.1-0.082-0.491c-0.036-0.536-0.291-0.827-0.727-0.827c-0.545,0-0.937,0.418-1.127,1.2
		c-0.119,0.482-0.191,1.145-0.191,1.727c0.482-0.455,0.882-0.627,1.473-0.627c1.208,0,2.036,0.854,2.036,2.109
		C59.159,84.382,58.222,85.309,56.814,85.309z M57.921,75.595c-0.33,0.295-0.766,0.688-1.047,1.101
		c-0.279-0.413-0.717-0.806-1.046-1.101c-0.658-0.588-1.283-1.211-1.283-2.148c0-1.337,1.616-1.778,2.216-0.596
		c-0.055-0.521-0.297-1.315-0.788-1.505h1.802c-0.49,0.19-0.732,0.984-0.788,1.505c0.6-1.182,2.216-0.741,2.216,0.596
		C59.203,74.384,58.578,75.007,57.921,75.595z"/>
	<path class="st0" d="M56.823,81.182c-0.391,0-0.782,0.246-1.009,0.636c-0.127,0.227-0.182,0.5-0.182,0.918
		c0,0.609,0.109,1.209,0.291,1.654c0.182,0.427,0.527,0.691,0.918,0.691c0.691,0,1.109-0.773,1.109-2.063
		c0-0.627-0.118-1.091-0.355-1.418C57.395,81.328,57.123,81.182,56.823,81.182z"/>
	<path d="M58.533,20.124h-43.24c-1.802,0-3.267,1.465-3.267,3.266v62.82c0,1.801,1.465,3.266,3.267,3.266h43.24
		c1.802,0,3.267-1.465,3.267-3.266V23.39C61.799,21.589,60.334,20.124,58.533,20.124z M61.369,86.21
		c0,1.563-1.272,2.836-2.837,2.836h-43.24c-1.564,0-2.837-1.272-2.837-2.836V23.39c0-1.563,1.272-2.836,2.837-2.836h43.24
		c1.564,0,2.837,1.272,2.837,2.836V86.21z"/>
	<path class="st5" d="M17.009,24.291c-1.409,0-2.345,0.927-2.345,2.318c0,1.254,0.828,2.109,2.036,2.109
		c0.591,0,0.991-0.173,1.473-0.627c0,0.582-0.072,1.245-0.191,1.727c-0.191,0.782-0.582,1.2-1.127,1.2
		c-0.436,0-0.691-0.291-0.727-0.828c-0.027-0.391-0.027-0.409-0.082-0.49c-0.082-0.109-0.273-0.173-0.5-0.173
		c-0.409,0-0.654,0.209-0.654,0.564c0,0.664,0.827,1.154,1.936,1.154c1.673,0,2.564-1.291,2.564-3.708
		c0-1.036-0.173-1.763-0.573-2.354C18.436,24.6,17.8,24.291,17.009,24.291z M18.009,27.781c-0.227,0.391-0.618,0.637-1.009,0.637
		c-0.3,0-0.573-0.145-0.772-0.418c-0.237-0.327-0.355-0.791-0.355-1.418c0-1.291,0.418-2.063,1.109-2.063
		c0.391,0,0.736,0.263,0.918,0.691c0.182,0.445,0.291,1.045,0.291,1.654C18.191,27.281,18.136,27.554,18.009,27.781z"/>
	<path class="st5" d="M57.123,80.882c-0.591,0-0.991,0.173-1.473,0.627c0-0.582,0.072-1.245,0.191-1.727
		c0.19-0.782,0.582-1.2,1.127-1.2c0.436,0,0.691,0.291,0.727,0.827c0.027,0.391,0.027,0.41,0.082,0.491
		c0.082,0.109,0.273,0.173,0.5,0.173c0.409,0,0.654-0.209,0.654-0.563c0-0.664-0.827-1.154-1.936-1.154
		c-1.673,0-2.564,1.291-2.564,3.708c0,1.036,0.173,1.764,0.573,2.354c0.382,0.582,1.018,0.891,1.809,0.891
		c1.409,0,2.345-0.927,2.345-2.318C59.159,81.736,58.331,80.882,57.123,80.882z M56.841,85.082c-0.391,0-0.736-0.264-0.918-0.691
		c-0.182-0.445-0.291-1.045-0.291-1.654c0-0.419,0.055-0.691,0.182-0.918c0.227-0.391,0.618-0.636,1.009-0.636
		c0.3,0,0.573,0.145,0.772,0.418c0.237,0.327,0.355,0.791,0.355,1.418C57.95,84.309,57.532,85.082,56.841,85.082z"/>
	<path d="M26.615,50.047c-0.123,1.163-0.664,2.935-1.758,3.358h4.02c-1.094-0.423-1.635-2.195-1.759-3.358
		c1.34,2.638,4.947,1.654,4.947-1.332c0-2.092-1.395-3.479-2.863-4.792c-0.735-0.658-1.71-1.536-2.336-2.457
		c-0.625,0.921-1.599,1.799-2.335,2.457c-1.467,1.313-2.863,2.701-2.863,4.792C21.667,51.7,25.274,52.685,26.615,50.047z"/>
	<path d="M49.29,43.922c-0.735-0.658-1.709-1.536-2.335-2.457c-0.625,0.921-1.6,1.799-2.335,2.457
		c-1.467,1.313-2.864,2.701-2.864,4.792c0,2.986,3.607,3.971,4.947,1.332c-0.123,1.163-0.664,2.935-1.758,3.358h4.02
		c-1.093-0.423-1.633-2.195-1.758-3.358c1.339,2.638,4.947,1.654,4.947-1.332C52.154,46.622,50.758,45.235,49.29,43.922z"/>
	<path d="M26.615,35.326c-0.123,1.164-0.664,2.936-1.758,3.359h4.02c-1.094-0.424-1.635-2.195-1.759-3.359
		c1.34,2.638,4.947,1.655,4.947-1.331c0-2.093-1.395-3.48-2.863-4.794c-0.735-0.657-1.71-1.536-2.336-2.457
		c-0.625,0.921-1.599,1.8-2.335,2.457c-1.467,1.313-2.863,2.701-2.863,4.794C21.667,36.981,25.274,37.965,26.615,35.326z"/>
	<path d="M49.29,29.201c-0.735-0.657-1.709-1.536-2.335-2.457c-0.625,0.921-1.6,1.8-2.335,2.457
		c-1.467,1.313-2.864,2.701-2.864,4.794c0,2.986,3.607,3.97,4.947,1.331c-0.123,1.164-0.664,2.936-1.758,3.359h4.02
		c-1.093-0.424-1.633-2.195-1.758-3.359c1.339,2.638,4.947,1.655,4.947-1.331C52.154,31.902,50.758,30.515,49.29,29.201z"/>
	<path d="M39.245,51.281c-0.735-0.658-1.71-1.535-2.336-2.456c-0.626,0.921-1.6,1.799-2.335,2.456
		c-1.467,1.313-2.864,2.701-2.864,4.793c0,2.986,3.608,3.971,4.948,1.332c-0.123,1.164-0.665,2.936-1.759,3.359h4.021
		c-1.094-0.423-1.636-2.195-1.759-3.359c1.34,2.638,4.947,1.654,4.947-1.332C42.108,53.982,40.712,52.594,39.245,51.281z"/>
	<path d="M27.118,74.274c0.124-1.164,0.665-2.936,1.759-3.359h-4.02c1.094,0.423,1.635,2.195,1.758,3.359
		c-1.34-2.638-4.947-1.655-4.947,1.332c0,2.091,1.396,3.48,2.863,4.793c0.736,0.658,1.71,1.536,2.335,2.458
		c0.626-0.922,1.602-1.8,2.336-2.458c1.468-1.313,2.863-2.702,2.863-4.793C32.065,72.619,28.458,71.635,27.118,74.274z"/>
	<path d="M47.207,74.274c0.124-1.164,0.665-2.936,1.758-3.359h-4.02c1.094,0.423,1.635,2.195,1.758,3.359
		c-1.34-2.638-4.947-1.655-4.947,1.332c0,2.091,1.397,3.48,2.864,4.793c0.735,0.658,1.71,1.536,2.335,2.458
		c0.626-0.922,1.6-1.8,2.335-2.458c1.468-1.313,2.864-2.702,2.864-4.793C52.154,72.619,48.546,71.635,47.207,74.274z"/>
	<path d="M27.118,59.554c0.124-1.164,0.665-2.936,1.759-3.359h-4.02c1.094,0.424,1.635,2.195,1.758,3.359
		c-1.34-2.638-4.947-1.655-4.947,1.332c0,2.092,1.396,3.479,2.863,4.793c0.736,0.657,1.71,1.535,2.335,2.457
		c0.626-0.922,1.602-1.8,2.336-2.457c1.468-1.314,2.863-2.701,2.863-4.793C32.065,57.899,28.458,56.916,27.118,59.554z"/>
	<path d="M47.207,59.554c0.124-1.164,0.665-2.936,1.758-3.359h-4.02c1.094,0.424,1.635,2.195,1.758,3.359
		c-1.34-2.638-4.947-1.655-4.947,1.332c0,2.092,1.397,3.479,2.864,4.793c0.735,0.657,1.71,1.535,2.335,2.457
		c0.626-0.922,1.6-1.8,2.335-2.457c1.468-1.314,2.864-2.701,2.864-4.793C52.154,57.899,48.546,56.916,47.207,59.554z"/>
	<path d="M17.999,34.005c-0.33-0.294-0.767-0.688-1.047-1.101c-0.279,0.413-0.716,0.807-1.046,1.101
		c-0.658,0.589-1.283,1.211-1.283,2.147c0,1.338,1.616,1.779,2.216,0.596c-0.055,0.521-0.298,1.316-0.788,1.505h1.802
		c-0.49-0.189-0.733-0.984-0.788-1.505c0.6,1.182,2.216,0.742,2.216-0.596C19.281,35.216,18.656,34.593,17.999,34.005z"/>
	<path d="M56.987,72.851c0.056-0.521,0.298-1.315,0.788-1.505h-1.802c0.492,0.19,0.733,0.984,0.788,1.505
		c-0.6-1.182-2.216-0.741-2.216,0.596c0,0.937,0.625,1.56,1.283,2.148c0.329,0.295,0.767,0.688,1.046,1.101
		c0.281-0.413,0.717-0.806,1.047-1.101c0.657-0.588,1.282-1.211,1.282-2.148C59.203,72.11,57.587,71.67,56.987,72.851z"/>
</g>
</svg>
