<?xml version="1.0" encoding="utf-8"?>
<!-- Generator: Adobe Illustrator 23.0.2, SVG Export Plug-In . SVG Version: 6.00 Build 0)  -->
<svg version="1.1" id="Layer_1" xmlns="http://www.w3.org/2000/svg" xmlns:xlink="http://www.w3.org/1999/xlink" x="0px" y="0px"
	 viewBox="0 0 82.452 99.776" style="enable-background:new 0 0 82.452 99.776;" xml:space="preserve">
<style type="text/css">
	.st0{fill:#FFFFFF;}
	.st1{fill:#ED1C24;}
	.st2{fill:#FFCB05;}
	.st3{fill:#21409A;}
	.st4{fill:#D4D5D6;}
	.st5{fill:#000100;}
	.st6{fill:#300505;}
	.st7{fill:#BFD730;}
	.st8{fill:#F15A22;}
</style>
<g>
	<path class="st0" d="M58.78,17.656H15.539c-1.564,0-2.836,1.272-2.836,2.836v62.82c0,1.564,1.272,2.836,2.836,2.836H58.78
		c1.564,0,2.836-1.272,2.836-2.836v-62.82C61.616,18.929,60.344,17.656,58.78,17.656z M54.856,70.22
		c0.254-0.536,0.895-0.764,1.431-0.51c0.232,0.11,0.406,0.293,0.508,0.509h0.001c0.001,0.003,0.002,0.006,0.003,0.008l0.222,0.453
		v-0.51c0-0.482-0.238-1.501-0.802-1.72h1.803c-0.564,0.219-0.801,1.239-0.801,1.72v0.51l0.222-0.453
		c0.001-0.002,0.003-0.005,0.003-0.008c0.102-0.215,0.277-0.399,0.509-0.509c0.536-0.254,1.177-0.026,1.43,0.51
		c0.254,0.536,0.026,1.177-0.51,1.43c-0.233,0.11-0.484,0.129-0.716,0.072h-0.001c-0.002-0.001-0.005-0.001-0.008-0.001
		l-0.565-0.132l0.361,0.454c0.002,0.002,0.004,0.004,0.005,0.006l0.001,0c0.151,0.186,0.241,0.421,0.241,0.678
		c0,0.593-0.48,1.074-1.074,1.074c-0.593,0-1.074-0.481-1.074-1.074c0-0.257,0.091-0.493,0.242-0.678l0.001,0
		c0.002-0.002,0.003-0.004,0.005-0.006l0.361-0.454l-0.564,0.132c-0.002,0-0.006,0-0.008,0.001h-0.001
		c-0.232,0.057-0.484,0.038-0.716-0.072C54.83,71.397,54.602,70.756,54.856,70.22z M19.463,33.585
		c-0.254,0.536-0.895,0.764-1.431,0.51c-0.232-0.11-0.406-0.293-0.508-0.509h-0.001c-0.001-0.003-0.002-0.005-0.003-0.008
		l-0.222-0.452v0.51c0,0.482,0.238,1.502,0.802,1.72h-1.803c0.564-0.218,0.801-1.238,0.801-1.72v-0.51l-0.222,0.452
		c-0.001,0.002-0.003,0.005-0.003,0.008c-0.102,0.216-0.277,0.399-0.51,0.509c-0.536,0.254-1.177,0.025-1.43-0.51
		c-0.254-0.536-0.026-1.177,0.51-1.43c0.233-0.11,0.485-0.129,0.716-0.072h0.001c0.002,0.001,0.005,0.001,0.008,0.001l0.565,0.132
		l-0.361-0.454c-0.002-0.002-0.004-0.004-0.005-0.006l-0.001,0c-0.151-0.186-0.241-0.421-0.241-0.678
		c0-0.593,0.48-1.074,1.073-1.074c0.593,0,1.074,0.481,1.074,1.074c0,0.257-0.091,0.492-0.242,0.678l-0.001,0
		c-0.002,0.002-0.003,0.004-0.005,0.006l-0.361,0.454l0.564-0.132c0.003-0.001,0.006-0.001,0.009-0.001h0.001
		c0.232-0.057,0.484-0.038,0.716,0.072C19.489,32.408,19.717,33.049,19.463,33.585z M20.797,28.202h-2.963v-0.236
		c0.573-0.018,0.782-0.136,0.782-0.436c0-0.009,0-0.018,0-0.027c-0.009-0.145-0.055-0.373-0.136-0.6l-0.346-1h-2.391l-0.254,0.691
		c-0.136,0.345-0.2,0.627-0.2,0.836c0,0.354,0.254,0.518,0.854,0.536v0.236h-2.336v-0.236c0.591-0.009,0.918-0.364,1.327-1.436
		l1.936-5.126l0.673-0.073l1.981,5.572c0.209,0.564,0.382,0.855,0.591,0.964c0.1,0.046,0.182,0.064,0.482,0.1V28.202z
		 M42.769,54.143c-0.629,1.327-2.215,1.893-3.544,1.263c-0.574-0.272-1.007-0.726-1.259-1.26h-0.001
		c-0.002-0.007-0.006-0.014-0.008-0.019l-0.55-1.12v1.263c0,1.194,0.588,3.719,1.985,4.26h-4.464
		c1.397-0.542,1.984-3.066,1.984-4.26v-1.263l-0.55,1.12c-0.004,0.005-0.007,0.012-0.009,0.019c-0.254,0.533-0.686,0.988-1.262,1.26
		c-1.327,0.63-2.914,0.064-3.542-1.263c-0.63-1.327-0.065-2.913,1.263-3.542c0.576-0.272,1.2-0.32,1.772-0.179h0.002
		c0.006,0.003,0.013,0.003,0.02,0.004l1.399,0.327l-0.894-1.124c-0.005-0.006-0.01-0.011-0.013-0.016l-0.002-0.001
		c-0.374-0.459-0.597-1.043-0.597-1.679c0-1.469,1.19-2.66,2.658-2.66c1.468,0,2.659,1.191,2.659,2.66
		c0,0.636-0.225,1.22-0.597,1.679l-0.002,0.001c-0.005,0.005-0.008,0.01-0.012,0.016l-0.895,1.124l1.398-0.327
		c0.006-0.001,0.014-0.001,0.021-0.004h0.002c0.573-0.141,1.197-0.093,1.773,0.179C42.834,51.23,43.398,52.816,42.769,54.143z
		 M60.513,75.839c-0.591,0.009-0.918,0.364-1.327,1.436l-1.936,5.127l-0.673,0.073l-1.981-5.572
		c-0.209-0.564-0.382-0.855-0.591-0.964c-0.1-0.045-0.182-0.064-0.482-0.1v-0.236h2.963v0.236c-0.573,0.018-0.782,0.136-0.782,0.436
		c0,0.009,0,0.018,0,0.027c0.009,0.145,0.055,0.373,0.136,0.6l0.346,1h2.391l0.254-0.691c0.136-0.345,0.2-0.627,0.2-0.836
		c0-0.355-0.254-0.518-0.854-0.536v-0.236h2.336V75.839z"/>
	<polygon class="st0" points="57.34,81.211 58.449,78.257 56.304,78.257 	"/>
	<polygon class="st0" points="15.87,25.547 18.015,25.547 16.979,22.593 	"/>
	<path d="M58.78,17.227H15.539c-1.801,0-3.266,1.465-3.266,3.266v62.82c0,1.801,1.465,3.266,3.266,3.266H58.78
		c1.801,0,3.266-1.465,3.266-3.266v-62.82C62.046,18.691,60.581,17.227,58.78,17.227z M61.616,83.312
		c0,1.564-1.272,2.836-2.836,2.836H15.539c-1.564,0-2.836-1.272-2.836-2.836v-62.82c0-1.563,1.272-2.836,2.836-2.836H58.78
		c1.564,0,2.836,1.272,2.836,2.836V83.312z"/>
	<path d="M18.953,32.155c-0.232-0.11-0.484-0.129-0.716-0.072h-0.001c-0.003,0.001-0.006,0.001-0.009,0.001l-0.564,0.132
		l0.361-0.454c0.001-0.002,0.003-0.004,0.005-0.006l0.001,0c0.151-0.186,0.242-0.421,0.242-0.678c0-0.593-0.481-1.074-1.074-1.074
		c-0.593,0-1.073,0.481-1.073,1.074c0,0.257,0.09,0.492,0.241,0.678l0.001,0c0.001,0.002,0.003,0.004,0.005,0.006l0.361,0.454
		l-0.565-0.132c-0.003-0.001-0.006-0.001-0.008-0.001h-0.001c-0.231-0.057-0.483-0.038-0.716,0.072
		c-0.536,0.253-0.765,0.894-0.51,1.43c0.254,0.536,0.895,0.764,1.43,0.51c0.233-0.11,0.407-0.293,0.51-0.509
		c0.001-0.003,0.002-0.005,0.003-0.008l0.222-0.452v0.51c0,0.482-0.237,1.502-0.801,1.72h1.803c-0.564-0.218-0.802-1.238-0.802-1.72
		v-0.51l0.222,0.452c0.001,0.002,0.003,0.005,0.003,0.008h0.001c0.102,0.216,0.276,0.399,0.508,0.509
		c0.537,0.254,1.178,0.025,1.431-0.51C19.717,33.049,19.489,32.408,18.953,32.155z"/>
	<path d="M41.506,50.601c-0.576-0.272-1.2-0.32-1.773-0.179h-0.002c-0.006,0.003-0.015,0.003-0.021,0.004l-1.398,0.327l0.895-1.124
		c0.004-0.006,0.007-0.011,0.012-0.016l0.002-0.001c0.372-0.459,0.597-1.043,0.597-1.679c0-1.469-1.191-2.66-2.659-2.66
		c-1.469,0-2.658,1.191-2.658,2.66c0,0.636,0.223,1.22,0.597,1.679l0.002,0.001c0.002,0.005,0.008,0.01,0.013,0.016l0.894,1.124
		l-1.399-0.327c-0.007-0.001-0.014-0.001-0.02-0.004h-0.002c-0.572-0.141-1.196-0.093-1.772,0.179
		c-1.328,0.628-1.893,2.214-1.263,3.542c0.628,1.327,2.214,1.893,3.542,1.263c0.576-0.272,1.008-0.726,1.262-1.26
		c0.001-0.007,0.005-0.014,0.009-0.019l0.55-1.12v1.263c0,1.194-0.587,3.719-1.984,4.26h4.464c-1.397-0.542-1.985-3.066-1.985-4.26
		v-1.263l0.55,1.12c0.002,0.005,0.006,0.012,0.008,0.019h0.001c0.252,0.533,0.684,0.988,1.259,1.26
		c1.329,0.63,2.916,0.064,3.544-1.263C43.398,52.816,42.834,51.23,41.506,50.601z"/>
	<path class="st5" d="M19.724,26.902l-1.981-5.572l-0.673,0.073l-1.936,5.126c-0.409,1.073-0.736,1.427-1.327,1.436v0.236h2.336
		v-0.236c-0.6-0.018-0.854-0.182-0.854-0.536c0-0.209,0.064-0.491,0.2-0.836l0.254-0.691h2.391l0.346,1
		c0.081,0.227,0.127,0.455,0.136,0.6c0,0.009,0,0.018,0,0.027c0,0.3-0.209,0.418-0.782,0.436v0.236h2.963v-0.236
		c-0.3-0.036-0.382-0.055-0.482-0.1C20.106,27.756,19.933,27.466,19.724,26.902z M15.87,25.547l1.109-2.954l1.036,2.954H15.87z"/>
	<path d="M55.366,71.65c0.232,0.11,0.484,0.129,0.716,0.072h0.001c0.003-0.001,0.006-0.001,0.008-0.001l0.564-0.132l-0.361,0.454
		c-0.001,0.002-0.003,0.004-0.005,0.006l-0.001,0c-0.151,0.186-0.242,0.421-0.242,0.678c0,0.593,0.481,1.074,1.074,1.074
		c0.593,0,1.074-0.481,1.074-1.074c0-0.257-0.09-0.493-0.241-0.678l-0.001,0c-0.001-0.002-0.003-0.004-0.005-0.006l-0.361-0.454
		l0.565,0.132c0.003,0,0.006,0,0.008,0.001h0.001c0.231,0.057,0.483,0.038,0.716-0.072c0.536-0.254,0.764-0.894,0.51-1.43
		c-0.254-0.536-0.894-0.764-1.43-0.51c-0.232,0.11-0.407,0.293-0.509,0.509c-0.001,0.003-0.002,0.006-0.003,0.008l-0.222,0.453
		v-0.51c0-0.482,0.237-1.501,0.801-1.72h-1.803c0.564,0.219,0.802,1.239,0.802,1.72v0.51l-0.222-0.453
		c-0.001-0.002-0.003-0.005-0.003-0.008h-0.001c-0.102-0.215-0.277-0.399-0.508-0.509c-0.536-0.254-1.177-0.026-1.431,0.51
		C54.602,70.756,54.83,71.397,55.366,71.65z"/>
	<path class="st5" d="M58.176,75.839c0.6,0.018,0.854,0.182,0.854,0.536c0,0.209-0.064,0.491-0.2,0.836l-0.254,0.691h-2.391
		l-0.346-1c-0.082-0.227-0.127-0.455-0.136-0.6c0-0.009,0-0.018,0-0.027c0-0.3,0.209-0.418,0.782-0.436v-0.236h-2.963v0.236
		c0.3,0.036,0.382,0.055,0.482,0.1c0.209,0.109,0.382,0.4,0.591,0.964l1.981,5.572l0.673-0.073l1.936-5.127
		c0.409-1.073,0.736-1.427,1.327-1.436v-0.236h-2.336V75.839z M57.34,81.211l-1.036-2.954h2.145L57.34,81.211z"/>
</g>
</svg>
