<?xml version="1.0" encoding="utf-8"?>
<!-- Generator: Adobe Illustrator 23.0.2, SVG Export Plug-In . SVG Version: 6.00 Build 0)  -->
<svg version="1.1" id="Layer_1" xmlns="http://www.w3.org/2000/svg" xmlns:xlink="http://www.w3.org/1999/xlink" x="0px" y="0px"
	 viewBox="0 0 82.452 99.776" style="enable-background:new 0 0 82.452 99.776;" xml:space="preserve">
<style type="text/css">
	.st0{fill:#FFFFFF;}
	.st1{fill:#ED1C24;}
	.st2{fill:#FFCB05;}
	.st3{fill:#21409A;}
	.st4{fill:#D4D5D6;}
	.st5{fill:#000100;}
	.st6{fill:#300505;}
	.st7{fill:#BFD730;}
	.st8{fill:#F15A22;}
</style>
<g>
	<polygon class="st0" points="59.606,83.795 60.715,80.841 58.57,80.841 	"/>
	<polygon class="st0" points="18.136,28.131 20.281,28.131 19.245,25.177 	"/>
	<path class="st0" d="M61.045,20.239H17.805c-1.564,0-2.836,1.272-2.836,2.836v62.82c0,1.564,1.272,2.836,2.836,2.836h43.241
		c1.564,0,2.836-1.272,2.836-2.836v-62.82C63.882,21.512,62.609,20.239,61.045,20.239z M59.386,71.012
		c0.249,0.867,1.252,2.228,2.067,2.693c-0.815,0.465-1.818,1.825-2.067,2.693c-0.249-0.868-1.253-2.228-2.067-2.693
		C58.133,73.24,59.137,71.88,59.386,71.012z M19.464,37.959c-0.248-0.868-1.252-2.227-2.067-2.693
		c0.815-0.465,1.818-1.825,2.067-2.693c0.249,0.868,1.253,2.228,2.068,2.693C20.717,35.731,19.712,37.091,19.464,37.959z
		 M23.062,30.785h-2.963v-0.236c0.573-0.018,0.782-0.136,0.782-0.436c0-0.009,0-0.018,0-0.027c-0.009-0.145-0.055-0.373-0.136-0.6
		l-0.346-1h-2.391l-0.254,0.691c-0.136,0.345-0.2,0.627-0.2,0.836c0,0.354,0.254,0.518,0.854,0.536v0.236h-2.336v-0.236
		c0.591-0.009,0.918-0.364,1.327-1.436l1.936-5.127l0.673-0.073l1.981,5.572c0.209,0.564,0.382,0.855,0.591,0.964
		c0.1,0.045,0.182,0.064,0.482,0.1V30.785z M39.424,61.154c-0.617-2.151-3.105-5.522-5.124-6.674
		c2.02-1.152,4.508-4.524,5.124-6.674c0.617,2.15,3.106,5.523,5.124,6.674C42.53,55.632,40.041,59.003,39.424,61.154z
		 M62.778,78.423c-0.591,0.009-0.918,0.364-1.327,1.436l-1.936,5.127l-0.673,0.073l-1.981-5.572
		c-0.209-0.564-0.382-0.855-0.591-0.964c-0.1-0.045-0.182-0.064-0.482-0.1v-0.236h2.963v0.236c-0.573,0.018-0.782,0.136-0.782,0.436
		c0,0.009,0,0.018,0,0.027c0.009,0.145,0.055,0.373,0.136,0.6l0.346,1h2.391l0.254-0.691c0.136-0.345,0.2-0.627,0.2-0.836
		c0-0.354-0.254-0.518-0.854-0.536v-0.236h2.336V78.423z"/>
	<path d="M61.045,19.809H17.805c-1.801,0-3.266,1.465-3.266,3.266v62.82c0,1.801,1.465,3.266,3.266,3.266h43.241
		c1.801,0,3.266-1.465,3.266-3.266v-62.82C64.311,21.274,62.846,19.809,61.045,19.809z M63.882,85.895
		c0,1.564-1.272,2.836-2.836,2.836H17.805c-1.564,0-2.836-1.272-2.836-2.836v-62.82c0-1.564,1.272-2.836,2.836-2.836h43.241
		c1.564,0,2.836,1.272,2.836,2.836V85.895z"/>
	<path class="st1" d="M19.464,32.573c-0.248,0.868-1.252,2.228-2.067,2.693c0.815,0.465,1.818,1.825,2.067,2.693
		c0.249-0.868,1.253-2.227,2.068-2.693C20.717,34.801,19.712,33.441,19.464,32.573z"/>
	<path class="st1" d="M59.386,76.398c0.249-0.868,1.252-2.228,2.067-2.693c-0.815-0.465-1.818-1.825-2.067-2.693
		c-0.249,0.867-1.253,2.228-2.067,2.693C58.133,74.17,59.137,75.53,59.386,76.398z"/>
	<path class="st1" d="M21.99,29.485l-1.981-5.572l-0.673,0.073L17.4,29.113c-0.409,1.073-0.736,1.427-1.327,1.436v0.236h2.336
		v-0.236c-0.6-0.018-0.854-0.182-0.854-0.536c0-0.209,0.064-0.491,0.2-0.836l0.254-0.691h2.391l0.346,1
		c0.081,0.227,0.127,0.455,0.136,0.6c0,0.009,0,0.018,0,0.027c0,0.3-0.209,0.418-0.782,0.436v0.236h2.963v-0.236
		c-0.3-0.036-0.382-0.055-0.482-0.1C22.371,30.34,22.199,30.049,21.99,29.485z M18.136,28.131l1.109-2.954l1.036,2.954H18.136z"/>
	<path class="st1" d="M60.442,78.423c0.6,0.018,0.854,0.182,0.854,0.536c0,0.209-0.064,0.491-0.2,0.836l-0.254,0.691h-2.391
		l-0.346-1c-0.082-0.227-0.127-0.455-0.136-0.6c0-0.009,0-0.018,0-0.027c0-0.3,0.209-0.418,0.782-0.436v-0.236h-2.963v0.236
		c0.3,0.036,0.382,0.055,0.482,0.1c0.209,0.109,0.382,0.4,0.591,0.964l1.981,5.572l0.673-0.073l1.936-5.127
		c0.409-1.072,0.736-1.427,1.327-1.436v-0.236h-2.336V78.423z M59.606,83.795l-1.036-2.954h2.145L59.606,83.795z"/>
	<path class="st1" d="M39.424,47.806c-0.617,2.15-3.105,5.523-5.124,6.674c2.02,1.152,4.508,4.523,5.124,6.674
		c0.617-2.151,3.106-5.522,5.124-6.674C42.53,53.328,40.041,49.956,39.424,47.806z"/>
</g>
</svg>
