<?xml version="1.0" encoding="utf-8"?>
<!-- Generator: Adobe Illustrator 23.0.2, SVG Export Plug-In . SVG Version: 6.00 Build 0)  -->
<svg version="1.1" id="Layer_1" xmlns="http://www.w3.org/2000/svg" xmlns:xlink="http://www.w3.org/1999/xlink" x="0px" y="0px"
	 viewBox="0 0 82.452 99.776" style="enable-background:new 0 0 82.452 99.776;" xml:space="preserve">
<style type="text/css">
	.st0{fill:#FFFFFF;}
	.st1{fill:#ED1C24;}
	.st2{fill:#FFCB05;}
	.st3{fill:#21409A;}
	.st4{fill:#D4D5D6;}
	.st5{fill:#000100;}
	.st6{fill:#300505;}
	.st7{fill:#BFD730;}
	.st8{fill:#F15A22;}
</style>
<g>
	<polygon class="st0" points="67.274,79.323 68.383,76.368 66.238,76.368 	"/>
	<polygon class="st0" points="25.804,23.659 27.949,23.659 26.913,20.705 	"/>
	<path class="st0" d="M68.714,15.767H25.473c-1.564,0-2.836,1.272-2.836,2.836v62.82c0,1.564,1.272,2.836,2.836,2.836h43.241
		c1.564,0,2.836-1.272,2.836-2.836v-62.82C71.55,17.039,70.278,15.767,68.714,15.767z M66.007,67.8
		c0.329-0.361,0.767-0.845,1.046-1.353c0.281,0.508,0.718,0.992,1.047,1.353c0.658,0.724,1.284,1.489,1.284,2.641
		c0,1.763-1.856,2.261-2.33,0.392c-0.473,1.869-2.329,1.372-2.329-0.392C64.724,69.289,65.349,68.525,66.007,67.8z M28.179,32.226
		c-0.329,0.362-0.766,0.847-1.046,1.354c-0.281-0.507-0.717-0.992-1.047-1.354c-0.658-0.724-1.283-1.488-1.283-2.641
		c0-1.763,1.856-2.261,2.33-0.392c0.473-1.869,2.33-1.371,2.33,0.392C29.463,30.738,28.837,31.502,28.179,32.226z M30.731,26.313
		h-2.963v-0.236c0.573-0.018,0.782-0.136,0.782-0.436c0-0.009,0-0.018,0-0.027c-0.009-0.145-0.055-0.373-0.136-0.6l-0.346-1h-2.391
		l-0.254,0.691c-0.136,0.345-0.2,0.627-0.2,0.836c0,0.354,0.254,0.518,0.854,0.536v0.236h-2.336v-0.236
		c0.591-0.009,0.918-0.364,1.327-1.436l1.936-5.127l0.673-0.073l1.981,5.572c0.209,0.564,0.382,0.855,0.591,0.964
		c0.1,0.045,0.182,0.064,0.482,0.1V26.313z M49.688,53.56c-0.816,0.899-1.899,2.099-2.594,3.357
		c-0.695-1.258-1.779-2.458-2.595-3.357c-1.63-1.794-3.182-3.69-3.182-6.548c0-4.37,4.604-5.604,5.777-0.971
		c1.173-4.633,5.775-3.399,5.775,0.971C52.869,49.87,51.318,51.765,49.688,53.56z M70.446,73.951
		c-0.591,0.009-0.918,0.363-1.327,1.436l-1.936,5.127l-0.673,0.073l-1.981-5.572c-0.209-0.563-0.382-0.854-0.591-0.964
		c-0.1-0.045-0.182-0.063-0.482-0.1v-0.236h2.963v0.236c-0.573,0.018-0.782,0.136-0.782,0.436c0,0.009,0,0.018,0,0.027
		c0.009,0.145,0.055,0.373,0.136,0.6l0.346,1h2.391l0.254-0.691c0.136-0.346,0.2-0.627,0.2-0.836c0-0.355-0.254-0.518-0.854-0.537
		v-0.236h2.336V73.951z"/>
	<path d="M68.714,15.337H25.473c-1.801,0-3.266,1.465-3.266,3.266v62.82c0,1.801,1.465,3.266,3.266,3.266h43.241
		c1.801,0,3.266-1.465,3.266-3.266v-62.82C71.98,16.802,70.515,15.337,68.714,15.337z M71.55,81.423
		c0,1.564-1.272,2.836-2.836,2.836H25.473c-1.564,0-2.836-1.272-2.836-2.836v-62.82c0-1.564,1.272-2.836,2.836-2.836h43.241
		c1.564,0,2.836,1.272,2.836,2.836V81.423z"/>
	<path class="st1" d="M29.658,25.013l-1.981-5.572l-0.673,0.073l-1.936,5.127c-0.409,1.073-0.736,1.427-1.327,1.436v0.236h2.336
		v-0.236c-0.6-0.018-0.854-0.182-0.854-0.536c0-0.209,0.064-0.491,0.2-0.836l0.254-0.691h2.391l0.346,1
		c0.081,0.227,0.127,0.455,0.136,0.6c0,0.009,0,0.018,0,0.027c0,0.3-0.209,0.418-0.782,0.436v0.236h2.963v-0.236
		c-0.3-0.036-0.382-0.055-0.482-0.1C30.04,25.868,29.867,25.577,29.658,25.013z M25.804,23.659l1.109-2.954l1.036,2.954H25.804z"/>
	<path class="st1" d="M68.11,73.951c0.6,0.018,0.854,0.182,0.854,0.537c0,0.209-0.064,0.49-0.2,0.836l-0.254,0.691H66.12l-0.346-1
		c-0.082-0.227-0.127-0.455-0.136-0.6c0-0.009,0-0.018,0-0.027c0-0.3,0.209-0.418,0.782-0.436v-0.236h-2.963v0.236
		c0.3,0.037,0.382,0.055,0.482,0.1c0.209,0.109,0.382,0.4,0.591,0.964l1.981,5.572l0.673-0.073l1.936-5.127
		c0.409-1.073,0.736-1.427,1.327-1.436v-0.236H68.11V73.951z M67.274,79.323l-1.036-2.954h2.145L67.274,79.323z"/>
	<path class="st1" d="M47.094,46.04c-1.174-4.633-5.777-3.399-5.777,0.971c0,2.858,1.552,4.754,3.182,6.548
		c0.817,0.899,1.9,2.099,2.595,3.357c0.695-1.258,1.778-2.458,2.594-3.357c1.631-1.794,3.181-3.69,3.181-6.548
		C52.869,42.641,48.267,41.407,47.094,46.04z"/>
	<path class="st1" d="M27.133,29.193c-0.473-1.869-2.33-1.371-2.33,0.392c0,1.153,0.625,1.917,1.283,2.641
		c0.329,0.362,0.766,0.847,1.047,1.354c0.28-0.507,0.718-0.992,1.046-1.354c0.658-0.724,1.283-1.488,1.283-2.641
		C29.463,27.822,27.606,27.324,27.133,29.193z"/>
	<path class="st1" d="M67.053,70.833c0.474,1.869,2.33,1.372,2.33-0.392c0-1.153-0.626-1.917-1.284-2.641
		c-0.329-0.361-0.766-0.845-1.047-1.353c-0.28,0.508-0.717,0.992-1.046,1.353c-0.658,0.724-1.283,1.489-1.283,2.641
		C64.724,72.205,66.58,72.702,67.053,70.833z"/>
</g>
</svg>
