<?xml version="1.0" encoding="utf-8"?>
<!-- Generator: Adobe Illustrator 23.0.2, SVG Export Plug-In . SVG Version: 6.00 Build 0)  -->
<svg version="1.1" id="Layer_1" xmlns="http://www.w3.org/2000/svg" xmlns:xlink="http://www.w3.org/1999/xlink" x="0px" y="0px"
	 viewBox="0 0 82.452 99.776" style="enable-background:new 0 0 82.452 99.776;" xml:space="preserve">
<style type="text/css">
	.st0{fill:#FFFFFF;}
	.st1{fill:#ED1C24;}
	.st2{fill:#FFCB05;}
	.st3{fill:#21409A;}
	.st4{fill:#D4D5D6;}
	.st5{fill:#000100;}
	.st6{fill:#300505;}
	.st7{fill:#BFD730;}
	.st8{fill:#F15A22;}
</style>
<g>
	<polygon class="st0" points="24.022,33.345 26.167,33.345 25.131,30.391 	"/>
	<polygon class="st0" points="65.492,89.009 66.601,86.055 64.456,86.055 	"/>
	<path class="st0" d="M66.931,25.454H23.691c-1.564,0-2.836,1.272-2.836,2.836v62.82c0,1.563,1.272,2.836,2.836,2.836h43.241
		c1.564,0,2.836-1.272,2.836-2.836V28.29C69.768,26.727,68.495,25.454,66.931,25.454z M65.16,77.752
		c-0.055-0.521-0.297-1.315-0.788-1.505h1.802c-0.491,0.19-0.733,0.984-0.789,1.505c0.6-1.182,2.217-0.741,2.217,0.596
		c0,0.937-0.625,1.56-1.283,2.148c-0.329,0.295-0.766,0.688-1.047,1.101c-0.28-0.413-0.717-0.806-1.047-1.101
		c-0.657-0.588-1.282-1.211-1.282-2.148C62.944,77.01,64.56,76.57,65.16,77.752z M25.463,41.649
		c0.055,0.521,0.298,1.316,0.788,1.505h-1.802c0.49-0.189,0.733-0.984,0.788-1.505c-0.6,1.182-2.216,0.742-2.216-0.596
		c0-0.937,0.626-1.559,1.282-2.147c0.329-0.294,0.767-0.688,1.047-1.101c0.281,0.413,0.717,0.807,1.047,1.101
		c0.657,0.589,1.282,1.211,1.282,2.147C27.679,42.39,26.063,42.831,25.463,41.649z M28.949,35.999h-2.963v-0.236
		c0.573-0.018,0.782-0.136,0.782-0.436c0-0.009,0-0.018,0-0.027c-0.009-0.146-0.055-0.372-0.136-0.6l-0.346-1h-2.391L23.64,34.39
		c-0.136,0.346-0.2,0.627-0.2,0.837c0,0.354,0.254,0.518,0.854,0.536v0.236h-2.336v-0.236c0.591-0.009,0.918-0.364,1.327-1.436
		l1.936-5.127l0.673-0.072l1.981,5.572c0.209,0.564,0.382,0.854,0.591,0.964c0.1,0.045,0.182,0.063,0.482,0.1V35.999z M45.59,62.597
		c0.138,1.292,0.739,3.262,1.954,3.732h-4.468c1.216-0.47,1.817-2.439,1.954-3.732c-1.489,2.932-5.497,1.838-5.497-1.48
		c0-2.325,1.552-3.866,3.182-5.326c0.816-0.73,1.899-1.706,2.594-2.73c0.696,1.023,1.779,2,2.596,2.73
		c1.63,1.46,3.182,3.001,3.182,5.326C51.087,64.435,47.079,65.528,45.59,62.597z M68.664,83.637
		c-0.591,0.009-0.918,0.364-1.327,1.436L65.401,90.2l-0.673,0.073l-1.981-5.572c-0.209-0.563-0.382-0.854-0.591-0.964
		c-0.1-0.045-0.182-0.063-0.482-0.1v-0.236h2.963v0.236c-0.573,0.018-0.782,0.136-0.782,0.436c0,0.009,0,0.018,0,0.027
		c0.009,0.145,0.055,0.372,0.136,0.6l0.346,1h2.391l0.254-0.691c0.136-0.346,0.2-0.627,0.2-0.837c0-0.354-0.254-0.518-0.854-0.536
		v-0.236h2.336V83.637z"/>
	<path d="M66.931,25.024H23.691c-1.801,0-3.266,1.465-3.266,3.266v62.82c0,1.801,1.465,3.266,3.266,3.266h43.241
		c1.801,0,3.266-1.465,3.266-3.266V28.29C70.198,26.489,68.733,25.024,66.931,25.024z M69.768,91.11
		c0,1.563-1.272,2.836-2.836,2.836H23.691c-1.564,0-2.836-1.272-2.836-2.836V28.29c0-1.563,1.272-2.836,2.836-2.836h43.241
		c1.564,0,2.836,1.272,2.836,2.836V91.11z"/>
	<path class="st5" d="M27.876,34.7l-1.981-5.572L25.222,29.2l-1.936,5.127c-0.409,1.072-0.736,1.427-1.327,1.436v0.236h2.336v-0.236
		c-0.6-0.018-0.854-0.182-0.854-0.536c0-0.209,0.064-0.491,0.2-0.837l0.254-0.691h2.391l0.346,1c0.081,0.228,0.127,0.455,0.136,0.6
		c0,0.009,0,0.018,0,0.027c0,0.3-0.209,0.418-0.782,0.436v0.236h2.963v-0.236c-0.3-0.036-0.382-0.055-0.482-0.1
		C28.258,35.554,28.085,35.263,27.876,34.7z M24.022,33.345l1.109-2.954l1.036,2.954H24.022z"/>
	<path class="st5" d="M66.328,83.637c0.6,0.018,0.854,0.182,0.854,0.536c0,0.209-0.064,0.491-0.2,0.837l-0.254,0.691h-2.391
		l-0.346-1c-0.082-0.228-0.127-0.455-0.136-0.6c0-0.009,0-0.018,0-0.027c0-0.3,0.209-0.418,0.782-0.436v-0.236h-2.963v0.236
		c0.3,0.036,0.382,0.055,0.482,0.1c0.209,0.109,0.382,0.4,0.591,0.964l1.981,5.572l0.673-0.073l1.936-5.127
		c0.409-1.072,0.736-1.427,1.327-1.436v-0.236h-2.336V83.637z M65.492,89.009l-1.036-2.954h2.145L65.492,89.009z"/>
	<path d="M47.906,55.791c-0.817-0.73-1.9-1.706-2.596-2.73c-0.695,1.023-1.778,2-2.594,2.73c-1.63,1.46-3.182,3.001-3.182,5.326
		c0,3.318,4.008,4.412,5.497,1.48c-0.137,1.292-0.738,3.262-1.954,3.732h4.468c-1.216-0.47-1.817-2.439-1.954-3.732
		c1.489,2.932,5.497,1.838,5.497-1.48C51.087,58.792,49.536,57.251,47.906,55.791z"/>
	<path d="M26.397,38.905c-0.329-0.294-0.766-0.688-1.047-1.101c-0.28,0.413-0.717,0.807-1.047,1.101
		c-0.657,0.589-1.282,1.211-1.282,2.147c0,1.338,1.616,1.779,2.216,0.596c-0.055,0.521-0.297,1.316-0.788,1.505h1.802
		c-0.491-0.189-0.733-0.984-0.788-1.505c0.601,1.182,2.217,0.742,2.217-0.596C27.679,40.116,27.054,39.494,26.397,38.905z"/>
	<path d="M64.226,80.496c0.329,0.295,0.767,0.688,1.047,1.101c0.281-0.413,0.717-0.806,1.047-1.101
		c0.657-0.588,1.283-1.211,1.283-2.148c0-1.337-1.616-1.778-2.217-0.596c0.055-0.521,0.298-1.315,0.789-1.505h-1.802
		c0.49,0.19,0.733,0.984,0.788,1.505c-0.6-1.182-2.216-0.741-2.216,0.596C62.944,79.285,63.569,79.908,64.226,80.496z"/>
</g>
</svg>
