<?xml version="1.0" encoding="utf-8"?>
<!-- Generator: Adobe Illustrator 23.0.2, SVG Export Plug-In . SVG Version: 6.00 Build 0)  -->
<svg version="1.1" id="Layer_1" xmlns="http://www.w3.org/2000/svg" xmlns:xlink="http://www.w3.org/1999/xlink" x="0px" y="0px"
	 viewBox="0 0 82.452 99.776" style="enable-background:new 0 0 82.452 99.776;" xml:space="preserve">
<style type="text/css">
	.st0{fill:#FFFFFF;}
	.st1{fill:#ED1C24;}
	.st2{fill:#FFCB05;}
	.st3{fill:#21409A;}
	.st4{fill:#D4D5D6;}
	.st5{fill:#000100;}
	.st6{fill:#300505;}
	.st7{fill:#BFD730;}
	.st8{fill:#F15A22;}
</style>
<g>
	<polygon class="st0" points="64.022,84.514 65.131,81.561 62.985,81.561 	"/>
	<polygon class="st0" points="22.551,28.85 24.696,28.85 23.66,25.897 	"/>
	<path class="st0" d="M65.46,20.96H22.22c-1.564,0-2.836,1.272-2.836,2.835v62.82c0,1.563,1.272,2.836,2.836,2.836H65.46
		c1.564,0,2.836-1.272,2.836-2.836v-62.82C68.297,22.232,67.024,20.96,65.46,20.96z M63.688,73.257
		c-0.055-0.521-0.297-1.315-0.788-1.506h1.802c-0.491,0.19-0.733,0.984-0.789,1.506c0.6-1.182,2.217-0.741,2.217,0.596
		c0,0.937-0.625,1.56-1.283,2.148c-0.329,0.294-0.766,0.688-1.047,1.1c-0.28-0.412-0.717-0.806-1.046-1.1
		c-0.657-0.588-1.282-1.211-1.282-2.148C61.472,72.516,63.088,72.075,63.688,73.257z M23.992,37.155
		c0.055,0.521,0.298,1.316,0.788,1.505h-1.802c0.491-0.189,0.733-0.984,0.788-1.505c-0.6,1.182-2.216,0.741-2.216-0.597
		c0-0.936,0.626-1.559,1.282-2.148c0.329-0.294,0.767-0.687,1.047-1.1c0.281,0.413,0.717,0.806,1.047,1.1
		c0.658,0.589,1.283,1.211,1.283,2.148C26.208,37.896,24.592,38.337,23.992,37.155z M27.477,31.505h-2.963v-0.236
		c0.573-0.018,0.782-0.136,0.782-0.436c0-0.009,0-0.018,0-0.027c-0.009-0.145-0.054-0.372-0.136-0.6l-0.346-1h-2.391l-0.254,0.691
		c-0.136,0.346-0.2,0.627-0.2,0.837c0,0.354,0.255,0.518,0.855,0.536v0.236h-2.336v-0.236c0.591-0.009,0.918-0.364,1.327-1.436
		l1.936-5.127l0.673-0.072l1.982,5.572c0.209,0.564,0.382,0.854,0.591,0.964c0.1,0.045,0.182,0.063,0.482,0.1V31.505z
		 M44.339,60.385c0.246,2.309,1.319,5.828,3.492,6.667h-7.982c2.172-0.84,3.246-4.358,3.492-6.667
		c-2.662,5.237-9.822,3.284-9.822-2.644c0-4.151,2.772-6.907,5.684-9.514c1.459-1.305,3.394-3.049,4.636-4.878
		c1.243,1.829,3.178,3.572,4.638,4.878c2.912,2.608,5.684,5.363,5.684,9.514C54.16,63.669,46.998,65.622,44.339,60.385z
		 M67.194,79.142c-0.591,0.009-0.918,0.364-1.327,1.436l-1.936,5.127l-0.673,0.072l-1.982-5.572
		c-0.209-0.564-0.382-0.854-0.591-0.964c-0.1-0.045-0.182-0.063-0.482-0.1v-0.236h2.963v0.236c-0.573,0.018-0.782,0.136-0.782,0.436
		c0,0.009,0,0.018,0,0.027c0.009,0.146,0.054,0.372,0.136,0.6l0.346,1h2.391l0.254-0.691c0.136-0.346,0.2-0.627,0.2-0.837
		c0-0.354-0.255-0.518-0.855-0.536v-0.236h2.336V79.142z"/>
	<path d="M65.46,20.53H22.22c-1.801,0-3.266,1.465-3.266,3.265v62.82c0,1.801,1.465,3.266,3.266,3.266H65.46
		c1.801,0,3.266-1.465,3.266-3.266v-62.82C68.727,21.995,67.262,20.53,65.46,20.53z M68.297,86.616c0,1.563-1.272,2.836-2.836,2.836
		H22.22c-1.564,0-2.836-1.272-2.836-2.836v-62.82c0-1.563,1.272-2.835,2.836-2.835H65.46c1.564,0,2.836,1.272,2.836,2.835V86.616z"
		/>
	<path class="st5" d="M26.405,30.205l-1.982-5.572l-0.673,0.072l-1.936,5.127c-0.409,1.072-0.736,1.427-1.327,1.436v0.236h2.336
		v-0.236c-0.6-0.018-0.855-0.182-0.855-0.536c0-0.209,0.064-0.491,0.2-0.837l0.254-0.691h2.391l0.346,1
		c0.082,0.228,0.127,0.455,0.136,0.6c0,0.009,0,0.018,0,0.027c0,0.3-0.209,0.418-0.782,0.436v0.236h2.963v-0.236
		c-0.3-0.037-0.382-0.055-0.482-0.1C26.787,31.059,26.614,30.768,26.405,30.205z M22.551,28.85l1.109-2.954l1.036,2.954H22.551z"/>
	<path class="st5" d="M64.858,79.142c0.6,0.018,0.855,0.182,0.855,0.536c0,0.209-0.064,0.491-0.2,0.837l-0.254,0.691h-2.391
		l-0.346-1c-0.082-0.228-0.127-0.455-0.136-0.6c0-0.009,0-0.018,0-0.027c0-0.3,0.209-0.418,0.782-0.436v-0.236h-2.963v0.236
		c0.3,0.036,0.382,0.055,0.482,0.1c0.209,0.109,0.382,0.4,0.591,0.964l1.982,5.572l0.673-0.072l1.936-5.127
		c0.409-1.072,0.736-1.427,1.327-1.436v-0.236h-2.336V79.142z M64.022,84.514l-1.036-2.954h2.145L64.022,84.514z"/>
	<path d="M48.476,48.226c-1.46-1.305-3.395-3.049-4.638-4.878c-1.241,1.829-3.177,3.572-4.636,4.878
		c-2.912,2.608-5.684,5.363-5.684,9.514c0,5.928,7.16,7.881,9.822,2.644c-0.246,2.309-1.32,5.828-3.492,6.667h7.982
		c-2.172-0.84-3.246-4.358-3.492-6.667c2.66,5.237,9.822,3.284,9.822-2.644C54.16,53.589,51.388,50.834,48.476,48.226z
		 M43.183,45.932c0.35-0.34,0.96-0.34,1.31,0c0.17,0.17,0.27,0.41,0.27,0.65c0,0.119-0.03,0.239-0.07,0.359
		c-0.03,0.05-0.06,0.101-0.09,0.15c-0.03,0.05-0.07,0.1-0.11,0.14c-0.17,0.18-0.41,0.28-0.65,0.28c-0.25,0-0.48-0.101-0.66-0.28
		c-0.17-0.17-0.27-0.41-0.27-0.649C42.913,46.342,43.013,46.102,43.183,45.932z M41.913,47.242c0.36-0.35,0.95-0.35,1.3,0.021
		c0.36,0.36,0.35,0.95-0.02,1.3c-0.18,0.18-0.41,0.26-0.64,0.26c-0.24,0-0.48-0.09-0.66-0.279
		C41.533,48.182,41.543,47.592,41.913,47.242z M35.373,54.452c0.21-0.46,0.76-0.659,1.22-0.449c0.46,0.22,0.66,0.77,0.45,1.229
		c-0.16,0.33-0.49,0.53-0.84,0.53c-0.13,0-0.26-0.03-0.38-0.09C35.353,55.462,35.153,54.912,35.373,54.452z M35.553,58.812
		c-0.49,0-0.9-0.39-0.92-0.89c-0.01-0.511,0.39-0.94,0.89-0.95c0.51-0.01,0.94,0.39,0.95,0.89c0.02,0.511-0.38,0.94-0.89,0.95
		C35.573,58.812,35.563,58.812,35.553,58.812z M37.503,61.272c-0.18,0.22-0.45,0.34-0.71,0.34c-0.21,0-0.42-0.069-0.59-0.22
		c-0.39-0.32-0.44-0.9-0.12-1.29c0.32-0.4,0.9-0.45,1.3-0.13C37.773,60.302,37.823,60.882,37.503,61.272z M37.983,53.172
		c-0.22,0-0.44-0.08-0.61-0.24c-0.38-0.34-0.41-0.92-0.08-1.3c0.34-0.38,0.92-0.41,1.3-0.07c0.38,0.34,0.42,0.92,0.08,1.3
		C38.493,53.062,38.243,53.172,37.983,53.172z M39.983,62.162c-0.07,0.021-0.14,0.03-0.21,0.03c-0.42,0-0.8-0.29-0.9-0.71
		c-0.11-0.5,0.19-0.99,0.69-1.109c0.49-0.12,0.99,0.189,1.11,0.689C40.783,61.552,40.483,62.052,39.983,62.162z M40.853,50.722
		c0,0,0,0-0.01,0c-0.17,0.16-0.39,0.229-0.61,0.229c-0.25,0-0.5-0.1-0.69-0.3c-0.34-0.38-0.31-0.96,0.07-1.3
		c0.38-0.34,0.96-0.31,1.3,0.06C41.253,49.792,41.223,50.382,40.853,50.722z M43.073,60.142c-0.18,0.23-0.45,0.35-0.72,0.35
		c-0.2,0-0.4-0.069-0.57-0.199c-0.4-0.311-0.47-0.891-0.16-1.29c0.32-0.4,0.9-0.471,1.3-0.16
		C43.323,59.152,43.393,59.732,43.073,60.142z M43.183,56.822c-0.17-0.17-0.27-0.41-0.27-0.649c0-0.12,0.03-0.24,0.07-0.351
		c0.05-0.109,0.12-0.21,0.2-0.3c0.176-0.17,0.416-0.255,0.657-0.255c0.242,0,0.483,0.084,0.653,0.255c0.08,0.09,0.15,0.19,0.2,0.3
		c0.04,0.11,0.07,0.23,0.07,0.351s-0.03,0.239-0.07,0.359c-0.05,0.11-0.12,0.21-0.2,0.29c-0.18,0.181-0.41,0.28-0.65,0.28
		C43.593,57.102,43.363,57.002,43.183,56.822z M44.743,58.782c-0.12,0.051-0.24,0.07-0.36,0.07c-0.36,0-0.7-0.21-0.85-0.57h0.01
		c-0.2-0.47,0.02-1,0.49-1.199c0.47-0.2,1.01,0.02,1.21,0.489c0,0,0,0,0,0.011C45.433,58.052,45.213,58.592,44.743,58.782z
		 M46.943,61.022c-0.18,0.23-0.46,0.36-0.73,0.36c-0.2,0-0.4-0.061-0.57-0.19c-0.4-0.319-0.47-0.899-0.16-1.3s0.89-0.47,1.29-0.16
		C47.183,60.042,47.253,60.622,46.943,61.022z M47.193,49.812c-0.18,0.2-0.43,0.3-0.68,0.3c-0.22,0-0.44-0.069-0.62-0.229
		c-0.38-0.351-0.41-0.931-0.07-1.311c0.34-0.37,0.93-0.399,1.3-0.06C47.503,48.852,47.533,49.432,47.193,49.812z M48.173,50.682
		c0.36-0.36,0.94-0.36,1.3,0s0.36,0.94,0.01,1.3c-0.19,0.18-0.42,0.271-0.66,0.271c-0.23,0-0.47-0.091-0.65-0.261
		C47.813,51.632,47.813,51.042,48.173,50.682z M49.223,62.302c-0.02,0-0.05,0-0.07,0c-0.48,0-0.88-0.37-0.92-0.86
		c-0.03-0.5,0.35-0.939,0.86-0.979c0.5-0.04,0.95,0.35,0.98,0.85C50.113,61.822,49.733,62.262,49.223,62.302z M52.483,60.152v-0.01
		c-0.16,0.31-0.48,0.49-0.81,0.49c-0.15,0-0.29-0.03-0.43-0.101c-0.45-0.239-0.62-0.8-0.39-1.25c0.24-0.449,0.8-0.62,1.25-0.38
		C52.553,59.142,52.723,59.692,52.483,60.152z M52.943,56.492c0.08,0.5-0.26,0.971-0.76,1.061c-0.05,0-0.1,0.01-0.15,0.01
		c-0.44,0-0.83-0.32-0.91-0.77c-0.08-0.511,0.26-0.98,0.76-1.061C52.383,55.642,52.863,55.982,52.943,56.492z M50.353,52.972
		c0.42-0.28,0.99-0.16,1.27,0.27v-0.01c0.28,0.43,0.16,1-0.26,1.28c-0.16,0.1-0.33,0.149-0.51,0.149c-0.3,0-0.59-0.149-0.77-0.42
		C49.803,53.822,49.923,53.252,50.353,52.972z"/>
	<path class="st0" d="M51.123,56.792c0.08,0.449,0.47,0.77,0.91,0.77c0.05,0,0.1-0.01,0.15-0.01c0.5-0.09,0.84-0.561,0.76-1.061
		c-0.08-0.51-0.56-0.85-1.06-0.76C51.383,55.812,51.043,56.282,51.123,56.792z"/>
	<path class="st0" d="M50.083,54.242c0.18,0.271,0.47,0.42,0.77,0.42c0.18,0,0.35-0.05,0.51-0.149c0.42-0.28,0.54-0.851,0.26-1.28
		v0.01c-0.28-0.43-0.85-0.55-1.27-0.27C49.923,53.252,49.803,53.822,50.083,54.242z"/>
	<path class="st0" d="M52.103,58.902c-0.45-0.24-1.01-0.069-1.25,0.38c-0.23,0.45-0.06,1.011,0.39,1.25
		c0.14,0.07,0.28,0.101,0.43,0.101c0.33,0,0.65-0.181,0.81-0.49v0.01C52.723,59.692,52.553,59.142,52.103,58.902z"/>
	<path class="st0" d="M45.483,59.892c-0.31,0.4-0.24,0.98,0.16,1.3c0.17,0.13,0.37,0.19,0.57,0.19c0.27,0,0.55-0.13,0.73-0.36
		c0.31-0.399,0.24-0.979-0.17-1.29C46.373,59.422,45.793,59.492,45.483,59.892z"/>
	<path class="st0" d="M49.483,51.982c0.35-0.359,0.35-0.939-0.01-1.3s-0.94-0.36-1.3,0c-0.36,0.36-0.36,0.95,0,1.31
		c0.18,0.17,0.42,0.261,0.65,0.261C49.063,52.252,49.293,52.162,49.483,51.982z"/>
	<path class="st0" d="M45.823,48.572c-0.34,0.38-0.31,0.96,0.07,1.311c0.18,0.16,0.4,0.229,0.62,0.229c0.25,0,0.5-0.1,0.68-0.3
		c0.34-0.38,0.31-0.96-0.07-1.3C46.753,48.172,46.163,48.202,45.823,48.572z"/>
	<path class="st0" d="M49.093,60.462c-0.51,0.04-0.89,0.479-0.86,0.979c0.04,0.49,0.44,0.86,0.92,0.86c0.02,0,0.05,0,0.07,0
		c0.51-0.04,0.89-0.48,0.85-0.99C50.043,60.812,49.593,60.422,49.093,60.462z"/>
	<path class="st0" d="M45.243,57.582c0-0.011,0-0.011,0-0.011c-0.2-0.47-0.74-0.689-1.21-0.489c-0.47,0.199-0.69,0.729-0.49,1.199
		h-0.01c0.15,0.36,0.49,0.57,0.85,0.57c0.12,0,0.24-0.02,0.36-0.07C45.213,58.592,45.433,58.052,45.243,57.582z"/>
	<path class="st0" d="M43.843,47.512c0.24,0,0.48-0.101,0.65-0.28c0.04-0.04,0.08-0.09,0.11-0.14c0.03-0.05,0.06-0.101,0.09-0.15
		c0.04-0.12,0.07-0.24,0.07-0.359c0-0.24-0.1-0.48-0.27-0.65c-0.35-0.34-0.96-0.34-1.31,0c-0.17,0.17-0.27,0.41-0.27,0.65
		c0,0.239,0.1,0.479,0.27,0.649C43.363,47.412,43.593,47.512,43.843,47.512z"/>
	<path class="st0" d="M39.563,60.372c-0.5,0.119-0.8,0.609-0.69,1.109c0.1,0.42,0.48,0.71,0.9,0.71c0.07,0,0.14-0.01,0.21-0.03
		c0.5-0.109,0.8-0.609,0.69-1.1C40.553,60.562,40.053,60.252,39.563,60.372z"/>
	<path class="st0" d="M38.593,51.562c-0.38-0.34-0.96-0.31-1.3,0.07c-0.33,0.38-0.3,0.96,0.08,1.3c0.17,0.16,0.39,0.24,0.61,0.24
		c0.26,0,0.51-0.11,0.69-0.311C39.013,52.482,38.973,51.902,38.593,51.562z"/>
	<path class="st0" d="M36.083,60.102c-0.32,0.39-0.27,0.97,0.12,1.29c0.17,0.15,0.38,0.22,0.59,0.22c0.26,0,0.53-0.12,0.71-0.34
		c0.32-0.39,0.27-0.97-0.12-1.3C36.983,59.652,36.403,59.702,36.083,60.102z"/>
	<path class="st0" d="M39.613,49.352c-0.38,0.34-0.41,0.92-0.07,1.3c0.19,0.2,0.44,0.3,0.69,0.3c0.22,0,0.44-0.069,0.61-0.229
		c0.01,0,0.01,0,0.01,0c0.37-0.34,0.4-0.93,0.06-1.311C40.573,49.042,39.993,49.012,39.613,49.352z"/>
	<path class="st0" d="M36.473,57.862c-0.01-0.5-0.44-0.899-0.95-0.89c-0.5,0.01-0.9,0.439-0.89,0.95c0.02,0.5,0.43,0.89,0.92,0.89
		c0.01,0,0.02,0,0.03,0C36.093,58.802,36.493,58.372,36.473,57.862z"/>
	<path class="st0" d="M41.623,59.002c-0.31,0.399-0.24,0.979,0.16,1.29c0.17,0.13,0.37,0.199,0.57,0.199
		c0.27,0,0.54-0.119,0.72-0.35c0.32-0.41,0.25-0.99-0.15-1.3C42.523,58.532,41.943,58.602,41.623,59.002z"/>
	<path class="st0" d="M35.823,55.672c0.12,0.06,0.25,0.09,0.38,0.09c0.35,0,0.68-0.2,0.84-0.53c0.21-0.46,0.01-1.01-0.45-1.229
		c-0.46-0.21-1.01-0.011-1.22,0.449C35.153,54.912,35.353,55.462,35.823,55.672z"/>
	<path class="st0" d="M42.553,48.822c0.23,0,0.46-0.08,0.64-0.26c0.37-0.35,0.38-0.939,0.02-1.3c-0.35-0.37-0.94-0.37-1.3-0.021
		c-0.37,0.351-0.38,0.94-0.02,1.301C42.073,48.732,42.313,48.822,42.553,48.822z"/>
	<path class="st0" d="M44.493,56.822c0.08-0.08,0.15-0.18,0.2-0.29c0.04-0.12,0.07-0.239,0.07-0.359s-0.03-0.24-0.07-0.351
		c-0.05-0.109-0.12-0.21-0.2-0.3c-0.17-0.17-0.411-0.255-0.653-0.255c-0.241,0-0.481,0.084-0.657,0.255
		c-0.08,0.09-0.15,0.19-0.2,0.3c-0.04,0.11-0.07,0.23-0.07,0.351c0,0.239,0.1,0.479,0.27,0.649c0.18,0.181,0.41,0.28,0.66,0.28
		C44.083,57.102,44.313,57.002,44.493,56.822z"/>
	<path d="M24.925,34.41c-0.329-0.294-0.766-0.687-1.047-1.1c-0.28,0.413-0.717,0.806-1.047,1.1
		c-0.657,0.589-1.282,1.211-1.282,2.148c0,1.338,1.616,1.779,2.216,0.597c-0.055,0.521-0.297,1.316-0.788,1.505h1.802
		c-0.491-0.189-0.733-0.984-0.788-1.505c0.6,1.182,2.217,0.741,2.217-0.597C26.208,35.621,25.583,34.999,24.925,34.41z"/>
	<path d="M62.755,76.001c0.329,0.294,0.767,0.688,1.046,1.1c0.281-0.412,0.717-0.806,1.047-1.1c0.657-0.588,1.283-1.211,1.283-2.148
		c0-1.337-1.616-1.778-2.217-0.596c0.055-0.521,0.298-1.315,0.789-1.506h-1.802c0.49,0.19,0.733,0.984,0.788,1.506
		c-0.6-1.182-2.216-0.741-2.216,0.596C61.472,74.79,62.098,75.413,62.755,76.001z"/>
</g>
</svg>
