<?xml version="1.0" encoding="utf-8"?>
<!-- Generator: Adobe Illustrator 23.0.2, SVG Export Plug-In . SVG Version: 6.00 Build 0)  -->
<svg version="1.1" id="Layer_1" xmlns="http://www.w3.org/2000/svg" xmlns:xlink="http://www.w3.org/1999/xlink" x="0px" y="0px"
	 viewBox="0 0 82.452 99.776" style="enable-background:new 0 0 82.452 99.776;" xml:space="preserve">
<style type="text/css">
	.st0{fill:#FFFFFF;}
	.st1{fill:#ED1C24;}
	.st2{fill:#FFCB05;}
	.st3{fill:#21409A;}
	.st4{fill:#D4D5D6;}
	.st5{fill:#000100;}
	.st6{fill:#300505;}
	.st7{fill:#BFD730;}
	.st8{fill:#F15A22;}
</style>
<g>
	<path class="st0" d="M54.577,64.707c-0.04-0.041-0.063-0.095-0.063-0.152v-2.892c-0.982,0.622-2.054,1.095-3.202,1.404
		c0.833,0.411,1.501,0.91,1.916,1.451c0.795,1.037,0.874,2.369,0.19,3.24c-0.528,0.673-1.354,1.01-2.155,0.886
		c-0.559-0.089-1.021-0.393-1.318-0.854c-0.809,1.766-1.4,2.75-1.88,3.139c0.118,0.516,0.234,1.029,0.347,1.533
		c0.668,2.982,1.303,5.795,2.329,7.335h8.268V69.151L54.577,64.707z M57.631,75.048c-0.44,0.209-0.917,0.245-1.356,0.137l-0.001,0
		c-0.005-0.001-0.01-0.002-0.015-0.004l-1.07-0.249l0.684,0.86c0.002,0.004,0.006,0.008,0.009,0.012l0.001,0.001
		c0.285,0.35,0.457,0.797,0.457,1.284c0,1.123-0.91,2.034-2.034,2.034s-2.034-0.911-2.034-2.034c0-0.487,0.171-0.934,0.456-1.284
		l0.002-0.001c0.002-0.004,0.006-0.008,0.009-0.012l0.683-0.86l-1.069,0.249c-0.005,0.001-0.01,0.002-0.016,0.004l-0.001,0
		c-0.438,0.108-0.916,0.072-1.356-0.137c-1.015-0.482-1.446-1.694-0.965-2.709c0.48-1.015,1.694-1.447,2.709-0.966
		c0.44,0.209,0.77,0.556,0.964,0.964c0.002,0.005,0.006,0.01,0.007,0.015l0.42,0.856v-0.965c0-0.914-0.448-2.845-1.517-3.259h3.415
		c-1.07,0.414-1.518,2.345-1.518,3.259v0.965l0.42-0.856c0.002-0.005,0.006-0.009,0.007-0.015h0.001
		c0.193-0.408,0.523-0.755,0.964-0.964c1.015-0.481,2.228-0.048,2.709,0.966C59.079,73.354,58.646,74.567,57.631,75.048z"/>
	<path class="st0" d="M29.336,39.796c0.04,0.041,0.063,0.095,0.063,0.152v2.892c0.982-0.623,2.054-1.095,3.203-1.405
		c-0.833-0.41-1.5-0.91-1.916-1.45c-0.795-1.037-0.873-2.369-0.19-3.24c0.527-0.673,1.353-1.017,2.153-0.886
		c0.56,0.089,1.022,0.393,1.32,0.854c0.809-1.766,1.4-2.75,1.88-3.139c-0.121-0.525-0.238-1.048-0.354-1.56
		c-0.666-2.971-1.299-5.772-2.322-7.309h-8.268v10.648L29.336,39.796z M26.321,29.383c0.441-0.209,0.918-0.245,1.357-0.137v0
		c0.006,0.001,0.01,0.003,0.016,0.004l1.07,0.249L28.08,28.64c-0.002-0.004-0.007-0.008-0.01-0.013v0
		c-0.285-0.35-0.457-0.798-0.457-1.284c0-1.123,0.91-2.033,2.034-2.033c1.124,0,2.034,0.911,2.034,2.033
		c0,0.487-0.172,0.934-0.457,1.284l-0.001,0c-0.003,0.004-0.006,0.008-0.009,0.013l-0.684,0.859l1.07-0.249
		c0.005-0.001,0.01-0.003,0.016-0.004l0.001,0c0.437-0.108,0.915-0.072,1.355,0.137c1.015,0.482,1.448,1.694,0.966,2.709
		c-0.48,1.015-1.694,1.448-2.709,0.966c-0.44-0.209-0.77-0.555-0.964-0.964c-0.002-0.005-0.006-0.01-0.007-0.015l-0.421-0.857v0.965
		c0,0.914,0.449,2.845,1.517,3.259h-3.414c1.07-0.414,1.518-2.345,1.518-3.259v-0.965l-0.421,0.857
		c-0.002,0.005-0.005,0.009-0.007,0.015h-0.001c-0.193,0.408-0.522,0.755-0.964,0.964c-1.015,0.481-2.228,0.049-2.708-0.966
		C24.874,31.077,25.307,29.865,26.321,29.383z"/>
	<path class="st0" d="M49.938,30.745c-0.074,0.25-0.149,0.499-0.214,0.754c-0.086,0.34-0.164,0.689-0.234,1.045
		c0.558,0.534,1.108,1.229,1.722,2.187c0.621,0.968,1.833,4.184,1.025,6.988c0.807,0.291,1.564,0.676,2.278,1.127V31.201H52.54
		c-0.09,0-0.171-0.056-0.202-0.141c-0.031-0.085-0.006-0.18,0.063-0.238l6.607-5.609v-0.508h-5.559
		C51.85,26.226,50.677,28.256,49.938,30.745z"/>
	<path class="st0" d="M33.981,73.738c0.071-0.24,0.144-0.479,0.207-0.725c0.087-0.343,0.165-0.694,0.236-1.053
		c-0.556-0.534-1.107-1.229-1.722-2.188c-0.621-0.968-1.833-4.184-1.025-6.988c-0.808-0.291-1.564-0.676-2.278-1.128v11.646h1.976
		c0.09,0,0.171,0.056,0.202,0.141c0.031,0.085,0.006,0.18-0.063,0.238l-6.607,5.609v0.508h5.558
		C32.067,78.272,33.242,76.236,33.981,73.738z"/>
	<path class="st0" d="M63.597,17.97H20.356c-1.563,0-2.836,1.272-2.836,2.836v62.82c0,1.564,1.272,2.836,2.836,2.836h43.241
		c1.563,0,2.836-1.272,2.836-2.836v-62.82C66.433,19.242,65.161,17.97,63.597,17.97z M20.019,27.197
		c0.156,0,0.285,0.073,0.333,0.191c0.034,0.082,0.034,0.082,0.047,0.4c0.014,0.4,0.136,0.627,0.339,0.627
		c0.278,0,0.374-0.364,0.374-1.427v-4.09c0-0.827-0.061-0.918-0.645-0.945v-0.236h2.152v0.236c-0.564,0.027-0.618,0.118-0.618,0.945
		v2.909c0,0.191,0,0.4,0.007,0.736c0.007,0.127,0.007,0.227,0.007,0.309c0,0.564-0.102,0.973-0.306,1.273
		c-0.245,0.345-0.625,0.536-1.093,0.536c-0.679,0-1.154-0.373-1.154-0.9C19.463,27.433,19.694,27.197,20.019,27.197z M23.263,33.898
		c-0.253,0.536-0.894,0.764-1.43,0.51c-0.232-0.11-0.406-0.293-0.509-0.509h-0.001c0-0.003-0.002-0.005-0.002-0.008l-0.222-0.452
		v0.51c0,0.482,0.237,1.502,0.802,1.72h-1.802c0.564-0.218,0.801-1.238,0.801-1.72v-0.51l-0.222,0.452
		c-0.001,0.002-0.002,0.005-0.003,0.008c-0.102,0.216-0.276,0.399-0.51,0.509c-0.536,0.254-1.176,0.025-1.429-0.51
		c-0.254-0.536-0.027-1.177,0.51-1.43c0.233-0.11,0.485-0.129,0.715-0.072h0.001c0.002,0.001,0.006,0.001,0.008,0.001l0.565,0.132
		l-0.36-0.454c-0.002-0.002-0.005-0.004-0.006-0.006l-0.001,0c-0.151-0.186-0.241-0.421-0.241-0.678
		c0-0.593,0.481-1.074,1.073-1.074c0.593,0,1.074,0.481,1.074,1.074c0,0.257-0.091,0.492-0.242,0.678l-0.001,0
		c-0.001,0.002-0.002,0.004-0.003,0.006l-0.362,0.454l0.563-0.132c0.002-0.001,0.006-0.001,0.008-0.001h0.001
		c0.232-0.057,0.484-0.038,0.716,0.072C23.289,32.721,23.517,33.362,23.263,33.898z M59.438,25.312v5.673v17.854v1.031v3.658v1.397
		v0.733v0.006v13.397v10.952c0,0.119-0.096,0.215-0.215,0.215h-8.604H30.554H24.69c-0.119,0-0.215-0.096-0.215-0.215v-0.822v-5.674
		V55.664v-1.032v-3.657v-1.397v-0.733v-0.005V35.442V24.49c0-0.119,0.096-0.215,0.215-0.215h8.604h20.063h5.865
		c0.119,0,0.215,0.096,0.215,0.215V25.312z M63.933,77.234c-0.156,0-0.285-0.073-0.333-0.191c-0.034-0.082-0.034-0.082-0.047-0.4
		c-0.014-0.4-0.136-0.627-0.339-0.627c-0.278,0-0.374,0.364-0.374,1.427v4.09c0,0.827,0.061,0.918,0.645,0.945v0.236h-2.152v-0.236
		c0.563-0.027,0.618-0.118,0.618-0.945v-2.909c0-0.191,0-0.4-0.007-0.736c-0.007-0.127-0.007-0.227-0.007-0.309
		c0-0.564,0.102-0.973,0.306-1.273c0.245-0.345,0.625-0.536,1.093-0.536c0.679,0,1.154,0.372,1.154,0.9
		C64.489,76.998,64.258,77.234,63.933,77.234z M64.711,71.964c-0.234,0.11-0.486,0.129-0.718,0.072
		c-0.002-0.001-0.006-0.001-0.008-0.001l-0.565-0.132l0.36,0.454c0.002,0.002,0.005,0.004,0.006,0.006v0
		c0.152,0.186,0.242,0.421,0.242,0.678c0,0.593-0.48,1.074-1.074,1.074c-0.592,0-1.073-0.481-1.073-1.074
		c0-0.257,0.091-0.493,0.242-0.678v0c0.002-0.002,0.003-0.004,0.005-0.006l0.362-0.454l-0.565,0.132c-0.002,0-0.006,0-0.008,0.001
		h-0.001c-0.232,0.057-0.484,0.038-0.715-0.072c-0.536-0.254-0.764-0.894-0.51-1.43c0.253-0.536,0.894-0.764,1.43-0.51
		c0.232,0.11,0.407,0.293,0.509,0.509c0.001,0.003,0.002,0.006,0.003,0.008l0.222,0.453v-0.51c0-0.482-0.237-1.501-0.801-1.72h1.801
		c-0.563,0.219-0.801,1.239-0.801,1.72v0.51l0.222-0.453c0.001-0.002,0.003-0.005,0.003-0.008c0.103-0.215,0.277-0.399,0.51-0.509
		c0.536-0.254,1.176-0.026,1.43,0.51C65.476,71.069,65.246,71.71,64.711,71.964z"/>
	<path d="M63.597,17.54H20.356c-1.801,0-3.266,1.465-3.266,3.266v62.82c0,1.801,1.465,3.266,3.266,3.266h43.241
		c1.801,0,3.266-1.465,3.266-3.266v-62.82C66.863,19.005,65.398,17.54,63.597,17.54z M66.433,83.626
		c0,1.564-1.272,2.836-2.836,2.836H20.356c-1.563,0-2.836-1.272-2.836-2.836v-62.82c0-1.563,1.272-2.836,2.836-2.836h43.241
		c1.563,0,2.836,1.272,2.836,2.836V83.626z"/>
	<path d="M28.064,33.058c0.441-0.209,0.771-0.555,0.964-0.964h0.001c0.002-0.005,0.005-0.01,0.007-0.015l0.421-0.857v0.965
		c0,0.914-0.448,2.845-1.518,3.259h3.414c-1.068-0.414-1.517-2.345-1.517-3.259v-0.965l0.421,0.857
		c0.001,0.005,0.005,0.009,0.007,0.015c0.194,0.408,0.524,0.755,0.964,0.964c1.015,0.481,2.229,0.049,2.709-0.966
		c0.481-1.015,0.049-2.227-0.966-2.709c-0.44-0.209-0.918-0.245-1.355-0.137l-0.001,0c-0.006,0.001-0.011,0.003-0.016,0.004
		l-1.07,0.249l0.684-0.859c0.003-0.004,0.006-0.008,0.009-0.013l0.001,0c0.285-0.35,0.457-0.798,0.457-1.284
		c0-1.123-0.91-2.033-2.034-2.033c-1.124,0-2.034,0.911-2.034,2.033c0,0.487,0.172,0.934,0.457,1.284v0
		c0.003,0.004,0.008,0.008,0.01,0.013l0.684,0.859l-1.07-0.249c-0.006-0.001-0.01-0.003-0.016-0.004v0
		c-0.439-0.108-0.916-0.072-1.357,0.137c-1.014,0.482-1.447,1.694-0.965,2.709C25.836,33.107,27.049,33.539,28.064,33.058z"/>
	<path d="M55.888,71.373c-0.44,0.209-0.771,0.556-0.964,0.964h-0.001c-0.001,0.005-0.005,0.01-0.007,0.015l-0.42,0.856v-0.965
		c0-0.914,0.448-2.845,1.518-3.259H52.6c1.069,0.414,1.517,2.345,1.517,3.259v0.965l-0.42-0.856
		c-0.001-0.005-0.005-0.009-0.007-0.015c-0.194-0.408-0.524-0.755-0.964-0.964c-1.015-0.481-2.229-0.048-2.709,0.966
		c-0.481,1.015-0.05,2.227,0.965,2.709c0.44,0.209,0.918,0.245,1.356,0.137l0.001,0c0.006-0.001,0.011-0.002,0.016-0.004
		l1.069-0.249l-0.683,0.86c-0.003,0.004-0.007,0.008-0.009,0.012l-0.002,0.001c-0.285,0.35-0.456,0.797-0.456,1.284
		c0,1.123,0.91,2.034,2.034,2.034s2.034-0.911,2.034-2.034c0-0.487-0.172-0.934-0.457-1.284l-0.001-0.001
		c-0.003-0.004-0.007-0.008-0.009-0.012l-0.684-0.86l1.07,0.249c0.005,0.001,0.01,0.002,0.015,0.004l0.001,0
		c0.439,0.108,0.916,0.072,1.356-0.137c1.015-0.482,1.448-1.694,0.966-2.709C58.116,71.325,56.903,70.892,55.888,71.373z"/>
	<path d="M22.753,32.468c-0.233-0.11-0.485-0.129-0.716-0.072h-0.001c-0.002,0.001-0.006,0.001-0.008,0.001l-0.563,0.132
		l0.362-0.454c0.001-0.002,0.002-0.004,0.003-0.006l0.001,0c0.151-0.186,0.242-0.421,0.242-0.678c0-0.593-0.481-1.074-1.074-1.074
		c-0.592,0-1.073,0.481-1.073,1.074c0,0.257,0.09,0.492,0.241,0.678l0.001,0c0.001,0.002,0.003,0.004,0.006,0.006l0.36,0.454
		l-0.565-0.132c-0.002-0.001-0.006-0.001-0.008-0.001h-0.001c-0.23-0.057-0.482-0.038-0.715,0.072
		c-0.537,0.253-0.764,0.894-0.51,1.43c0.253,0.536,0.893,0.764,1.429,0.51c0.234-0.11,0.408-0.293,0.51-0.509
		c0.001-0.003,0.002-0.005,0.003-0.008l0.222-0.452v0.51c0,0.482-0.237,1.502-0.801,1.72H21.9c-0.565-0.218-0.802-1.238-0.802-1.72
		v-0.51l0.222,0.452c0,0.002,0.002,0.005,0.002,0.008h0.001c0.103,0.216,0.277,0.399,0.509,0.509c0.536,0.254,1.177,0.025,1.43-0.51
		C23.517,33.362,23.289,32.721,22.753,32.468z"/>
	<path class="st5" d="M20.617,28.661c0.468,0,0.849-0.191,1.093-0.536c0.204-0.3,0.306-0.709,0.306-1.273
		c0-0.082,0-0.182-0.007-0.309c-0.007-0.336-0.007-0.546-0.007-0.736v-2.909c0-0.827,0.054-0.918,0.618-0.945v-0.236h-2.152v0.236
		c0.584,0.027,0.645,0.118,0.645,0.945v4.09c0,1.064-0.095,1.427-0.374,1.427c-0.204,0-0.326-0.227-0.339-0.627
		c-0.014-0.318-0.014-0.318-0.047-0.4c-0.048-0.118-0.177-0.191-0.333-0.191c-0.326,0-0.557,0.236-0.557,0.564
		C19.463,28.288,19.938,28.661,20.617,28.661z"/>
	<path d="M63.791,70.023c-0.233,0.11-0.407,0.293-0.51,0.509c0,0.003-0.002,0.006-0.003,0.008l-0.222,0.453v-0.51
		c0-0.482,0.237-1.501,0.801-1.72h-1.801c0.564,0.219,0.801,1.239,0.801,1.72v0.51l-0.222-0.453
		c-0.001-0.002-0.002-0.005-0.003-0.008c-0.102-0.215-0.277-0.399-0.509-0.509c-0.536-0.254-1.177-0.026-1.43,0.51
		c-0.254,0.536-0.026,1.177,0.51,1.43c0.232,0.11,0.484,0.129,0.715,0.072h0.001c0.002-0.001,0.006-0.001,0.008-0.001l0.565-0.132
		l-0.362,0.454c-0.001,0.002-0.002,0.004-0.005,0.006v0c-0.151,0.186-0.242,0.421-0.242,0.678c0,0.593,0.481,1.074,1.073,1.074
		c0.594,0,1.074-0.481,1.074-1.074c0-0.257-0.09-0.493-0.242-0.678v0c-0.001-0.002-0.003-0.004-0.006-0.006l-0.36-0.454l0.565,0.132
		c0.002,0,0.006,0,0.008,0.001c0.232,0.057,0.484,0.038,0.718-0.072c0.535-0.254,0.764-0.894,0.51-1.43
		C64.967,69.997,64.327,69.769,63.791,70.023z"/>
	<path class="st5" d="M63.335,75.771c-0.468,0-0.849,0.191-1.093,0.536c-0.204,0.3-0.306,0.709-0.306,1.273
		c0,0.082,0,0.182,0.007,0.309c0.007,0.336,0.007,0.546,0.007,0.736v2.909c0,0.827-0.054,0.918-0.618,0.945v0.236h2.152v-0.236
		c-0.584-0.027-0.645-0.118-0.645-0.945v-4.09c0-1.063,0.095-1.427,0.374-1.427c0.204,0,0.326,0.227,0.339,0.627
		c0.014,0.318,0.014,0.318,0.047,0.4c0.048,0.118,0.177,0.191,0.333,0.191c0.326,0,0.557-0.236,0.557-0.564
		C64.489,76.144,64.014,75.771,63.335,75.771z"/>
	<path class="st1" d="M32.053,61.795c0.949-1.9,2.874-2.972,5.718-3.186c1.11-1.685,1.573-3.339,1.752-4.224h-1.851
		c-0.31,1.142-1.472,4.117-5.436,6.063c-0.029,0.015-0.062,0.022-0.095,0.022h-2.744v0.692c0.747,0.5,1.551,0.909,2.404,1.217
		C31.875,62.182,31.958,61.987,32.053,61.795z"/>
	<path class="st1" d="M37.663,50.117h1.861c-0.341-1.685-1.696-6.157-6.638-8.328c-1.134,0.283-2.19,0.745-3.165,1.352
		C34.553,44.528,36.977,47.58,37.663,50.117z"/>
	<path class="st1" d="M32.905,55.732l-1.025-0.275c-0.059,0.225-0.135,0.439-0.232,0.64c-0.003,0.013,0.004,0.026-0.002,0.039
		c-0.024,0.049-0.061,0.085-0.087,0.133c-0.086,0.157-0.183,0.305-0.291,0.445c-0.067,0.087-0.133,0.174-0.207,0.253
		c-0.101,0.107-0.216,0.199-0.331,0.292c-0.133,0.107-0.269,0.206-0.419,0.292c-0.166,0.096-0.335,0.186-0.52,0.256
		c-0.101,0.037-0.211,0.06-0.318,0.089c-0.025,0.007-0.05,0.015-0.075,0.021v0.283C30.91,57.58,32.105,56.737,32.905,55.732z"/>
	<path class="st1" d="M54.514,54.58v-0.082c-0.086-0.052-0.173-0.103-0.255-0.157C54.344,54.42,54.434,54.498,54.514,54.58z"/>
	<path class="st1" d="M34.057,52.446c-1.28-0.312-2.358-0.793-3.247-1.377c0.994,0.945,1.611,2.076,1.76,3.317l1.009,0.271
		c0.314-0.662,0.482-1.372,0.482-2.119C34.062,52.507,34.058,52.476,34.057,52.446z"/>
	<path class="st1" d="M29.398,49.921v0.083c0.087,0.052,0.174,0.104,0.258,0.159C29.57,50.083,29.479,50.004,29.398,49.921z"/>
	<path class="st1" d="M51.009,48.77l1.025,0.275c0.059-0.224,0.135-0.436,0.23-0.637c0.004-0.014-0.004-0.028,0.003-0.041
		c0.025-0.052,0.064-0.09,0.091-0.139c0.085-0.154,0.18-0.299,0.286-0.436c0.068-0.089,0.135-0.177,0.211-0.257
		c0.1-0.106,0.214-0.197,0.328-0.289c0.134-0.108,0.272-0.209,0.424-0.295c0.165-0.095,0.334-0.185,0.517-0.254
		c0.101-0.037,0.211-0.06,0.318-0.089c0.025-0.007,0.049-0.014,0.074-0.021v-0.283C53.003,46.923,51.809,47.765,51.009,48.77z"/>
	<path class="st1" d="M51.86,42.707c-0.949,1.899-2.873,2.971-5.716,3.186c-1.109,1.685-1.574,3.339-1.753,4.223h1.851
		c0.31-1.143,1.473-4.116,5.437-6.063c0.029-0.015,0.062-0.022,0.095-0.022h2.741V43.34c-0.747-0.5-1.55-0.908-2.404-1.217
		C52.038,42.321,51.956,42.516,51.86,42.707z"/>
	<path class="st1" d="M46.251,54.385h-1.86c0.34,1.685,1.693,6.158,6.638,8.328c1.134-0.284,2.19-0.745,3.164-1.351
		C49.36,59.974,46.936,56.922,46.251,54.385z"/>
	<path class="st1" d="M49.856,52.057c1.279,0.312,2.357,0.792,3.246,1.377c-0.993-0.944-1.609-2.075-1.758-3.315l-1.01-0.272
		c-0.314,0.662-0.482,1.372-0.482,2.118C49.851,51.995,49.855,52.026,49.856,52.057z"/>
	<path class="st2" d="M51.902,50.268l-0.105-0.028c0.033,0.207,0.095,0.408,0.157,0.608C51.921,50.662,51.91,50.466,51.902,50.268z"
		/>
	<path class="st2" d="M54.514,53.596c-0.381-0.099-0.74-0.237-1.051-0.436c0.312,0.292,0.664,0.562,1.051,0.813V53.596z"/>
	<path class="st2" d="M51.987,50.975c0.02,0.058,0.029,0.119,0.051,0.177C52.022,51.092,52,51.036,51.987,50.975z"/>
	<path class="st3" d="M50.224,53.877c0.094,0.245,0.204,0.49,0.335,0.732c1.82,0.744,2.908,2.002,3.387,3.193
		c0.183,0.097,0.372,0.189,0.568,0.278v-0.663c-0.115,0.03-0.241,0.05-0.39,0.04c0.176-0.029,0.316-0.159,0.39-0.316V56.68
		c0-0.001,0-0.002-0.001-0.002c-0.112-0.178-0.413-0.314-0.81-0.142c0.222-0.429,0.535-0.538,0.81-0.48v-0.851
		c-1-1.145-2.524-2.163-4.632-2.701c0.008,0.072,0.023,0.144,0.034,0.216C50.277,52.851,50.517,53.306,50.224,53.877z M53.74,54.672
		c0.37,0.319,0.313,1.033-0.485,1.275c0.307-0.177,0.343-0.673,0.092-0.866c-0.167-0.128-0.496-0.15-0.809,0.15
		C52.643,54.377,53.371,54.354,53.74,54.672z M51.841,53.45c0.461,0.16,0.67,0.845,0.018,1.364c0.22-0.278,0.072-0.752-0.233-0.84
		c-0.202-0.057-0.518,0.044-0.696,0.437C50.712,53.578,51.38,53.289,51.841,53.45z"/>
	<path class="st3" d="M50.073,53.436c0.037,0.124,0.081,0.249,0.127,0.373C50.202,53.672,50.16,53.54,50.073,53.436z"/>
	<path class="st0" d="M53.348,55.081c0.251,0.193,0.214,0.689-0.092,0.866c0.797-0.242,0.854-0.956,0.485-1.275
		c-0.37-0.318-1.097-0.295-1.201,0.56C52.852,54.931,53.181,54.953,53.348,55.081z"/>
	<path class="st0" d="M54.125,57.457c0.149,0.009,0.275-0.01,0.39-0.04v-0.275C54.44,57.297,54.301,57.428,54.125,57.457z"/>
	<path class="st0" d="M53.704,56.536c0.397-0.172,0.698-0.036,0.81,0.142c0,0.001,0,0.002,0.001,0.002v-0.625
		C54.239,55.999,53.926,56.107,53.704,56.536z"/>
	<path class="st0" d="M51.627,53.974c0.305,0.087,0.453,0.562,0.233,0.84c0.651-0.519,0.443-1.204-0.018-1.364
		c-0.461-0.161-1.129,0.128-0.91,0.961C51.109,54.018,51.425,53.917,51.627,53.974z"/>
	<path class="st0" d="M49.916,52.72c0.036,0.237,0.086,0.476,0.157,0.716c0.087,0.104,0.129,0.236,0.127,0.373
		c0.008,0.023,0.016,0.045,0.024,0.068C50.517,53.306,50.277,52.851,49.916,52.72z"/>
	<path class="st3" d="M51.069,55.399c0.529,0.713,1.23,1.385,2.125,1.964C52.761,56.642,52.058,55.939,51.069,55.399z"/>
	<path class="st0" d="M50.56,54.609c0.146,0.268,0.318,0.531,0.51,0.791c0.989,0.54,1.692,1.243,2.125,1.964
		c0.237,0.153,0.489,0.299,0.752,0.438C53.468,56.611,52.38,55.353,50.56,54.609z"/>
	<path class="st3" d="M33.688,50.624c-0.094-0.245-0.204-0.489-0.335-0.731c-1.82-0.745-2.907-2.002-3.387-3.193
		c-0.183-0.097-0.373-0.189-0.569-0.279v0.664c0.115-0.031,0.241-0.05,0.391-0.041c-0.177,0.03-0.317,0.161-0.391,0.318v0.455
		c0.001,0.002,0,0.004,0.002,0.006c0.112,0.177,0.413,0.314,0.81,0.141c-0.222,0.429-0.536,0.538-0.811,0.48v0.85
		c1,1.146,2.524,2.164,4.633,2.702c-0.008-0.072-0.023-0.144-0.034-0.217C33.636,51.651,33.396,51.196,33.688,50.624z M30.173,49.83
		c-0.371-0.319-0.313-1.032,0.485-1.275c-0.307,0.177-0.343,0.673-0.092,0.866c0.167,0.128,0.496,0.15,0.809-0.151
		C31.27,50.125,30.542,50.149,30.173,49.83z M32.071,51.052c-0.46-0.16-0.67-0.845-0.018-1.364
		c-0.219,0.278-0.071,0.753,0.234,0.839c0.202,0.057,0.517-0.043,0.696-0.437C33.2,50.924,32.533,51.213,32.071,51.052z"/>
	<path class="st3" d="M33.841,51.067c-0.037-0.126-0.082-0.252-0.129-0.377C33.71,50.828,33.752,50.962,33.841,51.067z"/>
	<path class="st0" d="M30.565,49.421c-0.251-0.193-0.214-0.69,0.092-0.866c-0.797,0.243-0.856,0.956-0.485,1.275
		c0.368,0.319,1.097,0.295,1.201-0.559C31.062,49.571,30.732,49.549,30.565,49.421z"/>
	<path class="st0" d="M29.789,47.045c-0.149-0.009-0.275,0.01-0.391,0.041v0.277C29.472,47.206,29.611,47.075,29.789,47.045z"/>
	<path class="st0" d="M30.21,47.966c-0.397,0.172-0.698,0.036-0.81-0.141c-0.001-0.002,0-0.004-0.002-0.006v0.627
		C29.673,48.504,29.987,48.395,30.21,47.966z"/>
	<path class="st0" d="M32.287,50.528c-0.305-0.087-0.453-0.561-0.234-0.839c-0.651,0.519-0.441,1.204,0.018,1.364
		c0.462,0.161,1.129-0.128,0.911-0.961C32.803,50.484,32.489,50.585,32.287,50.528z"/>
	<path class="st0" d="M33.997,51.782c-0.036-0.237-0.086-0.476-0.156-0.715c-0.089-0.105-0.131-0.239-0.129-0.377
		c-0.008-0.022-0.016-0.044-0.024-0.066C33.396,51.196,33.636,51.651,33.997,51.782z"/>
	<path class="st3" d="M32.844,49.103c-0.529-0.713-1.23-1.385-2.125-1.964C31.152,47.86,31.855,48.562,32.844,49.103z"/>
	<path class="st0" d="M33.354,49.893c-0.146-0.268-0.318-0.531-0.51-0.791c-0.989-0.54-1.692-1.243-2.125-1.964
		c-0.237-0.153-0.489-0.299-0.752-0.438C30.446,47.891,31.534,49.149,33.354,49.893z"/>
	<path class="st2" d="M32.237,60.449c3.964-1.947,5.126-4.922,5.436-6.063h1.851c-0.179,0.885-0.642,2.538-1.752,4.224
		c0.005,0,0.01-0.001,0.015-0.002c0.176-0.013,0.338-0.01,0.511-0.019c1.144-1.839,1.561-3.598,1.697-4.381
		c0.011-0.063-0.007-0.126-0.048-0.175c-0.04-0.048-0.101-0.076-0.164-0.076h-2.15c-0.027-0.018-0.06-0.03-0.094-0.034
		c-0.11-0.01-0.209,0.059-0.234,0.166c-0.206,0.895-1.192,3.961-5.211,5.954h-2.694v0.43h2.744
		C32.175,60.471,32.208,60.463,32.237,60.449z"/>
	<path class="st2" d="M44.39,54.385h1.86c0.686,2.537,3.109,5.589,7.942,6.977c0.106-0.066,0.218-0.123,0.322-0.193v-0.161
		c-4.943-1.35-7.327-4.46-7.903-6.954c-0.025-0.106-0.118-0.144-0.234-0.132c-0.029,0.003-0.057,0.015-0.081,0.033h-2.164
		c-0.063,0-0.124,0.028-0.164,0.076c-0.041,0.049-0.059,0.113-0.048,0.175c0.199,1.146,0.994,4.385,3.807,6.902
		c0.023,0.023,0.049,0.043,0.071,0.066c0.497,0.437,1.063,0.846,1.69,1.222c0.086,0.022,0.169,0.04,0.256,0.065
		c0.295,0.086,0.575,0.186,0.846,0.292l0.302,0c0.046-0.011,0.089-0.029,0.135-0.041C46.084,60.543,44.731,56.07,44.39,54.385z"/>
	<path class="st2" d="M39.524,50.117h-1.861c-0.686-2.537-3.109-5.589-7.942-6.976c-0.107,0.066-0.219,0.123-0.323,0.193v0.16
		c4.944,1.35,7.328,4.46,7.904,6.954c0.026,0.107,0.124,0.145,0.234,0.131c0.029-0.003,0.058-0.016,0.082-0.033h2.164
		c0.063,0,0.124-0.028,0.164-0.077c0.041-0.048,0.059-0.112,0.048-0.175c-0.236-1.358-1.313-5.645-5.582-8.196
		c-0.082-0.022-0.161-0.034-0.245-0.058c-0.295-0.086-0.575-0.186-0.847-0.292l-0.302,0c-0.046,0.011-0.089,0.029-0.134,0.041
		C37.828,43.959,39.183,48.431,39.524,50.117z"/>
	<path class="st2" d="M51.678,44.054c-3.964,1.947-5.127,4.92-5.437,6.063h-1.851c0.179-0.885,0.643-2.538,1.753-4.223
		c-0.006,0-0.012,0.002-0.019,0.002c-0.175,0.013-0.336,0.01-0.509,0.019c-1.144,1.838-1.561,3.597-1.698,4.38
		c-0.011,0.063,0.007,0.127,0.047,0.175c0.041,0.049,0.102,0.077,0.165,0.077h2.149c0.027,0.019,0.06,0.031,0.095,0.035
		c0.106,0.004,0.209-0.059,0.234-0.166c0.206-0.895,1.192-3.96,5.213-5.954h2.691v-0.43h-2.741
		C51.74,44.032,51.708,44.039,51.678,44.054z"/>
	<path class="st2" d="M33.357,55.853l-0.452-0.122c-0.8,1.005-1.995,1.848-3.507,2.468v0.465
		C31.131,57.982,32.484,57.018,33.357,55.853z"/>
	<path class="st2" d="M49.422,51.965c0,2.351,1.601,5.059,5.093,6.581V58.08c-0.196-0.089-0.385-0.182-0.568-0.278
		c-0.264-0.139-0.515-0.285-0.752-0.438c-0.895-0.579-1.596-1.251-2.125-1.964c-0.192-0.259-0.364-0.523-0.51-0.791
		c-0.131-0.242-0.241-0.486-0.335-0.732c-0.009-0.023-0.016-0.045-0.024-0.068c-0.046-0.124-0.091-0.249-0.127-0.373
		c-0.071-0.24-0.12-0.479-0.157-0.716c-0.011-0.072-0.026-0.145-0.034-0.216c-0.016-0.15-0.024-0.299-0.026-0.447
		c-0.001-0.031-0.005-0.062-0.005-0.092c0-0.747,0.168-1.457,0.482-2.118c0.178-0.375,0.404-0.735,0.676-1.076
		c0.8-1.005,1.995-1.847,3.505-2.467v-0.465C51.321,47.097,49.422,49.317,49.422,51.965z"/>
	<path class="st2" d="M34.492,52.537c0-2.352-1.601-5.059-5.094-6.581v0.465c0.196,0.089,0.386,0.182,0.569,0.279
		c0.264,0.139,0.515,0.285,0.752,0.438c0.895,0.578,1.596,1.251,2.125,1.964c0.192,0.259,0.364,0.523,0.51,0.791
		c0.131,0.242,0.241,0.486,0.335,0.731c0.008,0.022,0.016,0.044,0.024,0.066c0.047,0.126,0.092,0.252,0.129,0.377
		c0.07,0.239,0.12,0.478,0.156,0.715c0.011,0.072,0.026,0.145,0.034,0.217c0.016,0.15,0.023,0.299,0.026,0.447
		c0.001,0.03,0.005,0.061,0.005,0.092c0,0.747-0.168,1.457-0.482,2.119l0.424,0.114C34.323,54.073,34.492,53.324,34.492,52.537z"/>
	<path class="st2" d="M31.936,53.562c-0.024-0.071-0.035-0.145-0.062-0.216C31.894,53.419,31.921,53.487,31.936,53.562z"/>
	<path class="st2" d="M32.011,54.235l0.106,0.029c-0.034-0.209-0.096-0.412-0.159-0.614C31.993,53.836,32.003,54.035,32.011,54.235z
		"/>
	<path class="st2" d="M29.398,50.907c0.383,0.099,0.742,0.238,1.054,0.438c-0.313-0.292-0.666-0.564-1.054-0.816V50.907z"/>
	<path class="st2" d="M40.416,49.688c0.869,0.397,1.346-0.186,1.346-0.729c0-0.544-0.814-1.615-1.775-1.294
		C40.711,47.974,40.831,49.033,40.416,49.688z"/>
	<path class="st2" d="M43.926,47.665c-0.962-0.321-1.776,0.75-1.776,1.294c0,0.544,0.478,1.127,1.346,0.729
		C43.082,49.033,43.202,47.974,43.926,47.665z"/>
	<path class="st0" d="M36.909,52.286c0-0.481-0.39-0.871-0.872-0.871c-0.48,0-0.87,0.39-0.87,0.871s0.39,0.871,0.87,0.871
		C36.519,53.157,36.909,52.767,36.909,52.286z"/>
	<path class="st0" d="M36.423,49.83c0-0.481-0.389-0.871-0.87-0.871c-0.481,0-0.87,0.39-0.87,0.871c0,0.481,0.389,0.871,0.87,0.871
		C36.034,50.701,36.423,50.311,36.423,49.83z"/>
	<path class="st0" d="M34.068,46.794c-0.481,0-0.872,0.39-0.872,0.871c0,0.481,0.39,0.871,0.872,0.871c0.48,0,0.87-0.39,0.87-0.871
		C34.939,47.184,34.549,46.794,34.068,46.794z"/>
	<path class="st0" d="M32.059,45.011c-0.481,0-0.871,0.39-0.871,0.871c0,0.481,0.39,0.871,0.871,0.871c0.48,0,0.87-0.39,0.87-0.871
		C32.929,45.401,32.539,45.011,32.059,45.011z"/>
	<path class="st0" d="M29.667,43.847c-0.095,0-0.183,0.026-0.268,0.054v1.633c0.086,0.028,0.173,0.054,0.268,0.054
		c0.481,0,0.87-0.39,0.87-0.871C30.537,44.237,30.148,43.847,29.667,43.847z"/>
	<path class="st0" d="M48.974,38.313c0.797-0.155,1.579-0.774,1.597-1.82c-1.035-0.367-2.823-0.391-3.771,0.662
		C47.238,38.233,48.228,38.458,48.974,38.313z M48.286,36.662c0.322,0,0.585,0.262,0.585,0.584s-0.263,0.584-0.585,0.584
		c-0.321,0-0.583-0.262-0.583-0.584S47.964,36.662,48.286,36.662z"/>
	<path class="st0" d="M42.919,38.262c0.857,0.081,1.883-0.192,2.23-1.198c-1.272-1.097-3.402-1.068-4.593-0.685
		C40.736,37.484,41.856,38.159,42.919,38.262z M42.306,36.662c0.322,0,0.584,0.262,0.584,0.584s-0.262,0.584-0.584,0.584
		c-0.323,0-0.586-0.262-0.586-0.584S41.983,36.662,42.306,36.662z"/>
	<path class="st0" d="M42.306,37.401c0.085,0,0.154-0.069,0.154-0.155c0-0.085-0.069-0.154-0.154-0.154
		c-0.086,0-0.156,0.069-0.156,0.154C42.15,37.332,42.22,37.401,42.306,37.401z"/>
	<path class="st0" d="M48.286,37.401c0.086,0,0.155-0.069,0.155-0.155c0-0.085-0.069-0.154-0.155-0.154
		c-0.084,0-0.153,0.069-0.153,0.154C48.132,37.332,48.202,37.401,48.286,37.401z"/>
	<path class="st0" d="M50.85,34.964c-0.62-0.966-1.167-1.657-1.721-2.173c-1.394-0.788-5.372-0.984-8.726-0.419
		c0.019,1.374-0.018,2.581-0.104,3.644c1.331-0.479,3.795-0.543,5.243,0.823c0.058,0.054,0.081,0.137,0.06,0.213
		c-0.073,0.264-0.188,0.5-0.339,0.707c0.042-0.032,0.095-0.05,0.157-0.043c0.118,0.014,0.202,0.121,0.188,0.239
		c-0.094,0.783-0.836,1.379-1.5,1.675c-0.028,0.013-0.059,0.019-0.088,0.019c-0.082,0-0.16-0.047-0.196-0.127
		c-0.049-0.109,0-0.236,0.108-0.284c0.557-0.249,1.177-0.729,1.248-1.333c0.007-0.053,0.034-0.097,0.07-0.131
		c-0.436,0.59-1.162,0.932-2.035,0.932c-0.11,0-0.224-0.006-0.339-0.017c-1.113-0.108-2.275-0.776-2.649-1.875
		c-0.235,2.058-0.697,3.437-1.386,4.105c-1.051,1.021-2.013,1.387-2.997,1.393c1.671,2.396,5.288,3.519,10.249,3.153
		c2.691-0.2,4.502-1.193,5.381-2.952C52.764,39.935,51.685,36.266,50.85,34.964z M40.689,34.715
		c1.181-1.799,3.981-1.087,4.637,0.244C44.021,34.003,41.85,34.265,40.689,34.715z M50.622,34.715c-1-0.45-2.87-0.712-3.995,0.244
		C47.192,33.628,49.605,32.916,50.622,34.715z M46.386,36.978c1.113-1.383,3.291-1.32,4.479-0.833
		c0.078,0.032,0.13,0.105,0.134,0.189c0.063,1.378-0.963,2.21-1.942,2.401c-0.157,0.03-0.32,0.046-0.484,0.046
		c-0.638,0-1.298-0.246-1.768-0.801c0.154,0.461,0.564,0.906,1.09,1.154c0.107,0.05,0.153,0.179,0.103,0.286
		c-0.036,0.078-0.114,0.123-0.194,0.123c-0.031,0-0.063-0.006-0.092-0.021c-0.688-0.324-1.21-0.914-1.365-1.54
		c-0.028-0.115,0.042-0.232,0.157-0.26c0.047-0.011,0.088,0.003,0.128,0.019c-0.108-0.166-0.205-0.346-0.279-0.557
		C46.327,37.114,46.34,37.036,46.386,36.978z M42.991,42.841c-0.02,0.005-0.039,0.008-0.058,0.008c-0.094,0-0.181-0.062-0.207-0.157
		c-0.032-0.114,0.035-0.233,0.149-0.265c2.063-0.576,4.798-0.461,5.686,0.018c0.104,0.056,0.144,0.187,0.087,0.291
		c-0.057,0.106-0.187,0.143-0.292,0.087C47.629,42.43,45.055,42.264,42.991,42.841z M44.481,43.832
		c-0.09-0.078-0.1-0.213-0.021-0.303c0.077-0.09,0.214-0.099,0.303-0.021c0.279,0.241,0.799,0.353,1.292,0.274
		c0.337-0.053,0.601-0.189,0.706-0.364c0.063-0.102,0.195-0.132,0.296-0.073c0.102,0.062,0.134,0.193,0.072,0.295
		c-0.175,0.291-0.533,0.492-1.007,0.566c-0.128,0.02-0.257,0.03-0.384,0.03C45.246,44.237,44.778,44.091,44.481,43.832z"/>
	<path class="st2" d="M34.173,37.302c-0.036,0.08-0.111,0.137-0.204,0.127c-0.087-0.003-0.164-0.059-0.194-0.141
		c-0.2-0.55-0.636-0.916-1.194-1.005c-0.089-0.014-0.178-0.021-0.267-0.021c-0.56,0-1.108,0.272-1.481,0.748
		c-0.562,0.716-0.481,1.832,0.194,2.713c0.597,0.778,1.786,1.472,3.263,1.904c1.56,0.459,2.756,0.438,4.254-1.015
		c0.697-0.676,1.504-2.647,1.433-8.166c-1.524,0.292-2.885,0.747-3.761,1.387c-0.002,0.002-0.006,0.001-0.008,0.003
		c-0.003,0.002-0.004,0.005-0.006,0.007C35.761,34.112,35.079,35.276,34.173,37.302z M32.775,39.616
		c0.098,0.068,0.121,0.202,0.054,0.299c-0.042,0.06-0.109,0.092-0.177,0.092c-0.043,0-0.086-0.012-0.123-0.039
		c-0.534-0.373-0.727-1.044-0.491-1.711c0.217-0.615,0.729-1.007,1.271-0.964c0.118,0.008,0.208,0.111,0.2,0.229
		c-0.008,0.119-0.109,0.213-0.229,0.2c-0.425-0.028-0.712,0.321-0.837,0.679C32.314,38.763,32.325,39.301,32.775,39.616z
		 M36.987,34.083c0.118,0.007,0.208,0.109,0.201,0.228c-0.039,0.616-0.475,1.975-1.067,2.702c-0.043,0.052-0.104,0.079-0.167,0.079
		c-0.048,0-0.096-0.016-0.136-0.048c-0.092-0.075-0.105-0.21-0.031-0.302c0.514-0.629,0.937-1.905,0.972-2.458
		C36.766,34.166,36.839,34.076,36.987,34.083z M35.695,38.052c0.481,0.329,0.77,1.012,0.434,1.505
		c-0.067,0.099-0.201,0.123-0.299,0.057c-0.099-0.067-0.123-0.201-0.057-0.299c0.188-0.276-0.018-0.7-0.32-0.908
		c-0.398-0.271-0.833-0.143-1.167,0.345c-0.216,0.314-0.242,0.661-0.074,0.976c0.225,0.422,0.756,0.693,1.355,0.693
		c0.007,0,0.015,0,0.021,0c0.552-0.006,1.107-0.278,1.563-0.766c0.585-0.626,1.537-2.192,1.336-5.638
		c-0.007-0.119,0.084-0.22,0.202-0.228c0.005,0,0.009,0,0.013,0c0.113,0,0.208,0.088,0.215,0.202
		c0.155,2.672-0.36,4.788-1.451,5.957c-0.537,0.575-1.203,0.896-1.874,0.902c-0.009,0-0.018,0-0.026,0
		c-0.768,0-1.431-0.352-1.734-0.921c-0.243-0.457-0.207-0.975,0.099-1.421C34.505,37.671,35.242,37.741,35.695,38.052z"/>
	<path class="st1" d="M36.047,30.932c0.047-0.025,0.088-0.053,0.137-0.078l-1.101-4.424l2.193,3.962
		c0.055-0.02,0.112-0.04,0.169-0.059l-0.693-4.464l1.82,4.125c0.06-0.015,0.116-0.033,0.176-0.048l-0.316-4.483l1.462,4.24
		c0.06-0.011,0.123-0.019,0.184-0.029l-0.028-4.468l1.182,4.3c0.059-0.007,0.117-0.013,0.176-0.02l0.146-4.442l1.01,4.335
		c0.073-0.005,0.145-0.011,0.218-0.016l0.546-4.391l0.603,4.342c0.073-0.001,0.148-0.006,0.22-0.007l0.851-4.277l0.28,4.288
		c0.071,0.002,0.138,0.007,0.208,0.01l1.106-4.231l0.026,4.305c0.054,0.005,0.107,0.01,0.16,0.015l1.468-4.283l-0.304,4.435
		c0.06,0.01,0.113,0.023,0.171,0.034l1.857-4.12l-0.72,4.411c0.044,0.015,0.096,0.027,0.138,0.043l2.2-3.941l-0.086,0.34
		c0.402-0.589,0.843-1.135,1.326-1.632H33.689c0.768,1.285,1.294,3.189,1.813,5.405L36.047,30.932z"/>
	<path class="st3" d="M49.564,30.472c-2.45-1.172-10.511-1.021-13.731,1.078c0.128,0.575,0.26,1.161,0.396,1.754
		c2.899-1.835,9.516-2.079,12.356-1.201c0.189,0.059,0.362,0.122,0.515,0.19C49.226,31.676,49.382,31.065,49.564,30.472z"/>
	<path d="M46.631,37.742c-0.04-0.016-0.081-0.03-0.128-0.019c-0.115,0.028-0.186,0.145-0.157,0.26
		c0.155,0.626,0.678,1.216,1.365,1.54c0.029,0.014,0.061,0.021,0.092,0.021c0.08,0,0.158-0.045,0.194-0.123
		c0.051-0.107,0.005-0.236-0.103-0.286c-0.526-0.248-0.936-0.693-1.09-1.154c0.47,0.556,1.13,0.801,1.768,0.801
		c0.164,0,0.327-0.016,0.484-0.046c0.979-0.19,2.006-1.023,1.942-2.401c-0.004-0.084-0.056-0.158-0.134-0.189
		c-1.188-0.487-3.365-0.55-4.479,0.833c-0.046,0.058-0.06,0.136-0.035,0.206C46.425,37.395,46.523,37.576,46.631,37.742z
		 M50.571,36.493c-0.018,1.045-0.8,1.665-1.597,1.82c-0.746,0.145-1.736-0.081-2.174-1.158
		C47.748,36.102,49.536,36.127,50.571,36.493z"/>
	<path d="M42.306,37.831c0.322,0,0.584-0.262,0.584-0.584s-0.262-0.584-0.584-0.584c-0.323,0-0.586,0.262-0.586,0.584
		S41.983,37.831,42.306,37.831z M42.306,37.092c0.085,0,0.154,0.069,0.154,0.154c0,0.085-0.069,0.155-0.154,0.155
		c-0.086,0-0.156-0.069-0.156-0.155C42.15,37.161,42.22,37.092,42.306,37.092z"/>
	<path d="M48.286,37.831c0.322,0,0.585-0.262,0.585-0.584s-0.263-0.584-0.585-0.584c-0.321,0-0.583,0.262-0.583,0.584
		S47.964,37.831,48.286,37.831z M48.286,37.092c0.086,0,0.155,0.069,0.155,0.154c0,0.085-0.069,0.155-0.155,0.155
		c-0.084,0-0.153-0.069-0.153-0.155C48.132,37.161,48.202,37.092,48.286,37.092z"/>
	<path class="st2" d="M43.496,54.814c-0.868-0.397-1.346,0.186-1.346,0.729s0.814,1.615,1.776,1.294
		C43.202,56.528,43.082,55.469,43.496,54.814z"/>
	<path class="st2" d="M39.987,56.837c0.96,0.321,1.775-0.75,1.775-1.294s-0.477-1.127-1.346-0.729
		C40.831,55.469,40.711,56.528,39.987,56.837z"/>
	<path class="st0" d="M47.005,52.216c0,0.48,0.39,0.87,0.87,0.87c0.481,0,0.871-0.39,0.871-0.87c0-0.481-0.39-0.871-0.871-0.871
		C47.395,51.345,47.005,51.735,47.005,52.216z"/>
	<path class="st0" d="M48.361,55.543c0.481,0,0.87-0.39,0.87-0.871c0-0.481-0.389-0.871-0.87-0.871c-0.481,0-0.87,0.39-0.87,0.871
		C47.491,55.154,47.88,55.543,48.361,55.543z"/>
	<path class="st0" d="M49.845,57.708c0.481,0,0.87-0.39,0.87-0.871c0-0.481-0.389-0.871-0.87-0.871c-0.481,0-0.871,0.39-0.871,0.871
		C48.974,57.318,49.364,57.708,49.845,57.708z"/>
	<path class="st0" d="M51.855,59.491c0.481,0,0.87-0.39,0.87-0.871c0-0.481-0.389-0.871-0.87-0.871c-0.481,0-0.87,0.39-0.87,0.871
		C50.984,59.101,51.373,59.491,51.855,59.491z"/>
	<path class="st0" d="M54.247,60.655c0.095,0,0.182-0.026,0.268-0.054v-1.634c-0.086-0.028-0.173-0.054-0.268-0.054
		c-0.481,0-0.871,0.39-0.871,0.871C53.375,60.265,53.765,60.655,54.247,60.655z"/>
	<path class="st1" d="M44.878,51.622h-1.221c0.032,0.202,0.053,0.41,0.053,0.629c0,0.219-0.022,0.427-0.054,0.63h1.221V51.622z"/>
	<path class="st1" d="M39.035,52.88h1.221c-0.032-0.202-0.054-0.411-0.054-0.63c0-0.219,0.022-0.427,0.054-0.629h-1.221V52.88z"/>
	<path class="st2" d="M41.958,50.045c-0.719,0-1.326,1.01-1.326,2.206s0.607,2.207,1.326,2.207c0.717,0,1.323-1.011,1.323-2.207
		S42.674,50.045,41.958,50.045z M42.939,52.251c0,0.796-0.431,1.42-0.981,1.42s-0.982-0.624-0.982-1.42
		c0-0.796,0.432-1.419,0.982-1.419S42.939,51.455,42.939,52.251z"/>
	<path class="st2" d="M41.958,53.241c0.261,0,0.552-0.407,0.552-0.99c0-0.583-0.291-0.99-0.552-0.99
		c-0.262,0-0.553,0.407-0.553,0.99C41.405,52.834,41.696,53.241,41.958,53.241z"/>
	<path d="M41.958,50.831c-0.551,0-0.982,0.624-0.982,1.419c0,0.796,0.432,1.42,0.982,1.42s0.981-0.624,0.981-1.42
		C42.939,51.455,42.508,50.831,41.958,50.831z M41.405,52.251c0-0.583,0.291-0.99,0.553-0.99c0.261,0,0.552,0.407,0.552,0.99
		c0,0.583-0.291,0.99-0.552,0.99C41.696,53.241,41.405,52.834,41.405,52.251z"/>
	<path d="M59.223,24.275h-5.865H33.295H24.69c-0.119,0-0.215,0.096-0.215,0.215v10.952v13.397v0.005v0.733v1.397v3.657v1.032v17.853
		v5.674v0.822c0,0.119,0.096,0.215,0.215,0.215h5.864h20.064h8.604c0.119,0,0.215-0.096,0.215-0.215V69.061V55.664v-0.006v-0.733
		v-1.397V49.87v-1.031V30.986v-5.673V24.49C59.438,24.371,59.342,24.275,59.223,24.275z M57.648,44.315
		c0-0.764,0.594-1.39,1.36-1.491v2.982C58.242,45.704,57.648,45.079,57.648,44.315z M57.648,39.306c0-0.764,0.594-1.389,1.36-1.491
		v2.981C58.242,40.695,57.648,40.07,57.648,39.306z M55.797,47.159c0.042,0.181-0.054,0.418-0.195,0.489
		c-0.538,0.265-0.946,0.707-1.183,1.276c-0.022,0.054-0.022,0.115,0.001,0.168c0.186,0.426,0.094,1-0.218,1.363
		c-0.258,0.301-0.619,0.414-1.021,0.307c-0.12-0.031-0.232,0.039-0.263,0.154s0.039,0.232,0.153,0.262
		c0.136,0.035,0.269,0.053,0.398,0.053c0.402,0,0.767-0.168,1.043-0.482v2.406c-1.344-0.388-2.198-1.515-2.198-3.064
		c0-0.612,0.145-1.15,0.387-1.613c0.092-0.176,0.2-0.338,0.321-0.487c0.035-0.043,0.068-0.088,0.105-0.129
		c0.138-0.152,0.293-0.286,0.461-0.405c0.027-0.019,0.049-0.044,0.077-0.062c0.422-0.276,0.927-0.451,1.496-0.506
		c0.051-0.005,0.097-0.009,0.152-0.009C55.506,46.882,55.745,46.931,55.797,47.159z M51.902,50.268
		c0.008,0.198,0.018,0.394,0.052,0.58c-0.062-0.2-0.124-0.4-0.157-0.608L51.902,50.268z M54.514,53.596v0.377
		c-0.387-0.251-0.738-0.522-1.051-0.813C53.775,53.359,54.133,53.497,54.514,53.596z M52.038,51.152
		c-0.022-0.058-0.031-0.119-0.051-0.177C52,51.036,52.022,51.092,52.038,51.152z M54.259,54.34c0.083,0.054,0.17,0.105,0.255,0.157
		v0.082C54.434,54.498,54.344,54.42,54.259,54.34z M54.514,46.304v0.283c-0.025,0.007-0.05,0.014-0.074,0.021
		c-0.107,0.029-0.216,0.052-0.318,0.089c-0.184,0.069-0.352,0.159-0.517,0.254c-0.151,0.087-0.29,0.187-0.424,0.295
		c-0.114,0.092-0.227,0.183-0.328,0.289c-0.076,0.081-0.143,0.169-0.211,0.257c-0.106,0.137-0.201,0.282-0.286,0.436
		c-0.027,0.05-0.066,0.088-0.091,0.139c-0.007,0.013,0.001,0.027-0.003,0.041c-0.096,0.201-0.171,0.413-0.23,0.637l-1.025-0.275
		c-0.271,0.341-0.498,0.7-0.676,1.076l1.01,0.272c0.149,1.24,0.765,2.371,1.758,3.315c-0.889-0.584-1.966-1.065-3.246-1.377
		c0.003,0.148,0.01,0.297,0.026,0.447c2.108,0.538,3.632,1.556,4.632,2.701v0.851v0.625v0.461v0.275v0.663v0.466
		c-3.492-1.522-5.093-4.229-5.093-6.581c0-2.648,1.899-4.868,5.093-6.126V46.304z M48.746,52.216c0,0.48-0.39,0.87-0.871,0.87
		c-0.48,0-0.87-0.39-0.87-0.87c0-0.481,0.39-0.871,0.87-0.871C48.356,51.345,48.746,51.735,48.746,52.216z M48.361,53.801
		c0.481,0,0.87,0.39,0.87,0.871c0,0.482-0.389,0.871-0.87,0.871c-0.481,0-0.87-0.39-0.87-0.871
		C47.491,54.192,47.88,53.801,48.361,53.801z M49.845,55.966c0.481,0,0.87,0.39,0.87,0.871c0,0.482-0.389,0.871-0.87,0.871
		c-0.481,0-0.871-0.39-0.871-0.871C48.974,56.356,49.364,55.966,49.845,55.966z M50.984,58.62c0-0.481,0.389-0.871,0.87-0.871
		c0.481,0,0.87,0.39,0.87,0.871c0,0.481-0.389,0.871-0.87,0.871C51.373,59.491,50.984,59.101,50.984,58.62z M54.247,58.913
		c0.095,0,0.182,0.026,0.268,0.054v1.634c-0.086,0.028-0.173,0.054-0.268,0.054c-0.481,0-0.871-0.39-0.871-0.871
		C53.375,59.303,53.765,58.913,54.247,58.913z M54.514,44.032v0.43h-2.691c-4.021,1.994-5.007,5.06-5.213,5.954
		c-0.025,0.106-0.128,0.169-0.234,0.166c-0.035-0.004-0.067-0.017-0.095-0.035h-2.149c-0.063,0-0.124-0.028-0.165-0.077
		c-0.04-0.048-0.058-0.112-0.047-0.175c0.136-0.783,0.554-2.542,1.698-4.38c0.172-0.009,0.333-0.006,0.509-0.019
		c0.006,0,0.012-0.002,0.019-0.002c2.843-0.215,4.767-1.287,5.716-3.186c0.096-0.191,0.178-0.386,0.251-0.584
		c0.853,0.308,1.656,0.717,2.404,1.217V44.032z M43.496,49.688c-0.868,0.397-1.346-0.186-1.346-0.729
		c0-0.544,0.814-1.615,1.776-1.294C43.202,47.974,43.082,49.033,43.496,49.688z M43.281,52.251c0,1.196-0.606,2.207-1.323,2.207
		c-0.719,0-1.326-1.011-1.326-2.207s0.607-2.206,1.326-2.206C42.674,50.045,43.281,51.055,43.281,52.251z M41.762,48.959
		c0,0.544-0.477,1.127-1.346,0.729c0.415-0.655,0.294-1.714-0.429-2.023C40.948,47.344,41.762,48.415,41.762,48.959z M40.255,51.622
		c-0.032,0.202-0.054,0.41-0.054,0.629c0,0.219,0.022,0.427,0.054,0.63h-1.221v-1.259H40.255z M40.416,54.814
		c0.869-0.397,1.346,0.186,1.346,0.729s-0.814,1.615-1.775,1.294C40.711,56.528,40.831,55.469,40.416,54.814z M42.15,55.543
		c0-0.544,0.478-1.127,1.346-0.729c-0.414,0.656-0.294,1.714,0.43,2.023C42.964,57.158,42.15,56.087,42.15,55.543z M43.657,52.88
		c0.032-0.202,0.054-0.411,0.054-0.63c0-0.219-0.022-0.427-0.053-0.629h1.221v1.259H43.657z M51.475,42.514
		c-0.879,1.759-2.689,2.752-5.381,2.952c-4.961,0.367-8.578-0.757-10.249-3.153c0.984-0.006,1.946-0.372,2.997-1.393
		c0.689-0.669,1.151-2.047,1.386-4.105c0.374,1.099,1.536,1.767,2.649,1.875c0.115,0.011,0.229,0.017,0.339,0.017
		c0.873,0,1.599-0.342,2.035-0.932c-0.036,0.034-0.064,0.078-0.07,0.131c-0.071,0.604-0.691,1.085-1.248,1.333
		c-0.108,0.048-0.157,0.175-0.108,0.284c0.036,0.08,0.114,0.127,0.196,0.127c0.029,0,0.06-0.006,0.088-0.019
		c0.664-0.296,1.406-0.892,1.5-1.675c0.014-0.118-0.07-0.225-0.188-0.239c-0.062-0.007-0.115,0.011-0.157,0.043
		c0.15-0.207,0.266-0.443,0.339-0.707c0.021-0.077-0.002-0.159-0.06-0.213c-1.448-1.366-3.913-1.303-5.243-0.823
		c0.086-1.064,0.123-2.271,0.104-3.644c3.353-0.565,7.332-0.37,8.726,0.419c0.555,0.516,1.102,1.206,1.721,2.173
		C51.685,36.266,52.764,39.935,51.475,42.514z M40.556,36.38c1.19-0.383,3.32-0.413,4.593,0.685
		c-0.348,1.005-1.373,1.279-2.23,1.198C41.856,38.159,40.736,37.484,40.556,36.38z M49.099,32.293
		c-0.154-0.068-0.326-0.132-0.515-0.19c-2.84-0.878-9.457-0.634-12.356,1.201c-0.136-0.593-0.268-1.179-0.396-1.754
		c3.221-2.099,11.281-2.25,13.731-1.078C49.382,31.065,49.226,31.676,49.099,32.293z M36.201,33.842
		c0.003-0.002,0.004-0.005,0.006-0.007c0.003-0.002,0.006-0.001,0.008-0.003c0.876-0.64,2.237-1.095,3.761-1.387
		c0.071,5.519-0.736,7.49-1.433,8.166c-1.498,1.453-2.694,1.474-4.254,1.015c-1.477-0.433-2.666-1.126-3.263-1.904
		c-0.676-0.881-0.756-1.997-0.194-2.713c0.373-0.476,0.922-0.748,1.481-0.748c0.089,0,0.178,0.007,0.267,0.021
		c0.559,0.089,0.994,0.455,1.194,1.005c0.03,0.082,0.107,0.138,0.194,0.141c0.093,0.01,0.168-0.047,0.204-0.127
		C35.079,35.276,35.761,34.112,36.201,33.842z M32.886,41.789c0.046-0.011,0.088-0.03,0.134-0.041l0.302,0
		c0.272,0.106,0.552,0.206,0.847,0.292c0.083,0.024,0.162,0.037,0.245,0.058c4.268,2.551,5.346,6.839,5.582,8.196
		c0.011,0.063-0.007,0.126-0.048,0.175c-0.04,0.049-0.101,0.077-0.164,0.077h-2.164c-0.024,0.018-0.053,0.03-0.082,0.033
		c-0.11,0.013-0.208-0.024-0.234-0.131c-0.576-2.494-2.96-5.604-7.904-6.954v-0.16c0.104-0.07,0.216-0.127,0.323-0.193
		C30.695,42.534,31.752,42.072,32.886,41.789z M28.117,57.343c-0.047-0.201,0.064-0.424,0.194-0.489
		c0.537-0.264,0.946-0.706,1.183-1.276c0.022-0.054,0.022-0.115-0.001-0.168c-0.186-0.426-0.094-1,0.218-1.363
		c0.149-0.175,0.484-0.447,1.02-0.306c0.119,0.03,0.233-0.039,0.263-0.154c0.03-0.115-0.039-0.232-0.153-0.262
		c-0.555-0.144-1.076,0.014-1.441,0.43v-2.408c1.344,0.388,2.199,1.515,2.199,3.064c0,0.609-0.143,1.145-0.384,1.606
		c-0.093,0.18-0.203,0.345-0.326,0.496c-0.034,0.042-0.066,0.086-0.102,0.125c-0.138,0.152-0.294,0.287-0.462,0.406
		c-0.027,0.019-0.049,0.044-0.077,0.062c-0.422,0.276-0.926,0.451-1.494,0.506c-0.052,0.005-0.098,0.009-0.154,0.01
		C28.407,57.621,28.17,57.572,28.117,57.343z M32.011,54.235c-0.008-0.2-0.018-0.398-0.052-0.585
		c0.063,0.202,0.125,0.404,0.159,0.614L32.011,54.235z M29.398,50.907v-0.378c0.388,0.252,0.74,0.523,1.054,0.816
		C30.14,51.144,29.781,51.005,29.398,50.907z M31.874,53.346c0.027,0.07,0.038,0.144,0.062,0.216
		C31.921,53.487,31.894,53.419,31.874,53.346z M29.656,50.163c-0.083-0.054-0.171-0.106-0.258-0.159v-0.083
		C29.479,50.004,29.57,50.083,29.656,50.163z M33.58,54.656l-1.009-0.271c-0.149-1.241-0.766-2.372-1.76-3.317
		c0.889,0.585,1.967,1.065,3.247,1.377c-0.003-0.148-0.01-0.297-0.026-0.447c-2.109-0.539-3.633-1.557-4.633-2.702v-0.85v-0.627
		v-0.455v-0.277v-0.664v-0.465c3.493,1.522,5.094,4.229,5.094,6.581c0,0.787-0.169,1.535-0.488,2.233L33.58,54.656z M34.682,49.83
		c0-0.481,0.389-0.871,0.87-0.871c0.481,0,0.87,0.39,0.87,0.871c0,0.481-0.389,0.871-0.87,0.871
		C35.071,50.701,34.682,50.311,34.682,49.83z M34.068,48.536c-0.481,0-0.872-0.39-0.872-0.871c0-0.481,0.39-0.871,0.872-0.871
		c0.48,0,0.87,0.39,0.87,0.871C34.939,48.146,34.549,48.536,34.068,48.536z M32.929,45.882c0,0.481-0.39,0.871-0.87,0.871
		c-0.481,0-0.871-0.39-0.871-0.871c0-0.481,0.39-0.871,0.871-0.871C32.539,45.011,32.929,45.401,32.929,45.882z M29.667,45.589
		c-0.095,0-0.183-0.026-0.268-0.054v-1.633c0.086-0.028,0.173-0.054,0.268-0.054c0.481,0,0.87,0.39,0.87,0.871
		C30.537,45.199,30.148,45.589,29.667,45.589z M29.398,58.199v-0.283c0.025-0.007,0.05-0.014,0.075-0.021
		c0.107-0.029,0.216-0.052,0.318-0.089c0.185-0.07,0.354-0.16,0.52-0.256c0.149-0.086,0.286-0.185,0.419-0.292
		c0.115-0.093,0.229-0.185,0.331-0.292c0.075-0.079,0.141-0.166,0.207-0.253c0.109-0.14,0.205-0.288,0.291-0.445
		c0.026-0.047,0.063-0.084,0.087-0.133c0.006-0.013-0.001-0.026,0.002-0.039c0.096-0.201,0.172-0.415,0.232-0.64l1.025,0.275
		l0.452,0.122c-0.873,1.164-2.226,2.128-3.959,2.811V58.199z M35.167,52.286c0-0.481,0.39-0.871,0.87-0.871
		c0.481,0,0.872,0.39,0.872,0.871s-0.39,0.871-0.872,0.871C35.557,53.157,35.167,52.767,35.167,52.286z M28.374,56.318
		c-0.089,0.061-0.175,0.112-0.253,0.151c-0.32,0.159-0.51,0.595-0.423,0.971c0.073,0.314,0.32,0.516,0.676,0.582v15.281h-1.143
		V38.295l1.143,1.146V56.318z M26.264,60.188c0,0.764-0.593,1.389-1.359,1.491v-2.981C25.671,58.799,26.264,59.424,26.264,60.188z
		 M26.264,65.197c0,0.764-0.593,1.389-1.359,1.49v-2.981C25.671,63.808,26.264,64.433,26.264,65.197z M24.905,49.834v-0.951v-0.203
		c0.766,0.102,1.359,0.727,1.359,1.491c0,0.764-0.593,1.389-1.359,1.491V49.834z M26.264,40.154c0,0.764-0.593,1.389-1.359,1.491
		v-2.981C25.671,38.766,26.264,39.391,26.264,40.154z M24.905,43.673c0.766,0.102,1.359,0.726,1.359,1.49
		c0,0.764-0.593,1.389-1.359,1.49V43.673z M24.905,55.619v-1.203v-0.728c0.766,0.102,1.359,0.727,1.359,1.491
		c0,0.764-0.593,1.389-1.359,1.491V55.619z M24.905,68.715c0.766,0.102,1.359,0.726,1.359,1.49c0,0.764-0.593,1.389-1.359,1.49
		V68.715z M24.905,77.487v-2.953v-0.802h4.278h1.604l-5.883,4.995V77.487z M29.398,60.471v-0.43h2.694
		c4.019-1.993,5.005-5.059,5.211-5.954c0.025-0.106,0.124-0.175,0.234-0.166c0.034,0.004,0.066,0.016,0.094,0.034h2.15
		c0.063,0,0.124,0.028,0.164,0.076c0.041,0.049,0.059,0.113,0.048,0.175c-0.136,0.783-0.552,2.543-1.697,4.381
		c-0.173,0.009-0.335,0.006-0.511,0.019c-0.005,0-0.01,0.001-0.015,0.002c-2.844,0.215-4.768,1.286-5.718,3.186
		c-0.096,0.191-0.178,0.387-0.251,0.584c-0.854-0.309-1.657-0.717-2.404-1.217V60.471z M32.438,61.988
		c0.878-1.759,2.688-2.751,5.379-2.952c0.619-0.046,1.217-0.068,1.794-0.068c4.042,0,7.002,1.125,8.464,3.226
		c-0.986,0.004-1.949,0.366-3.004,1.388c-0.69,0.67-1.152,2.048-1.387,4.103c-0.375-1.098-1.536-1.766-2.649-1.873
		c-1.013-0.096-1.872,0.246-2.365,0.903c0.031-0.033,0.057-0.071,0.063-0.119c0.07-0.604,0.69-1.084,1.247-1.333
		c0.108-0.048,0.157-0.175,0.108-0.284c-0.049-0.108-0.176-0.156-0.284-0.108c-0.664,0.296-1.406,0.893-1.499,1.676
		c-0.014,0.118,0.071,0.225,0.188,0.238c0.009,0.001,0.018,0.001,0.025,0.001c0.053,0,0.102-0.02,0.14-0.053
		c-0.154,0.21-0.274,0.448-0.347,0.717c-0.021,0.077,0.002,0.159,0.06,0.213c0.884,0.833,2.148,1.135,3.303,1.135
		c0.735,0,1.421-0.124,1.938-0.31c-0.085,1.063-0.123,2.269-0.103,3.642c-3.354,0.565-7.334,0.371-8.726-0.417
		c-0.552-0.516-1.1-1.207-1.721-2.174C32.228,68.237,31.149,64.568,32.438,61.988z M43.357,68.123
		c-1.191,0.383-3.32,0.411-4.592-0.685c0.347-1.006,1.369-1.282,2.229-1.198C42.057,66.344,43.177,67.019,43.357,68.123z
		 M34.814,72.21c2.456,1.094,9.78,0.945,12.871-1.011c0.136,0.591,0.267,1.175,0.395,1.749l0.001,0.005
		c-3.221,2.099-11.278,2.252-13.731,1.078C34.53,73.444,34.685,72.833,34.814,72.21z M47.712,70.661
		c-0.003,0.002-0.005,0.006-0.008,0.008c-0.002,0.001-0.004,0-0.006,0.001c-0.876,0.639-2.237,1.094-3.761,1.386
		c-0.074-5.516,0.735-7.487,1.433-8.165c1.5-1.453,2.694-1.473,4.254-1.016c1.477,0.433,2.666,1.127,3.263,1.905
		c0.676,0.881,0.756,1.996,0.194,2.712c-0.433,0.552-1.102,0.829-1.75,0.727c-0.558-0.089-0.993-0.455-1.192-1.004
		c-0.03-0.082-0.106-0.138-0.194-0.141c-0.076-0.001-0.167,0.047-0.204,0.127C48.835,69.226,48.152,70.39,47.712,70.661z
		 M51.028,62.713c-0.046,0.011-0.089,0.03-0.135,0.041l-0.302,0c-0.272-0.106-0.552-0.206-0.846-0.292
		c-0.087-0.025-0.171-0.043-0.256-0.065c-0.628-0.376-1.194-0.786-1.69-1.222c-0.022-0.023-0.049-0.043-0.071-0.066
		c-2.813-2.516-3.609-5.755-3.807-6.902c-0.011-0.063,0.007-0.126,0.048-0.175c0.04-0.048,0.101-0.076,0.164-0.076h2.164
		c0.024-0.018,0.052-0.029,0.081-0.033c0.116-0.012,0.209,0.026,0.234,0.132c0.576,2.494,2.96,5.604,7.903,6.954v0.161
		c-0.104,0.07-0.216,0.127-0.322,0.193C53.218,61.968,52.162,62.43,51.028,62.713z M55.539,65.063V48.185
		c0.089-0.061,0.175-0.112,0.253-0.151c0.32-0.159,0.511-0.594,0.424-0.971c-0.073-0.314-0.32-0.516-0.677-0.582V31.201h1.143
		v35.008L55.539,65.063z M59.008,54.668v0.951v0.202c-0.767-0.102-1.36-0.727-1.36-1.491c0-0.764,0.594-1.389,1.36-1.49V54.668z
		 M57.648,64.349c0-0.764,0.594-1.389,1.36-1.491v2.981C58.242,65.738,57.648,65.112,57.648,64.349z M59.008,60.83
		c-0.767-0.102-1.36-0.726-1.36-1.49c0-0.764,0.594-1.389,1.36-1.49V60.83z M59.008,48.884v1.202v0.729
		c-0.767-0.102-1.36-0.727-1.36-1.491c0-0.764,0.594-1.389,1.36-1.491V48.884z M59.008,35.788c-0.767-0.102-1.36-0.727-1.36-1.491
		c0-0.764,0.594-1.389,1.36-1.49V35.788z M59.008,30.771h-4.279h-1.604l5.883-4.994v1.239v2.953V30.771z M52.833,24.704
		c-0.483,0.497-0.923,1.043-1.326,1.632l0.086-0.34l-2.2,3.941c-0.042-0.015-0.094-0.028-0.138-0.043l0.72-4.411l-1.857,4.12
		c-0.058-0.011-0.112-0.024-0.171-0.034l0.304-4.435l-1.468,4.283c-0.053-0.005-0.107-0.01-0.16-0.015l-0.026-4.305l-1.106,4.231
		c-0.07-0.003-0.137-0.008-0.208-0.01l-0.28-4.288l-0.851,4.277c-0.073,0.001-0.147,0.005-0.22,0.007l-0.603-4.342l-0.546,4.391
		c-0.073,0.005-0.145,0.011-0.218,0.016l-1.01-4.335l-0.146,4.442c-0.059,0.007-0.117,0.013-0.176,0.02l-1.182-4.3l0.028,4.468
		c-0.061,0.01-0.123,0.018-0.184,0.029l-1.462-4.24l0.316,4.483c-0.06,0.015-0.117,0.033-0.176,0.048l-1.82-4.125l0.693,4.464
		c-0.056,0.02-0.113,0.039-0.169,0.059l-2.193-3.962l1.101,4.424c-0.048,0.025-0.09,0.053-0.137,0.078l-0.545-0.823
		c-0.518-2.216-1.045-4.12-1.813-5.405H52.833z M31.08,79.798c0.484-0.497,0.924-1.044,1.327-1.633l-0.086,0.341l2.202-3.944
		c0.043,0.016,0.091,0.031,0.136,0.046l-0.72,4.41l1.857-4.12c0.057,0.011,0.113,0.021,0.171,0.032l-0.304,4.439l1.467-4.28
		c0.053,0.005,0.108,0.01,0.161,0.014l0.025,4.303l1.105-4.228c0.07,0.003,0.139,0.006,0.21,0.008l0.28,4.287l0.852-4.282
		c0.073-0.001,0.146-0.004,0.219-0.005l0.604,4.346l0.546-4.393c0.072-0.005,0.144-0.01,0.216-0.015l1.01,4.337l0.146-4.444
		c0.059-0.007,0.118-0.014,0.176-0.021l1.183,4.302l-0.029-4.472c0.061-0.01,0.122-0.02,0.182-0.031l1.463,4.246l-0.317-4.49
		c0.058-0.014,0.119-0.027,0.177-0.042l1.821,4.125l-0.692-4.462c0.056-0.019,0.117-0.034,0.172-0.054l2.19,3.955l-1.104-4.43
		c0.048-0.025,0.088-0.053,0.134-0.078l0.548,0.826c0.518,2.217,1.045,4.122,1.814,5.407H31.08z M59.008,25.213l-6.607,5.609
		c-0.069,0.059-0.095,0.153-0.063,0.238c0.031,0.084,0.112,0.141,0.202,0.141h1.975v11.646c-0.714-0.452-1.47-0.837-2.278-1.127
		c0.808-2.804-0.404-6.019-1.025-6.988c-0.613-0.958-1.163-1.653-1.722-2.187c0.07-0.356,0.148-0.705,0.234-1.045
		c0.065-0.255,0.14-0.504,0.214-0.754c0.739-2.489,1.911-4.518,3.511-6.04h5.559V25.213z M33.173,24.704
		c1.023,1.536,1.656,4.338,2.322,7.309c0.115,0.513,0.233,1.035,0.354,1.56c-0.48,0.39-1.071,1.374-1.88,3.139
		c-0.298-0.461-0.761-0.765-1.32-0.854c-0.801-0.131-1.626,0.212-2.153,0.886c-0.683,0.871-0.604,2.204,0.19,3.24
		c0.416,0.541,1.083,1.04,1.916,1.45c-1.149,0.31-2.221,0.782-3.203,1.405v-2.892c0-0.057-0.022-0.111-0.063-0.152l-4.431-4.444
		V24.704H33.173z M24.905,79.29l6.607-5.609c0.069-0.059,0.095-0.153,0.063-0.238c-0.031-0.084-0.112-0.141-0.202-0.141h-1.976
		V61.656c0.714,0.452,1.471,0.837,2.278,1.128c-0.808,2.804,0.404,6.019,1.025,6.988c0.615,0.959,1.165,1.655,1.722,2.188
		c-0.071,0.359-0.149,0.71-0.236,1.053c-0.063,0.247-0.135,0.486-0.207,0.725c-0.739,2.498-1.914,4.534-3.518,6.06h-5.558V79.29z
		 M50.74,79.798c-1.026-1.541-1.66-4.353-2.329-7.335c-0.113-0.504-0.229-1.017-0.347-1.533c0.48-0.39,1.071-1.373,1.88-3.139
		c0.298,0.461,0.76,0.765,1.318,0.854c0.802,0.124,1.627-0.213,2.155-0.886c0.684-0.871,0.604-2.203-0.19-3.24
		c-0.415-0.541-1.083-1.04-1.916-1.451c1.149-0.31,2.22-0.782,3.202-1.404v2.892c0,0.057,0.022,0.111,0.063,0.152l4.432,4.444
		v10.648H50.74z"/>
	<path d="M48.356,42.823c0.105,0.056,0.235,0.019,0.292-0.087c0.057-0.104,0.018-0.235-0.087-0.291
		c-0.888-0.479-3.622-0.594-5.686-0.018c-0.114,0.032-0.182,0.15-0.149,0.265c0.026,0.095,0.113,0.157,0.207,0.157
		c0.019,0,0.038-0.002,0.058-0.008C45.055,42.264,47.629,42.43,48.356,42.823z"/>
	<path d="M47.129,43.64c0.062-0.102,0.029-0.234-0.072-0.295c-0.101-0.06-0.233-0.029-0.296,0.073
		c-0.105,0.175-0.369,0.312-0.706,0.364c-0.493,0.079-1.013-0.033-1.292-0.274c-0.089-0.078-0.226-0.069-0.303,0.021
		c-0.078,0.09-0.068,0.226,0.021,0.303c0.297,0.259,0.765,0.405,1.257,0.405c0.127,0,0.256-0.01,0.384-0.03
		C46.595,44.132,46.954,43.931,47.129,43.64z"/>
	<path d="M40.689,34.715c1.161-0.45,3.332-0.712,4.637,0.244C44.67,33.628,41.869,32.916,40.689,34.715z"/>
	<path d="M50.622,34.715c-1.016-1.799-3.43-1.087-3.995,0.244C47.752,34.003,49.621,34.265,50.622,34.715z"/>
	<path d="M33.93,38.509c-0.306,0.446-0.342,0.964-0.099,1.421c0.304,0.569,0.967,0.921,1.734,0.921c0.009,0,0.018,0,0.026,0
		c0.671-0.007,1.337-0.327,1.874-0.902c1.091-1.168,1.606-3.284,1.451-5.957c-0.007-0.114-0.102-0.202-0.215-0.202
		c-0.004,0-0.008,0-0.013,0c-0.118,0.007-0.209,0.109-0.202,0.228c0.201,3.446-0.751,5.011-1.336,5.638
		c-0.456,0.488-1.012,0.76-1.563,0.766c-0.007,0-0.015,0-0.021,0c-0.6,0-1.131-0.271-1.355-0.693
		c-0.168-0.315-0.142-0.661,0.074-0.976c0.334-0.488,0.769-0.616,1.167-0.345c0.303,0.208,0.509,0.631,0.32,0.908
		c-0.066,0.098-0.042,0.231,0.057,0.299c0.098,0.066,0.231,0.042,0.299-0.057c0.336-0.493,0.048-1.176-0.434-1.505
		C35.242,37.741,34.505,37.671,33.93,38.509z"/>
	<path d="M33.28,37.721c0.12,0.014,0.222-0.081,0.229-0.2c0.008-0.118-0.082-0.221-0.2-0.229c-0.542-0.043-1.055,0.35-1.271,0.964
		c-0.235,0.667-0.043,1.339,0.491,1.711c0.037,0.026,0.08,0.039,0.123,0.039c0.067,0,0.135-0.032,0.177-0.092
		c0.067-0.097,0.044-0.231-0.054-0.299c-0.45-0.315-0.461-0.852-0.332-1.216C32.568,38.042,32.855,37.693,33.28,37.721z"/>
	<path d="M35.818,37.044c0.04,0.033,0.088,0.048,0.136,0.048c0.063,0,0.124-0.027,0.167-0.079c0.593-0.727,1.028-2.086,1.067-2.702
		c0.007-0.119-0.083-0.221-0.201-0.228c-0.147-0.008-0.221,0.083-0.229,0.201c-0.035,0.553-0.458,1.828-0.972,2.458
		C35.713,36.833,35.726,36.969,35.818,37.044z"/>
	<polygon class="st2" points="59.008,27.016 59.008,25.777 53.126,30.771 54.729,30.771 59.008,30.771 59.008,29.969 55.53,29.969 	
		"/>
	<polygon class="st1" points="55.53,29.969 59.008,29.969 59.008,27.016 	"/>
	<path class="st2" d="M56.682,31.201h-1.143v15.281c0.357,0.065,0.605,0.267,0.677,0.582c0.087,0.376-0.104,0.812-0.424,0.971
		c-0.079,0.039-0.165,0.09-0.253,0.151v16.878l1.143,1.146V31.201z"/>
	<path class="st2" d="M57.648,34.297c0,0.764,0.594,1.389,1.36,1.491v-2.981C58.242,32.909,57.648,33.534,57.648,34.297z"/>
	<path class="st2" d="M59.008,42.824c-0.767,0.102-1.36,0.727-1.36,1.491c0,0.764,0.594,1.389,1.36,1.491V42.824z"/>
	<path class="st2" d="M57.648,39.306c0,0.764,0.594,1.389,1.36,1.49v-2.981C58.242,37.917,57.648,38.542,57.648,39.306z"/>
	<path class="st2" d="M59.008,52.841c-0.767,0.102-1.36,0.726-1.36,1.49c0,0.764,0.594,1.389,1.36,1.491v-0.202v-0.951V52.841z"/>
	<path class="st2" d="M57.648,64.349c0,0.763,0.594,1.389,1.36,1.49v-2.981C58.242,62.96,57.648,63.585,57.648,64.349z"/>
	<path class="st2" d="M57.648,59.34c0,0.764,0.594,1.389,1.36,1.49V57.85C58.242,57.951,57.648,58.576,57.648,59.34z"/>
	<path class="st2" d="M59.008,47.832c-0.767,0.102-1.36,0.727-1.36,1.491c0,0.764,0.594,1.389,1.36,1.491v-0.729v-1.202V47.832z"/>
	<path class="st0" d="M55.164,46.89c-0.57,0.056-1.074,0.23-1.496,0.506c-0.028,0.018-0.05,0.043-0.077,0.062
		c-0.168,0.118-0.323,0.253-0.461,0.405c-0.038,0.041-0.07,0.086-0.105,0.129c-0.121,0.149-0.228,0.311-0.321,0.487
		c-0.242,0.463-0.387,1.001-0.387,1.613c0,1.549,0.855,2.676,2.198,3.064V50.75c-0.276,0.314-0.641,0.482-1.043,0.482
		c-0.13,0-0.263-0.018-0.398-0.053c-0.114-0.03-0.184-0.147-0.153-0.262s0.143-0.185,0.263-0.154
		c0.401,0.107,0.763-0.005,1.021-0.307c0.312-0.364,0.403-0.937,0.218-1.363c-0.023-0.053-0.023-0.114-0.001-0.168
		c0.236-0.57,0.645-1.011,1.183-1.276c0.142-0.07,0.237-0.308,0.195-0.489c-0.053-0.228-0.291-0.277-0.481-0.279
		C55.26,46.881,55.214,46.885,55.164,46.89z"/>
	<path class="st0" d="M35.627,67.101c-0.085,0-0.154,0.07-0.154,0.155s0.069,0.155,0.154,0.155c0.086,0,0.156-0.069,0.156-0.155
		S35.713,67.101,35.627,67.101z"/>
	<path class="st0" d="M41.607,67.101c-0.085,0-0.154,0.07-0.154,0.155s0.069,0.155,0.154,0.155s0.154-0.069,0.154-0.155
		S41.692,67.101,41.607,67.101z"/>
	<path class="st0" d="M40.994,66.241c-0.859-0.084-1.882,0.192-2.229,1.198c1.271,1.095,3.4,1.067,4.592,0.685
		C43.177,67.019,42.057,66.344,40.994,66.241z M41.607,67.841c-0.322,0-0.584-0.262-0.584-0.584c0-0.323,0.262-0.585,0.584-0.585
		s0.584,0.262,0.584,0.585C42.191,67.578,41.929,67.841,41.607,67.841z"/>
	<path class="st0" d="M34.939,66.189c-0.796,0.155-1.579,0.775-1.597,1.82c1.034,0.366,2.823,0.392,3.771-0.662
		C36.674,66.27,35.68,66.044,34.939,66.189z M35.627,67.841c-0.322,0-0.584-0.262-0.584-0.584c0-0.323,0.262-0.585,0.584-0.585
		c0.323,0,0.586,0.262,0.586,0.585C36.213,67.578,35.95,67.841,35.627,67.841z"/>
	<path class="st0" d="M33.063,69.539c0.62,0.967,1.168,1.657,1.721,2.174c1.392,0.788,5.372,0.983,8.726,0.417
		c-0.02-1.372,0.017-2.579,0.103-3.642c-0.517,0.186-1.204,0.31-1.938,0.31c-1.154,0-2.419-0.302-3.303-1.135
		c-0.058-0.054-0.081-0.136-0.06-0.213c0.074-0.269,0.193-0.508,0.347-0.717c-0.038,0.033-0.087,0.053-0.14,0.053
		c-0.008,0-0.017,0-0.025-0.001c-0.117-0.014-0.202-0.121-0.188-0.238c0.093-0.783,0.835-1.379,1.499-1.676
		c0.108-0.047,0.235,0,0.284,0.108c0.049,0.109,0,0.236-0.108,0.284c-0.557,0.249-1.177,0.729-1.247,1.333
		c-0.006,0.048-0.032,0.087-0.063,0.119c0.493-0.657,1.352-0.998,2.365-0.903c1.113,0.107,2.274,0.774,2.649,1.873
		c0.235-2.055,0.697-3.433,1.387-4.103c1.054-1.023,2.017-1.384,3.004-1.388c-1.462-2.101-4.421-3.226-8.464-3.226
		c-0.577,0-1.175,0.022-1.794,0.068c-2.69,0.2-4.501,1.193-5.379,2.952C31.149,64.568,32.228,68.237,33.063,69.539z M43.224,69.788
		c-1.181,1.798-3.981,1.086-4.637-0.244C39.893,70.5,42.063,70.238,43.224,69.788z M33.292,69.788c1,0.449,2.87,0.711,3.995-0.244
		C36.722,70.875,34.308,71.586,33.292,69.788z M37.527,67.525c-0.679,0.842-1.752,1.148-2.756,1.148
		c-0.644,0-1.259-0.125-1.723-0.315c-0.078-0.032-0.13-0.105-0.134-0.189c-0.063-1.378,0.963-2.211,1.943-2.401
		c0.765-0.15,1.658,0.053,2.249,0.75c-0.155-0.459-0.564-0.901-1.089-1.148c-0.107-0.05-0.153-0.178-0.103-0.286
		c0.05-0.109,0.176-0.154,0.286-0.103c0.688,0.323,1.211,0.913,1.366,1.539c0.028,0.115-0.042,0.232-0.157,0.26
		c-0.018,0.004-0.035,0.006-0.052,0.006c-0.029,0-0.052-0.016-0.078-0.027c0.108,0.167,0.207,0.347,0.281,0.559
		C37.587,67.389,37.573,67.467,37.527,67.525z M40.922,61.661c0.104-0.033,0.232,0.034,0.265,0.149s-0.035,0.233-0.149,0.265
		c-0.968,0.271-2.083,0.39-3.086,0.39c-1.137,0-2.129-0.152-2.6-0.408c-0.104-0.057-0.144-0.187-0.087-0.292
		s0.189-0.142,0.292-0.086C36.284,62.073,38.854,62.239,40.922,61.661z M39.432,60.671c0.089,0.078,0.099,0.214,0.021,0.303
		c-0.079,0.089-0.213,0.099-0.304,0.021c-0.277-0.242-0.796-0.351-1.29-0.274c-0.337,0.053-0.601,0.189-0.706,0.364
		c-0.041,0.067-0.112,0.104-0.185,0.104c-0.038,0-0.076-0.01-0.111-0.031c-0.102-0.061-0.134-0.193-0.073-0.295
		c0.176-0.292,0.534-0.493,1.009-0.567C38.412,60.198,39.058,60.346,39.432,60.671z"/>
	<path class="st2" d="M49.74,67.201c0.037-0.08,0.128-0.128,0.204-0.127c0.088,0.003,0.164,0.059,0.194,0.141
		c0.199,0.549,0.635,0.916,1.192,1.004c0.648,0.102,1.317-0.175,1.75-0.727c0.562-0.716,0.481-1.832-0.194-2.712
		c-0.597-0.778-1.786-1.472-3.263-1.905c-1.56-0.457-2.754-0.438-4.254,1.016c-0.698,0.678-1.507,2.649-1.433,8.165
		c1.524-0.292,2.885-0.747,3.761-1.386c0.002-0.001,0.004,0,0.006-0.001c0.003-0.002,0.005-0.006,0.008-0.008
		C48.152,70.39,48.835,69.226,49.74,67.201z M51.138,64.887c-0.098-0.068-0.121-0.202-0.053-0.299
		c0.066-0.098,0.204-0.121,0.299-0.053c0.534,0.373,0.728,1.045,0.491,1.712c-0.207,0.587-0.683,0.966-1.199,0.966
		c-0.023,0-0.048,0-0.072-0.002c-0.119-0.008-0.208-0.111-0.2-0.229c0.009-0.119,0.117-0.208,0.229-0.2
		c0.395,0.023,0.711-0.319,0.837-0.678C51.599,65.739,51.589,65.201,51.138,64.887z M46.938,70.42c-0.005,0-0.01,0-0.015,0
		c-0.118-0.008-0.208-0.11-0.2-0.229c0.041-0.617,0.478-1.976,1.068-2.702c0.075-0.092,0.211-0.105,0.303-0.031
		c0.092,0.075,0.106,0.21,0.031,0.303c-0.512,0.628-0.936,1.904-0.973,2.458C47.145,70.333,47.05,70.42,46.938,70.42z
		 M48.219,66.451c-0.481-0.329-0.771-1.012-0.436-1.506c0.067-0.098,0.201-0.124,0.299-0.057s0.123,0.201,0.057,0.299
		c-0.188,0.277,0.019,0.701,0.322,0.909c0.189,0.13,0.685,0.358,1.166-0.345c0.216-0.314,0.242-0.661,0.074-0.976
		c-0.227-0.427-0.792-0.708-1.377-0.693c-0.552,0.006-1.107,0.278-1.563,0.766c-0.585,0.626-1.537,2.192-1.336,5.638
		c0.007,0.119-0.084,0.22-0.202,0.228c-0.005,0-0.009,0-0.013,0c-0.113,0-0.208-0.088-0.215-0.202
		c-0.155-2.673,0.36-4.789,1.451-5.957c0.537-0.575,1.203-0.896,1.874-0.902c0.008,0,0.017,0,0.025,0
		c0.769,0,1.432,0.352,1.735,0.921c0.243,0.457,0.207,0.975-0.099,1.421C49.409,66.83,48.673,66.762,48.219,66.451z"/>
	<path class="st1" d="M47.862,73.565c-0.047,0.025-0.086,0.054-0.134,0.078l1.104,4.43l-2.19-3.955
		c-0.055,0.02-0.116,0.035-0.172,0.054l0.692,4.462l-1.821-4.125c-0.058,0.015-0.118,0.027-0.177,0.042l0.317,4.49l-1.463-4.246
		c-0.06,0.011-0.122,0.021-0.182,0.031l0.029,4.472l-1.183-4.302c-0.059,0.007-0.118,0.014-0.176,0.021l-0.146,4.444l-1.01-4.337
		c-0.072,0.005-0.144,0.01-0.216,0.015l-0.546,4.393l-0.604-4.346c-0.073,0.001-0.146,0.004-0.219,0.005l-0.852,4.282l-0.28-4.287
		c-0.071-0.002-0.14-0.006-0.21-0.008l-1.105,4.228l-0.025-4.303c-0.054-0.005-0.108-0.009-0.161-0.014l-1.467,4.28l0.304-4.439
		c-0.058-0.01-0.115-0.021-0.171-0.032l-1.857,4.12l0.72-4.41c-0.045-0.015-0.093-0.03-0.136-0.046l-2.202,3.944l0.086-0.341
		c-0.403,0.589-0.844,1.136-1.327,1.633h19.145c-0.769-1.285-1.296-3.19-1.814-5.407L47.862,73.565z"/>
	<path class="st3" d="M34.349,74.031c2.453,1.174,10.511,1.021,13.731-1.078l-0.001-0.005c-0.128-0.573-0.259-1.158-0.395-1.749
		c-3.091,1.956-10.415,2.105-12.871,1.011C34.685,72.833,34.53,73.444,34.349,74.031z"/>
	<path d="M37.281,66.759c0.026,0.011,0.049,0.027,0.078,0.027c0.017,0,0.034-0.002,0.052-0.006c0.115-0.028,0.186-0.145,0.157-0.26
		c-0.155-0.626-0.679-1.216-1.366-1.539c-0.11-0.051-0.236-0.006-0.286,0.103c-0.051,0.107-0.005,0.235,0.103,0.286
		c0.525,0.247,0.934,0.689,1.089,1.148c-0.591-0.697-1.485-0.899-2.249-0.75c-0.98,0.19-2.007,1.022-1.943,2.401
		c0.004,0.084,0.056,0.158,0.134,0.189c0.464,0.189,1.079,0.315,1.723,0.315c1.004,0,2.077-0.306,2.756-1.148
		c0.046-0.058,0.06-0.136,0.035-0.206C37.488,67.107,37.389,66.926,37.281,66.759z M33.342,68.01
		c0.018-1.045,0.801-1.666,1.597-1.82c0.741-0.145,1.735,0.081,2.174,1.158C36.166,68.401,34.377,68.375,33.342,68.01z"/>
	<path d="M41.607,66.671c-0.322,0-0.584,0.262-0.584,0.585c0,0.322,0.262,0.584,0.584,0.584s0.584-0.262,0.584-0.584
		C42.191,66.933,41.929,66.671,41.607,66.671z M41.607,67.411c-0.085,0-0.154-0.069-0.154-0.155s0.069-0.155,0.154-0.155
		s0.154,0.07,0.154,0.155S41.692,67.411,41.607,67.411z"/>
	<path d="M35.627,66.671c-0.322,0-0.584,0.262-0.584,0.585c0,0.322,0.262,0.584,0.584,0.584c0.323,0,0.586-0.262,0.586-0.584
		C36.213,66.933,35.95,66.671,35.627,66.671z M35.627,67.411c-0.085,0-0.154-0.069-0.154-0.155s0.069-0.155,0.154-0.155
		c0.086,0,0.156,0.07,0.156,0.155S35.713,67.411,35.627,67.411z"/>
	<path d="M35.557,61.679c-0.103-0.055-0.235-0.018-0.292,0.086S35.248,62,35.352,62.057c0.471,0.255,1.463,0.408,2.6,0.408
		c1.003,0,2.118-0.119,3.086-0.39c0.114-0.032,0.182-0.15,0.149-0.265s-0.16-0.182-0.265-0.149
		C38.854,62.239,36.284,62.073,35.557,61.679z"/>
	<path d="M36.784,60.864c-0.061,0.102-0.028,0.234,0.073,0.295c0.035,0.021,0.073,0.031,0.111,0.031
		c0.072,0,0.144-0.037,0.185-0.104c0.105-0.175,0.369-0.312,0.706-0.364c0.494-0.076,1.013,0.032,1.29,0.274
		c0.091,0.078,0.225,0.068,0.304-0.021c0.078-0.089,0.068-0.225-0.021-0.303c-0.374-0.326-1.021-0.474-1.64-0.375
		C37.318,60.37,36.96,60.572,36.784,60.864z"/>
	<path d="M43.224,69.788c-1.161,0.449-3.332,0.711-4.637-0.244C39.244,70.875,42.044,71.586,43.224,69.788z"/>
	<path d="M33.292,69.788c1.016,1.798,3.43,1.086,3.995-0.244C36.161,70.5,34.292,70.238,33.292,69.788z"/>
	<path d="M49.983,65.994c0.306-0.446,0.342-0.964,0.099-1.421c-0.304-0.57-0.967-0.921-1.735-0.921c-0.009,0-0.018,0-0.025,0
		c-0.671,0.007-1.337,0.327-1.874,0.902c-1.091,1.168-1.606,3.284-1.451,5.957c0.007,0.114,0.102,0.202,0.215,0.202
		c0.004,0,0.008,0,0.013,0c0.118-0.007,0.209-0.109,0.202-0.228c-0.201-3.446,0.751-5.012,1.336-5.638
		c0.456-0.488,1.012-0.76,1.563-0.766c0.585-0.015,1.15,0.267,1.377,0.693c0.168,0.315,0.142,0.661-0.074,0.976
		c-0.481,0.704-0.977,0.475-1.166,0.345c-0.304-0.208-0.511-0.632-0.322-0.909c0.066-0.098,0.041-0.232-0.057-0.299
		s-0.231-0.042-0.299,0.057c-0.336,0.494-0.046,1.177,0.436,1.506C48.673,66.762,49.409,66.83,49.983,65.994z"/>
	<path d="M50.633,66.782c-0.112-0.008-0.221,0.081-0.229,0.2c-0.008,0.118,0.081,0.221,0.2,0.229
		c0.024,0.002,0.049,0.002,0.072,0.002c0.517,0,0.992-0.379,1.199-0.966c0.236-0.667,0.043-1.339-0.491-1.712
		c-0.095-0.067-0.232-0.045-0.299,0.053c-0.068,0.097-0.045,0.231,0.053,0.299c0.451,0.315,0.461,0.853,0.332,1.217
		C51.344,66.462,51.028,66.805,50.633,66.782z"/>
	<path d="M48.094,67.458c-0.092-0.074-0.228-0.061-0.303,0.031c-0.591,0.726-1.027,2.084-1.068,2.702
		c-0.008,0.118,0.082,0.221,0.2,0.229c0.005,0,0.01,0,0.015,0c0.112,0,0.207-0.087,0.215-0.201c0.037-0.554,0.461-1.831,0.973-2.458
		C48.201,67.669,48.186,67.534,48.094,67.458z"/>
	<polygon class="st2" points="29.183,73.732 24.905,73.732 24.905,74.534 28.383,74.534 24.905,77.487 24.905,78.726 30.788,73.732 
			"/>
	<polygon class="st1" points="24.905,74.534 24.905,77.487 28.383,74.534 	"/>
	<path class="st2" d="M27.231,73.302h1.143V58.021c-0.356-0.065-0.604-0.268-0.676-0.582c-0.087-0.376,0.103-0.813,0.423-0.971
		c0.079-0.039,0.165-0.09,0.253-0.151V39.441l-1.143-1.146V73.302z"/>
	<path class="st2" d="M26.264,70.205c0-0.764-0.593-1.389-1.359-1.49v2.981C25.671,71.594,26.264,70.969,26.264,70.205z"/>
	<path class="st2" d="M24.905,61.679c0.766-0.102,1.359-0.727,1.359-1.491c0-0.764-0.593-1.389-1.359-1.491V61.679z"/>
	<path class="st2" d="M26.264,65.197c0-0.764-0.593-1.389-1.359-1.49v2.981C25.671,66.586,26.264,65.96,26.264,65.197z"/>
	<path class="st2" d="M24.905,51.662c0.766-0.102,1.359-0.727,1.359-1.491c0-0.764-0.593-1.389-1.359-1.491v0.203v0.951V51.662z"/>
	<path class="st2" d="M26.264,40.154c0-0.764-0.593-1.389-1.359-1.49v2.981C25.671,41.543,26.264,40.918,26.264,40.154z"/>
	<path class="st2" d="M26.264,45.163c0-0.764-0.593-1.389-1.359-1.49v2.981C25.671,46.552,26.264,45.927,26.264,45.163z"/>
	<path class="st2" d="M24.905,56.671c0.766-0.102,1.359-0.727,1.359-1.491c0-0.764-0.593-1.389-1.359-1.491v0.728v1.203V56.671z"/>
	<path class="st0" d="M28.752,57.613c0.569-0.055,1.072-0.229,1.494-0.506c0.028-0.018,0.05-0.043,0.077-0.062
		c0.168-0.119,0.324-0.253,0.462-0.406c0.036-0.04,0.068-0.083,0.102-0.125c0.123-0.152,0.233-0.317,0.326-0.496
		c0.24-0.462,0.384-0.997,0.384-1.606c0-1.549-0.855-2.676-2.199-3.064v2.408c0.366-0.417,0.886-0.575,1.441-0.43
		c0.114,0.03,0.184,0.147,0.153,0.262c-0.029,0.115-0.144,0.184-0.263,0.154c-0.535-0.141-0.87,0.131-1.02,0.306
		c-0.312,0.363-0.403,0.937-0.218,1.363c0.023,0.053,0.023,0.114,0.001,0.168c-0.236,0.571-0.646,1.012-1.183,1.276
		c-0.13,0.064-0.241,0.288-0.194,0.489c0.053,0.229,0.29,0.278,0.48,0.279C28.654,57.622,28.7,57.617,28.752,57.613z"/>
</g>
</svg>
