<?xml version="1.0" encoding="utf-8"?>
<!-- Generator: Adobe Illustrator 23.0.2, SVG Export Plug-In . SVG Version: 6.00 Build 0)  -->
<svg version="1.1" id="Layer_1" xmlns="http://www.w3.org/2000/svg" xmlns:xlink="http://www.w3.org/1999/xlink" x="0px" y="0px"
	 viewBox="0 0 82.452 99.776" style="enable-background:new 0 0 82.452 99.776;" xml:space="preserve">
<style type="text/css">
	.st0{fill:#FFFFFF;}
	.st1{fill:#ED1C24;}
	.st2{fill:#FFCB05;}
	.st3{fill:#21409A;}
	.st4{fill:#D4D5D6;}
	.st5{fill:#000100;}
	.st6{fill:#300505;}
	.st7{fill:#BFD730;}
	.st8{fill:#F15A22;}
</style>
<g>
	<path class="st0" d="M32.274,79.477c0.072-0.242,0.145-0.483,0.208-0.732c0.087-0.343,0.165-0.694,0.236-1.053
		c-0.556-0.532-1.106-1.227-1.722-2.188c-0.621-0.968-1.833-4.184-1.025-6.988c-0.808-0.291-1.564-0.676-2.278-1.128v11.647h1.976
		c0.09,0,0.171,0.056,0.202,0.141c0.031,0.085,0.006,0.18-0.063,0.238l-6.607,5.609v0.508h5.559
		C30.361,84.006,31.535,81.972,32.274,79.477z"/>
	<path class="st0" d="M48.236,36.467c-0.076,0.254-0.152,0.507-0.218,0.767c-0.086,0.34-0.163,0.688-0.234,1.044
		c0.559,0.536,1.109,1.231,1.722,2.189c0.621,0.968,1.833,4.183,1.025,6.987c0.807,0.291,1.563,0.676,2.277,1.128V36.934h-1.975
		c-0.09,0-0.171-0.056-0.202-0.141c-0.031-0.085-0.006-0.18,0.063-0.238l6.607-5.609v-0.508h-5.559
		C50.147,31.958,48.976,33.984,48.236,36.467z"/>
	<path class="st0" d="M27.63,45.529c0.04,0.041,0.063,0.095,0.063,0.152v2.892c0.982-0.623,2.054-1.095,3.203-1.405
		c-0.832-0.41-1.5-0.91-1.915-1.451c-0.795-1.037-0.874-2.369-0.19-3.24c0.527-0.674,1.353-1.014,2.153-0.886
		c0.56,0.089,1.022,0.393,1.32,0.854c0.809-1.766,1.4-2.75,1.88-3.139c-0.121-0.525-0.238-1.047-0.354-1.559
		c-0.666-2.971-1.299-5.772-2.322-7.309h-8.268v10.648L27.63,45.529z M27.94,31.015c0.471,1.642,2.372,4.218,3.914,5.097
		c-1.542,0.88-3.443,3.454-3.914,5.097c-0.471-1.643-2.37-4.217-3.912-5.097C25.57,35.232,27.469,32.657,27.94,31.015z"/>
	<path class="st0" d="M52.871,70.44c-0.04-0.041-0.063-0.095-0.063-0.152v-2.892c-0.982,0.622-2.053,1.095-3.202,1.405
		c0.833,0.41,1.5,0.91,1.916,1.451c0.795,1.036,0.873,2.369,0.19,3.24c-0.529,0.674-1.362,1.015-2.155,0.886
		c-0.56-0.089-1.021-0.393-1.318-0.854c-0.809,1.766-1.4,2.75-1.88,3.139c0.118,0.516,0.234,1.029,0.347,1.533
		c0.668,2.982,1.303,5.794,2.328,7.335h8.268V74.884L52.871,70.44z M52.562,84.954c-0.471-1.642-2.371-4.218-3.914-5.097
		c1.542-0.879,3.443-3.454,3.914-5.096c0.471,1.642,2.371,4.217,3.914,5.096C54.933,80.737,53.033,83.313,52.562,84.954z"/>
	<path class="st0" d="M61.892,23.703H18.651c-1.563,0-2.836,1.272-2.836,2.836v62.82c0,1.564,1.272,2.836,2.836,2.836h43.241
		c1.563,0,2.836-1.272,2.836-2.836v-62.82C64.728,24.975,63.455,23.703,61.892,23.703z M18.314,32.93
		c0.156,0,0.285,0.073,0.333,0.191c0.034,0.082,0.034,0.082,0.047,0.4c0.014,0.4,0.136,0.627,0.339,0.627
		c0.278,0,0.374-0.364,0.374-1.427v-4.09c0-0.827-0.061-0.918-0.645-0.945v-0.236h2.152v0.236c-0.564,0.027-0.618,0.118-0.618,0.945
		v2.909c0,0.191,0,0.4,0.007,0.736c0.007,0.127,0.007,0.227,0.007,0.309c0,0.564-0.102,0.973-0.306,1.273
		c-0.245,0.345-0.625,0.536-1.093,0.536c-0.679,0-1.154-0.372-1.154-0.9C17.757,33.166,17.988,32.93,18.314,32.93z M19.292,41.418
		c-0.248-0.868-1.251-2.227-2.066-2.691c0.814-0.465,1.818-1.825,2.066-2.692c0.249,0.867,1.252,2.227,2.067,2.692
		C20.544,39.191,19.541,40.55,19.292,41.418z M57.733,31.046v5.674v17.854v1.031v3.658v1.397v0.733v0.005v13.397v10.952
		c0,0.119-0.096,0.215-0.215,0.215h-8.603c-0.001,0-0.001,0-0.002,0H28.849c-0.001,0-0.001,0-0.002,0h-5.863
		c-0.119,0-0.215-0.096-0.215-0.215v-0.822v-5.674V61.397v-1.032v-3.657v-1.397v-0.733v-0.005V41.175V30.223
		c0-0.119,0.096-0.215,0.215-0.215h8.604h20.063h5.865c0.119,0,0.215,0.096,0.215,0.215V31.046z M62.227,82.969
		c-0.156,0-0.285-0.073-0.333-0.191c-0.034-0.082-0.034-0.082-0.047-0.4c-0.014-0.4-0.136-0.627-0.339-0.627
		c-0.278,0-0.374,0.364-0.374,1.427v4.09c0,0.827,0.061,0.918,0.645,0.945v0.236h-2.152v-0.236c0.563-0.027,0.618-0.118,0.618-0.945
		V84.36c0-0.191,0-0.4-0.007-0.736c-0.007-0.127-0.007-0.227-0.007-0.309c0-0.564,0.102-0.973,0.306-1.273
		c0.245-0.345,0.625-0.536,1.093-0.536c0.679,0,1.154,0.372,1.154,0.9C62.784,82.733,62.553,82.969,62.227,82.969z M61.249,79.863
		c-0.248-0.867-1.251-2.227-2.066-2.692c0.814-0.464,1.818-1.823,2.066-2.691c0.25,0.868,1.254,2.227,2.067,2.691
		C62.503,77.636,61.499,78.996,61.249,79.863z"/>
	<path d="M61.892,23.273H18.651c-1.801,0-3.266,1.465-3.266,3.266v62.82c0,1.801,1.465,3.266,3.266,3.266h43.241
		c1.801,0,3.266-1.465,3.266-3.266v-62.82C65.157,24.738,63.693,23.273,61.892,23.273z M64.728,89.359
		c0,1.564-1.272,2.836-2.836,2.836H18.651c-1.563,0-2.836-1.272-2.836-2.836v-62.82c0-1.564,1.272-2.836,2.836-2.836h43.241
		c1.563,0,2.836,1.272,2.836,2.836V89.359z"/>
	<path class="st1" d="M50.154,48.441c-0.949,1.899-2.873,2.971-5.715,3.186c-1.11,1.685-1.575,3.339-1.753,4.224h1.851
		c0.31-1.142,1.472-4.116,5.437-6.063c0.029-0.015,0.062-0.022,0.095-0.022h2.741v-0.692c-0.747-0.499-1.55-0.908-2.404-1.217
		C50.333,48.054,50.25,48.249,50.154,48.441z"/>
	<path class="st1" d="M30.348,67.528c0.949-1.9,2.873-2.971,5.717-3.186c1.11-1.685,1.574-3.339,1.753-4.224h-1.852
		c-0.309,1.142-1.472,4.116-5.435,6.063c-0.029,0.015-0.062,0.022-0.095,0.022h-2.744v0.692c0.747,0.5,1.551,0.909,2.404,1.217
		C30.169,67.915,30.252,67.72,30.348,67.528z"/>
	<path class="st1" d="M52.809,60.313v-0.083c-0.086-0.052-0.173-0.104-0.256-0.158C52.638,60.153,52.729,60.232,52.809,60.313z"/>
	<path class="st1" d="M44.545,60.119h-1.86c0.34,1.685,1.694,6.158,6.638,8.328c1.133-0.284,2.19-0.746,3.164-1.352
		C47.654,65.708,45.231,62.655,44.545,60.119z"/>
	<path class="st1" d="M48.151,57.79c1.28,0.312,2.358,0.793,3.246,1.377c-0.994-0.945-1.61-2.076-1.759-3.316l-1.01-0.272
		c-0.314,0.662-0.482,1.372-0.482,2.118C48.146,57.728,48.15,57.759,48.151,57.79z"/>
	<path class="st1" d="M49.303,54.504l1.025,0.275c0.059-0.224,0.135-0.436,0.23-0.637c0.004-0.014-0.004-0.028,0.003-0.041
		c0.025-0.051,0.064-0.089,0.091-0.139c0.085-0.154,0.18-0.3,0.286-0.437c0.067-0.088,0.134-0.175,0.209-0.255
		c0.102-0.107,0.217-0.201,0.333-0.294c0.125-0.101,0.254-0.197,0.394-0.279c0.172-0.101,0.351-0.195,0.544-0.268
		c0.098-0.036,0.205-0.058,0.308-0.087c0.027-0.008,0.054-0.016,0.082-0.023v-0.283C51.298,52.656,50.103,53.499,49.303,54.504z"/>
	<path class="st1" d="M35.957,55.85h1.861c-0.341-1.685-1.696-6.158-6.639-8.328c-1.133,0.284-2.19,0.746-3.164,1.352
		C32.848,50.262,35.272,53.314,35.957,55.85z"/>
	<path class="st1" d="M31.199,61.465l-1.024-0.275c-0.059,0.225-0.135,0.439-0.232,0.64c-0.003,0.013,0.004,0.026-0.002,0.039
		c-0.024,0.049-0.061,0.085-0.087,0.133c-0.087,0.158-0.183,0.306-0.292,0.446c-0.066,0.087-0.132,0.172-0.206,0.251
		c-0.103,0.109-0.219,0.203-0.336,0.297c-0.124,0.1-0.25,0.194-0.389,0.276c-0.173,0.102-0.353,0.196-0.547,0.269
		c-0.098,0.036-0.205,0.058-0.308,0.087c-0.028,0.008-0.055,0.016-0.083,0.023v0.282C29.204,63.313,30.399,62.471,31.199,61.465z"/>
	<path class="st1" d="M32.352,58.179c-1.28-0.312-2.358-0.793-3.247-1.377c0.994,0.945,1.611,2.076,1.76,3.317l1.009,0.271
		c0.314-0.662,0.482-1.372,0.482-2.119C32.357,58.241,32.352,58.21,32.352,58.179z"/>
	<path class="st1" d="M27.693,55.655v0.083c0.087,0.052,0.174,0.104,0.258,0.159C27.864,55.816,27.773,55.737,27.693,55.655z"/>
	<path class="st2" d="M50.281,56.705c0.02,0.06,0.029,0.122,0.052,0.181C50.316,56.825,50.294,56.767,50.281,56.705z"/>
	<path class="st2" d="M52.809,59.33c-0.382-0.099-0.74-0.237-1.051-0.436c0.313,0.292,0.664,0.562,1.051,0.814V59.33z"/>
	<path class="st2" d="M50.197,56.001l-0.105-0.028c0.033,0.208,0.095,0.408,0.157,0.608C50.215,56.396,50.205,56.199,50.197,56.001z
		"/>
	<path class="st3" d="M48.367,59.17c0.037,0.124,0.081,0.249,0.127,0.373C48.496,59.406,48.454,59.274,48.367,59.17z"/>
	<path class="st3" d="M48.519,59.61c0.094,0.245,0.204,0.49,0.335,0.732c1.82,0.745,2.907,2.002,3.386,3.193
		c0.183,0.097,0.373,0.189,0.568,0.279V63.15c-0.115,0.03-0.241,0.05-0.39,0.04c0.176-0.03,0.316-0.16,0.39-0.316v-0.461
		c0-0.001,0-0.002-0.001-0.002c-0.112-0.178-0.413-0.314-0.81-0.142c0.222-0.429,0.535-0.538,0.81-0.481v-0.851
		c-1-1.145-2.524-2.163-4.632-2.701c0.008,0.072,0.023,0.144,0.034,0.216C48.571,58.585,48.811,59.039,48.519,59.61z M52.035,60.405
		c0.37,0.319,0.313,1.033-0.485,1.275c0.307-0.177,0.343-0.673,0.092-0.866c-0.167-0.128-0.496-0.151-0.809,0.15
		C50.937,60.111,51.665,60.087,52.035,60.405z M50.136,59.184c0.461,0.16,0.67,0.845,0.018,1.364c0.22-0.278,0.072-0.752-0.233-0.84
		c-0.202-0.057-0.518,0.043-0.696,0.438C49.006,59.312,49.675,59.023,50.136,59.184z"/>
	<path class="st0" d="M51.642,60.815c0.251,0.193,0.214,0.689-0.092,0.866c0.797-0.242,0.854-0.956,0.485-1.275
		c-0.37-0.318-1.097-0.295-1.201,0.56C51.146,60.664,51.476,60.687,51.642,60.815z"/>
	<path class="st0" d="M52.419,63.19c0.149,0.009,0.275-0.01,0.39-0.04v-0.275C52.735,63.031,52.596,63.161,52.419,63.19z"/>
	<path class="st0" d="M51.998,62.27c0.397-0.173,0.698-0.036,0.81,0.142c0,0.001,0,0.002,0.001,0.002v-0.625
		C52.534,61.732,52.22,61.841,51.998,62.27z"/>
	<path class="st0" d="M49.921,59.708c0.305,0.087,0.453,0.562,0.233,0.84c0.651-0.519,0.443-1.204-0.018-1.364
		c-0.461-0.161-1.129,0.128-0.91,0.962C49.403,59.751,49.719,59.651,49.921,59.708z"/>
	<path class="st0" d="M48.21,58.454c0.036,0.238,0.086,0.476,0.157,0.716c0.087,0.104,0.129,0.236,0.127,0.373
		c0.008,0.023,0.016,0.045,0.025,0.068C48.811,59.039,48.571,58.585,48.21,58.454z"/>
	<path class="st3" d="M49.364,61.133c0.528,0.713,1.229,1.385,2.124,1.963C51.055,62.376,50.353,61.673,49.364,61.133z"/>
	<path class="st0" d="M48.854,60.342c0.146,0.268,0.318,0.532,0.51,0.791c0.988,0.54,1.691,1.242,2.124,1.963
		c0.237,0.153,0.489,0.299,0.752,0.438C51.761,62.344,50.674,61.087,48.854,60.342z"/>
	<path class="st3" d="M32.136,56.8c-0.037-0.126-0.082-0.251-0.129-0.377C32.004,56.562,32.047,56.696,32.136,56.8z"/>
	<path class="st3" d="M31.983,56.357c-0.094-0.245-0.204-0.489-0.335-0.731c-1.819-0.744-2.907-2.001-3.386-3.192
		c-0.183-0.097-0.373-0.19-0.569-0.279v0.664c0.115-0.031,0.241-0.05,0.391-0.041c-0.177,0.03-0.317,0.161-0.391,0.318v0.455
		c0.001,0.002,0,0.004,0.002,0.006c0.112,0.177,0.413,0.314,0.81,0.142c-0.222,0.429-0.536,0.538-0.811,0.48v0.85
		c1,1.146,2.524,2.163,4.633,2.702c-0.008-0.072-0.023-0.144-0.034-0.216C31.931,57.384,31.69,56.929,31.983,56.357z M28.468,55.563
		c-0.371-0.319-0.313-1.032,0.485-1.275c-0.307,0.177-0.343,0.673-0.092,0.866c0.167,0.128,0.496,0.15,0.809-0.151
		C29.565,55.859,28.836,55.882,28.468,55.563z M30.366,56.786c-0.46-0.16-0.67-0.845-0.018-1.364
		c-0.219,0.278-0.071,0.753,0.234,0.84c0.202,0.057,0.517-0.044,0.696-0.437C31.495,56.657,30.828,56.947,30.366,56.786z"/>
	<path class="st0" d="M28.86,55.155c-0.251-0.193-0.214-0.69,0.092-0.866c-0.797,0.243-0.856,0.956-0.485,1.275
		c0.368,0.319,1.097,0.295,1.201-0.559C29.356,55.305,29.026,55.282,28.86,55.155z"/>
	<path class="st0" d="M28.083,52.779c-0.149-0.009-0.275,0.01-0.391,0.041v0.278C27.766,52.94,27.906,52.809,28.083,52.779z"/>
	<path class="st0" d="M28.504,53.699c-0.397,0.172-0.698,0.036-0.81-0.142c-0.001-0.002,0-0.004-0.002-0.006v0.628
		C27.968,54.237,28.282,54.129,28.504,53.699z"/>
	<path class="st0" d="M30.581,56.261c-0.305-0.087-0.453-0.561-0.234-0.84c-0.651,0.518-0.441,1.204,0.018,1.364
		c0.462,0.161,1.129-0.128,0.911-0.961C31.098,56.218,30.783,56.318,30.581,56.261z"/>
	<path class="st0" d="M32.292,57.515c-0.036-0.237-0.086-0.476-0.156-0.715c-0.089-0.105-0.131-0.238-0.129-0.377
		c-0.008-0.022-0.016-0.044-0.024-0.066C31.69,56.929,31.931,57.384,32.292,57.515z"/>
	<path class="st3" d="M31.138,54.836c-0.528-0.713-1.229-1.385-2.124-1.963C29.447,53.593,30.15,54.296,31.138,54.836z"/>
	<path class="st0" d="M31.648,55.626c-0.146-0.268-0.318-0.531-0.51-0.791c-0.988-0.54-1.691-1.242-2.124-1.963
		c-0.237-0.153-0.489-0.299-0.752-0.438C28.741,53.625,29.829,54.882,31.648,55.626z"/>
	<path class="st2" d="M49.973,49.788c-3.965,1.946-5.127,4.92-5.437,6.063h-1.851c0.179-0.885,0.644-2.539,1.753-4.224
		c-0.007,0-0.012,0.002-0.019,0.002c-0.175,0.013-0.336,0.01-0.507,0.019c-1.144,1.838-1.562,3.597-1.699,4.38
		c-0.011,0.063,0.007,0.127,0.047,0.175c0.041,0.049,0.102,0.077,0.165,0.077h2.15c0.027,0.019,0.059,0.03,0.094,0.035
		c0.106,0.005,0.209-0.059,0.234-0.166c0.206-0.895,1.193-3.961,5.213-5.954h2.691v-0.43h-2.741
		C50.034,49.766,50.002,49.773,49.973,49.788z"/>
	<path class="st2" d="M30.531,66.182c3.963-1.947,5.126-4.921,5.435-6.063h1.852c-0.179,0.885-0.643,2.538-1.753,4.224
		c0.005,0,0.01-0.001,0.015-0.002c0.177-0.013,0.338-0.009,0.511-0.019c1.144-1.839,1.561-3.599,1.697-4.382
		c0.011-0.063-0.007-0.126-0.048-0.175c-0.04-0.048-0.101-0.076-0.164-0.076h-2.15c-0.027-0.019-0.059-0.03-0.094-0.035
		c-0.11-0.009-0.209,0.059-0.234,0.166c-0.206,0.895-1.192,3.961-5.211,5.954h-2.694v0.43h2.744
		C30.47,66.204,30.502,66.196,30.531,66.182z"/>
	<path class="st2" d="M42.685,60.119h1.86c0.686,2.537,3.109,5.589,7.942,6.976c0.106-0.066,0.218-0.123,0.322-0.193v-0.161
		c-4.943-1.349-7.327-4.459-7.903-6.954c-0.025-0.106-0.118-0.141-0.234-0.131c-0.029,0.003-0.057,0.015-0.081,0.033h-2.164
		c-0.063,0-0.124,0.028-0.164,0.076c-0.041,0.049-0.059,0.113-0.048,0.175c0.198,1.146,0.992,4.38,3.8,6.895
		c0.026,0.026,0.056,0.049,0.081,0.075c0.496,0.436,1.061,0.844,1.687,1.22c0.086,0.023,0.17,0.04,0.257,0.066
		c0.295,0.086,0.575,0.186,0.847,0.292l0.302,0c0.046-0.011,0.089-0.029,0.135-0.041C44.379,66.277,43.025,61.804,42.685,60.119z"/>
	<path class="st2" d="M37.819,55.85h-1.861c-0.686-2.537-3.109-5.589-7.941-6.976c-0.107,0.067-0.219,0.124-0.324,0.194v0.16
		c4.944,1.35,7.328,4.46,7.904,6.954c0.026,0.106,0.124,0.144,0.234,0.131c0.029-0.003,0.057-0.015,0.081-0.033h2.165
		c0.063,0,0.124-0.028,0.164-0.077c0.041-0.048,0.059-0.112,0.048-0.175c-0.236-1.358-1.313-5.646-5.583-8.197
		c-0.082-0.022-0.16-0.034-0.243-0.058c-0.295-0.086-0.575-0.186-0.848-0.292l-0.301,0c-0.046,0.011-0.089,0.029-0.135,0.041
		C36.122,49.693,37.477,54.165,37.819,55.85z"/>
	<path class="st2" d="M31.651,61.587l-0.452-0.122c-0.8,1.005-1.995,1.848-3.506,2.468v0.464
		C29.425,63.715,30.778,62.751,31.651,61.587z"/>
	<path class="st2" d="M47.716,57.698c0,2.351,1.601,5.058,5.093,6.581v-0.465c-0.196-0.089-0.386-0.182-0.568-0.279
		c-0.264-0.139-0.515-0.285-0.752-0.438c-0.894-0.578-1.596-1.25-2.124-1.963c-0.192-0.259-0.364-0.523-0.51-0.791
		c-0.131-0.242-0.241-0.486-0.335-0.732c-0.009-0.023-0.016-0.045-0.025-0.068c-0.046-0.124-0.091-0.248-0.127-0.373
		c-0.071-0.24-0.121-0.479-0.157-0.716c-0.011-0.072-0.026-0.145-0.034-0.216c-0.016-0.15-0.024-0.299-0.026-0.447
		c-0.001-0.031-0.005-0.062-0.005-0.092c0-0.747,0.168-1.457,0.482-2.118c0.178-0.375,0.404-0.735,0.676-1.076
		c0.8-1.005,1.995-1.847,3.505-2.467v-0.464C49.615,52.831,47.716,55.05,47.716,57.698z"/>
	<path class="st2" d="M32.786,58.271c0-2.352-1.601-5.059-5.094-6.581v0.466c0.196,0.089,0.386,0.182,0.569,0.279
		c0.264,0.139,0.515,0.285,0.752,0.438c0.894,0.578,1.596,1.25,2.124,1.963c0.192,0.259,0.364,0.523,0.51,0.791
		c0.131,0.242,0.241,0.486,0.335,0.731c0.008,0.022,0.016,0.044,0.024,0.066c0.047,0.126,0.092,0.251,0.129,0.377
		c0.07,0.24,0.12,0.478,0.156,0.715c0.011,0.072,0.026,0.145,0.034,0.216c0.016,0.15,0.023,0.299,0.026,0.447
		c0.001,0.031,0.005,0.062,0.005,0.092c0,0.747-0.168,1.457-0.482,2.119l0.424,0.114C32.617,59.806,32.786,59.058,32.786,58.271z"/>
	<path class="st2" d="M27.693,56.64c0.383,0.099,0.743,0.238,1.055,0.438c-0.314-0.293-0.666-0.564-1.055-0.817V56.64z"/>
	<path class="st2" d="M30.232,59.3c-0.024-0.073-0.035-0.149-0.063-0.221C30.188,59.154,30.216,59.223,30.232,59.3z"/>
	<path class="st2" d="M30.306,59.968l0.107,0.029c-0.034-0.21-0.096-0.412-0.159-0.614C30.287,59.57,30.297,59.769,30.306,59.968z"
		/>
	<path class="st2" d="M38.711,55.422c0.869,0.397,1.346-0.186,1.346-0.73c0-0.544-0.814-1.614-1.775-1.293
		C39.005,53.708,39.126,54.767,38.711,55.422z"/>
	<path class="st2" d="M42.221,53.399c-0.962-0.321-1.776,0.75-1.776,1.293c0,0.544,0.478,1.127,1.346,0.73
		C41.376,54.767,41.496,53.708,42.221,53.399z"/>
	<path class="st0" d="M35.203,58.02c0-0.481-0.39-0.871-0.872-0.871c-0.48,0-0.87,0.39-0.87,0.871c0,0.481,0.39,0.871,0.87,0.871
		C34.813,58.891,35.203,58.501,35.203,58.02z"/>
	<path class="st0" d="M34.717,55.563c0-0.481-0.389-0.871-0.87-0.871c-0.481,0-0.87,0.39-0.87,0.871c0,0.481,0.389,0.871,0.87,0.871
		C34.328,56.434,34.717,56.044,34.717,55.563z"/>
	<path class="st0" d="M32.363,52.528c-0.481,0-0.872,0.39-0.872,0.871c0,0.481,0.39,0.871,0.872,0.871c0.48,0,0.87-0.39,0.87-0.871
		C33.233,52.918,32.843,52.528,32.363,52.528z"/>
	<path class="st0" d="M30.353,50.745c-0.481,0-0.871,0.39-0.871,0.871c0,0.481,0.39,0.871,0.871,0.871c0.48,0,0.87-0.39,0.87-0.871
		C31.223,51.134,30.833,50.745,30.353,50.745z"/>
	<path class="st0" d="M27.961,49.581c-0.095,0-0.183,0.026-0.268,0.054v1.633c0.086,0.028,0.173,0.054,0.268,0.054
		c0.481,0,0.87-0.39,0.87-0.871C28.831,49.971,28.442,49.581,27.961,49.581z"/>
	<path class="st0" d="M46.58,43.135c0.086,0,0.155-0.069,0.155-0.155s-0.069-0.155-0.155-0.155c-0.084,0-0.153,0.069-0.153,0.155
		S46.496,43.135,46.58,43.135z"/>
	<path class="st0" d="M47.269,44.047c0.797-0.154,1.579-0.774,1.597-1.819c-1.033-0.366-2.822-0.393-3.771,0.662
		C45.533,43.968,46.531,44.193,47.269,44.047z M46.58,42.396c0.322,0,0.585,0.262,0.585,0.584s-0.263,0.584-0.585,0.584
		c-0.321,0-0.583-0.262-0.583-0.584S46.259,42.396,46.58,42.396z"/>
	<path class="st0" d="M40.601,43.135c0.085,0,0.154-0.069,0.154-0.155s-0.069-0.155-0.154-0.155c-0.086,0-0.156,0.069-0.156,0.155
		S40.515,43.135,40.601,43.135z"/>
	<path class="st0" d="M41.213,43.995c0.857,0.083,1.883-0.192,2.23-1.198c-1.274-1.097-3.402-1.067-4.593-0.685
		C39.03,43.217,40.151,43.893,41.213,43.995z M40.601,42.396c0.322,0,0.584,0.262,0.584,0.584s-0.262,0.584-0.584,0.584
		c-0.323,0-0.586-0.262-0.586-0.584S40.278,42.396,40.601,42.396z"/>
	<path class="st0" d="M49.145,40.697c-0.617-0.965-1.165-1.655-1.721-2.173c-1.393-0.788-5.373-0.983-8.726-0.418
		c0.019,1.373-0.018,2.58-0.104,3.644c1.33-0.479,3.796-0.541,5.243,0.823c0.058,0.054,0.081,0.136,0.06,0.213
		c-0.073,0.265-0.189,0.502-0.34,0.709c0.042-0.032,0.096-0.05,0.158-0.044c0.118,0.014,0.202,0.121,0.188,0.239
		c-0.094,0.783-0.836,1.379-1.5,1.675c-0.028,0.013-0.059,0.019-0.088,0.019c-0.082,0-0.16-0.047-0.196-0.127
		c-0.049-0.109,0-0.236,0.108-0.284c0.557-0.249,1.177-0.729,1.248-1.333c0.007-0.055,0.035-0.1,0.072-0.133
		c-0.436,0.591-1.163,0.934-2.037,0.934c-0.11,0-0.224-0.006-0.339-0.017c-1.113-0.108-2.275-0.776-2.649-1.875
		c-0.235,2.058-0.697,3.437-1.386,4.106c-1.052,1.021-2.013,1.387-2.997,1.392c1.671,2.396,5.288,3.52,10.249,3.153
		c2.691-0.2,4.502-1.193,5.381-2.952C51.059,45.669,49.98,42,49.145,40.697z M38.983,40.448c1.181-1.799,3.981-1.087,4.637,0.244
		C42.315,39.737,40.145,39.999,38.983,40.448z M48.916,40.448c-1-0.45-2.87-0.712-3.995,0.244
		C45.486,39.362,47.9,38.65,48.916,40.448z M44.681,42.712c1.115-1.385,3.294-1.317,4.479-0.833c0.078,0.032,0.13,0.105,0.134,0.189
		c0.063,1.378-0.962,2.21-1.942,2.4c-0.157,0.031-0.32,0.046-0.484,0.046c-0.638,0-1.298-0.245-1.768-0.802
		c0.154,0.461,0.564,0.906,1.09,1.154c0.107,0.05,0.153,0.179,0.103,0.286c-0.036,0.078-0.114,0.123-0.194,0.123
		c-0.031,0-0.063-0.006-0.092-0.021c-0.687-0.324-1.21-0.914-1.365-1.54c-0.028-0.115,0.042-0.232,0.157-0.26
		c0.047-0.012,0.088,0.003,0.128,0.019c-0.108-0.166-0.206-0.347-0.28-0.558C44.621,42.847,44.635,42.769,44.681,42.712z
		 M41.285,48.575c-0.02,0.005-0.038,0.008-0.058,0.008c-0.094,0-0.181-0.062-0.207-0.157c-0.032-0.115,0.035-0.233,0.149-0.265
		c2.065-0.577,4.8-0.463,5.686,0.018c0.104,0.057,0.144,0.187,0.087,0.292c-0.057,0.105-0.189,0.142-0.292,0.086
		C45.923,48.163,43.353,47.996,41.285,48.575z M42.776,49.566c-0.09-0.078-0.1-0.213-0.021-0.303c0.077-0.09,0.214-0.1,0.303-0.021
		c0.279,0.242,0.801,0.353,1.293,0.274c0.336-0.053,0.6-0.189,0.705-0.364c0.063-0.103,0.195-0.133,0.296-0.073
		c0.102,0.062,0.134,0.193,0.073,0.295c-0.176,0.291-0.533,0.492-1.007,0.567c-0.129,0.021-0.258,0.03-0.386,0.03
		C43.54,49.97,43.072,49.824,42.776,49.566z"/>
	<path class="st2" d="M32.468,43.035c-0.036,0.081-0.111,0.134-0.204,0.127c-0.087-0.003-0.164-0.059-0.194-0.141
		c-0.2-0.549-0.636-0.916-1.194-1.004c-0.089-0.014-0.178-0.021-0.267-0.021c-0.56,0-1.108,0.272-1.481,0.748
		c-0.562,0.716-0.481,1.832,0.194,2.712c0.598,0.778,1.787,1.473,3.263,1.904c1.56,0.458,2.756,0.437,4.254-1.015
		c0.697-0.677,1.504-2.647,1.433-8.166c-1.524,0.292-2.885,0.747-3.761,1.386c-0.002,0.002-0.006,0.001-0.008,0.003
		c-0.003,0.002-0.004,0.005-0.006,0.007C34.056,39.845,33.373,41.01,32.468,43.035z M31.07,45.349
		c0.098,0.068,0.121,0.202,0.053,0.299c-0.041,0.06-0.108,0.092-0.176,0.092c-0.043,0-0.086-0.012-0.123-0.039
		c-0.534-0.373-0.727-1.045-0.491-1.713c0.216-0.613,0.701-1.012,1.271-0.963c0.119,0.008,0.208,0.111,0.2,0.229
		c-0.008,0.119-0.109,0.216-0.229,0.2c-0.396-0.015-0.711,0.32-0.837,0.678C30.609,44.497,30.618,45.034,31.07,45.349z
		 M35.268,39.817c0.004,0,0.009,0,0.014,0c0.118,0.007,0.208,0.109,0.201,0.228c-0.039,0.616-0.475,1.975-1.067,2.702
		c-0.043,0.052-0.104,0.079-0.167,0.079c-0.048,0-0.096-0.016-0.136-0.048c-0.092-0.075-0.105-0.21-0.031-0.302
		c0.514-0.629,0.937-1.905,0.972-2.458C35.061,39.904,35.155,39.817,35.268,39.817z M33.989,43.786
		c0.481,0.329,0.77,1.012,0.434,1.505c-0.067,0.099-0.201,0.124-0.299,0.057c-0.099-0.067-0.123-0.201-0.057-0.299
		c0.188-0.276-0.018-0.7-0.32-0.908c-0.398-0.271-0.835-0.143-1.167,0.344c-0.216,0.314-0.242,0.661-0.074,0.976
		c0.225,0.422,0.756,0.693,1.355,0.693c0.007,0,0.015,0,0.021,0c0.552-0.005,1.107-0.277,1.563-0.766
		c0.585-0.626,1.537-2.192,1.336-5.638c-0.007-0.119,0.084-0.22,0.202-0.228c0.005,0,0.009,0,0.013,0
		c0.113,0,0.208,0.088,0.215,0.202c0.155,2.673-0.36,4.789-1.452,5.957c-0.537,0.575-1.202,0.896-1.873,0.902
		c-0.009,0-0.018,0-0.026,0c-0.768,0-1.431-0.352-1.734-0.921c-0.243-0.457-0.207-0.975,0.099-1.421
		C32.799,43.405,33.535,43.473,33.989,43.786z"/>
	<path class="st1" d="M34.342,36.665c0.047-0.025,0.088-0.053,0.137-0.078l-1.101-4.423l2.193,3.961
		c0.055-0.02,0.112-0.039,0.169-0.059l-0.693-4.464l1.82,4.125c0.06-0.015,0.116-0.033,0.176-0.048l-0.316-4.483l1.462,4.24
		c0.06-0.011,0.123-0.019,0.184-0.029l-0.028-4.468l1.182,4.3c0.059-0.007,0.117-0.013,0.176-0.02l0.146-4.443l1.01,4.336
		c0.073-0.005,0.145-0.011,0.218-0.016l0.546-4.391l0.604,4.342c0.073-0.001,0.147-0.006,0.22-0.007l0.851-4.277l0.28,4.289
		c0.071,0.002,0.138,0.007,0.208,0.01l1.106-4.232l0.026,4.306c0.054,0.005,0.107,0.01,0.16,0.015l1.468-4.283l-0.304,4.436
		c0.06,0.01,0.113,0.023,0.171,0.034l1.858-4.12l-0.72,4.411c0.044,0.015,0.096,0.027,0.138,0.042l2.2-3.941l-0.086,0.34
		c0.402-0.589,0.843-1.135,1.326-1.632H31.984c0.769,1.285,1.295,3.189,1.813,5.404L34.342,36.665z"/>
	<path class="st3" d="M47.859,36.206c-2.45-1.173-10.511-1.02-13.731,1.078c0.128,0.575,0.26,1.161,0.396,1.753
		c3.092-1.957,10.414-2.106,12.871-1.011C47.522,37.408,47.677,36.798,47.859,36.206z"/>
	<path d="M44.925,43.476c-0.04-0.016-0.081-0.03-0.128-0.019c-0.115,0.028-0.186,0.145-0.157,0.26
		c0.155,0.626,0.679,1.216,1.365,1.54c0.029,0.014,0.061,0.021,0.092,0.021c0.08,0,0.158-0.045,0.194-0.123
		c0.051-0.107,0.005-0.236-0.103-0.286c-0.526-0.248-0.936-0.693-1.09-1.154c0.47,0.556,1.13,0.802,1.768,0.802
		c0.164,0,0.327-0.016,0.484-0.046c0.98-0.19,2.006-1.022,1.942-2.4c-0.004-0.084-0.056-0.158-0.134-0.189
		c-1.185-0.484-3.363-0.552-4.479,0.833c-0.046,0.058-0.06,0.136-0.035,0.206C44.72,43.129,44.818,43.31,44.925,43.476z
		 M48.865,42.227c-0.018,1.045-0.8,1.665-1.597,1.819c-0.737,0.146-1.735-0.078-2.174-1.158
		C46.043,41.835,47.832,41.861,48.865,42.227z"/>
	<path d="M40.601,43.565c0.322,0,0.584-0.262,0.584-0.584s-0.262-0.584-0.584-0.584c-0.323,0-0.586,0.262-0.586,0.584
		S40.278,43.565,40.601,43.565z M40.601,42.825c0.085,0,0.154,0.069,0.154,0.155s-0.069,0.155-0.154,0.155
		c-0.086,0-0.156-0.069-0.156-0.155S40.515,42.825,40.601,42.825z"/>
	<path d="M46.58,43.565c0.322,0,0.585-0.262,0.585-0.584s-0.263-0.584-0.585-0.584c-0.321,0-0.583,0.262-0.583,0.584
		S46.259,43.565,46.58,43.565z M46.58,42.825c0.086,0,0.155,0.069,0.155,0.155s-0.069,0.155-0.155,0.155
		c-0.084,0-0.153-0.069-0.153-0.155S46.496,42.825,46.58,42.825z"/>
	<path class="st2" d="M41.791,60.547c-0.868-0.397-1.346,0.186-1.346,0.729c0,0.544,0.814,1.615,1.776,1.294
		C41.496,62.261,41.376,61.203,41.791,60.547z"/>
	<path class="st2" d="M38.282,62.57c0.96,0.321,1.775-0.75,1.775-1.294c0-0.544-0.477-1.127-1.346-0.729
		C39.126,61.203,39.005,62.261,38.282,62.57z"/>
	<path class="st0" d="M45.299,57.949c0,0.481,0.39,0.871,0.87,0.871c0.481,0,0.871-0.39,0.871-0.871c0-0.481-0.39-0.871-0.871-0.871
		C45.689,57.078,45.299,57.469,45.299,57.949z"/>
	<path class="st0" d="M46.655,61.277c0.481,0,0.87-0.39,0.87-0.871c0-0.481-0.389-0.871-0.87-0.871c-0.481,0-0.87,0.39-0.87,0.871
		C45.785,60.887,46.174,61.277,46.655,61.277z"/>
	<path class="st0" d="M48.139,63.441c0.481,0,0.87-0.39,0.87-0.871s-0.389-0.871-0.87-0.871c-0.481,0-0.871,0.39-0.871,0.871
		S47.658,63.441,48.139,63.441z"/>
	<path class="st0" d="M50.149,65.225c0.481,0,0.87-0.39,0.87-0.871c0-0.481-0.389-0.871-0.87-0.871c-0.481,0-0.87,0.39-0.87,0.871
		C49.279,64.835,49.668,65.225,50.149,65.225z"/>
	<path class="st0" d="M52.541,66.389c0.095,0,0.182-0.026,0.268-0.054v-1.634c-0.086-0.028-0.173-0.054-0.268-0.054
		c-0.481,0-0.871,0.39-0.871,0.871C51.67,65.999,52.06,66.389,52.541,66.389z"/>
	<path class="st1" d="M43.173,57.355h-1.221c0.032,0.202,0.054,0.411,0.054,0.629c0,0.219-0.022,0.427-0.054,0.629h1.221V57.355z"/>
	<path class="st1" d="M37.329,58.614h1.221c-0.032-0.202-0.054-0.411-0.054-0.629c0-0.219,0.022-0.427,0.054-0.629h-1.221V58.614z"
		/>
	<path class="st2" d="M40.252,55.778c-0.719,0-1.326,1.01-1.326,2.206s0.607,2.206,1.326,2.206c0.717,0,1.323-1.01,1.323-2.206
		S40.969,55.778,40.252,55.778z M41.234,57.985c0,0.796-0.431,1.42-0.981,1.42s-0.982-0.624-0.982-1.42s0.432-1.42,0.982-1.42
		S41.234,57.188,41.234,57.985z"/>
	<path class="st2" d="M40.252,58.975c0.261,0,0.552-0.407,0.552-0.99s-0.291-0.99-0.552-0.99c-0.262,0-0.553,0.407-0.553,0.99
		S39.99,58.975,40.252,58.975z"/>
	<path d="M40.252,56.565c-0.551,0-0.982,0.624-0.982,1.42s0.432,1.42,0.982,1.42s0.981-0.624,0.981-1.42
		S40.803,56.565,40.252,56.565z M39.699,57.985c0-0.583,0.291-0.99,0.553-0.99c0.261,0,0.552,0.407,0.552,0.99
		s-0.291,0.99-0.552,0.99C39.99,58.975,39.699,58.568,39.699,57.985z"/>
	<path d="M57.518,30.008h-5.865H31.589h-8.604c-0.119,0-0.215,0.096-0.215,0.215v10.952v13.398v0.005v0.733v1.397v3.657v1.032
		v17.854v5.674v0.822c0,0.119,0.096,0.215,0.215,0.215h5.863c0.001,0,0.001,0,0.002,0h20.064c0.001,0,0.001,0,0.002,0h8.603
		c0.119,0,0.215-0.096,0.215-0.215V74.795V61.397v-0.005v-0.733v-1.397v-3.658v-1.031V36.719v-5.674v-0.822
		C57.733,30.105,57.637,30.008,57.518,30.008z M48.519,85.532H29.374c0.484-0.497,0.924-1.044,1.327-1.633l-0.086,0.341l2.202-3.944
		c0.043,0.016,0.091,0.031,0.136,0.046l-0.72,4.411l1.857-4.121c0.057,0.011,0.113,0.021,0.171,0.032l-0.304,4.439l1.467-4.281
		c0.053,0.005,0.108,0.01,0.161,0.014l0.025,4.303l1.106-4.229c0.07,0.003,0.139,0.006,0.21,0.008l0.28,4.288l0.852-4.282
		c0.073-0.001,0.146-0.004,0.219-0.005l0.604,4.346l0.546-4.393c0.072-0.005,0.144-0.01,0.216-0.015l1.01,4.337L40.8,80.75
		c0.059-0.007,0.118-0.014,0.176-0.021l1.183,4.302l-0.029-4.472c0.061-0.01,0.122-0.02,0.182-0.031l1.463,4.246l-0.317-4.49
		c0.058-0.014,0.119-0.027,0.177-0.042l1.821,4.125l-0.692-4.462c0.056-0.019,0.117-0.035,0.172-0.054l2.19,3.955l-1.104-4.429
		c0.048-0.025,0.088-0.053,0.134-0.078l0.547,0.826C47.223,82.341,47.75,84.246,48.519,85.532z M26.669,45.174v16.877
		c-0.089,0.061-0.175,0.112-0.253,0.151c-0.32,0.158-0.51,0.594-0.423,0.97c0.072,0.314,0.32,0.517,0.676,0.582v15.281h-1.143
		V44.028L26.669,45.174z M55.943,50.048c0-0.764,0.594-1.389,1.36-1.491v2.981C56.536,51.437,55.943,50.812,55.943,50.048z
		 M55.943,45.04c0-0.764,0.594-1.389,1.36-1.491v2.981C56.536,46.429,55.943,45.804,55.943,45.04z M54.092,52.893
		c0.042,0.181-0.054,0.419-0.195,0.489c-0.537,0.264-0.946,0.706-1.183,1.276c-0.022,0.054-0.022,0.115,0.001,0.168
		c0.185,0.426,0.094,0.999-0.218,1.363c-0.15,0.175-0.484,0.448-1.021,0.307c-0.12-0.031-0.232,0.039-0.263,0.154
		s0.039,0.232,0.153,0.262c0.136,0.035,0.269,0.053,0.398,0.053c0.401,0,0.766-0.167,1.043-0.481v2.405
		c-1.344-0.388-2.198-1.515-2.198-3.064c0-0.612,0.145-1.15,0.387-1.613c0.092-0.175,0.199-0.337,0.319-0.486
		c0.036-0.044,0.069-0.09,0.107-0.131c0.139-0.152,0.294-0.287,0.462-0.405c0.027-0.019,0.048-0.043,0.076-0.06
		c0.422-0.277,0.927-0.451,1.497-0.507c0.051-0.005,0.097-0.009,0.152-0.01C53.801,52.615,54.039,52.665,54.092,52.893z
		 M50.197,56.001c0.008,0.198,0.018,0.395,0.052,0.58c-0.062-0.2-0.124-0.401-0.157-0.608L50.197,56.001z M52.809,59.33v0.377
		c-0.387-0.252-0.738-0.522-1.051-0.814C52.069,59.092,52.427,59.231,52.809,59.33z M50.332,56.886
		c-0.023-0.059-0.031-0.121-0.052-0.181C50.294,56.767,50.316,56.825,50.332,56.886z M52.553,60.073
		c0.083,0.054,0.17,0.105,0.256,0.158v0.083C52.729,60.232,52.638,60.153,52.553,60.073z M52.809,52.037v0.283
		c-0.028,0.007-0.054,0.015-0.082,0.023c-0.103,0.028-0.21,0.05-0.308,0.087c-0.193,0.073-0.372,0.166-0.544,0.268
		c-0.14,0.082-0.269,0.178-0.394,0.279c-0.116,0.093-0.231,0.187-0.333,0.294c-0.075,0.08-0.142,0.167-0.209,0.255
		c-0.106,0.137-0.201,0.282-0.286,0.437c-0.027,0.05-0.066,0.088-0.091,0.139c-0.007,0.013,0.001,0.027-0.003,0.041
		c-0.096,0.201-0.171,0.413-0.23,0.637l-1.025-0.275c-0.271,0.341-0.498,0.7-0.676,1.076l1.01,0.272
		c0.149,1.24,0.765,2.371,1.759,3.316c-0.889-0.584-1.967-1.065-3.246-1.377c0.003,0.148,0.01,0.297,0.026,0.447
		c2.108,0.539,3.632,1.556,4.632,2.701v0.851v0.625v0.461v0.275v0.663v0.465c-3.492-1.522-5.093-4.229-5.093-6.581
		c0-2.648,1.899-4.867,5.093-6.125V52.037z M47.041,57.949c0,0.481-0.39,0.871-0.871,0.871c-0.48,0-0.87-0.39-0.87-0.871
		c0-0.481,0.39-0.871,0.87-0.871C46.651,57.078,47.041,57.469,47.041,57.949z M46.655,59.535c0.481,0,0.87,0.39,0.87,0.871
		c0,0.482-0.389,0.871-0.87,0.871c-0.481,0-0.87-0.39-0.87-0.871C45.785,59.925,46.174,59.535,46.655,59.535z M48.139,61.7
		c0.481,0,0.87,0.39,0.87,0.871s-0.389,0.871-0.87,0.871c-0.481,0-0.871-0.39-0.871-0.871S47.658,61.7,48.139,61.7z M49.279,64.354
		c0-0.481,0.389-0.871,0.87-0.871c0.481,0,0.87,0.39,0.87,0.871c0,0.481-0.389,0.871-0.87,0.871
		C49.668,65.225,49.279,64.835,49.279,64.354z M52.541,64.647c0.095,0,0.182,0.026,0.268,0.054v1.634
		c-0.086,0.028-0.173,0.054-0.268,0.054c-0.481,0-0.871-0.39-0.871-0.871C51.67,65.037,52.06,64.647,52.541,64.647z M52.809,49.766
		v0.43h-2.691c-4.02,1.993-5.007,5.059-5.213,5.954c-0.025,0.106-0.128,0.17-0.234,0.166c-0.035-0.004-0.066-0.016-0.094-0.035
		h-2.15c-0.063,0-0.124-0.028-0.165-0.077c-0.04-0.048-0.058-0.112-0.047-0.175c0.137-0.783,0.555-2.542,1.699-4.38
		c0.172-0.009,0.333-0.006,0.507-0.019c0.007,0,0.012-0.002,0.019-0.002c2.843-0.215,4.766-1.286,5.715-3.186
		c0.096-0.191,0.178-0.386,0.251-0.584c0.853,0.309,1.656,0.718,2.404,1.217V49.766z M41.791,55.422
		c-0.868,0.397-1.346-0.186-1.346-0.73c0-0.544,0.814-1.614,1.776-1.293C41.496,53.708,41.376,54.767,41.791,55.422z M41.575,57.985
		c0,1.196-0.606,2.206-1.323,2.206c-0.719,0-1.326-1.01-1.326-2.206s0.607-2.206,1.326-2.206
		C40.969,55.778,41.575,56.789,41.575,57.985z M40.057,54.692c0,0.544-0.477,1.127-1.346,0.73c0.415-0.655,0.294-1.714-0.429-2.023
		C39.242,53.078,40.057,54.149,40.057,54.692z M38.55,57.355c-0.032,0.202-0.054,0.411-0.054,0.629c0,0.219,0.022,0.427,0.054,0.629
		h-1.221v-1.259H38.55z M38.711,60.547c0.869-0.397,1.346,0.186,1.346,0.729c0,0.544-0.814,1.615-1.775,1.294
		C39.005,62.261,39.126,61.203,38.711,60.547z M40.445,61.277c0-0.544,0.478-1.127,1.346-0.729c-0.414,0.656-0.294,1.714,0.43,2.023
		C41.259,62.891,40.445,61.82,40.445,61.277z M41.952,58.614c0.032-0.202,0.054-0.411,0.054-0.629c0-0.219-0.022-0.427-0.054-0.629
		h1.221v1.259H41.952z M49.77,48.248C48.891,50.007,47.08,51,44.389,51.2c-4.961,0.367-8.578-0.757-10.249-3.153
		c0.984-0.005,1.946-0.372,2.997-1.392c0.689-0.669,1.151-2.048,1.386-4.106c0.374,1.099,1.536,1.767,2.649,1.875
		c0.115,0.011,0.229,0.017,0.339,0.017c0.874,0,1.601-0.342,2.037-0.934c-0.037,0.034-0.065,0.078-0.072,0.133
		c-0.071,0.604-0.691,1.085-1.248,1.333c-0.108,0.048-0.157,0.175-0.108,0.284c0.036,0.08,0.114,0.127,0.196,0.127
		c0.029,0,0.06-0.006,0.088-0.019c0.664-0.296,1.406-0.892,1.5-1.675c0.014-0.118-0.07-0.225-0.188-0.239
		c-0.062-0.006-0.117,0.012-0.158,0.044c0.151-0.208,0.267-0.444,0.34-0.709c0.021-0.077-0.002-0.159-0.06-0.213
		c-1.447-1.364-3.914-1.303-5.243-0.823c0.086-1.063,0.123-2.27,0.104-3.644c3.354-0.565,7.333-0.37,8.726,0.418
		c0.555,0.518,1.103,1.209,1.721,2.173C49.98,42,51.059,45.669,49.77,48.248z M38.851,42.113c1.19-0.382,3.318-0.412,4.593,0.685
		c-0.348,1.006-1.373,1.281-2.23,1.198C40.151,43.893,39.03,43.217,38.851,42.113z M47.394,38.027
		c-2.457-1.095-9.779-0.946-12.871,1.011c-0.136-0.592-0.268-1.179-0.396-1.753c3.221-2.098,11.281-2.251,13.731-1.078
		C47.677,36.798,47.522,37.408,47.394,38.027z M34.495,39.575c0.003-0.002,0.004-0.005,0.006-0.007
		c0.003-0.002,0.006-0.001,0.008-0.003c0.876-0.639,2.237-1.094,3.761-1.386c0.071,5.519-0.736,7.489-1.433,8.166
		c-1.498,1.452-2.694,1.472-4.254,1.015c-1.476-0.432-2.665-1.126-3.263-1.904c-0.676-0.881-0.756-1.996-0.194-2.712
		c0.373-0.476,0.922-0.748,1.481-0.748c0.089,0,0.178,0.007,0.267,0.021c0.559,0.089,0.994,0.455,1.194,1.004
		c0.03,0.082,0.107,0.138,0.194,0.141c0.093,0.007,0.168-0.046,0.204-0.127C33.373,41.01,34.056,39.845,34.495,39.575z
		 M31.18,47.522c0.046-0.011,0.089-0.03,0.135-0.041l0.301,0c0.272,0.106,0.552,0.206,0.848,0.292
		c0.083,0.024,0.161,0.036,0.243,0.058c4.27,2.551,5.347,6.839,5.583,8.197c0.011,0.063-0.007,0.126-0.048,0.175
		c-0.04,0.049-0.101,0.077-0.164,0.077h-2.165c-0.024,0.018-0.052,0.029-0.081,0.033c-0.11,0.012-0.208-0.025-0.234-0.131
		c-0.576-2.494-2.96-5.604-7.904-6.954v-0.16c0.105-0.07,0.217-0.127,0.324-0.194C28.99,48.268,30.046,47.806,31.18,47.522z
		 M26.411,63.076c-0.047-0.202,0.064-0.424,0.194-0.488c0.538-0.265,0.946-0.707,1.183-1.276c0.022-0.054,0.022-0.115-0.001-0.168
		c-0.186-0.427-0.094-1,0.218-1.364c0.259-0.302,0.624-0.41,1.02-0.306c0.119,0.03,0.233-0.039,0.263-0.154
		c0.03-0.115-0.039-0.232-0.153-0.262c-0.555-0.144-1.076,0.013-1.441,0.43v-2.407c1.344,0.388,2.199,1.515,2.199,3.064
		c0,0.609-0.143,1.144-0.384,1.606c-0.094,0.18-0.204,0.345-0.327,0.498c-0.034,0.041-0.065,0.084-0.1,0.123
		c-0.141,0.155-0.298,0.292-0.47,0.412c-0.024,0.017-0.044,0.039-0.069,0.055c-0.422,0.277-0.927,0.452-1.498,0.507
		c-0.051,0.005-0.097,0.009-0.152,0.01C26.701,63.355,26.464,63.305,26.411,63.076z M30.306,59.968
		c-0.008-0.2-0.018-0.399-0.052-0.586c0.063,0.202,0.125,0.405,0.159,0.614L30.306,59.968z M27.693,56.64v-0.379
		c0.388,0.253,0.741,0.524,1.055,0.817C28.435,56.878,28.076,56.739,27.693,56.64z M30.168,59.079
		c0.028,0.072,0.039,0.148,0.063,0.221C30.216,59.223,30.188,59.154,30.168,59.079z M27.95,55.896
		c-0.083-0.054-0.171-0.106-0.258-0.159v-0.083C27.773,55.737,27.864,55.816,27.95,55.896z M31.875,60.39l-1.009-0.271
		c-0.149-1.241-0.766-2.372-1.76-3.317c0.889,0.585,1.967,1.065,3.247,1.377c-0.003-0.148-0.01-0.297-0.026-0.447
		c-2.109-0.539-3.633-1.557-4.633-2.702v-0.85v-0.628v-0.455V52.82v-0.664V51.69c3.493,1.522,5.094,4.229,5.094,6.581
		c0,0.787-0.169,1.535-0.488,2.233L31.875,60.39z M32.977,55.563c0-0.481,0.389-0.871,0.87-0.871c0.481,0,0.87,0.39,0.87,0.871
		c0,0.481-0.389,0.871-0.87,0.871C33.366,56.434,32.977,56.044,32.977,55.563z M32.363,54.27c-0.481,0-0.872-0.39-0.872-0.871
		c0-0.481,0.39-0.871,0.872-0.871c0.48,0,0.87,0.39,0.87,0.871C33.233,53.879,32.843,54.27,32.363,54.27z M31.223,51.615
		c0,0.481-0.39,0.871-0.87,0.871c-0.481,0-0.871-0.39-0.871-0.871c0-0.481,0.39-0.871,0.871-0.871
		C30.833,50.745,31.223,51.134,31.223,51.615z M27.961,51.322c-0.095,0-0.183-0.026-0.268-0.054v-1.633
		c0.086-0.028,0.173-0.054,0.268-0.054c0.481,0,0.87,0.39,0.87,0.871C28.831,50.932,28.442,51.322,27.961,51.322z M27.693,63.933
		v-0.282c0.028-0.007,0.055-0.015,0.083-0.023c0.103-0.028,0.21-0.05,0.308-0.087c0.194-0.073,0.374-0.167,0.547-0.269
		c0.139-0.081,0.265-0.176,0.389-0.276c0.117-0.094,0.233-0.188,0.336-0.297c0.074-0.079,0.139-0.165,0.206-0.251
		c0.109-0.14,0.206-0.288,0.292-0.446c0.026-0.047,0.063-0.084,0.087-0.133c0.006-0.013-0.001-0.026,0.002-0.039
		c0.096-0.201,0.172-0.415,0.232-0.64l1.024,0.275l0.452,0.122c-0.873,1.164-2.226,2.128-3.958,2.81V63.933z M33.461,58.02
		c0-0.481,0.39-0.871,0.87-0.871c0.481,0,0.872,0.39,0.872,0.871c0,0.481-0.39,0.871-0.872,0.871
		C33.851,58.891,33.461,58.501,33.461,58.02z M24.558,65.922c0,0.764-0.593,1.389-1.359,1.491v-2.981
		C23.966,64.533,24.558,65.158,24.558,65.922z M24.558,70.93c0,0.764-0.593,1.389-1.359,1.491V69.44
		C23.966,69.541,24.558,70.166,24.558,70.93z M23.199,55.568v-0.95v-0.203c0.766,0.102,1.359,0.727,1.359,1.491
		c0,0.764-0.593,1.389-1.359,1.491V55.568z M24.558,45.888c0,0.764-0.593,1.389-1.359,1.491v-2.981
		C23.966,44.499,24.558,45.124,24.558,45.888z M23.199,49.406c0.766,0.102,1.359,0.727,1.359,1.49c0,0.764-0.593,1.389-1.359,1.49
		V49.406z M23.199,61.353V60.15v-0.728c0.766,0.102,1.359,0.727,1.359,1.491c0,0.764-0.593,1.389-1.359,1.491V61.353z
		 M23.199,74.448c0.766,0.102,1.359,0.726,1.359,1.49c0,0.764-0.593,1.389-1.359,1.49V74.448z M23.199,83.22v-2.953v-0.802h4.278
		h1.604l-5.883,4.995V83.22z M27.693,66.204v-0.43h2.694c4.019-1.993,5.005-5.059,5.211-5.954c0.025-0.106,0.124-0.174,0.234-0.166
		c0.035,0.004,0.066,0.016,0.094,0.035h2.15c0.063,0,0.124,0.028,0.164,0.076c0.041,0.049,0.059,0.113,0.048,0.175
		c-0.136,0.783-0.552,2.543-1.697,4.382c-0.173,0.009-0.335,0.006-0.511,0.019c-0.005,0-0.01,0.001-0.015,0.002
		c-2.844,0.214-4.768,1.285-5.717,3.186c-0.096,0.191-0.178,0.387-0.251,0.585c-0.854-0.309-1.657-0.718-2.404-1.217V66.204z
		 M30.733,67.721c0.879-1.759,2.688-2.751,5.379-2.951c0.619-0.046,1.217-0.068,1.794-0.068c4.042,0,7.001,1.125,8.463,3.225
		c-0.986,0.004-1.949,0.366-3.003,1.389c-0.69,0.67-1.152,2.048-1.387,4.103c-0.375-1.098-1.536-1.765-2.649-1.872
		c-1.009-0.102-1.865,0.24-2.359,0.893c0.027-0.031,0.052-0.065,0.057-0.109c0.07-0.604,0.69-1.084,1.247-1.333
		c0.108-0.048,0.157-0.175,0.108-0.284c-0.049-0.108-0.176-0.157-0.284-0.108c-0.664,0.296-1.406,0.893-1.499,1.676
		c-0.014,0.118,0.071,0.225,0.188,0.238c0.009,0.001,0.018,0.001,0.025,0.001c0.052,0,0.101-0.02,0.139-0.053
		c-0.154,0.21-0.273,0.448-0.346,0.716c-0.021,0.077,0.002,0.159,0.06,0.213c0.884,0.833,2.148,1.136,3.302,1.136
		c0.735,0,1.422-0.125,1.939-0.311c-0.086,1.063-0.123,2.27-0.103,3.643c-3.355,0.565-7.335,0.37-8.726-0.418
		c-0.552-0.515-1.099-1.205-1.721-2.173C30.523,73.97,29.444,70.301,30.733,67.721z M41.652,73.857
		c-1.189,0.383-3.317,0.414-4.592-0.685c0.347-1.005,1.369-1.283,2.229-1.197C40.352,72.077,41.472,72.752,41.652,73.857z
		 M33.109,77.943c1.076,0.479,3.082,0.72,5.258,0.676c0.622-0.013,1.257-0.049,1.889-0.109c2.21-0.211,4.372-0.722,5.724-1.578
		c0.133,0.578,0.261,1.15,0.386,1.711l0.01,0.042c-3.221,2.098-11.278,2.251-13.731,1.078C32.824,79.177,32.98,78.567,33.109,77.943
		z M46.007,76.395c-0.003,0.002-0.005,0.006-0.008,0.008c-0.002,0.001-0.005,0-0.007,0.001c-0.179,0.13-0.377,0.253-0.593,0.369
		c-0.844,0.45-1.955,0.785-3.168,1.018c-0.074-5.517,0.735-7.488,1.433-8.166c1.5-1.453,2.694-1.473,4.254-1.015
		c1.477,0.432,2.666,1.126,3.263,1.905c0.676,0.88,0.756,1.996,0.194,2.712c-0.433,0.552-1.108,0.828-1.75,0.727
		c-0.558-0.089-0.993-0.455-1.192-1.004c-0.03-0.082-0.106-0.138-0.194-0.141c-0.076,0.01-0.167,0.047-0.204,0.127
		C47.129,74.96,46.446,76.124,46.007,76.395z M49.323,68.447c-0.046,0.011-0.089,0.03-0.135,0.041l-0.302,0
		c-0.272-0.106-0.552-0.206-0.847-0.292c-0.087-0.025-0.171-0.043-0.257-0.066c-0.627-0.375-1.191-0.784-1.687-1.22
		c-0.025-0.026-0.055-0.049-0.081-0.075c-2.808-2.516-3.602-5.75-3.8-6.895c-0.011-0.063,0.007-0.126,0.048-0.175
		c0.04-0.048,0.101-0.076,0.164-0.076h2.164c0.024-0.018,0.052-0.029,0.081-0.033c0.116-0.009,0.209,0.025,0.234,0.131
		c0.576,2.494,2.96,5.604,7.903,6.954v0.161c-0.104,0.07-0.216,0.127-0.322,0.193C51.513,67.701,50.456,68.163,49.323,68.447z
		 M53.834,70.796V53.918c0.089-0.061,0.175-0.112,0.253-0.151c0.32-0.159,0.511-0.595,0.424-0.972
		c-0.073-0.314-0.321-0.516-0.677-0.581V36.934h1.143v35.008L53.834,70.796z M55.943,70.082c0-0.764,0.594-1.389,1.36-1.491v2.981
		C56.536,71.471,55.943,70.846,55.943,70.082z M57.303,66.564c-0.767-0.102-1.36-0.727-1.36-1.491c0-0.764,0.594-1.389,1.36-1.49
		V66.564z M57.303,61.351v0.002v0.203c-0.767-0.102-1.36-0.727-1.36-1.491s0.594-1.389,1.36-1.49v0.854v0.974V61.351z
		 M57.303,54.617v1.201v0.728c-0.767-0.102-1.36-0.727-1.36-1.491c0-0.764,0.594-1.389,1.36-1.491V54.617z M57.303,41.521
		c-0.767-0.102-1.36-0.727-1.36-1.49c0-0.764,0.594-1.389,1.36-1.491V41.521z M57.303,36.505h-4.279H51.42l5.883-4.995v1.239v2.953
		V36.505z M51.127,30.438c-0.483,0.497-0.924,1.043-1.326,1.632l0.086-0.34l-2.2,3.941c-0.042-0.015-0.094-0.028-0.138-0.042
		l0.72-4.411l-1.858,4.12c-0.058-0.011-0.112-0.024-0.171-0.034l0.304-4.436l-1.468,4.283c-0.053-0.005-0.107-0.01-0.16-0.015
		l-0.026-4.306l-1.106,4.232c-0.07-0.003-0.137-0.008-0.208-0.01l-0.28-4.289l-0.851,4.277c-0.073,0.001-0.147,0.005-0.22,0.007
		l-0.604-4.342l-0.546,4.391c-0.073,0.005-0.145,0.011-0.218,0.016l-1.01-4.336l-0.146,4.443c-0.059,0.007-0.117,0.013-0.176,0.02
		l-1.182-4.3l0.028,4.468c-0.061,0.01-0.123,0.018-0.184,0.029l-1.462-4.24l0.316,4.483c-0.06,0.015-0.117,0.033-0.176,0.048
		l-1.82-4.125l0.693,4.464c-0.056,0.02-0.113,0.039-0.169,0.059l-2.193-3.961l1.101,4.423c-0.048,0.025-0.09,0.053-0.137,0.078
		l-0.545-0.823c-0.518-2.215-1.044-4.119-1.813-5.404H51.127z M57.303,30.946l-6.607,5.609c-0.069,0.059-0.095,0.153-0.063,0.238
		c0.031,0.084,0.112,0.141,0.202,0.141h1.975V48.58c-0.714-0.452-1.47-0.837-2.277-1.128c0.808-2.804-0.404-6.019-1.025-6.987
		c-0.612-0.957-1.163-1.653-1.722-2.189c0.07-0.356,0.148-0.704,0.234-1.044c0.066-0.26,0.142-0.513,0.218-0.767
		c0.74-2.483,1.911-4.509,3.507-6.028h5.559V30.946z M31.467,30.438c1.023,1.537,1.656,4.338,2.322,7.309
		c0.115,0.512,0.233,1.035,0.354,1.559c-0.48,0.39-1.071,1.374-1.88,3.139c-0.298-0.461-0.761-0.765-1.32-0.854
		c-0.801-0.127-1.626,0.212-2.153,0.886c-0.684,0.871-0.604,2.203,0.19,3.24c0.416,0.541,1.083,1.04,1.915,1.451
		c-1.149,0.31-2.221,0.782-3.203,1.405v-2.892c0-0.057-0.022-0.111-0.063-0.152l-4.431-4.444V30.438H31.467z M23.199,85.024
		l6.607-5.609c0.069-0.059,0.095-0.153,0.063-0.238c-0.031-0.084-0.112-0.141-0.202-0.141h-1.976V67.389
		c0.714,0.452,1.471,0.837,2.278,1.128c-0.808,2.804,0.405,6.02,1.025,6.988c0.616,0.96,1.166,1.655,1.722,2.188
		c-0.071,0.359-0.149,0.71-0.236,1.053c-0.063,0.249-0.136,0.49-0.208,0.732c-0.739,2.495-1.913,4.529-3.516,6.055h-5.559V85.024z
		 M49.035,85.531c-1.025-1.541-1.66-4.353-2.328-7.335c-0.113-0.504-0.229-1.017-0.347-1.533c0.48-0.389,1.071-1.374,1.88-3.139
		c0.298,0.461,0.759,0.765,1.318,0.854c0.793,0.129,1.626-0.211,2.155-0.886c0.683-0.871,0.604-2.204-0.19-3.24
		c-0.416-0.541-1.083-1.041-1.916-1.451c1.149-0.31,2.22-0.782,3.202-1.405v2.892c0,0.057,0.022,0.111,0.063,0.152l4.432,4.444
		v10.648H49.035z"/>
	<path class="st1" d="M18.912,34.393c0.468,0,0.849-0.191,1.093-0.536c0.204-0.3,0.306-0.709,0.306-1.273
		c0-0.082,0-0.182-0.007-0.309c-0.007-0.336-0.007-0.545-0.007-0.736v-2.909c0-0.827,0.054-0.918,0.618-0.945v-0.236h-2.152v0.236
		c0.584,0.027,0.645,0.118,0.645,0.945v4.09c0,1.063-0.095,1.427-0.374,1.427c-0.204,0-0.326-0.227-0.339-0.627
		c-0.014-0.318-0.014-0.318-0.047-0.4c-0.048-0.118-0.177-0.191-0.333-0.191c-0.326,0-0.557,0.236-0.557,0.564
		C17.757,34.021,18.232,34.393,18.912,34.393z"/>
	<path class="st1" d="M27.94,41.208c0.471-1.643,2.372-4.217,3.914-5.097c-1.542-0.879-3.443-3.455-3.914-5.097
		c-0.471,1.642-2.37,4.218-3.912,5.097C25.57,36.991,27.469,39.566,27.94,41.208z"/>
	<path class="st1" d="M19.292,36.035c-0.248,0.867-1.251,2.227-2.066,2.692c0.814,0.464,1.818,1.823,2.066,2.691
		c0.249-0.868,1.252-2.227,2.067-2.691C20.544,38.262,19.541,36.902,19.292,36.035z"/>
	<path class="st1" d="M61.63,81.506c-0.468,0-0.849,0.191-1.093,0.536c-0.204,0.3-0.306,0.709-0.306,1.273
		c0,0.082,0,0.182,0.007,0.309c0.007,0.336,0.007,0.546,0.007,0.736v2.909c0,0.827-0.054,0.918-0.618,0.945v0.236h2.152v-0.236
		c-0.584-0.027-0.645-0.118-0.645-0.945v-4.09c0-1.063,0.095-1.427,0.374-1.427c0.204,0,0.326,0.227,0.339,0.627
		c0.014,0.318,0.014,0.318,0.047,0.4c0.048,0.118,0.177,0.191,0.333,0.191c0.326,0,0.557-0.236,0.557-0.563
		C62.784,81.878,62.309,81.506,61.63,81.506z"/>
	<path class="st1" d="M61.249,74.481c-0.248,0.868-1.251,2.227-2.066,2.691c0.814,0.465,1.818,1.824,2.066,2.692
		c0.25-0.867,1.254-2.227,2.067-2.692C62.503,76.707,61.499,75.348,61.249,74.481z"/>
	<path class="st1" d="M52.562,74.761c-0.471,1.642-2.371,4.217-3.914,5.096c1.542,0.879,3.443,3.455,3.914,5.097
		c0.471-1.642,2.371-4.218,3.914-5.097C54.933,78.978,53.033,76.403,52.562,74.761z"/>
	<path d="M46.651,48.557c0.103,0.056,0.235,0.019,0.292-0.086c0.057-0.104,0.018-0.235-0.087-0.292
		c-0.886-0.481-3.62-0.595-5.686-0.018c-0.114,0.032-0.182,0.15-0.149,0.265c0.026,0.095,0.113,0.157,0.207,0.157
		c0.02,0,0.038-0.002,0.058-0.008C43.353,47.996,45.923,48.163,46.651,48.557z"/>
	<path d="M45.424,49.373c0.061-0.102,0.028-0.233-0.073-0.295c-0.101-0.06-0.233-0.029-0.296,0.073
		c-0.105,0.175-0.369,0.311-0.705,0.364c-0.492,0.079-1.014-0.032-1.293-0.274c-0.089-0.079-0.226-0.069-0.303,0.021
		c-0.078,0.09-0.068,0.226,0.021,0.303c0.297,0.259,0.765,0.405,1.256,0.405c0.128,0,0.257-0.01,0.386-0.03
		C44.891,49.865,45.248,49.664,45.424,49.373z"/>
	<path d="M38.983,40.448c1.161-0.45,3.332-0.712,4.637,0.244C42.964,39.362,40.164,38.65,38.983,40.448z"/>
	<path d="M48.916,40.448c-1.016-1.799-3.43-1.087-3.995,0.244C46.046,39.737,47.916,39.999,48.916,40.448z"/>
	<path d="M32.225,44.242c-0.306,0.446-0.342,0.964-0.099,1.421c0.304,0.569,0.967,0.921,1.734,0.921c0.009,0,0.018,0,0.026,0
		c0.671-0.006,1.336-0.327,1.873-0.902c1.092-1.168,1.607-3.284,1.452-5.957c-0.007-0.114-0.102-0.202-0.215-0.202
		c-0.004,0-0.008,0-0.013,0c-0.118,0.007-0.209,0.109-0.202,0.228c0.201,3.446-0.751,5.012-1.336,5.638
		c-0.456,0.488-1.012,0.76-1.563,0.766c-0.007,0-0.015,0-0.021,0c-0.6,0-1.131-0.271-1.355-0.693
		c-0.168-0.315-0.142-0.661,0.074-0.976c0.332-0.487,0.769-0.616,1.167-0.344c0.303,0.208,0.509,0.631,0.32,0.908
		c-0.066,0.098-0.042,0.231,0.057,0.299c0.098,0.067,0.231,0.042,0.299-0.057c0.336-0.493,0.048-1.176-0.434-1.505
		C33.535,43.473,32.799,43.405,32.225,44.242z"/>
	<path d="M31.574,43.455c0.12,0.017,0.222-0.081,0.229-0.2c0.008-0.118-0.081-0.221-0.2-0.229c-0.57-0.049-1.056,0.35-1.271,0.963
		c-0.235,0.667-0.043,1.34,0.491,1.713c0.037,0.026,0.08,0.039,0.123,0.039c0.067,0,0.135-0.032,0.176-0.092
		c0.068-0.097,0.045-0.231-0.053-0.299c-0.451-0.315-0.461-0.853-0.332-1.217C30.863,43.775,31.179,43.44,31.574,43.455z"/>
	<path d="M34.112,42.778c0.04,0.033,0.088,0.048,0.136,0.048c0.063,0,0.124-0.027,0.167-0.079c0.593-0.727,1.028-2.086,1.067-2.702
		c0.007-0.119-0.083-0.221-0.201-0.228c-0.005,0-0.01,0-0.014,0c-0.112,0-0.207,0.087-0.215,0.201
		c-0.035,0.553-0.458,1.828-0.972,2.458C34.007,42.567,34.021,42.703,34.112,42.778z"/>
	<polygon class="st2" points="57.303,32.749 57.303,31.51 51.42,36.505 53.024,36.505 57.303,36.505 57.303,35.702 53.825,35.702 	
		"/>
	<polygon class="st1" points="53.825,35.702 57.303,35.702 57.303,32.749 	"/>
	<path class="st2" d="M54.977,36.934h-1.143v15.281c0.357,0.065,0.605,0.267,0.677,0.581c0.087,0.377-0.104,0.813-0.424,0.972
		c-0.079,0.039-0.165,0.09-0.253,0.151v16.878l1.143,1.146V36.934z"/>
	<path class="st2" d="M55.943,40.031c0,0.764,0.594,1.389,1.36,1.49v-2.981C56.536,38.642,55.943,39.267,55.943,40.031z"/>
	<path class="st2" d="M57.303,48.557c-0.767,0.102-1.36,0.727-1.36,1.491c0,0.764,0.594,1.389,1.36,1.491V48.557z"/>
	<path class="st2" d="M55.943,45.04c0,0.764,0.594,1.389,1.36,1.49v-2.981C56.536,43.65,55.943,44.276,55.943,45.04z"/>
	<path class="st2" d="M57.303,59.428v-0.854c-0.767,0.102-1.36,0.726-1.36,1.49s0.594,1.389,1.36,1.491v-0.203v-0.002v-0.949V59.428
		z"/>
	<path class="st2" d="M55.943,70.082c0,0.763,0.594,1.389,1.36,1.49v-2.981C56.536,68.693,55.943,69.318,55.943,70.082z"/>
	<path class="st2" d="M55.943,65.073c0,0.764,0.594,1.389,1.36,1.491v-2.981C56.536,63.685,55.943,64.31,55.943,65.073z"/>
	<path class="st2" d="M57.303,53.566c-0.767,0.102-1.36,0.727-1.36,1.491c0,0.764,0.594,1.389,1.36,1.491v-0.728v-1.201V53.566z"/>
	<path class="st0" d="M53.458,52.624c-0.57,0.056-1.075,0.23-1.497,0.507c-0.027,0.018-0.049,0.042-0.076,0.06
		c-0.168,0.119-0.323,0.253-0.462,0.405c-0.038,0.041-0.071,0.087-0.107,0.131c-0.12,0.149-0.227,0.31-0.319,0.486
		c-0.242,0.463-0.387,1.001-0.387,1.613c0,1.549,0.855,2.676,2.198,3.064v-2.405c-0.277,0.313-0.642,0.481-1.043,0.481
		c-0.13,0-0.263-0.018-0.398-0.053c-0.114-0.03-0.184-0.147-0.153-0.262s0.143-0.185,0.263-0.154
		c0.536,0.141,0.87-0.132,1.021-0.307c0.312-0.364,0.402-0.937,0.218-1.363c-0.023-0.053-0.023-0.114-0.001-0.168
		c0.236-0.571,0.646-1.012,1.183-1.276c0.142-0.07,0.237-0.308,0.195-0.489c-0.053-0.228-0.291-0.277-0.481-0.279
		C53.555,52.615,53.509,52.619,53.458,52.624z"/>
	<path class="st0" d="M33.921,72.835c-0.085,0-0.154,0.069-0.154,0.155s0.069,0.155,0.154,0.155c0.086,0,0.156-0.069,0.156-0.155
		S34.007,72.835,33.921,72.835z"/>
	<path class="st0" d="M33.234,71.923c-0.797,0.154-1.579,0.774-1.597,1.82c1.036,0.367,2.824,0.391,3.771-0.662
		C34.969,72.002,33.973,71.779,33.234,71.923z M33.921,73.574c-0.322,0-0.584-0.262-0.584-0.584s0.262-0.584,0.584-0.584
		c0.323,0,0.586,0.262,0.586,0.584S34.244,73.574,33.921,73.574z"/>
	<path class="st0" d="M39.288,71.975c-0.859-0.085-1.882,0.192-2.229,1.197c1.274,1.098,3.402,1.067,4.592,0.685
		C41.472,72.752,40.352,72.077,39.288,71.975z M39.902,73.574c-0.322,0-0.584-0.262-0.584-0.584s0.262-0.584,0.584-0.584
		s0.584,0.262,0.584,0.584S40.224,73.574,39.902,73.574z"/>
	<circle class="st0" cx="39.902" cy="72.989" r="0.155"/>
	<path class="st0" d="M31.358,75.273c0.621,0.968,1.169,1.658,1.721,2.173c1.392,0.788,5.372,0.983,8.726,0.418
		c-0.02-1.373,0.017-2.58,0.103-3.643c-0.517,0.186-1.205,0.311-1.939,0.311c-1.153,0-2.418-0.303-3.302-1.136
		c-0.058-0.054-0.081-0.136-0.06-0.213c0.073-0.268,0.193-0.506,0.346-0.716c-0.038,0.032-0.087,0.053-0.139,0.053
		c-0.008,0-0.017,0-0.025-0.001c-0.117-0.014-0.202-0.121-0.188-0.238c0.093-0.783,0.835-1.379,1.499-1.676
		c0.108-0.048,0.235,0,0.284,0.108c0.049,0.109,0,0.236-0.108,0.284c-0.557,0.249-1.177,0.729-1.247,1.333
		c-0.005,0.044-0.03,0.078-0.057,0.109c0.494-0.653,1.35-0.995,2.359-0.893c1.113,0.107,2.274,0.774,2.649,1.872
		c0.235-2.055,0.697-3.433,1.387-4.103c1.054-1.023,2.017-1.384,3.003-1.389c-1.462-2.1-4.421-3.225-8.463-3.225
		c-0.577,0-1.175,0.022-1.794,0.068c-2.69,0.2-4.5,1.192-5.379,2.951C29.444,70.301,30.523,73.97,31.358,75.273z M41.519,75.522
		c-1.181,1.799-3.981,1.086-4.637-0.244C38.187,76.233,40.358,75.971,41.519,75.522z M31.586,75.522c1,0.449,2.87,0.711,3.995-0.244
		C35.016,76.608,32.602,77.32,31.586,75.522z M35.821,73.258c-0.679,0.843-1.752,1.148-2.756,1.148
		c-0.644,0-1.259-0.125-1.723-0.315c-0.078-0.032-0.13-0.105-0.134-0.189c-0.063-1.378,0.963-2.211,1.942-2.401
		c0.767-0.148,1.659,0.053,2.249,0.748c-0.156-0.458-0.564-0.9-1.088-1.147c-0.107-0.05-0.153-0.179-0.103-0.286
		c0.05-0.108,0.182-0.153,0.286-0.103c0.688,0.324,1.211,0.914,1.366,1.54c0.028,0.115-0.042,0.232-0.157,0.26
		c-0.018,0.004-0.035,0.006-0.052,0.006c-0.029,0-0.052-0.016-0.078-0.026c0.108,0.166,0.206,0.347,0.281,0.559
		C35.881,73.122,35.867,73.2,35.821,73.258z M39.217,67.395c0.104-0.033,0.232,0.034,0.265,0.149s-0.035,0.233-0.149,0.265
		c-0.968,0.271-2.083,0.39-3.086,0.39c-1.136,0-2.128-0.152-2.6-0.408c-0.104-0.057-0.144-0.187-0.087-0.292
		s0.189-0.142,0.292-0.086C34.579,67.807,37.152,67.972,39.217,67.395z M37.727,66.404c0.089,0.078,0.099,0.214,0.021,0.303
		c-0.079,0.09-0.213,0.1-0.304,0.021c-0.277-0.242-0.801-0.351-1.289-0.274c-0.338,0.053-0.602,0.189-0.707,0.364
		c-0.041,0.067-0.112,0.104-0.185,0.104c-0.038,0-0.076-0.01-0.111-0.031c-0.102-0.062-0.134-0.193-0.073-0.295
		c0.176-0.292,0.534-0.493,1.009-0.567C36.715,65.931,37.355,66.08,37.727,66.404z"/>
	<path class="st2" d="M48.034,72.934c0.037-0.08,0.128-0.117,0.204-0.127c0.088,0.003,0.164,0.059,0.194,0.141
		c0.199,0.549,0.635,0.916,1.192,1.004c0.642,0.101,1.317-0.174,1.75-0.727c0.562-0.716,0.481-1.832-0.194-2.712
		c-0.597-0.778-1.786-1.473-3.263-1.905c-1.56-0.458-2.754-0.438-4.254,1.015c-0.698,0.678-1.507,2.649-1.433,8.166
		c1.213-0.232,2.324-0.567,3.168-1.018c0.216-0.115,0.415-0.238,0.593-0.369c0.002-0.001,0.005,0,0.007-0.001
		c0.003-0.002,0.005-0.006,0.008-0.008C46.446,76.124,47.129,74.96,48.034,72.934z M49.433,70.62
		c-0.098-0.068-0.121-0.202-0.054-0.299c0.069-0.098,0.205-0.121,0.3-0.053c0.534,0.373,0.727,1.044,0.492,1.711
		c-0.208,0.587-0.684,0.967-1.2,0.967c-0.024,0-0.048,0-0.072-0.002c-0.118-0.008-0.208-0.111-0.2-0.229
		c0.009-0.118,0.117-0.205,0.229-0.2c0.415,0.022,0.711-0.321,0.837-0.679C49.894,71.472,49.884,70.935,49.433,70.62z
		 M45.233,76.153c-0.005,0-0.01,0-0.015,0c-0.118-0.008-0.208-0.11-0.2-0.229c0.041-0.617,0.478-1.976,1.068-2.701
		c0.075-0.092,0.211-0.106,0.303-0.031c0.092,0.075,0.106,0.21,0.031,0.303c-0.512,0.628-0.937,1.904-0.973,2.458
		C45.44,76.067,45.345,76.153,45.233,76.153z M46.514,72.185c-0.481-0.329-0.771-1.012-0.436-1.505
		c0.067-0.099,0.201-0.123,0.299-0.057c0.098,0.067,0.123,0.201,0.057,0.299c-0.188,0.277,0.019,0.701,0.322,0.908
		c0.189,0.13,0.685,0.358,1.166-0.345c0.216-0.314,0.242-0.661,0.074-0.975c-0.227-0.427-0.792-0.692-1.377-0.693
		c-0.552,0.006-1.107,0.277-1.563,0.766c-0.585,0.626-1.537,2.192-1.336,5.639c0.007,0.119-0.084,0.22-0.202,0.228
		c-0.005,0-0.009,0-0.013,0c-0.113,0-0.208-0.088-0.215-0.202c-0.155-2.673,0.36-4.789,1.452-5.958
		c0.537-0.575,1.202-0.895,1.873-0.901c0.008,0,0.017,0,0.025,0c0.769,0,1.432,0.352,1.735,0.921
		c0.243,0.456,0.207,0.974-0.099,1.42C47.703,72.563,46.968,72.494,46.514,72.185z"/>
	<path class="st1" d="M46.157,79.299c-0.047,0.025-0.086,0.054-0.134,0.078l1.104,4.429l-2.19-3.955
		c-0.055,0.02-0.116,0.035-0.172,0.054l0.692,4.462l-1.821-4.125c-0.058,0.015-0.118,0.027-0.177,0.042l0.317,4.49l-1.463-4.246
		c-0.06,0.011-0.122,0.021-0.182,0.031l0.029,4.472l-1.183-4.302c-0.059,0.007-0.117,0.014-0.176,0.021l-0.146,4.444l-1.01-4.337
		c-0.072,0.005-0.144,0.01-0.216,0.015l-0.546,4.393l-0.604-4.346c-0.073,0.001-0.146,0.004-0.219,0.005l-0.852,4.282l-0.28-4.288
		c-0.071-0.002-0.14-0.005-0.21-0.008l-1.106,4.229l-0.025-4.303c-0.054-0.005-0.108-0.009-0.161-0.014l-1.467,4.281l0.304-4.439
		c-0.058-0.01-0.115-0.021-0.171-0.032l-1.857,4.121l0.72-4.411c-0.045-0.015-0.093-0.03-0.136-0.046l-2.202,3.944l0.086-0.341
		c-0.403,0.589-0.843,1.136-1.327,1.633h19.145c-0.769-1.285-1.296-3.19-1.814-5.407L46.157,79.299z"/>
	<path class="st3" d="M32.644,79.764c2.453,1.174,10.511,1.021,13.731-1.078l-0.01-0.042c-0.125-0.561-0.253-1.133-0.386-1.711
		c-1.352,0.856-3.514,1.366-5.724,1.578c-0.632,0.06-1.267,0.096-1.889,0.109c-2.176,0.044-4.182-0.197-5.258-0.676
		C32.98,78.567,32.824,79.177,32.644,79.764z"/>
	<path d="M35.576,72.493c0.026,0.01,0.049,0.026,0.078,0.026c0.017,0,0.034-0.002,0.052-0.006c0.115-0.028,0.186-0.145,0.157-0.26
		c-0.155-0.626-0.679-1.216-1.366-1.54c-0.104-0.05-0.236-0.005-0.286,0.103c-0.051,0.107-0.005,0.236,0.103,0.286
		c0.524,0.247,0.932,0.689,1.088,1.147c-0.591-0.695-1.482-0.896-2.249-0.748c-0.979,0.19-2.006,1.022-1.942,2.401
		c0.004,0.084,0.056,0.158,0.134,0.189c0.464,0.19,1.079,0.315,1.723,0.315c1.004,0,2.077-0.305,2.756-1.148
		c0.046-0.058,0.06-0.136,0.035-0.206C35.782,72.84,35.684,72.66,35.576,72.493z M31.637,73.743c0.018-1.045,0.8-1.666,1.597-1.82
		c0.739-0.144,1.735,0.079,2.174,1.158C34.461,74.133,32.673,74.11,31.637,73.743z"/>
	<path d="M39.902,72.405c-0.322,0-0.584,0.262-0.584,0.584s0.262,0.584,0.584,0.584s0.584-0.262,0.584-0.584
		S40.224,72.405,39.902,72.405z M39.902,73.144c-0.085,0-0.154-0.069-0.154-0.155s0.069-0.155,0.154-0.155s0.154,0.069,0.154,0.155
		S39.986,73.144,39.902,73.144z"/>
	<path d="M33.921,72.405c-0.322,0-0.584,0.262-0.584,0.584s0.262,0.584,0.584,0.584c0.323,0,0.586-0.262,0.586-0.584
		S34.244,72.405,33.921,72.405z M33.921,73.144c-0.085,0-0.154-0.069-0.154-0.155s0.069-0.155,0.154-0.155
		c0.086,0,0.156,0.069,0.156,0.155S34.007,73.144,33.921,73.144z"/>
	<path d="M33.852,67.413c-0.103-0.055-0.235-0.018-0.292,0.086s-0.018,0.235,0.087,0.292c0.472,0.255,1.464,0.408,2.6,0.408
		c1.003,0,2.118-0.119,3.086-0.39c0.114-0.032,0.182-0.15,0.149-0.265s-0.16-0.182-0.265-0.149
		C37.152,67.972,34.579,67.807,33.852,67.413z"/>
	<path d="M35.078,66.597c-0.061,0.102-0.028,0.233,0.073,0.295c0.035,0.021,0.073,0.031,0.111,0.031
		c0.072,0,0.144-0.037,0.185-0.104c0.105-0.175,0.369-0.312,0.707-0.364c0.488-0.077,1.012,0.033,1.289,0.274
		c0.091,0.079,0.225,0.069,0.304-0.021c0.078-0.089,0.068-0.225-0.021-0.303c-0.372-0.324-1.012-0.473-1.64-0.375
		C35.612,66.104,35.254,66.305,35.078,66.597z"/>
	<path d="M41.519,75.522c-1.161,0.449-3.332,0.711-4.637-0.244C37.538,76.608,40.338,77.32,41.519,75.522z"/>
	<path d="M31.586,75.522c1.016,1.799,3.43,1.086,3.995-0.244C34.456,76.233,32.586,75.971,31.586,75.522z"/>
	<path d="M48.278,71.728c0.306-0.446,0.342-0.964,0.099-1.42c-0.304-0.57-0.967-0.921-1.735-0.921c-0.009,0-0.018,0-0.025,0
		c-0.671,0.006-1.336,0.327-1.873,0.901c-1.092,1.169-1.607,3.285-1.452,5.958c0.007,0.114,0.102,0.202,0.215,0.202
		c0.004,0,0.008,0,0.013,0c0.118-0.007,0.209-0.109,0.202-0.228c-0.201-3.447,0.751-5.012,1.336-5.639
		c0.456-0.488,1.012-0.76,1.563-0.766c0.585,0.001,1.15,0.266,1.377,0.693c0.168,0.314,0.142,0.661-0.074,0.975
		c-0.481,0.703-0.977,0.475-1.166,0.345c-0.304-0.207-0.511-0.631-0.322-0.908c0.066-0.098,0.041-0.232-0.057-0.299
		c-0.098-0.066-0.231-0.042-0.299,0.057c-0.336,0.493-0.046,1.177,0.436,1.505C46.968,72.494,47.703,72.563,48.278,71.728z"/>
	<path d="M48.928,72.515c-0.112-0.005-0.221,0.082-0.229,0.2c-0.008,0.118,0.082,0.221,0.2,0.229
		c0.024,0.002,0.048,0.002,0.072,0.002c0.517,0,0.992-0.38,1.2-0.967c0.234-0.667,0.042-1.339-0.492-1.711
		c-0.095-0.067-0.23-0.045-0.3,0.053c-0.067,0.097-0.044,0.231,0.054,0.299c0.451,0.315,0.461,0.852,0.332,1.216
		C49.639,72.194,49.343,72.537,48.928,72.515z"/>
	<path d="M46.389,73.192c-0.092-0.075-0.228-0.061-0.303,0.031c-0.591,0.726-1.027,2.084-1.068,2.701
		c-0.008,0.118,0.082,0.221,0.2,0.229c0.005,0,0.01,0,0.015,0c0.112,0,0.207-0.087,0.215-0.201c0.036-0.554,0.461-1.83,0.973-2.458
		C46.495,73.403,46.481,73.267,46.389,73.192z"/>
	<polygon class="st2" points="27.478,79.465 23.199,79.465 23.199,80.267 26.678,80.267 23.199,83.22 23.199,84.46 29.082,79.465 	
		"/>
	<polygon class="st1" points="23.199,80.267 23.199,83.22 26.678,80.267 	"/>
	<path class="st2" d="M25.526,79.036h1.143V63.755c-0.357-0.065-0.605-0.268-0.676-0.582c-0.087-0.376,0.103-0.812,0.423-0.97
		c0.079-0.039,0.165-0.09,0.253-0.151V45.174l-1.143-1.146V79.036z"/>
	<path class="st2" d="M24.558,75.939c0-0.764-0.593-1.389-1.359-1.49v2.981C23.966,77.328,24.558,76.703,24.558,75.939z"/>
	<path class="st2" d="M23.199,67.412c0.766-0.102,1.359-0.727,1.359-1.491c0-0.764-0.593-1.389-1.359-1.491V67.412z"/>
	<path class="st2" d="M24.558,70.93c0-0.764-0.593-1.389-1.359-1.49v2.981C23.966,72.319,24.558,71.694,24.558,70.93z"/>
	<path class="st2" d="M23.199,57.396c0.766-0.102,1.359-0.727,1.359-1.491c0-0.764-0.593-1.389-1.359-1.491v0.203v0.95V57.396z"/>
	<path class="st2" d="M24.558,45.888c0-0.764-0.593-1.389-1.359-1.49v2.981C23.966,47.277,24.558,46.652,24.558,45.888z"/>
	<path class="st2" d="M24.558,50.896c0-0.764-0.593-1.389-1.359-1.49v2.981C23.966,52.285,24.558,51.66,24.558,50.896z"/>
	<path class="st2" d="M23.199,62.404c0.766-0.102,1.359-0.727,1.359-1.491c0-0.764-0.593-1.389-1.359-1.491v0.728v1.203V62.404z"/>
	<path class="st0" d="M27.044,63.346c0.57-0.056,1.075-0.23,1.498-0.507c0.025-0.016,0.045-0.038,0.069-0.055
		c0.172-0.12,0.329-0.257,0.47-0.412c0.036-0.039,0.067-0.082,0.1-0.123c0.123-0.152,0.233-0.317,0.327-0.498
		c0.24-0.462,0.384-0.997,0.384-1.606c0-1.549-0.855-2.676-2.199-3.064v2.407c0.366-0.417,0.886-0.574,1.441-0.43
		c0.114,0.03,0.184,0.147,0.153,0.262c-0.029,0.115-0.144,0.184-0.263,0.154c-0.396-0.104-0.761,0.004-1.02,0.306
		c-0.312,0.364-0.403,0.937-0.218,1.364c0.023,0.053,0.023,0.114,0.001,0.168c-0.236,0.57-0.645,1.011-1.183,1.276
		c-0.13,0.064-0.241,0.287-0.194,0.488c0.053,0.229,0.29,0.278,0.48,0.28C26.947,63.355,26.993,63.351,27.044,63.346z"/>
</g>
</svg>
