<?xml version="1.0" encoding="utf-8"?>
<!-- Generator: Adobe Illustrator 23.0.2, SVG Export Plug-In . SVG Version: 6.00 Build 0)  -->
<svg version="1.1" id="Layer_1" xmlns="http://www.w3.org/2000/svg" xmlns:xlink="http://www.w3.org/1999/xlink" x="0px" y="0px"
	 viewBox="0 0 82.452 99.776" style="enable-background:new 0 0 82.452 99.776;" xml:space="preserve">
<style type="text/css">
	.st0{fill:#FFFFFF;}
	.st1{fill:#ED1C24;}
	.st2{fill:#FFCB05;}
	.st3{fill:#21409A;}
	.st4{fill:#D4D5D6;}
	.st5{fill:#000100;}
	.st6{fill:#300505;}
	.st7{fill:#BFD730;}
	.st8{fill:#F15A22;}
</style>
<g>
	<path class="st0" d="M54.918,32.517c-0.077,0.258-0.154,0.516-0.222,0.78c-0.085,0.339-0.163,0.685-0.233,1.04
		c0.558,0.535,1.108,1.231,1.722,2.188c0.621,0.968,1.833,4.183,1.025,6.987c0.807,0.291,1.563,0.676,2.278,1.127V32.994h-1.975
		c-0.09,0-0.171-0.056-0.202-0.141c-0.031-0.085-0.006-0.18,0.063-0.238l6.607-5.609v-0.508h-5.559
		C56.828,28.016,55.658,30.038,54.918,32.517z"/>
	<path class="st0" d="M38.961,75.508c0.069-0.232,0.139-0.463,0.199-0.701c0.087-0.343,0.165-0.695,0.236-1.055
		c-0.556-0.533-1.107-1.228-1.722-2.187c-0.621-0.968-1.833-4.183-1.025-6.988c-0.808-0.291-1.564-0.676-2.279-1.128v11.646h1.976
		c0.09,0,0.171,0.056,0.202,0.141c0.031,0.085,0.006,0.18-0.063,0.238l-6.608,5.61v0.508h5.558
		C37.046,80.061,38.223,78.016,38.961,75.508z"/>
	<path class="st0" d="M34.309,41.589c0.04,0.041,0.063,0.095,0.063,0.152v2.892c0.982-0.623,2.054-1.095,3.203-1.405
		c-0.833-0.41-1.5-0.91-1.916-1.45c-0.795-1.037-0.873-2.369-0.19-3.24c0.527-0.674,1.353-1.014,2.153-0.886
		c0.56,0.089,1.022,0.393,1.32,0.854c0.809-1.767,1.401-2.751,1.88-3.14c-0.049-0.214-0.095-0.42-0.143-0.632
		c-0.07-0.31-0.142-0.624-0.211-0.929c-0.666-2.97-1.299-5.771-2.322-7.308h-8.268v10.648L34.309,41.589z M34.62,29.141
		c0.896-3.538,4.411-2.596,4.411,0.742c0,2.183-1.184,3.63-2.43,5.001c-0.623,0.686-1.451,1.603-1.981,2.563
		c-0.53-0.961-1.357-1.878-1.981-2.563c-1.245-1.37-2.43-2.818-2.43-5.001C30.209,26.545,33.724,25.603,34.62,29.141z"/>
	<path class="st0" d="M59.551,66.5c-0.04-0.041-0.063-0.095-0.063-0.152v-2.892c-0.982,0.623-2.054,1.095-3.202,1.405
		c0.833,0.411,1.501,0.91,1.916,1.451c0.795,1.036,0.874,2.368,0.19,3.24c-0.529,0.674-1.354,1.01-2.156,0.885
		c-0.559-0.089-1.02-0.393-1.317-0.854c-0.809,1.766-1.399,2.75-1.88,3.14c0.118,0.515,0.233,1.028,0.347,1.531
		c0.668,2.983,1.302,5.796,2.329,7.337h8.268V70.944L59.551,66.5z M59.24,78.947c-0.895,3.538-4.41,2.597-4.41-0.741
		c0-2.183,1.184-3.631,2.428-5.001c0.624-0.686,1.451-1.602,1.981-2.563c0.532,0.961,1.359,1.877,1.981,2.563
		c1.246,1.37,2.431,2.818,2.431,5.001C63.652,81.544,60.137,82.486,59.24,78.947z"/>
	<path class="st0" d="M68.571,19.762H25.33c-1.563,0-2.836,1.272-2.836,2.836v62.82c0,1.564,1.272,2.836,2.836,2.836h43.241
		c1.563,0,2.836-1.272,2.836-2.836v-62.82C71.407,21.035,70.134,19.762,68.571,19.762z M24.993,28.99
		c0.156,0,0.285,0.073,0.333,0.191c0.034,0.082,0.034,0.082,0.047,0.4c0.014,0.4,0.136,0.627,0.339,0.627
		c0.278,0,0.374-0.364,0.374-1.427v-4.09c0-0.827-0.061-0.918-0.645-0.945v-0.236h2.152v0.236c-0.564,0.027-0.618,0.118-0.618,0.945
		V27.6c0,0.191,0,0.4,0.007,0.736c0.007,0.127,0.007,0.227,0.007,0.309c0,0.564-0.102,0.973-0.306,1.273
		c-0.245,0.345-0.625,0.536-1.093,0.536c-0.679,0-1.154-0.372-1.154-0.9C24.437,29.227,24.667,28.99,24.993,28.99z M27.017,36.218
		c-0.328,0.362-0.764,0.847-1.046,1.354c-0.28-0.507-0.716-0.992-1.046-1.354c-0.657-0.723-1.283-1.487-1.283-2.64
		c0-1.763,1.856-2.259,2.329-0.392c0.473-1.868,2.329-1.371,2.329,0.392C28.3,34.731,27.675,35.495,27.017,36.218z M64.412,27.106
		v5.673v17.853v1.032v3.658v1.397v0.733v0.005v13.398v10.952c0,0.119-0.096,0.215-0.215,0.215h-8.604H35.528h-5.864
		c-0.119,0-0.215-0.096-0.215-0.215v-0.823V75.31V57.457v-1.032v-3.657v-1.397v-0.734v-0.005V37.235V26.283
		c0-0.119,0.096-0.215,0.215-0.215h8.604h20.063h5.865c0.119,0,0.215,0.096,0.215,0.215V27.106z M68.907,79.029
		c-0.156,0-0.285-0.073-0.333-0.191c-0.034-0.082-0.034-0.082-0.047-0.4c-0.014-0.4-0.136-0.627-0.339-0.627
		c-0.278,0-0.374,0.364-0.374,1.427v4.09c0,0.827,0.061,0.918,0.645,0.946v0.236h-2.152v-0.236c0.563-0.027,0.618-0.119,0.618-0.946
		v-2.909c0-0.19,0-0.4-0.007-0.736c-0.007-0.127-0.007-0.227-0.007-0.309c0-0.564,0.102-0.973,0.306-1.273
		c0.245-0.346,0.625-0.536,1.093-0.536c0.679,0,1.154,0.372,1.154,0.9C69.463,78.793,69.232,79.029,68.907,79.029z M67.928,74.831
		c-0.472,1.868-2.328,1.371-2.328-0.391c0-1.153,0.625-1.917,1.283-2.64c0.328-0.362,0.764-0.847,1.045-1.354
		c0.281,0.507,0.717,0.992,1.046,1.354c0.658,0.723,1.284,1.487,1.284,2.64C70.259,76.202,68.402,76.699,67.928,74.831z"/>
	<path d="M68.571,19.333H25.33c-1.801,0-3.266,1.465-3.266,3.266v62.82c0,1.801,1.465,3.266,3.266,3.266h43.241
		c1.801,0,3.266-1.465,3.266-3.266v-62.82C71.837,20.797,70.372,19.333,68.571,19.333z M71.407,85.418
		c0,1.564-1.272,2.836-2.836,2.836H25.33c-1.563,0-2.836-1.272-2.836-2.836v-62.82c0-1.564,1.272-2.836,2.836-2.836h43.241
		c1.563,0,2.836,1.272,2.836,2.836V85.418z"/>
	<path class="st1" d="M25.591,30.454c0.468,0,0.849-0.191,1.093-0.536c0.204-0.3,0.306-0.709,0.306-1.273
		c0-0.082,0-0.182-0.007-0.309C26.976,28,26.976,27.791,26.976,27.6v-2.909c0-0.827,0.054-0.918,0.618-0.945v-0.236h-2.152v0.236
		c0.584,0.027,0.645,0.118,0.645,0.945v4.09c0,1.063-0.095,1.427-0.374,1.427c-0.204,0-0.326-0.227-0.339-0.627
		c-0.014-0.318-0.014-0.318-0.047-0.4c-0.048-0.118-0.177-0.191-0.333-0.191c-0.326,0-0.557,0.236-0.557,0.564
		C24.437,30.081,24.912,30.454,25.591,30.454z"/>
	<path class="st1" d="M34.62,37.447c0.53-0.961,1.359-1.878,1.981-2.563c1.246-1.37,2.43-2.818,2.43-5.001
		c0-3.338-3.516-4.279-4.411-0.742c-0.895-3.538-4.411-2.596-4.411,0.742c0,2.183,1.185,3.63,2.43,5.001
		C33.262,35.569,34.089,36.486,34.62,37.447z"/>
	<path class="st1" d="M25.971,33.186c-0.473-1.868-2.329-1.371-2.329,0.392c0,1.153,0.626,1.917,1.283,2.64
		c0.33,0.362,0.767,0.847,1.046,1.354c0.282-0.507,0.717-0.992,1.046-1.354c0.658-0.723,1.283-1.487,1.283-2.64
		C28.3,31.816,26.445,31.319,25.971,33.186z"/>
	<path class="st1" d="M68.309,77.565c-0.468,0-0.849,0.19-1.093,0.536c-0.204,0.3-0.306,0.709-0.306,1.273
		c0,0.082,0,0.181,0.007,0.309c0.007,0.337,0.007,0.546,0.007,0.736v2.909c0,0.827-0.054,0.918-0.618,0.946v0.236h2.152v-0.236
		c-0.584-0.027-0.645-0.119-0.645-0.946v-4.09c0-1.063,0.095-1.427,0.374-1.427c0.204,0,0.326,0.227,0.339,0.627
		c0.014,0.318,0.014,0.318,0.047,0.4c0.048,0.118,0.177,0.191,0.333,0.191c0.326,0,0.557-0.236,0.557-0.563
		C69.463,77.938,68.988,77.565,68.309,77.565z"/>
	<path class="st1" d="M67.928,70.445c-0.281,0.507-0.716,0.992-1.045,1.354c-0.658,0.723-1.283,1.487-1.283,2.64
		c0,1.762,1.856,2.259,2.328,0.391c0.473,1.868,2.33,1.371,2.33-0.391c0-1.153-0.626-1.917-1.284-2.64
		C68.646,71.437,68.209,70.952,67.928,70.445z"/>
	<path class="st1" d="M59.24,70.642c-0.53,0.961-1.357,1.877-1.981,2.563c-1.244,1.37-2.428,2.818-2.428,5.001
		c0,3.338,3.514,4.28,4.41,0.741c0.897,3.538,4.412,2.597,4.412-0.741c0-2.183-1.185-3.631-2.431-5.001
		C60.598,72.519,59.772,71.603,59.24,70.642z"/>
	<path class="st1" d="M37.027,63.588c0.949-1.9,2.873-2.971,5.717-3.186c1.11-1.685,1.574-3.34,1.753-4.224h-1.851
		c-0.31,1.142-1.472,4.116-5.436,6.063c-0.029,0.015-0.062,0.022-0.095,0.022h-2.744v0.692c0.747,0.5,1.551,0.909,2.404,1.217
		C36.849,63.975,36.931,63.78,37.027,63.588z"/>
	<path class="st1" d="M39.031,54.239c-1.28-0.312-2.358-0.793-3.247-1.377c0.994,0.945,1.611,2.076,1.76,3.316l1.009,0.271
		c0.314-0.662,0.482-1.372,0.482-2.119C39.036,54.3,39.032,54.269,39.031,54.239z"/>
	<path class="st1" d="M37.879,57.525l-1.025-0.275c-0.059,0.225-0.136,0.439-0.232,0.64c-0.003,0.013,0.004,0.027-0.002,0.04
		c-0.024,0.05-0.063,0.087-0.089,0.136c-0.085,0.155-0.181,0.301-0.288,0.439c-0.068,0.089-0.135,0.177-0.21,0.257
		c-0.1,0.105-0.213,0.196-0.326,0.287c-0.136,0.11-0.278,0.212-0.432,0.3c-0.163,0.094-0.329,0.182-0.51,0.251
		c-0.102,0.038-0.212,0.06-0.319,0.09c-0.025,0.007-0.049,0.014-0.075,0.021v0.282C35.883,59.373,37.079,58.53,37.879,57.525z"/>
	<path class="st1" d="M59.488,56.373v-0.082c-0.086-0.052-0.173-0.103-0.255-0.157C59.318,56.213,59.408,56.291,59.488,56.373z"/>
	<path class="st1" d="M54.83,53.85c1.279,0.312,2.357,0.792,3.246,1.377c-0.993-0.945-1.609-2.075-1.758-3.316l-1.011-0.272
		c-0.314,0.662-0.482,1.372-0.482,2.118C54.825,53.788,54.829,53.819,54.83,53.85z"/>
	<path class="st1" d="M34.372,51.714v0.083c0.087,0.052,0.174,0.104,0.258,0.159C34.543,51.876,34.453,51.797,34.372,51.714z"/>
	<path class="st1" d="M56.834,44.5c-0.949,1.9-2.873,2.972-5.717,3.187c-1.109,1.685-1.574,3.338-1.752,4.223h1.851
		c0.31-1.142,1.472-4.116,5.437-6.063c0.029-0.015,0.062-0.022,0.095-0.022h2.741v-0.693c-0.747-0.499-1.55-0.908-2.404-1.217
		C57.012,44.114,56.929,44.309,56.834,44.5z"/>
	<path class="st1" d="M51.223,56.178h-1.859c0.34,1.685,1.694,6.159,6.638,8.328c1.134-0.284,2.19-0.745,3.164-1.352
		C54.334,61.767,51.909,58.714,51.223,56.178z"/>
	<path class="st1" d="M55.982,50.563l1.025,0.275c0.059-0.224,0.135-0.436,0.23-0.637c0.004-0.014-0.004-0.028,0.003-0.041
		c0.025-0.051,0.064-0.089,0.091-0.139c0.085-0.154,0.18-0.3,0.286-0.437c0.068-0.089,0.135-0.176,0.21-0.257
		c0.101-0.106,0.215-0.198,0.329-0.29c0.131-0.106,0.267-0.205,0.415-0.29c0.167-0.097,0.339-0.188,0.526-0.258
		c0.1-0.037,0.208-0.059,0.313-0.088c0.026-0.007,0.052-0.015,0.078-0.022v-0.283C57.977,48.716,56.782,49.558,55.982,50.563z"/>
	<path class="st1" d="M42.636,51.91h1.861c-0.34-1.685-1.696-6.157-6.638-8.328c-1.134,0.283-2.191,0.745-3.166,1.352
		C39.527,46.321,41.951,49.373,42.636,51.91z"/>
	<path class="st2" d="M59.488,55.389c-0.382-0.099-0.74-0.237-1.052-0.437c0.313,0.292,0.665,0.563,1.052,0.815V55.389z"/>
	<path class="st2" d="M56.959,52.763c0.02,0.06,0.029,0.123,0.052,0.183C56.995,52.884,56.973,52.826,56.959,52.763z"/>
	<path class="st2" d="M56.876,52.061l-0.105-0.028c0.033,0.208,0.095,0.408,0.157,0.608C56.894,52.456,56.884,52.259,56.876,52.061z
		"/>
	<path class="st3" d="M55.198,55.67c0.094,0.245,0.204,0.49,0.335,0.732c1.82,0.744,2.907,2.001,3.386,3.192
		c0.183,0.097,0.373,0.189,0.569,0.279V59.21c-0.115,0.03-0.241,0.049-0.39,0.04c0.176-0.029,0.316-0.159,0.39-0.315v-0.46
		c0-0.001,0-0.002-0.001-0.002c-0.112-0.178-0.413-0.315-0.81-0.143c0.222-0.429,0.535-0.538,0.81-0.48v-0.851
		c-1-1.145-2.524-2.163-4.632-2.701c0.008,0.072,0.022,0.144,0.033,0.216C55.25,54.645,55.49,55.099,55.198,55.67z M58.714,56.465
		c0.37,0.319,0.313,1.032-0.485,1.275c0.307-0.178,0.343-0.674,0.092-0.866c-0.167-0.127-0.496-0.15-0.809,0.15
		C57.617,56.17,58.344,56.147,58.714,56.465z M56.815,55.243c0.461,0.16,0.67,0.845,0.018,1.364c0.22-0.277,0.072-0.752-0.233-0.84
		c-0.202-0.057-0.518,0.043-0.696,0.437C55.686,55.371,56.354,55.083,56.815,55.243z"/>
	<path class="st3" d="M55.046,55.23c0.037,0.124,0.081,0.249,0.127,0.373C55.175,55.465,55.134,55.334,55.046,55.23z"/>
	<path class="st0" d="M58.322,56.874c0.251,0.193,0.214,0.688-0.092,0.866c0.797-0.243,0.854-0.956,0.485-1.275
		c-0.37-0.318-1.097-0.295-1.201,0.559C57.825,56.724,58.155,56.747,58.322,56.874z"/>
	<path class="st0" d="M59.098,59.25c0.149,0.009,0.275-0.01,0.39-0.04v-0.275C59.414,59.09,59.275,59.22,59.098,59.25z"/>
	<path class="st0" d="M58.678,58.329c0.397-0.172,0.698-0.035,0.81,0.143c0,0.001,0,0.002,0.001,0.002v-0.625
		C59.213,57.792,58.9,57.9,58.678,58.329z"/>
	<path class="st0" d="M56.6,55.767c0.305,0.087,0.453,0.562,0.233,0.84c0.651-0.519,0.443-1.204-0.018-1.364
		c-0.461-0.16-1.129,0.128-0.91,0.961C56.082,55.811,56.399,55.71,56.6,55.767z"/>
	<path class="st0" d="M54.89,54.513c0.036,0.238,0.086,0.476,0.157,0.716c0.087,0.104,0.129,0.236,0.127,0.373
		c0.008,0.023,0.016,0.045,0.025,0.068C55.49,55.099,55.25,54.645,54.89,54.513z"/>
	<path class="st3" d="M56.043,57.193c0.528,0.713,1.229,1.385,2.124,1.963C57.734,58.435,57.032,57.733,56.043,57.193z"/>
	<path class="st0" d="M55.534,56.402c0.146,0.268,0.318,0.531,0.51,0.791c0.988,0.54,1.691,1.242,2.124,1.963
		c0.237,0.153,0.489,0.299,0.752,0.438C58.44,58.403,57.353,57.146,55.534,56.402z"/>
	<path class="st3" d="M38.815,52.86c-0.037-0.126-0.082-0.252-0.129-0.377C38.684,52.622,38.726,52.755,38.815,52.86z"/>
	<path class="st3" d="M38.662,52.417c-0.094-0.245-0.204-0.489-0.335-0.731c-1.819-0.745-2.907-2.002-3.386-3.192
		c-0.183-0.097-0.373-0.19-0.569-0.279v0.664c0.115-0.031,0.241-0.05,0.391-0.041c-0.177,0.03-0.317,0.161-0.391,0.318v0.455
		c0.001,0.002,0,0.004,0.002,0.006c0.112,0.177,0.413,0.314,0.81,0.142c-0.222,0.43-0.536,0.538-0.811,0.48v0.851
		c1,1.146,2.524,2.164,4.633,2.702c-0.008-0.072-0.023-0.145-0.034-0.217C38.61,53.444,38.37,52.989,38.662,52.417z M35.147,51.623
		c-0.371-0.319-0.313-1.032,0.485-1.274c-0.307,0.177-0.343,0.673-0.092,0.866c0.167,0.128,0.496,0.15,0.809-0.15
		C36.244,51.918,35.515,51.942,35.147,51.623z M37.045,52.845c-0.46-0.16-0.67-0.845-0.018-1.364
		c-0.219,0.278-0.071,0.753,0.234,0.84c0.202,0.057,0.517-0.043,0.696-0.437C38.174,52.717,37.507,53.006,37.045,52.845z"/>
	<path class="st0" d="M35.539,51.214c-0.251-0.193-0.214-0.689,0.092-0.866c-0.797,0.242-0.856,0.956-0.485,1.274
		c0.368,0.319,1.097,0.296,1.201-0.559C36.035,51.364,35.706,51.342,35.539,51.214z"/>
	<path class="st0" d="M35.183,49.759c-0.397,0.173-0.698,0.036-0.81-0.142c-0.001-0.002,0-0.004-0.002-0.006v0.628
		C34.647,50.297,34.961,50.188,35.183,49.759z"/>
	<path class="st0" d="M34.762,48.838c-0.149-0.009-0.275,0.01-0.391,0.041v0.277C34.446,48.999,34.585,48.868,34.762,48.838z"/>
	<path class="st0" d="M37.26,52.321c-0.305-0.087-0.453-0.561-0.234-0.84c-0.651,0.518-0.441,1.204,0.018,1.364
		c0.462,0.161,1.129-0.128,0.911-0.962C37.777,52.278,37.462,52.378,37.26,52.321z"/>
	<path class="st0" d="M38.971,53.575c-0.036-0.237-0.086-0.475-0.156-0.715c-0.089-0.105-0.131-0.239-0.129-0.377
		c-0.008-0.022-0.016-0.044-0.024-0.066C38.37,52.989,38.61,53.444,38.971,53.575z"/>
	<path class="st3" d="M37.817,50.895c-0.528-0.713-1.23-1.385-2.124-1.963C36.126,49.653,36.829,50.355,37.817,50.895z"/>
	<path class="st0" d="M38.327,51.686c-0.146-0.268-0.318-0.531-0.51-0.791c-0.988-0.54-1.691-1.242-2.124-1.963
		c-0.237-0.153-0.489-0.299-0.752-0.438C35.42,49.684,36.508,50.941,38.327,51.686z"/>
	<path class="st2" d="M44.498,51.91h-1.861c-0.686-2.537-3.109-5.588-7.942-6.976c-0.107,0.066-0.218,0.123-0.323,0.193v0.161
		c4.944,1.35,7.328,4.46,7.904,6.954c0.026,0.107,0.124,0.146,0.234,0.131c0.029-0.003,0.058-0.016,0.082-0.033h2.164
		c0.063,0,0.124-0.028,0.164-0.077c0.041-0.048,0.059-0.112,0.048-0.175c-0.236-1.358-1.312-5.644-5.582-8.196
		c-0.082-0.022-0.161-0.034-0.244-0.058c-0.295-0.086-0.575-0.186-0.847-0.292l-0.302,0c-0.046,0.011-0.088,0.029-0.134,0.04
		C42.802,45.753,44.157,50.225,44.498,51.91z"/>
	<path class="st2" d="M49.364,56.178h1.859c0.686,2.536,3.11,5.589,7.943,6.977c0.106-0.066,0.218-0.123,0.322-0.193v-0.161
		c-4.943-1.35-7.327-4.46-7.903-6.953c-0.025-0.106-0.126-0.143-0.234-0.132c-0.029,0.003-0.057,0.015-0.081,0.032h-2.164
		c-0.063,0-0.124,0.028-0.164,0.076C48.9,55.874,48.883,55.938,48.893,56c0.198,1.146,0.993,4.384,3.805,6.9
		c0.024,0.024,0.052,0.045,0.075,0.069c0.496,0.436,1.061,0.845,1.688,1.221c0.086,0.023,0.17,0.04,0.257,0.066
		c0.295,0.086,0.575,0.186,0.847,0.292l0.302,0c0.046-0.011,0.089-0.029,0.135-0.041C51.058,62.337,49.704,57.864,49.364,56.178z"/>
	<path class="st2" d="M56.652,45.847c-3.965,1.947-5.127,4.921-5.437,6.063h-1.851c0.179-0.885,0.643-2.538,1.752-4.223
		c-0.006,0-0.012,0.002-0.018,0.002c-0.175,0.013-0.336,0.01-0.508,0.019c-1.143,1.837-1.561,3.596-1.698,4.379
		c-0.011,0.063,0.007,0.127,0.047,0.175c0.041,0.049,0.102,0.077,0.165,0.077h2.15c0.027,0.019,0.059,0.03,0.094,0.035
		c0.106,0.005,0.209-0.059,0.234-0.166c0.206-0.895,1.193-3.96,5.213-5.954h2.691v-0.43h-2.741
		C56.714,45.825,56.681,45.833,56.652,45.847z"/>
	<path class="st2" d="M37.211,62.242c3.964-1.947,5.126-4.922,5.436-6.063h1.851c-0.179,0.885-0.643,2.539-1.753,4.224
		c0.005,0,0.01-0.001,0.015-0.002c0.176-0.013,0.338-0.009,0.511-0.019c1.145-1.839,1.561-3.599,1.697-4.382
		c0.011-0.063-0.007-0.126-0.048-0.175c-0.04-0.048-0.101-0.076-0.164-0.076h-2.15c-0.027-0.018-0.06-0.03-0.094-0.034
		c-0.11-0.008-0.209,0.059-0.234,0.166c-0.206,0.895-1.192,3.96-5.211,5.954h-2.694v0.43h2.744
		C37.149,62.264,37.181,62.256,37.211,62.242z"/>
	<path class="st2" d="M38.331,57.646l-0.452-0.122c-0.8,1.005-1.995,1.848-3.507,2.468v0.465
		C36.105,59.774,37.458,58.811,38.331,57.646z"/>
	<path class="st2" d="M54.395,53.757c0,2.352,1.601,5.059,5.093,6.58v-0.465c-0.196-0.089-0.386-0.182-0.569-0.279
		c-0.264-0.139-0.515-0.285-0.752-0.438c-0.894-0.578-1.595-1.25-2.124-1.963c-0.192-0.259-0.364-0.523-0.51-0.791
		c-0.132-0.242-0.241-0.487-0.335-0.732c-0.009-0.023-0.016-0.045-0.025-0.068c-0.046-0.124-0.091-0.248-0.127-0.373
		c-0.071-0.24-0.121-0.479-0.157-0.716c-0.011-0.072-0.026-0.145-0.033-0.216c-0.016-0.15-0.024-0.299-0.026-0.447
		c-0.001-0.031-0.005-0.062-0.005-0.093c0-0.746,0.168-1.456,0.482-2.118c0.178-0.376,0.404-0.735,0.676-1.076
		c0.8-1.005,1.995-1.847,3.506-2.467v-0.464C56.294,48.89,54.395,51.109,54.395,53.757z"/>
	<path class="st2" d="M39.466,54.331c0-2.352-1.601-5.059-5.094-6.581v0.465c0.196,0.089,0.386,0.182,0.569,0.279
		c0.264,0.139,0.515,0.285,0.752,0.438c0.895,0.578,1.596,1.25,2.124,1.963c0.192,0.259,0.364,0.523,0.51,0.791
		c0.131,0.242,0.241,0.486,0.335,0.731c0.008,0.022,0.016,0.044,0.024,0.066c0.047,0.126,0.092,0.252,0.129,0.377
		c0.07,0.239,0.12,0.478,0.156,0.715c0.011,0.072,0.026,0.145,0.034,0.217c0.016,0.15,0.023,0.299,0.026,0.447
		c0.001,0.03,0.005,0.061,0.005,0.092c0,0.747-0.168,1.457-0.482,2.119l0.424,0.114C39.297,55.866,39.466,55.117,39.466,54.331z"/>
	<path class="st2" d="M36.909,55.351c-0.023-0.069-0.034-0.142-0.06-0.211C36.867,55.211,36.893,55.278,36.909,55.351z"/>
	<path class="st2" d="M34.372,52.7c0.383,0.099,0.742,0.237,1.053,0.437c-0.313-0.292-0.665-0.563-1.053-0.816V52.7z"/>
	<path class="st2" d="M36.985,56.028l0.106,0.029c-0.034-0.209-0.096-0.411-0.159-0.613C36.966,55.63,36.977,55.828,36.985,56.028z"
		/>
	<path class="st2" d="M45.39,51.481c0.869,0.397,1.346-0.186,1.346-0.729c0-0.543-0.814-1.615-1.775-1.294
		C45.684,49.767,45.805,50.826,45.39,51.481z"/>
	<path class="st2" d="M48.9,49.458c-0.962-0.321-1.776,0.751-1.776,1.294c0,0.544,0.478,1.127,1.346,0.729
		C48.056,50.826,48.175,49.767,48.9,49.458z"/>
	<path class="st0" d="M41.882,54.08c0-0.482-0.39-0.871-0.872-0.871c-0.48,0-0.87,0.39-0.87,0.871c0,0.481,0.39,0.87,0.87,0.87
		C41.492,54.95,41.882,54.56,41.882,54.08z"/>
	<path class="st0" d="M41.396,51.623c0-0.481-0.389-0.871-0.87-0.871c-0.481,0-0.87,0.39-0.87,0.871c0,0.481,0.389,0.871,0.87,0.871
		C41.007,52.494,41.396,52.104,41.396,51.623z"/>
	<path class="st0" d="M39.042,48.587c-0.481,0-0.872,0.39-0.872,0.871c0,0.481,0.39,0.871,0.872,0.871c0.48,0,0.87-0.39,0.87-0.871
		C39.912,48.978,39.522,48.587,39.042,48.587z"/>
	<path class="st0" d="M37.032,46.805c-0.481,0-0.871,0.39-0.871,0.87c0,0.481,0.39,0.871,0.871,0.871c0.48,0,0.87-0.391,0.87-0.871
		C37.903,47.194,37.512,46.805,37.032,46.805z"/>
	<path class="st0" d="M34.64,45.64c-0.095,0-0.183,0.026-0.268,0.054v1.633c0.086,0.028,0.173,0.054,0.268,0.054
		c0.481,0,0.87-0.391,0.87-0.871C35.511,46.03,35.122,45.64,34.64,45.64z"/>
	<path class="st0" d="M53.259,39.194c0.086,0,0.155-0.069,0.155-0.154c0-0.085-0.069-0.155-0.155-0.155
		c-0.084,0-0.153,0.07-0.153,0.155C53.106,39.125,53.176,39.194,53.259,39.194z"/>
	<path class="st0" d="M53.948,40.106c0.797-0.155,1.579-0.775,1.597-1.82c-1.034-0.366-2.823-0.392-3.771,0.663
		C52.212,40.026,53.202,40.251,53.948,40.106z M53.259,38.455c0.322,0,0.585,0.262,0.585,0.585c0,0.322-0.263,0.584-0.585,0.584
		c-0.321,0-0.583-0.262-0.583-0.584C52.676,38.717,52.938,38.455,53.259,38.455z"/>
	<path class="st0" d="M47.28,39.194c0.085,0,0.154-0.069,0.154-0.154c0-0.085-0.069-0.155-0.154-0.155
		c-0.086,0-0.156,0.07-0.156,0.155C47.124,39.125,47.194,39.194,47.28,39.194z"/>
	<path class="st0" d="M47.892,40.055c0.868,0.082,1.883-0.193,2.23-1.198c-1.272-1.098-3.403-1.067-4.593-0.684
		C45.71,39.277,46.829,39.953,47.892,40.055z M47.28,38.455c0.322,0,0.584,0.262,0.584,0.585c0,0.322-0.262,0.584-0.584,0.584
		c-0.323,0-0.586-0.262-0.586-0.584C46.694,38.717,46.957,38.455,47.28,38.455z"/>
	<path class="st0" d="M55.824,36.757c-0.618-0.966-1.166-1.656-1.721-2.173c-1.393-0.787-5.373-0.983-8.726-0.418
		c0.019,1.374-0.018,2.581-0.104,3.645c1.331-0.481,3.795-0.541,5.243,0.823c0.058,0.054,0.081,0.136,0.06,0.213
		c-0.072,0.264-0.188,0.5-0.338,0.707c0.042-0.032,0.095-0.05,0.156-0.042c0.118,0.014,0.202,0.121,0.188,0.239
		c-0.094,0.783-0.836,1.379-1.5,1.676c-0.028,0.013-0.059,0.019-0.088,0.019c-0.082,0-0.16-0.047-0.196-0.127
		c-0.049-0.109,0-0.236,0.108-0.284c0.557-0.249,1.177-0.729,1.248-1.334c0.007-0.053,0.034-0.097,0.07-0.131
		c-0.436,0.59-1.162,0.931-2.035,0.931c-0.111,0-0.224-0.005-0.339-0.017c-1.113-0.107-2.275-0.775-2.649-1.875
		c-0.235,2.058-0.697,3.436-1.386,4.105c-1.051,1.021-2.013,1.387-2.997,1.393c1.671,2.396,5.291,3.523,10.249,3.154
		c2.691-0.2,4.502-1.193,5.381-2.952C57.738,41.728,56.659,38.059,55.824,36.757z M45.663,36.508
		c1.181-1.799,3.981-1.087,4.637,0.243C48.994,35.796,46.824,36.058,45.663,36.508z M55.595,36.508c-1-0.45-2.87-0.712-3.995,0.243
		C52.166,35.421,54.579,34.71,55.595,36.508z M51.36,38.772c1.113-1.382,3.289-1.319,4.479-0.833
		c0.078,0.032,0.13,0.105,0.134,0.189c0.063,1.378-0.963,2.211-1.942,2.401c-0.157,0.03-0.32,0.046-0.484,0.046
		c-0.638,0-1.298-0.246-1.768-0.801c0.154,0.46,0.564,0.905,1.09,1.154c0.107,0.051,0.153,0.179,0.103,0.286
		c-0.037,0.078-0.114,0.123-0.194,0.123c-0.031,0-0.063-0.006-0.092-0.021c-0.688-0.325-1.211-0.915-1.365-1.54
		c-0.028-0.115,0.042-0.232,0.157-0.26c0.047-0.012,0.088,0.003,0.128,0.019c-0.108-0.166-0.205-0.346-0.279-0.557
		C51.301,38.907,51.314,38.83,51.36,38.772z M47.965,44.634c-0.02,0.005-0.039,0.008-0.058,0.008c-0.094,0-0.181-0.062-0.207-0.157
		c-0.032-0.114,0.035-0.233,0.149-0.265c2.065-0.577,4.8-0.462,5.686,0.018c0.104,0.056,0.144,0.187,0.087,0.292
		c-0.057,0.105-0.187,0.143-0.292,0.086C52.602,44.223,50.032,44.056,47.965,44.634z M49.455,45.625
		c-0.09-0.078-0.1-0.213-0.021-0.303c0.077-0.089,0.214-0.099,0.303-0.021c0.279,0.242,0.797,0.353,1.293,0.274
		c0.336-0.053,0.6-0.189,0.705-0.364c0.063-0.102,0.195-0.134,0.296-0.073c0.102,0.061,0.134,0.193,0.073,0.295
		c-0.176,0.291-0.533,0.493-1.007,0.567c-0.129,0.02-0.258,0.03-0.386,0.03C50.219,46.03,49.752,45.884,49.455,45.625z"/>
	<path class="st2" d="M39.147,39.095c-0.036,0.081-0.111,0.131-0.204,0.127c-0.087-0.003-0.164-0.059-0.194-0.141
		c-0.2-0.549-0.636-0.916-1.194-1.004c-0.089-0.014-0.178-0.021-0.267-0.021c-0.56,0-1.108,0.272-1.481,0.748
		c-0.562,0.716-0.481,1.832,0.194,2.713c0.597,0.778,1.786,1.472,3.263,1.904c1.563,0.458,2.758,0.436,4.254-1.016
		c0.697-0.676,1.504-2.647,1.433-8.166c-1.524,0.292-2.885,0.747-3.761,1.386c-0.002,0.002-0.006,0.001-0.008,0.003
		c-0.003,0.002-0.004,0.005-0.006,0.007C40.736,35.905,40.053,37.069,39.147,39.095z M37.749,41.409
		c0.098,0.068,0.121,0.202,0.054,0.299c-0.042,0.06-0.109,0.092-0.177,0.092c-0.043,0-0.086-0.012-0.123-0.039
		c-0.534-0.373-0.727-1.044-0.491-1.711c0.217-0.615,0.729-1.018,1.271-0.964c0.118,0.008,0.208,0.111,0.2,0.229
		c-0.008,0.119-0.109,0.22-0.229,0.2c-0.425-0.025-0.712,0.321-0.837,0.679C37.288,40.557,37.299,41.094,37.749,41.409z
		 M41.947,35.876c0.004,0,0.009,0,0.014,0c0.118,0.007,0.208,0.109,0.201,0.228c-0.039,0.616-0.475,1.975-1.067,2.702
		c-0.043,0.052-0.104,0.079-0.167,0.079c-0.048,0-0.096-0.016-0.136-0.048c-0.092-0.075-0.105-0.21-0.031-0.302
		c0.514-0.629,0.937-1.905,0.972-2.458C41.74,35.963,41.835,35.876,41.947,35.876z M40.669,39.845
		c0.481,0.329,0.77,1.013,0.434,1.505c-0.067,0.099-0.201,0.123-0.299,0.057c-0.099-0.067-0.123-0.201-0.057-0.299
		c0.188-0.277-0.018-0.701-0.32-0.908c-0.398-0.271-0.835-0.143-1.167,0.344c-0.216,0.314-0.242,0.661-0.074,0.976
		c0.225,0.422,0.756,0.693,1.356,0.693c0.007,0,0.014,0,0.021,0c0.552-0.006,1.107-0.278,1.563-0.766
		c0.585-0.626,1.537-2.192,1.336-5.638c-0.007-0.119,0.084-0.22,0.202-0.228c0.005,0,0.009,0,0.013,0
		c0.113,0,0.208,0.088,0.215,0.202c0.155,2.672-0.36,4.788-1.451,5.957c-0.537,0.575-1.203,0.896-1.874,0.902
		c-0.008,0-0.017,0-0.025,0c-0.769,0-1.432-0.352-1.735-0.921c-0.243-0.457-0.207-0.975,0.099-1.421
		C39.478,39.465,40.215,39.535,40.669,39.845z"/>
	<path class="st1" d="M41.021,32.725c0.047-0.025,0.088-0.053,0.137-0.078l-1.101-4.424l2.193,3.962
		c0.055-0.02,0.112-0.039,0.168-0.059l-0.693-4.464l1.82,4.125c0.06-0.015,0.116-0.033,0.176-0.048l-0.316-4.483l1.462,4.24
		c0.06-0.011,0.123-0.019,0.184-0.029l-0.028-4.468l1.182,4.3c0.058-0.007,0.117-0.013,0.176-0.02l0.146-4.443l1.01,4.336
		c0.073-0.005,0.145-0.011,0.218-0.016l0.546-4.391l0.604,4.342c0.073-0.002,0.147-0.006,0.22-0.007l0.851-4.277l0.28,4.288
		c0.071,0.002,0.138,0.007,0.208,0.01l1.106-4.231l0.026,4.305c0.054,0.005,0.107,0.01,0.16,0.015l1.468-4.283l-0.304,4.436
		c0.06,0.01,0.113,0.023,0.171,0.034l1.858-4.12l-0.72,4.411c0.044,0.015,0.096,0.027,0.138,0.042l2.2-3.941l-0.086,0.34
		c0.402-0.589,0.843-1.135,1.326-1.632H38.663c0.768,1.285,1.295,3.189,1.813,5.405L41.021,32.725z"/>
	<path class="st3" d="M54.538,32.266c-2.45-1.173-10.511-1.021-13.731,1.078c0.128,0.574,0.26,1.16,0.396,1.753
		c2.899-1.834,9.516-2.079,12.356-1.201c0.189,0.059,0.362,0.122,0.515,0.19C54.201,33.467,54.357,32.857,54.538,32.266z"/>
	<path d="M51.604,39.535c-0.04-0.016-0.081-0.03-0.128-0.019c-0.115,0.028-0.186,0.145-0.157,0.26
		c0.154,0.625,0.678,1.215,1.365,1.54c0.029,0.014,0.061,0.021,0.092,0.021c0.08,0,0.157-0.045,0.194-0.123
		c0.051-0.107,0.005-0.235-0.103-0.286c-0.526-0.249-0.936-0.694-1.09-1.154c0.47,0.556,1.13,0.801,1.768,0.801
		c0.164,0,0.327-0.016,0.484-0.046c0.979-0.19,2.006-1.023,1.942-2.401c-0.004-0.084-0.056-0.158-0.134-0.189
		c-1.189-0.486-3.365-0.548-4.479,0.833c-0.046,0.058-0.06,0.136-0.035,0.206C51.399,39.189,51.497,39.369,51.604,39.535z
		 M55.545,38.286c-0.018,1.045-0.8,1.666-1.597,1.82c-0.746,0.144-1.736-0.081-2.174-1.158C52.721,37.894,54.51,37.92,55.545,38.286
		z"/>
	<path d="M47.28,39.624c0.322,0,0.584-0.262,0.584-0.584c0-0.323-0.262-0.585-0.584-0.585c-0.323,0-0.586,0.262-0.586,0.585
		C46.694,39.362,46.957,39.624,47.28,39.624z M47.28,38.885c0.085,0,0.154,0.07,0.154,0.155c0,0.085-0.069,0.154-0.154,0.154
		c-0.086,0-0.156-0.069-0.156-0.154C47.124,38.955,47.194,38.885,47.28,38.885z"/>
	<path d="M53.259,39.624c0.322,0,0.585-0.262,0.585-0.584c0-0.323-0.263-0.585-0.585-0.585c-0.321,0-0.583,0.262-0.583,0.585
		C52.676,39.362,52.938,39.624,53.259,39.624z M53.259,38.885c0.086,0,0.155,0.07,0.155,0.155c0,0.085-0.069,0.154-0.155,0.154
		c-0.084,0-0.153-0.069-0.153-0.154C53.106,38.955,53.176,38.885,53.259,38.885z"/>
	<path class="st2" d="M48.47,56.607c-0.868-0.398-1.346,0.186-1.346,0.729s0.814,1.615,1.776,1.294
		C48.175,58.321,48.056,57.263,48.47,56.607z"/>
	<path class="st2" d="M44.961,58.63c0.96,0.321,1.775-0.75,1.775-1.294s-0.477-1.127-1.346-0.729
		C45.805,57.263,45.684,58.321,44.961,58.63z"/>
	<path class="st0" d="M51.978,54.009c0,0.481,0.39,0.871,0.87,0.871c0.481,0,0.871-0.39,0.871-0.871c0-0.481-0.39-0.871-0.871-0.871
		C52.369,53.138,51.978,53.528,51.978,54.009z"/>
	<path class="st0" d="M53.335,57.336c0.481,0,0.87-0.39,0.87-0.871s-0.389-0.87-0.87-0.87c-0.481,0-0.87,0.389-0.87,0.87
		S52.853,57.336,53.335,57.336z"/>
	<path class="st0" d="M54.819,59.501c0.481,0,0.87-0.39,0.87-0.871c0-0.481-0.389-0.87-0.87-0.87c-0.481,0-0.871,0.39-0.871,0.87
		C53.947,59.111,54.337,59.501,54.819,59.501z"/>
	<path class="st0" d="M56.829,61.284c0.481,0,0.87-0.389,0.87-0.871c0-0.481-0.389-0.871-0.87-0.871c-0.481,0-0.87,0.39-0.87,0.871
		C55.958,60.895,56.347,61.284,56.829,61.284z"/>
	<path class="st0" d="M59.22,62.448c0.095,0,0.182-0.026,0.268-0.054v-1.634c-0.086-0.028-0.173-0.054-0.268-0.054
		c-0.481,0-0.871,0.39-0.871,0.87C58.349,62.059,58.739,62.448,59.22,62.448z"/>
	<path class="st1" d="M49.852,53.415h-1.221c0.032,0.202,0.053,0.411,0.053,0.629s-0.022,0.427-0.053,0.629h1.221V53.415z"/>
	<path class="st1" d="M44.009,54.673h1.221c-0.032-0.202-0.054-0.41-0.054-0.629s0.022-0.427,0.054-0.629h-1.221V54.673z"/>
	<path class="st2" d="M46.931,51.837c-0.719,0-1.326,1.011-1.326,2.207s0.607,2.207,1.326,2.207c0.717,0,1.323-1.011,1.323-2.207
		S47.648,51.837,46.931,51.837z M47.913,54.044c0,0.796-0.431,1.42-0.981,1.42s-0.982-0.624-0.982-1.42
		c0-0.796,0.432-1.419,0.982-1.419S47.913,53.248,47.913,54.044z"/>
	<path class="st2" d="M46.931,55.035c0.261,0,0.552-0.407,0.552-0.991c0-0.583-0.291-0.99-0.552-0.99
		c-0.262,0-0.553,0.407-0.553,0.99C46.379,54.628,46.67,55.035,46.931,55.035z"/>
	<path d="M46.931,52.625c-0.551,0-0.982,0.624-0.982,1.419c0,0.796,0.432,1.42,0.982,1.42s0.981-0.624,0.981-1.42
		C47.913,53.248,47.482,52.625,46.931,52.625z M46.379,54.044c0-0.583,0.291-0.99,0.553-0.99c0.261,0,0.552,0.407,0.552,0.99
		c0,0.584-0.291,0.991-0.552,0.991C46.67,55.035,46.379,54.628,46.379,54.044z"/>
	<path d="M64.197,26.068h-5.865H38.268h-8.604c-0.119,0-0.215,0.096-0.215,0.215v10.952v13.397v0.005v0.734v1.397v3.657v1.032V75.31
		v5.674v0.823c0,0.119,0.096,0.215,0.215,0.215h5.864h20.064h8.604c0.119,0,0.215-0.096,0.215-0.215V70.855V57.457v-0.005v-0.733
		v-1.397v-3.658v-1.032V32.779v-5.673v-0.823C64.412,26.164,64.316,26.068,64.197,26.068z M62.622,46.108
		c0-0.764,0.594-1.389,1.36-1.491v2.981C63.216,47.497,62.622,46.872,62.622,46.108z M62.622,41.1c0-0.764,0.594-1.389,1.36-1.491
		v2.981C63.216,42.488,62.622,41.863,62.622,41.1z M60.771,48.953c0.042,0.181-0.054,0.418-0.195,0.489
		c-0.538,0.265-0.946,0.706-1.183,1.276c-0.022,0.054-0.022,0.115,0.001,0.168c0.186,0.427,0.094,1-0.218,1.364
		c-0.259,0.301-0.624,0.409-1.021,0.306c-0.12-0.03-0.232,0.04-0.263,0.154c-0.03,0.115,0.039,0.232,0.153,0.262
		c0.136,0.035,0.27,0.053,0.399,0.053c0.401,0,0.766-0.167,1.042-0.481v2.405c-1.344-0.388-2.198-1.515-2.198-3.064
		c0-0.611,0.145-1.149,0.387-1.612c0.092-0.176,0.2-0.339,0.321-0.488c0.035-0.043,0.067-0.088,0.105-0.128
		c0.139-0.153,0.295-0.288,0.465-0.408c0.026-0.018,0.047-0.041,0.074-0.059c0.423-0.277,0.928-0.451,1.499-0.506
		c0.05-0.005,0.095-0.009,0.15-0.01C60.48,48.675,60.718,48.724,60.771,48.953z M56.876,52.061c0.008,0.198,0.018,0.395,0.052,0.58
		c-0.062-0.2-0.124-0.401-0.157-0.608L56.876,52.061z M59.488,55.389v0.378c-0.387-0.252-0.739-0.523-1.052-0.815
		C58.748,55.152,59.106,55.29,59.488,55.389z M57.012,52.946c-0.023-0.059-0.032-0.122-0.052-0.183
		C56.973,52.826,56.995,52.884,57.012,52.946z M59.233,56.133c0.083,0.054,0.17,0.105,0.255,0.157v0.082
		C59.408,56.291,59.318,56.213,59.233,56.133z M59.488,48.096v0.283c-0.026,0.007-0.052,0.015-0.078,0.022
		c-0.105,0.029-0.213,0.051-0.313,0.088c-0.187,0.07-0.359,0.161-0.526,0.258c-0.148,0.085-0.283,0.184-0.415,0.29
		c-0.115,0.092-0.228,0.184-0.329,0.29c-0.076,0.08-0.142,0.168-0.21,0.257c-0.106,0.137-0.201,0.282-0.286,0.437
		c-0.027,0.049-0.066,0.087-0.091,0.139c-0.006,0.013,0.001,0.027-0.003,0.041c-0.096,0.201-0.171,0.413-0.23,0.637l-1.025-0.275
		c-0.271,0.341-0.498,0.7-0.676,1.076l1.011,0.272c0.149,1.24,0.765,2.371,1.758,3.316c-0.889-0.584-1.966-1.065-3.246-1.377
		c0.003,0.148,0.01,0.297,0.026,0.447c2.108,0.538,3.632,1.556,4.632,2.701v0.851v0.625v0.46v0.275v0.663v0.465
		c-3.492-1.522-5.093-4.229-5.093-6.58c0-2.648,1.899-4.867,5.093-6.125V48.096z M53.72,54.009c0,0.481-0.39,0.871-0.871,0.871
		c-0.48,0-0.87-0.39-0.87-0.871c0-0.481,0.39-0.871,0.87-0.871C53.33,53.138,53.72,53.528,53.72,54.009z M53.335,55.595
		c0.481,0,0.87,0.389,0.87,0.87s-0.389,0.871-0.87,0.871c-0.481,0-0.87-0.39-0.87-0.871S52.853,55.595,53.335,55.595z M54.819,57.76
		c0.481,0,0.87,0.39,0.87,0.87c0,0.481-0.389,0.871-0.87,0.871c-0.481,0-0.871-0.39-0.871-0.871
		C53.947,58.149,54.337,57.76,54.819,57.76z M55.958,60.413c0-0.481,0.389-0.871,0.87-0.871c0.481,0,0.87,0.39,0.87,0.871
		c0,0.481-0.389,0.871-0.87,0.871C56.347,61.284,55.958,60.895,55.958,60.413z M59.22,60.706c0.095,0,0.182,0.026,0.268,0.054v1.634
		c-0.086,0.028-0.173,0.054-0.268,0.054c-0.481,0-0.871-0.39-0.871-0.871C58.349,61.097,58.739,60.706,59.22,60.706z M59.488,45.825
		v0.43h-2.691c-4.02,1.993-5.007,5.059-5.213,5.954c-0.025,0.106-0.128,0.171-0.234,0.166c-0.035-0.004-0.066-0.016-0.094-0.035
		h-2.15c-0.063,0-0.124-0.028-0.165-0.077c-0.04-0.048-0.058-0.112-0.047-0.175c0.137-0.783,0.554-2.542,1.698-4.379
		c0.172-0.009,0.333-0.006,0.508-0.019c0.006,0,0.012-0.002,0.018-0.002c2.843-0.215,4.767-1.287,5.717-3.187
		c0.096-0.191,0.178-0.386,0.251-0.584c0.853,0.308,1.656,0.717,2.404,1.217V45.825z M48.47,51.481
		c-0.868,0.397-1.346-0.186-1.346-0.729c0-0.543,0.814-1.615,1.776-1.294C48.175,49.767,48.056,50.826,48.47,51.481z M48.255,54.044
		c0,1.196-0.606,2.207-1.323,2.207c-0.719,0-1.326-1.011-1.326-2.207s0.607-2.207,1.326-2.207
		C47.648,51.837,48.255,52.848,48.255,54.044z M46.736,50.752c0,0.544-0.477,1.127-1.346,0.729c0.415-0.655,0.294-1.714-0.429-2.023
		C45.921,49.137,46.736,50.209,46.736,50.752z M45.229,53.415c-0.032,0.202-0.054,0.411-0.054,0.629s0.022,0.427,0.054,0.629h-1.221
		v-1.258H45.229z M45.39,56.607c0.869-0.398,1.346,0.186,1.346,0.729s-0.814,1.615-1.775,1.294
		C45.684,58.321,45.805,57.263,45.39,56.607z M47.124,57.336c0-0.544,0.478-1.127,1.346-0.729c-0.414,0.656-0.294,1.714,0.43,2.023
		C47.938,58.951,47.124,57.88,47.124,57.336z M48.631,54.673c0.032-0.202,0.053-0.41,0.053-0.629s-0.022-0.427-0.053-0.629h1.221
		v1.258H48.631z M56.449,44.308c-0.879,1.759-2.689,2.752-5.381,2.952c-4.958,0.369-8.578-0.758-10.249-3.154
		c0.984-0.006,1.946-0.372,2.997-1.393c0.689-0.669,1.151-2.047,1.386-4.105c0.374,1.1,1.536,1.767,2.649,1.875
		c0.115,0.011,0.228,0.017,0.339,0.017c0.873,0,1.599-0.341,2.035-0.931c-0.035,0.034-0.063,0.077-0.07,0.131
		c-0.071,0.604-0.691,1.085-1.248,1.334c-0.108,0.048-0.157,0.175-0.108,0.284c0.036,0.08,0.114,0.127,0.196,0.127
		c0.029,0,0.06-0.006,0.088-0.019c0.664-0.296,1.406-0.893,1.5-1.676c0.014-0.118-0.07-0.225-0.188-0.239
		c-0.062-0.008-0.115,0.01-0.156,0.042c0.15-0.207,0.266-0.443,0.338-0.707c0.021-0.077-0.002-0.159-0.06-0.213
		c-1.448-1.364-3.912-1.304-5.243-0.823c0.086-1.064,0.123-2.271,0.104-3.645c3.354-0.565,7.333-0.369,8.726,0.418
		c0.554,0.518,1.102,1.208,1.721,2.173C56.659,38.059,57.738,41.728,56.449,44.308z M45.53,38.173
		c1.189-0.383,3.32-0.414,4.593,0.684c-0.348,1.005-1.362,1.28-2.23,1.198C46.829,39.953,45.71,39.277,45.53,38.173z M54.073,34.086
		c-0.154-0.068-0.326-0.132-0.515-0.19c-2.84-0.878-9.457-0.633-12.356,1.201c-0.136-0.593-0.268-1.179-0.396-1.753
		c3.221-2.099,11.281-2.251,13.731-1.078C54.357,32.857,54.201,33.467,54.073,34.086z M41.175,35.634
		c0.003-0.002,0.004-0.005,0.006-0.007c0.003-0.002,0.006-0.001,0.008-0.003c0.876-0.64,2.237-1.095,3.761-1.386
		c0.071,5.519-0.736,7.49-1.433,8.166c-1.496,1.452-2.69,1.474-4.254,1.016c-1.477-0.433-2.666-1.126-3.263-1.904
		c-0.676-0.881-0.756-1.997-0.194-2.713c0.373-0.476,0.922-0.748,1.481-0.748c0.089,0,0.178,0.007,0.267,0.021
		c0.559,0.089,0.994,0.455,1.194,1.004c0.03,0.082,0.107,0.138,0.194,0.141c0.093,0.004,0.168-0.046,0.204-0.127
		C40.053,37.069,40.736,35.905,41.175,35.634z M37.86,43.582c0.046-0.011,0.088-0.03,0.134-0.04l0.302,0
		c0.272,0.106,0.552,0.206,0.847,0.292c0.083,0.024,0.162,0.037,0.244,0.058c4.27,2.552,5.346,6.839,5.582,8.196
		c0.011,0.063-0.007,0.126-0.048,0.175c-0.04,0.049-0.101,0.077-0.164,0.077h-2.164c-0.024,0.018-0.053,0.03-0.082,0.033
		c-0.11,0.015-0.208-0.024-0.234-0.131c-0.576-2.494-2.96-5.604-7.904-6.954v-0.161c0.104-0.07,0.216-0.127,0.323-0.193
		C35.669,44.327,36.726,43.865,37.86,43.582z M33.091,59.136c-0.047-0.202,0.064-0.424,0.194-0.489
		c0.537-0.264,0.946-0.706,1.183-1.276c0.022-0.054,0.022-0.115-0.001-0.168c-0.186-0.427-0.094-1,0.218-1.364
		c0.259-0.302,0.624-0.409,1.02-0.306c0.119,0.031,0.233-0.039,0.263-0.154c0.03-0.115-0.039-0.232-0.153-0.262
		c-0.555-0.143-1.076,0.013-1.441,0.43v-2.407c1.344,0.388,2.199,1.515,2.199,3.063c0,0.611-0.144,1.148-0.386,1.611
		c-0.092,0.176-0.2,0.338-0.32,0.488c-0.036,0.044-0.07,0.091-0.108,0.133c-0.136,0.149-0.288,0.28-0.452,0.397
		c-0.03,0.021-0.055,0.049-0.086,0.069c-0.422,0.276-0.925,0.45-1.493,0.505c-0.06,0.006-0.099,0.006-0.166,0.01
		C33.371,59.412,33.142,59.36,33.091,59.136z M36.985,56.028c-0.008-0.199-0.018-0.398-0.052-0.585
		c0.063,0.202,0.125,0.404,0.159,0.613L36.985,56.028z M34.372,52.7v-0.378c0.388,0.252,0.74,0.523,1.053,0.816
		C35.113,52.937,34.754,52.799,34.372,52.7z M36.848,55.14c0.027,0.068,0.037,0.141,0.06,0.211
		C36.893,55.278,36.867,55.211,36.848,55.14z M34.629,51.956c-0.083-0.054-0.171-0.106-0.258-0.159v-0.083
		C34.453,51.797,34.543,51.876,34.629,51.956z M38.554,56.449l-1.009-0.271c-0.149-1.241-0.766-2.372-1.76-3.316
		c0.889,0.585,1.967,1.065,3.247,1.377c-0.003-0.148-0.01-0.297-0.026-0.447c-2.109-0.539-3.633-1.557-4.633-2.702v-0.851v-0.628
		v-0.455v-0.277v-0.664V47.75c3.493,1.522,5.094,4.229,5.094,6.581c0,0.787-0.169,1.535-0.488,2.233L38.554,56.449z M39.656,51.623
		c0-0.481,0.389-0.871,0.87-0.871c0.481,0,0.87,0.39,0.87,0.871c0,0.481-0.389,0.871-0.87,0.871
		C40.045,52.494,39.656,52.104,39.656,51.623z M39.042,50.329c-0.481,0-0.872-0.39-0.872-0.871c0-0.48,0.39-0.871,0.872-0.871
		c0.48,0,0.87,0.39,0.87,0.871C39.912,49.939,39.522,50.329,39.042,50.329z M37.903,47.675c0,0.481-0.39,0.871-0.87,0.871
		c-0.481,0-0.871-0.391-0.871-0.871c0-0.481,0.39-0.87,0.871-0.87C37.512,46.805,37.903,47.194,37.903,47.675z M34.64,47.382
		c-0.095,0-0.183-0.026-0.268-0.054v-1.633c0.086-0.028,0.173-0.054,0.268-0.054c0.481,0,0.87,0.39,0.87,0.87
		C35.511,46.991,35.122,47.382,34.64,47.382z M34.372,59.992V59.71c0.025-0.007,0.05-0.014,0.075-0.021
		c0.107-0.029,0.217-0.052,0.319-0.09c0.181-0.068,0.347-0.157,0.51-0.251c0.154-0.088,0.296-0.19,0.432-0.3
		c0.113-0.091,0.226-0.182,0.326-0.287c0.076-0.08,0.143-0.168,0.21-0.257c0.107-0.138,0.202-0.284,0.288-0.439
		c0.026-0.048,0.065-0.086,0.089-0.136c0.006-0.013-0.001-0.026,0.002-0.04c0.096-0.201,0.172-0.415,0.232-0.64l1.025,0.275
		l0.452,0.122c-0.873,1.164-2.226,2.128-3.959,2.811V59.992z M40.141,54.08c0-0.482,0.39-0.871,0.87-0.871
		c0.481,0,0.872,0.39,0.872,0.871c0,0.481-0.39,0.87-0.872,0.87C40.531,54.95,40.141,54.56,40.141,54.08z M33.348,58.111
		c-0.089,0.061-0.175,0.112-0.253,0.151c-0.32,0.159-0.51,0.594-0.423,0.971c0.072,0.317,0.323,0.52,0.676,0.584v15.278h-1.143
		V40.088l1.143,1.146V58.111z M31.238,61.982c0,0.764-0.593,1.389-1.359,1.491v-2.981C30.645,60.593,31.238,61.218,31.238,61.982z
		 M31.238,66.99c0,0.764-0.593,1.389-1.359,1.491v-2.981C30.645,65.601,31.238,66.226,31.238,66.99z M29.879,51.627v-0.951v-0.202
		c0.766,0.102,1.359,0.727,1.359,1.491c0,0.764-0.593,1.388-1.359,1.49V51.627z M31.238,41.948c0,0.764-0.593,1.389-1.359,1.491
		v-2.981C30.645,40.558,31.238,41.184,31.238,41.948z M29.879,45.466c0.766,0.102,1.359,0.726,1.359,1.49
		c0,0.764-0.593,1.389-1.359,1.49V45.466z M29.879,57.412V56.21v-0.727c0.766,0.102,1.359,0.727,1.359,1.491
		c0,0.764-0.593,1.389-1.359,1.491V57.412z M29.879,70.508c0.766,0.101,1.359,0.726,1.359,1.49c0,0.764-0.593,1.389-1.359,1.491
		V70.508z M29.879,79.28v-2.954v-0.802h4.278h1.604l-5.883,4.995V79.28z M34.372,62.264v-0.43h2.694
		c4.019-1.994,5.005-5.06,5.211-5.954c0.025-0.106,0.124-0.174,0.234-0.166c0.034,0.004,0.066,0.016,0.094,0.034h2.15
		c0.063,0,0.124,0.028,0.164,0.076c0.041,0.049,0.059,0.113,0.048,0.175c-0.136,0.783-0.552,2.543-1.697,4.382
		c-0.173,0.009-0.335,0.006-0.511,0.019c-0.005,0-0.01,0.001-0.015,0.002c-2.844,0.214-4.768,1.285-5.717,3.186
		c-0.096,0.191-0.178,0.387-0.251,0.584c-0.854-0.309-1.657-0.717-2.404-1.217V62.264z M37.412,63.78
		c0.878-1.758,2.688-2.751,5.379-2.951c0.619-0.046,1.218-0.069,1.795-0.069c4.042,0,7,1.125,8.462,3.225
		c-0.985,0.005-1.949,0.367-3.003,1.389c-0.69,0.67-1.152,2.048-1.387,4.103c-0.375-1.098-1.536-1.765-2.648-1.872
		c-1.012-0.097-1.871,0.244-2.364,0.9c0.03-0.032,0.056-0.07,0.061-0.117c0.07-0.604,0.69-1.084,1.247-1.333
		c0.108-0.048,0.157-0.175,0.108-0.284c-0.048-0.109-0.176-0.158-0.284-0.109c-0.664,0.296-1.406,0.892-1.499,1.675
		c-0.014,0.118,0.071,0.225,0.188,0.238c0.009,0.001,0.018,0.001,0.025,0.001c0.053,0,0.102-0.02,0.14-0.053
		c-0.154,0.21-0.274,0.448-0.347,0.717c-0.021,0.077,0.002,0.159,0.06,0.213c0.884,0.833,2.148,1.135,3.303,1.135
		c0.735,0,1.421-0.124,1.938-0.31c-0.085,1.063-0.123,2.27-0.103,3.642c-3.354,0.565-7.334,0.369-8.725-0.417
		c-0.553-0.515-1.1-1.206-1.721-2.173C37.202,70.03,36.123,66.361,37.412,63.78z M48.331,69.916
		c-1.188,0.384-3.319,0.412-4.592-0.684c0.347-1.004,1.367-1.28,2.229-1.198C47.031,68.136,48.151,68.812,48.331,69.916z
		 M39.788,74.002c0.768,0.342,2.01,0.563,3.451,0.645c3.169,0.181,7.294-0.309,9.42-1.655c0.136,0.592,0.267,1.179,0.396,1.753
		v0.001c-3.221,2.099-11.279,2.25-13.731,1.078C39.504,75.234,39.66,74.624,39.788,74.002z M52.686,72.454
		c-0.003,0.002-0.005,0.006-0.008,0.008c-0.002,0.001-0.005,0-0.007,0.001c-0.876,0.639-2.237,1.094-3.761,1.386
		c-0.074-5.516,0.735-7.488,1.433-8.166c1.498-1.453,2.694-1.472,4.254-1.015c1.477,0.433,2.666,1.127,3.263,1.905
		c0.676,0.88,0.756,1.996,0.194,2.712c-0.433,0.551-1.108,0.83-1.75,0.726c-0.559-0.089-0.993-0.455-1.192-1.004
		c-0.03-0.082-0.106-0.138-0.194-0.141c-0.076,0.008-0.168,0.047-0.204,0.127C53.808,71.019,53.127,72.183,52.686,72.454z
		 M56.002,64.507c-0.046,0.011-0.089,0.03-0.135,0.041l-0.302,0c-0.272-0.106-0.552-0.206-0.847-0.292
		c-0.087-0.026-0.171-0.043-0.257-0.066c-0.627-0.376-1.192-0.785-1.688-1.221c-0.024-0.024-0.051-0.046-0.075-0.069
		c-2.811-2.516-3.606-5.753-3.805-6.9c-0.011-0.063,0.007-0.126,0.048-0.175c0.04-0.048,0.101-0.076,0.164-0.076h2.164
		c0.024-0.018,0.052-0.029,0.081-0.032c0.108-0.011,0.209,0.025,0.234,0.132c0.576,2.494,2.96,5.603,7.903,6.953v0.161
		c-0.104,0.07-0.216,0.127-0.322,0.193C58.192,63.761,57.135,64.223,56.002,64.507z M60.513,66.856V49.978
		c0.089-0.061,0.175-0.112,0.253-0.151c0.32-0.159,0.511-0.594,0.424-0.971c-0.073-0.314-0.321-0.516-0.677-0.581V32.994h1.143
		v35.009L60.513,66.856z M62.622,66.142c0-0.764,0.594-1.39,1.36-1.491v2.981C63.216,67.53,62.622,66.905,62.622,66.142z
		 M63.982,62.624c-0.767-0.102-1.36-0.726-1.36-1.49c0-0.764,0.594-1.389,1.36-1.491V62.624z M63.982,57.411v0.001v0.203
		c-0.767-0.102-1.36-0.726-1.36-1.491c0-0.764,0.594-1.389,1.36-1.491v0.854v0.974V57.411z M63.982,50.676v1.202v0.728
		c-0.767-0.102-1.36-0.727-1.36-1.491c0-0.764,0.594-1.389,1.36-1.491V50.676z M63.982,37.581c-0.767-0.102-1.36-0.727-1.36-1.491
		c0-0.764,0.594-1.389,1.36-1.49V37.581z M63.982,32.564h-4.279h-1.604l5.883-4.994v1.239v2.953V32.564z M57.806,26.498
		c-0.483,0.497-0.924,1.043-1.326,1.632l0.086-0.34l-2.2,3.941c-0.042-0.015-0.094-0.028-0.138-0.042l0.72-4.411l-1.858,4.12
		c-0.058-0.011-0.112-0.024-0.171-0.034l0.304-4.436l-1.468,4.283c-0.053-0.005-0.107-0.01-0.16-0.015L51.57,26.89l-1.106,4.231
		c-0.07-0.003-0.137-0.008-0.208-0.01l-0.28-4.288L49.125,31.1c-0.073,0.001-0.147,0.005-0.22,0.007l-0.604-4.342l-0.546,4.391
		c-0.073,0.005-0.145,0.011-0.218,0.016l-1.01-4.336l-0.146,4.443c-0.059,0.007-0.117,0.013-0.176,0.02l-1.182-4.3l0.028,4.468
		c-0.061,0.01-0.123,0.018-0.184,0.029l-1.462-4.24l0.316,4.483c-0.06,0.015-0.116,0.033-0.176,0.048l-1.82-4.125l0.693,4.464
		c-0.056,0.02-0.113,0.039-0.168,0.059l-2.193-3.962l1.101,4.424c-0.048,0.025-0.09,0.053-0.137,0.078l-0.545-0.823
		c-0.518-2.215-1.045-4.12-1.813-5.405H57.806z M36.053,81.592c0.484-0.497,0.924-1.044,1.327-1.633L37.295,80.3l2.202-3.944
		c0.043,0.016,0.091,0.031,0.136,0.046l-0.72,4.41l1.857-4.12c0.057,0.011,0.113,0.021,0.171,0.032l-0.304,4.438l1.467-4.28
		c0.053,0.005,0.108,0.01,0.161,0.014l0.025,4.303l1.106-4.228c0.07,0.003,0.139,0.006,0.21,0.008l0.28,4.287l0.852-4.282
		c0.073-0.001,0.146-0.004,0.219-0.005l0.604,4.345l0.546-4.393c0.072-0.005,0.144-0.01,0.216-0.015l1.01,4.337l0.146-4.444
		c0.059-0.007,0.118-0.014,0.176-0.021l1.183,4.302l-0.029-4.472c0.061-0.01,0.122-0.02,0.182-0.031l1.463,4.246l-0.317-4.49
		c0.058-0.014,0.119-0.027,0.177-0.042l1.821,4.126l-0.692-4.462c0.056-0.019,0.117-0.035,0.172-0.054l2.19,3.955l-1.104-4.429
		c0.048-0.025,0.088-0.053,0.134-0.078l0.548,0.826c0.518,2.217,1.045,4.122,1.814,5.407H36.053z M63.982,27.006l-6.607,5.609
		c-0.069,0.059-0.095,0.153-0.063,0.238c0.031,0.084,0.112,0.141,0.202,0.141h1.975v11.646c-0.714-0.452-1.47-0.837-2.278-1.127
		c0.808-2.804-0.404-6.019-1.025-6.987c-0.613-0.958-1.163-1.653-1.722-2.188c0.07-0.354,0.148-0.701,0.233-1.04
		c0.067-0.264,0.145-0.522,0.222-0.78c0.74-2.478,1.91-4.501,3.505-6.019h5.559V27.006z M38.147,26.498
		c1.023,1.536,1.656,4.337,2.322,7.308c0.069,0.305,0.141,0.619,0.211,0.929c0.048,0.212,0.094,0.418,0.143,0.632
		c-0.479,0.389-1.071,1.373-1.88,3.14c-0.298-0.462-0.761-0.765-1.32-0.854c-0.801-0.127-1.626,0.212-2.153,0.886
		c-0.683,0.871-0.604,2.204,0.19,3.24c0.416,0.541,1.083,1.04,1.916,1.45c-1.149,0.31-2.221,0.782-3.203,1.405v-2.892
		c0-0.057-0.022-0.111-0.063-0.152l-4.431-4.444V26.498H38.147z M29.879,81.083l6.608-5.61c0.068-0.059,0.094-0.153,0.063-0.238
		c-0.031-0.084-0.112-0.141-0.202-0.141h-1.976V63.449c0.714,0.452,1.471,0.837,2.279,1.128c-0.808,2.804,0.404,6.019,1.025,6.988
		c0.615,0.959,1.165,1.655,1.722,2.187c-0.071,0.36-0.15,0.712-0.236,1.055c-0.061,0.238-0.131,0.469-0.199,0.701
		c-0.739,2.508-1.916,4.553-3.524,6.084h-5.558V81.083z M55.714,81.592c-1.027-1.542-1.66-4.354-2.329-7.337
		c-0.113-0.503-0.229-1.016-0.347-1.531c0.481-0.39,1.071-1.374,1.88-3.14c0.298,0.461,0.759,0.765,1.317,0.854
		c0.802,0.125,1.627-0.211,2.156-0.885c0.684-0.872,0.604-2.204-0.19-3.24c-0.415-0.541-1.083-1.041-1.916-1.451
		c1.149-0.31,2.22-0.782,3.202-1.405v2.892c0,0.057,0.022,0.111,0.063,0.152l4.432,4.444v10.648H55.714z"/>
	<path d="M53.33,44.616c0.105,0.056,0.235,0.019,0.292-0.086c0.057-0.104,0.018-0.235-0.087-0.292
		c-0.886-0.48-3.62-0.595-5.686-0.018c-0.114,0.032-0.182,0.15-0.149,0.265c0.026,0.095,0.113,0.157,0.207,0.157
		c0.019,0,0.038-0.002,0.058-0.008C50.032,44.056,52.602,44.223,53.33,44.616z"/>
	<path d="M52.103,45.432c0.061-0.102,0.028-0.234-0.073-0.295c-0.101-0.061-0.233-0.028-0.296,0.073
		c-0.105,0.175-0.369,0.311-0.705,0.364c-0.496,0.079-1.014-0.032-1.293-0.274c-0.089-0.078-0.226-0.068-0.303,0.021
		c-0.078,0.09-0.068,0.226,0.021,0.303c0.297,0.259,0.765,0.405,1.256,0.405c0.128,0,0.257-0.01,0.386-0.03
		C51.57,45.925,51.927,45.723,52.103,45.432z"/>
	<path d="M45.663,36.508c1.161-0.45,3.332-0.712,4.637,0.243C49.644,35.421,46.843,34.71,45.663,36.508z"/>
	<path d="M55.595,36.508c-1.016-1.799-3.43-1.087-3.995,0.243C52.726,35.796,54.595,36.058,55.595,36.508z"/>
	<path d="M38.904,40.301c-0.306,0.446-0.342,0.964-0.099,1.421c0.304,0.57,0.967,0.921,1.735,0.921c0.009,0,0.018,0,0.025,0
		c0.671-0.007,1.337-0.327,1.874-0.902c1.091-1.168,1.606-3.284,1.451-5.957c-0.007-0.114-0.102-0.202-0.215-0.202
		c-0.004,0-0.008,0-0.013,0c-0.118,0.007-0.209,0.109-0.202,0.228c0.201,3.446-0.751,5.011-1.336,5.638
		c-0.456,0.488-1.012,0.76-1.563,0.766c-0.007,0-0.014,0-0.021,0c-0.601,0-1.132-0.271-1.356-0.693
		c-0.168-0.315-0.142-0.661,0.074-0.976c0.332-0.487,0.769-0.616,1.167-0.344c0.303,0.208,0.509,0.631,0.32,0.908
		c-0.066,0.098-0.042,0.232,0.057,0.299c0.098,0.066,0.231,0.042,0.299-0.057c0.336-0.493,0.048-1.176-0.434-1.505
		C40.215,39.535,39.478,39.465,38.904,40.301z"/>
	<path d="M38.254,39.514c0.12,0.02,0.222-0.081,0.229-0.2c0.008-0.118-0.082-0.221-0.2-0.229c-0.542-0.053-1.055,0.35-1.271,0.964
		c-0.235,0.667-0.043,1.339,0.491,1.711c0.037,0.026,0.08,0.039,0.123,0.039c0.067,0,0.135-0.032,0.177-0.092
		c0.067-0.097,0.044-0.231-0.054-0.299c-0.45-0.315-0.461-0.852-0.332-1.216C37.542,39.835,37.829,39.489,38.254,39.514z"/>
	<path d="M40.792,38.837c0.04,0.033,0.088,0.048,0.136,0.048c0.063,0,0.124-0.027,0.167-0.079c0.593-0.728,1.028-2.086,1.067-2.702
		c0.007-0.119-0.083-0.221-0.201-0.228c-0.005,0-0.01,0-0.014,0c-0.112,0-0.207,0.087-0.215,0.201
		c-0.035,0.553-0.458,1.829-0.972,2.458C40.686,38.627,40.7,38.762,40.792,38.837z"/>
	<polygon class="st2" points="63.982,28.809 63.982,27.57 58.099,32.564 59.703,32.564 63.982,32.564 63.982,31.762 60.504,31.762 	
		"/>
	<polygon class="st1" points="60.504,31.762 63.982,31.762 63.982,28.809 	"/>
	<path class="st2" d="M61.656,32.994h-1.143v15.281c0.357,0.065,0.605,0.267,0.677,0.581c0.087,0.377-0.104,0.813-0.424,0.971
		c-0.079,0.039-0.165,0.09-0.253,0.151v16.878l1.143,1.146V32.994z"/>
	<path class="st2" d="M62.622,36.091c0,0.764,0.594,1.389,1.36,1.491V34.6C63.216,34.702,62.622,35.327,62.622,36.091z"/>
	<path class="st2" d="M63.982,44.617c-0.767,0.102-1.36,0.727-1.36,1.491c0,0.764,0.594,1.389,1.36,1.491V44.617z"/>
	<path class="st2" d="M62.622,41.1c0,0.764,0.594,1.389,1.36,1.49v-2.981C63.216,39.71,62.622,40.336,62.622,41.1z"/>
	<path class="st2" d="M63.982,55.488v-0.854c-0.767,0.102-1.36,0.727-1.36,1.491c0,0.764,0.594,1.389,1.36,1.491v-0.203v-0.001
		v-0.949V55.488z"/>
	<path class="st2" d="M62.622,66.142c0,0.763,0.594,1.388,1.36,1.489v-2.981C63.216,64.753,62.622,65.378,62.622,66.142z"/>
	<path class="st2" d="M62.622,61.133c0,0.764,0.594,1.389,1.36,1.49v-2.981C63.216,59.744,62.622,60.369,62.622,61.133z"/>
	<path class="st2" d="M63.982,49.625c-0.767,0.102-1.36,0.727-1.36,1.491c0,0.764,0.594,1.389,1.36,1.491v-0.728v-1.202V49.625z"/>
	<path class="st0" d="M60.139,48.684c-0.571,0.055-1.076,0.23-1.499,0.506c-0.027,0.017-0.048,0.041-0.074,0.059
		c-0.169,0.119-0.325,0.254-0.465,0.408c-0.037,0.041-0.07,0.086-0.105,0.128c-0.121,0.149-0.229,0.312-0.321,0.488
		c-0.242,0.463-0.387,1-0.387,1.612c0,1.549,0.855,2.676,2.198,3.064v-2.405c-0.276,0.314-0.641,0.481-1.042,0.481
		c-0.13,0-0.264-0.018-0.399-0.053c-0.114-0.03-0.184-0.147-0.153-0.262c0.03-0.114,0.143-0.184,0.263-0.154
		c0.396,0.104,0.762-0.004,1.021-0.306c0.312-0.363,0.403-0.937,0.218-1.364c-0.023-0.053-0.023-0.114-0.001-0.168
		c0.236-0.57,0.645-1.011,1.183-1.276c0.142-0.07,0.237-0.308,0.195-0.489c-0.053-0.229-0.291-0.277-0.481-0.279
		C60.234,48.674,60.189,48.678,60.139,48.684z"/>
	<path class="st0" d="M45.968,68.034c-0.861-0.083-1.882,0.193-2.229,1.198c1.272,1.096,3.403,1.068,4.592,0.684
		C48.151,68.812,47.031,68.136,45.968,68.034z M46.581,69.634c-0.322,0-0.584-0.262-0.584-0.584s0.262-0.584,0.584-0.584
		s0.584,0.262,0.584,0.584S46.903,69.634,46.581,69.634z"/>
	<path class="st0" d="M39.913,67.982c-0.797,0.155-1.579,0.775-1.597,1.82c1.034,0.366,2.823,0.392,3.771-0.662
		C41.648,68.063,40.656,67.841,39.913,67.982z M40.6,69.634c-0.322,0-0.584-0.262-0.584-0.584s0.262-0.584,0.584-0.584
		c0.323,0,0.586,0.262,0.586,0.584S40.924,69.634,40.6,69.634z"/>
	<path class="st0" d="M40.6,68.895c-0.085,0-0.154,0.069-0.154,0.155s0.069,0.155,0.154,0.155c0.086,0,0.156-0.069,0.156-0.155
		S40.686,68.895,40.6,68.895z"/>
	<circle class="st0" cx="46.581" cy="69.049" r="0.155"/>
	<path class="st0" d="M38.037,71.332c0.622,0.967,1.169,1.658,1.721,2.173c1.392,0.787,5.371,0.982,8.725,0.417
		c-0.02-1.373,0.017-2.579,0.103-3.642c-0.517,0.186-1.204,0.31-1.938,0.31c-1.154,0-2.419-0.302-3.303-1.135
		c-0.058-0.054-0.081-0.136-0.06-0.213c0.073-0.269,0.193-0.508,0.347-0.717c-0.038,0.033-0.087,0.053-0.14,0.053
		c-0.008,0-0.017,0-0.025-0.001c-0.117-0.014-0.202-0.121-0.188-0.238c0.093-0.784,0.835-1.379,1.499-1.675
		c0.108-0.049,0.236,0,0.284,0.109c0.049,0.108,0,0.235-0.108,0.284c-0.557,0.248-1.177,0.729-1.247,1.333
		c-0.005,0.047-0.031,0.084-0.061,0.117c0.493-0.656,1.352-0.997,2.364-0.9c1.112,0.107,2.273,0.775,2.648,1.872
		c0.235-2.055,0.697-3.433,1.387-4.103c1.054-1.022,2.017-1.384,3.003-1.389c-1.462-2.1-4.42-3.225-8.462-3.225
		c-0.577,0-1.176,0.023-1.795,0.069c-2.69,0.2-4.501,1.192-5.379,2.951C36.123,66.361,37.202,70.03,38.037,71.332z M48.198,71.582
		c-1.181,1.798-3.981,1.086-4.637-0.244C44.866,72.293,47.037,72.03,48.198,71.582z M38.265,71.582c1,0.449,2.87,0.711,3.995-0.244
		C41.695,72.667,39.282,73.379,38.265,71.582z M42.5,69.318c-0.678,0.842-1.751,1.148-2.756,1.148c-0.643,0-1.258-0.125-1.722-0.315
		c-0.078-0.032-0.13-0.105-0.134-0.189c-0.063-1.378,0.963-2.211,1.942-2.401c0.767-0.149,1.659,0.053,2.25,0.749
		c-0.156-0.459-0.564-0.901-1.089-1.147c-0.107-0.051-0.153-0.179-0.103-0.286c0.051-0.107,0.175-0.152,0.286-0.104
		c0.688,0.323,1.211,0.913,1.366,1.54c0.028,0.115-0.042,0.232-0.157,0.26c-0.018,0.004-0.035,0.006-0.052,0.006
		c-0.029,0-0.052-0.016-0.078-0.027c0.108,0.167,0.207,0.347,0.281,0.559C42.56,69.182,42.547,69.26,42.5,69.318z M45.896,63.454
		c0.11-0.032,0.232,0.034,0.265,0.149s-0.035,0.233-0.149,0.265c-0.968,0.271-2.084,0.39-3.087,0.39
		c-1.136,0-2.128-0.152-2.599-0.408c-0.104-0.057-0.144-0.187-0.087-0.292c0.057-0.105,0.189-0.142,0.292-0.086
		C41.257,63.866,43.831,64.031,45.896,63.454z M44.406,62.464c0.089,0.078,0.099,0.214,0.021,0.303
		c-0.077,0.09-0.213,0.1-0.304,0.021c-0.277-0.242-0.796-0.351-1.29-0.274c-0.337,0.053-0.601,0.189-0.706,0.364
		c-0.041,0.067-0.112,0.104-0.185,0.104c-0.038,0-0.076-0.01-0.111-0.031c-0.102-0.062-0.134-0.193-0.073-0.295
		c0.176-0.291,0.534-0.493,1.008-0.567C43.39,61.99,44.032,62.139,44.406,62.464z"/>
	<path class="st2" d="M54.714,68.994c0.036-0.08,0.128-0.119,0.204-0.127c0.088,0.003,0.164,0.059,0.194,0.141
		c0.199,0.549,0.634,0.915,1.192,1.004c0.642,0.104,1.317-0.175,1.75-0.726c0.562-0.717,0.481-1.832-0.194-2.712
		c-0.597-0.778-1.786-1.473-3.263-1.905c-1.56-0.457-2.756-0.438-4.254,1.015c-0.698,0.678-1.507,2.65-1.433,8.166
		c1.524-0.292,2.885-0.747,3.761-1.386c0.002-0.001,0.005,0,0.007-0.001c0.003-0.002,0.005-0.006,0.008-0.008
		C53.127,72.183,53.808,71.019,54.714,68.994z M56.112,66.68c-0.098-0.068-0.121-0.202-0.054-0.299
		c0.069-0.098,0.205-0.121,0.3-0.053c0.534,0.373,0.727,1.044,0.492,1.711c-0.207,0.587-0.684,0.967-1.2,0.967
		c-0.024,0-0.048,0-0.072-0.002c-0.118-0.008-0.208-0.111-0.2-0.229c0.009-0.119,0.117-0.201,0.229-0.2
		c0.415,0.024,0.711-0.322,0.837-0.679C56.573,67.532,56.563,66.995,56.112,66.68z M51.912,72.213c-0.005,0-0.01,0-0.015,0
		c-0.118-0.008-0.208-0.11-0.2-0.229c0.041-0.617,0.479-1.976,1.068-2.701c0.075-0.092,0.211-0.106,0.303-0.031
		c0.092,0.075,0.106,0.21,0.031,0.302c-0.512,0.627-0.936,1.904-0.973,2.458C52.119,72.127,52.024,72.213,51.912,72.213z
		 M53.193,68.244c-0.481-0.329-0.771-1.012-0.436-1.505c0.067-0.098,0.201-0.124,0.299-0.057s0.123,0.201,0.057,0.299
		c-0.188,0.276,0.019,0.7,0.322,0.908c0.189,0.13,0.685,0.358,1.166-0.345c0.216-0.314,0.242-0.661,0.074-0.976
		c-0.226-0.423-0.756-0.694-1.356-0.694c-0.007,0-0.014,0-0.021,0c-0.552,0.006-1.107,0.278-1.563,0.767
		c-0.585,0.626-1.537,2.192-1.336,5.639c0.007,0.119-0.084,0.22-0.202,0.228c-0.005,0-0.009,0-0.013,0
		c-0.113,0-0.208-0.088-0.215-0.202c-0.155-2.673,0.36-4.789,1.451-5.958c0.537-0.575,1.202-0.896,1.874-0.903
		c0.008,0,0.017,0,0.025,0c0.769,0,1.432,0.352,1.735,0.921c0.243,0.457,0.207,0.975-0.099,1.421
		C54.383,68.624,53.647,68.555,53.193,68.244z"/>
	<path class="st1" d="M52.836,75.359c-0.047,0.025-0.086,0.054-0.134,0.078l1.104,4.429l-2.19-3.955
		c-0.055,0.02-0.116,0.035-0.172,0.054l0.692,4.462l-1.821-4.126c-0.058,0.015-0.118,0.027-0.177,0.042l0.317,4.49l-1.463-4.246
		c-0.06,0.011-0.122,0.021-0.182,0.031l0.029,4.472l-1.183-4.302c-0.059,0.007-0.117,0.014-0.176,0.021l-0.146,4.444l-1.01-4.337
		c-0.072,0.005-0.144,0.01-0.216,0.015l-0.546,4.393l-0.604-4.345c-0.073,0.002-0.146,0.004-0.219,0.005l-0.852,4.282l-0.28-4.287
		c-0.071-0.002-0.14-0.006-0.21-0.008l-1.106,4.228l-0.025-4.303c-0.054-0.005-0.108-0.009-0.161-0.014l-1.467,4.28l0.304-4.438
		c-0.058-0.01-0.115-0.021-0.171-0.032l-1.857,4.12l0.72-4.41c-0.045-0.015-0.093-0.03-0.136-0.046L37.295,80.3l0.086-0.341
		c-0.403,0.589-0.844,1.136-1.327,1.633h19.145c-0.769-1.286-1.296-3.19-1.814-5.407L52.836,75.359z"/>
	<path class="st3" d="M39.323,75.824c2.452,1.172,10.511,1.021,13.731-1.078v-0.001c-0.129-0.575-0.26-1.161-0.396-1.753
		c-2.126,1.346-6.252,1.836-9.42,1.655c-1.44-0.082-2.683-0.303-3.451-0.645C39.66,74.624,39.504,75.234,39.323,75.824z"/>
	<path d="M42.255,68.553c0.026,0.011,0.049,0.027,0.078,0.027c0.017,0,0.034-0.002,0.052-0.006c0.115-0.028,0.186-0.145,0.157-0.26
		c-0.155-0.626-0.679-1.216-1.366-1.54c-0.111-0.049-0.235-0.003-0.286,0.104c-0.051,0.107-0.005,0.235,0.103,0.286
		c0.524,0.246,0.933,0.688,1.089,1.147c-0.591-0.696-1.483-0.898-2.25-0.749c-0.979,0.19-2.006,1.022-1.942,2.401
		c0.004,0.084,0.056,0.158,0.134,0.189c0.464,0.189,1.079,0.315,1.722,0.315c1.005,0,2.078-0.306,2.756-1.148
		c0.047-0.058,0.061-0.136,0.036-0.206C42.462,68.9,42.363,68.719,42.255,68.553z M38.316,69.803c0.018-1.045,0.8-1.666,1.597-1.82
		c0.743-0.141,1.735,0.081,2.174,1.158C41.139,70.194,39.35,70.168,38.316,69.803z"/>
	<path d="M46.581,68.465c-0.322,0-0.584,0.262-0.584,0.584s0.262,0.584,0.584,0.584s0.584-0.262,0.584-0.584
		S46.903,68.465,46.581,68.465z M46.581,69.204c-0.085,0-0.154-0.069-0.154-0.155s0.069-0.155,0.154-0.155s0.154,0.069,0.154,0.155
		S46.666,69.204,46.581,69.204z"/>
	<path d="M40.6,68.465c-0.322,0-0.584,0.262-0.584,0.584s0.262,0.584,0.584,0.584c0.323,0,0.586-0.262,0.586-0.584
		S40.924,68.465,40.6,68.465z M40.6,69.204c-0.085,0-0.154-0.069-0.154-0.155s0.069-0.155,0.154-0.155
		c0.086,0,0.156,0.069,0.156,0.155S40.686,69.204,40.6,69.204z"/>
	<path d="M40.531,63.472c-0.103-0.055-0.235-0.019-0.292,0.086c-0.057,0.104-0.018,0.235,0.087,0.292
		c0.471,0.255,1.463,0.408,2.599,0.408c1.003,0,2.119-0.119,3.087-0.39c0.114-0.032,0.182-0.15,0.149-0.265
		s-0.154-0.181-0.265-0.149C43.831,64.031,41.257,63.866,40.531,63.472z"/>
	<path d="M41.758,62.656c-0.061,0.102-0.028,0.233,0.073,0.295c0.035,0.021,0.073,0.031,0.111,0.031
		c0.072,0,0.144-0.037,0.185-0.104c0.105-0.175,0.369-0.311,0.706-0.364c0.494-0.077,1.013,0.032,1.29,0.274
		c0.091,0.079,0.227,0.069,0.304-0.021c0.078-0.089,0.068-0.225-0.021-0.303c-0.374-0.325-1.016-0.474-1.641-0.375
		C42.292,62.164,41.933,62.365,41.758,62.656z"/>
	<path d="M48.198,71.582c-1.161,0.449-3.332,0.711-4.637-0.244C44.217,72.667,47.018,73.379,48.198,71.582z"/>
	<path d="M38.265,71.582c1.016,1.798,3.43,1.086,3.995-0.244C41.135,72.293,39.266,72.03,38.265,71.582z"/>
	<path d="M54.957,67.788c0.306-0.446,0.342-0.964,0.099-1.421c-0.304-0.57-0.967-0.921-1.735-0.921c-0.009,0-0.018,0-0.025,0
		c-0.672,0.007-1.337,0.328-1.874,0.903c-1.091,1.169-1.606,3.285-1.451,5.958c0.007,0.114,0.102,0.202,0.215,0.202
		c0.004,0,0.008,0,0.013,0c0.118-0.007,0.209-0.109,0.202-0.228c-0.201-3.446,0.751-5.012,1.336-5.639
		c0.456-0.488,1.012-0.761,1.563-0.767c0.007,0,0.014,0,0.021,0c0.601,0,1.131,0.271,1.356,0.694
		c0.168,0.315,0.142,0.661-0.074,0.976c-0.481,0.703-0.977,0.475-1.166,0.345c-0.304-0.208-0.511-0.631-0.322-0.908
		c0.066-0.098,0.041-0.232-0.057-0.299s-0.231-0.042-0.299,0.057c-0.336,0.493-0.046,1.176,0.436,1.505
		C53.647,68.555,54.383,68.624,54.957,67.788z"/>
	<path d="M55.607,68.575c-0.112-0.001-0.221,0.081-0.229,0.2c-0.008,0.118,0.082,0.221,0.2,0.229
		c0.024,0.002,0.048,0.002,0.072,0.002c0.517,0,0.993-0.38,1.2-0.967c0.234-0.667,0.042-1.338-0.492-1.711
		c-0.095-0.067-0.23-0.045-0.3,0.053c-0.067,0.097-0.044,0.231,0.054,0.299c0.451,0.315,0.461,0.852,0.332,1.215
		C56.318,68.253,56.022,68.599,55.607,68.575z"/>
	<path d="M53.068,69.252c-0.092-0.076-0.228-0.061-0.303,0.031c-0.59,0.725-1.027,2.084-1.068,2.701
		c-0.008,0.118,0.082,0.221,0.2,0.229c0.005,0,0.01,0,0.015,0c0.112,0,0.207-0.087,0.215-0.201c0.037-0.554,0.461-1.831,0.973-2.458
		C53.175,69.463,53.16,69.327,53.068,69.252z"/>
	<polygon class="st2" points="34.157,75.524 29.879,75.524 29.879,76.327 33.357,76.327 29.879,79.28 29.879,80.519 35.761,75.524 	
		"/>
	<polygon class="st1" points="29.879,76.327 29.879,79.28 33.357,76.327 	"/>
	<path class="st2" d="M32.205,75.095h1.143V59.816c-0.353-0.064-0.604-0.267-0.676-0.584c-0.087-0.376,0.103-0.812,0.423-0.971
		c0.079-0.039,0.165-0.09,0.253-0.151V41.234l-1.143-1.146V75.095z"/>
	<path class="st2" d="M31.238,71.998c0-0.764-0.593-1.389-1.359-1.49v2.981C30.645,73.387,31.238,72.762,31.238,71.998z"/>
	<path class="st2" d="M29.879,63.472c0.766-0.102,1.359-0.727,1.359-1.491c0-0.764-0.593-1.389-1.359-1.491V63.472z"/>
	<path class="st2" d="M31.238,66.99c0-0.764-0.593-1.389-1.359-1.491v2.981C30.645,68.379,31.238,67.753,31.238,66.99z"/>
	<path class="st2" d="M29.879,53.455c0.766-0.102,1.359-0.726,1.359-1.49c0-0.764-0.593-1.389-1.359-1.491v0.202v0.951V53.455z"/>
	<path class="st2" d="M31.238,41.948c0-0.764-0.593-1.389-1.359-1.491v2.981C30.645,43.337,31.238,42.712,31.238,41.948z"/>
	<path class="st2" d="M31.238,46.956c0-0.764-0.593-1.389-1.359-1.49v2.981C30.645,48.345,31.238,47.72,31.238,46.956z"/>
	<path class="st2" d="M29.879,58.464c0.766-0.102,1.359-0.726,1.359-1.491c0-0.764-0.593-1.389-1.359-1.491v0.727v1.203V58.464z"/>
	<path class="st0" d="M33.725,59.406c0.568-0.055,1.071-0.229,1.493-0.505c0.031-0.02,0.056-0.048,0.086-0.069
		c0.164-0.117,0.317-0.248,0.452-0.397c0.039-0.042,0.072-0.088,0.108-0.133c0.12-0.149,0.228-0.311,0.32-0.488
		c0.242-0.463,0.386-1,0.386-1.611c0-1.549-0.855-2.676-2.199-3.063v2.407c0.366-0.417,0.886-0.573,1.441-0.43
		c0.114,0.03,0.184,0.147,0.153,0.262c-0.029,0.115-0.144,0.185-0.263,0.154c-0.396-0.104-0.761,0.004-1.02,0.306
		c-0.312,0.364-0.403,0.938-0.218,1.364c0.023,0.053,0.023,0.114,0.001,0.168c-0.236,0.57-0.646,1.012-1.183,1.276
		c-0.13,0.064-0.241,0.287-0.194,0.489c0.052,0.224,0.28,0.276,0.469,0.279C33.627,59.412,33.666,59.412,33.725,59.406z"/>
</g>
</svg>
