<?xml version="1.0" encoding="utf-8"?>
<!-- Generator: Adobe Illustrator 23.0.2, SVG Export Plug-In . SVG Version: 6.00 Build 0)  -->
<svg version="1.1" id="Layer_1" xmlns="http://www.w3.org/2000/svg" xmlns:xlink="http://www.w3.org/1999/xlink" x="0px" y="0px"
	 viewBox="0 0 82.452 99.776" style="enable-background:new 0 0 82.452 99.776;" xml:space="preserve">
<style type="text/css">
	.st0{fill:#FFFFFF;}
	.st1{fill:#ED1C24;}
	.st2{fill:#FFCB05;}
	.st3{fill:#21409A;}
	.st4{fill:#D4D5D6;}
	.st5{fill:#000100;}
	.st6{fill:#300505;}
	.st7{fill:#BFD730;}
	.st8{fill:#F15A22;}
</style>
<g>
	<path class="st0" d="M23.437,43.825c0.475,0,0.835-0.291,1.053-0.854c0.238-0.618,0.346-1.373,0.346-2.445
		c0-1.064-0.109-1.818-0.346-2.436c-0.224-0.573-0.57-0.854-1.053-0.854c-0.482,0-0.842,0.291-1.059,0.854
		c-0.238,0.618-0.346,1.391-0.346,2.436c0,1.063,0.109,1.818,0.346,2.445C22.595,43.534,22.955,43.825,23.437,43.825z"/>
	<path class="st0" d="M24.282,63.298c0-1.018-0.387-1.5-1.195-1.5h-0.414v3.063h0.367C23.848,64.862,24.282,64.316,24.282,63.298z"
		/>
	<path class="st0" d="M64.33,55.682c0,1.018,0.387,1.5,1.195,1.5h0.414v-3.063h-0.367C64.765,54.118,64.33,54.664,64.33,55.682z"/>
	<path class="st0" d="M65.927,25.244h-43.24c-1.564,0-2.836,1.272-2.836,2.835v62.82c0,1.563,1.272,2.836,2.836,2.836h43.24
		c1.564,0,2.836-1.272,2.836-2.836v-62.82C68.763,26.515,67.491,25.244,65.927,25.244z M62.762,50.646h1.338
		c0.319,1.272,0.509,1.945,0.706,2.454c0.217,0.563,0.428,0.755,0.863,0.755h0.271v-2.036c0-0.828-0.054-0.909-0.611-0.937v-0.236
		h2.105v0.236c-0.557,0.027-0.611,0.109-0.611,0.937v4.445c0,0.827,0.054,0.909,0.584,0.946v0.236h-2.078
		c-0.57,0-1.046-0.1-1.317-0.273c-0.428-0.273-0.625-0.709-0.625-1.382c0-1.1,0.509-1.672,1.582-1.781v-0.073
		c-0.353-0.055-0.598-0.2-0.842-0.482c-0.224-0.254-0.34-0.536-0.665-1.554c-0.265-0.827-0.38-1-0.7-1.036V50.646z M67.216,65.345
		v0.236h-3.728l-0.122-1.936l0.237-0.009c0.143,1.264,0.503,1.682,1.46,1.682h0.666v-2.854H65.24c-0.733,0-0.91,0.191-0.985,1.045
		h-0.217v-2.372h0.217c0.082,0.881,0.251,1.063,0.985,1.063h0.489v-3.154h-0.747c-0.917,0-1.297,0.473-1.494,1.891L63.264,60.9
		l0.143-2.118h3.81v0.236c-0.55,0.018-0.611,0.109-0.611,0.946V64.4C66.605,65.236,66.673,65.336,67.216,65.345z M22.35,34.47
		c0.156,0,0.285,0.073,0.333,0.191c0.034,0.082,0.034,0.082,0.048,0.4c0.013,0.4,0.136,0.627,0.34,0.627
		c0.278,0,0.373-0.364,0.373-1.427v-4.09c0-0.827-0.061-0.918-0.645-0.946v-0.236h2.153v0.236c-0.564,0.027-0.618,0.119-0.618,0.946
		v2.909c0,0.191,0,0.4,0.007,0.736c0.007,0.127,0.007,0.227,0.007,0.309c0,0.563-0.102,0.972-0.305,1.272
		c-0.245,0.346-0.625,0.536-1.093,0.536c-0.679,0-1.154-0.372-1.154-0.9C21.794,34.707,22.024,34.47,22.35,34.47z M21.617,38.062
		c0.394-0.682,1.059-1.073,1.82-1.073c0.754,0,1.406,0.382,1.813,1.073c0.374,0.618,0.577,1.509,0.577,2.463
		c0,0.963-0.204,1.854-0.577,2.472c-0.407,0.682-1.059,1.072-1.813,1.072c-0.754,0-1.419-0.391-1.82-1.072
		c-0.367-0.618-0.577-1.518-0.577-2.472C21.04,39.571,21.244,38.698,21.617,38.062z M25.851,68.334h-1.338
		c-0.319-1.272-0.509-1.945-0.706-2.454c-0.217-0.563-0.428-0.755-0.863-0.755h-0.271v2.036c0,0.828,0.054,0.909,0.611,0.936v0.236
		h-2.105v-0.236c0.557-0.027,0.611-0.109,0.611-0.936v-4.445c0-0.827-0.054-0.909-0.584-0.946v-0.236h2.078
		c0.57,0,1.046,0.1,1.318,0.273c0.428,0.273,0.624,0.709,0.624,1.382c0,1.1-0.509,1.672-1.582,1.781v0.073
		c0.353,0.054,0.598,0.2,0.842,0.482c0.224,0.254,0.34,0.536,0.665,1.554c0.265,0.827,0.38,1,0.699,1.036V68.334z M21.396,53.635
		v-0.236h3.728l0.122,1.936l-0.238,0.009c-0.143-1.264-0.503-1.682-1.46-1.682h-0.666v2.855h0.489c0.733,0,0.91-0.191,0.985-1.045
		h0.217v2.372h-0.217c-0.081-0.882-0.251-1.063-0.985-1.063h-0.489v3.154h0.747c0.917,0,1.297-0.473,1.494-1.891l0.224,0.036
		l-0.143,2.118h-3.81v-0.236c0.55-0.018,0.611-0.109,0.611-0.946V54.58C22.008,53.744,21.94,53.644,21.396,53.635z M25.96,52.061
		h-1.426c-0.088-0.273-0.088-0.273-0.367-0.882l-1.134-2.526l-0.475,0.718v1.509c0,0.837,0.055,0.918,0.611,0.946v0.236h-2.105
		v-0.236c0.557-0.027,0.611-0.109,0.611-0.946v-4.436c0-0.827-0.054-0.918-0.584-0.946v-0.236h2.051v0.236
		c-0.53,0.027-0.584,0.119-0.584,0.946v2.472l1.406-2.1c0.299-0.445,0.421-0.709,0.421-0.927c0-0.255-0.129-0.355-0.503-0.391
		v-0.236h1.874v0.236c-0.482,0.055-0.815,0.355-1.46,1.309l-0.672,0.982l1.494,3.145c0.292,0.618,0.516,0.854,0.842,0.9V52.061z
		 M59.437,49.907c-0.995,0-1.804-0.81-1.804-1.805c0-0.774,0.493-1.43,1.179-1.685c-0.744-1.292-1.45-2.129-2.247-2.229
		c-0.812-0.101-1.823,0.55-3.154,2.05c0.848,1.533,1.026,3.486,0.514,5.661c-0.213,0.904-0.588,1.728-1.094,2.449
		c0.872,0.692,2.18,1.303,3.659,1.181c0.089,0.003,0.174,0.043,0.211,0.124c0.038,0.082,0.021,0.178-0.042,0.242
		c-0.316,0.321-0.692,0.575-1.089,0.799c1.601,1.389,2.542,3.082,1.814,4.694c-1.014,2.25-2.887,3.017-4.406,3.433
		c-0.022,0.006-0.044,0.004-0.067,0.009c-0.05,0.583-0.398,1.084-0.947,1.342c0.067,0.074,0.115,0.159,0.139,0.25
		c0.045,0.173,0.028,0.445-0.308,0.757c-0.126,0.117-0.293,0.206-0.476,0.278c1.917,0.702,3.241,1.706,3.645,2.122
		c0.383,0.395,0.572,0.887,0.532,1.387c-0.042,0.526-0.342,1.022-0.845,1.397c-0.141,0.104-0.326,0.248-0.549,0.42
		c-1.257,0.972-3.871,2.993-6.427,4.148c0.034,1.575,0.387,2.714,1.08,3.353c0.633,0.584,1.428,0.645,1.982,0.598
		c0.664-0.06,0.943-0.464,1.05-0.699c0.012-0.026,0.023-0.052,0.033-0.079c-0.296,0.259-0.761,0.377-1.329,0.33
		c-0.752-0.06-1.263-0.582-1.333-1.362c-0.065-0.716,0.295-1.592,1.091-1.804c1.205-0.319,2.122,0.076,2.727,1.18
		c0.311,0.566,0.544,1.563,0.176,2.504c-0.311,0.797-0.991,1.391-1.967,1.719c-0.74,0.248-1.523,0.371-2.273,0.371
		c-0.936,0-1.82-0.19-2.509-0.567c-0.792-0.433-1.334-1.102-1.575-1.938c-0.606-0.245-1.626-0.881-1.748-1.81
		c-0.004-0.03-0.001-0.062,0.007-0.09c0.254-0.847,1.027-1.76,1.659-2.225c0.287-0.212,0.552-0.788,0.644-1.401
		c0.071-0.473,0.024-0.889-0.122-1.085c-0.055-0.074-0.056-0.175-0.004-0.25c0.052-0.076,0.146-0.107,0.236-0.085
		c0.965,0.275,1.539,0.593,1.871,1.429c0.715-0.514,1.667-1.518,2.515-2.419c0.593-0.63,1.13-1.2,1.559-1.582
		c-2.274-0.102-5.243-0.796-7.02-1.397c-0.795,0.221-1.566,0.354-2.231,0.354c-0.2,0-0.391-0.012-0.57-0.037
		c-0.219-0.031-0.443-0.093-0.667-0.154c-0.195,1.328-0.407,2.716-0.583,3.617c-0.292,1.505-0.538,1.776-1.451,2.788l-0.057,0.063
		c-0.812,0.899-2.249,2.32-3.396,3.307c0.036,1.519,0.382,2.636,1.068,3.279c0.667,0.625,1.51,0.694,2.098,0.641
		c0.688-0.063,0.978-0.481,1.089-0.726c0.016-0.035,0.03-0.07,0.043-0.106c-0.303,0.278-0.788,0.401-1.386,0.355
		c-0.923-0.073-1.313-0.771-1.369-1.398c-0.067-0.737,0.304-1.637,1.122-1.854c1.239-0.326,2.183,0.079,2.805,1.213
		c0.32,0.584,0.56,1.61,0.181,2.58c-0.32,0.818-1.02,1.43-2.025,1.768c-0.763,0.257-1.57,0.383-2.343,0.383
		c-0.964,0-1.876-0.196-2.586-0.585c-0.816-0.445-1.375-1.136-1.623-2c-0.625-0.251-1.677-0.905-1.802-1.862
		c-0.004-0.029-0.001-0.06,0.007-0.089c0.259-0.869,1.056-1.812,1.709-2.293c0.297-0.219,0.571-0.813,0.667-1.445
		c0.074-0.491,0.025-0.924-0.127-1.13c-0.055-0.074-0.056-0.175-0.004-0.25c0.052-0.076,0.146-0.108,0.236-0.085
		c0.867,0.247,1.292,0.59,1.556,1.154c0.435-0.695,1.003-1.662,1.847-3.111c0.01-0.386,0.026-0.807,0.043-1.265
		c0.056-1.439,0.126-3.313,0.044-5.633c-0.795-0.801-1.541-1.728-2.181-2.766c-0.043-0.069-0.042-0.157,0-0.227
		c0.927-1.485,2.235-2.593,3.24-3.084c-0.481-0.659-0.38-1.866-0.138-3.4c-2.493-0.061-4.29-0.623-5.454-1.721
		c-0.329-0.31-0.578-0.65-0.785-1.002l-0.056,0.229c0.452,0.328,0.75,0.857,0.75,1.458c0,0.995-0.809,1.804-1.804,1.804
		c-0.995,0-1.804-0.809-1.804-1.804c0-0.904,0.669-1.647,1.537-1.778l0.609-2.5c-0.012-0.12-0.022-0.238-0.03-0.356
		c-0.336-0.205-0.63-0.464-0.85-0.778c-0.864-1.234-0.596-2.637,0.754-3.947c0.488-0.474,1.021-0.758,1.566-0.836l1.258-5.167
		c-0.002-0.001-0.003-0.002-0.005-0.003c-0.5-0.252-0.926-0.626-1.208-1.095c-0.409-0.68-0.51-1.484-0.292-2.329
		c0.188-0.729,0.53-1.365,0.992-1.851c-0.184-0.487-0.427-0.778-0.74-0.888c-0.479-0.165-1.124,0.107-1.718,0.455
		c0.048,0.104,0.083,0.216,0.09,0.337c0.032,0.527-0.373,0.982-0.9,1.015c-0.019,0.001-0.037,0.001-0.056,0.001
		c-0.504,0-0.927-0.395-0.957-0.903c-0.015-0.255,0.07-0.5,0.24-0.691s0.404-0.306,0.66-0.321c0.104-0.004,0.2,0.019,0.296,0.045
		c0.935-2.126,2.883-2.925,3.996-2.628c0.804,0.214,1.436,1.008,1.715,2.104c0.988-1.81,2.033-1.964,2.758-1.913
		c0.413,0.03,0.855,0.287,1.215,0.704c0.347,0.403,0.882,1.288,0.89,2.881c0.1,0.04,0.197,0.09,0.281,0.164
		c0.191,0.17,0.305,0.404,0.32,0.66c0.015,0.255-0.07,0.501-0.241,0.692c-0.17,0.191-0.404,0.305-0.66,0.32
		c-0.019,0.001-0.037,0.001-0.056,0.001c-0.504,0-0.927-0.394-0.956-0.901c-0.015-0.256,0.07-0.502,0.24-0.693
		c0.052-0.058,0.119-0.095,0.182-0.138c-0.285-0.414-0.576-0.722-0.858-0.741c-0.298-0.025-0.674,0.262-1.155,0.854
		c0.393,0.68,0.511,1.547,0.341,2.523c-0.156,0.897-0.647,1.658-1.384,2.144c-0.521,0.344-1.12,0.523-1.709,0.523
		c-0.001,0-0.001,0-0.002,0l-1.233,5.064c0.446,0.21,0.882,0.541,1.3,1.026c0.665,0.77,0.718,1.899,0.26,2.922
		c0.307,0.291,0.621,0.598,0.913,0.891c0.172,0.002,0.376,0.007,0.603,0.012c0.525,0.012,1.162,0.022,1.779,0.002
		c-0.402-0.975-0.541-1.886-0.587-2.313c-0.009-0.088,0.037-0.174,0.116-0.214s0.175-0.028,0.242,0.031
		c1.006,0.907,2.029,1.463,3.101,1.72c0.034-0.595,0.145-1.203,0.342-1.817c0.524-1.628,1.396-3.011,2.524-4.008
		c-0.377-1.341-0.965-2.162-1.795-2.507c-1.247-0.519-2.908,0.114-4.485,0.954c0.163,0.271,0.262,0.585,0.262,0.923
		c0,0.995-0.809,1.804-1.804,1.804s-1.804-0.809-1.804-1.804s0.809-1.805,1.804-1.805c0.286,0,0.553,0.073,0.793,0.192
		c2.243-4.683,6.651-6.209,9.036-5.423c1.866,0.614,3.185,2.779,3.471,5.615c2.515-4.545,4.938-4.81,6.571-4.592
		c0.832,0.111,1.708,0.698,2.402,1.611c0.706,0.928,1.759,2.97,1.519,6.558c0.725,0.234,1.255,0.907,1.255,1.708
		C61.241,49.098,60.432,49.907,59.437,49.907z M62.653,66.919h1.426c0.088,0.273,0.088,0.273,0.367,0.882l1.134,2.527l0.475-0.718
		v-1.509c0-0.837-0.054-0.918-0.611-0.946v-0.236h2.105v0.236c-0.557,0.027-0.611,0.109-0.611,0.946v4.435
		c0,0.827,0.054,0.918,0.584,0.946v0.236h-2.051v-0.236c0.53-0.027,0.584-0.119,0.584-0.946v-2.472l-1.406,2.1
		c-0.299,0.445-0.421,0.709-0.421,0.927c0,0.255,0.129,0.355,0.503,0.391v0.236h-1.874v-0.236c0.482-0.055,0.815-0.355,1.46-1.309
		l0.672-0.982l-1.494-3.145c-0.292-0.618-0.516-0.854-0.842-0.9V66.919z M66.262,84.51c-0.156,0-0.285-0.073-0.333-0.191
		c-0.034-0.081-0.034-0.081-0.048-0.4c-0.013-0.4-0.136-0.627-0.34-0.627c-0.278,0-0.373,0.364-0.373,1.427v4.09
		c0,0.827,0.061,0.918,0.645,0.946v0.236h-2.153v-0.236c0.564-0.027,0.618-0.119,0.618-0.946V85.9c0-0.191,0-0.4-0.007-0.736
		c-0.007-0.127-0.007-0.227-0.007-0.309c0-0.563,0.102-0.972,0.305-1.272c0.245-0.346,0.625-0.536,1.093-0.536
		c0.679,0,1.154,0.372,1.154,0.9C66.819,84.273,66.588,84.51,66.262,84.51z M66.995,80.918c-0.394,0.682-1.059,1.073-1.82,1.073
		c-0.754,0-1.406-0.382-1.813-1.073c-0.374-0.618-0.577-1.508-0.577-2.463c0-0.963,0.204-1.854,0.577-2.472
		c0.407-0.682,1.059-1.072,1.813-1.072c0.754,0,1.419,0.391,1.82,1.072c0.367,0.618,0.577,1.518,0.577,2.472
		C67.572,79.409,67.369,80.282,66.995,80.918z"/>
	<path class="st0" d="M49.089,62.175c-0.24,0.335-0.502,0.614-0.856,0.794c0.074,0.067,0.146,0.136,0.218,0.208
		c0.298-0.307,0.724-0.612,1.311-0.797C49.529,62.323,49.309,62.25,49.089,62.175z"/>
	<path class="st0" d="M51.527,60.774c0.07-0.079,0.137-0.155,0.199-0.227c-0.429-0.089-0.902-0.197-1.375-0.312
		c-0.048,0.066-0.102,0.13-0.149,0.197c-0.037,0.052-0.067,0.102-0.103,0.154c0.115,0.452,0.286,0.879,0.526,1.252
		C50.936,61.451,51.261,61.077,51.527,60.774z"/>
	<path class="st0" d="M65.176,75.155c-0.475,0-0.835,0.291-1.053,0.854c-0.238,0.618-0.346,1.373-0.346,2.445
		c0,1.064,0.109,1.818,0.346,2.436c0.224,0.573,0.57,0.854,1.053,0.854c0.482,0,0.842-0.291,1.059-0.854
		c0.238-0.618,0.346-1.391,0.346-2.436c0-1.063-0.109-1.818-0.346-2.445C66.017,75.446,65.658,75.155,65.176,75.155z"/>
	<path d="M65.927,24.814h-43.24c-1.801,0-3.266,1.465-3.266,3.265v62.82c0,1.801,1.465,3.266,3.266,3.266h43.24
		c1.801,0,3.266-1.465,3.266-3.266v-62.82C69.193,26.279,67.728,24.814,65.927,24.814z M68.763,90.899
		c0,1.563-1.272,2.836-2.836,2.836h-43.24c-1.564,0-2.836-1.272-2.836-2.836v-62.82c0-1.563,1.272-2.835,2.836-2.835h43.24
		c1.564,0,2.836,1.272,2.836,2.835V90.899z"/>
	<path class="st5" d="M22.948,35.934c0.469,0,0.849-0.19,1.093-0.536c0.204-0.3,0.305-0.709,0.305-1.272
		c0-0.082,0-0.182-0.007-0.309c-0.007-0.337-0.007-0.545-0.007-0.736v-2.909c0-0.827,0.054-0.918,0.618-0.946v-0.236h-2.153v0.236
		c0.584,0.027,0.645,0.119,0.645,0.946v4.09c0,1.063-0.095,1.427-0.373,1.427c-0.204,0-0.326-0.228-0.34-0.627
		c-0.014-0.318-0.014-0.318-0.048-0.4c-0.047-0.118-0.177-0.191-0.333-0.191c-0.326,0-0.557,0.237-0.557,0.563
		C21.794,35.561,22.269,35.934,22.948,35.934z"/>
	<path class="st5" d="M23.437,44.07c0.754,0,1.406-0.391,1.813-1.072c0.374-0.618,0.577-1.509,0.577-2.472
		c0-0.955-0.204-1.846-0.577-2.463c-0.407-0.691-1.059-1.073-1.813-1.073c-0.76,0-1.426,0.391-1.82,1.073
		c-0.374,0.636-0.577,1.509-0.577,2.463c0,0.954,0.21,1.854,0.577,2.472C22.018,43.679,22.683,44.07,23.437,44.07z M22.378,38.089
		c0.217-0.564,0.577-0.854,1.059-0.854c0.482,0,0.829,0.282,1.053,0.854c0.238,0.618,0.346,1.373,0.346,2.436
		c0,1.072-0.109,1.827-0.346,2.445c-0.217,0.563-0.577,0.854-1.053,0.854c-0.482,0-0.842-0.291-1.059-0.854
		c-0.238-0.627-0.346-1.382-0.346-2.445C22.031,39.48,22.14,38.707,22.378,38.089z"/>
	<path class="st5" d="M25.117,50.934l-1.494-3.145l0.672-0.982c0.645-0.954,0.978-1.254,1.46-1.309v-0.236h-1.874v0.236
		c0.373,0.036,0.503,0.136,0.503,0.391c0,0.218-0.122,0.481-0.421,0.927l-1.406,2.1v-2.472c0-0.827,0.055-0.918,0.584-0.946v-0.236
		h-2.051v0.236c0.53,0.027,0.584,0.119,0.584,0.946v4.436c0,0.837-0.054,0.918-0.611,0.946v0.236h2.105v-0.236
		c-0.557-0.027-0.611-0.109-0.611-0.946v-1.509l0.475-0.718l1.134,2.526c0.278,0.609,0.278,0.609,0.367,0.882h1.426v-0.227
		C25.634,51.789,25.409,51.552,25.117,50.934z"/>
	<path class="st5" d="M21.396,59.961v0.236h3.81l0.143-2.118l-0.224-0.036c-0.197,1.418-0.577,1.891-1.494,1.891h-0.747V56.78h0.489
		c0.733,0,0.903,0.181,0.985,1.063h0.217v-2.372h-0.217c-0.075,0.854-0.251,1.045-0.985,1.045h-0.489v-2.855h0.666
		c0.957,0,1.318,0.418,1.46,1.682l0.238-0.009l-0.122-1.936h-3.728v0.236c0.543,0.009,0.611,0.109,0.611,0.946v4.435
		C22.008,59.852,21.946,59.943,21.396,59.961z"/>
	<path class="st5" d="M25.151,67.08c-0.326-1.018-0.441-1.3-0.665-1.554c-0.244-0.282-0.489-0.428-0.842-0.482v-0.073
		c1.073-0.109,1.582-0.682,1.582-1.781c0-0.673-0.197-1.109-0.624-1.382c-0.272-0.173-0.747-0.273-1.318-0.273h-2.078v0.236
		c0.53,0.037,0.584,0.119,0.584,0.946v4.445c0,0.828-0.054,0.909-0.611,0.936v0.236h2.105v-0.236
		c-0.557-0.027-0.611-0.109-0.611-0.936v-2.036h0.271c0.435,0,0.645,0.191,0.863,0.755c0.197,0.509,0.387,1.182,0.706,2.454h1.338
		v-0.218C25.532,68.08,25.416,67.907,25.151,67.08z M23.04,64.862h-0.367v-3.063h0.414c0.808,0,1.195,0.482,1.195,1.5
		C24.282,64.316,23.848,64.862,23.04,64.862z"/>
	<path class="st5" d="M65.665,83.046c-0.469,0-0.849,0.19-1.093,0.536c-0.204,0.3-0.305,0.709-0.305,1.272
		c0,0.082,0,0.182,0.007,0.309c0.007,0.336,0.007,0.545,0.007,0.736v2.909c0,0.827-0.054,0.918-0.618,0.946v0.236h2.153v-0.236
		c-0.584-0.027-0.645-0.119-0.645-0.946v-4.09c0-1.063,0.095-1.427,0.373-1.427c0.204,0,0.326,0.227,0.34,0.627
		c0.014,0.318,0.014,0.318,0.048,0.4c0.047,0.118,0.177,0.191,0.333,0.191c0.326,0,0.557-0.237,0.557-0.564
		C66.819,83.419,66.344,83.046,65.665,83.046z"/>
	<path class="st5" d="M65.176,74.91c-0.754,0-1.406,0.391-1.813,1.072c-0.374,0.618-0.577,1.509-0.577,2.472
		c0,0.955,0.204,1.846,0.577,2.463c0.407,0.691,1.059,1.073,1.813,1.073c0.76,0,1.426-0.391,1.82-1.073
		c0.374-0.636,0.577-1.508,0.577-2.463c0-0.954-0.21-1.854-0.577-2.472C66.595,75.301,65.929,74.91,65.176,74.91z M66.235,80.891
		c-0.217,0.563-0.577,0.854-1.059,0.854c-0.482,0-0.829-0.282-1.053-0.854c-0.238-0.618-0.346-1.373-0.346-2.436
		c0-1.072,0.109-1.827,0.346-2.445c0.217-0.564,0.577-0.854,1.053-0.854c0.482,0,0.842,0.291,1.059,0.854
		c0.238,0.627,0.346,1.382,0.346,2.445C66.581,79.5,66.473,80.273,66.235,80.891z"/>
	<path class="st5" d="M63.495,68.046l1.494,3.145l-0.672,0.982c-0.645,0.954-0.978,1.254-1.46,1.309v0.236h1.874v-0.236
		c-0.373-0.036-0.503-0.136-0.503-0.391c0-0.218,0.122-0.481,0.421-0.927l1.406-2.1v2.472c0,0.827-0.054,0.918-0.584,0.946v0.236
		h2.051v-0.236c-0.53-0.027-0.584-0.119-0.584-0.946v-4.435c0-0.837,0.054-0.918,0.611-0.946v-0.236h-2.105v0.236
		c0.557,0.027,0.611,0.109,0.611,0.946v1.509l-0.475,0.718l-1.134-2.527c-0.278-0.609-0.278-0.609-0.367-0.882h-1.426v0.227
		C62.979,67.192,63.203,67.428,63.495,68.046z"/>
	<path class="st5" d="M67.216,59.019v-0.236h-3.81L63.264,60.9l0.224,0.036c0.197-1.418,0.577-1.891,1.494-1.891h0.747V62.2H65.24
		c-0.733,0-0.903-0.182-0.985-1.063h-0.217v2.372h0.217c0.075-0.854,0.251-1.045,0.985-1.045h0.489v2.854h-0.666
		c-0.957,0-1.318-0.418-1.46-1.682l-0.237,0.009l0.122,1.936h3.728v-0.236c-0.543-0.009-0.611-0.109-0.611-0.946v-4.436
		C66.605,59.128,66.666,59.037,67.216,59.019z"/>
	<path class="st5" d="M63.461,51.9c0.326,1.018,0.441,1.3,0.665,1.554c0.244,0.282,0.489,0.427,0.842,0.482v0.073
		c-1.073,0.109-1.582,0.682-1.582,1.781c0,0.673,0.197,1.109,0.625,1.382c0.272,0.173,0.747,0.273,1.317,0.273h2.078v-0.236
		c-0.53-0.036-0.584-0.119-0.584-0.946v-4.445c0-0.828,0.054-0.909,0.611-0.937v-0.236h-2.105v0.236
		c0.557,0.027,0.611,0.109,0.611,0.937v2.036h-0.271c-0.435,0-0.645-0.191-0.863-0.755c-0.197-0.509-0.387-1.182-0.706-2.454h-1.338
		v0.218C63.081,50.901,63.196,51.073,63.461,51.9z M65.573,54.118h0.367v3.063h-0.414c-0.808,0-1.195-0.482-1.195-1.5
		C64.33,54.664,64.765,54.118,65.573,54.118z"/>
	<path class="st1" d="M37.568,44.237c0-0.264-0.079-0.509-0.208-0.719c-0.15,0.084-0.301,0.167-0.449,0.252
		c-0.078,0.043-0.179,0.036-0.248-0.023s-0.093-0.156-0.061-0.241c0.066-0.17,0.142-0.325,0.213-0.488
		c-0.188-0.096-0.397-0.156-0.622-0.156c-0.757,0-1.374,0.617-1.374,1.375s0.617,1.374,1.374,1.374S37.568,44.995,37.568,44.237z"/>
	<path class="st2" d="M60.811,48.102c0-0.577-0.36-1.07-0.866-1.273c-0.023,0.25-0.033,0.484-0.069,0.749
		c-0.013,0.093-0.084,0.167-0.177,0.183c-0.095,0.016-0.185-0.031-0.228-0.115c-0.151-0.299-0.299-0.578-0.445-0.846
		c-0.556,0.176-0.963,0.69-0.963,1.303c0,0.758,0.617,1.375,1.374,1.375S60.811,48.86,60.811,48.102z"/>
	<path d="M59.986,46.394c0.241-3.589-0.812-5.631-1.519-6.558c-0.695-0.913-1.57-1.5-2.402-1.611
		c-1.634-0.218-4.057,0.047-6.571,4.592c-0.286-2.836-1.605-5.001-3.471-5.615c-2.385-0.786-6.793,0.74-9.036,5.423
		c-0.24-0.119-0.507-0.192-0.793-0.192c-0.995,0-1.804,0.81-1.804,1.805s0.809,1.804,1.804,1.804s1.804-0.809,1.804-1.804
		c0-0.339-0.099-0.652-0.262-0.923c1.577-0.84,3.239-1.473,4.485-0.954c0.83,0.345,1.418,1.166,1.795,2.507
		c-1.129,0.997-2,2.38-2.524,4.008c-0.198,0.614-0.308,1.222-0.342,1.817c-1.073-0.258-2.096-0.813-3.101-1.72
		c-0.066-0.06-0.162-0.071-0.242-0.031s-0.125,0.126-0.116,0.214c0.046,0.427,0.185,1.337,0.587,2.313
		c-0.617,0.02-1.255,0.01-1.779-0.002c-0.226-0.005-0.43-0.01-0.603-0.012c-0.293-0.293-0.606-0.6-0.913-0.891
		c0.458-1.023,0.405-2.152-0.26-2.922c-0.418-0.485-0.854-0.816-1.3-1.026l1.233-5.064c0.001,0,0.001,0,0.002,0
		c0.59,0,1.188-0.18,1.709-0.523c0.736-0.485,1.228-1.246,1.384-2.144c0.17-0.977,0.052-1.844-0.341-2.523
		c0.481-0.593,0.857-0.88,1.155-0.854c0.282,0.018,0.572,0.327,0.858,0.741c-0.063,0.043-0.13,0.08-0.182,0.138
		c-0.17,0.191-0.255,0.438-0.24,0.693c0.029,0.508,0.452,0.901,0.956,0.901c0.019,0,0.037,0,0.056-0.001
		c0.256-0.016,0.49-0.129,0.66-0.32c0.17-0.191,0.256-0.438,0.241-0.692c-0.015-0.256-0.129-0.49-0.32-0.66
		c-0.083-0.074-0.18-0.124-0.281-0.164c-0.009-1.593-0.543-2.477-0.89-2.881c-0.359-0.417-0.802-0.674-1.215-0.704
		c-0.725-0.051-1.771,0.104-2.758,1.913c-0.28-1.096-0.911-1.89-1.715-2.104c-1.113-0.296-3.061,0.502-3.996,2.628
		c-0.095-0.026-0.192-0.049-0.296-0.045c-0.256,0.016-0.49,0.13-0.66,0.321s-0.255,0.437-0.24,0.691
		c0.03,0.509,0.453,0.903,0.957,0.903c0.019,0,0.037,0,0.056-0.001c0.528-0.032,0.932-0.487,0.9-1.015
		c-0.007-0.121-0.042-0.233-0.09-0.337c0.594-0.347,1.239-0.62,1.718-0.455c0.313,0.109,0.557,0.4,0.74,0.888
		c-0.462,0.485-0.804,1.121-0.992,1.851c-0.218,0.845-0.118,1.649,0.292,2.329c0.282,0.469,0.708,0.843,1.208,1.095
		c0.002,0.001,0.003,0.002,0.005,0.003l-1.258,5.167c-0.546,0.079-1.079,0.362-1.566,0.836c-1.35,1.311-1.618,2.713-0.754,3.947
		c0.22,0.314,0.514,0.573,0.85,0.778c0.008,0.118,0.018,0.235,0.03,0.356l-0.609,2.5c-0.868,0.13-1.537,0.874-1.537,1.778
		c0,0.995,0.809,1.804,1.804,1.804c0.995,0,1.804-0.809,1.804-1.804c0-0.6-0.298-1.13-0.75-1.458l0.056-0.229
		c0.207,0.352,0.456,0.692,0.785,1.002c1.164,1.098,2.961,1.66,5.454,1.721c-0.242,1.535-0.343,2.742,0.138,3.4
		c-1.005,0.491-2.312,1.599-3.24,3.084c-0.043,0.069-0.043,0.157,0,0.227c0.64,1.038,1.386,1.965,2.181,2.766
		c0.081,2.32,0.012,4.194-0.044,5.633c-0.018,0.458-0.034,0.879-0.043,1.265c-0.843,1.449-1.411,2.416-1.847,3.111
		c-0.264-0.564-0.688-0.907-1.556-1.154c-0.09-0.023-0.184,0.009-0.236,0.085c-0.052,0.075-0.051,0.176,0.004,0.25
		c0.152,0.206,0.201,0.639,0.127,1.13c-0.096,0.633-0.37,1.227-0.667,1.445c-0.653,0.481-1.45,1.424-1.709,2.293
		c-0.009,0.029-0.011,0.06-0.007,0.089c0.125,0.957,1.178,1.611,1.802,1.862c0.248,0.864,0.807,1.555,1.623,2
		c0.71,0.389,1.622,0.585,2.586,0.585c0.773,0,1.58-0.126,2.343-0.383c1.005-0.338,1.705-0.949,2.025-1.768
		c0.379-0.97,0.139-1.996-0.181-2.58c-0.622-1.134-1.566-1.539-2.805-1.213c-0.818,0.218-1.189,1.117-1.122,1.854
		c0.057,0.628,0.446,1.325,1.369,1.398c0.598,0.046,1.083-0.077,1.386-0.355c-0.013,0.036-0.027,0.071-0.043,0.106
		c-0.111,0.244-0.401,0.663-1.089,0.726c-0.587,0.054-1.43-0.016-2.098-0.641c-0.686-0.643-1.032-1.76-1.068-3.279
		c1.147-0.987,2.584-2.408,3.396-3.307l0.057-0.063c0.913-1.012,1.159-1.283,1.451-2.788c0.175-0.901,0.387-2.289,0.583-3.617
		c0.224,0.06,0.448,0.123,0.667,0.154c0.179,0.025,0.37,0.037,0.57,0.037c0.665,0,1.436-0.132,2.231-0.354
		c1.776,0.601,4.746,1.295,7.02,1.397c-0.429,0.382-0.966,0.952-1.559,1.582c-0.849,0.901-1.8,1.905-2.515,2.419
		c-0.332-0.836-0.906-1.153-1.871-1.429c-0.09-0.022-0.184,0.009-0.236,0.085c-0.052,0.075-0.051,0.176,0.004,0.25
		c0.146,0.196,0.192,0.612,0.122,1.085c-0.092,0.613-0.357,1.189-0.644,1.401c-0.632,0.465-1.404,1.378-1.659,2.225
		c-0.009,0.028-0.011,0.06-0.007,0.09c0.122,0.929,1.141,1.564,1.748,1.81c0.241,0.837,0.784,1.506,1.575,1.938
		c0.689,0.377,1.574,0.567,2.509,0.567c0.75,0,1.533-0.123,2.273-0.371c0.976-0.328,1.656-0.922,1.967-1.719
		c0.368-0.941,0.135-1.938-0.176-2.504c-0.605-1.104-1.522-1.499-2.727-1.18c-0.796,0.212-1.156,1.088-1.091,1.804
		c0.07,0.78,0.581,1.303,1.333,1.362c0.567,0.047,1.032-0.071,1.329-0.33c-0.01,0.027-0.021,0.053-0.033,0.079
		c-0.107,0.235-0.387,0.64-1.05,0.699c-0.554,0.047-1.349-0.014-1.982-0.598c-0.693-0.639-1.046-1.778-1.08-3.353
		c2.556-1.155,5.169-3.175,6.427-4.148c0.223-0.172,0.408-0.315,0.549-0.42c0.503-0.375,0.803-0.871,0.845-1.397
		c0.04-0.5-0.149-0.992-0.532-1.387c-0.403-0.415-1.727-1.42-3.645-2.122c0.183-0.072,0.35-0.161,0.476-0.278
		c0.336-0.312,0.353-0.584,0.308-0.757c-0.024-0.091-0.072-0.176-0.139-0.25c0.549-0.259,0.897-0.759,0.947-1.342
		c0.022-0.005,0.044-0.003,0.067-0.009c1.519-0.416,3.392-1.183,4.406-3.433c0.728-1.612-0.213-3.305-1.814-4.694
		c0.396-0.224,0.772-0.478,1.089-0.799c0.063-0.064,0.08-0.16,0.042-0.242c-0.038-0.081-0.123-0.121-0.211-0.124
		c-1.48,0.122-2.787-0.489-3.659-1.181c0.507-0.721,0.882-1.545,1.094-2.449c0.512-2.175,0.334-4.128-0.514-5.661
		c1.332-1.5,2.342-2.15,3.154-2.05c0.796,0.101,1.503,0.938,2.247,2.229c-0.686,0.255-1.179,0.911-1.179,1.685
		c0,0.995,0.809,1.805,1.804,1.805s1.804-0.81,1.804-1.805C61.241,47.301,60.711,46.628,59.986,46.394z M58.063,48.102
		c0-0.613,0.407-1.127,0.963-1.303c0.146,0.268,0.294,0.547,0.445,0.846c0.042,0.084,0.132,0.131,0.228,0.115
		c0.093-0.016,0.165-0.09,0.177-0.183c0.036-0.264,0.046-0.499,0.069-0.749c0.506,0.203,0.866,0.696,0.866,1.273
		c0,0.758-0.617,1.375-1.374,1.375S58.063,48.86,58.063,48.102z M52.987,46.07c-0.061,0.07-0.07,0.171-0.023,0.251
		c0.857,1.455,1.045,3.351,0.543,5.48c-0.401,1.703-1.405,3.113-2.829,4.002c0.814-0.831,1.449-2.008,1.83-3.445
		c0.575-2.169,0.958-5.987-2.94-7.187c-0.135-0.042-0.266-0.07-0.399-0.102c-3.133-0.753-5.468,1.2-6.338,3.427
		c-0.584,1.494-0.971,3.784-0.323,5.627c-0.104-0.157-0.226-0.302-0.313-0.469c-0.727-1.385-0.829-2.992-0.294-4.649
		c0.516-1.602,1.379-2.951,2.498-3.901c0.063-0.054,0.09-0.139,0.069-0.219c-0.412-1.557-1.093-2.513-2.081-2.924
		c-0.368-0.153-0.761-0.22-1.172-0.22c-1.248,0-2.653,0.621-3.971,1.346c2.166-4.835,6.643-6.139,8.646-5.479
		c1.856,0.611,3.123,2.96,3.227,5.982c0.003,0.098,0.073,0.181,0.168,0.202c0.01,0.002,0.02-0.004,0.03-0.004
		c0.084,0.004,0.168-0.031,0.208-0.109c2.517-4.948,4.904-5.235,6.487-5.031c0.708,0.095,1.5,0.636,2.117,1.445
		c0.7,0.919,1.77,2.981,1.407,6.73c-0.957-1.801-1.814-2.926-2.912-3.063C55.603,43.634,54.49,44.349,52.987,46.07z M55.926,55.969
		c-1.758,1.344-4.657,1.444-6.155,0.949c-0.063-0.022-0.132-0.013-0.187,0.025c-0.055,0.037-0.09,0.098-0.095,0.163
		c-0.116,1.617-0.124,3.587,0.745,4.948c-2.674-0.528-4.436-2.116-5.52-4.96c-0.032-0.086-0.114-0.139-0.201-0.139
		c-0.021,0-0.042,0.003-0.063,0.009c-2.94,0.896-6.27,0.238-7.673-1.458c0.964-0.101,2.357-0.353,4.184-1.137
		c0.076-0.032,0.127-0.106,0.13-0.189s-0.042-0.16-0.116-0.198c-1.636-0.85-2.487-2.695-2.779-4.317
		c0.95,0.766,1.924,1.241,2.944,1.469c0.011,0.959,0.23,1.879,0.673,2.722c0.574,1.095,1.497,2.001,2.62,2.599
		c0.101,0.056,0.212,0.102,0.32,0.152c0.167,0.078,0.338,0.149,0.512,0.213c0.042,0.014,0.076,0.036,0.118,0.049
		c0.022,0.007,0.042,0.009,0.064,0.016c0.065,0.022,0.127,0.049,0.193,0.068c0.531,0.16,1.091,0.236,1.659,0.241
		c0.026,0,0.054,0.007,0.079,0.007c0.231,0,0.456-0.019,0.676-0.049c0.919-0.099,1.835-0.383,2.655-0.857
		c0.725-0.418,1.347-0.966,1.861-1.606C53.396,55.337,54.578,55.914,55.926,55.969z M52.866,64.407
		c-0.065,0.018-0.129,0.024-0.194,0.034c-0.176,0.028-0.355,0.023-0.531-0.002c-0.142-0.02-0.282-0.05-0.417-0.102
		c-0.001,0-0.002-0.001-0.004-0.001c-0.144-0.056-0.281-0.131-0.408-0.22c-0.013-0.009-0.027-0.018-0.04-0.028
		c-0.126-0.093-0.242-0.199-0.34-0.322c-0.002-0.003-0.004-0.005-0.006-0.008c-0.058-0.073-0.101-0.15-0.143-0.227
		c-0.024-0.044-0.046-0.088-0.064-0.133c-0.007-0.018-0.011-0.035-0.018-0.053c-0.019-0.052-0.04-0.104-0.052-0.156
		c-0.009-0.038-0.012-0.076-0.016-0.114c-0.009-0.075-0.017-0.149-0.011-0.223c0.003-0.032,0.013-0.064,0.019-0.096
		c0.011-0.064,0.024-0.128,0.047-0.19c0.005,0.001,0.009,0.002,0.014,0.003c0.01,0.001,0.02,0.002,0.03,0.002
		c0.079,0,0.152-0.043,0.189-0.113c0.043-0.08,0.031-0.178-0.029-0.245c-0.003-0.003-0.005-0.007-0.008-0.011
		c0.325-0.415,0.68-0.818,0.966-1.144c0.175-0.198,0.328-0.372,0.442-0.512c0.048-0.059,0.062-0.138,0.037-0.209
		s-0.086-0.124-0.161-0.139c-0.458-0.091-0.994-0.208-1.534-0.337c0.132-0.173,0.259-0.348,0.393-0.519
		c0.174-0.223,0.349-0.448,0.518-0.673c0.266-0.354,0.516-0.709,0.726-1.065c0.373-0.021,0.75-0.064,1.129-0.134
		c0.605-0.112,1.204-0.289,1.759-0.547c1.473,1.237,2.509,2.795,1.836,4.286C56.054,63.299,54.294,64.015,52.866,64.407z
		 M52.49,64.892c-0.084,0.509-0.496,0.902-1.085,1.012c-0.1,0.018-0.173,0.104-0.176,0.205c-0.003,0.102,0.066,0.191,0.165,0.215
		c0.151,0.036,0.272,0.122,0.295,0.208c0.021,0.082-0.045,0.203-0.184,0.331c-0.276,0.255-0.937,0.424-1.661,0.264
		c-0.468-0.106-1.316-0.438-1.732-1.478c-0.179-0.446-0.07-1.126,0.271-1.69c0.237-0.394,0.778-1.047,1.822-1.256
		c-0.072,0.451,0.063,0.921,0.389,1.329C51.048,64.599,51.764,64.913,52.49,64.892z M53.84,72.443
		c-1.219,0.942-3.726,2.876-6.187,4.02c-0.007-0.295-0.04-0.602-0.108-0.899c-0.009-0.04-0.021-0.072-0.031-0.11
		c0.005-0.003,0.009-0.007,0.014-0.01c0.761-0.519,1.734-1.552,2.675-2.55c0.801-0.851,1.558-1.654,1.97-1.893
		c0.084-0.05,0.125-0.149,0.1-0.243S52.161,70.6,52.064,70.6c0,0-0.001,0-0.001,0c-2.072,0.001-4.992-0.612-6.924-1.2
		c1.517-0.511,3.029-1.295,3.999-2.068c0.228,0.106,0.443,0.175,0.613,0.214c0.225,0.051,0.452,0.075,0.672,0.075
		c0.002,0,0.004,0,0.005,0c2.1,0.621,3.692,1.705,4.229,2.257c0.295,0.305,0.442,0.679,0.412,1.054
		c-0.032,0.406-0.265,0.782-0.673,1.086C54.253,72.124,54.066,72.268,53.84,72.443z M52.181,80.361
		c0.23-0.506,0.189-1.096-0.106-1.504c-0.061-0.084-0.172-0.11-0.267-0.068c-0.094,0.045-0.142,0.149-0.115,0.25
		c0.076,0.285,0.046,0.512-0.088,0.674c-0.188,0.226-0.579,0.33-1.077,0.293c-0.795-0.064-0.92-0.761-0.939-0.974
		c-0.05-0.549,0.226-1.203,0.773-1.349c1.016-0.27,1.728,0.037,2.24,0.971c0.267,0.485,0.466,1.338,0.153,2.141
		c-0.267,0.684-0.84,1.177-1.703,1.467c-1.556,0.523-3.299,0.458-4.44-0.165c-0.728-0.398-1.197-0.995-1.394-1.776
		c-0.018-0.069-0.068-0.126-0.136-0.149c-0.546-0.195-1.441-0.76-1.565-1.457c0.241-0.743,0.925-1.543,1.487-1.957
		c0.466-0.343,0.73-1.121,0.814-1.684c0.052-0.35,0.049-0.67-0.006-0.934c0.825,0.298,1.119,0.668,1.314,1.521
		c0.071,0.313,0.107,0.639,0.105,0.941c-0.016,1.884,0.399,3.229,1.234,3.999c0.749,0.689,1.669,0.767,2.312,0.709
		C51.42,81.252,51.932,80.906,52.181,80.361z M41.687,69.512c-2.264-0.317-4.885-2.389-6.708-5.291
		c0.87-1.348,1.952-2.235,2.755-2.688l-0.119,1.22c-0.009,0.092,0.042,0.179,0.125,0.217c1.332,0.599,4.052,2.527,4.273,3.591
		c0.016,0.077,0.072,0.139,0.147,0.162c0.016,0.005,0.033,0.006,0.049,0.007c0.005,0,0.009,0.002,0.014,0.002
		c0.055,0,0.109-0.021,0.15-0.061c1.098-1.068,3.332-1.923,4.77-1.842c0.103,0,0.189-0.056,0.219-0.151l0.463-1.504
		c0.115,0.099,0.23,0.212,0.346,0.331c-0.06,0.082-0.113,0.16-0.156,0.231c-0.413,0.685-0.532,1.499-0.302,2.073
		c0.252,0.629,0.639,1.035,1.03,1.301c-1.612,1.223-4.711,2.479-6.659,2.428C41.946,69.535,41.812,69.529,41.687,69.512z
		 M38.55,75.963c-0.915,1.015-2.632,2.698-3.812,3.65c-0.446,0.36-0.766,0.083-0.852-0.011c-0.134-0.145-0.183-0.334-0.107-0.414
		c0.786-0.829,1.283-1.635,3.255-5.023c0.018-0.031,0.028-0.067,0.029-0.104c0.01-0.398,0.026-0.836,0.045-1.313
		c0.053-1.354,0.118-3.089,0.059-5.218c1.086,1,2.248,1.74,3.376,2.13c-0.197,1.341-0.412,2.752-0.588,3.658
		c-0.27,1.388-0.455,1.594-1.348,2.582L38.55,75.963z M40.12,82.932c0.237-0.52,0.194-1.126-0.109-1.546
		c-0.061-0.084-0.172-0.111-0.267-0.068c-0.094,0.045-0.142,0.15-0.115,0.25c0.08,0.297,0.048,0.534-0.093,0.703
		c-0.196,0.234-0.603,0.34-1.116,0.304c-0.827-0.066-0.956-0.79-0.976-1.01c-0.051-0.569,0.235-1.248,0.804-1.399
		c1.052-0.28,1.789,0.039,2.318,1.004c0.276,0.503,0.482,1.385,0.158,2.216c-0.276,0.707-0.869,1.217-1.761,1.517
		c-1.606,0.541-3.406,0.474-4.586-0.171c-0.753-0.412-1.239-1.03-1.442-1.838c-0.018-0.069-0.069-0.126-0.136-0.149
		c-0.408-0.146-1.479-0.696-1.621-1.509c0.247-0.767,0.955-1.595,1.538-2.024c0.478-0.352,0.75-1.15,0.837-1.728
		c0.055-0.363,0.051-0.695-0.006-0.969c0.531,0.219,0.782,0.516,0.957,1.037c-0.4,0.61-0.692,0.978-1.038,1.343
		c-0.237,0.25-0.192,0.681,0.104,1.001c0.18,0.194,0.438,0.327,0.729,0.327c0.225,0,0.469-0.08,0.71-0.274
		c0.016-0.013,0.034-0.029,0.05-0.042c0.085,1.468,0.47,2.573,1.188,3.246c0.784,0.732,1.756,0.813,2.43,0.755
		C39.338,83.848,39.864,83.492,40.12,82.932z M38.171,57.05c1.699,0.807,4.012,1.004,6.214,0.383c0.028,0.07,0.063,0.13,0.091,0.199
		c0.915,2.173,2.289,3.631,4.174,4.397c-0.299,0.385-0.628,0.651-1.166,0.725c-1.328,0.183-2.769,0.66-4.795,1.591
		c-0.035-0.046-0.078-0.091-0.116-0.137c-0.71-0.857-1.977-1.69-3.021-2.373c-0.638-0.418-1.189-0.778-1.387-1.003
		C37.664,60.263,37.882,58.786,38.171,57.05z M31.669,56.584c0,0.758-0.617,1.374-1.374,1.374c-0.758,0-1.375-0.616-1.375-1.374
		s0.617-1.375,1.375-1.375C31.053,55.209,31.669,55.826,31.669,56.584z M30.473,54.797l0.634-2.606
		c0.154,0.06,0.313,0.105,0.479,0.142l-0.627,2.576C30.807,54.849,30.643,54.814,30.473,54.797z M29.957,35.879
		c0.015,0.254-0.179,0.473-0.433,0.487c-0.247,0.028-0.472-0.18-0.486-0.434c-0.007-0.122,0.034-0.24,0.115-0.332
		c0.082-0.092,0.194-0.146,0.316-0.153c0.009-0.001,0.018-0.001,0.027-0.001c0.017,0,0.031,0.007,0.047,0.009
		c-0.008,0.024-0.02,0.043-0.028,0.068c-0.033,0.101,0.002,0.211,0.086,0.274c0.083,0.064,0.199,0.067,0.288,0.01
		c0.014-0.009,0.029-0.018,0.043-0.027C29.941,35.813,29.955,35.843,29.957,35.879z M40.299,37.327
		c-0.082,0.092-0.195,0.146-0.317,0.153c-0.267,0.027-0.471-0.179-0.486-0.432c-0.007-0.123,0.034-0.241,0.115-0.333
		c0.022-0.024,0.05-0.038,0.075-0.057c0.047,0.077,0.093,0.156,0.139,0.235c0.055,0.095,0.167,0.141,0.271,0.118
		c0.106-0.024,0.184-0.115,0.192-0.224c0.002-0.025,0.001-0.046,0.002-0.07c0.069,0.078,0.116,0.172,0.123,0.277
		C40.421,37.117,40.38,37.235,40.299,37.327z M33.604,32.847c0.769,0.205,1.364,1.189,1.481,2.449
		c0.011,0.112,0.096,0.204,0.208,0.223c0.011,0.002,0.021-0.006,0.032-0.005c0.1,0.003,0.195-0.047,0.236-0.141
		c0.955-2.183,1.943-2.37,2.607-2.319h0c0.277,0.021,0.604,0.22,0.874,0.533c0.286,0.333,0.721,1.047,0.769,2.349
		c-0.392-0.56-0.767-0.896-1.216-0.926c-0.501-0.023-1.028,0.331-1.689,1.183c-0.066,0.085-0.07,0.202-0.01,0.291
		c0.397,0.592,0.522,1.393,0.362,2.315c-0.045,0.261-0.135,0.502-0.244,0.731c0.039-0.132,0.084-0.258,0.113-0.399
		c0.359-1.762-0.228-2.966-1.611-3.306c-0.072-0.017-0.137-0.017-0.207-0.029c-1.294-0.219-2.251,0.473-2.71,1.362
		c0.18-0.372,0.406-0.703,0.682-0.968c0.069-0.066,0.094-0.166,0.064-0.258c-0.237-0.721-0.607-1.173-1.099-1.344
		c-0.156-0.055-0.317-0.079-0.483-0.079c-0.484,0-1.001,0.208-1.501,0.486C31.14,33.207,32.799,32.633,33.604,32.847z M35.68,36.134
		c0.047,0.016,0.091,0.034,0.135,0.052c0.003,0.008,0.007,0.016,0.009,0.025c0.021,0.046,0.033,0.096,0.044,0.149
		c0.009,0.038-0.002,0.082,0.001,0.123c0.53,0.28,0.764,0.756,0.837,1.281c0.006,0.029,0.027,0.05,0.027,0.083
		c-0.004-0.005-0.013-0.01-0.018-0.015c0.012,0.108,0.017,0.217,0.017,0.327c-0.077-0.158-0.194-0.282-0.36-0.335
		c-0.276-0.086-0.526-0.056-0.723,0.089c-0.242,0.179-0.373,0.513-0.37,0.94c0,0.035,0.018,0.069,0.047,0.09
		s0.067,0.026,0.101,0.014c0.292-0.099,0.878-0.064,1,0.169c0.018,0.033,0.051,0.056,0.089,0.059
		c0.003,0.001,0.006,0.001,0.01,0.001c0.033,0,0.064-0.017,0.085-0.042c-0.023,0.102-0.049,0.207-0.088,0.329
		c-0.004-0.012,0.005-0.025-0.003-0.035c-0.026-0.033-0.072-0.051-0.112-0.041c-1.298,0.276-2.473-0.026-3.309-0.851
		c-0.032-0.03-0.077-0.039-0.119-0.024c-0.041,0.017-0.068,0.056-0.07,0.1c-0.026,0.773,0.322,2.03,1.387,2.324
		c0.111,0.03,0.23,0.047,0.355,0.047c0.549,0,1.213-0.331,1.758-1.235c-0.162,0.388-0.405,0.79-0.803,1.04
		c-0.427,0.27-0.965,0.325-1.6,0.164c0,0,0,0,0,0c-0.474-0.119-0.824-0.378-1.04-0.769c-0.403-0.729-0.291-1.777-0.072-2.454
		c0.259-0.799,0.941-1.501,1.938-1.501c0.179,0,0.368,0.022,0.566,0.071c0.129,0.032,0.234,0.08,0.341,0.126
		c0-0.018,0.002-0.037-0.001-0.054c-0.005-0.047-0.009-0.093-0.023-0.136C35.705,36.206,35.695,36.169,35.68,36.134z M35.853,38.315
		c0-0.001,0.029-0.035,0.029-0.035c0.001,0,0.035,0.029,0.036,0.029c0.001,0.019-0.013,0.033-0.03,0.034
		C35.871,38.349,35.854,38.331,35.853,38.315z M35.888,38.566c0.004,0,0.009,0,0.013,0c0.139-0.009,0.246-0.129,0.239-0.271
		c-0.005-0.068-0.036-0.132-0.088-0.177c-0.051-0.045-0.12-0.063-0.181-0.062c-0.039,0.002-0.068,0.03-0.102,0.049
		c0.005-0.004,0.006-0.011,0.011-0.015c0.137-0.102,0.318-0.118,0.523-0.056c0.165,0.053,0.237,0.181,0.268,0.278
		c0.054,0.174,0.029,0.392-0.06,0.571c-0.171-0.146-0.452-0.202-0.711-0.202c-0.104,0-0.205,0.009-0.294,0.025
		c0.015-0.192,0.074-0.336,0.151-0.456c-0.007,0.026-0.028,0.047-0.026,0.075C35.639,38.462,35.752,38.566,35.888,38.566z
		 M34.355,40.729c-0.834-0.229-1.17-1.152-1.219-1.849c0.82,0.696,1.898,0.968,3.08,0.776C35.612,40.655,34.867,40.87,34.355,40.729
		z M32.431,37.557c0.044-0.123,0.093-0.24,0.147-0.355C32.521,37.318,32.471,37.437,32.431,37.557z M32.313,37.921
		c0.027-0.106,0.065-0.205,0.099-0.306c-0.093,0.296-0.155,0.657-0.184,1.034C32.228,38.411,32.248,38.17,32.313,37.921z
		 M33.884,41.443c0.016,0.004,0.029,0.002,0.045,0.006c0.025,0.007,0.048,0.019,0.073,0.025c0.072,0.017,0.147,0.014,0.22,0.026
		l-1.205,4.952c-0.163-0.045-0.327-0.076-0.493-0.085l1.211-4.976C33.787,41.408,33.832,41.43,33.884,41.443z M32.398,46.79
		c0.026,0,0.053,0.001,0.079,0.002c0.651,0.028,1.296,0.408,1.918,1.13c0,0,0,0,0,0c0.802,0.928,0.512,2.579-0.633,3.606
		c-0.408,0.365-1.068,0.535-1.769,0.456c-0.791-0.092-1.478-0.478-1.884-1.058c-0.934-1.335-0.134-2.582,0.701-3.393
		C31.319,47.04,31.852,46.79,32.398,46.79z M32.009,52.415c0.068,0.007,0.136,0.009,0.204,0.012
		c0.039,0.001,0.078,0.007,0.116,0.007c0.641,0,1.23-0.193,1.648-0.533c0.023-0.019,0.051-0.032,0.073-0.052
		c0.297-0.266,0.534-0.57,0.727-0.888c0.356,0.339,0.681,0.664,0.876,0.86c0.041,0.04,0.095,0.063,0.152,0.063
		c0.186,0,0.419,0.006,0.682,0.012c0.583,0.016,1.306,0.031,1.992-0.001c0.079,0.162,0.165,0.32,0.26,0.48
		c-0.174,0.323-0.301,0.703-0.406,1.113c-0.109,0.428-0.193,0.892-0.267,1.376c-0.69,0.15-1.26,0.215-1.704,0.249
		c-0.076,0.006-0.143,0.052-0.176,0.12c-0.034,0.067-0.029,0.148,0.013,0.212c0.028,0.044,0.071,0.078,0.102,0.121
		c0.364,0.51,0.865,0.939,1.469,1.283c-0.02,0.118-0.039,0.233-0.058,0.348c-2.389-0.052-4.15-0.592-5.227-1.61
		c-0.421-0.398-0.71-0.852-0.924-1.327L32.009,52.415z M49.9,57.404c0.528,0.14,1.173,0.21,1.859,0.211
		c-0.304,0.469-0.675,0.955-1.072,1.463c-0.239,0.307-0.476,0.619-0.705,0.931C49.825,59.029,49.859,58.035,49.9,57.404z
		 M50.203,60.432c0.047-0.066,0.1-0.131,0.149-0.197c0.473,0.114,0.947,0.222,1.375,0.312c-0.062,0.071-0.129,0.147-0.199,0.227
		c-0.267,0.303-0.591,0.676-0.901,1.064c-0.24-0.374-0.411-0.8-0.526-1.252C50.135,60.534,50.165,60.485,50.203,60.432z
		 M48.451,63.178c-0.072-0.072-0.145-0.141-0.218-0.208c0.355-0.181,0.616-0.459,0.856-0.794c0.22,0.074,0.44,0.148,0.672,0.205
		C49.175,62.566,48.749,62.871,48.451,63.178z M40.393,54.14c-0.703,0.282-1.312,0.463-1.873,0.605
		c0.116-0.734,0.258-1.41,0.493-1.944C39.371,53.303,39.818,53.771,40.393,54.14z M43.079,54.422
		c-0.854-1.783-0.452-4.222,0.152-5.768c0.866-2.214,3.121-4.021,6.209-3.071c0.221,0.068,0.426,0.145,0.617,0.231
		c0.025,0.096,0.029,0.198,0.034,0.301c0.014,0.104-0.01,0.21-0.012,0.318c-0.022,0.104-0.036,0.214-0.078,0.315
		c-0.064,0.21-0.202,0.391-0.362,0.531c-0.161,0.144-0.37,0.22-0.585,0.236c-0.21,0.022-0.447-0.02-0.648-0.105
		c-0.17-0.074-0.299-0.199-0.336-0.311c-0.048-0.116-0.022-0.262,0.039-0.387c0.07-0.12,0.179-0.198,0.298-0.225l0.046-0.01
		l0.001-0.001c-0.012-0.002,0.029,0.003-0.026-0.004l0.004,0l0.009,0.001l0.017,0.002l0.036,0.002
		c0.048,0.002,0.093,0.005,0.138,0.007c0.067,0.018,0.105,0.021,0.164,0.045c0.054,0.027,0.109,0.052,0.147,0.094
		c0.048,0.032,0.078,0.077,0.109,0.116c0.059,0.082,0.087,0.159,0.103,0.213c0.009,0.051,0.01,0.083,0.01,0.083l0.001,0.009
		c0,0.01,0.006,0.019,0.016,0.025c0.015,0.008,0.033,0.003,0.042-0.011c0,0,0.018-0.031,0.04-0.102
		c0.015-0.068,0.025-0.172-0.007-0.302c-0.03-0.128-0.101-0.288-0.254-0.422c-0.068-0.07-0.195-0.128-0.292-0.172
		c-0.043-0.013-0.087-0.027-0.132-0.041l-0.034-0.01l-0.017-0.005L48.52,46l-0.004-0.001l-0.035-0.003l-0.099-0.005
		c-0.272-0.013-0.577,0.127-0.763,0.377c-0.187,0.241-0.285,0.61-0.152,0.958c0.037,0.083,0.074,0.168,0.134,0.236
		c0.052,0.076,0.117,0.136,0.187,0.187c0.067,0.059,0.14,0.095,0.214,0.131c0.072,0.04,0.153,0.063,0.234,0.086
		c0.286,0.074,0.583,0.102,0.889,0.04c0.3-0.051,0.595-0.194,0.802-0.412c0.207-0.215,0.359-0.473,0.417-0.741
		c0.066-0.263,0.078-0.526,0.038-0.763c-0.007-0.041-0.019-0.077-0.027-0.116c2.557,1.385,2.22,4.453,1.736,6.277
		c-0.294,1.107-1.037,3.104-2.71,4.025c-1.075,0.592-2.377,0.654-3.869,0.184C44.372,56.099,43.554,55.414,43.079,54.422z
		 M34.82,44.237c0-0.758,0.617-1.375,1.374-1.375c0.225,0,0.434,0.06,0.622,0.156c-0.071,0.162-0.147,0.318-0.213,0.488
		c-0.033,0.085-0.008,0.182,0.061,0.241s0.169,0.066,0.248,0.023c0.148-0.085,0.299-0.168,0.449-0.252
		c0.13,0.21,0.208,0.455,0.208,0.719c0,0.758-0.617,1.374-1.374,1.374S34.82,44.995,34.82,44.237z"/>
	<path class="st3" d="M35.689,53.432c0.295,0.033,1.386,0.05,2.644,0.055c0.105-0.41,0.233-0.79,0.406-1.113
		c-0.095-0.16-0.181-0.318-0.26-0.48c-0.686,0.032-1.409,0.016-1.992,0.001c-0.263-0.006-0.496-0.012-0.682-0.012
		c-0.057,0-0.112-0.022-0.152-0.063c-0.196-0.196-0.521-0.521-0.876-0.86c-0.192,0.318-0.43,0.622-0.727,0.888
		c-0.022,0.019-0.05,0.033-0.073,0.052c0.263,0.324,0.539,0.672,0.694,0.887C34.969,53.2,35.225,53.381,35.689,53.432z"/>
	<path class="st3" d="M37.712,57.195c0.019-0.115,0.038-0.23,0.058-0.348c-0.603-0.344-1.105-0.773-1.469-1.283
		c-0.752-0.057-1.415-0.153-1.849-0.299c-0.823-0.277-1.843-1.303-2.239-2.84c-0.068-0.002-0.135-0.005-0.204-0.012l-0.449,1.844
		c0.214,0.476,0.503,0.93,0.924,1.327C33.562,56.603,35.323,57.144,37.712,57.195z"/>
	<path class="st0" d="M34.452,55.266c0.434,0.145,1.097,0.241,1.849,0.299c-0.03-0.042-0.073-0.077-0.102-0.121
		c-0.042-0.063-0.046-0.145-0.013-0.212c0.034-0.068,0.101-0.114,0.176-0.12c0.444-0.034,1.014-0.099,1.704-0.249
		c0.074-0.484,0.157-0.948,0.267-1.376c-1.258-0.005-2.349-0.022-2.644-0.055c-0.465-0.051-0.72-0.233-1.018-0.645
		c-0.155-0.215-0.431-0.563-0.694-0.887c-0.418,0.34-1.007,0.533-1.648,0.533c-0.038,0-0.078-0.005-0.116-0.007
		C32.609,53.964,33.629,54.99,34.452,55.266z"/>
	<path class="st0" d="M56.134,60.332c0.057-0.839-1.133-1.949-2.734-2.86c-0.379,0.07-0.757,0.114-1.129,0.134
		c-0.21,0.355-0.46,0.711-0.726,1.065c1.637,0.446,2.424,1.114,2.312,1.404c-0.124,0.319-1.201,2.423-3.155,3.271
		c0.006,0.018,0.01,0.035,0.018,0.053c0.019,0.045,0.04,0.089,0.064,0.133c0.042,0.077,0.085,0.154,0.143,0.227
		c0.002,0.003,0.004,0.005,0.006,0.008c0.099,0.123,0.215,0.229,0.34,0.322c0.013,0.01,0.027,0.019,0.04,0.028
		c0.127,0.089,0.264,0.164,0.408,0.22c0.001,0,0.002,0.001,0.004,0.001c0.134,0.051,0.275,0.082,0.417,0.102
		C55.073,63.516,56.065,61.352,56.134,60.332z"/>
	<path class="st3" d="M55.158,56.925c-0.555,0.257-1.154,0.434-1.759,0.547c1.602,0.912,2.791,2.022,2.734,2.86
		c-0.069,1.02-1.061,3.184-3.993,4.107c0.177,0.025,0.355,0.03,0.531,0.002c0.064-0.01,0.129-0.017,0.194-0.034
		c1.428-0.392,3.188-1.108,4.128-3.195C57.667,59.72,56.631,58.162,55.158,56.925z"/>
	<path class="st3" d="M53.856,60.074c0.112-0.289-0.675-0.958-2.312-1.404c-0.169,0.225-0.344,0.45-0.518,0.673
		c-0.134,0.171-0.261,0.346-0.393,0.519c0.541,0.128,1.076,0.245,1.534,0.337c0.074,0.015,0.135,0.067,0.161,0.139
		s0.012,0.15-0.037,0.209c-0.114,0.14-0.268,0.313-0.442,0.512c-0.286,0.325-0.64,0.729-0.966,1.144
		c0.003,0.003,0.005,0.007,0.008,0.011c0.06,0.067,0.072,0.165,0.029,0.245c-0.038,0.07-0.111,0.113-0.189,0.113
		c-0.01,0-0.02-0.001-0.03-0.002c-0.005-0.001-0.009-0.002-0.014-0.003c-0.023,0.062-0.036,0.126-0.047,0.19
		c-0.006,0.032-0.016,0.064-0.019,0.096c-0.006,0.074,0.002,0.149,0.011,0.223c0.005,0.038,0.008,0.076,0.016,0.114
		c0.012,0.052,0.033,0.104,0.052,0.156C52.655,62.497,53.732,60.393,53.856,60.074z"/>
	<path class="st2" d="M36.247,83.151c-0.718-0.672-1.104-1.778-1.188-3.246c-0.016,0.013-0.034,0.029-0.05,0.042
		c-0.241,0.194-0.485,0.274-0.71,0.274c-0.29,0-0.548-0.133-0.729-0.327c-0.296-0.32-0.341-0.751-0.104-1.001
		c0.346-0.365,0.637-0.733,1.038-1.343c-0.175-0.521-0.426-0.818-0.957-1.037c0.057,0.273,0.061,0.605,0.006,0.969
		c-0.087,0.577-0.359,1.376-0.837,1.728c-0.583,0.43-1.292,1.258-1.538,2.024c0.142,0.813,1.212,1.363,1.621,1.509
		c0.067,0.023,0.119,0.08,0.136,0.149c0.203,0.808,0.688,1.426,1.442,1.838c1.18,0.645,2.98,0.712,4.586,0.171
		c0.893-0.3,1.485-0.81,1.761-1.517c0.325-0.831,0.118-1.713-0.158-2.216c-0.529-0.965-1.266-1.284-2.318-1.004
		c-0.569,0.151-0.855,0.83-0.804,1.399c0.02,0.22,0.149,0.943,0.976,1.01c0.514,0.036,0.92-0.069,1.116-0.304
		c0.141-0.169,0.172-0.406,0.093-0.703c-0.027-0.1,0.021-0.205,0.115-0.25c0.094-0.043,0.206-0.016,0.267,0.068
		c0.303,0.42,0.346,1.026,0.109,1.546c-0.256,0.561-0.782,0.916-1.443,0.975C38.003,83.964,37.031,83.884,36.247,83.151z"/>
	<path class="st1" d="M40.544,69.66c-1.128-0.39-2.29-1.13-3.376-2.13c0.059,2.129-0.007,3.864-0.059,5.218
		c-0.019,0.478-0.035,0.915-0.045,1.313c-0.001,0.036-0.011,0.072-0.029,0.104c-1.972,3.389-2.47,4.194-3.255,5.023
		c-0.076,0.08-0.026,0.27,0.107,0.414c0.086,0.094,0.406,0.371,0.852,0.011c1.179-0.952,2.896-2.636,3.812-3.65l0.057-0.063
		c0.893-0.988,1.079-1.194,1.348-2.582C40.132,72.412,40.346,71.002,40.544,69.66z"/>
	<path class="st2" d="M55.069,70.932c0.03-0.375-0.116-0.749-0.412-1.054c-0.537-0.552-2.129-1.636-4.229-2.257
		c-0.002,0-0.004,0-0.005,0c-0.22,0-0.447-0.024-0.672-0.075c-0.17-0.038-0.385-0.107-0.613-0.214
		c-0.97,0.773-2.482,1.557-3.999,2.068c1.932,0.588,4.852,1.201,6.924,1.2c0,0,0.001,0,0.001,0c0.097,0,0.182,0.064,0.208,0.158
		s-0.015,0.193-0.1,0.243c-0.412,0.238-1.168,1.042-1.97,1.893c-0.941,0.998-1.914,2.031-2.675,2.55
		c-0.005,0.003-0.009,0.007-0.014,0.01c0.01,0.038,0.022,0.07,0.031,0.11c0.068,0.297,0.101,0.604,0.108,0.899
		c2.461-1.144,4.968-3.078,6.187-4.02c0.226-0.175,0.413-0.319,0.555-0.426C54.804,71.714,55.037,71.338,55.069,70.932z"/>
	<path class="st1" d="M48.743,67.11c-0.391-0.265-0.778-0.672-1.03-1.301c-0.23-0.574-0.111-1.389,0.302-2.073
		c0.043-0.07,0.096-0.149,0.156-0.231c-0.116-0.119-0.231-0.232-0.346-0.331l-0.463,1.504c-0.029,0.096-0.116,0.151-0.219,0.151
		c-1.438-0.081-3.672,0.773-4.77,1.842c-0.041,0.039-0.095,0.061-0.15,0.061c-0.005,0-0.009-0.002-0.014-0.002
		c-0.049,0.765-0.096,1.943-0.126,2.809C44.031,69.589,47.131,68.333,48.743,67.11z"/>
	<path class="st2" d="M42.161,66.723c-0.075-0.023-0.131-0.085-0.147-0.162c-0.221-1.063-2.941-2.992-4.273-3.591
		c-0.084-0.038-0.135-0.125-0.125-0.217l0.119-1.22c-0.803,0.453-1.885,1.339-2.755,2.688c1.823,2.902,4.444,4.974,6.708,5.291
		c0.125,0.017,0.259,0.023,0.397,0.027c0.03-0.866,0.077-2.045,0.126-2.809C42.193,66.728,42.177,66.727,42.161,66.723z"/>
	<path class="st0" d="M50.594,64.032c-0.327-0.408-0.461-0.878-0.389-1.329c-1.044,0.209-1.584,0.862-1.822,1.256
		c-0.341,0.564-0.45,1.244-0.271,1.69c0.416,1.039,1.264,1.371,1.732,1.478c0.724,0.16,1.385-0.009,1.661-0.264
		c0.138-0.128,0.205-0.249,0.184-0.331c-0.022-0.086-0.144-0.172-0.295-0.208c-0.099-0.023-0.167-0.113-0.165-0.215
		c0.002-0.102,0.076-0.188,0.176-0.205c0.589-0.109,1.001-0.503,1.085-1.012C51.764,64.913,51.048,64.599,50.594,64.032z"/>
	<path class="st2" d="M49.982,60.01c0.229-0.312,0.466-0.624,0.705-0.931c0.397-0.509,0.768-0.994,1.072-1.463
		c-0.686-0.001-1.331-0.071-1.859-0.211C49.859,58.035,49.825,59.029,49.982,60.01z"/>
	<path class="st2" d="M42.573,64.206c0.038,0.046,0.081,0.091,0.116,0.137c2.026-0.931,3.468-1.408,4.795-1.591
		c0.538-0.074,0.867-0.339,1.166-0.725c-1.884-0.766-3.258-2.224-4.174-4.397C43.824,59.611,42.999,62.411,42.573,64.206z"/>
	<path class="st1" d="M39.013,52.802c-0.235,0.534-0.377,1.21-0.493,1.944c0.56-0.142,1.169-0.323,1.873-0.605
		C39.818,53.771,39.371,53.303,39.013,52.802z"/>
	<path class="st1" d="M38.165,60.831c0.198,0.225,0.749,0.585,1.387,1.003c1.044,0.682,2.31,1.515,3.021,2.373
		c0.425-1.795,1.251-4.595,1.904-6.575c-0.029-0.069-0.063-0.128-0.091-0.199c-2.202,0.621-4.515,0.425-6.214-0.383
		C37.882,58.786,37.664,60.263,38.165,60.831z"/>
	<path class="st0" d="M50.709,56.295c-0.821,0.474-1.736,0.758-2.655,0.857c-0.22,0.03-0.444,0.049-0.676,0.049
		c-0.026,0-0.053-0.006-0.079-0.007c-0.568-0.005-1.129-0.081-1.659-0.241c-0.066-0.02-0.128-0.047-0.193-0.068
		c-0.022-0.007-0.042-0.009-0.064-0.016c-0.042-0.013-0.077-0.035-0.118-0.049c-0.174-0.064-0.345-0.135-0.512-0.213
		c-0.107-0.05-0.219-0.095-0.32-0.152c-1.123-0.598-2.046-1.504-2.62-2.599c-0.443-0.843-0.662-1.763-0.673-2.722
		c-1.02-0.228-1.994-0.703-2.944-1.469c0.292,1.622,1.143,3.468,2.779,4.317c0.074,0.038,0.119,0.115,0.116,0.198
		s-0.054,0.157-0.13,0.189c-1.827,0.784-3.22,1.036-4.184,1.137c1.403,1.696,4.733,2.354,7.673,1.458
		c0.021-0.006,0.042-0.009,0.063-0.009c0.087,0,0.168,0.053,0.201,0.139c1.084,2.844,2.846,4.432,5.52,4.96
		c-0.869-1.361-0.861-3.331-0.745-4.948c0.005-0.065,0.04-0.126,0.095-0.163c0.055-0.038,0.124-0.048,0.187-0.025
		c1.498,0.495,4.397,0.395,6.155-0.949c-1.348-0.055-2.53-0.631-3.356-1.28C52.057,55.329,51.435,55.876,50.709,56.295z"/>
	<path class="st2" d="M49.284,43.794c-0.096-0.021-0.165-0.104-0.168-0.202c-0.104-3.022-1.371-5.371-3.227-5.982
		c-2.002-0.659-6.48,0.645-8.646,5.479c1.318-0.725,2.724-1.346,3.971-1.346c0.411,0,0.804,0.066,1.172,0.22
		c0.988,0.411,1.669,1.367,2.081,2.924c0.021,0.08-0.006,0.165-0.069,0.219c-1.118,0.95-1.982,2.3-2.498,3.901
		c-0.534,1.657-0.432,3.265,0.294,4.649c0.087,0.166,0.209,0.312,0.313,0.469c-0.648-1.842-0.261-4.133,0.323-5.627
		c0.87-2.227,3.205-4.18,6.338-3.427c0.073-0.562,0.121-0.999,0.145-1.281C49.303,43.79,49.294,43.796,49.284,43.794z"/>
	<path class="st1" d="M56.62,43.763c1.098,0.138,1.955,1.263,2.912,3.063c0.363-3.749-0.707-5.812-1.407-6.73
		c-0.617-0.81-1.408-1.351-2.117-1.445c-1.583-0.204-3.97,0.083-6.487,5.031c-0.04,0.077-0.124,0.112-0.208,0.109
		c-0.024,0.282-0.072,0.719-0.145,1.281c0.132,0.032,0.264,0.06,0.399,0.102c3.898,1.199,3.516,5.018,2.94,7.187
		c-0.381,1.437-1.016,2.613-1.83,3.445c1.424-0.889,2.429-2.299,2.829-4.002c0.502-2.13,0.314-4.025-0.543-5.48
		c-0.047-0.08-0.038-0.181,0.023-0.251C54.49,44.349,55.603,43.634,56.62,43.763z"/>
	<path class="st0" d="M45.512,56.459c1.492,0.471,2.794,0.408,3.869-0.184c1.673-0.921,2.417-2.918,2.71-4.025
		c0.484-1.825,0.821-4.893-1.736-6.277c0.007,0.04,0.02,0.075,0.027,0.116c0.04,0.237,0.029,0.5-0.038,0.763
		c-0.058,0.267-0.21,0.526-0.417,0.741c-0.207,0.218-0.502,0.362-0.802,0.412c-0.306,0.062-0.604,0.033-0.889-0.04
		c-0.081-0.023-0.163-0.046-0.234-0.086c-0.074-0.036-0.148-0.072-0.214-0.131c-0.07-0.051-0.135-0.111-0.187-0.187
		c-0.06-0.068-0.097-0.153-0.134-0.236c-0.133-0.348-0.035-0.716,0.152-0.958c0.186-0.25,0.491-0.39,0.763-0.377l0.099,0.005
		l0.035,0.003L48.52,46l0.008,0.002l0.017,0.005l0.034,0.01c0.045,0.014,0.089,0.028,0.132,0.041
		c0.098,0.045,0.224,0.103,0.292,0.172c0.153,0.133,0.224,0.293,0.254,0.422c0.031,0.13,0.021,0.234,0.007,0.302
		c-0.023,0.071-0.04,0.102-0.04,0.102c-0.008,0.015-0.027,0.019-0.042,0.011c-0.01-0.006-0.016-0.015-0.016-0.025l-0.001-0.009
		c0,0-0.001-0.032-0.01-0.083c-0.016-0.055-0.044-0.131-0.103-0.213c-0.032-0.039-0.061-0.084-0.109-0.116
		c-0.038-0.042-0.093-0.067-0.147-0.094c-0.059-0.024-0.097-0.027-0.164-0.045c-0.045-0.002-0.091-0.005-0.138-0.007l-0.036-0.002
		l-0.017-0.002l-0.009-0.001l-0.004,0c0.055,0.007,0.014,0.002,0.026,0.004l-0.001,0.001l-0.046,0.01
		c-0.119,0.027-0.228,0.105-0.298,0.225c-0.061,0.125-0.087,0.271-0.039,0.387c0.037,0.112,0.165,0.238,0.336,0.311
		c0.201,0.085,0.438,0.127,0.648,0.105c0.215-0.016,0.425-0.092,0.585-0.236c0.16-0.14,0.299-0.321,0.362-0.531
		c0.041-0.1,0.056-0.21,0.078-0.315c0.002-0.107,0.026-0.213,0.012-0.318c-0.005-0.102-0.009-0.205-0.034-0.301
		c-0.191-0.086-0.396-0.163-0.617-0.231c-3.088-0.95-5.344,0.857-6.209,3.071c-0.604,1.546-1.006,3.984-0.152,5.768
		C43.554,55.414,44.372,56.099,45.512,56.459z M52.123,49.528c-0.277-0.396-1.11-0.792-2.419-0.624
		C51.147,48.182,52.183,48.651,52.123,49.528z M49.708,49.559c0.451-0.292,1.003-0.325,1.598-0.1
		c0.427,0.164,0.728,0.509,0.845,0.974c0.161,0.638-0.036,1.421-0.491,1.95c-0.041,0.048-0.101,0.074-0.163,0.074
		c-0.01,0-0.021-0.001-0.031-0.002c-0.073-0.011-0.135-0.058-0.166-0.125c-0.249-0.552-1.579-0.72-2.255-0.525
		c-0.066,0.017-0.138,0.006-0.193-0.039c-0.054-0.043-0.084-0.109-0.081-0.179C48.822,50.64,49.154,49.92,49.708,49.559z
		 M47.913,48.412c-0.527-0.701-2.015-1.162-2.747-0.87C46.286,46.615,47.673,47.494,47.913,48.412z M45.035,48.325
		c0.455-0.286,1.067-0.336,1.638-0.129c0.505,0.183,0.89,0.581,1.03,1.065c0.121,0.419,0.121,1.104-0.566,1.988
		c-0.041,0.053-0.104,0.083-0.17,0.083c-0.008,0-0.015,0-0.023-0.001c-0.074-0.008-0.139-0.054-0.171-0.121
		c-0.207-0.43-1.705-0.98-2.408-0.782c-0.067,0.021-0.142,0.003-0.196-0.042c-0.054-0.046-0.083-0.115-0.076-0.187
		C44.182,49.294,44.499,48.663,45.035,48.325z M43.503,50.757c0.008-0.085,0.065-0.157,0.146-0.185
		c0.079-0.024,0.17-0.004,0.228,0.06c1.775,1.964,4.378,2.799,7.32,2.346c0.083-0.01,0.165,0.023,0.211,0.094
		c0.046,0.069,0.048,0.159,0.005,0.23c-1.327,2.187-2.894,2.955-4.171,2.955c-0.345,0-0.67-0.057-0.963-0.156
		C43.956,55.311,43.346,52.473,43.503,50.757z"/>
	<path class="st0" d="M44.717,49.958c0.769,0,1.778,0.359,2.241,0.803c0.333-0.503,0.448-0.977,0.331-1.38
		c-0.102-0.353-0.387-0.645-0.763-0.78c-0.167-0.061-0.753-0.231-1.262,0.088c-0.365,0.23-0.603,0.659-0.707,1.275
		C44.61,49.96,44.663,49.958,44.717,49.958z M45.72,48.755c0.296,0,0.537,0.241,0.537,0.537s-0.241,0.537-0.537,0.537
		s-0.537-0.241-0.537-0.537S45.424,48.755,45.72,48.755z"/>
	<path d="M44.365,50.429c0.703-0.198,2.201,0.353,2.408,0.782c0.032,0.067,0.097,0.113,0.171,0.121
		c0.008,0.001,0.015,0.001,0.023,0.001c0.066,0,0.129-0.03,0.17-0.083c0.688-0.885,0.688-1.569,0.566-1.988
		c-0.14-0.484-0.525-0.883-1.03-1.065c-0.571-0.207-1.183-0.157-1.638,0.129c-0.536,0.338-0.853,0.969-0.942,1.875
		c-0.007,0.071,0.021,0.141,0.076,0.187C44.223,50.432,44.297,50.45,44.365,50.429z M45.265,48.688
		c0.509-0.319,1.094-0.148,1.262-0.088c0.376,0.136,0.661,0.428,0.763,0.78c0.117,0.403,0.002,0.877-0.331,1.38
		c-0.463-0.443-1.473-0.803-2.241-0.803c-0.054,0-0.107,0.002-0.159,0.006C44.662,49.348,44.899,48.919,45.265,48.688z"/>
	<path class="st0" d="M51.5,51.873c0.243-0.403,0.339-0.918,0.234-1.335c-0.058-0.229-0.206-0.532-0.581-0.676
		c-0.462-0.179-0.88-0.157-1.21,0.058c-0.384,0.25-0.634,0.745-0.717,1.41c0.146-0.021,0.309-0.031,0.478-0.031
		C50.351,51.299,51.104,51.462,51.5,51.873z M50.167,49.918c0.296,0,0.537,0.241,0.537,0.537s-0.241,0.536-0.537,0.536
		s-0.537-0.24-0.537-0.536S49.871,49.918,50.167,49.918z"/>
	<path d="M49.046,51.806c0.676-0.194,2.006-0.026,2.255,0.525c0.03,0.067,0.093,0.114,0.166,0.125
		c0.01,0.001,0.021,0.002,0.031,0.002c0.062,0,0.122-0.026,0.163-0.074c0.455-0.529,0.652-1.313,0.491-1.95
		c-0.117-0.465-0.417-0.81-0.845-0.974c-0.594-0.226-1.146-0.192-1.598,0.1c-0.554,0.36-0.887,1.081-0.937,2.028
		c-0.003,0.069,0.027,0.136,0.081,0.179C48.908,51.811,48.979,51.822,49.046,51.806z M49.943,49.92
		c0.33-0.215,0.748-0.236,1.21-0.058c0.375,0.144,0.523,0.446,0.581,0.676c0.105,0.417,0.009,0.932-0.234,1.335
		c-0.396-0.411-1.149-0.574-1.796-0.574c-0.169,0-0.331,0.011-0.478,0.031C49.309,50.665,49.559,50.17,49.943,49.92z"/>
	<path class="st0" d="M45.827,49.292c0-0.06-0.048-0.107-0.107-0.107s-0.107,0.048-0.107,0.107
		C45.613,49.411,45.827,49.411,45.827,49.292z"/>
	<path d="M45.72,49.829c0.296,0,0.537-0.241,0.537-0.537s-0.241-0.537-0.537-0.537s-0.537,0.241-0.537,0.537
		S45.424,49.829,45.72,49.829z M45.72,49.184c0.059,0,0.107,0.048,0.107,0.107c0,0.119-0.214,0.119-0.214,0
		C45.613,49.232,45.661,49.184,45.72,49.184z"/>
	<path class="st0" d="M50.274,50.455c0-0.06-0.048-0.107-0.107-0.107c-0.06,0-0.107,0.047-0.107,0.107
		C50.06,50.572,50.274,50.572,50.274,50.455z"/>
	<path d="M50.167,50.991c0.296,0,0.537-0.24,0.537-0.536s-0.241-0.537-0.537-0.537s-0.537,0.241-0.537,0.537
		S49.871,50.991,50.167,50.991z M50.167,50.348c0.059,0,0.107,0.048,0.107,0.107c0,0.117-0.214,0.117-0.214,0
		C50.06,50.394,50.107,50.348,50.167,50.348z"/>
	<path class="st1" d="M46.417,55.694c1.155,0.393,2.881-0.008,4.382-2.23c-2.719,0.3-5.132-0.464-6.89-2.178
		C43.908,52.867,44.534,55.054,46.417,55.694z"/>
	<path d="M46.279,56.1c0.293,0.1,0.618,0.156,0.963,0.156c1.278,0,2.844-0.769,4.171-2.955c0.043-0.071,0.042-0.161-0.005-0.23
		c-0.046-0.07-0.128-0.104-0.211-0.094c-2.941,0.453-5.545-0.382-7.32-2.346c-0.057-0.063-0.148-0.084-0.228-0.06
		c-0.081,0.027-0.139,0.1-0.146,0.185C43.346,52.473,43.956,55.311,46.279,56.1z M43.91,51.286c1.758,1.714,4.17,2.478,6.89,2.178
		c-1.5,2.223-3.227,2.623-4.382,2.23C44.534,55.054,43.908,52.867,43.91,51.286z"/>
	<path d="M47.913,48.412c-0.239-0.918-1.626-1.797-2.747-0.87C45.898,47.25,47.386,47.711,47.913,48.412z"/>
	<path d="M52.123,49.528c0.06-0.877-0.976-1.345-2.419-0.624C51.013,48.736,51.846,49.131,52.123,49.528z"/>
	<path class="st1" d="M48.465,80.6c-0.835-0.771-1.25-2.115-1.234-3.999c0.002-0.303-0.034-0.629-0.105-0.941
		c-0.195-0.853-0.489-1.223-1.314-1.521c0.055,0.264,0.058,0.584,0.006,0.934c-0.084,0.563-0.348,1.341-0.814,1.684
		c-0.563,0.414-1.247,1.214-1.487,1.957c0.125,0.697,1.019,1.262,1.565,1.457c0.068,0.023,0.119,0.08,0.136,0.149
		c0.197,0.781,0.666,1.378,1.394,1.776c1.141,0.623,2.884,0.688,4.44,0.165c0.863-0.29,1.437-0.783,1.703-1.467
		c0.313-0.803,0.114-1.655-0.153-2.141c-0.512-0.934-1.224-1.24-2.24-0.971c-0.547,0.146-0.823,0.8-0.773,1.349
		c0.019,0.213,0.144,0.909,0.939,0.974c0.498,0.037,0.889-0.067,1.077-0.293c0.135-0.162,0.165-0.389,0.088-0.674
		c-0.027-0.101,0.021-0.205,0.115-0.25c0.095-0.042,0.206-0.016,0.267,0.068c0.295,0.408,0.336,0.998,0.106,1.504
		c-0.249,0.545-0.761,0.891-1.404,0.948C50.135,81.367,49.214,81.29,48.465,80.6z"/>
	<path class="st0" d="M33.018,46.452l1.205-4.952c-0.073-0.011-0.148-0.009-0.22-0.026c-0.025-0.006-0.048-0.018-0.073-0.025
		c-0.016-0.004-0.029-0.002-0.045-0.006c-0.053-0.013-0.097-0.036-0.148-0.052l-1.211,4.976
		C32.691,46.377,32.855,46.407,33.018,46.452z"/>
	<path class="st0" d="M31.586,52.334c-0.165-0.037-0.325-0.083-0.479-0.142l-0.634,2.606c0.17,0.017,0.334,0.052,0.486,0.112
		L31.586,52.334z"/>
	<path class="st1" d="M29.601,35.798c-0.084-0.063-0.119-0.174-0.086-0.274c0.008-0.025,0.02-0.044,0.028-0.068
		c-0.016-0.002-0.031-0.009-0.047-0.009c-0.009,0-0.018,0-0.027,0.001c-0.122,0.007-0.234,0.062-0.316,0.153
		c-0.081,0.092-0.122,0.21-0.115,0.332c0.015,0.254,0.24,0.462,0.486,0.434c0.253-0.015,0.448-0.233,0.433-0.487
		c-0.002-0.035-0.016-0.066-0.026-0.099c-0.014,0.009-0.029,0.018-0.043,0.027C29.8,35.865,29.684,35.862,29.601,35.798z"/>
	<path class="st2" d="M40.289,36.788c-0.008,0.108-0.086,0.199-0.192,0.224c-0.104,0.022-0.216-0.023-0.271-0.118
		c-0.046-0.079-0.093-0.158-0.139-0.235c-0.025,0.019-0.054,0.033-0.075,0.057c-0.082,0.092-0.123,0.21-0.115,0.333
		c0.015,0.253,0.219,0.459,0.486,0.432c0.123-0.007,0.235-0.062,0.317-0.153c0.082-0.092,0.123-0.21,0.115-0.332
		c-0.006-0.105-0.053-0.2-0.123-0.277C40.29,36.742,40.291,36.763,40.289,36.788z"/>
	<path class="st2" d="M30.263,34.995c0.5-0.278,1.017-0.486,1.501-0.486c0.166,0,0.327,0.024,0.483,0.079
		c0.492,0.171,0.862,0.623,1.099,1.344c0.03,0.092,0.005,0.191-0.064,0.258c-0.276,0.265-0.502,0.596-0.682,0.968
		c0.459-0.889,1.416-1.581,2.71-1.362c0.007-0.108,0.012-0.201,0.016-0.282c-0.011,0-0.02,0.007-0.032,0.005
		c-0.112-0.019-0.198-0.11-0.208-0.223c-0.117-1.26-0.712-2.244-1.481-2.449C32.799,32.633,31.14,33.207,30.263,34.995z"/>
	<path class="st2" d="M32.313,37.921c-0.065,0.249-0.085,0.491-0.085,0.727c0.029-0.377,0.091-0.738,0.184-1.034
		C32.378,37.716,32.34,37.815,32.313,37.921z"/>
	<path class="st2" d="M32.578,37.202c-0.054,0.115-0.103,0.232-0.147,0.355C32.471,37.437,32.521,37.318,32.578,37.202z"/>
	<path class="st1" d="M35.516,35.824c1.383,0.34,1.971,1.544,1.611,3.306c-0.029,0.141-0.074,0.268-0.113,0.399
		c0.109-0.229,0.199-0.47,0.244-0.731c0.161-0.923,0.035-1.724-0.362-2.315c-0.06-0.089-0.056-0.206,0.01-0.291
		c0.661-0.852,1.188-1.206,1.689-1.183c0.449,0.03,0.824,0.366,1.216,0.926c-0.048-1.302-0.482-2.016-0.769-2.349
		c-0.27-0.313-0.597-0.513-0.874-0.533h0c-0.664-0.051-1.652,0.137-2.607,2.319c-0.041,0.094-0.135,0.144-0.236,0.141
		c-0.004,0.081-0.009,0.174-0.016,0.282C35.379,35.807,35.444,35.807,35.516,35.824z"/>
	<path class="st0" d="M35.704,37.042c-0.087,0.103-0.215,0.175-0.347,0.206c-0.134,0.034-0.268,0.03-0.398,0.005
		c-0.036-0.008-0.073-0.015-0.106-0.032c-0.034-0.014-0.068-0.029-0.099-0.053c-0.032-0.02-0.063-0.046-0.088-0.078
		c-0.028-0.029-0.047-0.066-0.066-0.101c-0.069-0.152-0.035-0.319,0.042-0.431c0.077-0.116,0.208-0.186,0.33-0.188l0.044-0.001
		l0.016,0.001h0.002l0.004,0.002l0.008,0.001l0.016,0.004c0.02,0.005,0.04,0.01,0.059,0.015c0.046,0.018,0.103,0.039,0.135,0.069
		c0.072,0.055,0.108,0.126,0.124,0.182c0.017,0.056,0.015,0.103,0.011,0.134c-0.008,0.032-0.015,0.046-0.015,0.046
		c-0.003,0.007-0.012,0.01-0.018,0.007c-0.004-0.002-0.007-0.007-0.007-0.011l0-0.003c0,0-0.002-0.015-0.007-0.037
		c-0.009-0.024-0.023-0.057-0.052-0.092c-0.016-0.017-0.03-0.035-0.052-0.048c-0.017-0.019-0.043-0.028-0.067-0.038
		c-0.027-0.01-0.044-0.01-0.074-0.016c-0.02,0-0.04,0-0.062,0.001H35.02l-0.007-0.001h-0.004h-0.002
		c0.025,0.002,0.007,0.001,0.012,0.001h-0.001l-0.02,0.006c-0.051,0.015-0.099,0.053-0.126,0.108
		c-0.024,0.056-0.032,0.123-0.008,0.173c0.019,0.049,0.08,0.102,0.158,0.13c0.092,0.033,0.198,0.046,0.291,0.03
		c0.096-0.013,0.187-0.052,0.255-0.121c0.067-0.066,0.124-0.15,0.147-0.245c0.016-0.046,0.019-0.095,0.026-0.143
		c-0.001-0.029-0.002-0.058-0.002-0.086c-0.107-0.047-0.212-0.095-0.341-0.126c-0.199-0.049-0.388-0.071-0.566-0.071
		c-0.998,0-1.679,0.702-1.938,1.501c-0.219,0.677-0.331,1.726,0.072,2.454c0.216,0.391,0.566,0.649,1.04,0.769c0,0,0,0,0,0
		c0.635,0.161,1.173,0.105,1.6-0.164c0.398-0.251,0.642-0.653,0.803-1.04c-0.544,0.904-1.208,1.235-1.758,1.235
		c-0.125,0-0.245-0.017-0.355-0.047c-1.064-0.294-1.413-1.551-1.387-2.324c0.001-0.044,0.029-0.083,0.07-0.1
		c0.042-0.015,0.087-0.006,0.119,0.024c0.836,0.824,2.011,1.127,3.309,0.851c0.04-0.01,0.085,0.008,0.112,0.041
		c0.008,0.01-0.001,0.023,0.003,0.035c0.039-0.121,0.064-0.226,0.088-0.329c-0.021,0.026-0.052,0.042-0.085,0.042
		c-0.003,0-0.006,0-0.01-0.001c-0.038-0.003-0.071-0.025-0.089-0.059c-0.121-0.233-0.708-0.268-1-0.169
		c-0.034,0.013-0.071,0.007-0.101-0.014s-0.047-0.055-0.047-0.09c-0.003-0.428,0.128-0.762,0.37-0.94
		c0.197-0.145,0.446-0.175,0.723-0.089c0.167,0.053,0.284,0.177,0.36,0.335c0-0.11-0.005-0.219-0.017-0.327
		c-0.144-0.162-0.515-0.305-1.076-0.2c0.573-0.33,1-0.194,1.067,0.131c-0.073-0.525-0.307-1.001-0.837-1.281
		c0.005,0.072,0.017,0.142,0.002,0.218C35.852,36.822,35.791,36.941,35.704,37.042z M34.828,37.461
		c-0.253-0.299-0.928-0.466-1.246-0.316C34.056,36.702,34.697,37.057,34.828,37.461z M34.569,38.753
		c-0.021,0.03-0.055,0.049-0.092,0.049c-0.002,0-0.003,0-0.005,0c-0.038-0.002-0.073-0.023-0.092-0.058
		c-0.101-0.183-0.773-0.383-1.075-0.277c-0.035,0.011-0.073,0.006-0.103-0.017c-0.029-0.021-0.046-0.057-0.044-0.094
		c0.016-0.411,0.143-0.704,0.377-0.872c0.199-0.143,0.476-0.179,0.739-0.103c0.234,0.069,0.42,0.24,0.497,0.457
		C34.837,38.026,34.855,38.336,34.569,38.753z"/>
	<path class="st6" d="M35.738,36.381c0.003,0.017,0.001,0.036,0.001,0.054c0,0.029,0.001,0.057,0.002,0.086
		c-0.007,0.048-0.01,0.097-0.026,0.143c-0.023,0.095-0.08,0.179-0.147,0.245c-0.068,0.069-0.16,0.108-0.255,0.121
		c-0.093,0.016-0.199,0.003-0.291-0.03c-0.078-0.029-0.139-0.081-0.158-0.13c-0.024-0.051-0.017-0.117,0.008-0.173
		c0.027-0.055,0.075-0.094,0.126-0.108l0.02-0.006h0.001c-0.005,0,0.013,0.001-0.012-0.001h0.002h0.004l0.007,0.001h0.016
		c0.021-0.001,0.042-0.001,0.062-0.001c0.031,0.006,0.047,0.006,0.074,0.016c0.024,0.01,0.05,0.019,0.067,0.038
		c0.023,0.014,0.036,0.032,0.052,0.048c0.028,0.035,0.042,0.068,0.052,0.092c0.005,0.022,0.007,0.037,0.007,0.037l0,0.003
		c0,0.005,0.003,0.009,0.007,0.011c0.006,0.003,0.015,0,0.018-0.007c0,0,0.007-0.014,0.015-0.046
		c0.005-0.031,0.007-0.078-0.011-0.134c-0.017-0.056-0.052-0.127-0.124-0.182c-0.032-0.03-0.089-0.051-0.135-0.069
		c-0.019-0.005-0.039-0.01-0.059-0.015l-0.016-0.004l-0.008-0.001l-0.004-0.002h-0.002l-0.016-0.001l-0.044,0.001
		c-0.122,0.002-0.253,0.072-0.33,0.188c-0.077,0.112-0.112,0.279-0.042,0.431c0.018,0.035,0.037,0.072,0.066,0.101
		c0.025,0.032,0.056,0.058,0.088,0.078c0.031,0.024,0.065,0.039,0.099,0.053c0.033,0.017,0.07,0.024,0.106,0.032
		c0.129,0.025,0.263,0.03,0.398-0.005c0.132-0.031,0.26-0.103,0.347-0.206c0.087-0.101,0.147-0.22,0.166-0.34
		c0.015-0.076,0.003-0.146-0.002-0.218c-0.003-0.04,0.007-0.085-0.001-0.123c-0.011-0.053-0.023-0.104-0.044-0.149
		c-0.002-0.009-0.006-0.017-0.009-0.025c-0.044-0.018-0.088-0.036-0.135-0.052c0.015,0.035,0.025,0.072,0.035,0.111
		C35.729,36.288,35.733,36.334,35.738,36.381z"/>
	<path class="st0" d="M34.561,37.913c-0.053-0.149-0.184-0.269-0.351-0.318c-0.075-0.022-0.333-0.082-0.546,0.07
		c-0.15,0.107-0.242,0.295-0.274,0.559c0.037-0.003,0.076-0.005,0.117-0.005c0.322,0,0.736,0.114,0.953,0.289
		C34.586,38.285,34.621,38.082,34.561,37.913z M34.063,38.08c-0.046,0.052-0.108,0.081-0.177,0.085c-0.005,0-0.01,0-0.015,0
		c-0.062,0-0.121-0.022-0.168-0.065c-0.05-0.045-0.08-0.107-0.084-0.175c0,0,0,0,0-0.001c-0.008-0.138,0.099-0.259,0.237-0.269
		c0.004-0.001,0.009-0.001,0.013-0.001c0.136,0,0.25,0.105,0.258,0.24C34.132,37.963,34.109,38.029,34.063,38.08z"/>
	<path d="M34.274,37.382c-0.263-0.076-0.54-0.04-0.739,0.103c-0.234,0.168-0.361,0.461-0.377,0.872
		c-0.001,0.037,0.015,0.072,0.044,0.094c0.03,0.022,0.068,0.027,0.103,0.017c0.302-0.105,0.974,0.095,1.075,0.277
		c0.019,0.034,0.054,0.056,0.092,0.058c0.002,0,0.003,0,0.005,0c0.037,0,0.071-0.019,0.092-0.049
		c0.287-0.417,0.268-0.727,0.202-0.914C34.694,37.622,34.508,37.451,34.274,37.382z M33.391,38.224
		c0.032-0.264,0.124-0.451,0.274-0.559c0.212-0.152,0.471-0.093,0.546-0.07c0.167,0.05,0.298,0.169,0.351,0.318
		c0.06,0.169,0.025,0.372-0.101,0.595c-0.217-0.175-0.631-0.289-0.953-0.289C33.467,38.219,33.428,38.221,33.391,38.224z"/>
	<path class="st0" d="M35.506,38.709c0.089-0.017,0.189-0.025,0.294-0.025c0.26,0,0.541,0.057,0.711,0.202
		c0.089-0.18,0.114-0.397,0.06-0.571c-0.031-0.098-0.103-0.226-0.268-0.278c-0.205-0.063-0.387-0.046-0.523,0.056
		c-0.005,0.003-0.007,0.011-0.011,0.015c0.034-0.019,0.063-0.046,0.102-0.049c0.061-0.001,0.13,0.017,0.181,0.062
		c0.052,0.045,0.083,0.108,0.088,0.177c0.007,0.142-0.101,0.262-0.239,0.271c-0.004,0-0.009,0-0.013,0
		c-0.135,0-0.249-0.104-0.256-0.238c-0.002-0.028,0.019-0.049,0.026-0.075C35.58,38.372,35.521,38.517,35.506,38.709z"/>
	<path class="st0" d="M33.871,37.877c-0.016,0.001-0.03,0.017-0.029,0.034c0.001,0.015,0.017,0.031,0.032,0.031c0,0,0.001,0,0.001,0
		l0.032-0.034C33.905,37.89,33.894,37.89,33.871,37.877z"/>
	<path d="M33.87,37.654c-0.004,0-0.009,0-0.013,0.001c-0.139,0.01-0.245,0.131-0.237,0.269c0,0.001,0,0.001,0,0.001
		c0.004,0.067,0.034,0.13,0.084,0.175c0.047,0.043,0.106,0.065,0.168,0.065c0.005,0,0.01,0,0.015,0
		c0.068-0.004,0.131-0.033,0.177-0.085c0.046-0.051,0.069-0.117,0.064-0.186C34.12,37.76,34.006,37.654,33.87,37.654z
		 M33.873,37.942c-0.015,0-0.031-0.017-0.032-0.031c0-0.018,0.014-0.033,0.029-0.034c0.024,0.013,0.035,0.014,0.036,0.031
		l-0.032,0.034C33.874,37.942,33.873,37.942,33.873,37.942z"/>
	<path class="st0" d="M35.882,38.28c0,0-0.029,0.034-0.029,0.035c0.001,0.016,0.019,0.034,0.036,0.028
		c0.017-0.001,0.031-0.016,0.03-0.034C35.917,38.309,35.883,38.28,35.882,38.28z"/>
	<path class="st1" d="M36.216,39.657c-1.181,0.191-2.259-0.08-3.08-0.776c0.049,0.696,0.385,1.619,1.219,1.849
		C34.867,40.87,35.612,40.655,36.216,39.657z"/>
	<path class="st6" d="M34.828,37.461c-0.13-0.404-0.772-0.759-1.246-0.316C33.899,36.995,34.575,37.162,34.828,37.461z"/>
	<path class="st6" d="M35.639,37.633c0.561-0.105,0.932,0.037,1.076,0.2c0.005,0.005,0.014,0.01,0.018,0.015
		c0-0.033-0.021-0.054-0.027-0.083C36.639,37.439,36.211,37.303,35.639,37.633z"/>
	<path class="st2" d="M30.295,55.209c-0.758,0-1.375,0.617-1.375,1.375s0.617,1.374,1.375,1.374c0.757,0,1.374-0.616,1.374-1.374
		S31.053,55.209,30.295,55.209z"/>
	<path class="st0" d="M30.81,47.534c-0.835,0.811-1.635,2.058-0.701,3.393c0.406,0.58,1.093,0.966,1.884,1.058
		c0.701,0.079,1.361-0.091,1.769-0.456c1.145-1.027,1.435-2.679,0.633-3.606c0,0,0,0,0,0c-0.622-0.722-1.267-1.102-1.918-1.13
		c-0.026-0.001-0.053-0.002-0.079-0.002C31.852,46.79,31.319,47.04,30.81,47.534z M34.289,47.986
		c0.098,0.067,0.122,0.201,0.054,0.299c-0.068,0.099-0.202,0.121-0.299,0.055c-0.695-0.481-1.593-0.663-2.055-0.557
		c-0.159,0.035-0.201,0.09-0.21,0.105c-0.044,0.077-0.049,0.162-0.014,0.259c0.119,0.324,0.632,0.677,1.374,0.942
		c0.069,0.024,0.121,0.083,0.137,0.154c0.017,0.071-0.005,0.146-0.057,0.199c-0.381,0.386-0.483,0.91-0.451,1.271
		c0.024,0.271,0.115,0.426,0.193,0.48c0.097,0.068,0.12,0.203,0.052,0.3c-0.042,0.06-0.108,0.091-0.176,0.091
		c-0.043,0-0.086-0.013-0.124-0.039c-0.205-0.145-0.341-0.435-0.373-0.794c-0.034-0.386,0.052-0.917,0.37-1.368
		c-0.725-0.303-1.2-0.684-1.348-1.089c-0.08-0.218-0.064-0.433,0.045-0.622c0.088-0.153,0.252-0.258,0.487-0.311
		C32.442,47.242,33.467,47.417,34.289,47.986z"/>
	<path d="M31.407,47.674c-0.109,0.189-0.125,0.404-0.045,0.622c0.148,0.405,0.623,0.786,1.348,1.089
		c-0.318,0.451-0.404,0.982-0.37,1.368c0.032,0.359,0.168,0.649,0.373,0.794c0.038,0.026,0.081,0.039,0.124,0.039
		c0.067,0,0.134-0.031,0.176-0.091c0.068-0.097,0.045-0.231-0.052-0.3c-0.078-0.055-0.168-0.209-0.193-0.48
		c-0.032-0.361,0.069-0.886,0.451-1.271c0.052-0.053,0.073-0.128,0.057-0.199c-0.016-0.071-0.068-0.13-0.137-0.154
		c-0.741-0.266-1.254-0.618-1.374-0.942c-0.035-0.097-0.031-0.182,0.014-0.259c0.009-0.016,0.051-0.07,0.21-0.105
		c0.462-0.106,1.36,0.075,2.055,0.557c0.097,0.066,0.231,0.044,0.299-0.055c0.067-0.098,0.043-0.231-0.054-0.299
		c-0.823-0.569-1.848-0.744-2.395-0.623C31.659,47.416,31.495,47.52,31.407,47.674z"/>
</g>
</svg>
