<?xml version="1.0" encoding="utf-8"?>
<!-- Generator: Adobe Illustrator 23.0.2, SVG Export Plug-In . SVG Version: 6.00 Build 0)  -->
<svg version="1.1" id="Layer_1" xmlns="http://www.w3.org/2000/svg" xmlns:xlink="http://www.w3.org/1999/xlink" x="0px" y="0px"
	 viewBox="0 0 82.452 99.776" style="enable-background:new 0 0 82.452 99.776;" xml:space="preserve">
<style type="text/css">
	.st0{fill:#FFFFFF;}
	.st1{fill:#ED1C24;}
	.st2{fill:#FFCB05;}
	.st3{fill:#21409A;}
	.st4{fill:#D4D5D6;}
	.st5{fill:#000100;}
	.st6{fill:#300505;}
	.st7{fill:#BFD730;}
	.st8{fill:#F15A22;}
</style>
<g>
	<path class="st0" d="M52.774,32.146c-0.073,0.245-0.147,0.489-0.21,0.74c-0.086,0.342-0.164,0.692-0.235,1.05
		c0.559,0.536,1.109,1.231,1.722,2.187c0.621,0.968,1.833,4.183,1.025,6.987c0.807,0.291,1.563,0.676,2.278,1.128V32.593h-1.975
		c-0.09,0-0.171-0.056-0.202-0.141c-0.031-0.085-0.006-0.18,0.063-0.238l6.607-5.609v-0.508h-5.559
		C54.687,27.62,53.513,29.653,52.774,32.146z"/>
	<path class="st0" d="M66.436,19.361H23.195c-1.563,0-2.836,1.272-2.836,2.836v62.82c0,1.563,1.272,2.836,2.836,2.836h43.241
		c1.563,0,2.836-1.272,2.836-2.836v-62.82C69.272,20.634,67.999,19.361,66.436,19.361z M22.858,28.588
		c0.156,0,0.285,0.073,0.333,0.191c0.034,0.082,0.034,0.082,0.047,0.4c0.014,0.4,0.136,0.627,0.339,0.627
		c0.278,0,0.374-0.364,0.374-1.427v-4.091c0-0.827-0.061-0.918-0.645-0.946v-0.236h2.152v0.236
		c-0.564,0.027-0.618,0.119-0.618,0.946v2.909c0,0.191,0,0.4,0.007,0.736c0.007,0.127,0.007,0.227,0.007,0.309
		c0,0.563-0.102,0.972-0.306,1.272c-0.245,0.346-0.625,0.536-1.093,0.536c-0.679,0-1.154-0.372-1.154-0.9
		C22.301,28.825,22.532,28.588,22.858,28.588z M23.949,35.554c0.056,0.521,0.298,1.316,0.788,1.506h-1.801
		c0.491-0.19,0.732-0.984,0.788-1.506c-0.601,1.183-2.217,0.742-2.217-0.596c0-0.937,0.626-1.559,1.283-2.148
		c0.33-0.294,0.767-0.687,1.046-1.1c0.282,0.413,0.717,0.806,1.047,1.1c0.657,0.589,1.282,1.211,1.282,2.148
		C26.165,36.296,24.549,36.737,23.949,35.554z M62.277,26.704v5.674v17.854v1.031v3.658v1.396v0.733v0.006v13.397v10.952
		c0,0.119-0.096,0.215-0.215,0.215h-8.604H33.393h-5.864c-0.119,0-0.215-0.096-0.215-0.215v-0.822v-5.674V57.055v-1.032v-3.657
		v-1.397v-0.733v-0.004V36.833V25.882c0-0.119,0.096-0.215,0.215-0.215h8.604h20.063h5.865c0.119,0,0.215,0.096,0.215,0.215V26.704z
		 M66.771,78.626c-0.156,0-0.285-0.073-0.333-0.191c-0.034-0.082-0.034-0.082-0.047-0.4c-0.014-0.4-0.136-0.627-0.339-0.627
		c-0.278,0-0.374,0.364-0.374,1.427v4.09c0,0.827,0.061,0.918,0.645,0.946v0.236h-2.152v-0.236c0.563-0.027,0.618-0.119,0.618-0.946
		v-2.909c0-0.191,0-0.4-0.007-0.736c-0.007-0.127-0.007-0.227-0.007-0.309c0-0.563,0.102-0.972,0.306-1.272
		c0.245-0.346,0.625-0.536,1.093-0.536c0.679,0,1.154,0.372,1.154,0.9C67.328,78.39,67.097,78.626,66.771,78.626z M66.84,74.404
		c-0.33,0.295-0.767,0.688-1.047,1.101c-0.281-0.413-0.716-0.806-1.046-1.101c-0.657-0.588-1.282-1.211-1.282-2.147
		c0-1.337,1.616-1.778,2.216-0.597c-0.055-0.521-0.298-1.315-0.788-1.505h1.801c-0.489,0.189-0.732,0.983-0.787,1.505
		c0.6-1.182,2.216-0.741,2.216,0.597C68.124,73.193,67.497,73.816,66.84,74.404z"/>
	<path class="st0" d="M36.819,75.13c0.071-0.24,0.144-0.479,0.207-0.725c0.087-0.343,0.165-0.694,0.236-1.053
		c-0.556-0.533-1.107-1.229-1.722-2.188c-0.621-0.968-1.833-4.184-1.025-6.988c-0.808-0.291-1.564-0.676-2.279-1.128v11.647h1.976
		c0.09,0,0.171,0.056,0.202,0.141c0.031,0.085,0.006,0.18-0.063,0.238l-6.607,5.609v0.508h5.558
		C34.906,79.664,36.08,77.627,36.819,75.13z"/>
	<path class="st0" d="M32.174,41.188c0.04,0.041,0.063,0.095,0.063,0.152v2.892c0.982-0.623,2.054-1.095,3.202-1.405
		c-0.832-0.41-1.5-0.91-1.915-1.451c-0.795-1.036-0.874-2.368-0.19-3.239c0.527-0.674,1.353-1.015,2.153-0.887
		c0.56,0.089,1.022,0.393,1.32,0.854c0.809-1.766,1.4-2.75,1.88-3.14c-0.121-0.525-0.238-1.047-0.354-1.559
		c-0.666-2.971-1.299-5.773-2.322-7.31h-8.268v10.647L32.174,41.188z M30.503,28.788c0.623-0.558,1.451-1.303,1.981-2.085
		c0.53,0.782,1.357,1.527,1.983,2.085c1.244,1.115,2.43,2.293,2.43,4.067c0,2.533-3.062,3.368-4.199,1.13
		c0.105,0.988,0.565,2.491,1.493,2.85h-3.412c0.927-0.359,1.387-1.863,1.492-2.85c-1.137,2.239-4.198,1.404-4.198-1.13
		C28.074,31.081,29.259,29.903,30.503,28.788z"/>
	<path class="st0" d="M57.415,66.098c-0.04-0.041-0.063-0.095-0.063-0.152v-2.892c-0.982,0.622-2.053,1.095-3.202,1.405
		c0.833,0.41,1.501,0.91,1.916,1.451c0.795,1.037,0.874,2.369,0.19,3.239c-0.528,0.673-1.354,1.01-2.155,0.886
		c-0.559-0.089-1.021-0.393-1.318-0.854c-0.809,1.766-1.4,2.75-1.88,3.14c0.119,0.516,0.234,1.03,0.347,1.534
		c0.668,2.982,1.303,5.794,2.329,7.333h8.268V70.542L57.415,66.098z M59.127,78.427c-0.624,0.557-1.45,1.302-1.981,2.085
		c-0.531-0.782-1.359-1.527-1.981-2.085c-1.246-1.115-2.431-2.293-2.431-4.068c0-2.533,3.062-3.368,4.198-1.129
		c-0.104-0.987-0.563-2.491-1.492-2.85h3.412c-0.928,0.359-1.387,1.863-1.492,2.85c1.137-2.239,4.198-1.404,4.198,1.129
		C61.557,76.134,60.372,77.312,59.127,78.427z"/>
	<path d="M66.436,18.931H23.195c-1.801,0-3.266,1.465-3.266,3.266v62.82c0,1.801,1.465,3.266,3.266,3.266h43.241
		c1.801,0,3.266-1.465,3.266-3.266v-62.82C69.702,20.396,68.237,18.931,66.436,18.931z M69.272,85.017
		c0,1.563-1.272,2.836-2.836,2.836H23.195c-1.563,0-2.836-1.272-2.836-2.836v-62.82c0-1.563,1.272-2.836,2.836-2.836h43.241
		c1.563,0,2.836,1.272,2.836,2.836V85.017z"/>
	<path class="st5" d="M23.456,30.052c0.468,0,0.849-0.19,1.093-0.536c0.204-0.3,0.306-0.709,0.306-1.272
		c0-0.082,0-0.182-0.007-0.309c-0.007-0.336-0.007-0.545-0.007-0.736v-2.909c0-0.827,0.054-0.918,0.618-0.946v-0.236h-2.152v0.236
		c0.584,0.027,0.645,0.119,0.645,0.946v4.091c0,1.063-0.095,1.427-0.374,1.427c-0.204,0-0.326-0.227-0.339-0.627
		c-0.014-0.318-0.014-0.318-0.047-0.4c-0.048-0.118-0.177-0.191-0.333-0.191c-0.326,0-0.557,0.237-0.557,0.563
		C22.301,29.679,22.776,30.052,23.456,30.052z"/>
	<path d="M32.271,33.985c-0.105,0.988-0.565,2.491-1.492,2.85h3.412c-0.928-0.359-1.388-1.863-1.493-2.85
		c1.137,2.239,4.199,1.404,4.199-1.13c0-1.774-1.185-2.952-2.43-4.067c-0.625-0.558-1.452-1.303-1.983-2.085
		c-0.53,0.782-1.358,1.527-1.981,2.085c-1.245,1.115-2.43,2.293-2.43,4.067C28.074,35.389,31.134,36.224,32.271,33.985z"/>
	<path d="M57.359,73.229c0.105-0.987,0.564-2.491,1.492-2.85h-3.412c0.929,0.359,1.388,1.863,1.492,2.85
		c-1.136-2.239-4.198-1.404-4.198,1.129c0,1.775,1.185,2.953,2.431,4.068c0.623,0.557,1.45,1.302,1.981,2.085
		c0.532-0.782,1.357-1.527,1.981-2.085c1.244-1.115,2.43-2.293,2.43-4.068C61.557,71.825,58.496,70.99,57.359,73.229z"/>
	<path d="M24.883,32.81c-0.33-0.294-0.765-0.687-1.047-1.1c-0.28,0.413-0.716,0.806-1.046,1.1c-0.657,0.589-1.283,1.211-1.283,2.148
		c0,1.338,1.616,1.779,2.217,0.596c-0.056,0.521-0.298,1.316-0.788,1.506h1.801c-0.49-0.19-0.732-0.984-0.788-1.506
		c0.6,1.183,2.216,0.742,2.216-0.596C26.165,34.021,25.54,33.399,24.883,32.81z"/>
	<path class="st5" d="M66.174,77.163c-0.468,0-0.849,0.19-1.093,0.536c-0.204,0.3-0.306,0.709-0.306,1.272
		c0,0.082,0,0.182,0.007,0.309c0.007,0.337,0.007,0.545,0.007,0.736v2.909c0,0.827-0.054,0.918-0.618,0.946v0.236h2.152v-0.236
		c-0.584-0.027-0.645-0.119-0.645-0.946v-4.09c0-1.063,0.095-1.427,0.374-1.427c0.204,0,0.326,0.227,0.339,0.627
		c0.014,0.318,0.014,0.318,0.047,0.4c0.048,0.118,0.177,0.191,0.333,0.191c0.326,0,0.557-0.237,0.557-0.564
		C67.328,77.535,66.853,77.163,66.174,77.163z"/>
	<path d="M65.907,71.66c0.055-0.521,0.298-1.315,0.787-1.505h-1.801c0.491,0.189,0.733,0.983,0.788,1.505
		c-0.6-1.182-2.216-0.741-2.216,0.597c0,0.936,0.625,1.559,1.282,2.147c0.33,0.295,0.765,0.688,1.046,1.101
		c0.281-0.413,0.717-0.806,1.047-1.101c0.657-0.588,1.283-1.211,1.283-2.147C68.124,70.919,66.507,70.478,65.907,71.66z"/>
	<path class="st1" d="M52.695,53.448c1.279,0.312,2.357,0.792,3.246,1.377c-0.993-0.944-1.609-2.075-1.758-3.315l-1.011-0.272
		c-0.314,0.662-0.482,1.372-0.482,2.118C52.69,53.387,52.694,53.418,52.695,53.448z"/>
	<path class="st1" d="M34.892,63.187c0.949-1.9,2.873-2.972,5.717-3.186c1.11-1.685,1.574-3.339,1.752-4.224H40.51
		c-0.31,1.142-1.472,4.116-5.435,6.063c-0.029,0.015-0.062,0.022-0.095,0.022h-2.744v0.691c0.747,0.5,1.551,0.909,2.405,1.218
		C34.714,63.574,34.796,63.378,34.892,63.187z"/>
	<path class="st1" d="M36.896,53.838c-1.279-0.312-2.357-0.792-3.245-1.376c0.993,0.945,1.61,2.075,1.759,3.316l1.009,0.271
		c0.314-0.662,0.482-1.372,0.482-2.119C36.901,53.899,36.897,53.868,36.896,53.838z"/>
	<path class="st1" d="M40.501,51.509h1.861c-0.34-1.685-1.696-6.158-6.639-8.328c-1.133,0.284-2.19,0.746-3.163,1.352
		C37.392,45.921,39.816,48.972,40.501,51.509z"/>
	<path class="st1" d="M32.237,51.313v0.083c0.086,0.052,0.173,0.104,0.256,0.158C32.407,51.474,32.317,51.395,32.237,51.313z"/>
	<path class="st1" d="M35.743,57.123l-1.025-0.275c-0.059,0.225-0.135,0.439-0.232,0.64c-0.003,0.013,0.004,0.026-0.002,0.039
		c-0.024,0.049-0.061,0.085-0.087,0.133c-0.086,0.157-0.183,0.305-0.291,0.445c-0.067,0.088-0.133,0.175-0.208,0.254
		c-0.1,0.106-0.214,0.197-0.328,0.289c-0.137,0.111-0.28,0.213-0.435,0.301c-0.161,0.092-0.326,0.181-0.505,0.248
		c-0.102,0.038-0.213,0.061-0.321,0.09c-0.024,0.007-0.048,0.014-0.073,0.021v0.283C33.748,58.971,34.943,58.129,35.743,57.123z"/>
	<path class="st1" d="M54.699,44.098c-0.949,1.9-2.873,2.971-5.716,3.186c-1.11,1.685-1.574,3.339-1.753,4.224h1.851
		c0.31-1.142,1.472-4.116,5.437-6.063c0.029-0.015,0.062-0.022,0.095-0.022h2.741v-0.692c-0.747-0.5-1.55-0.909-2.404-1.217
		C54.877,43.712,54.794,43.907,54.699,44.098z"/>
	<path class="st1" d="M57.353,55.972v-0.082c-0.086-0.052-0.173-0.103-0.255-0.157C57.183,55.812,57.273,55.89,57.353,55.972z"/>
	<path class="st1" d="M53.847,50.162l1.025,0.275c0.059-0.224,0.135-0.437,0.23-0.637c0.004-0.014-0.004-0.029,0.003-0.042
		c0.026-0.053,0.066-0.092,0.093-0.142c0.084-0.152,0.178-0.295,0.282-0.43c0.068-0.09,0.136-0.178,0.212-0.259
		c0.101-0.106,0.215-0.198,0.33-0.29c0.128-0.103,0.258-0.2,0.401-0.283c0.171-0.1,0.348-0.193,0.54-0.265
		c0.098-0.036,0.205-0.058,0.308-0.087c0.027-0.008,0.054-0.016,0.081-0.023v-0.283C55.842,48.315,54.647,49.157,53.847,50.162z"/>
	<path class="st1" d="M49.089,55.777h-1.86c0.34,1.685,1.693,6.159,6.639,8.328c1.133-0.284,2.189-0.746,3.163-1.352
		C52.198,61.366,49.775,58.314,49.089,55.777z"/>
	<path class="st2" d="M57.353,54.987c-0.382-0.099-0.741-0.237-1.052-0.437c0.313,0.292,0.665,0.563,1.052,0.815V54.987z"/>
	<path class="st2" d="M54.824,52.361c0.021,0.06,0.029,0.124,0.053,0.184C54.86,52.483,54.838,52.424,54.824,52.361z"/>
	<path class="st2" d="M54.741,51.66l-0.105-0.028c0.033,0.208,0.095,0.408,0.157,0.608C54.759,52.055,54.749,51.858,54.741,51.66z"
		/>
	<path class="st3" d="M53.063,55.269c0.094,0.245,0.204,0.489,0.335,0.731c1.82,0.745,2.908,2.002,3.387,3.193
		c0.183,0.097,0.373,0.189,0.568,0.279v-0.663c-0.115,0.03-0.241,0.05-0.39,0.041c0.176-0.03,0.316-0.16,0.39-0.316v-0.461
		c0-0.001,0-0.002-0.001-0.002c-0.112-0.177-0.413-0.314-0.81-0.141c0.222-0.429,0.535-0.538,0.81-0.481v-0.851
		c-1-1.145-2.524-2.163-4.632-2.701c0.008,0.072,0.023,0.144,0.034,0.217C53.115,54.243,53.355,54.698,53.063,55.269z
		 M56.579,56.064c0.37,0.318,0.313,1.033-0.485,1.275c0.307-0.177,0.343-0.673,0.092-0.866c-0.167-0.127-0.496-0.151-0.809,0.15
		C55.482,55.769,56.209,55.746,56.579,56.064z M54.68,54.842c0.461,0.16,0.67,0.845,0.018,1.364c0.22-0.278,0.072-0.752-0.233-0.84
		c-0.202-0.057-0.518,0.044-0.696,0.437C53.551,54.97,54.219,54.681,54.68,54.842z"/>
	<path class="st3" d="M52.911,54.829c0.037,0.124,0.081,0.248,0.127,0.372C53.04,55.065,52.999,54.933,52.911,54.829z"/>
	<path class="st0" d="M56.187,56.473c0.251,0.193,0.214,0.689-0.092,0.866c0.797-0.242,0.854-0.957,0.485-1.275
		c-0.37-0.318-1.097-0.295-1.201,0.559C55.69,56.322,56.02,56.346,56.187,56.473z"/>
	<path class="st0" d="M56.542,57.929c0.397-0.173,0.698-0.036,0.81,0.141c0,0.001,0,0.002,0.001,0.002v-0.624
		C57.078,57.39,56.765,57.499,56.542,57.929z"/>
	<path class="st0" d="M56.963,58.849c0.149,0.009,0.275-0.01,0.39-0.041v-0.275C57.279,58.689,57.14,58.819,56.963,58.849z"/>
	<path class="st0" d="M54.465,55.366c0.305,0.087,0.453,0.562,0.233,0.84c0.651-0.518,0.443-1.203-0.018-1.364
		c-0.461-0.161-1.129,0.128-0.91,0.962C53.947,55.41,54.263,55.309,54.465,55.366z"/>
	<path class="st0" d="M52.755,54.112c0.036,0.238,0.086,0.477,0.157,0.716c0.087,0.104,0.129,0.236,0.127,0.372
		c0.008,0.022,0.016,0.045,0.024,0.068C53.355,54.698,53.115,54.243,52.755,54.112z"/>
	<path class="st3" d="M53.908,56.791c0.529,0.713,1.23,1.386,2.125,1.964C55.6,58.034,54.897,57.331,53.908,56.791z"/>
	<path class="st0" d="M53.398,56c0.146,0.268,0.318,0.532,0.51,0.791c0.989,0.54,1.692,1.243,2.125,1.964
		c0.237,0.153,0.488,0.299,0.752,0.438C56.306,58.002,55.218,56.744,53.398,56z"/>
	<path class="st3" d="M36.68,52.459c-0.037-0.126-0.082-0.251-0.129-0.377C36.549,52.22,36.591,52.354,36.68,52.459z"/>
	<path class="st3" d="M36.527,52.016c-0.094-0.245-0.204-0.489-0.335-0.731c-1.819-0.745-2.907-2.002-3.386-3.192
		c-0.183-0.097-0.373-0.19-0.569-0.279v0.664c0.115-0.031,0.241-0.05,0.391-0.041c-0.177,0.03-0.317,0.161-0.391,0.318v0.454
		c0.001,0.002,0,0.004,0.002,0.006c0.112,0.179,0.413,0.314,0.81,0.142c-0.222,0.429-0.536,0.538-0.811,0.48v0.85
		c1,1.146,2.524,2.164,4.633,2.703c-0.008-0.072-0.023-0.145-0.034-0.217C36.475,53.043,36.235,52.588,36.527,52.016z
		 M33.012,51.221c-0.371-0.318-0.313-1.032,0.485-1.274c-0.307,0.176-0.343,0.672-0.092,0.866c0.167,0.128,0.496,0.15,0.809-0.15
		C34.109,51.517,33.38,51.54,33.012,51.221z M34.91,52.444c-0.46-0.16-0.67-0.845-0.018-1.364c-0.219,0.278-0.071,0.753,0.234,0.84
		c0.202,0.058,0.517-0.043,0.696-0.437C36.039,52.316,35.372,52.605,34.91,52.444z"/>
	<path class="st0" d="M33.404,50.813c-0.251-0.193-0.214-0.69,0.092-0.866c-0.797,0.242-0.856,0.956-0.485,1.274
		c0.368,0.319,1.097,0.296,1.201-0.558C33.9,50.963,33.571,50.941,33.404,50.813z"/>
	<path class="st0" d="M33.048,49.358c-0.397,0.172-0.698,0.036-0.81-0.142c-0.001-0.002,0-0.004-0.002-0.006v0.628
		C32.512,49.896,32.826,49.787,33.048,49.358z"/>
	<path class="st0" d="M32.627,48.437c-0.149-0.009-0.275,0.01-0.391,0.041v0.277C32.31,48.598,32.45,48.467,32.627,48.437z"/>
	<path class="st0" d="M35.125,51.919c-0.305-0.087-0.453-0.561-0.234-0.84c-0.651,0.519-0.441,1.204,0.018,1.364
		c0.462,0.161,1.129-0.128,0.911-0.962C35.642,51.876,35.327,51.977,35.125,51.919z"/>
	<path class="st0" d="M36.836,53.173c-0.036-0.237-0.086-0.475-0.156-0.715c-0.089-0.105-0.131-0.238-0.129-0.377
		c-0.008-0.022-0.016-0.044-0.024-0.066C36.235,52.588,36.475,53.043,36.836,53.173z"/>
	<path class="st3" d="M35.682,50.494c-0.528-0.713-1.229-1.385-2.124-1.963C33.991,49.252,34.694,49.954,35.682,50.494z"/>
	<path class="st0" d="M36.192,51.285c-0.146-0.268-0.318-0.531-0.51-0.791c-0.988-0.54-1.691-1.242-2.124-1.963
		c-0.237-0.153-0.489-0.299-0.752-0.438C33.285,49.283,34.373,50.54,36.192,51.285z"/>
	<path class="st2" d="M35.076,61.84c3.963-1.947,5.125-4.921,5.435-6.063h1.852c-0.179,0.885-0.642,2.539-1.752,4.224
		c0.005,0,0.01-0.001,0.015-0.002c0.176-0.013,0.338-0.009,0.511-0.019c1.145-1.839,1.561-3.599,1.697-4.382
		c0.011-0.063-0.007-0.126-0.048-0.175c-0.04-0.048-0.101-0.076-0.164-0.076h-2.15c-0.027-0.019-0.059-0.03-0.094-0.035
		c-0.11-0.008-0.209,0.059-0.234,0.166c-0.206,0.895-1.192,3.96-5.211,5.954h-2.694v0.43h2.744
		C35.014,61.862,35.046,61.855,35.076,61.84z"/>
	<path class="st2" d="M42.363,51.509h-1.861c-0.686-2.536-3.109-5.588-7.941-6.976c-0.107,0.066-0.219,0.124-0.323,0.194v0.16
		c4.944,1.35,7.328,4.46,7.904,6.954c0.026,0.107,0.124,0.145,0.234,0.131c0.029-0.003,0.057-0.015,0.081-0.033h2.165
		c0.063,0,0.124-0.028,0.164-0.077c0.041-0.048,0.059-0.112,0.048-0.175c-0.236-1.357-1.313-5.646-5.583-8.197
		c-0.082-0.022-0.16-0.034-0.243-0.058c-0.295-0.087-0.576-0.186-0.848-0.293l-0.3,0c-0.046,0.011-0.089,0.029-0.136,0.041
		C40.666,45.351,42.022,49.823,42.363,51.509z"/>
	<path class="st2" d="M54.517,45.446c-3.965,1.946-5.127,4.92-5.437,6.063H47.23c0.179-0.885,0.643-2.539,1.753-4.224
		c-0.006,0-0.012,0.002-0.018,0.002c-0.175,0.013-0.336,0.01-0.508,0.019c-1.144,1.838-1.562,3.597-1.698,4.38
		c-0.011,0.063,0.007,0.127,0.047,0.175c0.041,0.049,0.102,0.077,0.165,0.077h2.15c0.027,0.019,0.059,0.03,0.094,0.035
		c0.106,0.006,0.209-0.059,0.234-0.166c0.206-0.895,1.193-3.961,5.213-5.954h2.691v-0.43h-2.741
		C54.578,45.424,54.546,45.431,54.517,45.446z"/>
	<path class="st2" d="M47.229,55.777h1.86c0.686,2.537,3.109,5.589,7.941,6.976c0.106-0.066,0.218-0.123,0.322-0.193V62.4
		c-4.943-1.349-7.326-4.459-7.903-6.953c-0.025-0.106-0.118-0.144-0.234-0.132c-0.029,0.003-0.057,0.015-0.081,0.033H46.97
		c-0.063,0-0.124,0.028-0.164,0.076c-0.041,0.049-0.059,0.113-0.048,0.175c0.199,1.148,0.995,4.392,3.816,6.91
		c0.019,0.019,0.041,0.036,0.06,0.056c0.498,0.438,1.065,0.848,1.694,1.225c0.085,0.022,0.168,0.04,0.254,0.065
		c0.295,0.086,0.575,0.186,0.847,0.292l0.301,0c0.047-0.011,0.09-0.03,0.136-0.041C48.922,61.936,47.569,57.462,47.229,55.777z"/>
	<path class="st2" d="M52.26,53.356c0,2.351,1.601,5.058,5.093,6.581v-0.465c-0.196-0.089-0.386-0.182-0.568-0.279
		c-0.263-0.139-0.515-0.285-0.752-0.438c-0.895-0.579-1.596-1.251-2.125-1.964c-0.192-0.259-0.364-0.523-0.51-0.791
		c-0.131-0.242-0.241-0.486-0.335-0.731c-0.009-0.023-0.016-0.045-0.024-0.068c-0.046-0.124-0.091-0.248-0.127-0.372
		c-0.071-0.24-0.121-0.479-0.157-0.716c-0.011-0.072-0.026-0.145-0.034-0.217c-0.016-0.15-0.024-0.299-0.026-0.447
		c-0.001-0.031-0.005-0.062-0.005-0.092c0-0.746,0.168-1.456,0.482-2.118c0.178-0.375,0.404-0.735,0.676-1.076
		c0.8-1.005,1.995-1.847,3.506-2.467v-0.464C54.159,48.489,52.26,50.709,52.26,53.356z"/>
	<path class="st2" d="M36.196,57.245l-0.452-0.122c-0.8,1.005-1.995,1.848-3.507,2.467v0.464
		C33.969,59.373,35.322,58.409,36.196,57.245z"/>
	<path class="st2" d="M37.33,53.93c0-2.352-1.601-5.059-5.094-6.581v0.466c0.196,0.089,0.386,0.182,0.569,0.279
		c0.264,0.139,0.515,0.285,0.752,0.438c0.895,0.578,1.596,1.25,2.124,1.963c0.192,0.259,0.364,0.523,0.51,0.791
		c0.131,0.242,0.241,0.486,0.335,0.731c0.008,0.022,0.016,0.044,0.024,0.066c0.047,0.126,0.092,0.251,0.129,0.377
		c0.07,0.239,0.12,0.478,0.156,0.715c0.011,0.072,0.026,0.145,0.034,0.217c0.016,0.15,0.023,0.299,0.026,0.447
		c0.001,0.03,0.005,0.061,0.005,0.092c0,0.747-0.168,1.457-0.482,2.119l0.424,0.114C37.161,55.465,37.33,54.716,37.33,53.93z"/>
	<path class="st2" d="M32.237,52.298c0.383,0.099,0.742,0.238,1.054,0.438c-0.313-0.292-0.666-0.564-1.054-0.816V52.298z"/>
	<path class="st2" d="M34.776,54.957c-0.024-0.072-0.035-0.148-0.063-0.22C34.733,54.812,34.76,54.881,34.776,54.957z"/>
	<path class="st2" d="M34.85,55.627l0.107,0.029c-0.034-0.21-0.096-0.412-0.159-0.614C34.831,55.228,34.842,55.427,34.85,55.627z"/>
	<path class="st2" d="M43.255,51.08c0.869,0.398,1.346-0.185,1.346-0.729c0-0.543-0.814-1.615-1.775-1.293
		C43.549,49.366,43.67,50.425,43.255,51.08z"/>
	<path class="st2" d="M46.765,49.058c-0.962-0.322-1.776,0.75-1.776,1.293c0,0.544,0.478,1.127,1.346,0.729
		C45.921,50.425,46.04,49.366,46.765,49.058z"/>
	<path class="st0" d="M39.747,53.678c0-0.481-0.39-0.871-0.872-0.871c-0.48,0-0.87,0.39-0.87,0.871c0,0.481,0.39,0.87,0.87,0.87
		C39.357,54.549,39.747,54.159,39.747,53.678z"/>
	<path class="st0" d="M39.261,51.221c0-0.48-0.389-0.871-0.87-0.871c-0.481,0-0.87,0.391-0.87,0.871c0,0.481,0.389,0.871,0.87,0.871
		C38.872,52.093,39.261,51.702,39.261,51.221z"/>
	<path class="st0" d="M36.907,48.185c-0.481,0-0.872,0.391-0.872,0.872c0,0.48,0.39,0.87,0.872,0.87c0.48,0,0.87-0.391,0.87-0.87
		C37.777,48.576,37.387,48.185,36.907,48.185z"/>
	<path class="st0" d="M34.897,46.403c-0.481,0-0.871,0.39-0.871,0.87c0,0.481,0.39,0.871,0.871,0.871c0.48,0,0.87-0.39,0.87-0.871
		C35.767,46.793,35.377,46.403,34.897,46.403z"/>
	<path class="st0" d="M32.505,45.239c-0.095,0-0.183,0.026-0.268,0.054v1.634c0.086,0.028,0.173,0.054,0.268,0.054
		c0.481,0,0.87-0.391,0.87-0.871C33.375,45.629,32.987,45.239,32.505,45.239z"/>
	<path class="st0" d="M45.145,38.793c0.085,0,0.154-0.069,0.154-0.155c0-0.085-0.069-0.154-0.154-0.154
		c-0.086,0-0.156,0.069-0.156,0.154C44.989,38.723,45.059,38.793,45.145,38.793z"/>
	<path class="st0" d="M45.757,39.654c0.857,0.083,1.883-0.193,2.23-1.198c-1.274-1.099-3.403-1.066-4.593-0.685
		C43.575,38.876,44.694,39.551,45.757,39.654z M45.145,38.054c0.322,0,0.584,0.262,0.584,0.584s-0.262,0.584-0.584,0.584
		c-0.323,0-0.586-0.262-0.586-0.584S44.822,38.054,45.145,38.054z"/>
	<path class="st0" d="M51.124,38.793c0.086,0,0.155-0.069,0.155-0.155c0-0.085-0.069-0.154-0.155-0.154
		c-0.084,0-0.153,0.069-0.153,0.154C50.971,38.723,51.04,38.793,51.124,38.793z"/>
	<path class="st0" d="M51.813,39.705c0.797-0.155,1.579-0.774,1.597-1.82c-1.034-0.368-2.823-0.392-3.771,0.662
		C50.077,39.625,51.07,39.848,51.813,39.705z M51.124,38.054c0.322,0,0.585,0.262,0.585,0.584s-0.263,0.584-0.585,0.584
		c-0.321,0-0.583-0.262-0.583-0.584S50.803,38.054,51.124,38.054z"/>
	<path class="st0" d="M53.689,36.355c-0.617-0.964-1.165-1.654-1.721-2.173c-1.393-0.788-5.372-0.984-8.726-0.419
		c0.019,1.374-0.018,2.581-0.104,3.645c1.331-0.48,3.795-0.543,5.243,0.823c0.058,0.054,0.081,0.137,0.06,0.213
		c-0.073,0.265-0.189,0.501-0.339,0.709c0.042-0.032,0.096-0.05,0.158-0.044c0.118,0.014,0.202,0.121,0.188,0.239
		c-0.094,0.784-0.836,1.379-1.5,1.675c-0.028,0.013-0.059,0.019-0.088,0.019c-0.082,0-0.161-0.047-0.196-0.127
		c-0.049-0.108,0-0.235,0.108-0.284c0.557-0.248,1.177-0.729,1.248-1.333c0.007-0.054,0.035-0.099,0.072-0.133
		c-0.436,0.591-1.163,0.933-2.036,0.933c-0.11,0-0.224-0.006-0.339-0.017c-1.113-0.108-2.275-0.776-2.649-1.875
		c-0.235,2.058-0.697,3.437-1.386,4.106c-1.051,1.021-2.013,1.387-2.997,1.392c1.671,2.396,5.288,3.518,10.249,3.153
		c2.691-0.2,4.502-1.193,5.381-2.952C55.603,41.326,54.524,37.658,53.689,36.355z M43.527,36.107
		c1.181-1.799,3.981-1.087,4.637,0.244C46.859,35.395,44.689,35.657,43.527,36.107z M53.46,36.107c-1-0.45-2.87-0.712-3.995,0.244
		C50.03,35.02,52.444,34.308,53.46,36.107z M49.225,38.37c1.115-1.384,3.292-1.317,4.479-0.833c0.078,0.032,0.13,0.105,0.134,0.189
		c0.063,1.378-0.963,2.21-1.942,2.401c-0.157,0.03-0.32,0.046-0.484,0.046c-0.638,0-1.298-0.245-1.768-0.801
		c0.154,0.46,0.564,0.906,1.09,1.154c0.107,0.051,0.153,0.179,0.103,0.286c-0.036,0.078-0.114,0.123-0.194,0.123
		c-0.031,0-0.063-0.006-0.092-0.021c-0.688-0.324-1.21-0.914-1.365-1.54c-0.028-0.115,0.042-0.232,0.157-0.26
		c0.047-0.012,0.088,0.003,0.128,0.019c-0.108-0.166-0.205-0.347-0.279-0.558C49.165,38.506,49.179,38.428,49.225,38.37z
		 M45.829,44.233c-0.02,0.005-0.038,0.008-0.058,0.008c-0.094,0-0.181-0.062-0.207-0.157c-0.032-0.115,0.035-0.233,0.149-0.265
		c2.065-0.577,4.8-0.462,5.686,0.018c0.104,0.057,0.144,0.187,0.087,0.292c-0.057,0.105-0.189,0.143-0.292,0.086
		C50.467,43.821,47.897,43.655,45.829,44.233z M47.32,45.224c-0.09-0.078-0.1-0.213-0.021-0.303c0.077-0.09,0.214-0.1,0.303-0.021
		c0.278,0.242,0.8,0.351,1.292,0.274c0.337-0.053,0.601-0.189,0.706-0.364c0.063-0.103,0.195-0.133,0.296-0.073
		c0.102,0.062,0.134,0.193,0.073,0.295c-0.176,0.291-0.533,0.493-1.008,0.567c-0.128,0.02-0.258,0.03-0.385,0.03
		C48.084,45.628,47.617,45.483,47.32,45.224z"/>
	<path class="st2" d="M37.012,38.694c-0.036,0.081-0.111,0.128-0.204,0.127c-0.087-0.003-0.164-0.059-0.194-0.141
		c-0.2-0.55-0.636-0.916-1.194-1.005c-0.089-0.014-0.178-0.021-0.267-0.021c-0.559,0-1.108,0.272-1.481,0.749
		c-0.562,0.716-0.482,1.831,0.194,2.711c0.598,0.778,1.786,1.473,3.263,1.905c1.56,0.458,2.756,0.437,4.254-1.015
		c0.697-0.676,1.504-2.647,1.433-8.167c-1.524,0.292-2.885,0.747-3.761,1.387c-0.002,0.002-0.006,0.001-0.008,0.003
		c-0.003,0.002-0.004,0.005-0.006,0.007C38.6,35.504,37.917,36.668,37.012,38.694z M35.614,41.008
		c0.098,0.068,0.121,0.202,0.053,0.299c-0.041,0.06-0.108,0.092-0.176,0.092c-0.043,0-0.086-0.012-0.123-0.039
		c-0.534-0.373-0.727-1.045-0.491-1.713c0.207-0.586,0.683-0.965,1.199-0.965c0.023,0,0.048,0,0.072,0.002
		c0.119,0.008,0.208,0.111,0.2,0.229c-0.008,0.119-0.109,0.211-0.229,0.2c-0.396-0.023-0.711,0.32-0.837,0.678
		C35.153,40.155,35.162,40.693,35.614,41.008z M39.826,35.475c0.118,0.007,0.208,0.109,0.201,0.228
		c-0.039,0.616-0.475,1.974-1.067,2.702c-0.043,0.052-0.104,0.079-0.167,0.079c-0.048,0-0.096-0.016-0.136-0.048
		c-0.092-0.075-0.106-0.21-0.031-0.302c0.514-0.63,0.937-1.905,0.972-2.458C39.605,35.558,39.678,35.468,39.826,35.475z
		 M38.535,39.444c0.48,0.329,0.77,1.012,0.433,1.505c-0.067,0.097-0.201,0.123-0.299,0.056c-0.099-0.067-0.123-0.201-0.057-0.299
		c0.189-0.276-0.018-0.7-0.32-0.907c-0.396-0.272-0.833-0.143-1.167,0.345c-0.216,0.314-0.242,0.661-0.074,0.975
		c0.225,0.423,0.757,0.694,1.357,0.694c0.007,0,0.013,0,0.02,0c0.552-0.006,1.107-0.278,1.563-0.767
		c0.585-0.627,1.537-2.192,1.336-5.638c-0.007-0.119,0.084-0.22,0.202-0.228c0.005,0,0.009,0,0.013,0
		c0.113,0,0.208,0.088,0.215,0.202c0.155,2.673-0.36,4.788-1.451,5.957c-0.537,0.575-1.202,0.896-1.874,0.903
		c-0.008,0-0.016,0-0.024,0c-0.769,0-1.433-0.352-1.736-0.922c-0.243-0.457-0.207-0.974,0.099-1.42
		C37.342,39.065,38.078,39.133,38.535,39.444z"/>
	<path class="st1" d="M38.886,32.323c0.047-0.025,0.088-0.054,0.137-0.078l-1.101-4.423l2.193,3.961
		c0.056-0.02,0.112-0.04,0.169-0.059L39.59,27.26l1.82,4.125c0.06-0.015,0.116-0.033,0.177-0.048l-0.316-4.483l1.462,4.24
		c0.06-0.011,0.123-0.019,0.184-0.029l-0.028-4.468l1.182,4.299c0.059-0.007,0.117-0.013,0.176-0.02l0.146-4.442l1.01,4.335
		c0.073-0.005,0.145-0.011,0.218-0.016l0.546-4.391l0.603,4.342c0.073-0.002,0.148-0.006,0.22-0.007l0.851-4.277l0.28,4.288
		c0.071,0.002,0.138,0.007,0.208,0.01l1.106-4.231l0.026,4.305c0.054,0.005,0.107,0.01,0.16,0.015l1.468-4.283l-0.304,4.436
		c0.06,0.01,0.113,0.023,0.171,0.034l1.858-4.121l-0.72,4.412c0.044,0.015,0.096,0.027,0.138,0.042l2.2-3.941l-0.086,0.341
		c0.403-0.589,0.843-1.135,1.326-1.632H36.528c0.768,1.284,1.294,3.188,1.812,5.403L38.886,32.323z"/>
	<path class="st3" d="M52.403,31.865c-2.452-1.174-10.511-1.021-13.731,1.077c0.128,0.575,0.26,1.161,0.396,1.754
		c2.705-1.714,8.651-2.04,11.74-1.362c0.441,0.097,0.824,0.214,1.131,0.351C52.066,33.067,52.221,32.456,52.403,31.865z"/>
	<path d="M49.469,39.134c-0.04-0.016-0.081-0.03-0.128-0.019c-0.115,0.028-0.186,0.145-0.157,0.26
		c0.155,0.625,0.678,1.215,1.365,1.54c0.029,0.014,0.061,0.021,0.092,0.021c0.08,0,0.158-0.045,0.194-0.123
		c0.051-0.107,0.005-0.235-0.103-0.286c-0.526-0.248-0.936-0.694-1.09-1.154c0.47,0.556,1.13,0.801,1.768,0.801
		c0.164,0,0.327-0.016,0.484-0.046c0.979-0.19,2.006-1.023,1.942-2.401c-0.004-0.084-0.056-0.158-0.134-0.189
		c-1.187-0.485-3.363-0.551-4.479,0.833c-0.046,0.058-0.06,0.136-0.035,0.206C49.264,38.787,49.362,38.968,49.469,39.134z
		 M53.41,37.886c-0.018,1.045-0.8,1.665-1.597,1.82c-0.743,0.143-1.735-0.081-2.174-1.158C50.586,37.493,52.375,37.518,53.41,37.886
		z"/>
	<path d="M45.145,39.222c0.322,0,0.584-0.262,0.584-0.584s-0.262-0.584-0.584-0.584c-0.323,0-0.586,0.262-0.586,0.584
		S44.822,39.222,45.145,39.222z M45.145,38.484c0.085,0,0.154,0.069,0.154,0.154c0,0.085-0.069,0.155-0.154,0.155
		c-0.086,0-0.156-0.069-0.156-0.155C44.989,38.553,45.059,38.484,45.145,38.484z"/>
	<path d="M51.124,39.222c0.322,0,0.585-0.262,0.585-0.584s-0.263-0.584-0.585-0.584c-0.321,0-0.583,0.262-0.583,0.584
		S50.803,39.222,51.124,39.222z M51.124,38.484c0.086,0,0.155,0.069,0.155,0.154c0,0.085-0.069,0.155-0.155,0.155
		c-0.084,0-0.153-0.069-0.153-0.155C50.971,38.553,51.04,38.484,51.124,38.484z"/>
	<path class="st2" d="M46.335,56.206c-0.868-0.398-1.346,0.186-1.346,0.729c0,0.544,0.814,1.615,1.776,1.294
		C46.04,57.92,45.921,56.861,46.335,56.206z"/>
	<path class="st2" d="M42.826,58.228c0.96,0.321,1.775-0.75,1.775-1.294c0-0.544-0.477-1.127-1.346-0.729
		C43.67,56.861,43.549,57.92,42.826,58.228z"/>
	<path class="st0" d="M49.843,53.608c0,0.481,0.39,0.87,0.87,0.87c0.481,0,0.871-0.389,0.871-0.87c0-0.481-0.39-0.87-0.871-0.87
		C50.233,52.737,49.843,53.127,49.843,53.608z"/>
	<path class="st0" d="M51.2,56.935c0.481,0,0.87-0.39,0.87-0.871c0-0.481-0.389-0.871-0.87-0.871c-0.481,0-0.87,0.39-0.87,0.871
		C50.329,56.545,50.718,56.935,51.2,56.935z"/>
	<path class="st0" d="M52.684,59.1c0.481,0,0.87-0.39,0.87-0.871c0-0.48-0.389-0.871-0.87-0.871c-0.481,0-0.871,0.391-0.871,0.871
		C51.812,58.71,52.202,59.1,52.684,59.1z"/>
	<path class="st0" d="M54.693,60.883c0.481,0,0.87-0.391,0.87-0.871c0-0.48-0.389-0.871-0.87-0.871c-0.481,0-0.87,0.391-0.87,0.871
		C53.823,60.493,54.212,60.883,54.693,60.883z"/>
	<path class="st0" d="M57.085,62.047c0.095,0,0.182-0.026,0.268-0.054v-1.634c-0.086-0.028-0.173-0.054-0.268-0.054
		c-0.481,0-0.871,0.391-0.871,0.872C56.214,61.657,56.604,62.047,57.085,62.047z"/>
	<path class="st1" d="M47.717,53.014h-1.221c0.032,0.202,0.053,0.41,0.053,0.628c0,0.219-0.022,0.427-0.054,0.63h1.221V53.014z"/>
	<path class="st1" d="M41.873,54.272h1.221c-0.032-0.202-0.054-0.411-0.054-0.63c0-0.219,0.022-0.427,0.054-0.628h-1.22V54.272z"/>
	<path class="st2" d="M44.796,51.436c-0.719,0-1.326,1.01-1.326,2.206c0,1.196,0.607,2.207,1.326,2.207
		c0.717,0,1.323-1.011,1.323-2.207C46.119,52.447,45.513,51.436,44.796,51.436z M45.778,53.642c0,0.796-0.431,1.42-0.981,1.42
		s-0.982-0.624-0.982-1.42c0-0.796,0.432-1.419,0.982-1.419S45.778,52.847,45.778,53.642z"/>
	<path class="st2" d="M44.796,54.633c0.261,0,0.552-0.407,0.552-0.991c0-0.583-0.291-0.99-0.552-0.99
		c-0.262,0-0.553,0.407-0.553,0.99C44.244,54.226,44.535,54.633,44.796,54.633z"/>
	<path d="M44.796,52.223c-0.551,0-0.982,0.624-0.982,1.419c0,0.796,0.432,1.42,0.982,1.42s0.981-0.624,0.981-1.42
		C45.778,52.847,45.347,52.223,44.796,52.223z M44.244,53.642c0-0.583,0.291-0.99,0.553-0.99c0.261,0,0.552,0.407,0.552,0.99
		c0,0.584-0.291,0.991-0.552,0.991C44.535,54.633,44.244,54.226,44.244,53.642z"/>
	<path d="M62.062,25.667h-5.865H36.133h-8.604c-0.119,0-0.215,0.096-0.215,0.215v10.951v13.398v0.004v0.733v1.397v3.657v1.032
		v17.854v5.674v0.822c0,0.119,0.096,0.215,0.215,0.215h5.864h20.064h8.604c0.119,0,0.215-0.096,0.215-0.215V70.452V57.055V57.05
		v-0.733V54.92v-3.658v-1.031V32.378v-5.674v-0.822C62.277,25.763,62.181,25.667,62.062,25.667z M31.213,40.833V57.71
		c-0.089,0.061-0.175,0.112-0.253,0.151c-0.319,0.158-0.51,0.594-0.423,0.97c0.072,0.314,0.32,0.517,0.676,0.582v15.281H30.07
		V39.686L31.213,40.833z M60.487,45.706c0-0.764,0.594-1.389,1.36-1.491v2.982C61.08,47.096,60.487,46.47,60.487,45.706z
		 M60.487,40.698c0-0.764,0.594-1.389,1.36-1.491v2.981C61.08,42.087,60.487,41.462,60.487,40.698z M58.636,48.552
		c0.042,0.181-0.054,0.418-0.195,0.489c-0.537,0.264-0.946,0.705-1.183,1.276c-0.022,0.054-0.022,0.115,0.001,0.168
		c0.186,0.427,0.094,1-0.218,1.363c-0.259,0.303-0.623,0.41-1.021,0.306c-0.12-0.03-0.232,0.039-0.263,0.154
		s0.039,0.232,0.153,0.262c0.136,0.035,0.269,0.053,0.398,0.053c0.402,0,0.767-0.167,1.043-0.481v2.405
		c-1.344-0.388-2.198-1.515-2.198-3.063c0-0.611,0.145-1.149,0.387-1.612c0.093-0.177,0.201-0.339,0.322-0.489
		c0.035-0.042,0.067-0.087,0.104-0.127c0.141-0.155,0.299-0.293,0.471-0.413c0.023-0.016,0.042-0.037,0.066-0.053
		c0.423-0.277,0.929-0.452,1.5-0.507c0.05-0.005,0.095-0.009,0.15-0.009C58.345,48.274,58.583,48.323,58.636,48.552z M54.741,51.66
		c0.008,0.198,0.018,0.395,0.052,0.58c-0.062-0.2-0.124-0.401-0.157-0.608L54.741,51.66z M57.353,54.987v0.378
		c-0.388-0.252-0.74-0.523-1.052-0.815C56.612,54.75,56.971,54.889,57.353,54.987z M54.877,52.544
		c-0.023-0.06-0.032-0.123-0.053-0.184C54.838,52.424,54.86,52.483,54.877,52.544z M57.098,55.732
		c0.083,0.054,0.17,0.105,0.255,0.157v0.082C57.273,55.89,57.183,55.812,57.098,55.732z M57.353,47.695v0.283
		c-0.027,0.007-0.054,0.015-0.081,0.023c-0.103,0.029-0.21,0.05-0.308,0.087c-0.192,0.072-0.369,0.165-0.54,0.265
		c-0.143,0.083-0.273,0.18-0.401,0.283c-0.115,0.092-0.229,0.184-0.33,0.29c-0.076,0.081-0.144,0.17-0.212,0.259
		c-0.105,0.135-0.198,0.278-0.282,0.43c-0.028,0.051-0.068,0.09-0.093,0.142c-0.007,0.014,0.001,0.028-0.003,0.042
		c-0.096,0.201-0.171,0.413-0.23,0.637l-1.025-0.275c-0.271,0.341-0.498,0.701-0.676,1.076l1.011,0.272
		c0.149,1.24,0.765,2.371,1.758,3.315c-0.889-0.584-1.966-1.065-3.246-1.377c0.003,0.148,0.01,0.297,0.026,0.447
		c2.108,0.538,3.632,1.556,4.632,2.701v0.851v0.624v0.461v0.275v0.663v0.465c-3.492-1.522-5.093-4.229-5.093-6.581
		c0-2.648,1.899-4.867,5.093-6.126V47.695z M51.585,53.608c0,0.481-0.39,0.87-0.871,0.87c-0.48,0-0.87-0.389-0.87-0.87
		c0-0.481,0.39-0.87,0.87-0.87C51.195,52.737,51.585,53.127,51.585,53.608z M51.2,55.193c0.481,0,0.87,0.39,0.87,0.871
		c0,0.481-0.389,0.871-0.87,0.871c-0.481,0-0.87-0.39-0.87-0.871C50.329,55.583,50.718,55.193,51.2,55.193z M52.684,57.358
		c0.481,0,0.87,0.391,0.87,0.871c0,0.482-0.389,0.871-0.87,0.871c-0.481,0-0.871-0.39-0.871-0.871
		C51.812,57.748,52.202,57.358,52.684,57.358z M53.823,60.012c0-0.48,0.389-0.871,0.87-0.871c0.481,0,0.87,0.391,0.87,0.871
		c0,0.481-0.389,0.871-0.87,0.871C54.212,60.883,53.823,60.493,53.823,60.012z M57.085,60.305c0.095,0,0.182,0.026,0.268,0.054
		v1.634c-0.086,0.028-0.173,0.054-0.268,0.054c-0.481,0-0.871-0.39-0.871-0.87C56.214,60.695,56.604,60.305,57.085,60.305z
		 M57.353,45.424v0.43h-2.691c-4.02,1.993-5.007,5.059-5.213,5.954c-0.025,0.106-0.128,0.171-0.234,0.166
		c-0.035-0.004-0.066-0.016-0.094-0.035h-2.15c-0.063,0-0.124-0.028-0.165-0.077c-0.04-0.048-0.058-0.112-0.047-0.175
		c0.137-0.783,0.554-2.542,1.698-4.38c0.172-0.009,0.333-0.006,0.508-0.019c0.006,0,0.012-0.002,0.018-0.002
		c2.843-0.215,4.767-1.287,5.716-3.186c0.096-0.191,0.178-0.386,0.251-0.584c0.853,0.309,1.656,0.718,2.404,1.217V45.424z
		 M46.335,51.08c-0.868,0.398-1.346-0.185-1.346-0.729c0-0.543,0.814-1.615,1.776-1.293C46.04,49.366,45.921,50.425,46.335,51.08z
		 M46.119,53.642c0,1.196-0.606,2.207-1.323,2.207c-0.719,0-1.326-1.011-1.326-2.207c0-1.196,0.607-2.206,1.326-2.206
		C45.513,51.436,46.119,52.447,46.119,53.642z M44.601,50.35c0,0.544-0.477,1.127-1.346,0.729c0.415-0.655,0.294-1.714-0.429-2.022
		C43.786,48.736,44.601,49.808,44.601,50.35z M43.094,53.014c-0.032,0.202-0.054,0.41-0.054,0.628c0,0.219,0.022,0.427,0.054,0.63
		h-1.221v-1.258H43.094z M43.255,56.206c0.869-0.398,1.346,0.186,1.346,0.729c0,0.544-0.814,1.615-1.775,1.294
		C43.549,57.92,43.67,56.861,43.255,56.206z M44.989,56.935c0-0.544,0.478-1.127,1.346-0.729c-0.414,0.656-0.294,1.714,0.43,2.023
		C45.803,58.55,44.989,57.479,44.989,56.935z M46.496,54.272c0.032-0.202,0.054-0.411,0.054-0.63c0-0.219-0.021-0.427-0.053-0.628
		h1.221v1.258H46.496z M54.314,43.906c-0.879,1.759-2.689,2.752-5.381,2.952c-4.961,0.364-8.578-0.757-10.249-3.153
		c0.984-0.006,1.946-0.372,2.997-1.392c0.689-0.669,1.151-2.047,1.386-4.106c0.374,1.1,1.536,1.768,2.649,1.875
		c0.115,0.011,0.229,0.017,0.339,0.017c0.874,0,1.601-0.342,2.036-0.933c-0.037,0.034-0.065,0.078-0.072,0.133
		c-0.071,0.604-0.691,1.085-1.248,1.333c-0.108,0.048-0.157,0.175-0.108,0.284c0.035,0.08,0.114,0.127,0.196,0.127
		c0.029,0,0.06-0.006,0.088-0.019c0.664-0.296,1.406-0.891,1.5-1.675c0.014-0.118-0.07-0.225-0.188-0.239
		c-0.062-0.007-0.116,0.011-0.158,0.044c0.151-0.207,0.267-0.444,0.339-0.709c0.021-0.077-0.002-0.159-0.06-0.213
		c-1.448-1.366-3.913-1.304-5.243-0.823c0.086-1.064,0.123-2.271,0.104-3.645c3.354-0.565,7.333-0.369,8.726,0.419
		c0.555,0.519,1.103,1.209,1.721,2.173C54.524,37.658,55.603,41.326,54.314,43.906z M43.395,37.771
		c1.189-0.382,3.318-0.414,4.593,0.685c-0.348,1.005-1.373,1.281-2.23,1.198C44.694,39.551,43.575,38.876,43.395,37.771z
		 M51.938,33.685c-0.307-0.137-0.69-0.254-1.131-0.351c-3.089-0.678-9.035-0.352-11.74,1.362c-0.136-0.593-0.268-1.179-0.396-1.754
		c3.221-2.099,11.279-2.251,13.731-1.077C52.221,32.456,52.066,33.067,51.938,33.685z M39.039,35.233
		c0.003-0.002,0.004-0.005,0.006-0.007c0.003-0.002,0.006-0.001,0.008-0.003c0.876-0.64,2.237-1.095,3.761-1.387
		c0.071,5.52-0.736,7.49-1.433,8.167c-1.498,1.452-2.694,1.473-4.254,1.015c-1.477-0.432-2.665-1.126-3.263-1.905
		c-0.677-0.88-0.756-1.996-0.194-2.711c0.373-0.476,0.923-0.749,1.481-0.749c0.089,0,0.178,0.007,0.267,0.021
		c0.559,0.089,0.994,0.455,1.194,1.005c0.03,0.082,0.107,0.138,0.194,0.141c0.093,0.001,0.168-0.046,0.204-0.127
		C37.917,36.668,38.6,35.504,39.039,35.233z M35.723,43.18c0.046-0.012,0.089-0.03,0.136-0.041l0.3,0
		c0.272,0.106,0.553,0.206,0.848,0.293c0.083,0.024,0.161,0.036,0.243,0.058c4.27,2.551,5.347,6.84,5.583,8.197
		c0.011,0.063-0.007,0.126-0.048,0.175c-0.04,0.049-0.101,0.077-0.164,0.077h-2.165c-0.024,0.018-0.052,0.029-0.081,0.033
		c-0.11,0.014-0.208-0.024-0.234-0.131c-0.576-2.494-2.96-5.604-7.904-6.954v-0.16c0.105-0.07,0.216-0.127,0.323-0.194
		C33.533,43.926,34.59,43.464,35.723,43.18z M30.955,58.734c-0.047-0.201,0.064-0.423,0.194-0.488
		c0.537-0.264,0.946-0.706,1.183-1.276c0.022-0.054,0.022-0.115-0.001-0.168c-0.186-0.427-0.094-1,0.218-1.364
		c0.259-0.302,0.624-0.409,1.02-0.306c0.119,0.03,0.233-0.04,0.263-0.153c0.03-0.115-0.039-0.232-0.153-0.263
		c-0.555-0.143-1.076,0.014-1.441,0.429v-2.407c1.344,0.388,2.199,1.515,2.199,3.064c0,0.609-0.143,1.144-0.384,1.606
		c-0.093,0.18-0.203,0.344-0.326,0.496c-0.034,0.042-0.066,0.086-0.102,0.126c-0.139,0.153-0.294,0.287-0.463,0.406
		c-0.027,0.019-0.049,0.043-0.076,0.061c-0.422,0.276-0.927,0.451-1.498,0.506c-0.05,0.005-0.095,0.009-0.15,0.01
		C31.245,59.013,31.008,58.963,30.955,58.734z M34.85,55.627c-0.008-0.2-0.018-0.399-0.052-0.586
		c0.063,0.202,0.125,0.405,0.159,0.614L34.85,55.627z M32.237,52.298V51.92c0.388,0.252,0.74,0.523,1.054,0.816
		C32.979,52.536,32.619,52.397,32.237,52.298z M34.713,54.738c0.028,0.071,0.039,0.147,0.063,0.22
		C34.76,54.881,34.733,54.812,34.713,54.738z M32.493,51.554c-0.083-0.054-0.17-0.106-0.256-0.158v-0.083
		C32.317,51.395,32.407,51.474,32.493,51.554z M36.419,56.048l-1.009-0.271c-0.149-1.24-0.766-2.371-1.759-3.316
		c0.888,0.584,1.966,1.065,3.245,1.376c-0.003-0.148-0.01-0.297-0.026-0.447c-2.109-0.539-3.633-1.557-4.633-2.703v-0.85v-0.628
		v-0.454v-0.277v-0.664v-0.466c3.493,1.522,5.094,4.229,5.094,6.581c0,0.787-0.169,1.535-0.488,2.233L36.419,56.048z M37.521,51.221
		c0-0.48,0.389-0.871,0.87-0.871c0.481,0,0.87,0.391,0.87,0.871c0,0.481-0.389,0.871-0.87,0.871
		C37.91,52.093,37.521,51.702,37.521,51.221z M36.907,49.928c-0.481,0-0.872-0.391-0.872-0.87c0-0.481,0.39-0.872,0.872-0.872
		c0.48,0,0.87,0.391,0.87,0.872C37.777,49.537,37.387,49.928,36.907,49.928z M35.767,47.274c0,0.481-0.39,0.871-0.87,0.871
		c-0.481,0-0.871-0.39-0.871-0.871c0-0.481,0.39-0.87,0.871-0.87C35.377,46.403,35.767,46.793,35.767,47.274z M32.505,46.981
		c-0.095,0-0.183-0.026-0.268-0.054v-1.634c0.086-0.028,0.173-0.054,0.268-0.054c0.481,0,0.87,0.391,0.87,0.871
		C33.375,46.59,32.987,46.981,32.505,46.981z M32.237,59.591v-0.283c0.025-0.006,0.049-0.014,0.073-0.021
		c0.108-0.029,0.219-0.052,0.321-0.09c0.179-0.068,0.344-0.156,0.505-0.248c0.155-0.088,0.298-0.19,0.435-0.301
		c0.114-0.092,0.227-0.183,0.328-0.289c0.075-0.08,0.141-0.167,0.208-0.254c0.108-0.139,0.205-0.287,0.291-0.445
		c0.026-0.047,0.063-0.084,0.087-0.133c0.006-0.013-0.001-0.026,0.002-0.039c0.096-0.201,0.172-0.415,0.232-0.64l1.025,0.275
		l0.452,0.122c-0.873,1.164-2.226,2.128-3.959,2.81V59.591z M38.005,53.678c0-0.481,0.39-0.871,0.87-0.871
		c0.481,0,0.872,0.39,0.872,0.871c0,0.481-0.39,0.87-0.872,0.87C38.396,54.549,38.005,54.159,38.005,53.678z M29.103,61.58
		c0,0.764-0.593,1.389-1.359,1.491v-2.982C28.51,60.191,29.103,60.816,29.103,61.58z M29.103,66.588c0,0.764-0.593,1.39-1.359,1.491
		v-2.981C28.51,65.199,29.103,65.824,29.103,66.588z M27.744,51.225v-0.95v-0.203c0.766,0.102,1.359,0.727,1.359,1.491
		s-0.593,1.389-1.359,1.491V51.225z M29.103,41.546c0,0.764-0.593,1.389-1.359,1.491v-2.981
		C28.51,40.157,29.103,40.783,29.103,41.546z M27.744,45.064c0.766,0.102,1.359,0.726,1.359,1.491c0,0.764-0.593,1.389-1.359,1.491
		V45.064z M27.744,57.011v-1.203v-0.727c0.766,0.102,1.359,0.726,1.359,1.491c0,0.764-0.593,1.389-1.359,1.491V57.011z
		 M27.744,70.107c0.766,0.102,1.359,0.727,1.359,1.491c0,0.764-0.593,1.388-1.359,1.49V70.107z M27.744,78.878v-2.953v-0.802h4.278
		h1.604l-5.883,4.995V78.878z M32.237,61.862v-0.43h2.694c4.019-1.994,5.005-5.06,5.211-5.954c0.025-0.106,0.124-0.173,0.234-0.166
		c0.035,0.004,0.066,0.016,0.094,0.035h2.15c0.063,0,0.124,0.028,0.164,0.076c0.041,0.049,0.059,0.113,0.048,0.175
		c-0.136,0.783-0.552,2.543-1.697,4.382c-0.173,0.009-0.335,0.006-0.511,0.019c-0.005,0-0.01,0.001-0.015,0.002
		c-2.844,0.214-4.768,1.286-5.717,3.186c-0.096,0.191-0.178,0.386-0.251,0.584c-0.854-0.309-1.657-0.718-2.405-1.218V61.862z
		 M35.277,63.379c0.878-1.758,2.688-2.751,5.379-2.951c0.619-0.046,1.217-0.068,1.794-0.068c4.041,0,7,1.125,8.462,3.225
		c-0.985,0.005-1.948,0.367-3.002,1.389c-0.69,0.67-1.152,2.048-1.387,4.103c-0.375-1.098-1.536-1.766-2.649-1.873
		c-1.012-0.099-1.871,0.245-2.364,0.902c0.031-0.032,0.057-0.071,0.062-0.118c0.07-0.604,0.69-1.084,1.247-1.333
		c0.108-0.048,0.157-0.175,0.108-0.284c-0.049-0.108-0.176-0.156-0.284-0.108c-0.664,0.296-1.406,0.893-1.499,1.675
		c-0.014,0.118,0.071,0.225,0.188,0.238c0.009,0.001,0.018,0.001,0.025,0.001c0.053,0,0.102-0.02,0.14-0.053
		c-0.154,0.21-0.274,0.449-0.347,0.718c-0.021,0.077,0.002,0.159,0.06,0.213c0.884,0.833,2.148,1.135,3.303,1.135
		c0.735,0,1.421-0.124,1.938-0.311c-0.085,1.063-0.123,2.27-0.103,3.642c-3.355,0.565-7.335,0.369-8.726-0.418
		c-0.552-0.516-1.099-1.206-1.721-2.173C35.067,69.629,33.988,65.959,35.277,63.379z M46.196,69.515
		c-1.188,0.382-3.319,0.413-4.592-0.685c0.347-1.004,1.367-1.28,2.229-1.198C44.896,67.735,46.016,68.41,46.196,69.515z
		 M37.653,73.601c2.455,1.096,9.777,0.947,12.871-1.01c0.136,0.592,0.267,1.179,0.396,1.753c-3.221,2.098-11.278,2.252-13.731,1.078
		C37.369,74.835,37.524,74.225,37.653,73.601z M50.55,72.054c-0.003,0.002-0.005,0.006-0.008,0.008
		c-0.002,0.001-0.004,0-0.006,0.001c-0.876,0.639-2.237,1.094-3.761,1.386c-0.074-5.516,0.735-7.488,1.433-8.166
		c1.5-1.453,2.694-1.471,4.254-1.015c1.477,0.432,2.666,1.126,3.263,1.905c0.676,0.881,0.756,1.996,0.194,2.712
		c-0.433,0.552-1.108,0.83-1.75,0.727c-0.558-0.089-0.993-0.455-1.192-1.004c-0.03-0.082-0.106-0.138-0.194-0.141
		c-0.076,0.005-0.167,0.047-0.204,0.127C51.673,70.618,50.991,71.782,50.55,72.054z M53.868,64.105
		c-0.046,0.012-0.09,0.03-0.136,0.041l-0.301,0c-0.272-0.106-0.552-0.206-0.847-0.292c-0.086-0.025-0.169-0.043-0.254-0.065
		c-0.63-0.377-1.197-0.787-1.694-1.225c-0.019-0.019-0.041-0.037-0.06-0.056c-2.821-2.517-3.618-5.762-3.816-6.91
		c-0.011-0.063,0.007-0.126,0.048-0.175c0.04-0.048,0.101-0.076,0.164-0.076h2.164c0.024-0.018,0.052-0.029,0.081-0.033
		c0.116-0.012,0.209,0.025,0.234,0.132c0.577,2.494,2.96,5.604,7.903,6.953v0.161c-0.104,0.07-0.216,0.127-0.322,0.193
		C56.057,63.359,55.001,63.821,53.868,64.105z M58.378,66.454V49.576c0.089-0.061,0.175-0.112,0.253-0.15
		c0.32-0.159,0.511-0.594,0.424-0.971c-0.073-0.314-0.321-0.516-0.677-0.581V32.593h1.143V67.6L58.378,66.454z M61.847,56.06v0.951
		v0.203c-0.767-0.102-1.36-0.727-1.36-1.491c0-0.764,0.594-1.389,1.36-1.491V56.06z M60.487,65.74c0-0.764,0.594-1.389,1.36-1.491
		v2.981C61.08,67.129,60.487,66.504,60.487,65.74z M61.847,62.222c-0.767-0.102-1.36-0.726-1.36-1.491s0.594-1.389,1.36-1.491
		V62.222z M61.847,50.276v1.202v0.728c-0.767-0.102-1.36-0.726-1.36-1.491c0-0.764,0.594-1.389,1.36-1.491V50.276z M61.847,37.18
		c-0.767-0.102-1.36-0.726-1.36-1.49c0-0.764,0.594-1.389,1.36-1.49V37.18z M61.847,32.163h-4.279h-1.604l5.883-4.995v1.239v2.953
		V32.163z M55.671,26.097c-0.483,0.497-0.924,1.043-1.326,1.632l0.086-0.341l-2.2,3.941c-0.042-0.015-0.094-0.028-0.138-0.042
		l0.72-4.412l-1.858,4.121c-0.058-0.011-0.112-0.023-0.171-0.034l0.304-4.436l-1.468,4.283c-0.053-0.005-0.107-0.01-0.16-0.015
		l-0.026-4.305l-1.106,4.231c-0.07-0.003-0.137-0.008-0.208-0.01l-0.28-4.288l-0.851,4.277c-0.073,0.001-0.147,0.005-0.22,0.007
		l-0.603-4.342l-0.546,4.391c-0.073,0.005-0.145,0.011-0.218,0.016l-1.01-4.335l-0.146,4.442c-0.059,0.007-0.117,0.013-0.176,0.02
		l-1.182-4.299l0.028,4.468c-0.061,0.01-0.123,0.018-0.184,0.029l-1.462-4.24l0.316,4.483c-0.06,0.015-0.117,0.033-0.177,0.048
		l-1.82-4.125l0.693,4.464c-0.056,0.02-0.113,0.039-0.169,0.059l-2.193-3.961l1.101,4.423c-0.048,0.025-0.09,0.053-0.137,0.078
		L38.34,31.5c-0.518-2.215-1.044-4.119-1.812-5.403H55.671z M33.918,81.19c0.484-0.497,0.924-1.044,1.327-1.633l-0.086,0.341
		l2.202-3.943c0.043,0.016,0.091,0.031,0.137,0.046l-0.72,4.41l1.857-4.121c0.056,0.011,0.113,0.021,0.171,0.031l-0.304,4.439
		l1.467-4.281c0.053,0.005,0.107,0.01,0.161,0.014l0.025,4.303l1.106-4.229c0.07,0.003,0.139,0.006,0.21,0.008l0.28,4.288
		l0.852-4.282c0.073-0.001,0.146-0.004,0.219-0.005l0.604,4.346l0.546-4.394c0.072-0.005,0.144-0.01,0.216-0.015l1.01,4.337
		l0.146-4.444c0.059-0.007,0.118-0.014,0.176-0.021l1.183,4.302l-0.029-4.472c0.061-0.01,0.122-0.02,0.183-0.031l1.463,4.246
		l-0.317-4.49c0.058-0.014,0.119-0.027,0.177-0.042l1.821,4.125l-0.692-4.462c0.056-0.019,0.117-0.035,0.172-0.054l2.19,3.955
		l-1.104-4.429c0.048-0.025,0.088-0.053,0.134-0.078l0.548,0.826c0.518,2.217,1.045,4.121,1.814,5.407H33.918z M61.847,26.605
		l-6.607,5.609c-0.069,0.059-0.095,0.153-0.063,0.238c0.031,0.084,0.112,0.141,0.202,0.141h1.975v11.646
		c-0.714-0.452-1.47-0.837-2.278-1.128c0.808-2.804-0.404-6.019-1.025-6.987c-0.612-0.956-1.163-1.651-1.722-2.187
		c0.071-0.358,0.149-0.708,0.235-1.05c0.064-0.25,0.138-0.495,0.21-0.74c0.739-2.493,1.913-4.525,3.513-6.049h5.559V26.605z
		 M36.012,26.097c1.023,1.536,1.656,4.338,2.322,7.31c0.115,0.512,0.233,1.034,0.354,1.559c-0.48,0.39-1.071,1.374-1.88,3.14
		c-0.298-0.462-0.761-0.766-1.32-0.854c-0.801-0.128-1.626,0.212-2.153,0.887c-0.684,0.871-0.604,2.203,0.19,3.239
		c0.416,0.541,1.083,1.041,1.915,1.451c-1.149,0.31-2.221,0.783-3.202,1.405V41.34c0-0.057-0.022-0.111-0.063-0.152l-4.431-4.444
		V26.097H36.012z M27.744,80.682l6.607-5.609c0.069-0.059,0.095-0.153,0.063-0.238c-0.031-0.084-0.112-0.141-0.202-0.141h-1.976
		V63.047c0.714,0.452,1.471,0.837,2.279,1.128c-0.808,2.804,0.404,6.02,1.025,6.988c0.615,0.959,1.165,1.655,1.722,2.188
		c-0.071,0.359-0.149,0.71-0.236,1.053c-0.063,0.247-0.135,0.486-0.207,0.725c-0.739,2.498-1.914,4.534-3.518,6.06h-5.558V80.682z
		 M53.579,81.19c-1.026-1.54-1.66-4.352-2.329-7.333c-0.112-0.504-0.228-1.018-0.347-1.534c0.48-0.39,1.071-1.374,1.88-3.14
		c0.298,0.461,0.76,0.765,1.318,0.854c0.802,0.124,1.627-0.213,2.155-0.886c0.684-0.871,0.604-2.203-0.19-3.239
		c-0.415-0.541-1.083-1.041-1.916-1.451c1.149-0.31,2.22-0.782,3.202-1.405v2.892c0,0.057,0.022,0.111,0.063,0.152l4.432,4.443
		V81.19H53.579z"/>
	<path d="M51.195,44.215c0.103,0.056,0.235,0.019,0.292-0.086c0.057-0.104,0.018-0.235-0.087-0.292
		c-0.886-0.48-3.62-0.595-5.686-0.018c-0.114,0.032-0.182,0.15-0.149,0.265c0.026,0.095,0.113,0.157,0.207,0.157
		c0.02,0,0.038-0.002,0.058-0.008C47.897,43.655,50.467,43.821,51.195,44.215z"/>
	<path d="M49.968,45.031c0.061-0.102,0.028-0.233-0.073-0.295c-0.101-0.06-0.233-0.029-0.296,0.073
		c-0.105,0.175-0.369,0.311-0.706,0.364c-0.492,0.077-1.014-0.032-1.292-0.274c-0.089-0.079-0.226-0.069-0.303,0.021
		c-0.078,0.09-0.068,0.226,0.021,0.303c0.297,0.259,0.765,0.404,1.256,0.404c0.127,0,0.257-0.01,0.385-0.03
		C49.435,45.524,49.792,45.322,49.968,45.031z"/>
	<path d="M43.527,36.107c1.161-0.45,3.332-0.712,4.637,0.244C47.508,35.02,44.708,34.308,43.527,36.107z"/>
	<path d="M53.46,36.107c-1.016-1.799-3.43-1.087-3.995,0.244C50.59,35.395,52.46,35.657,53.46,36.107z"/>
	<path d="M36.769,39.901c-0.306,0.446-0.342,0.964-0.099,1.42c0.304,0.57,0.968,0.922,1.736,0.922c0.009,0,0.017,0,0.024,0
		c0.672-0.007,1.337-0.328,1.874-0.903c1.091-1.169,1.606-3.284,1.451-5.957c-0.007-0.114-0.102-0.202-0.215-0.202
		c-0.004,0-0.008,0-0.013,0c-0.118,0.007-0.209,0.109-0.202,0.228c0.201,3.446-0.751,5.011-1.336,5.638
		c-0.456,0.488-1.012,0.761-1.563,0.767c-0.007,0-0.013,0-0.02,0c-0.601,0-1.133-0.271-1.357-0.694
		c-0.168-0.314-0.142-0.661,0.074-0.975c0.334-0.488,0.771-0.617,1.167-0.345c0.303,0.207,0.51,0.631,0.32,0.907
		c-0.066,0.098-0.042,0.232,0.057,0.299c0.098,0.066,0.231,0.041,0.299-0.056c0.337-0.493,0.048-1.176-0.433-1.505
		C38.078,39.133,37.342,39.065,36.769,39.901z"/>
	<path d="M36.119,39.113c0.12,0.011,0.222-0.081,0.229-0.2c0.008-0.118-0.081-0.221-0.2-0.229c-0.024-0.002-0.049-0.002-0.072-0.002
		c-0.517,0-0.992,0.379-1.199,0.965c-0.235,0.667-0.043,1.34,0.491,1.713c0.037,0.026,0.08,0.039,0.123,0.039
		c0.067,0,0.135-0.032,0.176-0.092c0.068-0.097,0.045-0.231-0.053-0.299c-0.451-0.315-0.461-0.853-0.332-1.217
		C35.408,39.433,35.723,39.09,36.119,39.113z"/>
	<path d="M38.657,38.436c0.04,0.033,0.088,0.048,0.136,0.048c0.063,0,0.124-0.027,0.167-0.079c0.593-0.728,1.028-2.086,1.067-2.702
		c0.007-0.119-0.083-0.221-0.201-0.228c-0.147-0.008-0.221,0.083-0.229,0.201c-0.035,0.553-0.458,1.828-0.972,2.458
		C38.55,38.226,38.565,38.362,38.657,38.436z"/>
	<polygon class="st2" points="61.847,28.408 61.847,27.168 55.964,32.163 57.568,32.163 61.847,32.163 61.847,31.361 58.369,31.361 
			"/>
	<polygon class="st1" points="58.369,31.361 61.847,31.361 61.847,28.408 	"/>
	<path class="st2" d="M59.521,32.593h-1.143v15.281c0.357,0.065,0.605,0.267,0.677,0.581c0.087,0.377-0.104,0.813-0.424,0.971
		c-0.079,0.039-0.165,0.089-0.253,0.15v16.878l1.143,1.146V32.593z"/>
	<path class="st2" d="M60.487,35.69c0,0.764,0.594,1.388,1.36,1.49v-2.98C61.08,34.301,60.487,34.926,60.487,35.69z"/>
	<path class="st2" d="M61.847,44.215c-0.767,0.102-1.36,0.727-1.36,1.491c0,0.764,0.594,1.39,1.36,1.491V44.215z"/>
	<path class="st2" d="M60.487,40.698c0,0.764,0.594,1.388,1.36,1.49v-2.981C61.08,39.309,60.487,39.934,60.487,40.698z"/>
	<path class="st2" d="M61.847,54.232c-0.767,0.102-1.36,0.726-1.36,1.491c0,0.764,0.594,1.389,1.36,1.491v-0.203V56.06V54.232z"/>
	<path class="st2" d="M60.487,65.74c0,0.764,0.594,1.389,1.36,1.491V64.25C61.08,64.351,60.487,64.976,60.487,65.74z"/>
	<path class="st2" d="M60.487,60.732c0,0.764,0.594,1.389,1.36,1.491v-2.981C61.08,59.343,60.487,59.967,60.487,60.732z"/>
	<path class="st2" d="M61.847,49.224c-0.767,0.102-1.36,0.727-1.36,1.491c0,0.764,0.594,1.389,1.36,1.491v-0.728v-1.202V49.224z"/>
	<path class="st0" d="M58.004,48.282c-0.571,0.056-1.077,0.23-1.5,0.507c-0.024,0.016-0.043,0.037-0.066,0.053
		c-0.172,0.12-0.33,0.258-0.471,0.413c-0.037,0.04-0.069,0.085-0.104,0.127c-0.121,0.149-0.229,0.312-0.322,0.489
		c-0.242,0.463-0.387,1.001-0.387,1.612c0,1.549,0.855,2.675,2.198,3.063v-2.405c-0.276,0.314-0.641,0.481-1.043,0.481
		c-0.13,0-0.263-0.018-0.398-0.053c-0.114-0.03-0.184-0.147-0.153-0.262s0.143-0.184,0.263-0.154
		c0.397,0.104,0.762-0.003,1.021-0.306c0.312-0.363,0.403-0.937,0.218-1.363c-0.023-0.053-0.023-0.114-0.001-0.168
		c0.236-0.571,0.646-1.012,1.183-1.276c0.142-0.07,0.237-0.308,0.195-0.489c-0.053-0.229-0.291-0.277-0.481-0.279
		C58.099,48.273,58.054,48.277,58.004,48.282z"/>
	<path class="st0" d="M38.465,68.493c-0.085,0-0.154,0.069-0.154,0.155s0.069,0.155,0.154,0.155c0.086,0,0.156-0.069,0.156-0.155
		S38.551,68.493,38.465,68.493z"/>
	<circle class="st0" cx="44.446" cy="68.648" r="0.155"/>
	<path class="st0" d="M37.778,67.581c-0.797,0.155-1.579,0.774-1.597,1.82c1.036,0.367,2.824,0.392,3.771-0.662
		C39.513,67.662,38.521,67.439,37.778,67.581z M38.465,69.232c-0.322,0-0.584-0.262-0.584-0.584s0.262-0.584,0.584-0.584
		c0.323,0,0.586,0.262,0.586,0.584S38.788,69.232,38.465,69.232z"/>
	<path class="st0" d="M43.832,67.633c-0.861-0.082-1.882,0.194-2.229,1.198c1.272,1.097,3.403,1.067,4.592,0.685
		C46.016,68.41,44.896,67.735,43.832,67.633z M44.446,69.232c-0.322,0-0.584-0.262-0.584-0.584s0.262-0.584,0.584-0.584
		s0.584,0.262,0.584,0.584S44.768,69.232,44.446,69.232z"/>
	<path class="st0" d="M35.902,70.931c0.621,0.967,1.168,1.657,1.721,2.173c1.392,0.787,5.372,0.983,8.726,0.418
		c-0.02-1.373,0.017-2.579,0.103-3.642c-0.517,0.186-1.204,0.311-1.938,0.311c-1.154,0-2.419-0.302-3.303-1.135
		c-0.058-0.055-0.081-0.137-0.06-0.213c0.073-0.269,0.193-0.508,0.347-0.718c-0.038,0.033-0.087,0.053-0.14,0.053
		c-0.008,0-0.017,0-0.025-0.001c-0.117-0.014-0.202-0.121-0.188-0.238c0.093-0.783,0.835-1.379,1.499-1.675
		c0.108-0.047,0.235,0,0.284,0.108c0.049,0.109,0,0.236-0.108,0.284c-0.557,0.249-1.177,0.729-1.247,1.333
		c-0.006,0.048-0.031,0.086-0.062,0.118c0.493-0.657,1.352-1,2.364-0.902c1.113,0.107,2.274,0.774,2.649,1.873
		c0.235-2.055,0.697-3.433,1.387-4.103c1.054-1.022,2.017-1.384,3.002-1.389c-1.462-2.101-4.421-3.225-8.462-3.225
		c-0.577,0-1.175,0.022-1.794,0.068c-2.69,0.2-4.501,1.193-5.379,2.951C33.988,65.959,35.067,69.629,35.902,70.931z M46.063,71.18
		c-1.181,1.799-3.981,1.087-4.637-0.244C42.731,71.892,44.902,71.63,46.063,71.18z M36.13,71.18c1,0.45,2.87,0.712,3.995-0.244
		C39.56,72.266,37.147,72.978,36.13,71.18z M40.365,68.917c-0.678,0.842-1.751,1.147-2.755,1.147c-0.644,0-1.259-0.125-1.723-0.315
		c-0.078-0.032-0.13-0.105-0.134-0.189c-0.063-1.378,0.963-2.21,1.942-2.401c0.768-0.147,1.66,0.055,2.251,0.751
		c-0.155-0.459-0.564-0.902-1.089-1.149c-0.107-0.05-0.153-0.178-0.103-0.286c0.05-0.109,0.176-0.155,0.286-0.103
		c0.688,0.323,1.211,0.913,1.366,1.539c0.028,0.115-0.042,0.232-0.157,0.26c-0.018,0.004-0.035,0.006-0.052,0.006
		c-0.029,0-0.053-0.016-0.079-0.027c0.109,0.167,0.207,0.348,0.282,0.56C40.425,68.781,40.411,68.859,40.365,68.917z M43.761,63.053
		c0.104-0.031,0.232,0.034,0.265,0.149c0.032,0.114-0.035,0.233-0.149,0.265c-0.968,0.271-2.083,0.39-3.086,0.39
		c-1.136,0-2.128-0.152-2.6-0.408c-0.104-0.057-0.144-0.187-0.087-0.292c0.057-0.105,0.189-0.143,0.292-0.086
		C39.123,63.465,41.696,63.629,43.761,63.053z M42.271,62.063c0.089,0.078,0.099,0.214,0.021,0.303
		c-0.079,0.089-0.213,0.099-0.304,0.021c-0.276-0.241-0.79-0.351-1.289-0.274c-0.337,0.053-0.602,0.189-0.707,0.365
		c-0.041,0.067-0.112,0.104-0.185,0.104c-0.038,0-0.076-0.01-0.111-0.031c-0.102-0.062-0.134-0.193-0.072-0.295
		c0.175-0.291,0.533-0.492,1.009-0.567C41.252,61.591,41.897,61.738,42.271,62.063z"/>
	<path class="st2" d="M52.578,68.593c0.037-0.08,0.128-0.122,0.204-0.127c0.088,0.003,0.164,0.059,0.194,0.141
		c0.199,0.549,0.635,0.916,1.192,1.004c0.642,0.103,1.317-0.175,1.75-0.727c0.562-0.716,0.481-1.831-0.194-2.712
		c-0.597-0.778-1.786-1.473-3.263-1.905c-1.56-0.456-2.754-0.438-4.254,1.015c-0.698,0.678-1.507,2.649-1.433,8.166
		c1.524-0.292,2.885-0.746,3.761-1.386c0.002-0.001,0.004,0,0.006-0.001c0.003-0.002,0.005-0.006,0.008-0.008
		C50.991,71.782,51.673,70.618,52.578,68.593z M53.977,66.278c-0.098-0.068-0.121-0.202-0.053-0.299
		c0.066-0.098,0.204-0.121,0.299-0.053c0.534,0.374,0.728,1.046,0.491,1.713c-0.207,0.586-0.683,0.966-1.199,0.966
		c-0.023,0-0.048,0-0.072-0.002c-0.119-0.008-0.208-0.111-0.2-0.229c0.009-0.119,0.117-0.21,0.229-0.2
		c0.395,0.023,0.711-0.319,0.837-0.678C54.438,67.131,54.428,66.594,53.977,66.278z M49.777,71.812c-0.005,0-0.01,0-0.015,0
		c-0.118-0.008-0.208-0.11-0.2-0.229c0.041-0.617,0.478-1.976,1.068-2.702c0.075-0.092,0.211-0.106,0.303-0.031
		c0.092,0.075,0.106,0.21,0.031,0.303c-0.512,0.628-0.937,1.905-0.973,2.458C49.984,71.725,49.889,71.812,49.777,71.812z
		 M51.058,67.843c-0.481-0.329-0.771-1.012-0.436-1.505c0.067-0.098,0.201-0.124,0.299-0.057c0.098,0.067,0.123,0.201,0.057,0.299
		c-0.188,0.277,0.019,0.701,0.322,0.908c0.189,0.131,0.685,0.357,1.166-0.345c0.216-0.314,0.242-0.661,0.074-0.976
		c-0.227-0.427-0.792-0.703-1.377-0.693c-0.552,0.006-1.107,0.278-1.563,0.767c-0.585,0.627-1.537,2.192-1.336,5.638
		c0.007,0.119-0.084,0.22-0.202,0.228c-0.005,0-0.009,0-0.013,0c-0.113,0-0.208-0.088-0.215-0.202
		c-0.155-2.672,0.36-4.788,1.451-5.957c0.537-0.575,1.202-0.896,1.874-0.903c0.008,0,0.017,0,0.025,0
		c0.769,0,1.432,0.352,1.735,0.921c0.243,0.457,0.207,0.975-0.099,1.421C52.247,68.222,51.512,68.153,51.058,67.843z"/>
	<path class="st1" d="M50.701,74.957c-0.047,0.025-0.086,0.054-0.134,0.078l1.104,4.429l-2.19-3.955
		c-0.055,0.02-0.116,0.035-0.172,0.054l0.692,4.462l-1.821-4.125c-0.058,0.015-0.118,0.027-0.177,0.042l0.317,4.49l-1.463-4.246
		c-0.061,0.011-0.122,0.021-0.183,0.031l0.029,4.472l-1.183-4.302c-0.059,0.007-0.117,0.014-0.176,0.021l-0.146,4.444l-1.01-4.337
		c-0.072,0.005-0.144,0.01-0.216,0.015l-0.546,4.394l-0.604-4.346c-0.073,0.001-0.146,0.004-0.219,0.005l-0.852,4.282l-0.28-4.288
		c-0.071-0.002-0.14-0.005-0.21-0.008l-1.106,4.229l-0.025-4.303c-0.054-0.005-0.108-0.009-0.161-0.014l-1.467,4.281l0.304-4.439
		c-0.058-0.01-0.115-0.021-0.171-0.031l-1.857,4.121l0.72-4.41c-0.045-0.015-0.093-0.03-0.137-0.046l-2.202,3.943l0.086-0.341
		c-0.403,0.589-0.844,1.136-1.327,1.633h19.145c-0.769-1.285-1.296-3.19-1.814-5.407L50.701,74.957z"/>
	<path class="st3" d="M37.188,75.422c2.453,1.174,10.511,1.02,13.731-1.078c-0.129-0.575-0.26-1.161-0.396-1.753
		c-3.094,1.957-10.416,2.106-12.871,1.01C37.524,74.225,37.369,74.835,37.188,75.422z"/>
	<path d="M40.119,68.151c0.026,0.011,0.05,0.027,0.079,0.027c0.017,0,0.034-0.002,0.052-0.006c0.115-0.028,0.186-0.145,0.157-0.26
		c-0.155-0.626-0.679-1.216-1.366-1.539c-0.11-0.052-0.236-0.006-0.286,0.103c-0.051,0.107-0.005,0.235,0.103,0.286
		c0.525,0.247,0.934,0.69,1.089,1.149c-0.591-0.696-1.483-0.898-2.251-0.751c-0.979,0.19-2.006,1.023-1.942,2.401
		c0.004,0.084,0.056,0.158,0.134,0.189c0.464,0.19,1.079,0.315,1.723,0.315c1.004,0,2.077-0.305,2.755-1.147
		c0.047-0.058,0.061-0.136,0.036-0.206C40.326,68.498,40.228,68.317,40.119,68.151z M36.181,69.401
		c0.018-1.045,0.8-1.665,1.597-1.82c0.743-0.142,1.735,0.081,2.174,1.158C39.005,69.793,37.217,69.768,36.181,69.401z"/>
	<path d="M44.446,68.063c-0.322,0-0.584,0.262-0.584,0.584s0.262,0.584,0.584,0.584s0.584-0.262,0.584-0.584
		S44.768,68.063,44.446,68.063z M44.446,68.803c-0.085,0-0.154-0.069-0.154-0.155s0.069-0.155,0.154-0.155s0.154,0.069,0.154,0.155
		S44.531,68.803,44.446,68.803z"/>
	<path d="M38.465,68.063c-0.322,0-0.584,0.262-0.584,0.584s0.262,0.584,0.584,0.584c0.323,0,0.586-0.262,0.586-0.584
		S38.788,68.063,38.465,68.063z M38.465,68.803c-0.085,0-0.154-0.069-0.154-0.155s0.069-0.155,0.154-0.155
		c0.086,0,0.156,0.069,0.156,0.155S38.551,68.803,38.465,68.803z"/>
	<path d="M38.396,63.071c-0.103-0.056-0.235-0.019-0.292,0.086c-0.057,0.104-0.018,0.235,0.087,0.292
		c0.472,0.255,1.464,0.408,2.6,0.408c1.003,0,2.118-0.119,3.086-0.39c0.114-0.032,0.182-0.151,0.149-0.265
		c-0.032-0.115-0.16-0.18-0.265-0.149C41.696,63.629,39.123,63.465,38.396,63.071z"/>
	<path d="M39.623,62.255c-0.062,0.102-0.029,0.234,0.072,0.295c0.035,0.021,0.073,0.031,0.111,0.031
		c0.072,0,0.144-0.037,0.185-0.104c0.105-0.175,0.37-0.312,0.707-0.365c0.499-0.076,1.013,0.033,1.289,0.274
		c0.091,0.078,0.225,0.068,0.304-0.021c0.078-0.089,0.068-0.225-0.021-0.303c-0.374-0.325-1.019-0.472-1.639-0.375
		C40.157,61.763,39.798,61.964,39.623,62.255z"/>
	<path d="M46.063,71.18c-1.161,0.45-3.332,0.712-4.637-0.244C42.082,72.266,44.883,72.978,46.063,71.18z"/>
	<path d="M36.13,71.18c1.016,1.799,3.43,1.087,3.995-0.244C39,71.892,37.131,71.63,36.13,71.18z"/>
	<path d="M52.822,67.386c0.306-0.446,0.342-0.964,0.099-1.421c-0.304-0.57-0.967-0.921-1.735-0.921c-0.009,0-0.018,0-0.025,0
		c-0.672,0.007-1.337,0.328-1.874,0.903c-1.091,1.169-1.606,3.284-1.451,5.957c0.007,0.114,0.102,0.202,0.215,0.202
		c0.004,0,0.008,0,0.013,0c0.118-0.007,0.209-0.109,0.202-0.228c-0.201-3.445,0.751-5.011,1.336-5.638
		c0.456-0.488,1.012-0.761,1.563-0.767c0.585-0.009,1.15,0.266,1.377,0.693c0.168,0.315,0.142,0.661-0.074,0.976
		c-0.481,0.702-0.977,0.476-1.166,0.345c-0.304-0.207-0.511-0.631-0.322-0.908c0.066-0.098,0.041-0.232-0.057-0.299
		c-0.098-0.067-0.231-0.042-0.299,0.057c-0.336,0.493-0.046,1.177,0.436,1.505C51.512,68.153,52.247,68.222,52.822,67.386z"/>
	<path d="M53.472,68.174c-0.112-0.01-0.221,0.081-0.229,0.2c-0.008,0.118,0.081,0.221,0.2,0.229
		c0.024,0.002,0.049,0.002,0.072,0.002c0.517,0,0.992-0.379,1.199-0.966c0.236-0.667,0.043-1.34-0.491-1.713
		c-0.095-0.067-0.232-0.045-0.299,0.053c-0.068,0.097-0.045,0.231,0.053,0.299c0.451,0.315,0.461,0.853,0.332,1.217
		C54.183,67.854,53.867,68.197,53.472,68.174z"/>
	<path d="M50.933,68.85c-0.092-0.075-0.228-0.061-0.303,0.031c-0.591,0.726-1.027,2.085-1.068,2.702
		c-0.008,0.118,0.082,0.221,0.2,0.229c0.005,0,0.01,0,0.015,0c0.112,0,0.207-0.087,0.215-0.201c0.036-0.554,0.461-1.83,0.973-2.458
		C51.039,69.06,51.025,68.925,50.933,68.85z"/>
	<polygon class="st2" points="32.022,75.124 27.744,75.124 27.744,75.925 31.222,75.925 27.744,78.878 27.744,80.118 33.626,75.124 
			"/>
	<polygon class="st1" points="27.744,75.925 27.744,78.878 31.222,75.925 	"/>
	<path class="st2" d="M30.07,74.694h1.143V59.413c-0.357-0.066-0.605-0.268-0.676-0.582c-0.087-0.376,0.104-0.812,0.423-0.97
		c0.079-0.039,0.165-0.09,0.253-0.151V40.833l-1.143-1.146V74.694z"/>
	<path class="st2" d="M29.103,71.597c0-0.764-0.593-1.389-1.359-1.491v2.981C28.51,72.986,29.103,72.361,29.103,71.597z"/>
	<path class="st2" d="M27.744,63.071c0.766-0.102,1.359-0.727,1.359-1.491c0-0.764-0.593-1.389-1.359-1.491V63.071z"/>
	<path class="st2" d="M29.103,66.588c0-0.764-0.593-1.388-1.359-1.49v2.981C28.51,67.977,29.103,67.352,29.103,66.588z"/>
	<path class="st2" d="M27.744,53.054c0.766-0.102,1.359-0.726,1.359-1.491s-0.593-1.389-1.359-1.491v0.203v0.95V53.054z"/>
	<path class="st2" d="M29.103,41.546c0-0.764-0.593-1.389-1.359-1.491v2.981C28.51,42.935,29.103,42.31,29.103,41.546z"/>
	<path class="st2" d="M29.103,46.555c0-0.764-0.593-1.389-1.359-1.491v2.981C28.51,47.944,29.103,47.319,29.103,46.555z"/>
	<path class="st2" d="M27.744,58.063c0.766-0.102,1.359-0.727,1.359-1.491c0-0.764-0.593-1.389-1.359-1.491v0.727v1.203V58.063z"/>
	<path class="st0" d="M31.586,59.004c0.571-0.055,1.076-0.23,1.498-0.506c0.028-0.018,0.049-0.042,0.076-0.061
		c0.169-0.119,0.324-0.254,0.463-0.406c0.036-0.04,0.068-0.084,0.102-0.126c0.123-0.152,0.233-0.316,0.326-0.496
		c0.24-0.461,0.384-0.997,0.384-1.606c0-1.549-0.855-2.677-2.199-3.064v2.407c0.366-0.416,0.886-0.573,1.441-0.429
		c0.114,0.03,0.184,0.147,0.153,0.263c-0.029,0.114-0.144,0.184-0.263,0.153c-0.396-0.103-0.761,0.004-1.02,0.306
		c-0.312,0.363-0.403,0.937-0.218,1.364c0.023,0.053,0.023,0.114,0.001,0.168c-0.236,0.571-0.646,1.012-1.183,1.276
		c-0.13,0.064-0.241,0.287-0.194,0.488c0.053,0.229,0.29,0.278,0.48,0.28C31.492,59.014,31.536,59.01,31.586,59.004z"/>
</g>
</svg>
