<?xml version="1.0" encoding="utf-8"?>
<!-- Generator: Adobe Illustrator 23.0.2, SVG Export Plug-In . SVG Version: 6.00 Build 0)  -->
<svg version="1.1" id="Layer_1" xmlns="http://www.w3.org/2000/svg" xmlns:xlink="http://www.w3.org/1999/xlink" x="0px" y="0px"
	 viewBox="0 0 82.452 99.776" style="enable-background:new 0 0 82.452 99.776;" xml:space="preserve">
<style type="text/css">
	.st0{fill:#FFFFFF;}
	.st1{fill:#ED1C24;}
	.st2{fill:#FFCB05;}
	.st3{fill:#21409A;}
	.st4{fill:#D4D5D6;}
	.st5{fill:#000100;}
	.st6{fill:#300505;}
	.st7{fill:#BFD730;}
	.st8{fill:#F15A22;}
</style>
<g>
	<path class="st0" d="M49.185,33.718c-0.073,0.244-0.147,0.488-0.211,0.738c-0.087,0.345-0.166,0.699-0.238,1.06
		c0.658,0.624,1.258,1.375,1.73,2.191c0.146,0.253,0.256,0.506,0.363,0.751c0.226,0.519,0.46,1.056,1.057,1.652
		c0.182,0.183,0.345,0.411,0.493,0.661c-0.582-3.298-1.441-6.041-2.346-7.071c-0.045-0.051-0.063-0.12-0.049-0.187
		c0.014-0.066,0.059-0.122,0.12-0.15c2.498-1.149,4.054-3.41,4.486-5.141c0.024-0.096,0.11-0.163,0.209-0.163
		s0.185,0.067,0.209,0.163c0.412,1.649,1.644,3.308,3.247,4.419v-4.97h-5.558C51.098,29.196,49.925,31.227,49.185,33.718z"/>
	<path class="st0" d="M25.865,48.262c0.008-0.028,0.018-0.055,0.037-0.078c0.102-0.119,0.205-0.235,0.311-0.35l0.162-0.179
		c0.104-0.11,0.212-0.215,0.32-0.321l0.089-0.086c0.05-0.049,0.1-0.098,0.15-0.146c0.084-0.076,0.167-0.148,0.25-0.221
		c0.002-0.002,0.004-0.004,0.007-0.006c0.022-0.019,0.045-0.04,0.067-0.059l0.055-0.047c0.069-0.06,0.138-0.118,0.209-0.175
		c0.103-0.083,0.208-0.165,0.313-0.244c0.1-0.075,0.199-0.148,0.301-0.219c0.048-0.034,0.096-0.067,0.146-0.101
		c1.011-0.695,2.134-1.208,3.335-1.558c-0.701-0.188-1.231-0.482-1.586-0.78c-0.712-0.6-1.142-1.455-1.148-2.288
		c-0.015-1.526,0.736-2.322,1.487-2.435c0.612-0.091,1.147,0.267,1.333,0.893c0.033,0.11-0.027,0.227-0.136,0.264
		c-0.108,0.041-0.229-0.017-0.271-0.125c-0.073-0.186-0.156-0.328-0.238-0.415c-0.025-0.024-0.052-0.047-0.08-0.067
		c-0.047-0.029-0.093-0.038-0.133-0.026c-0.154,0.043-0.316,0.324-0.275,0.563c0.098,0.59,0.562,0.707,0.829,0.725
		c0.031,0.001,0.062,0.002,0.093,0.002c0.863,0,1.949-0.749,2.344-2.062c0.311-1.037,0.729-1.741,1.263-2.171
		c-0.11-0.481-0.218-0.96-0.324-1.43l-0.05-0.222c-0.66-2.941-1.291-5.706-2.304-7.228h-8.268v23.213
		C24.64,49.92,25.212,49.043,25.865,48.262z M25.57,32.351c0.441-0.209,0.918-0.245,1.357-0.137l0.001,0
		c0.005,0.001,0.01,0.003,0.015,0.004l1.069,0.249l-0.683-0.859c-0.003-0.004-0.007-0.008-0.009-0.013l-0.001,0
		c-0.286-0.35-0.457-0.798-0.457-1.284c0-1.123,0.91-2.033,2.034-2.033c1.124,0,2.033,0.911,2.033,2.033
		c0,0.487-0.171,0.934-0.456,1.284l-0.001,0c-0.002,0.004-0.006,0.008-0.009,0.013l-0.683,0.859l1.069-0.249
		c0.005-0.001,0.01-0.003,0.016-0.004l0.001,0c0.438-0.108,0.916-0.072,1.355,0.137c1.015,0.482,1.448,1.694,0.966,2.709
		c-0.481,1.015-1.694,1.448-2.709,0.966c-0.44-0.209-0.77-0.555-0.964-0.964c-0.002-0.005-0.006-0.01-0.008-0.015l-0.42-0.857v0.965
		c0,0.914,0.448,2.845,1.518,3.259h-3.415c1.07-0.414,1.518-2.345,1.518-3.259v-0.965l-0.42,0.857
		c-0.002,0.005-0.006,0.009-0.008,0.015c-0.194,0.408-0.524,0.755-0.964,0.964c-1.015,0.481-2.228,0.049-2.709-0.966
		C24.123,34.045,24.556,32.833,25.57,32.351z"/>
	<path class="st0" d="M56.507,48.218c0.075,0.089,0.146,0.182,0.219,0.273c0.194-0.03,0.397-0.044,0.58-0.088
		c0.018-0.307,0.12-0.569,0.303-0.767c0.164-0.177,0.395-0.275,0.647-0.323V36.441c-0.97,3.01-1.68,7.673-1.768,11.738
		C56.496,48.191,56.502,48.204,56.507,48.218z"/>
	<path class="st0" d="M25.903,62.221c-0.075-0.089-0.147-0.182-0.22-0.273c-0.194,0.03-0.396,0.044-0.579,0.087
		c-0.018,0.306-0.12,0.568-0.303,0.766c-0.164,0.178-0.395,0.276-0.648,0.324v10.872c0.97-3.01,1.679-7.673,1.767-11.739
		C25.914,62.246,25.907,62.234,25.903,62.221z"/>
	<path class="st0" d="M33.237,76.677c0.068-0.231,0.138-0.46,0.198-0.696c0.087-0.345,0.166-0.698,0.238-1.059
		c-0.667-0.633-1.252-1.366-1.729-2.191c-0.146-0.254-0.258-0.509-0.366-0.755c-0.226-0.518-0.46-1.053-1.054-1.648
		c-0.182-0.183-0.345-0.412-0.494-0.661c0.581,3.299,1.44,6.042,2.345,7.072c0.045,0.051,0.063,0.121,0.049,0.187
		c-0.014,0.066-0.059,0.122-0.12,0.15c-2.496,1.148-4.052,3.41-4.485,5.141c-0.024,0.096-0.11,0.163-0.209,0.163
		s-0.185-0.067-0.209-0.163c-0.412-1.649-1.644-3.307-3.247-4.419v4.97h5.559C31.32,81.236,32.497,79.189,33.237,76.677z"/>
	<path class="st0" d="M24.45,60.149c-0.107-0.19-0.197-0.397-0.297-0.595v0.635C24.251,60.173,24.349,60.159,24.45,60.149z"/>
	<path class="st0" d="M57.958,50.289c0.107,0.191,0.198,0.398,0.298,0.597v-0.636C58.158,50.264,58.06,50.279,57.958,50.289z"/>
	<path class="st0" d="M62.844,20.938H19.605c-1.564,0-2.837,1.272-2.837,2.836v62.82c0,1.564,1.272,2.836,2.837,2.836h43.239
		c1.564,0,2.838-1.272,2.838-2.836v-62.82C65.682,22.21,64.409,20.938,62.844,20.938z M22.511,36.866
		c-0.253,0.536-0.894,0.764-1.43,0.51c-0.233-0.11-0.407-0.293-0.509-0.509c-0.001-0.003-0.002-0.005-0.005-0.008l-0.222-0.452v0.51
		c0,0.482,0.238,1.502,0.802,1.72h-1.802c0.565-0.218,0.801-1.238,0.801-1.72v-0.51l-0.221,0.452
		c-0.001,0.002-0.003,0.005-0.003,0.008c-0.103,0.216-0.277,0.399-0.51,0.509c-0.536,0.254-1.176,0.025-1.43-0.51
		c-0.254-0.536-0.026-1.177,0.51-1.43c0.234-0.11,0.485-0.129,0.716-0.072c0.002,0.001,0.006,0.001,0.008,0.001l0.566,0.132
		l-0.362-0.454c-0.001-0.002-0.003-0.004-0.005-0.006v0c-0.152-0.186-0.242-0.421-0.242-0.678c0-0.593,0.48-1.074,1.073-1.074
		c0.593,0,1.073,0.481,1.073,1.074c0,0.257-0.091,0.492-0.241,0.678v0c-0.002,0.002-0.003,0.004-0.006,0.006l-0.362,0.454
		l0.565-0.132c0.002-0.001,0.006-0.001,0.009-0.001c0.232-0.057,0.484-0.038,0.716,0.072C22.536,35.689,22.766,36.33,22.511,36.866z
		 M22.877,31.483h-1.426c-0.088-0.273-0.088-0.273-0.367-0.882l-1.134-2.527l-0.475,0.718v1.509c0,0.836,0.054,0.918,0.611,0.945
		v0.236h-2.105v-0.236c0.557-0.027,0.611-0.109,0.611-0.945v-4.436c0-0.827-0.055-0.918-0.584-0.945v-0.236h2.051v0.236
		c-0.53,0.027-0.584,0.118-0.584,0.945v2.472l1.405-2.1c0.299-0.445,0.421-0.709,0.421-0.927c0-0.254-0.129-0.354-0.503-0.391
		v-0.236h1.874v0.236c-0.482,0.054-0.814,0.354-1.459,1.309l-0.672,0.982l1.494,3.145c0.292,0.618,0.516,0.854,0.842,0.9V31.483z
		 M58.686,33.052v2.159v12.272v2.512v1.812v1.031v3.658v1.397v0.733v0.006v24.349c0,0.119-0.096,0.215-0.215,0.215h-8.604H29.803
		h-5.865c-0.119,0-0.215-0.096-0.215-0.215v-5.595v-2.159V62.955v-2.513v-1.811V57.6v-3.657v-1.397v-0.733v-0.005v-24.35
		c0-0.119,0.096-0.215,0.215-0.215h8.604h20.064h5.864c0.119,0,0.215,0.096,0.215,0.215V33.052z M64.467,79.121
		c-0.557,0.027-0.611,0.109-0.611,0.945v4.436c0,0.827,0.055,0.918,0.584,0.945v0.236h-2.051v-0.236
		c0.53-0.027,0.584-0.118,0.584-0.945V82.03l-1.405,2.1c-0.299,0.445-0.421,0.709-0.421,0.927c0,0.254,0.129,0.354,0.503,0.391
		v0.236h-1.874v-0.236c0.482-0.054,0.814-0.354,1.459-1.309l0.672-0.982l-1.494-3.145c-0.292-0.618-0.516-0.854-0.842-0.9v-0.227
		h1.426c0.088,0.273,0.088,0.273,0.367,0.881l1.134,2.527l0.475-0.718v-1.509c0-0.836-0.054-0.918-0.611-0.945v-0.236h2.105V79.121z
		 M63.959,74.932c-0.233,0.11-0.485,0.129-0.715,0.072h-0.001c-0.002-0.001-0.006-0.001-0.008-0.001l-0.566-0.132l0.36,0.454
		c0.002,0.002,0.005,0.004,0.006,0.006l0.002,0c0.149,0.186,0.241,0.421,0.241,0.678c0,0.593-0.481,1.074-1.073,1.074
		c-0.593,0-1.075-0.481-1.075-1.074c0-0.257,0.091-0.493,0.242-0.678l0.001,0c0.001-0.002,0.002-0.004,0.003-0.006l0.362-0.454
		l-0.565,0.132c-0.002,0-0.006,0-0.008,0.001h-0.001c-0.23,0.057-0.484,0.038-0.715-0.072c-0.536-0.254-0.764-0.894-0.511-1.43
		c0.253-0.536,0.895-0.764,1.432-0.51c0.232,0.11,0.406,0.293,0.509,0.509h0.001c0,0.003,0.002,0.006,0.002,0.008l0.222,0.453v-0.51
		c0-0.482-0.237-1.501-0.802-1.72h1.802c-0.563,0.219-0.801,1.239-0.801,1.72v0.51l0.221-0.453c0.001-0.002,0.003-0.005,0.003-0.008
		c0.103-0.215,0.277-0.399,0.511-0.509c0.535-0.254,1.176-0.026,1.429,0.51C64.723,74.037,64.495,74.678,63.959,74.932z"/>
	<path class="st0" d="M56.544,62.176c-0.008,0.027-0.017,0.054-0.036,0.077c-0.1,0.119-0.204,0.234-0.308,0.347l-0.052,0.058
		c-0.038,0.043-0.076,0.086-0.115,0.127c-0.098,0.104-0.198,0.203-0.3,0.301l-0.263,0.252c-0.104,0.096-0.21,0.189-0.317,0.282
		c-0.089,0.076-0.178,0.151-0.267,0.224c-0.104,0.083-0.206,0.164-0.311,0.243c-0.102,0.076-0.203,0.149-0.304,0.221
		c-0.051,0.036-0.103,0.072-0.155,0.107c-1,0.685-2.109,1.192-3.293,1.541c0.697,0.188,1.202,0.494,1.555,0.791
		c0.711,0.6,1.14,1.455,1.146,2.287c0.015,1.526-0.736,2.322-1.486,2.435c-0.61,0.095-1.147-0.268-1.333-0.894
		c-0.033-0.11,0.027-0.227,0.136-0.264c0.11-0.037,0.229,0.017,0.271,0.125c0.072,0.185,0.155,0.326,0.236,0.414
		c0.026,0.025,0.055,0.049,0.084,0.07c0.045,0.027,0.088,0.038,0.13,0.025c0.154-0.042,0.316-0.324,0.277-0.564
		c-0.098-0.589-0.562-0.706-0.83-0.723c-0.869-0.048-2.026,0.699-2.436,2.059c-0.311,1.037-0.73,1.741-1.264,2.171
		c0.121,0.524,0.238,1.046,0.353,1.558c0.667,2.977,1.3,5.784,2.325,7.322h8.268V59.553C57.769,60.518,57.197,61.395,56.544,62.176z
		 M56.88,78.016c-0.44,0.209-0.918,0.245-1.356,0.137v0c-0.006-0.001-0.011-0.002-0.017-0.004L54.438,77.9l0.684,0.86
		c0.002,0.004,0.006,0.008,0.009,0.012v0.001c0.286,0.35,0.459,0.797,0.459,1.284c0,1.123-0.91,2.034-2.034,2.034
		s-2.034-0.911-2.034-2.034c0-0.487,0.172-0.934,0.456-1.284l0.002-0.001c0.002-0.004,0.005-0.008,0.008-0.012l0.685-0.86
		l-1.07,0.249c-0.005,0.001-0.01,0.002-0.016,0.004l-0.001,0c-0.438,0.108-0.915,0.072-1.356-0.137
		c-1.014-0.482-1.446-1.694-0.965-2.709c0.48-1.015,1.694-1.447,2.709-0.966c0.44,0.209,0.77,0.556,0.964,0.964
		c0.002,0.005,0.005,0.01,0.007,0.015l0.421,0.856v-0.965c0-0.914-0.449-2.845-1.517-3.259h3.413
		c-1.069,0.414-1.517,2.345-1.517,3.259v0.965l0.42-0.856c0.002-0.005,0.005-0.009,0.007-0.015h0.001
		c0.194-0.408,0.524-0.755,0.964-0.964c1.015-0.481,2.229-0.048,2.709,0.966C58.327,76.322,57.895,77.535,56.88,78.016z"/>
	<path d="M62.844,20.508H19.605c-1.802,0-3.267,1.465-3.267,3.266v62.82c0,1.801,1.465,3.266,3.267,3.266h43.239
		c1.802,0,3.268-1.465,3.268-3.266v-62.82C66.112,21.973,64.646,20.508,62.844,20.508z M65.682,86.594
		c0,1.564-1.273,2.836-2.838,2.836H19.605c-1.564,0-2.837-1.272-2.837-2.836v-62.82c0-1.563,1.272-2.836,2.837-2.836h43.239
		c1.564,0,2.838,1.272,2.838,2.836V86.594z"/>
	<path class="st1" d="M45.499,57.353h-1.86c0.116,0.573,0.354,1.471,0.804,2.488c0.204,0.012,0.4,0.056,0.583,0.143
		c0.734,0.345,1.112,1.234,1.041,2.41c1.817-0.551,2.696-0.239,3.115,0.135c0.378,0.339,0.521,0.865,0.395,1.445
		c-0.084,0.382-0.29,0.74-0.552,1.06c0.391,0.231,0.802,0.45,1.251,0.647c1.133-0.284,2.19-0.745,3.163-1.351
		C48.604,62.941,46.182,59.889,45.499,57.353z"/>
	<path class="st1" d="M51.282,52.014c0.062-0.234,0.142-0.455,0.244-0.663c-0.14,0.049-0.285,0.082-0.437,0.082
		c-0.165,0-0.331-0.033-0.492-0.089c-0.121,0.128-0.232,0.261-0.339,0.395L51.282,52.014z"/>
	<path class="st1" d="M36.911,53.085h1.86c-0.116-0.573-0.354-1.471-0.805-2.487c-0.204-0.012-0.4-0.056-0.582-0.142
		c-0.734-0.346-1.113-1.234-1.041-2.41c-1.82,0.553-2.698,0.24-3.115-0.135c-0.379-0.338-0.522-0.865-0.396-1.445
		c0.084-0.382,0.29-0.741,0.552-1.061c-0.391-0.231-0.802-0.45-1.25-0.647c-1.133,0.283-2.19,0.745-3.164,1.352
		C33.8,47.496,36.224,50.547,36.911,53.085z"/>
	<path class="st1" d="M28.9,53.129c-1.506-1.41-2.197-3.111-2.195-4.425c-0.176-0.047-0.354-0.093-0.537-0.134
		c-0.701,0.845-1.309,1.805-1.812,2.872C26.137,51.752,27.683,52.336,28.9,53.129z"/>
	<path class="st1" d="M49.104,55.025c1.279,0.312,2.357,0.792,3.245,1.376c-0.993-0.944-1.61-2.075-1.759-3.316l-1.009-0.271
		c-0.314,0.662-0.482,1.372-0.482,2.119C49.099,54.963,49.104,54.994,49.104,55.025z"/>
	<path class="st1" d="M45.491,53.085c0.224-0.827,0.901-2.615,2.761-4.278c-0.129-0.104-0.258-0.207-0.385-0.329
		c-0.719,0.179-1.538,0.314-2.476,0.384c-1.109,1.685-1.574,3.338-1.753,4.223H45.491z"/>
	<path class="st1" d="M53.507,57.309c1.506,1.41,2.198,3.111,2.197,4.426c0.176,0.047,0.354,0.093,0.537,0.134
		c0.701-0.845,1.309-1.805,1.812-2.872C56.272,58.687,54.725,58.102,53.507,57.309z"/>
	<path class="st1" d="M52.289,50.327c0.016-0.015,0.035-0.027,0.052-0.042c-0.015,0.003-0.032,0.004-0.046,0.007
		C52.294,50.305,52.29,50.315,52.289,50.327z"/>
	<path class="st1" d="M57.185,50.323c0.508,0.543,0.8,1.324,0.87,2.3h0.201v-0.772c-0.234-0.539-0.501-1.045-0.786-1.532
		C57.376,50.322,57.281,50.324,57.185,50.323z"/>
	<path class="st1" d="M36.92,57.353c-0.224,0.827-0.9,2.616-2.762,4.28c0.129,0.103,0.258,0.207,0.385,0.328
		c0.719-0.179,1.538-0.314,2.476-0.384c1.11-1.685,1.574-3.339,1.753-4.224H36.92z"/>
	<path class="st1" d="M33.304,55.413c-1.278-0.312-2.355-0.792-3.243-1.375c0.993,0.944,1.609,2.075,1.758,3.314l1.009,0.271
		c0.314-0.662,0.482-1.372,0.482-2.119C33.309,55.475,33.305,55.444,33.304,55.413z"/>
	<path class="st1" d="M30.12,60.112c-0.016,0.014-0.034,0.026-0.05,0.04c0.014-0.003,0.031-0.003,0.045-0.007
		C30.116,60.134,30.119,60.124,30.12,60.112z"/>
	<path class="st1" d="M25.223,60.114c-0.507-0.543-0.799-1.324-0.868-2.299h-0.202v0.773c0.234,0.538,0.5,1.044,0.785,1.531
		C25.033,60.115,25.128,60.114,25.223,60.114z"/>
	<path class="st1" d="M31.128,58.425c-0.062,0.237-0.144,0.46-0.247,0.67c0.294-0.104,0.623-0.107,0.932,0.001
		c0.121-0.129,0.233-0.261,0.339-0.395L31.128,58.425z"/>
	<path class="st2" d="M51.228,53.917c0.023,0.068,0.033,0.139,0.059,0.206C51.268,54.053,51.242,53.988,51.228,53.917z"/>
	<path class="st2" d="M51.15,53.236l-0.106-0.029c0.034,0.209,0.096,0.411,0.159,0.613C51.169,53.634,51.158,53.435,51.15,53.236z"
		/>
	<path class="st2" d="M58.257,57.636v-0.974c-0.529-0.14-1.017-0.315-1.476-0.509c-0.515,0.364-1.173,0.557-1.959,0.557
		c-0.81,0-1.528-0.21-2.11-0.583c1.279,1.193,3.187,2.082,5.538,2.471l0.007-0.014V57.636z"/>
	<path class="st3" d="M49.473,56.846c0.094,0.245,0.203,0.489,0.335,0.731c1.821,0.745,2.909,2.003,3.388,3.194
		c0.216,0.114,0.439,0.224,0.673,0.328c0.601-0.458,1.117-0.03,1.184,0.429c0.001,0.004-0.001,0.009,0,0.013
		c0.073,0.024,0.145,0.048,0.219,0.071c-0.063-2.057-1.923-5.062-6.141-6.139c0.008,0.072,0.023,0.144,0.034,0.216
		C49.524,55.819,49.765,56.274,49.473,56.846z M54.272,59.4c0.236,0.428-0.068,1.076-0.899,1.025
		c0.349-0.058,0.557-0.51,0.389-0.779c-0.112-0.178-0.413-0.314-0.81-0.142C53.348,58.74,54.038,58.972,54.272,59.4z M52.989,57.64
		c0.37,0.319,0.311,1.033-0.485,1.275c0.307-0.177,0.343-0.673,0.092-0.866c-0.167-0.128-0.497-0.15-0.809,0.15
		C51.892,57.345,52.619,57.322,52.989,57.64z M51.09,56.418c0.461,0.16,0.67,0.845,0.018,1.364c0.219-0.278,0.072-0.752-0.233-0.84
		c-0.202-0.057-0.517,0.044-0.696,0.437C49.96,56.546,50.629,56.257,51.09,56.418z"/>
	<path class="st3" d="M49.321,56.404c0.037,0.125,0.082,0.25,0.128,0.375C49.45,56.641,49.408,56.509,49.321,56.404z"/>
	<path class="st0" d="M52.596,58.05c0.251,0.193,0.214,0.689-0.092,0.866c0.796-0.242,0.854-0.956,0.485-1.275
		c-0.37-0.318-1.097-0.295-1.201,0.56C52.099,57.899,52.43,57.922,52.596,58.05z"/>
	<path class="st0" d="M52.952,59.504c0.397-0.172,0.698-0.036,0.81,0.142c0.168,0.269-0.04,0.721-0.389,0.779
		c0.83,0.052,1.135-0.597,0.899-1.025C54.038,58.972,53.348,58.74,52.952,59.504z"/>
	<path class="st0" d="M53.868,61.098c0.37,0.164,0.769,0.308,1.184,0.443c-0.001-0.004,0.001-0.009,0-0.013
		C54.985,61.067,54.469,60.64,53.868,61.098z"/>
	<path class="st0" d="M50.875,56.942c0.305,0.087,0.452,0.562,0.233,0.84c0.651-0.519,0.443-1.204-0.018-1.364
		c-0.461-0.161-1.129,0.128-0.91,0.961C50.359,56.986,50.673,56.886,50.875,56.942z"/>
	<path class="st0" d="M49.164,55.688c0.036,0.237,0.086,0.476,0.157,0.716c0.088,0.104,0.13,0.237,0.128,0.375
		c0.008,0.022,0.016,0.045,0.024,0.067C49.765,56.274,49.524,55.819,49.164,55.688z"/>
	<path class="st3" d="M50.317,58.367c0.529,0.714,1.231,1.387,2.127,1.966C52.011,59.611,51.307,58.907,50.317,58.367z"/>
	<path class="st0" d="M49.807,57.576c0.145,0.268,0.318,0.531,0.51,0.79c0.99,0.541,1.694,1.244,2.127,1.966
		c0.237,0.153,0.489,0.299,0.752,0.438C52.717,59.579,51.628,58.321,49.807,57.576z"/>
	<path class="st3" d="M33.088,54.033c-0.036-0.123-0.081-0.246-0.126-0.369C32.961,53.799,33.002,53.93,33.088,54.033z"/>
	<path class="st3" d="M32.937,53.595c-0.094-0.246-0.204-0.491-0.336-0.734c-1.82-0.744-2.907-2.002-3.386-3.193
		c-0.216-0.114-0.439-0.224-0.673-0.328c-0.6,0.458-1.116,0.031-1.184-0.43c-0.001-0.004,0.001-0.009,0-0.013
		c-0.073-0.024-0.145-0.048-0.22-0.071c0.061,2.056,1.922,5.061,6.14,6.139c-0.008-0.072-0.023-0.144-0.034-0.216
		C32.885,54.618,32.646,54.165,32.937,53.595z M28.137,51.038c-0.235-0.427,0.068-1.076,0.899-1.024
		c-0.348,0.059-0.555,0.51-0.388,0.779c0.112,0.177,0.412,0.314,0.81,0.141C29.061,51.698,28.371,51.466,28.137,51.038z
		 M29.42,52.798c-0.37-0.319-0.311-1.032,0.485-1.275c-0.306,0.177-0.343,0.673-0.091,0.866c0.165,0.128,0.496,0.15,0.808-0.151
		C30.518,53.093,29.791,53.117,29.42,52.798z M31.321,54.02c-0.462-0.16-0.671-0.845-0.018-1.364
		c-0.22,0.278-0.073,0.753,0.233,0.839c0.201,0.057,0.517-0.043,0.696-0.437C32.45,53.892,31.782,54.181,31.321,54.02z"/>
	<path class="st0" d="M29.814,52.389c-0.252-0.193-0.214-0.69,0.091-0.866c-0.796,0.243-0.854,0.956-0.485,1.275
		c0.371,0.319,1.097,0.295,1.201-0.559C30.31,52.539,29.979,52.517,29.814,52.389z"/>
	<path class="st0" d="M29.458,50.934c-0.398,0.172-0.698,0.036-0.81-0.141c-0.168-0.27,0.04-0.721,0.388-0.779
		c-0.83-0.051-1.134,0.597-0.899,1.024C28.371,51.466,29.061,51.698,29.458,50.934z"/>
	<path class="st0" d="M28.542,49.341c-0.369-0.164-0.769-0.308-1.184-0.443c0.001,0.004-0.001,0.009,0,0.013
		C27.425,49.371,27.942,49.798,28.542,49.341z"/>
	<path class="st0" d="M31.535,53.496c-0.306-0.087-0.453-0.561-0.233-0.839c-0.652,0.519-0.444,1.204,0.018,1.364
		c0.461,0.161,1.129-0.128,0.91-0.961C32.052,53.452,31.736,53.553,31.535,53.496z"/>
	<path class="st0" d="M33.245,54.75c-0.036-0.238-0.086-0.477-0.157-0.717c-0.086-0.103-0.127-0.234-0.126-0.369
		c-0.008-0.023-0.016-0.046-0.025-0.069C32.646,54.165,32.885,54.618,33.245,54.75z"/>
	<path class="st3" d="M32.091,52.071c-0.528-0.713-1.23-1.385-2.124-1.964C30.4,50.828,31.102,51.53,32.091,52.071z"/>
	<path class="st0" d="M32.601,52.861c-0.145-0.268-0.318-0.531-0.51-0.791c-0.989-0.54-1.691-1.243-2.124-1.964
		c-0.237-0.153-0.489-0.299-0.752-0.438C29.694,50.859,30.781,52.117,32.601,52.861z"/>
	<path class="st2" d="M26.784,47.248l-0.089,0.086c-0.108,0.105-0.216,0.21-0.32,0.321l-0.162,0.179
		c-0.105,0.115-0.209,0.231-0.311,0.35c-0.019,0.023-0.029,0.05-0.037,0.078c0.414-0.495,0.847-0.965,1.32-1.38
		c-0.083,0.072-0.167,0.144-0.25,0.221C26.883,47.15,26.834,47.199,26.784,47.248z"/>
	<path class="st2" d="M56.488,48.194c0.006,0.008,0.012,0.016,0.019,0.024c-0.005-0.014-0.011-0.027-0.019-0.039
		C56.488,48.184,56.488,48.189,56.488,48.194z"/>
	<path class="st2" d="M25.921,62.243c-0.006-0.007-0.012-0.015-0.018-0.022c0.004,0.013,0.011,0.025,0.018,0.037
		C25.92,62.253,25.92,62.248,25.921,62.243z"/>
	<path class="st2" d="M54.577,64.087c0.104-0.079,0.206-0.159,0.311-0.243c0.089-0.073,0.178-0.147,0.267-0.224
		c0.107-0.093,0.214-0.186,0.317-0.282l0.263-0.252c0.102-0.099,0.202-0.198,0.3-0.301c0.039-0.041,0.077-0.084,0.115-0.127
		l0.052-0.058c0.104-0.113,0.208-0.228,0.308-0.347c0.019-0.023,0.028-0.05,0.036-0.077c-0.722,0.864-1.528,1.622-2.426,2.238
		c0.052-0.035,0.104-0.071,0.155-0.107C54.374,64.236,54.475,64.162,54.577,64.087z"/>
	<path class="st2" d="M27.836,46.351c-0.105,0.079-0.211,0.161-0.313,0.244c-0.071,0.057-0.14,0.116-0.209,0.175l-0.055,0.047
		c-0.022,0.019-0.045,0.04-0.067,0.059c0.348-0.305,0.713-0.586,1.091-0.846c-0.049,0.034-0.098,0.067-0.146,0.101
		C28.035,46.203,27.935,46.276,27.836,46.351z"/>
	<path class="st2" d="M33.69,45.083c-0.208-0.125-0.415-0.25-0.638-0.366l1.121,0c0.001-0.001,0.002-0.001,0.003-0.002l-1.907,0.001
		c-0.046,0.011-0.089,0.029-0.134,0.041c0.448,0.197,0.859,0.416,1.25,0.647C33.478,45.289,33.578,45.184,33.69,45.083z"/>
	<path class="st2" d="M48.72,65.355c0.208,0.125,0.416,0.25,0.639,0.367l-1.124,0c-0.001,0.001-0.002,0.001-0.003,0.001l1.908-0.001
		c0.046-0.011,0.089-0.029,0.136-0.041c-0.448-0.197-0.86-0.416-1.251-0.647C48.931,65.149,48.831,65.254,48.72,65.355z"/>
	<path class="st2" d="M45.499,57.353c0.684,2.536,3.106,5.588,7.941,6.977c0.169-0.105,0.341-0.203,0.505-0.318l-0.017,0.012
		c-5.062-1.325-7.485-4.48-8.066-7.002c-0.025-0.106-0.121-0.144-0.234-0.132c-0.029,0.003-0.057,0.015-0.081,0.033h-2.166
		c-0.063,0-0.124,0.028-0.165,0.077c-0.04,0.048-0.058,0.112-0.047,0.175c0.093,0.537,0.318,1.533,0.818,2.698
		c0.157-0.03,0.31-0.041,0.458-0.033c-0.451-1.017-0.689-1.915-0.804-2.488H45.499z"/>
	<path class="st2" d="M36.911,53.085c-0.687-2.537-3.111-5.589-7.941-6.976c-0.171,0.106-0.345,0.206-0.51,0.321l0.023-0.016
		c5.057,1.324,7.482,4.479,8.068,7.002c0.024,0.108,0.127,0.146,0.233,0.131c0.029-0.003,0.058-0.015,0.082-0.033h2.164
		c0.063,0,0.124-0.028,0.165-0.077c0.04-0.048,0.058-0.112,0.047-0.175c-0.093-0.537-0.318-1.533-0.818-2.698
		c-0.157,0.03-0.31,0.041-0.458,0.033c0.451,1.017,0.689,1.915,0.805,2.487H36.911z"/>
	<path class="st2" d="M32.152,58.7c-0.107,0.134-0.219,0.267-0.339,0.395c0.14,0.049,0.275,0.114,0.397,0.203
		c0.141-0.155,0.272-0.314,0.394-0.477L32.152,58.7z"/>
	<path class="st2" d="M55.271,61.611c-0.074-0.023-0.146-0.047-0.219-0.071c-0.415-0.134-0.815-0.279-1.184-0.443
		c-0.234-0.104-0.457-0.214-0.673-0.328c-0.263-0.139-0.515-0.285-0.752-0.438c-0.896-0.579-1.598-1.252-2.127-1.966
		c-0.192-0.259-0.364-0.523-0.51-0.79c-0.131-0.242-0.24-0.486-0.335-0.731c-0.009-0.022-0.016-0.045-0.024-0.067
		c-0.046-0.125-0.091-0.25-0.128-0.375c-0.07-0.24-0.12-0.478-0.157-0.716c-0.011-0.072-0.026-0.145-0.034-0.216
		c-0.016-0.15-0.024-0.299-0.026-0.447c-0.001-0.031-0.005-0.062-0.005-0.092c0-0.747,0.168-1.457,0.482-2.119
		c0.178-0.375,0.404-0.735,0.676-1.076c0.107-0.134,0.219-0.267,0.339-0.395c-0.139-0.048-0.275-0.114-0.397-0.203
		c-0.988,1.089-1.529,2.38-1.529,3.792c0,2.796,2.252,6.102,7.271,7.311c0.106-0.118,0.199-0.252,0.301-0.375
		c-0.183-0.042-0.361-0.087-0.537-0.134C55.558,61.695,55.413,61.654,55.271,61.611z"/>
	<path class="st2" d="M27.138,48.827c0.075,0.023,0.147,0.047,0.22,0.071c0.415,0.134,0.814,0.279,1.184,0.443
		c0.234,0.104,0.457,0.214,0.673,0.328c0.264,0.139,0.515,0.285,0.752,0.438c0.895,0.579,1.596,1.251,2.124,1.964
		c0.192,0.259,0.364,0.523,0.51,0.791c0.132,0.243,0.242,0.488,0.336,0.734c0.009,0.023,0.016,0.046,0.025,0.069
		c0.045,0.123,0.09,0.246,0.126,0.369c0.071,0.24,0.121,0.479,0.157,0.717c0.011,0.072,0.026,0.145,0.034,0.216
		c0.016,0.15,0.024,0.299,0.026,0.447c0.001,0.031,0.005,0.062,0.005,0.092c0,0.747-0.168,1.457-0.482,2.119l0.424,0.114
		c0.319-0.697,0.488-1.446,0.488-2.233c0-2.796-2.251-6.102-7.27-7.311c-0.106,0.118-0.199,0.252-0.301,0.375
		c0.183,0.042,0.361,0.087,0.537,0.134C26.852,48.743,26.996,48.784,27.138,48.827z"/>
	<path class="st2" d="M36.785,56.889c-0.122-0.008-0.209,0.059-0.234,0.166c-0.154,0.672-0.749,2.571-2.741,4.319
		c0.117,0.079,0.232,0.166,0.348,0.259c1.862-1.664,2.539-3.453,2.762-4.28h1.852c-0.179,0.885-0.643,2.539-1.753,4.224
		c0.006,0,0.011-0.001,0.017-0.002c0.062-0.005,0.117-0.002,0.179-0.007c0.325-0.506,0.668-0.939,1.024-1.285
		c0.631-1.339,0.902-2.51,1.006-3.108c0.011-0.063-0.007-0.127-0.047-0.175c-0.041-0.049-0.102-0.077-0.165-0.077h-2.152
		C36.851,56.905,36.819,56.893,36.785,56.889z"/>
	<path class="st2" d="M27.507,47.171c-0.022,0.019-0.043,0.038-0.064,0.057C27.464,47.209,27.485,47.19,27.507,47.171z"/>
	<path class="st2" d="M45.625,53.549c0.116,0.004,0.209-0.059,0.234-0.166c0.155-0.672,0.75-2.57,2.742-4.318
		c-0.117-0.079-0.232-0.166-0.348-0.259c-1.86,1.663-2.538,3.451-2.761,4.278h-1.853c0.179-0.885,0.643-2.538,1.753-4.223
		c-0.005,0-0.01,0.001-0.015,0.002c-0.062,0.005-0.118,0.003-0.179,0.007c-0.325,0.507-0.669,0.941-1.025,1.287
		c-0.63,1.337-0.9,2.507-1.004,3.105c-0.011,0.063,0.007,0.126,0.048,0.175c0.04,0.049,0.101,0.077,0.164,0.077h2.15
		C45.557,53.533,45.59,53.545,45.625,53.549z"/>
	<path class="st2" d="M54.907,63.264c0.019-0.017,0.039-0.034,0.058-0.051C54.946,63.229,54.927,63.247,54.907,63.264z"/>
	<path class="st2" d="M31.259,57.202l0.106,0.029c-0.034-0.209-0.096-0.412-0.159-0.614C31.241,56.804,31.251,57.003,31.259,57.202z
		"/>
	<path class="st2" d="M31.184,56.53c-0.024-0.071-0.035-0.145-0.062-0.215C31.142,56.387,31.169,56.455,31.184,56.53z"/>
	<path class="st2" d="M27.589,53.728c0.809,0,1.527,0.21,2.11,0.583c-1.279-1.193-3.187-2.082-5.538-2.471l-0.006,0.014
		l-0.001,1.922c0.53,0.14,1.017,0.315,1.477,0.509C26.145,53.921,26.802,53.728,27.589,53.728z"/>
	<path class="st2" d="M39.665,52.657c0.868,0.397,1.347-0.186,1.347-0.729c0-0.544-0.814-1.615-1.776-1.294
		C39.96,50.942,40.079,52.001,39.665,52.657z"/>
	<path class="st2" d="M42.092,51.176c-0.113,0-0.225-0.016-0.336-0.036c-0.221,0.265-0.358,0.568-0.358,0.787
		c0,0.544,0.478,1.127,1.346,0.729c-0.292-0.462-0.312-1.121-0.049-1.58C42.493,51.136,42.291,51.176,42.092,51.176z"/>
	<path class="st0" d="M35.287,54.384c-0.481,0-0.873,0.39-0.873,0.871s0.391,0.871,0.873,0.871c0.479,0,0.869-0.39,0.869-0.871
		S35.766,54.384,35.287,54.384z"/>
	<path class="st0" d="M34.801,51.927c-0.481,0-0.872,0.39-0.872,0.871c0,0.481,0.39,0.871,0.872,0.871c0.481,0,0.87-0.39,0.87-0.871
		C35.671,52.317,35.282,51.927,34.801,51.927z"/>
	<path class="st0" d="M33.316,51.504c0.482,0,0.871-0.39,0.871-0.871c0-0.481-0.389-0.871-0.871-0.871
		c-0.48,0-0.869,0.39-0.869,0.871C32.447,51.114,32.836,51.504,33.316,51.504z"/>
	<path class="st0" d="M31.307,49.721c0.481,0,0.87-0.39,0.87-0.871c0-0.481-0.389-0.871-0.87-0.871c-0.481,0-0.87,0.39-0.87,0.871
		C30.437,49.331,30.826,49.721,31.307,49.721z"/>
	<path class="st0" d="M28.914,46.815c-0.48,0-0.87,0.39-0.87,0.871c0,0.481,0.39,0.871,0.87,0.871c0.481,0,0.872-0.39,0.872-0.871
		C29.785,47.205,29.395,46.815,28.914,46.815z"/>
	<path class="st2" d="M49.859,49.2c0.304-0.453,0.886-0.681,1.564-0.776c0.002-0.291-0.073-0.637-0.247-1.035
		c-0.032-0.075-0.02-0.161,0.032-0.224c0.052-0.063,0.139-0.092,0.214-0.072c0.654,0.155,1.214,0.21,1.66,0.179
		c-0.041-0.998-0.113-2.008-0.216-3.006c-0.043,0.175-0.086,0.35-0.151,0.525c-0.391,1.05-1.463,2.683-4.35,3.546
		C48.869,48.771,49.389,49.059,49.859,49.2z"/>
	<path class="st2" d="M37.567,50.066c0.687,0.32,1.672-0.104,2.642-1.138c0.042-0.044,0.099-0.068,0.157-0.068
		c0.023,0,0.047,0.003,0.07,0.012c0.08,0.027,0.136,0.099,0.144,0.184c0.082,0.893,0.527,1.513,1.193,1.657
		c0.724,0.156,1.826-0.268,2.899-1.822c-0.374,0.017-0.755,0.042-1.114,0.042c-4.276,0-7.41-1.23-8.924-3.537
		c-0.07-0.106-0.118-0.224-0.18-0.334c-0.663,0.361-1.088,0.981-1.202,1.496c-0.055,0.249-0.093,0.714,0.262,1.032
		c0.294,0.261,1.073,0.603,3.004-0.053c0.068-0.024,0.146-0.01,0.205,0.037c0.058,0.047,0.087,0.12,0.077,0.193
		C36.658,48.896,36.952,49.776,37.567,50.066z"/>
	<path class="st0" d="M50.435,38.631c-0.107-0.245-0.208-0.477-0.342-0.708c-0.468-0.81-1.064-1.558-1.721-2.166
		c-1.392-0.784-5.354-0.98-8.702-0.419c0.321,3.364-0.742,8.252-5.035,9.154c0.108,0.229,0.219,0.455,0.358,0.667
		c1.632,2.487,5.314,3.649,10.351,3.275c4.971-0.369,6.499-2.535,6.968-3.793c0.621-1.671,0.104-3.391-0.73-4.227
		C50.928,39.761,50.677,39.187,50.435,38.631z M45.9,39.199c0.155-0.089,0.318-0.148,0.481-0.204
		c-0.168-0.064-0.331-0.155-0.485-0.295c0.623,0.035,2.351-0.339,3.015-1.155c0.774,0.346,1.189,1.216,1.235,1.949
		c-0.298-0.649-0.818-1.193-1.145-1.376c-0.174,0.183-0.608,0.527-1.128,0.756c0.998,0.141,1.943,0.653,2.501,1.185
		c0.061,0.058,0.082,0.146,0.055,0.225c-0.378,1.111-1.346,1.567-2.23,1.567c-0.155,0-0.308-0.014-0.455-0.041
		c-1.008-0.186-2.003-1.01-1.951-2.432C45.795,39.303,45.836,39.235,45.9,39.199z M45.844,40.691
		c0.121-0.025,0.232,0.042,0.261,0.157c0.146,0.592,0.598,1.096,1.179,1.314c0.635,0.239,1.345,0.123,1.993-0.33
		c0.095-0.068,0.23-0.045,0.3,0.053c0.067,0.097,0.044,0.231-0.054,0.299c-0.503,0.351-1.041,0.53-1.569,0.53
		c-0.278,0-0.555-0.05-0.821-0.15c-0.723-0.271-1.263-0.875-1.445-1.613C45.659,40.836,45.729,40.719,45.844,40.691z M42.178,42.849
		c-0.686,0-1.375-0.236-1.946-0.69c-0.093-0.074-0.108-0.209-0.034-0.302c0.072-0.092,0.208-0.108,0.302-0.035
		c0.912,0.725,1.954,0.687,2.622,0.411c0.644-0.266,1.068-0.773,1.137-1.358c0.014-0.117,0.105-0.204,0.239-0.188
		c0.117,0.014,0.202,0.121,0.188,0.238c-0.087,0.742-0.61,1.38-1.4,1.706C42.931,42.777,42.555,42.849,42.178,42.849z M42.01,35.969
		c0.179,1.383,1.714,2.572,2.281,2.697c-1.631,0.277-2.365-1.175-2.53-1.95c-0.291,0.139-1.011,0.499-1.813,0.996
		C40.267,37.311,41.042,36.522,42.01,35.969z M39.275,40.046c1.102-0.875,3.471-1.719,5.289-0.855
		c0.071,0.034,0.118,0.105,0.122,0.185c0.051,1.164-0.77,2.104-2.09,2.393c-0.247,0.054-0.505,0.082-0.765,0.082
		c-1.077,0-2.182-0.479-2.622-1.555C39.174,40.207,39.2,40.106,39.275,40.046z M42.133,45.418c-0.313,0.094-0.707,0.168-1.082,0.106
		c-0.375-0.062-0.755-0.255-0.984-0.599c-0.075-0.185-0.178-0.366-0.178-0.562c-0.009-0.101-0.027-0.184-0.026-0.298l0.026-0.268
		c0.06-0.404,0.328-0.749,0.684-0.887c0.349-0.143,0.732-0.115,1.034,0.03c0.305,0.138,0.541,0.412,0.581,0.712
		c0.021,0.073,0.01,0.145,0.005,0.215c-0.002,0.071-0.017,0.146-0.039,0.199c-0.048,0.13-0.131,0.236-0.226,0.306
		c-0.198,0.139-0.421,0.146-0.576,0.096c-0.16-0.051-0.25-0.16-0.279-0.24c-0.032-0.08-0.027-0.128-0.031-0.127
		c0.003-0.001,0.003,0.048,0.042,0.122c0.035,0.075,0.129,0.17,0.279,0.204c0.147,0.034,0.351,0.007,0.509-0.127
		c0.161-0.13,0.221-0.378,0.178-0.624c-0.044-0.244-0.247-0.461-0.514-0.568c-0.265-0.113-0.596-0.114-0.876,0.003
		c-0.285,0.112-0.492,0.399-0.536,0.708l-0.021,0.269c0.003,0.065,0.021,0.161,0.029,0.24c-0.001,0.174,0.095,0.313,0.151,0.466
		c0.179,0.273,0.482,0.439,0.809,0.5c0.336,0.058,0.652,0.008,0.991-0.085c0.286-0.108,0.586-0.262,0.809-0.453
		c0.242-0.178,0.421-0.42,0.601-0.626c0.191-0.201,0.375-0.385,0.589-0.482c0.097-0.064,0.212-0.071,0.309-0.094
		c0.099,0.007,0.194,0.013,0.269,0.045c0.072,0.039,0.136,0.074,0.192,0.104c0.045,0.042,0.083,0.079,0.114,0.108
		c0.062,0.059,0.095,0.09,0.095,0.09s-0.035-0.028-0.102-0.081c-0.034-0.027-0.075-0.059-0.123-0.098
		c-0.055-0.024-0.119-0.052-0.189-0.083c-0.071-0.024-0.161-0.021-0.249-0.021c-0.087,0.03-0.186,0.041-0.272,0.109
		c-0.187,0.103-0.348,0.295-0.524,0.494c-0.168,0.211-0.333,0.462-0.585,0.669C42.767,45.113,42.483,45.287,42.133,45.418z
		 M50.55,44.543l-0.086,0.249c-0.143,0.318-0.42,0.598-0.764,0.688c-0.328,0.092-0.712,0.047-0.976-0.061
		c-0.313-0.138-0.545-0.321-0.74-0.543c-0.202-0.208-0.326-0.443-0.455-0.644c-0.134-0.195-0.259-0.376-0.406-0.49
		c-0.139-0.138-0.313-0.144-0.439-0.107c-0.058,0.032-0.115,0.057-0.16,0.087c-0.039,0.038-0.073,0.07-0.1,0.097
		c-0.054,0.053-0.083,0.08-0.083,0.08s0.026-0.03,0.075-0.088c0.025-0.029,0.055-0.064,0.09-0.106
		c0.043-0.034,0.099-0.068,0.161-0.108c0.13-0.058,0.344-0.063,0.507,0.072c0.176,0.111,0.323,0.287,0.47,0.484
		c0.141,0.197,0.279,0.424,0.474,0.603c0.176,0.188,0.431,0.35,0.667,0.456c0.299,0.109,0.561,0.118,0.845,0.046
		c0.279-0.079,0.488-0.304,0.603-0.565l0.076-0.206c0.015-0.072,0.018-0.148,0.029-0.222c0.028-0.145,0.013-0.291-0.002-0.454
		c-0.036-0.274-0.192-0.546-0.425-0.662c-0.23-0.127-0.519-0.115-0.734,0.007c-0.22,0.116-0.358,0.336-0.379,0.558
		c-0.012,0.054-0.001,0.111-0.003,0.164c-0.004,0.056,0.007,0.09,0.023,0.153c0.016,0.118,0.071,0.185,0.117,0.26
		c0.123,0.134,0.299,0.165,0.424,0.127c0.062-0.025,0.118-0.05,0.147-0.097c0.04-0.037,0.065-0.074,0.071-0.113
		c0.024-0.071,0.036-0.109,0.036-0.109s-0.009,0.039-0.026,0.113c-0.003,0.04-0.025,0.081-0.063,0.125
		c-0.027,0.053-0.083,0.086-0.151,0.121c-0.134,0.056-0.342,0.044-0.505-0.104c-0.159-0.166-0.22-0.39-0.212-0.654
		c0.01-0.26,0.163-0.545,0.427-0.703c0.257-0.164,0.622-0.206,0.927-0.041c0.313,0.157,0.507,0.483,0.558,0.834
		c0.017,0.152,0.037,0.326,0.01,0.499C50.57,44.373,50.567,44.459,50.55,44.543z"/>
	<path class="st0" d="M47.821,41.387c0.802,0.147,1.753-0.145,2.151-1.111c-0.829-0.719-2.485-1.396-3.752-0.761
		C46.234,40.678,47.081,41.25,47.821,41.387z M47.534,39.63c0.322,0,0.585,0.262,0.585,0.584s-0.263,0.584-0.585,0.584
		s-0.584-0.262-0.584-0.584S47.212,39.63,47.534,39.63z"/>
	<path class="st0" d="M42.504,41.349c0.847-0.186,1.731-0.761,1.755-1.824c-1.549-0.653-3.567,0.028-4.582,0.756
		C40.186,41.278,41.458,41.577,42.504,41.349z M41.554,39.63c0.322,0,0.584,0.262,0.584,0.584s-0.262,0.584-0.584,0.584
		s-0.584-0.262-0.584-0.584S41.232,39.63,41.554,39.63z"/>
	<path class="st0" d="M41.554,40.369c0.085,0,0.154-0.069,0.154-0.155c0-0.085-0.069-0.154-0.154-0.154S41.4,40.129,41.4,40.214
		C41.4,40.3,41.469,40.369,41.554,40.369z"/>
	<path class="st0" d="M47.534,40.369c0.086,0,0.155-0.069,0.155-0.155c0-0.085-0.069-0.154-0.155-0.154
		c-0.085,0-0.154,0.069-0.154,0.154C47.38,40.3,47.449,40.369,47.534,40.369z"/>
	<path class="st2" d="M29.312,41.401c0.007,0.709,0.379,1.442,0.996,1.963c0.643,0.542,1.856,1.117,3.979,0.77
		c4.232-0.689,5.262-5.45,4.956-8.723c-1.531,0.291-2.9,0.748-3.779,1.39c0,0-0.001,0-0.001,0c-0.001,0.001-0.001,0.001-0.002,0.002
		c-0.504,0.354-0.912,1.042-1.213,2.045c-0.472,1.566-1.841,2.422-2.876,2.364c-0.662-0.042-1.12-0.447-1.226-1.082
		c-0.041-0.241,0.023-0.5,0.152-0.703C29.78,39.588,29.301,40.234,29.312,41.401z M33.424,41.073
		c1.33-0.341,2.035-1.835,2.166-2.697c0.019-0.117,0.129-0.202,0.245-0.18c0.117,0.018,0.198,0.127,0.181,0.245
		c-0.148,0.97-0.954,2.655-2.484,3.048c-0.019,0.004-0.036,0.006-0.054,0.006c-0.096,0-0.184-0.064-0.208-0.162
		C33.241,41.22,33.309,41.103,33.424,41.073z M33.268,42.848c2.965-0.14,4.387-3.702,4.457-5.489
		c0.005-0.119,0.088-0.214,0.224-0.207c0.118,0.005,0.211,0.104,0.206,0.223c-0.076,1.92-1.626,5.749-4.867,5.902
		c-0.003,0-0.007,0-0.01,0c-0.114,0-0.209-0.089-0.215-0.205C33.057,42.954,33.149,42.854,33.268,42.848z"/>
	<path class="st2" d="M48.808,32.979c0.046,0.019,0.088,0.039,0.131,0.059c0.048-0.145,0.103-0.282,0.154-0.423
		C49.006,32.748,48.912,32.873,48.808,32.979z"/>
	<path class="st2" d="M34.557,32.275c-0.016-0.678,0.268-1.232,0.753-1.353c0.306-0.077,0.638,0.033,0.925,0.312
		c0.261,0.252,0.461,0.619,0.563,1.034c0.088,0.352,0.094,0.69,0.036,0.983c0.38-0.126,0.773-0.244,1.188-0.345
		c-0.211-0.278-0.358-0.643-0.409-1.047c-0.068-0.555,0.05-1.091,0.316-1.433c0.16-0.206,0.364-0.329,0.591-0.357
		c0.226-0.024,0.453,0.042,0.66,0.202c0.343,0.267,0.588,0.757,0.656,1.313c0.044,0.356-0.004,0.694-0.106,0.992
		c0.433-0.067,0.871-0.124,1.314-0.168c-0.157-0.278-0.259-0.63-0.27-1.025c-0.012-0.427,0.082-0.834,0.266-1.147
		c0.203-0.345,0.49-0.539,0.809-0.548c0.309-0.018,0.615,0.17,0.836,0.503c0.2,0.302,0.316,0.704,0.328,1.131
		c0.01,0.356-0.07,0.686-0.198,0.971c0.458-0.016,0.909-0.021,1.35-0.013c-0.123-0.322-0.162-0.725-0.083-1.154l0.001,0
		c0.172-0.918,0.788-1.545,1.404-1.432c0.617,0.113,0.968,0.922,0.8,1.84c-0.062,0.332-0.194,0.608-0.351,0.843
		c0.377,0.036,0.736,0.08,1.073,0.134c-0.037-0.357,0.041-0.76,0.222-1.139c0,0,0,0,0.001,0c0.185-0.385,0.455-0.704,0.761-0.898
		c0.337-0.215,0.682-0.257,0.968-0.119c0.419,0.2,0.593,0.73,0.496,1.333c0.673-1.56,1.546-2.906,2.624-4.014H32.937
		C33.611,28.799,34.098,30.404,34.557,32.275z"/>
	<path class="st2" d="M35.287,33.904c-0.199-0.163-0.371-0.387-0.501-0.672c0.065,0.281,0.131,0.564,0.196,0.854
		C35.082,34.025,35.18,33.963,35.287,33.904z"/>
	<path d="M33.278,43.277c0.003,0,0.007,0,0.01,0c3.241-0.153,4.791-3.982,4.867-5.902c0.005-0.119-0.088-0.218-0.206-0.223
		c-0.136-0.008-0.219,0.088-0.224,0.207c-0.07,1.787-1.492,5.349-4.457,5.489c-0.119,0.006-0.211,0.106-0.205,0.225
		C33.069,43.188,33.164,43.277,33.278,43.277z"/>
	<path d="M33.478,41.496c0.018,0,0.035-0.002,0.054-0.006c1.53-0.393,2.336-2.079,2.484-3.048c0.018-0.118-0.063-0.228-0.181-0.245
		c-0.116-0.022-0.227,0.063-0.245,0.18c-0.131,0.862-0.836,2.356-2.166,2.697c-0.115,0.03-0.184,0.147-0.154,0.262
		C33.295,41.432,33.382,41.496,33.478,41.496z"/>
	<path d="M41.832,41.851c0.26,0,0.518-0.028,0.765-0.082c1.32-0.29,2.141-1.229,2.09-2.393c-0.004-0.08-0.051-0.151-0.122-0.185
		c-1.818-0.864-4.188-0.02-5.289,0.855c-0.075,0.06-0.102,0.161-0.065,0.25C39.65,41.372,40.755,41.851,41.832,41.851z
		 M44.258,39.525c-0.023,1.063-0.908,1.638-1.755,1.824c-1.046,0.228-2.317-0.071-2.827-1.067
		C40.691,39.553,42.71,38.872,44.258,39.525z"/>
	<path d="M47.743,41.81c0.147,0.027,0.3,0.041,0.455,0.041c0.885,0,1.853-0.456,2.23-1.567c0.027-0.08,0.006-0.167-0.055-0.225
		c-0.558-0.531-1.503-1.043-2.501-1.185c0.521-0.229,0.954-0.572,1.128-0.756c0.327,0.184,0.847,0.727,1.145,1.376
		c-0.047-0.733-0.461-1.603-1.235-1.949c-0.664,0.816-2.392,1.19-3.015,1.155c0.154,0.14,0.318,0.231,0.485,0.295
		c-0.163,0.055-0.326,0.115-0.481,0.204c-0.064,0.037-0.105,0.104-0.108,0.179C45.74,40.8,46.735,41.624,47.743,41.81z
		 M49.972,40.275c-0.398,0.966-1.35,1.258-2.151,1.111c-0.74-0.137-1.587-0.708-1.601-1.872
		C47.487,38.88,49.143,39.557,49.972,40.275z"/>
	<path d="M44.291,38.666c-0.567-0.124-2.102-1.314-2.281-2.697c-0.968,0.553-1.743,1.341-2.061,1.743
		c0.802-0.498,1.522-0.858,1.813-0.996C41.927,37.49,42.66,38.943,44.291,38.666z"/>
	<path d="M43.596,44.219c0.176-0.199,0.338-0.391,0.524-0.494c0.086-0.068,0.185-0.08,0.272-0.109c0.088,0,0.177-0.003,0.249,0.021
		c0.071,0.031,0.134,0.058,0.189,0.083c0.049,0.039,0.09,0.071,0.123,0.098c0.067,0.053,0.102,0.081,0.102,0.081
		s-0.033-0.031-0.095-0.09c-0.031-0.029-0.069-0.065-0.114-0.108c-0.056-0.03-0.12-0.065-0.192-0.104
		c-0.074-0.032-0.17-0.038-0.269-0.045c-0.096,0.022-0.212,0.03-0.309,0.094c-0.214,0.096-0.398,0.281-0.589,0.482
		c-0.18,0.206-0.358,0.448-0.601,0.626c-0.224,0.192-0.524,0.345-0.809,0.453c-0.339,0.093-0.655,0.143-0.991,0.085
		c-0.327-0.061-0.63-0.227-0.809-0.5c-0.056-0.153-0.151-0.292-0.151-0.466c-0.009-0.079-0.026-0.175-0.029-0.24l0.021-0.269
		c0.045-0.309,0.252-0.596,0.536-0.708c0.28-0.117,0.611-0.116,0.876-0.003c0.268,0.107,0.47,0.324,0.514,0.568
		c0.043,0.246-0.017,0.495-0.178,0.624c-0.158,0.134-0.362,0.161-0.509,0.127c-0.151-0.034-0.245-0.129-0.279-0.204
		c-0.038-0.075-0.038-0.124-0.042-0.122c0.004-0.001-0.001,0.047,0.031,0.127c0.029,0.08,0.119,0.189,0.279,0.24
		c0.155,0.05,0.378,0.043,0.576-0.096c0.095-0.07,0.179-0.176,0.226-0.306c0.022-0.053,0.037-0.127,0.039-0.199
		c0.005-0.07,0.017-0.142-0.005-0.215c-0.039-0.299-0.275-0.574-0.581-0.712c-0.302-0.144-0.685-0.173-1.034-0.03
		c-0.356,0.139-0.625,0.484-0.684,0.887l-0.026,0.268c-0.001,0.114,0.018,0.197,0.026,0.298c0,0.197,0.103,0.378,0.178,0.562
		c0.229,0.344,0.61,0.537,0.984,0.599c0.375,0.062,0.769-0.012,1.082-0.106c0.351-0.131,0.634-0.305,0.878-0.529
		C43.263,44.681,43.428,44.43,43.596,44.219z"/>
	<path d="M50.57,43.789c-0.051-0.352-0.246-0.677-0.558-0.834c-0.306-0.164-0.671-0.123-0.927,0.041
		c-0.265,0.158-0.417,0.443-0.427,0.703c-0.007,0.264,0.053,0.488,0.212,0.654c0.163,0.148,0.371,0.16,0.505,0.104
		c0.067-0.035,0.123-0.068,0.151-0.121c0.038-0.043,0.06-0.084,0.063-0.125c0.017-0.074,0.026-0.113,0.026-0.113
		s-0.013,0.038-0.036,0.109c-0.006,0.039-0.031,0.076-0.071,0.113c-0.029,0.047-0.085,0.071-0.147,0.097
		c-0.125,0.038-0.301,0.007-0.424-0.127c-0.046-0.075-0.101-0.142-0.117-0.26c-0.016-0.062-0.027-0.097-0.023-0.153
		c0.002-0.054-0.009-0.11,0.003-0.164c0.021-0.222,0.159-0.442,0.379-0.558c0.215-0.122,0.504-0.134,0.734-0.007
		c0.234,0.117,0.389,0.389,0.425,0.662c0.015,0.163,0.03,0.309,0.002,0.454c-0.01,0.074-0.013,0.15-0.029,0.222l-0.076,0.206
		c-0.115,0.261-0.323,0.486-0.603,0.565c-0.284,0.072-0.546,0.063-0.845-0.046c-0.236-0.106-0.49-0.269-0.667-0.456
		c-0.196-0.179-0.334-0.406-0.474-0.603c-0.147-0.196-0.294-0.373-0.47-0.484c-0.163-0.135-0.377-0.129-0.507-0.072
		c-0.062,0.041-0.118,0.074-0.161,0.108c-0.035,0.042-0.066,0.077-0.09,0.106c-0.049,0.058-0.075,0.088-0.075,0.088
		s0.029-0.028,0.083-0.08c0.027-0.026,0.06-0.059,0.1-0.097c0.045-0.029,0.102-0.054,0.16-0.087
		c0.125-0.037,0.299-0.031,0.439,0.107c0.147,0.114,0.272,0.296,0.406,0.49c0.129,0.201,0.253,0.436,0.455,0.644
		c0.195,0.222,0.427,0.405,0.74,0.543c0.264,0.108,0.648,0.153,0.976,0.061c0.344-0.09,0.622-0.371,0.764-0.688l0.086-0.249
		c0.017-0.084,0.02-0.17,0.03-0.255C50.607,44.115,50.586,43.941,50.57,43.789z"/>
	<path d="M44.686,40.924c0.014-0.118-0.071-0.225-0.188-0.238c-0.134-0.015-0.226,0.071-0.239,0.188
		c-0.068,0.585-0.493,1.093-1.137,1.358c-0.668,0.276-1.71,0.313-2.622-0.411c-0.094-0.074-0.229-0.058-0.302,0.035
		c-0.074,0.093-0.059,0.229,0.034,0.302c0.571,0.454,1.261,0.69,1.946,0.69c0.377,0,0.753-0.072,1.107-0.218
		C44.076,42.304,44.599,41.667,44.686,40.924z"/>
	<path d="M47.132,42.564c0.267,0.101,0.543,0.15,0.821,0.15c0.528,0,1.066-0.179,1.569-0.53c0.098-0.068,0.121-0.202,0.054-0.299
		c-0.069-0.099-0.205-0.122-0.3-0.053c-0.648,0.453-1.358,0.569-1.993,0.33c-0.581-0.218-1.033-0.722-1.179-1.314
		c-0.028-0.115-0.14-0.183-0.261-0.157c-0.115,0.029-0.186,0.146-0.157,0.261C45.87,41.69,46.41,42.293,47.132,42.564z"/>
	<path d="M41.554,40.799c0.322,0,0.584-0.262,0.584-0.584s-0.262-0.584-0.584-0.584s-0.584,0.262-0.584,0.584
		S41.232,40.799,41.554,40.799z M41.554,40.06c0.085,0,0.154,0.069,0.154,0.154c0,0.085-0.069,0.155-0.154,0.155
		S41.4,40.3,41.4,40.214C41.4,40.129,41.469,40.06,41.554,40.06z"/>
	<path d="M47.534,40.799c0.322,0,0.585-0.262,0.585-0.584s-0.263-0.584-0.585-0.584s-0.584,0.262-0.584,0.584
		S47.212,40.799,47.534,40.799z M47.534,40.06c0.086,0,0.155,0.069,0.155,0.154c0,0.085-0.069,0.155-0.155,0.155
		c-0.085,0-0.154-0.069-0.154-0.155C47.38,40.129,47.449,40.06,47.534,40.06z"/>
	<path class="st1" d="M44.127,55.848V54.59h-0.001h-1.22c0.032,0.202,0.054,0.41,0.054,0.629c0,0.219-0.022,0.427-0.054,0.63h1.22
		H44.127z"/>
	<path class="st0" d="M58.257,33.17c-1.589-1.024-2.861-2.573-3.458-4.177c-0.623,1.648-2.085,3.553-4.267,4.643
		c1.679,2.283,2.926,9.384,3.013,14.791c0.301,0.029,0.579,0.064,0.82,0.096c0.026-4.345,0.228-11.909,0.435-14.31
		c0.209,2.412,0.411,10.038,0.435,14.373c0.271,0.008,0.541,0.022,0.817,0.003c0.055-4.74,0.982-10.423,2.204-13.42V33.17z"/>
	<path class="st4" d="M54.8,34.213c-0.207,2.401-0.409,9.965-0.435,14.31c0.078,0.01,0.154,0.021,0.223,0.03l0.239,0.032
		c0.131,0.011,0.273-0.003,0.408,0.001C55.211,44.251,55.01,36.626,54.8,34.213z"/>
	<path class="st2" d="M58.257,49.819v-2.088c-0.132,0.037-0.246,0.104-0.331,0.196c-0.139,0.151-0.203,0.364-0.189,0.633
		c0.005,0.102-0.062,0.193-0.16,0.219c-0.855,0.225-1.874,0.309-2.793,0.233l-0.253-0.034c-0.498-0.068-1.354-0.184-2.186-0.184
		c-1.081,0-2.119,0.198-2.263,0.959c-0.11,0.587,0.183,0.902,0.367,1.037c0.313,0.23,0.746,0.276,1.051,0.113
		c0.257-0.138,0.384-0.404,0.366-0.77c-0.005-0.102,0.063-0.192,0.16-0.218c0.391-0.103,0.817-0.172,1.251-0.214
		c0.313-0.128,0.658-0.206,1.022-0.249c0.014-0.005,0.022-0.019,0.038-0.021c0.12-0.015,0.224-0.016,0.319-0.01
		c0.057-0.002,0.108-0.015,0.166-0.015c0.714,0,1.315,0.168,1.806,0.47C57.177,49.909,57.756,49.907,58.257,49.819z"/>
	<path class="st0" d="M51.564,53.06c0,1.927,1.31,3.222,3.258,3.222c2.465,0,2.833-2.019,2.833-3.222
		c0-1.094-0.323-2.847-2.233-3.158c0.014,0.032,0.024,0.06,0.03,0.081c0.114,0.385-0.074,0.852-0.413,1.019
		c-0.295,0.146-0.69,0.432-0.94,0.977c0.203,0.565,0.076,1.261-0.322,1.726c-0.277,0.323-0.648,0.494-1.056,0.494
		c-0.129,0-0.263-0.018-0.397-0.053c-0.114-0.03-0.184-0.147-0.153-0.262s0.142-0.185,0.263-0.154
		c0.396,0.104,0.759-0.004,1.018-0.305c0.312-0.364,0.403-0.938,0.219-1.365c-0.023-0.053-0.023-0.114-0.002-0.167
		c0.235-0.57,0.645-1.012,1.183-1.277c0.135-0.067,0.25-0.31,0.19-0.511c-0.056-0.187-0.243-0.241-0.423-0.251
		C52.786,49.946,51.564,51.203,51.564,53.06z"/>
	<path d="M27.314,36.026c0.44-0.209,0.77-0.555,0.964-0.964c0.002-0.005,0.006-0.01,0.008-0.015l0.42-0.857v0.965
		c0,0.914-0.448,2.845-1.518,3.259h3.415c-1.07-0.414-1.518-2.345-1.518-3.259v-0.965l0.42,0.857
		c0.002,0.005,0.006,0.009,0.008,0.015c0.194,0.408,0.524,0.755,0.964,0.964c1.015,0.481,2.228,0.049,2.709-0.966
		c0.481-1.015,0.049-2.227-0.966-2.709c-0.439-0.209-0.917-0.245-1.355-0.137l-0.001,0c-0.006,0.001-0.011,0.003-0.016,0.004
		l-1.069,0.249l0.683-0.859c0.003-0.004,0.007-0.008,0.009-0.013l0.001,0c0.285-0.35,0.456-0.798,0.456-1.284
		c0-1.123-0.909-2.033-2.033-2.033c-1.124,0-2.034,0.911-2.034,2.033c0,0.487,0.171,0.934,0.457,1.284l0.001,0
		c0.002,0.004,0.006,0.008,0.009,0.013l0.683,0.859l-1.069-0.249c-0.005-0.001-0.01-0.003-0.015-0.004l-0.001,0
		c-0.439-0.108-0.916-0.072-1.357,0.137c-1.014,0.482-1.446,1.694-0.965,2.709C25.086,36.075,26.298,36.508,27.314,36.026z"/>
	<path d="M55.137,74.341c-0.44,0.209-0.77,0.556-0.964,0.964h-0.001c-0.002,0.005-0.005,0.01-0.007,0.015l-0.42,0.856v-0.965
		c0-0.914,0.448-2.845,1.517-3.259h-3.413c1.068,0.414,1.517,2.345,1.517,3.259v0.965l-0.421-0.856
		c-0.002-0.005-0.005-0.009-0.007-0.015c-0.194-0.408-0.524-0.755-0.964-0.964c-1.015-0.481-2.229-0.048-2.709,0.966
		c-0.481,1.015-0.049,2.227,0.965,2.709c0.441,0.209,0.918,0.245,1.356,0.137l0.001,0c0.006-0.001,0.011-0.002,0.016-0.004
		l1.07-0.249l-0.685,0.86c-0.003,0.004-0.006,0.008-0.008,0.012l-0.002,0.001c-0.284,0.35-0.456,0.797-0.456,1.284
		c0,1.123,0.91,2.034,2.034,2.034s2.034-0.911,2.034-2.034c0-0.487-0.172-0.934-0.459-1.284v-0.001
		c-0.003-0.004-0.007-0.008-0.009-0.012l-0.684-0.86l1.069,0.249c0.006,0.001,0.011,0.002,0.017,0.004v0
		c0.438,0.108,0.916,0.072,1.356-0.137c1.015-0.482,1.448-1.694,0.966-2.709C57.366,74.293,56.152,73.86,55.137,74.341z"/>
	<path d="M22.002,35.436c-0.233-0.11-0.485-0.129-0.716-0.072c-0.003,0.001-0.007,0.001-0.009,0.001l-0.565,0.132l0.362-0.454
		c0.002-0.002,0.003-0.004,0.006-0.006v0c0.149-0.186,0.241-0.421,0.241-0.678c0-0.593-0.48-1.074-1.073-1.074
		c-0.593,0-1.073,0.481-1.073,1.074c0,0.257,0.09,0.492,0.242,0.678v0c0.001,0.002,0.003,0.004,0.005,0.006l0.362,0.454
		l-0.566-0.132c-0.002-0.001-0.006-0.001-0.008-0.001c-0.232-0.057-0.482-0.038-0.716,0.072c-0.536,0.253-0.764,0.894-0.51,1.43
		c0.254,0.536,0.894,0.764,1.43,0.51c0.233-0.11,0.407-0.293,0.51-0.509c0-0.003,0.002-0.005,0.003-0.008l0.221-0.452v0.51
		c0,0.482-0.236,1.502-0.801,1.72h1.802c-0.563-0.218-0.802-1.238-0.802-1.72v-0.51l0.222,0.452
		c0.002,0.002,0.003,0.005,0.005,0.008c0.102,0.216,0.276,0.399,0.509,0.509c0.536,0.254,1.177,0.025,1.43-0.51
		C22.766,36.33,22.536,35.689,22.002,35.436z"/>
	<path class="st0" d="M41.88,30.822c-0.281,0.008-0.501,0.252-0.493,0.544c0.008,0.293,0.242,0.524,0.522,0.516
		c0.281-0.008,0.502-0.252,0.494-0.545C42.395,31.045,42.162,30.814,41.88,30.822z"/>
	<path class="st0" d="M39.23,31.659c-0.035-0.291-0.291-0.498-0.569-0.463c-0.278,0.034-0.476,0.298-0.439,0.588
		c0.035,0.29,0.291,0.498,0.57,0.464C39.07,32.214,39.266,31.95,39.23,31.659z"/>
	<path class="st0" d="M35.583,32.023c-0.272,0.067-0.436,0.352-0.365,0.637c0.071,0.284,0.35,0.46,0.622,0.392
		c0.274-0.067,0.436-0.353,0.365-0.637C36.136,32.131,35.857,31.955,35.583,32.023z"/>
	<path class="st0" d="M45.686,31.422c0.054-0.288-0.128-0.563-0.404-0.614c-0.275-0.051-0.543,0.141-0.597,0.429
		c-0.054,0.288,0.128,0.563,0.404,0.614C45.367,31.902,45.633,31.709,45.686,31.422z"/>
	<path class="st0" d="M48.472,31.377c-0.252-0.121-0.56-0.006-0.688,0.258c-0.126,0.264-0.023,0.577,0.23,0.698
		c0.253,0.122,0.561,0.006,0.688-0.258C48.829,31.81,48.726,31.499,48.472,31.377z"/>
	<path class="st1" d="M42.108,33.618c0,0.406,0.33,0.735,0.737,0.735c0.405,0,0.735-0.329,0.735-0.735
		c0-0.407-0.33-0.736-0.735-0.736C42.438,32.882,42.108,33.212,42.108,33.618z"/>
	<path class="st1" d="M39.412,34.689c0.406,0,0.736-0.329,0.736-0.735c0-0.406-0.33-0.735-0.736-0.735
		c-0.406,0-0.736,0.329-0.736,0.735C38.676,34.36,39.005,34.689,39.412,34.689z"/>
	<path class="st1" d="M46.17,33.005c-0.407,0-0.737,0.33-0.737,0.736c0,0.406,0.33,0.735,0.737,0.735
		c0.405,0,0.735-0.329,0.735-0.735C46.905,33.334,46.575,33.005,46.17,33.005z"/>
	<path class="st2" d="M42.745,57.782c-0.868-0.397-1.346,0.186-1.346,0.729s0.814,1.615,1.776,1.294
		C42.45,59.496,42.33,58.437,42.745,57.782z"/>
	<path class="st2" d="M40.653,59.299c0.222-0.265,0.359-0.568,0.359-0.788c0-0.544-0.479-1.127-1.347-0.729
		c0.291,0.46,0.312,1.115,0.053,1.574C40.034,59.264,40.348,59.245,40.653,59.299z"/>
	<path class="st0" d="M47.124,56.055c0.481,0,0.872-0.39,0.872-0.87c0-0.481-0.39-0.871-0.872-0.871c-0.481,0-0.87,0.39-0.87,0.871
		C46.253,55.665,46.642,56.055,47.124,56.055z"/>
	<path class="st0" d="M47.608,58.511c0.481,0,0.872-0.39,0.872-0.871c0-0.481-0.39-0.871-0.872-0.871
		c-0.48,0-0.869,0.39-0.869,0.871C46.739,58.122,47.128,58.511,47.608,58.511z"/>
	<path class="st0" d="M49.093,58.934c-0.481,0-0.87,0.39-0.87,0.871c0,0.482,0.389,0.871,0.87,0.871c0.48,0,0.87-0.39,0.87-0.871
		C49.964,59.324,49.574,58.934,49.093,58.934z"/>
	<path class="st0" d="M51.103,60.717c-0.481,0-0.87,0.39-0.87,0.871c0,0.481,0.389,0.871,0.87,0.871c0.48,0,0.87-0.39,0.87-0.871
		C51.974,61.107,51.584,60.717,51.103,60.717z"/>
	<path class="st0" d="M53.494,63.623c0.481,0,0.871-0.39,0.871-0.871c0-0.481-0.39-0.871-0.871-0.871c-0.48,0-0.87,0.39-0.87,0.871
		C52.624,63.233,53.014,63.623,53.494,63.623z"/>
	<path class="st2" d="M44.842,60.373c-0.682-0.321-1.67,0.103-2.644,1.138c-0.058,0.062-0.145,0.085-0.227,0.056
		c-0.08-0.027-0.136-0.1-0.144-0.184c-0.081-0.893-0.526-1.513-1.191-1.657c-0.732-0.159-1.83,0.268-2.902,1.823
		c4.836-0.226,8.399,0.993,10.04,3.493c0.07,0.106,0.117,0.224,0.18,0.334c0.663-0.361,1.088-0.98,1.202-1.495
		c0.055-0.249,0.093-0.714-0.262-1.032c-0.292-0.262-1.069-0.603-3.003,0.053c-0.069,0.023-0.147,0.01-0.205-0.037
		s-0.087-0.12-0.077-0.193C45.752,61.543,45.458,60.662,44.842,60.373z"/>
	<path class="st2" d="M32.55,61.24c-0.304,0.451-0.885,0.678-1.562,0.774c-0.003,0.291,0.073,0.638,0.247,1.036
		c0.032,0.074,0.021,0.161-0.032,0.224c-0.053,0.063-0.141,0.089-0.214,0.072c-0.656-0.154-1.215-0.209-1.66-0.179
		c0.041,0.998,0.112,2.007,0.215,3.004c0.043-0.174,0.086-0.349,0.151-0.523c0.391-1.05,1.463-2.683,4.349-3.545
		C33.54,61.668,33.02,61.38,32.55,61.24z"/>
	<path class="st0" d="M39.907,69.089c-0.847,0.185-1.732,0.76-1.756,1.824c1.55,0.653,3.567-0.029,4.581-0.757
		C42.223,69.16,40.948,68.86,39.907,69.089z M40.854,70.808c-0.321,0-0.583-0.262-0.583-0.584s0.262-0.584,0.583-0.584
		c0.323,0,0.586,0.262,0.586,0.584S41.177,70.808,40.854,70.808z"/>
	<path class="st0" d="M31.972,71.803c0.107,0.246,0.209,0.479,0.345,0.712c0.473,0.819,1.052,1.547,1.72,2.166
		c1.391,0.784,5.354,0.98,8.702,0.42c-0.321-3.365,0.741-8.253,5.036-9.155c-0.108-0.229-0.219-0.456-0.358-0.668
		c-1.432-2.18-4.436-3.343-8.556-3.343c-0.576,0-1.175,0.023-1.794,0.069c-4.973,0.369-6.5,2.535-6.969,3.792
		c-0.621,1.671-0.103,3.391,0.731,4.227C31.479,70.676,31.73,71.249,31.972,71.803z M36.508,71.239
		c-0.152,0.087-0.31,0.152-0.47,0.207c0.164,0.064,0.325,0.155,0.476,0.293c-0.623-0.035-2.352,0.338-3.016,1.155
		c-0.775-0.346-1.189-1.216-1.235-1.949c0.299,0.649,0.818,1.193,1.145,1.376c0.174-0.182,0.604-0.523,1.121-0.751
		c-0.995-0.142-1.936-0.658-2.492-1.189c-0.061-0.058-0.082-0.146-0.055-0.225c0.444-1.307,1.708-1.705,2.686-1.525
		c1.009,0.187,2.002,1.01,1.949,2.432C36.614,71.135,36.573,71.203,36.508,71.239z M36.566,69.748
		c-0.018,0.004-0.035,0.006-0.052,0.006c-0.097,0-0.185-0.065-0.209-0.163c-0.146-0.592-0.599-1.096-1.181-1.314
		c-0.639-0.24-1.347-0.122-1.992,0.33c-0.096,0.067-0.231,0.044-0.3-0.053c-0.067-0.097-0.044-0.231,0.054-0.299
		c0.769-0.535,1.617-0.67,2.39-0.38c0.723,0.271,1.264,0.875,1.447,1.614C36.752,69.603,36.681,69.719,36.566,69.748z
		 M39.123,67.808c1.001-0.41,2.169-0.23,3.054,0.472c0.093,0.074,0.108,0.209,0.034,0.302c-0.073,0.093-0.207,0.108-0.302,0.035
		c-0.911-0.724-1.953-0.688-2.622-0.412c-0.644,0.266-1.069,0.774-1.138,1.359c-0.013,0.109-0.106,0.19-0.214,0.19
		c-0.008,0-0.017,0-0.025-0.001c-0.117-0.014-0.202-0.121-0.188-0.238C37.809,68.772,38.333,68.134,39.123,67.808z M40.401,74.47
		c-0.18-1.383-1.716-2.572-2.284-2.697c1.633-0.277,2.366,1.176,2.532,1.95c0.29-0.138,1.009-0.498,1.811-0.996
		C42.143,73.128,41.368,73.916,40.401,74.47z M43.133,70.392c-0.775,0.616-2.18,1.217-3.576,1.217c-0.588,0-1.174-0.106-1.712-0.362
		c-0.071-0.034-0.118-0.105-0.122-0.185c-0.051-1.165,0.771-2.104,2.092-2.393c1.265-0.278,2.838,0.138,3.384,1.474
		C43.235,70.231,43.209,70.333,43.133,70.392z M40.277,65.02c0.314-0.094,0.708-0.168,1.083-0.105
		c0.375,0.062,0.755,0.255,0.984,0.6c0.075,0.185,0.177,0.365,0.177,0.562c0.009,0.101,0.028,0.183,0.026,0.298l-0.025,0.268
		c-0.06,0.404-0.331,0.748-0.686,0.887c-0.349,0.143-0.732,0.114-1.035-0.03c-0.305-0.137-0.541-0.412-0.581-0.712
		c-0.02-0.073-0.01-0.145-0.004-0.215c0.001-0.072,0.017-0.147,0.039-0.199c0.048-0.129,0.132-0.236,0.228-0.306
		c0.197-0.139,0.421-0.145,0.576-0.096c0.16,0.05,0.25,0.16,0.279,0.24c0.033,0.08,0.028,0.128,0.032,0.127
		c-0.003,0.001-0.003-0.048-0.042-0.122c-0.035-0.075-0.129-0.169-0.281-0.203c-0.147-0.035-0.35-0.007-0.509,0.126
		c-0.161,0.13-0.222,0.378-0.179,0.624c0.045,0.245,0.247,0.461,0.515,0.568c0.265,0.113,0.596,0.115,0.876-0.002
		c0.285-0.112,0.493-0.399,0.537-0.708l0.022-0.269c-0.002-0.065-0.021-0.161-0.029-0.24c0-0.174-0.094-0.313-0.151-0.467
		c-0.179-0.273-0.482-0.44-0.809-0.501c-0.336-0.057-0.652-0.008-0.991,0.085c-0.286,0.108-0.586,0.261-0.809,0.453
		c-0.243,0.178-0.422,0.42-0.601,0.626c-0.19,0.201-0.375,0.385-0.589,0.482c-0.098,0.064-0.212,0.072-0.309,0.094
		c-0.098-0.008-0.194-0.013-0.269-0.045c-0.071-0.039-0.136-0.073-0.191-0.104c-0.045-0.042-0.084-0.079-0.115-0.108
		c-0.062-0.059-0.095-0.09-0.095-0.09s0.035,0.028,0.102,0.081c0.034,0.027,0.075,0.059,0.123,0.098
		c0.055,0.024,0.119,0.052,0.19,0.082c0.071,0.024,0.16,0.021,0.249,0.021c0.087-0.03,0.186-0.041,0.272-0.109
		c0.186-0.103,0.348-0.295,0.524-0.494c0.168-0.211,0.333-0.462,0.585-0.67C39.643,65.325,39.927,65.151,40.277,65.02z
		 M31.86,65.894l0.086-0.249c0.143-0.318,0.42-0.598,0.764-0.688c0.328-0.092,0.712-0.046,0.976,0.062
		c0.313,0.138,0.545,0.32,0.74,0.543c0.202,0.208,0.325,0.443,0.455,0.644c0.134,0.195,0.26,0.376,0.407,0.49
		c0.139,0.138,0.313,0.144,0.438,0.107c0.058-0.032,0.115-0.057,0.16-0.086c0.039-0.038,0.073-0.07,0.1-0.097
		c0.054-0.052,0.083-0.08,0.083-0.08s-0.026,0.031-0.075,0.088c-0.025,0.029-0.055,0.064-0.09,0.106
		c-0.043,0.034-0.099,0.068-0.161,0.108c-0.13,0.058-0.344,0.063-0.507-0.072c-0.175-0.112-0.323-0.288-0.469-0.484
		c-0.141-0.196-0.279-0.424-0.475-0.603c-0.176-0.188-0.431-0.35-0.667-0.456c-0.299-0.109-0.561-0.119-0.845-0.046
		c-0.279,0.079-0.488,0.304-0.602,0.565L32.1,65.952c-0.015,0.072-0.018,0.148-0.029,0.222c-0.028,0.145-0.013,0.291,0.002,0.453
		c0.036,0.274,0.192,0.546,0.425,0.663c0.23,0.127,0.519,0.116,0.734-0.006c0.22-0.116,0.358-0.336,0.379-0.558
		c0.012-0.055,0.001-0.111,0.003-0.165c0.004-0.056-0.007-0.09-0.023-0.153c-0.016-0.119-0.071-0.186-0.117-0.26
		c-0.123-0.134-0.298-0.166-0.424-0.128c-0.062,0.026-0.117,0.05-0.147,0.097c-0.04,0.037-0.065,0.074-0.071,0.113
		c-0.024,0.071-0.036,0.109-0.036,0.109s0.009-0.039,0.026-0.113c0.003-0.041,0.025-0.081,0.063-0.125
		c0.027-0.053,0.084-0.086,0.151-0.121c0.135-0.056,0.342-0.043,0.505,0.105c0.159,0.165,0.22,0.39,0.212,0.654
		c-0.01,0.26-0.163,0.545-0.428,0.702c-0.256,0.164-0.621,0.205-0.927,0.041c-0.313-0.157-0.507-0.483-0.558-0.834
		c-0.017-0.152-0.037-0.326-0.01-0.499C31.84,66.065,31.843,65.979,31.86,65.894z"/>
	<path class="st0" d="M40.854,70.069c-0.084,0-0.153,0.069-0.153,0.155s0.069,0.155,0.153,0.155c0.086,0,0.156-0.069,0.156-0.155
		S40.94,70.069,40.854,70.069z"/>
	<path class="st0" d="M34.875,70.069c-0.085,0-0.154,0.069-0.154,0.155s0.069,0.155,0.154,0.155c0.086,0,0.155-0.069,0.155-0.155
		S34.961,70.069,34.875,70.069z"/>
	<path class="st0" d="M34.59,69.052c-0.792-0.145-1.753,0.145-2.151,1.111c0.828,0.72,2.481,1.398,3.751,0.761
		C36.175,69.76,35.33,69.189,34.59,69.052z M34.875,70.808c-0.322,0-0.584-0.262-0.584-0.584s0.262-0.584,0.584-0.584
		s0.585,0.262,0.585,0.584S35.197,70.808,34.875,70.808z"/>
	<path class="st2" d="M53.096,69.038c-0.006-0.708-0.378-1.442-0.994-1.962c-0.508-0.428-1.369-0.875-2.753-0.875
		c-0.37,0-0.778,0.032-1.227,0.105c-4.233,0.688-5.262,5.451-4.956,8.723c1.531-0.291,2.9-0.748,3.779-1.39c0,0,0.001,0,0.001,0
		c0.001-0.001,0.001-0.001,0.002-0.002c0.505-0.354,0.913-1.042,1.214-2.045c0.472-1.564,1.82-2.417,2.876-2.364
		c0.662,0.042,1.12,0.447,1.226,1.082c0.04,0.242-0.025,0.501-0.154,0.703C52.629,70.851,53.107,70.205,53.096,69.038z
		 M48.985,69.366c-1.33,0.341-2.035,1.834-2.166,2.696c-0.017,0.106-0.108,0.182-0.213,0.182c-0.011,0-0.021,0-0.032-0.002
		c-0.117-0.018-0.198-0.127-0.181-0.245c0.148-0.97,0.954-2.654,2.484-3.047c0.12-0.029,0.232,0.04,0.262,0.155
		C49.169,69.219,49.1,69.336,48.985,69.366z M49.141,67.591c-2.968,0.139-4.389,3.702-4.458,5.489
		c-0.005,0.116-0.1,0.207-0.215,0.207c-0.003,0-0.006,0-0.009,0c-0.118-0.004-0.211-0.104-0.206-0.223
		c0.075-1.92,1.625-5.75,4.868-5.902c0.11-0.014,0.219,0.086,0.225,0.205C49.352,67.484,49.26,67.585,49.141,67.591z"/>
	<path class="st2" d="M33.6,77.465c-0.047-0.019-0.086-0.041-0.131-0.061c-0.045,0.136-0.097,0.264-0.145,0.397
		C33.408,77.674,33.502,77.565,33.6,77.465z"/>
	<path class="st2" d="M47.843,78.124c0.01,0.242-0.006,0.477-0.073,0.683c-0.123,0.38-0.361,0.632-0.671,0.708
		c-0.063,0.016-0.128,0.024-0.192,0.024c-0.162,0-0.328-0.049-0.488-0.145c-0.371-0.224-0.673-0.681-0.808-1.224
		c-0.087-0.346-0.08-0.686-0.015-0.992c-0.385,0.129-0.791,0.244-1.213,0.347c0.214,0.279,0.362,0.648,0.413,1.054
		c0.114,0.926-0.284,1.712-0.907,1.79c-0.032,0.004-0.064,0.006-0.097,0.006c-0.587,0-1.111-0.644-1.22-1.521
		c-0.043-0.356,0.005-0.694,0.107-0.992c-0.437,0.067-0.879,0.124-1.325,0.168c0.164,0.289,0.271,0.641,0.281,1.025
		c0.025,0.933-0.446,1.678-1.074,1.695c-0.007,0-0.015,0-0.021,0c-0.617,0-1.117-0.711-1.145-1.633
		c-0.01-0.364,0.058-0.697,0.179-0.972c-0.302,0.01-0.606,0.021-0.902,0.021c-0.145,0-0.285-0.005-0.428-0.007
		c0.127,0.334,0.156,0.742,0.081,1.154c-0.102,0.55-0.375,1.025-0.732,1.271c-0.168,0.116-0.348,0.175-0.524,0.175
		c-0.049,0-0.098-0.005-0.146-0.014c-0.223-0.041-0.42-0.176-0.567-0.391c-0.246-0.357-0.333-0.899-0.231-1.45
		c0.061-0.324,0.178-0.61,0.329-0.843c-0.367-0.035-0.722-0.078-1.052-0.131c0.035,0.356-0.042,0.757-0.223,1.136c0,0,0,0-0.001,0
		c-0.185,0.385-0.455,0.704-0.761,0.898c-0.207,0.132-0.416,0.198-0.613,0.198c-0.125,0-0.244-0.026-0.354-0.08
		c-0.205-0.098-0.359-0.279-0.446-0.525c-0.085-0.24-0.092-0.53-0.04-0.829c-0.674,1.57-1.55,2.923-2.632,4.035h19.144
		C48.794,81.632,48.305,80.012,47.843,78.124z"/>
	<path class="st2" d="M47.127,76.523c0.031,0.025,0.063,0.045,0.093,0.074c0.17,0.164,0.3,0.388,0.408,0.63
		c-0.067-0.289-0.135-0.58-0.202-0.878C47.33,76.409,47.231,76.467,47.127,76.523z"/>
	<path d="M49.122,67.161c-3.243,0.152-4.793,3.982-4.868,5.902c-0.005,0.119,0.088,0.219,0.206,0.223c0.003,0,0.006,0,0.009,0
		c0.115,0,0.21-0.091,0.215-0.207c0.069-1.787,1.49-5.35,4.458-5.489c0.119-0.006,0.211-0.106,0.205-0.225
		C49.341,67.248,49.232,67.147,49.122,67.161z"/>
	<path d="M48.878,68.949c-1.53,0.393-2.336,2.078-2.484,3.047c-0.018,0.118,0.063,0.228,0.181,0.245
		c0.011,0.002,0.021,0.002,0.032,0.002c0.104,0,0.196-0.076,0.213-0.182c0.131-0.861,0.836-2.355,2.166-2.696
		c0.115-0.03,0.184-0.147,0.154-0.262C49.11,68.989,48.998,68.92,48.878,68.949z"/>
	<path d="M39.815,68.669c-1.321,0.29-2.143,1.229-2.092,2.393c0.004,0.08,0.051,0.151,0.122,0.185
		c0.538,0.256,1.124,0.362,1.712,0.362c1.396,0,2.801-0.601,3.576-1.217c0.075-0.06,0.102-0.161,0.065-0.25
		C42.653,68.807,41.08,68.391,39.815,68.669z M38.151,70.913c0.023-1.063,0.909-1.639,1.756-1.824
		c1.041-0.229,2.316,0.07,2.825,1.067C41.718,70.884,39.701,71.566,38.151,70.913z"/>
	<path d="M34.668,68.629c-0.978-0.18-2.241,0.218-2.686,1.525c-0.027,0.079-0.006,0.167,0.055,0.225
		c0.556,0.531,1.497,1.047,2.492,1.189c-0.517,0.229-0.947,0.569-1.121,0.751c-0.327-0.183-0.846-0.727-1.145-1.376
		c0.047,0.733,0.461,1.603,1.235,1.949c0.664-0.816,2.393-1.19,3.016-1.155c-0.151-0.137-0.312-0.228-0.476-0.293
		c0.16-0.055,0.318-0.119,0.47-0.207c0.064-0.037,0.105-0.104,0.108-0.179C36.67,69.639,35.676,68.816,34.668,68.629z
		 M32.438,70.163c0.398-0.966,1.359-1.255,2.151-1.111c0.74,0.137,1.586,0.708,1.6,1.872C34.92,71.561,33.266,70.882,32.438,70.163z
		"/>
	<path d="M38.117,71.772c0.568,0.125,2.103,1.314,2.284,2.697c0.967-0.553,1.743-1.342,2.06-1.743
		c-0.802,0.498-1.522,0.858-1.811,0.996C40.483,72.948,39.75,71.496,38.117,71.772z"/>
	<path d="M38.814,66.219c-0.176,0.199-0.338,0.391-0.524,0.494c-0.086,0.068-0.185,0.079-0.272,0.109
		c-0.088,0-0.177,0.003-0.249-0.021c-0.071-0.031-0.135-0.058-0.19-0.082c-0.049-0.039-0.09-0.071-0.123-0.098
		c-0.067-0.053-0.102-0.081-0.102-0.081s0.033,0.031,0.095,0.09c0.031,0.029,0.07,0.065,0.115,0.108
		c0.055,0.03,0.12,0.065,0.191,0.104c0.075,0.032,0.171,0.038,0.269,0.045c0.097-0.022,0.212-0.03,0.309-0.094
		c0.214-0.096,0.398-0.281,0.589-0.482c0.179-0.206,0.358-0.448,0.601-0.626c0.223-0.192,0.524-0.345,0.809-0.453
		c0.339-0.093,0.655-0.143,0.991-0.085c0.327,0.061,0.63,0.228,0.809,0.501c0.056,0.153,0.151,0.292,0.151,0.467
		c0.008,0.079,0.027,0.175,0.029,0.24l-0.022,0.269c-0.044,0.309-0.253,0.596-0.537,0.708c-0.28,0.117-0.611,0.115-0.876,0.002
		c-0.268-0.108-0.47-0.324-0.515-0.568c-0.043-0.246,0.018-0.494,0.179-0.624c0.159-0.133,0.362-0.161,0.509-0.126
		c0.151,0.034,0.245,0.128,0.281,0.203c0.038,0.075,0.038,0.124,0.042,0.122c-0.004,0.001,0.001-0.047-0.032-0.127
		c-0.029-0.08-0.119-0.189-0.279-0.24c-0.155-0.05-0.379-0.043-0.576,0.096c-0.096,0.07-0.179,0.176-0.228,0.306
		c-0.022,0.052-0.038,0.127-0.039,0.199c-0.006,0.07-0.016,0.142,0.004,0.215c0.04,0.299,0.276,0.574,0.581,0.712
		c0.303,0.144,0.685,0.174,1.035,0.03c0.355-0.138,0.626-0.482,0.686-0.887l0.025-0.268c0.002-0.115-0.017-0.197-0.026-0.298
		c0-0.197-0.103-0.378-0.177-0.562c-0.229-0.345-0.61-0.538-0.984-0.6c-0.375-0.062-0.769,0.011-1.083,0.105
		c-0.35,0.131-0.634,0.304-0.878,0.529C39.147,65.757,38.981,66.008,38.814,66.219z"/>
	<path d="M31.84,66.649c0.051,0.351,0.246,0.677,0.558,0.834c0.306,0.165,0.671,0.123,0.927-0.041
		c0.265-0.158,0.417-0.443,0.428-0.702c0.007-0.264-0.053-0.488-0.212-0.654c-0.163-0.148-0.37-0.161-0.505-0.105
		c-0.067,0.035-0.123,0.068-0.151,0.121c-0.038,0.043-0.06,0.084-0.063,0.125c-0.017,0.074-0.026,0.113-0.026,0.113
		s0.013-0.038,0.036-0.109c0.006-0.038,0.031-0.076,0.071-0.113c0.029-0.047,0.085-0.071,0.147-0.097
		c0.126-0.038,0.302-0.006,0.424,0.128c0.046,0.075,0.101,0.142,0.117,0.26c0.016,0.062,0.027,0.097,0.023,0.153
		c-0.002,0.054,0.009,0.11-0.003,0.165c-0.021,0.222-0.159,0.442-0.379,0.558c-0.215,0.122-0.504,0.133-0.734,0.006
		c-0.234-0.117-0.389-0.389-0.425-0.663c-0.015-0.162-0.03-0.308-0.002-0.453c0.01-0.074,0.013-0.15,0.029-0.222l0.076-0.206
		c0.115-0.261,0.323-0.486,0.602-0.565c0.284-0.072,0.546-0.063,0.845,0.046c0.236,0.106,0.49,0.268,0.667,0.456
		c0.196,0.179,0.334,0.406,0.475,0.603c0.146,0.196,0.294,0.372,0.469,0.484c0.163,0.135,0.377,0.129,0.507,0.072
		c0.062-0.041,0.118-0.074,0.161-0.108c0.035-0.042,0.066-0.077,0.09-0.106c0.049-0.058,0.075-0.088,0.075-0.088
		s-0.029,0.028-0.083,0.08c-0.027,0.026-0.06,0.059-0.1,0.097c-0.045,0.029-0.102,0.054-0.16,0.086
		c-0.125,0.037-0.299,0.031-0.438-0.107c-0.147-0.114-0.273-0.296-0.407-0.49c-0.129-0.201-0.253-0.436-0.455-0.644
		c-0.195-0.223-0.427-0.405-0.74-0.543c-0.264-0.108-0.648-0.154-0.976-0.062c-0.344,0.09-0.621,0.37-0.764,0.688l-0.086,0.249
		c-0.017,0.084-0.02,0.171-0.03,0.255C31.803,66.323,31.823,66.497,31.84,66.649z"/>
	<path d="M37.91,69.753c0.009,0.001,0.018,0.001,0.025,0.001c0.107,0,0.201-0.081,0.214-0.19c0.068-0.585,0.494-1.093,1.138-1.359
		c0.669-0.276,1.711-0.312,2.622,0.412c0.095,0.073,0.229,0.058,0.302-0.035c0.074-0.093,0.059-0.229-0.034-0.302
		c-0.885-0.703-2.053-0.882-3.054-0.472c-0.79,0.326-1.313,0.964-1.401,1.707C37.708,69.632,37.793,69.739,37.91,69.753z"/>
	<path d="M35.276,67.874c-0.772-0.29-1.621-0.155-2.39,0.38c-0.098,0.068-0.121,0.202-0.054,0.299c0.068,0.097,0.204,0.12,0.3,0.053
		c0.646-0.451,1.354-0.57,1.992-0.33c0.582,0.218,1.034,0.722,1.181,1.314c0.024,0.098,0.112,0.163,0.209,0.163
		c0.017,0,0.034-0.002,0.052-0.006c0.115-0.028,0.186-0.145,0.157-0.26C36.54,68.749,35.999,68.145,35.276,67.874z"/>
	<path d="M40.854,69.639c-0.321,0-0.583,0.262-0.583,0.584s0.262,0.584,0.583,0.584c0.323,0,0.586-0.262,0.586-0.584
		S41.177,69.639,40.854,69.639z M40.854,70.379c-0.084,0-0.153-0.069-0.153-0.155s0.069-0.155,0.153-0.155
		c0.086,0,0.156,0.069,0.156,0.155S40.94,70.379,40.854,70.379z"/>
	<path d="M34.875,69.639c-0.322,0-0.584,0.262-0.584,0.584s0.262,0.584,0.584,0.584s0.585-0.262,0.585-0.584
		S35.197,69.639,34.875,69.639z M34.875,70.379c-0.085,0-0.154-0.069-0.154-0.155s0.069-0.155,0.154-0.155
		c0.086,0,0.155,0.069,0.155,0.155S34.961,70.379,34.875,70.379z"/>
	<path class="st1" d="M38.282,55.848h1.221c-0.032-0.202-0.054-0.411-0.054-0.63c0-0.219,0.022-0.427,0.054-0.629h-1.221V55.848z"/>
	<path class="st0" d="M27.611,81.446c0.624-1.649,2.085-3.553,4.266-4.644c-1.678-2.283-2.924-9.385-3.011-14.792
		c-0.301-0.029-0.58-0.063-0.822-0.095c-0.026,4.345-0.228,11.909-0.435,14.31c-0.208-2.412-0.411-10.038-0.435-14.373
		c-0.271-0.008-0.541-0.022-0.817-0.002c-0.055,4.742-0.981,10.423-2.203,13.419v1.999C25.742,78.292,27.014,79.842,27.611,81.446z"
		/>
	<path class="st4" d="M27.609,76.225c0.207-2.401,0.409-9.966,0.435-14.31c-0.077-0.01-0.154-0.021-0.222-0.03l-0.24-0.032
		c-0.131-0.011-0.273,0.003-0.408-0.001C27.199,66.187,27.401,73.813,27.609,76.225z"/>
	<path class="st2" d="M24.153,60.619v2.087c0.133-0.037,0.247-0.104,0.332-0.197c0.139-0.151,0.203-0.363,0.189-0.632
		c-0.005-0.102,0.062-0.193,0.16-0.219c0.857-0.225,1.878-0.31,2.792-0.233l0.254,0.034c1.145,0.156,4.19,0.57,4.447-0.775
		c0.11-0.587-0.182-0.901-0.366-1.037c-0.315-0.23-0.749-0.278-1.052-0.113c-0.257,0.138-0.384,0.404-0.366,0.769
		c0.005,0.102-0.063,0.192-0.16,0.218c-0.391,0.103-0.818,0.173-1.252,0.215c-0.313,0.128-0.659,0.205-1.023,0.249
		c-0.014,0.005-0.021,0.019-0.036,0.02c-0.078,0.01-0.151,0.014-0.219,0.014c-0.019,0-0.028-0.007-0.046-0.008
		c-0.074,0.004-0.143,0.019-0.219,0.019c-0.713,0-1.314-0.168-1.805-0.469C25.235,60.53,24.654,60.532,24.153,60.619z"/>
	<path class="st0" d="M30.845,57.379c0-1.927-1.309-3.222-3.257-3.222c-2.465,0-2.833,2.019-2.833,3.222
		c0,1.095,0.324,2.849,2.238,3.158c-0.012-0.028-0.029-0.062-0.035-0.081c-0.114-0.386,0.074-0.853,0.411-1.02
		c0.295-0.146,0.691-0.433,0.942-0.978c-0.203-0.564-0.077-1.26,0.321-1.725c0.366-0.427,0.894-0.587,1.454-0.441
		c0.114,0.03,0.184,0.147,0.153,0.263c-0.03,0.114-0.142,0.184-0.263,0.153c-0.396-0.103-0.76,0.003-1.019,0.305
		c-0.312,0.363-0.403,0.937-0.218,1.364c0.023,0.053,0.023,0.114,0.001,0.168c-0.235,0.569-0.645,1.011-1.182,1.277
		c-0.136,0.066-0.25,0.31-0.19,0.511c0.056,0.187,0.244,0.241,0.424,0.251C29.625,60.493,30.845,59.235,30.845,57.379z"/>
	<path class="st2" d="M41.205,53.013c-0.718,0-1.325,1.01-1.325,2.206s0.607,2.207,1.325,2.207s1.325-1.011,1.325-2.207
		S41.923,53.013,41.205,53.013z M42.186,55.219c0,0.796-0.431,1.42-0.981,1.42s-0.981-0.624-0.981-1.42
		c0-0.796,0.431-1.419,0.981-1.419S42.186,54.423,42.186,55.219z"/>
	<path class="st2" d="M41.205,54.229c-0.261,0-0.552,0.407-0.552,0.99c0,0.583,0.291,0.99,0.552,0.99s0.552-0.407,0.552-0.99
		C41.757,54.636,41.466,54.229,41.205,54.229z"/>
	<path d="M41.205,53.799c-0.551,0-0.981,0.624-0.981,1.419c0,0.796,0.431,1.42,0.981,1.42s0.981-0.624,0.981-1.42
		C42.186,54.423,41.756,53.799,41.205,53.799z M41.757,55.219c0,0.583-0.291,0.99-0.552,0.99s-0.552-0.407-0.552-0.99
		c0-0.583,0.291-0.99,0.552-0.99S41.757,54.636,41.757,55.219z"/>
	<path d="M58.471,27.243h-5.864H32.543h-8.604c-0.119,0-0.215,0.096-0.215,0.215v24.35v0.005v0.733v1.397V57.6v1.032v1.811v2.513
		v12.272v2.159v5.595c0,0.119,0.096,0.215,0.215,0.215h5.865h20.063h8.604c0.119,0,0.215-0.096,0.215-0.215V58.632v-0.006v-0.733
		v-1.397v-3.658v-1.031v-1.812v-2.512V35.211v-2.159v-5.595C58.686,27.339,58.591,27.243,58.471,27.243z M56.242,61.868
		c-0.102,0.123-0.195,0.257-0.301,0.375c-5.019-1.208-7.271-4.514-7.271-7.311c0-1.413,0.541-2.704,1.529-3.792
		c0.122,0.089,0.258,0.154,0.397,0.203c0.161,0.056,0.327,0.089,0.492,0.089c0.152,0,0.297-0.033,0.437-0.082
		c-0.101,0.208-0.182,0.429-0.244,0.663l-1.025-0.275c-0.271,0.341-0.498,0.7-0.676,1.076l1.009,0.271
		c0.149,1.24,0.766,2.371,1.759,3.316c-0.888-0.584-1.966-1.064-3.245-1.376c0.003,0.148,0.01,0.297,0.026,0.447
		c4.218,1.077,6.078,4.082,6.141,6.139c0.142,0.043,0.286,0.084,0.433,0.123c0.001-1.314-0.691-3.015-2.197-4.426
		c1.218,0.793,2.765,1.378,4.546,1.688C57.551,60.063,56.943,61.023,56.242,61.868z M51.039,69.227
		c-1.056-0.052-2.404,0.8-2.876,2.364c-0.301,1.002-0.709,1.69-1.214,2.045c-0.001,0.001-0.001,0.001-0.002,0.002
		c0,0-0.001,0-0.001,0c-0.879,0.642-2.248,1.099-3.779,1.39c-0.306-3.273,0.723-8.035,4.956-8.723
		c0.448-0.073,0.856-0.105,1.227-0.105c1.384,0,2.245,0.448,2.753,0.875c0.616,0.521,0.988,1.254,0.994,1.962
		c0.011,1.167-0.468,1.813-0.986,1.975c0.129-0.202,0.194-0.461,0.154-0.703C52.159,69.674,51.701,69.27,51.039,69.227z
		 M26.168,48.57c0.102-0.123,0.195-0.257,0.301-0.375c5.019,1.209,7.27,4.514,7.27,7.311c0,0.787-0.169,1.535-0.488,2.233
		l-0.424-0.114l-1.009-0.271c-0.149-1.24-0.765-2.37-1.758-3.314c0.888,0.583,1.965,1.063,3.243,1.375
		c-0.003-0.148-0.01-0.297-0.026-0.447c-4.218-1.078-6.079-4.083-6.14-6.139c-0.142-0.043-0.286-0.084-0.433-0.123
		c-0.001,1.314,0.689,3.014,2.195,4.425c-1.217-0.792-2.763-1.377-4.544-1.687C24.859,50.375,25.467,49.415,26.168,48.57z
		 M31.372,41.211c1.035,0.059,2.404-0.798,2.876-2.364c0.301-1.003,0.709-1.691,1.213-2.045c0.001-0.001,0.001-0.001,0.002-0.002
		c0,0,0.001,0,0.001,0c0.88-0.642,2.248-1.098,3.779-1.39c0.306,3.272-0.724,8.034-4.956,8.723c-2.122,0.347-3.336-0.227-3.979-0.77
		c-0.617-0.521-0.989-1.254-0.996-1.963c-0.011-1.167,0.468-1.813,0.986-1.975c-0.129,0.203-0.193,0.461-0.152,0.703
		C30.252,40.764,30.71,41.169,31.372,41.211z M58.257,52.624h-0.201c-0.07-0.976-0.362-1.757-0.87-2.3
		c0.095,0,0.19-0.001,0.285-0.004c0.285,0.487,0.552,0.993,0.786,1.532V52.624z M53.494,61.881c0.481,0,0.871,0.39,0.871,0.871
		c0,0.481-0.39,0.871-0.871,0.871c-0.48,0-0.87-0.39-0.87-0.871C52.624,62.271,53.014,61.881,53.494,61.881z M51.974,61.588
		c0,0.481-0.39,0.871-0.87,0.871c-0.481,0-0.87-0.39-0.87-0.871c0-0.481,0.389-0.871,0.87-0.871
		C51.584,60.717,51.974,61.107,51.974,61.588z M49.093,60.676c-0.481,0-0.87-0.39-0.87-0.871c0-0.481,0.389-0.871,0.87-0.871
		c0.48,0,0.87,0.39,0.87,0.871C49.964,60.286,49.574,60.676,49.093,60.676z M43.734,76.484c0,0.406-0.33,0.736-0.735,0.736
		c-0.407,0-0.736-0.33-0.736-0.736c0-0.406,0.328-0.735,0.736-0.735C43.404,75.749,43.734,76.079,43.734,76.484z M41.022,79.072
		c0.009,0.293-0.212,0.536-0.493,0.544c-0.282,0.008-0.516-0.223-0.524-0.516c-0.008-0.293,0.213-0.537,0.495-0.545
		C40.78,78.548,41.015,78.779,41.022,79.072z M39.565,77.556c-0.406,0-0.736-0.329-0.736-0.736c0-0.406,0.33-0.735,0.736-0.735
		s0.736,0.329,0.736,0.735C40.301,77.227,39.972,77.556,39.565,77.556z M33.707,78.363c0.127-0.263,0.435-0.38,0.688-0.258
		c0.253,0.121,0.357,0.434,0.23,0.698c-0.127,0.264-0.435,0.379-0.689,0.258C33.683,78.94,33.58,78.628,33.707,78.363z
		 M36.24,75.963c0.406,0,0.736,0.329,0.736,0.735c0,0.406-0.33,0.735-0.736,0.735s-0.736-0.33-0.736-0.735
		C35.505,76.292,35.834,75.963,36.24,75.963z M37.724,79.202c-0.055,0.288-0.323,0.48-0.598,0.428
		c-0.276-0.051-0.457-0.325-0.404-0.614c0.054-0.288,0.321-0.481,0.598-0.429C37.596,78.639,37.777,78.914,37.724,79.202z
		 M44.189,78.655c0.035,0.29-0.161,0.554-0.439,0.588c-0.279,0.034-0.535-0.173-0.57-0.463c-0.035-0.291,0.161-0.554,0.439-0.589
		C43.897,78.156,44.153,78.364,44.189,78.655z M46.57,77.386c0.271-0.068,0.55,0.108,0.621,0.392
		c0.071,0.285-0.094,0.57-0.365,0.637c-0.273,0.068-0.551-0.108-0.622-0.392C46.132,77.739,46.297,77.454,46.57,77.386z
		 M24.153,57.815h0.202c0.07,0.975,0.362,1.756,0.868,2.299c-0.095,0-0.191,0.001-0.286,0.004c-0.284-0.487-0.551-0.992-0.785-1.531
		V57.815z M24.154,51.854l0.006-0.014c2.351,0.389,4.26,1.278,5.538,2.471c-0.583-0.373-1.3-0.583-2.11-0.583
		c-0.786,0-1.444,0.193-1.959,0.557c-0.459-0.194-0.947-0.368-1.477-0.509L24.154,51.854z M28.914,48.557
		c-0.48,0-0.87-0.39-0.87-0.871c0-0.48,0.39-0.871,0.87-0.871c0.481,0,0.872,0.39,0.872,0.871
		C29.785,48.167,29.395,48.557,28.914,48.557z M30.437,48.85c0-0.481,0.389-0.871,0.87-0.871c0.481,0,0.87,0.39,0.87,0.871
		c0,0.481-0.389,0.871-0.87,0.871C30.826,49.721,30.437,49.331,30.437,48.85z M33.316,49.762c0.482,0,0.871,0.39,0.871,0.871
		c0,0.481-0.389,0.871-0.871,0.871c-0.48,0-0.869-0.39-0.869-0.871C32.447,50.152,32.836,49.762,33.316,49.762z M38.222,31.784
		c-0.036-0.291,0.161-0.554,0.439-0.588c0.278-0.035,0.534,0.172,0.569,0.463c0.035,0.291-0.16,0.555-0.438,0.589
		C38.513,32.282,38.257,32.074,38.222,31.784z M38.676,33.954c0-0.406,0.33-0.735,0.736-0.735c0.406,0,0.736,0.329,0.736,0.735
		c0,0.406-0.33,0.735-0.736,0.735C39.005,34.689,38.676,34.36,38.676,33.954z M42.845,32.882c0.405,0,0.735,0.329,0.735,0.736
		c0,0.406-0.33,0.735-0.735,0.735c-0.407,0-0.737-0.329-0.737-0.735C42.108,33.212,42.438,32.882,42.845,32.882z M48.702,32.075
		c-0.127,0.264-0.435,0.38-0.688,0.258c-0.253-0.121-0.356-0.434-0.23-0.698c0.128-0.264,0.436-0.379,0.688-0.258
		C48.726,31.499,48.829,31.81,48.702,32.075z M46.17,34.476c-0.407,0-0.737-0.329-0.737-0.735c0-0.406,0.33-0.736,0.737-0.736
		c0.405,0,0.735,0.33,0.735,0.736C46.905,34.146,46.575,34.476,46.17,34.476z M44.686,31.236c0.054-0.288,0.322-0.479,0.597-0.429
		c0.276,0.051,0.457,0.326,0.404,0.614c-0.054,0.288-0.319,0.48-0.597,0.429C44.814,31.8,44.632,31.524,44.686,31.236z
		 M41.91,31.882c-0.281,0.007-0.514-0.224-0.522-0.516c-0.008-0.292,0.212-0.536,0.493-0.544c0.282-0.008,0.516,0.223,0.524,0.516
		C42.411,31.631,42.19,31.875,41.91,31.882z M35.84,33.052c-0.271,0.068-0.551-0.108-0.622-0.392
		c-0.071-0.285,0.094-0.57,0.365-0.637c0.274-0.068,0.552,0.107,0.622,0.392C36.276,32.699,36.114,32.985,35.84,33.052z
		 M52.715,44.792c0.065-0.175,0.108-0.35,0.151-0.525c0.103,0.998,0.174,2.008,0.216,3.006c-0.446,0.031-1.006-0.025-1.66-0.179
		c-0.075-0.02-0.162,0.008-0.214,0.072c-0.052,0.063-0.064,0.149-0.032,0.224c0.174,0.398,0.25,0.744,0.247,1.035
		c-0.678,0.095-1.26,0.323-1.564,0.776c-0.47-0.141-0.99-0.428-1.494-0.862C51.251,47.475,52.324,45.842,52.715,44.792z
		 M42.745,52.657c-0.868,0.397-1.346-0.186-1.346-0.729c0-0.219,0.137-0.522,0.358-0.787c0.111,0.019,0.223,0.036,0.336,0.036
		c0.199,0,0.401-0.04,0.604-0.099C42.432,51.536,42.453,52.194,42.745,52.657z M45.61,62.671c-0.01,0.073,0.02,0.146,0.077,0.193
		s0.136,0.06,0.205,0.037c1.934-0.656,2.711-0.314,3.003-0.053c0.354,0.318,0.316,0.783,0.262,1.032
		c-0.114,0.515-0.539,1.134-1.202,1.495c-0.062-0.11-0.11-0.228-0.18-0.334c-1.641-2.5-5.203-3.719-10.04-3.493
		c1.073-1.556,2.171-1.982,2.902-1.823c0.665,0.145,1.11,0.764,1.191,1.657c0.008,0.084,0.063,0.156,0.144,0.184
		c0.082,0.029,0.169,0.006,0.227-0.056c0.974-1.036,1.962-1.459,2.644-1.138C45.458,60.662,45.752,61.543,45.61,62.671z
		 M39.665,57.782c0.868-0.397,1.347,0.186,1.347,0.729c0,0.22-0.137,0.523-0.359,0.788c-0.305-0.054-0.618-0.035-0.935,0.056
		C39.977,58.897,39.955,58.242,39.665,57.782z M36.8,47.767c0.01-0.073-0.02-0.146-0.077-0.193
		c-0.059-0.047-0.137-0.061-0.205-0.037c-1.931,0.655-2.71,0.313-3.004,0.053c-0.354-0.318-0.316-0.783-0.262-1.032
		c0.114-0.515,0.538-1.135,1.202-1.496c0.062,0.11,0.11,0.228,0.18,0.334c1.514,2.307,4.647,3.538,8.924,3.537
		c0.358,0,0.74-0.025,1.114-0.042c-1.073,1.554-2.175,1.978-2.899,1.822c-0.666-0.144-1.111-0.764-1.193-1.657
		c-0.008-0.084-0.063-0.156-0.144-0.184c-0.023-0.008-0.047-0.012-0.07-0.012c-0.059,0-0.115,0.023-0.157,0.068
		c-0.97,1.035-1.955,1.458-2.642,1.138C36.952,49.776,36.658,48.896,36.8,47.767z M42.53,55.219c0,1.196-0.607,2.207-1.325,2.207
		s-1.325-1.011-1.325-2.207s0.607-2.206,1.325-2.206S42.53,54.023,42.53,55.219z M41.012,51.927c0,0.544-0.479,1.127-1.347,0.729
		c0.414-0.655,0.295-1.714-0.429-2.023C40.197,50.312,41.012,51.384,41.012,51.927z M39.503,54.59
		c-0.032,0.202-0.054,0.41-0.054,0.629c0,0.219,0.022,0.427,0.054,0.63h-1.221V54.59H39.503z M39.031,56.923
		c0.063,0,0.124,0.028,0.165,0.077c0.04,0.048,0.058,0.112,0.047,0.175c-0.104,0.598-0.375,1.77-1.006,3.108
		c-0.356,0.346-0.699,0.779-1.024,1.285c-0.061,0.004-0.117,0.002-0.179,0.007c-0.006,0-0.011,0.001-0.017,0.002
		c-0.938,0.07-1.757,0.205-2.476,0.384c-0.127-0.122-0.256-0.225-0.385-0.328c-0.116-0.093-0.232-0.181-0.348-0.259
		c1.993-1.748,2.587-3.647,2.741-4.319c0.025-0.106,0.112-0.173,0.234-0.166c0.034,0.004,0.066,0.016,0.094,0.034H39.031z
		 M29.695,65.647c-0.065,0.174-0.108,0.349-0.151,0.523c-0.103-0.997-0.174-2.006-0.215-3.004c0.445-0.03,1.004,0.025,1.66,0.179
		c0.073,0.017,0.161-0.009,0.214-0.072c0.053-0.063,0.064-0.149,0.032-0.224c-0.174-0.398-0.25-0.745-0.247-1.036
		c0.677-0.095,1.258-0.322,1.562-0.774c0.47,0.14,0.99,0.428,1.495,0.861C31.158,62.964,30.086,64.597,29.695,65.647z M32.21,59.298
		c-0.123-0.089-0.258-0.154-0.397-0.203c-0.309-0.107-0.638-0.104-0.932-0.001c0.103-0.21,0.185-0.433,0.247-0.67l1.024,0.275
		l0.452,0.121C32.482,58.984,32.351,59.143,32.21,59.298z M27.794,60.584c-0.18-0.01-0.367-0.063-0.424-0.251
		c-0.06-0.201,0.055-0.444,0.19-0.511c0.537-0.266,0.946-0.708,1.182-1.277c0.022-0.054,0.022-0.115-0.001-0.168
		c-0.186-0.427-0.094-1,0.218-1.364c0.259-0.302,0.623-0.408,1.019-0.305c0.121,0.03,0.232-0.04,0.263-0.153
		c0.03-0.115-0.039-0.232-0.153-0.263c-0.561-0.146-1.088,0.014-1.454,0.441c-0.398,0.465-0.524,1.161-0.321,1.725
		c-0.251,0.545-0.647,0.832-0.942,0.978c-0.337,0.167-0.525,0.634-0.411,1.02c0.006,0.019,0.023,0.053,0.035,0.081
		c-1.914-0.309-2.238-2.063-2.238-3.158c0-1.203,0.368-3.222,2.833-3.222c1.948,0,3.257,1.295,3.257,3.222
		C30.845,59.235,29.625,60.493,27.794,60.584z M30.12,60.112c-0.001,0.012-0.005,0.022-0.005,0.034
		c-0.014,0.003-0.03,0.003-0.045,0.007C30.086,60.138,30.105,60.126,30.12,60.112z M31.259,57.202
		c-0.008-0.2-0.018-0.398-0.052-0.585c0.063,0.202,0.125,0.404,0.159,0.614L31.259,57.202z M31.123,56.315
		c0.027,0.07,0.038,0.144,0.062,0.215C31.169,56.455,31.142,56.387,31.123,56.315z M35.287,56.125c-0.481,0-0.873-0.39-0.873-0.871
		s0.391-0.871,0.873-0.871c0.479,0,0.869,0.39,0.869,0.871S35.766,56.125,35.287,56.125z M34.801,53.669
		c-0.481,0-0.872-0.39-0.872-0.871c0-0.481,0.39-0.871,0.872-0.871c0.481,0,0.87,0.39,0.87,0.871
		C35.671,53.279,35.282,53.669,34.801,53.669z M25.783,60.561c0.492,0.301,1.092,0.469,1.805,0.469c0.076,0,0.145-0.016,0.219-0.019
		c0.018,0.001,0.028,0.008,0.046,0.008c0.067,0,0.141-0.004,0.219-0.014c0.015-0.002,0.023-0.016,0.036-0.02
		c0.364-0.043,0.709-0.12,1.023-0.249c0.434-0.042,0.861-0.112,1.252-0.215c0.098-0.026,0.165-0.117,0.16-0.218
		c-0.018-0.365,0.109-0.631,0.366-0.769c0.303-0.165,0.736-0.117,1.052,0.113c0.185,0.135,0.477,0.45,0.366,1.037
		c-0.257,1.345-3.303,0.931-4.447,0.775l-0.254-0.034c-0.914-0.077-1.935,0.008-2.792,0.233c-0.099,0.026-0.165,0.117-0.16,0.219
		c0.014,0.269-0.051,0.481-0.189,0.632c-0.085,0.093-0.199,0.16-0.332,0.197v-2.087C24.654,60.532,25.235,60.53,25.783,60.561z
		 M41.399,58.511c0-0.544,0.478-1.127,1.346-0.729c-0.414,0.656-0.294,1.714,0.43,2.023C42.213,60.126,41.399,59.055,41.399,58.511z
		 M42.906,55.848c0.032-0.202,0.054-0.411,0.054-0.63c0-0.219-0.022-0.427-0.054-0.629h1.22h0.001v1.259h-0.001H42.906z
		 M43.38,53.514c-0.063,0-0.124-0.028-0.164-0.077c-0.041-0.048-0.059-0.112-0.048-0.175c0.104-0.598,0.374-1.768,1.004-3.105
		c0.356-0.346,0.7-0.78,1.025-1.287c0.061-0.004,0.117-0.002,0.179-0.007c0.005,0,0.01-0.001,0.015-0.002
		c0.938-0.07,1.756-0.205,2.476-0.384c0.127,0.122,0.256,0.225,0.385,0.329c0.116,0.093,0.232,0.181,0.348,0.259
		c-1.992,1.748-2.587,3.646-2.742,4.318c-0.025,0.106-0.118,0.169-0.234,0.166c-0.035-0.004-0.067-0.017-0.095-0.035H43.38z
		 M47.124,54.313c0.481,0,0.872,0.39,0.872,0.871c0,0.48-0.39,0.87-0.872,0.87c-0.481,0-0.87-0.39-0.87-0.87
		C46.253,54.703,46.642,54.313,47.124,54.313z M47.608,56.769c0.481,0,0.872,0.39,0.872,0.871c0,0.482-0.39,0.871-0.872,0.871
		c-0.48,0-0.869-0.39-0.869-0.871C46.739,57.16,47.128,56.769,47.608,56.769z M52.289,50.327c0.001-0.012,0.005-0.022,0.006-0.035
		c0.015-0.003,0.031-0.004,0.046-0.007C52.324,50.3,52.305,50.312,52.289,50.327z M54.616,49.855c0.18,0.01,0.367,0.064,0.423,0.251
		c0.06,0.201-0.056,0.444-0.19,0.511c-0.538,0.265-0.947,0.707-1.183,1.277c-0.021,0.054-0.021,0.114,0.002,0.167
		c0.185,0.427,0.093,1.001-0.219,1.365c-0.259,0.301-0.621,0.41-1.018,0.305c-0.121-0.031-0.232,0.039-0.263,0.154
		s0.039,0.232,0.153,0.262c0.135,0.035,0.269,0.053,0.397,0.053c0.407,0,0.778-0.171,1.056-0.494
		c0.398-0.465,0.525-1.161,0.322-1.726c0.25-0.545,0.646-0.832,0.94-0.977c0.339-0.167,0.527-0.634,0.413-1.019
		c-0.006-0.021-0.016-0.049-0.03-0.081c1.91,0.311,2.233,2.063,2.233,3.158c0,1.203-0.368,3.222-2.833,3.222
		c-1.948,0-3.258-1.295-3.258-3.222C51.564,51.203,52.786,49.946,54.616,49.855z M51.15,53.236c0.008,0.199,0.018,0.398,0.052,0.584
		c-0.063-0.202-0.125-0.404-0.159-0.613L51.15,53.236z M51.287,54.123c-0.026-0.067-0.036-0.138-0.059-0.206
		C51.242,53.988,51.268,54.053,51.287,54.123z M58.25,58.599c-2.351-0.389-4.259-1.278-5.538-2.471
		c0.583,0.373,1.301,0.583,2.11,0.583c0.786,0,1.443-0.193,1.959-0.557c0.459,0.194,0.947,0.368,1.476,0.509v0.974v0.948
		L58.25,58.599z M56.628,49.878c-0.492-0.302-1.092-0.47-1.806-0.47c-0.058,0-0.109,0.013-0.166,0.015
		c-0.096-0.006-0.2-0.005-0.319,0.01c-0.015,0.002-0.023,0.016-0.038,0.021c-0.363,0.043-0.708,0.121-1.022,0.249
		c-0.434,0.042-0.861,0.111-1.251,0.214c-0.098,0.026-0.165,0.117-0.16,0.218c0.018,0.366-0.109,0.632-0.366,0.77
		c-0.305,0.163-0.737,0.117-1.051-0.113c-0.185-0.135-0.478-0.45-0.367-1.037c0.144-0.761,1.182-0.959,2.263-0.959
		c0.831,0,1.688,0.116,2.186,0.184l0.253,0.034c0.919,0.075,1.938-0.009,2.793-0.233c0.099-0.026,0.165-0.117,0.16-0.219
		c-0.014-0.269,0.051-0.482,0.189-0.633c0.085-0.092,0.199-0.159,0.331-0.196v2.088C57.756,49.907,57.177,49.909,56.628,49.878z
		 M56.052,48.589c-0.276,0.019-0.546,0.006-0.817-0.003c-0.135-0.004-0.276,0.01-0.408-0.001l-0.239-0.032
		c-0.069-0.009-0.146-0.02-0.223-0.03c-0.241-0.032-0.52-0.066-0.82-0.096c-0.087-5.407-1.334-12.508-3.013-14.791
		c2.182-1.09,3.644-2.995,4.267-4.643c0.597,1.604,1.869,3.153,3.458,4.177v1.998C57.034,38.166,56.107,43.849,56.052,48.589z
		 M52.312,44.642c-0.469,1.258-1.997,3.424-6.968,3.793c-5.036,0.374-8.719-0.789-10.351-3.275c-0.139-0.212-0.25-0.439-0.358-0.667
		c4.294-0.903,5.356-5.79,5.035-9.154c3.348-0.56,7.31-0.365,8.702,0.419c0.657,0.608,1.252,1.356,1.721,2.166
		c0.134,0.232,0.234,0.463,0.342,0.708c0.242,0.555,0.493,1.13,1.146,1.784C52.416,41.251,52.933,42.971,52.312,44.642z
		 M48.808,32.979c0.105-0.106,0.198-0.231,0.285-0.364c-0.051,0.142-0.106,0.279-0.154,0.423
		C48.895,33.018,48.854,32.998,48.808,32.979z M35.287,33.904c-0.107,0.058-0.205,0.12-0.305,0.182
		c-0.065-0.29-0.131-0.573-0.196-0.854C34.916,33.517,35.088,33.742,35.287,33.904z M32.134,44.757
		c0.046-0.011,0.088-0.03,0.134-0.041l1.907-0.001c-0.001,0.001-0.002,0.001-0.003,0.002l-1.121,0
		c0.223,0.116,0.43,0.241,0.638,0.366c-0.111,0.101-0.211,0.206-0.305,0.321c-0.261,0.32-0.467,0.679-0.552,1.061
		c-0.127,0.58,0.017,1.106,0.396,1.445c0.417,0.375,1.295,0.688,3.115,0.135c-0.072,1.176,0.307,2.064,1.041,2.41
		c0.183,0.086,0.378,0.13,0.582,0.142c0.148,0.008,0.301-0.003,0.458-0.033c0.5,1.165,0.725,2.161,0.818,2.698
		c0.011,0.063-0.007,0.127-0.047,0.175c-0.041,0.049-0.102,0.077-0.165,0.077h-2.164c-0.024,0.018-0.053,0.03-0.082,0.033
		c-0.106,0.015-0.209-0.023-0.233-0.131c-0.586-2.523-3.012-5.678-8.068-7.002L28.46,46.43c0.165-0.116,0.339-0.215,0.51-0.321
		C29.944,45.502,31,45.04,32.134,44.757z M27.442,47.228c0.021-0.019,0.043-0.038,0.064-0.057
		C27.485,47.19,27.464,47.209,27.442,47.228z M24.153,75.27c1.223-2.996,2.149-8.678,2.203-13.419
		c0.276-0.02,0.546-0.006,0.817,0.002c0.135,0.004,0.277-0.01,0.408,0.001l0.24,0.032c0.069,0.009,0.145,0.02,0.222,0.03
		c0.241,0.032,0.52,0.066,0.822,0.095c0.087,5.407,1.333,12.508,3.011,14.792c-2.181,1.09-3.642,2.995-4.266,4.644
		c-0.597-1.604-1.869-3.154-3.458-4.178V75.27z M30.097,65.796c0.469-1.258,1.996-3.424,6.969-3.792
		c0.619-0.046,1.218-0.069,1.794-0.069c4.12,0,7.124,1.163,8.556,3.343c0.139,0.212,0.251,0.439,0.358,0.668
		c-4.294,0.902-5.357,5.79-5.036,9.155c-3.348,0.561-7.31,0.365-8.702-0.42c-0.667-0.619-1.246-1.347-1.72-2.166
		c-0.136-0.233-0.237-0.466-0.345-0.712c-0.242-0.555-0.493-1.127-1.144-1.78C29.995,69.188,29.476,67.467,30.097,65.796z
		 M33.6,77.465c-0.098,0.1-0.192,0.209-0.275,0.336c0.048-0.133,0.1-0.261,0.145-0.397C33.514,77.424,33.553,77.446,33.6,77.465z
		 M47.22,76.597c-0.03-0.029-0.062-0.049-0.093-0.074c0.103-0.056,0.203-0.115,0.299-0.174c0.067,0.298,0.135,0.59,0.202,0.878
		C47.52,76.985,47.39,76.761,47.22,76.597z M50.276,65.681c-0.046,0.012-0.089,0.03-0.136,0.041l-1.908,0.001
		c0.001-0.001,0.002-0.001,0.003-0.001l1.124,0c-0.224-0.116-0.431-0.242-0.639-0.367c0.111-0.101,0.211-0.206,0.305-0.321
		c0.261-0.32,0.468-0.678,0.552-1.06c0.127-0.58-0.017-1.106-0.395-1.445c-0.419-0.375-1.298-0.687-3.115-0.135
		c0.071-1.176-0.307-2.065-1.041-2.41c-0.183-0.087-0.379-0.131-0.583-0.143c-0.148-0.009-0.301,0.003-0.458,0.033
		c-0.5-1.165-0.725-2.161-0.818-2.698c-0.011-0.063,0.007-0.127,0.047-0.175c0.041-0.049,0.102-0.077,0.165-0.077h2.166
		c0.024-0.018,0.052-0.029,0.081-0.033c0.113-0.012,0.209,0.026,0.234,0.132c0.581,2.522,3.005,5.677,8.066,7.002l0.017-0.012
		c-0.163,0.114-0.336,0.213-0.505,0.318C52.465,64.936,51.409,65.398,50.276,65.681z M54.965,63.212
		c-0.019,0.017-0.039,0.034-0.058,0.051C54.927,63.247,54.946,63.229,54.965,63.212z M49.458,31.687
		c0.098-0.602-0.077-1.132-0.496-1.333c-0.286-0.138-0.631-0.096-0.968,0.119c-0.306,0.194-0.576,0.513-0.761,0.898
		c-0.001,0-0.001,0-0.001,0c-0.181,0.379-0.259,0.783-0.222,1.139c-0.337-0.055-0.697-0.099-1.073-0.134
		c0.157-0.235,0.289-0.512,0.351-0.843c0.168-0.918-0.183-1.727-0.8-1.84c-0.616-0.113-1.232,0.514-1.404,1.432l-0.001,0
		c-0.079,0.43-0.04,0.832,0.083,1.154c-0.441-0.007-0.893-0.002-1.35,0.013c0.129-0.286,0.208-0.615,0.198-0.971
		c-0.012-0.427-0.128-0.829-0.328-1.131c-0.221-0.333-0.527-0.521-0.836-0.503c-0.318,0.009-0.605,0.203-0.809,0.548
		c-0.184,0.313-0.277,0.72-0.266,1.147c0.011,0.395,0.113,0.747,0.27,1.025c-0.443,0.044-0.881,0.101-1.314,0.168
		c0.102-0.298,0.15-0.637,0.106-0.992c-0.068-0.555-0.313-1.046-0.656-1.313c-0.207-0.161-0.435-0.227-0.66-0.202
		c-0.227,0.028-0.431,0.151-0.591,0.357c-0.267,0.342-0.385,0.877-0.316,1.433c0.05,0.404,0.198,0.769,0.409,1.047
		c-0.415,0.101-0.809,0.219-1.188,0.345c0.058-0.293,0.052-0.632-0.036-0.983c-0.103-0.415-0.303-0.782-0.563-1.034
		c-0.287-0.278-0.619-0.389-0.925-0.312c-0.485,0.121-0.77,0.674-0.753,1.353c-0.459-1.87-0.946-3.476-1.62-4.602h19.145
		C51.004,28.78,50.131,30.126,49.458,31.687z M24.45,60.149c-0.102,0.01-0.2,0.025-0.297,0.04v-0.635
		C24.253,59.751,24.343,59.959,24.45,60.149z M24.153,63.125c0.253-0.049,0.485-0.146,0.648-0.324
		c0.183-0.198,0.285-0.46,0.303-0.766c0.183-0.043,0.385-0.057,0.579-0.087c0.073,0.091,0.144,0.185,0.22,0.273
		c0.006,0.007,0.012,0.015,0.018,0.022c0,0.005,0,0.01,0,0.015c-0.088,4.066-0.798,8.729-1.767,11.739V63.125z M32.96,78.731
		c-0.051,0.299-0.045,0.588,0.04,0.829c0.087,0.246,0.241,0.427,0.446,0.525c0.11,0.053,0.229,0.08,0.354,0.08
		c0.197,0,0.406-0.066,0.613-0.198c0.306-0.194,0.576-0.513,0.761-0.898c0.001,0,0.001,0,0.001,0c0.18-0.378,0.258-0.78,0.223-1.136
		c0.33,0.053,0.684,0.095,1.052,0.131c-0.151,0.233-0.268,0.518-0.329,0.843c-0.102,0.551-0.015,1.093,0.231,1.45
		c0.147,0.215,0.345,0.35,0.567,0.391c0.049,0.009,0.098,0.014,0.146,0.014c0.177,0,0.356-0.06,0.524-0.175
		c0.357-0.246,0.631-0.721,0.732-1.271c0.076-0.412,0.046-0.82-0.081-1.154c0.143,0.002,0.283,0.007,0.428,0.007
		c0.296,0,0.599-0.011,0.902-0.021c-0.121,0.275-0.189,0.608-0.179,0.972c0.027,0.922,0.527,1.633,1.145,1.633
		c0.007,0,0.015,0,0.021,0c0.628-0.017,1.1-0.762,1.074-1.695c-0.01-0.384-0.117-0.736-0.281-1.025
		c0.446-0.044,0.888-0.101,1.325-0.168c-0.102,0.298-0.15,0.636-0.107,0.992c0.108,0.877,0.633,1.521,1.22,1.521
		c0.032,0,0.064-0.002,0.097-0.006c0.623-0.078,1.021-0.864,0.907-1.79c-0.051-0.407-0.199-0.776-0.413-1.054
		c0.422-0.103,0.828-0.218,1.213-0.347c-0.064,0.307-0.071,0.647,0.015,0.992c0.135,0.543,0.437,1,0.808,1.224
		c0.16,0.096,0.326,0.145,0.488,0.145c0.064,0,0.129-0.008,0.192-0.024c0.31-0.077,0.548-0.329,0.671-0.708
		c0.067-0.206,0.082-0.441,0.073-0.683c0.462,1.887,0.951,3.507,1.63,4.642H30.329C31.411,81.654,32.286,80.301,32.96,78.731z
		 M57.958,50.289c0.102-0.01,0.2-0.024,0.298-0.04v0.636C58.156,50.687,58.066,50.48,57.958,50.289z M58.257,47.313
		c-0.253,0.048-0.484,0.146-0.647,0.323c-0.183,0.198-0.285,0.46-0.303,0.767c-0.183,0.043-0.386,0.057-0.58,0.088
		c-0.073-0.091-0.144-0.184-0.219-0.273c-0.006-0.008-0.012-0.016-0.019-0.024c0-0.005,0-0.01,0-0.016
		c0.088-4.065,0.798-8.727,1.768-11.738V47.313z M58.257,32.643c-1.603-1.112-2.835-2.77-3.247-4.419
		c-0.024-0.096-0.11-0.163-0.209-0.163s-0.185,0.067-0.209,0.163c-0.433,1.731-1.988,3.992-4.486,5.141
		c-0.062,0.028-0.106,0.084-0.12,0.15c-0.015,0.067,0.004,0.136,0.049,0.187c0.905,1.03,1.764,3.773,2.346,7.071
		c-0.149-0.249-0.311-0.478-0.493-0.661c-0.597-0.597-0.831-1.133-1.057-1.652c-0.107-0.245-0.218-0.498-0.363-0.751
		c-0.472-0.817-1.072-1.567-1.73-2.191c0.072-0.361,0.151-0.715,0.238-1.06c0.064-0.25,0.138-0.494,0.211-0.738
		c0.74-2.491,1.914-4.523,3.514-6.046h5.558V32.643z M32.421,27.672c1.013,1.522,1.644,4.287,2.304,7.228l0.05,0.222
		c0.106,0.47,0.214,0.949,0.324,1.43c-0.535,0.429-0.952,1.134-1.263,2.171c-0.395,1.313-1.48,2.062-2.344,2.062
		c-0.031,0-0.062-0.001-0.093-0.002c-0.268-0.018-0.731-0.134-0.829-0.725c-0.041-0.239,0.121-0.52,0.275-0.563
		c0.04-0.012,0.086-0.003,0.133,0.026c0.028,0.02,0.055,0.043,0.08,0.067c0.082,0.087,0.165,0.229,0.238,0.415
		c0.042,0.107,0.162,0.165,0.271,0.125c0.108-0.037,0.169-0.154,0.136-0.264c-0.186-0.626-0.721-0.984-1.333-0.893
		c-0.751,0.112-1.502,0.909-1.487,2.435c0.007,0.833,0.437,1.688,1.148,2.288c0.354,0.299,0.885,0.592,1.586,0.78
		c-1.2,0.35-2.323,0.863-3.335,1.558c-0.378,0.26-0.743,0.541-1.091,0.846c-0.002,0.002-0.004,0.004-0.007,0.006
		c-0.473,0.415-0.906,0.886-1.32,1.38c-0.652,0.781-1.224,1.658-1.712,2.623V27.672H32.421z M24.153,77.796
		c1.603,1.112,2.835,2.77,3.247,4.419c0.024,0.096,0.11,0.163,0.209,0.163s0.185-0.067,0.209-0.163
		c0.434-1.731,1.989-3.992,4.485-5.141c0.062-0.028,0.106-0.084,0.12-0.15c0.015-0.066-0.004-0.136-0.049-0.187
		c-0.904-1.03-1.763-3.773-2.345-7.072c0.149,0.25,0.312,0.479,0.494,0.661c0.594,0.595,0.828,1.131,1.054,1.648
		c0.108,0.247,0.22,0.501,0.366,0.755c0.477,0.826,1.062,1.558,1.729,2.191c-0.072,0.361-0.151,0.714-0.238,1.059
		c-0.06,0.236-0.13,0.465-0.198,0.696c-0.74,2.513-1.917,4.559-3.525,6.09h-5.559V77.796z M49.989,82.766
		c-1.025-1.539-1.657-4.346-2.325-7.322c-0.115-0.512-0.232-1.033-0.353-1.558c0.535-0.43,0.953-1.134,1.264-2.171
		c0.409-1.36,1.566-2.107,2.436-2.059c0.269,0.017,0.732,0.134,0.83,0.723c0.039,0.24-0.123,0.521-0.277,0.564
		c-0.042,0.013-0.085,0.002-0.13-0.025c-0.029-0.021-0.058-0.044-0.084-0.07c-0.081-0.087-0.164-0.229-0.236-0.414
		c-0.042-0.107-0.16-0.162-0.271-0.125c-0.108,0.037-0.169,0.154-0.136,0.264c0.186,0.626,0.723,0.989,1.333,0.894
		c0.75-0.112,1.501-0.909,1.486-2.435c-0.007-0.832-0.436-1.687-1.146-2.287c-0.353-0.297-0.858-0.603-1.555-0.791
		c1.184-0.349,2.293-0.856,3.293-1.541c0.899-0.616,1.705-1.375,2.426-2.238c0.653-0.781,1.225-1.658,1.712-2.623v23.213H49.989z"/>
	<path class="st0" d="M40.006,79.101c0.008,0.293,0.242,0.523,0.524,0.516c0.281-0.008,0.502-0.252,0.493-0.544
		c-0.007-0.293-0.242-0.524-0.521-0.516C40.219,78.564,39.998,78.808,40.006,79.101z"/>
	<path class="st0" d="M43.179,78.779c0.035,0.291,0.291,0.498,0.57,0.463c0.278-0.034,0.474-0.298,0.439-0.588
		c-0.035-0.291-0.292-0.499-0.57-0.464C43.34,78.225,43.144,78.489,43.179,78.779z"/>
	<path class="st0" d="M46.826,78.415c0.271-0.067,0.436-0.353,0.365-0.637c-0.071-0.284-0.349-0.46-0.621-0.392
		c-0.274,0.068-0.438,0.353-0.366,0.637C46.275,78.308,46.553,78.483,46.826,78.415z"/>
	<path class="st0" d="M36.723,79.017c-0.054,0.288,0.128,0.563,0.404,0.614c0.275,0.051,0.543-0.14,0.598-0.428
		c0.052-0.288-0.129-0.564-0.404-0.614C37.044,78.536,36.777,78.729,36.723,79.017z"/>
	<path class="st0" d="M33.936,79.062c0.254,0.121,0.562,0.006,0.689-0.258c0.127-0.264,0.023-0.577-0.23-0.698
		c-0.253-0.122-0.561-0.005-0.688,0.258C33.58,78.628,33.683,78.94,33.936,79.062z"/>
	<path class="st1" d="M40.301,76.82c0-0.406-0.33-0.735-0.736-0.735s-0.736,0.329-0.736,0.735c0,0.406,0.33,0.736,0.736,0.736
		S40.301,77.227,40.301,76.82z"/>
	<path class="st1" d="M42.999,75.749c-0.407,0-0.736,0.329-0.736,0.735c0,0.406,0.328,0.736,0.736,0.736
		c0.405,0,0.735-0.33,0.735-0.736C43.734,76.079,43.404,75.749,42.999,75.749z"/>
	<path class="st1" d="M36.24,77.433c0.406,0,0.736-0.33,0.736-0.735c0-0.406-0.33-0.735-0.736-0.735s-0.736,0.329-0.736,0.735
		C35.505,77.104,35.834,77.433,36.24,77.433z"/>
	<path class="st5" d="M22.035,30.356l-1.494-3.145l0.672-0.982c0.645-0.954,0.978-1.254,1.459-1.309v-0.236h-1.874v0.236
		c0.374,0.036,0.503,0.136,0.503,0.391c0,0.218-0.122,0.482-0.421,0.927l-1.405,2.1v-2.472c0-0.827,0.054-0.918,0.584-0.945v-0.236
		h-2.051v0.236c0.529,0.027,0.584,0.118,0.584,0.945v4.436c0,0.836-0.055,0.918-0.611,0.945v0.236h2.105v-0.236
		c-0.557-0.027-0.611-0.109-0.611-0.945v-1.509l0.475-0.718l1.134,2.527c0.279,0.609,0.279,0.609,0.367,0.882h1.426v-0.227
		C22.551,31.21,22.327,30.974,22.035,30.356z"/>
	<path d="M63.039,72.991c-0.234,0.11-0.408,0.293-0.511,0.509c0,0.003-0.002,0.006-0.003,0.008l-0.221,0.453v-0.51
		c0-0.482,0.237-1.501,0.801-1.72h-1.802c0.565,0.219,0.802,1.239,0.802,1.72v0.51l-0.222-0.453c0-0.002-0.002-0.005-0.002-0.008
		h-0.001c-0.103-0.215-0.277-0.399-0.509-0.509c-0.536-0.254-1.178-0.026-1.432,0.51c-0.253,0.536-0.025,1.177,0.511,1.43
		c0.232,0.11,0.485,0.129,0.715,0.072h0.001c0.002-0.001,0.006-0.001,0.008-0.001l0.565-0.132l-0.362,0.454
		c-0.001,0.002-0.002,0.004-0.003,0.006l-0.001,0c-0.151,0.186-0.242,0.421-0.242,0.678c0,0.593,0.481,1.074,1.075,1.074
		c0.592,0,1.073-0.481,1.073-1.074c0-0.257-0.091-0.493-0.241-0.678l-0.002,0c-0.001-0.002-0.003-0.004-0.006-0.006l-0.36-0.454
		l0.566,0.132c0.002,0,0.006,0,0.008,0.001h0.001c0.23,0.057,0.483,0.038,0.715-0.072c0.536-0.254,0.764-0.894,0.51-1.43
		C64.215,72.965,63.574,72.737,63.039,72.991z"/>
	<path class="st5" d="M62.362,79.121c0.557,0.027,0.611,0.109,0.611,0.945v1.509l-0.475,0.718l-1.134-2.527
		c-0.279-0.609-0.279-0.609-0.367-0.881h-1.426v0.227c0.326,0.046,0.55,0.282,0.842,0.9l1.494,3.145l-0.672,0.982
		c-0.645,0.954-0.978,1.255-1.459,1.309v0.236h1.874v-0.236c-0.374-0.036-0.503-0.136-0.503-0.391c0-0.218,0.122-0.482,0.421-0.927
		l1.405-2.1v2.472c0,0.827-0.054,0.918-0.584,0.945v0.236h2.051v-0.236c-0.529-0.027-0.584-0.118-0.584-0.945v-4.436
		c0-0.836,0.055-0.918,0.611-0.945v-0.236h-2.105V79.121z"/>
</g>
</svg>
