<?xml version="1.0" encoding="utf-8"?>
<!-- Generator: Adobe Illustrator 23.0.2, SVG Export Plug-In . SVG Version: 6.00 Build 0)  -->
<svg version="1.1" id="Layer_1" xmlns="http://www.w3.org/2000/svg" xmlns:xlink="http://www.w3.org/1999/xlink" x="0px" y="0px"
	 viewBox="0 0 82.452 99.776" style="enable-background:new 0 0 82.452 99.776;" xml:space="preserve">
<style type="text/css">
	.st0{fill:#FFFFFF;}
	.st1{fill:#ED1C24;}
	.st2{fill:#FFCB05;}
	.st3{fill:#21409A;}
	.st4{fill:#D4D5D6;}
	.st5{fill:#000100;}
	.st6{fill:#300505;}
	.st7{fill:#BFD730;}
	.st8{fill:#F15A22;}
</style>
<g>
	<path class="st0" d="M49.196,31.487c-0.078,0.26-0.156,0.52-0.224,0.786c-0.086,0.342-0.165,0.693-0.236,1.051
		c0.667,0.632,1.253,1.365,1.73,2.192c0.146,0.253,0.256,0.506,0.362,0.751c0.227,0.519,0.461,1.056,1.058,1.652
		c0.182,0.182,0.345,0.411,0.493,0.66c-0.582-3.298-1.441-6.041-2.346-7.071c-0.045-0.051-0.063-0.12-0.049-0.187
		c0.014-0.067,0.059-0.123,0.12-0.151c2.498-1.149,4.054-3.41,4.486-5.14c0.024-0.096,0.11-0.163,0.209-0.163
		s0.185,0.067,0.209,0.163c0.412,1.649,1.644,3.308,3.247,4.419v-4.97h-5.558C51.107,26.995,49.937,29.013,49.196,31.487z"/>
	<path class="st0" d="M25.866,46.07c0.008-0.027,0.018-0.055,0.037-0.077c0.102-0.121,0.205-0.235,0.311-0.351l0.163-0.18
		c0.1-0.105,0.203-0.207,0.308-0.308l0.251-0.243c0.108-0.099,0.217-0.193,0.324-0.286c0.096-0.082,0.178-0.152,0.264-0.222
		c0.104-0.083,0.207-0.165,0.313-0.244c0.101-0.075,0.199-0.147,0.301-0.219l0.156-0.108c1.009-0.692,2.129-1.202,3.325-1.551
		c-0.701-0.188-1.231-0.482-1.586-0.781c-0.712-0.6-1.142-1.455-1.148-2.287c-0.015-1.526,0.736-2.322,1.487-2.435
		c0.612-0.089,1.147,0.268,1.333,0.893c0.033,0.11-0.027,0.227-0.136,0.264c-0.108,0.039-0.229-0.017-0.271-0.125
		c-0.073-0.186-0.156-0.328-0.238-0.415c-0.025-0.024-0.052-0.047-0.08-0.067c-0.046-0.027-0.089-0.038-0.133-0.026
		c-0.154,0.043-0.316,0.324-0.275,0.563c0.098,0.591,0.562,0.708,0.83,0.725c0.879,0.055,2.026-0.699,2.436-2.059
		c0.311-1.037,0.729-1.741,1.263-2.17c-0.12-0.522-0.237-1.042-0.351-1.552c-0.668-2.979-1.302-5.788-2.327-7.328h-8.268v23.213
		C24.641,47.728,25.213,46.851,25.866,46.07z M28.895,26.057c0.471,1.642,2.371,4.218,3.913,5.097
		c-1.541,0.88-3.441,3.454-3.913,5.097c-0.471-1.643-2.371-4.217-3.914-5.097C26.524,30.274,28.424,27.699,28.895,26.057z"/>
	<path class="st0" d="M25.902,60.027c-0.075-0.088-0.146-0.181-0.218-0.272c-0.194,0.03-0.396,0.044-0.579,0.087
		c-0.018,0.307-0.12,0.569-0.303,0.767c-0.164,0.177-0.396,0.275-0.648,0.323v10.872c0.97-3.01,1.679-7.673,1.767-11.738
		C25.914,60.054,25.907,60.041,25.902,60.027z"/>
	<path class="st0" d="M33.248,74.449c0.064-0.217,0.13-0.432,0.186-0.653c0.088-0.347,0.168-0.704,0.24-1.067
		c-0.667-0.632-1.251-1.365-1.729-2.191c-0.146-0.254-0.258-0.509-0.366-0.755c-0.226-0.518-0.46-1.053-1.054-1.648
		c-0.182-0.183-0.345-0.412-0.494-0.661c0.581,3.299,1.44,6.042,2.345,7.072c0.045,0.051,0.063,0.121,0.049,0.187
		c-0.014,0.066-0.059,0.122-0.12,0.15c-2.496,1.148-4.052,3.41-4.485,5.141c-0.024,0.096-0.11,0.163-0.209,0.163
		s-0.185-0.067-0.209-0.163c-0.412-1.649-1.644-3.308-3.247-4.42v4.97h5.559C31.328,79.036,32.509,76.978,33.248,74.449z"/>
	<path class="st0" d="M56.508,46.027c0.075,0.088,0.145,0.181,0.218,0.271c0.194-0.03,0.397-0.044,0.581-0.087
		c0.018-0.307,0.12-0.569,0.303-0.768c0.164-0.177,0.395-0.275,0.647-0.323V34.249c-0.97,3.01-1.68,7.672-1.768,11.737
		C56.497,45.999,56.504,46.013,56.508,46.027z"/>
	<path class="st0" d="M57.959,48.098c0.107,0.19,0.198,0.398,0.298,0.596v-0.636C58.159,48.073,58.061,48.087,57.959,48.098z"/>
	<path class="st0" d="M24.451,57.957c-0.107-0.19-0.198-0.398-0.298-0.596v0.636C24.252,57.981,24.349,57.967,24.451,57.957z"/>
	<path class="st0" d="M62.845,18.745H19.606c-1.564,0-2.837,1.272-2.837,2.836v62.82c0,1.564,1.272,2.836,2.837,2.836h43.239
		c1.564,0,2.838-1.272,2.838-2.836v-62.82C65.683,20.017,64.409,18.745,62.845,18.745z M62.205,69.523
		c0.247,0.868,1.251,2.227,2.066,2.691c-0.814,0.465-1.818,1.824-2.066,2.692c-0.249-0.867-1.252-2.227-2.067-2.692
		C60.952,71.749,61.956,70.39,62.205,69.523z M20.247,36.46c-0.249-0.868-1.252-2.227-2.067-2.691
		c0.814-0.465,1.818-1.825,2.067-2.692c0.249,0.867,1.251,2.227,2.066,2.692C21.498,34.233,20.495,35.592,20.247,36.46z
		 M22.878,29.29h-1.426c-0.088-0.273-0.088-0.273-0.367-0.881l-1.134-2.527L19.476,26.6v1.509c0,0.836,0.054,0.918,0.611,0.945
		v0.236h-2.105v-0.236c0.557-0.027,0.611-0.109,0.611-0.945v-4.436c0-0.827-0.055-0.918-0.584-0.945v-0.236h2.051v0.236
		c-0.53,0.027-0.584,0.118-0.584,0.945v2.472l1.405-2.1c0.299-0.445,0.421-0.709,0.421-0.927c0-0.254-0.129-0.354-0.503-0.391
		v-0.236h1.874v0.236c-0.482,0.054-0.814,0.354-1.459,1.309l-0.672,0.982l1.494,3.145c0.292,0.618,0.516,0.854,0.842,0.9V29.29z
		 M58.687,30.86v2.159v12.272v2.513v1.812v1.031v3.658v1.397v0.733v0.005v24.349c0,0.119-0.096,0.215-0.215,0.215h-8.604H29.804
		h-5.865c-0.119,0-0.215-0.096-0.215-0.215v-5.595v-2.159V60.763V58.25v-1.811v-1.032V51.75v-1.397V49.62v-0.005v-24.35
		c0-0.119,0.096-0.215,0.215-0.215h8.604h20.064h5.864c0.119,0,0.215,0.096,0.215,0.215V30.86z M64.468,76.928
		c-0.557,0.027-0.611,0.109-0.611,0.945v4.436c0,0.827,0.055,0.918,0.584,0.945v0.236H62.39v-0.236
		c0.53-0.027,0.584-0.118,0.584-0.945v-2.472l-1.405,2.1c-0.299,0.445-0.421,0.709-0.421,0.927c0,0.254,0.129,0.354,0.503,0.391
		v0.236h-1.874v-0.236c0.482-0.055,0.814-0.354,1.459-1.309l0.672-0.982l-1.494-3.145c-0.292-0.618-0.516-0.854-0.842-0.9v-0.227
		h1.426c0.088,0.273,0.088,0.273,0.367,0.881l1.134,2.527l0.475-0.718v-1.509c0-0.836-0.054-0.918-0.611-0.945v-0.236h2.105V76.928z
		"/>
	<path class="st0" d="M56.544,59.985c-0.008,0.027-0.017,0.053-0.035,0.075c-0.1,0.119-0.203,0.234-0.308,0.347l-0.166,0.184
		c-0.109,0.115-0.221,0.224-0.332,0.333l-0.231,0.221c-0.104,0.096-0.21,0.19-0.317,0.283c-0.089,0.076-0.178,0.151-0.267,0.224
		c-0.104,0.083-0.207,0.164-0.311,0.242c-0.101,0.076-0.203,0.15-0.304,0.222l-0.153,0.105c-1,0.686-2.109,1.193-3.294,1.543
		c0.696,0.189,1.2,0.494,1.553,0.792c0.711,0.6,1.14,1.455,1.146,2.287c0.015,1.525-0.735,2.321-1.486,2.434
		c-0.602,0.089-1.147-0.266-1.333-0.893c-0.033-0.11,0.027-0.227,0.136-0.264c0.11-0.037,0.229,0.017,0.271,0.125
		c0.072,0.184,0.154,0.325,0.235,0.412c0.027,0.026,0.056,0.051,0.086,0.072c0.045,0.026,0.088,0.037,0.129,0.024
		c0.154-0.042,0.316-0.324,0.277-0.564c-0.098-0.589-0.562-0.706-0.83-0.723c-0.869-0.054-2.026,0.699-2.436,2.059
		c-0.311,1.036-0.729,1.741-1.264,2.171c0.133,0.578,0.262,1.153,0.388,1.716l0.036,0.161c0.642,2.857,1.266,5.52,2.254,7.003h8.268
		V57.361C57.769,58.326,57.197,59.204,56.544,59.985z M53.516,79.996c-0.471-1.642-2.373-4.218-3.914-5.097
		c1.541-0.879,3.443-3.454,3.914-5.096c0.47,1.642,2.37,4.217,3.913,5.096C55.887,75.779,53.986,78.355,53.516,79.996z"/>
	<path d="M62.845,18.315H19.606c-1.802,0-3.267,1.465-3.267,3.266v62.82c0,1.801,1.465,3.266,3.267,3.266h43.239
		c1.802,0,3.268-1.465,3.268-3.266v-62.82C66.113,19.78,64.647,18.315,62.845,18.315z M65.683,84.401
		c0,1.564-1.273,2.836-2.838,2.836H19.606c-1.564,0-2.837-1.272-2.837-2.836v-62.82c0-1.564,1.272-2.836,2.837-2.836h43.239
		c1.564,0,2.838,1.272,2.838,2.836V84.401z"/>
	<path class="st1" d="M25.225,57.922c-0.507-0.543-0.8-1.325-0.869-2.3h-0.202v0.773c0.234,0.539,0.5,1.044,0.785,1.531
		C25.034,57.924,25.129,57.922,25.225,57.922z"/>
	<path class="st1" d="M45.491,50.892c0.224-0.827,0.901-2.615,2.761-4.279c-0.129-0.104-0.258-0.207-0.385-0.329
		c-0.719,0.179-1.538,0.314-2.475,0.384c-1.11,1.685-1.574,3.339-1.753,4.223H45.491z"/>
	<path class="st1" d="M45.5,55.161h-1.861c0.116,0.573,0.354,1.471,0.805,2.489c0.204,0.012,0.4,0.056,0.583,0.142
		c0.734,0.345,1.112,1.234,1.041,2.41c1.819-0.553,2.695-0.24,3.114,0.135c0.379,0.338,0.522,0.865,0.396,1.445
		c-0.084,0.382-0.29,0.74-0.552,1.06c0.391,0.231,0.802,0.451,1.251,0.647c1.133-0.284,2.19-0.745,3.164-1.352
		C48.606,60.749,46.183,57.697,45.5,55.161z"/>
	<path class="st1" d="M51.282,49.821c0.062-0.234,0.142-0.455,0.244-0.663c-0.14,0.049-0.285,0.081-0.437,0.081
		c-0.166,0-0.332-0.033-0.493-0.089c-0.121,0.128-0.232,0.261-0.339,0.395L51.282,49.821z"/>
	<path class="st1" d="M28.901,50.936c-1.506-1.41-2.196-3.11-2.195-4.424c-0.176-0.047-0.354-0.093-0.537-0.134
		c-0.701,0.845-1.309,1.804-1.811,2.871C26.138,49.559,27.683,50.144,28.901,50.936z"/>
	<path class="st1" d="M33.305,53.221c-1.278-0.312-2.355-0.792-3.243-1.375c0.993,0.944,1.609,2.075,1.758,3.314l1.009,0.271
		c0.314-0.662,0.482-1.372,0.482-2.118C33.31,53.283,33.306,53.251,33.305,53.221z"/>
	<path class="st1" d="M57.188,48.133c0.506,0.543,0.798,1.324,0.868,2.298h0.201V49.66c-0.234-0.538-0.5-1.044-0.785-1.531
		C57.378,48.131,57.283,48.133,57.188,48.133z"/>
	<path class="st1" d="M31.129,56.232c-0.062,0.237-0.144,0.46-0.247,0.67c0.293-0.103,0.622-0.107,0.932,0.001
		c0.121-0.129,0.233-0.261,0.34-0.396L31.129,56.232z"/>
	<path class="st1" d="M36.92,55.161c-0.224,0.828-0.901,2.616-2.762,4.28c0.129,0.103,0.258,0.206,0.384,0.328
		c0.72-0.179,1.539-0.314,2.477-0.384c1.109-1.685,1.574-3.339,1.753-4.223H36.92z"/>
	<path class="st1" d="M49.105,52.832c1.279,0.312,2.357,0.792,3.246,1.377c-0.994-0.945-1.61-2.076-1.76-3.316l-1.009-0.271
		c-0.314,0.662-0.482,1.372-0.482,2.119C49.1,52.771,49.104,52.802,49.105,52.832z"/>
	<path class="st1" d="M53.507,55.116c1.507,1.41,2.198,3.112,2.198,4.426c0.176,0.047,0.354,0.093,0.538,0.134
		c0.701-0.845,1.309-1.805,1.811-2.871C56.272,56.494,54.725,55.909,53.507,55.116z"/>
	<path class="st1" d="M52.289,48.135c0.016-0.015,0.035-0.027,0.052-0.042c-0.015,0.003-0.031,0.003-0.046,0.007
		C52.294,48.112,52.29,48.122,52.289,48.135z"/>
	<path class="st1" d="M36.911,50.892h1.86c-0.116-0.573-0.354-1.471-0.805-2.487c-0.204-0.012-0.4-0.056-0.582-0.142
		c-0.734-0.346-1.113-1.235-1.041-2.411c-1.82,0.552-2.698,0.239-3.115-0.135c-0.379-0.338-0.522-0.865-0.396-1.444
		c0.084-0.382,0.29-0.741,0.551-1.061c-0.391-0.231-0.802-0.45-1.251-0.647c-1.133,0.284-2.189,0.745-3.163,1.352
		C33.8,45.303,36.225,48.355,36.911,50.892z"/>
	<path class="st1" d="M30.121,57.919c-0.016,0.014-0.034,0.026-0.05,0.04c0.014-0.003,0.031-0.003,0.045-0.007
		C30.116,57.941,30.12,57.931,30.121,57.919z"/>
	<path class="st2" d="M51.151,51.043l-0.106-0.029c0.034,0.209,0.096,0.412,0.159,0.614C51.169,51.441,51.159,51.243,51.151,51.043z
		"/>
	<path class="st2" d="M51.227,51.721c0.023,0.069,0.034,0.142,0.06,0.21C51.268,51.86,51.242,51.794,51.227,51.721z"/>
	<path class="st2" d="M58.257,54.471c-0.529-0.141-1.017-0.315-1.476-0.509c-0.515,0.364-1.173,0.557-1.958,0.557
		c-0.81,0-1.528-0.21-2.111-0.583c1.279,1.193,3.187,2.083,5.539,2.472l0.007-0.014v-0.948V54.471z"/>
	<path class="st3" d="M49.473,54.653c0.094,0.245,0.203,0.489,0.335,0.731c1.82,0.745,2.909,2.003,3.388,3.194
		c0.216,0.114,0.439,0.224,0.673,0.328c0.601-0.458,1.117-0.03,1.184,0.43c0.001,0.004-0.001,0.008,0,0.013
		c0.073,0.024,0.145,0.048,0.219,0.071c-0.063-2.057-1.924-5.061-6.141-6.139c0.008,0.072,0.023,0.144,0.034,0.216
		C49.525,53.627,49.766,54.082,49.473,54.653z M54.273,57.208c0.236,0.427-0.068,1.076-0.899,1.025
		c0.349-0.058,0.557-0.51,0.389-0.779c-0.112-0.178-0.413-0.314-0.81-0.142C53.349,56.547,54.039,56.78,54.273,57.208z
		 M52.989,55.448c0.37,0.319,0.311,1.033-0.485,1.275c0.307-0.177,0.343-0.673,0.092-0.866c-0.167-0.128-0.497-0.151-0.809,0.15
		C51.892,55.153,52.62,55.129,52.989,55.448z M51.09,54.226c0.461,0.16,0.67,0.845,0.018,1.364c0.219-0.278,0.072-0.752-0.233-0.84
		c-0.202-0.057-0.517,0.043-0.696,0.438C49.961,54.354,50.629,54.065,51.09,54.226z"/>
	<path class="st3" d="M49.321,54.212c0.037,0.125,0.082,0.25,0.128,0.375C49.451,54.449,49.409,54.316,49.321,54.212z"/>
	<path class="st0" d="M52.597,55.857c0.251,0.193,0.214,0.689-0.092,0.866c0.796-0.242,0.854-0.956,0.485-1.275
		c-0.37-0.318-1.097-0.295-1.201,0.56C52.1,55.707,52.431,55.729,52.597,55.857z"/>
	<path class="st0" d="M52.953,57.312c0.397-0.173,0.698-0.036,0.81,0.142c0.168,0.269-0.04,0.72-0.389,0.779
		c0.83,0.052,1.135-0.597,0.899-1.025C54.039,56.78,53.349,56.547,52.953,57.312z"/>
	<path class="st0" d="M53.869,58.905c0.37,0.164,0.769,0.308,1.184,0.443c-0.001-0.004,0.001-0.008,0-0.013
		C54.986,58.875,54.469,58.447,53.869,58.905z"/>
	<path class="st0" d="M50.876,54.75c0.305,0.087,0.452,0.562,0.233,0.84c0.651-0.519,0.443-1.204-0.018-1.364
		c-0.461-0.161-1.129,0.128-0.91,0.962C50.359,54.793,50.674,54.693,50.876,54.75z"/>
	<path class="st0" d="M49.165,53.496c0.036,0.237,0.086,0.476,0.157,0.716c0.088,0.104,0.13,0.237,0.128,0.375
		c0.008,0.022,0.016,0.045,0.024,0.067C49.766,54.082,49.525,53.627,49.165,53.496z"/>
	<path class="st3" d="M50.318,56.175c0.529,0.714,1.231,1.386,2.126,1.965C52.011,57.418,51.307,56.715,50.318,56.175z"/>
	<path class="st0" d="M49.808,55.384c0.145,0.268,0.318,0.531,0.51,0.791c0.99,0.54,1.693,1.244,2.126,1.965
		c0.237,0.153,0.489,0.299,0.752,0.438C52.717,57.387,51.629,56.129,49.808,55.384z"/>
	<path class="st3" d="M33.088,51.84c-0.036-0.123-0.081-0.246-0.126-0.369C32.961,51.607,33.002,51.737,33.088,51.84z"/>
	<path class="st3" d="M32.937,51.403c-0.094-0.246-0.204-0.491-0.336-0.734c-1.819-0.744-2.906-2.001-3.385-3.192
		c-0.216-0.114-0.439-0.224-0.673-0.328c-0.6,0.457-1.116,0.03-1.183-0.43c-0.001-0.004,0-0.008,0-0.012
		c-0.073-0.024-0.145-0.048-0.22-0.071c0.062,2.056,1.923,5.06,6.14,6.138c-0.008-0.072-0.023-0.144-0.033-0.216
		C32.886,52.426,32.647,51.972,32.937,51.403z M28.138,48.845c-0.235-0.427,0.068-1.076,0.899-1.024
		c-0.348,0.059-0.555,0.51-0.388,0.779c0.112,0.177,0.412,0.314,0.81,0.142C29.062,49.506,28.372,49.273,28.138,48.845z
		 M29.421,50.606c-0.37-0.319-0.311-1.032,0.485-1.275c-0.306,0.177-0.343,0.673-0.091,0.866c0.165,0.128,0.496,0.15,0.808-0.151
		C30.518,50.901,29.792,50.924,29.421,50.606z M31.321,51.828c-0.462-0.16-0.671-0.845-0.018-1.364
		c-0.22,0.278-0.073,0.753,0.233,0.84c0.201,0.057,0.517-0.044,0.696-0.437C32.451,51.699,31.782,51.989,31.321,51.828z"/>
	<path class="st0" d="M29.814,50.197c-0.252-0.193-0.214-0.69,0.091-0.866c-0.796,0.243-0.854,0.956-0.485,1.275
		c0.371,0.319,1.097,0.295,1.201-0.559C30.311,50.347,29.98,50.325,29.814,50.197z"/>
	<path class="st0" d="M29.459,48.742c-0.398,0.172-0.698,0.036-0.81-0.142c-0.168-0.269,0.04-0.72,0.388-0.779
		c-0.83-0.051-1.134,0.597-0.899,1.024C28.372,49.273,29.062,49.506,29.459,48.742z"/>
	<path class="st0" d="M28.542,47.148c-0.369-0.163-0.768-0.308-1.183-0.442c0,0.004-0.001,0.008,0,0.012
		C27.426,47.179,27.942,47.606,28.542,47.148z"/>
	<path class="st0" d="M31.536,51.304c-0.306-0.087-0.453-0.561-0.233-0.84c-0.652,0.518-0.444,1.204,0.018,1.364
		c0.461,0.161,1.129-0.128,0.91-0.961C32.052,51.26,31.737,51.361,31.536,51.304z"/>
	<path class="st0" d="M33.245,52.557c-0.036-0.238-0.086-0.477-0.157-0.717c-0.086-0.103-0.127-0.234-0.126-0.369
		c-0.008-0.023-0.016-0.046-0.025-0.069C32.647,51.972,32.886,52.426,33.245,52.557z"/>
	<path class="st3" d="M32.091,49.878c-0.528-0.713-1.229-1.385-2.123-1.963C30.401,48.636,31.103,49.338,32.091,49.878z"/>
	<path class="st0" d="M32.601,50.668c-0.146-0.268-0.318-0.531-0.51-0.791c-0.988-0.54-1.691-1.242-2.123-1.963
		c-0.237-0.153-0.489-0.299-0.752-0.438C29.695,48.667,30.782,49.924,32.601,50.668z"/>
	<path class="st2" d="M25.921,60.051c-0.006-0.008-0.012-0.016-0.019-0.023c0.004,0.014,0.011,0.026,0.019,0.039
		C25.921,60.061,25.921,60.056,25.921,60.051z"/>
	<path class="st2" d="M56.489,46.002c0.007,0.008,0.013,0.017,0.02,0.025c-0.005-0.015-0.012-0.028-0.02-0.041
		C56.489,45.991,56.489,45.997,56.489,46.002z"/>
	<path class="st2" d="M27.835,44.159c-0.105,0.079-0.209,0.161-0.313,0.244c-0.086,0.069-0.168,0.14-0.264,0.222
		c-0.107,0.093-0.216,0.187-0.324,0.286l-0.251,0.243c-0.104,0.102-0.208,0.203-0.308,0.308l-0.163,0.18
		c-0.105,0.115-0.209,0.23-0.311,0.351c-0.019,0.023-0.028,0.05-0.037,0.077c0.722-0.863,1.528-1.622,2.426-2.238l-0.156,0.108
		C28.034,44.011,27.936,44.083,27.835,44.159z"/>
	<path class="st2" d="M54.577,61.894c0.104-0.079,0.206-0.159,0.311-0.242c0.089-0.072,0.178-0.148,0.267-0.224
		c0.107-0.093,0.214-0.187,0.317-0.283l0.231-0.221c0.111-0.109,0.223-0.217,0.332-0.333l0.166-0.184
		c0.104-0.113,0.208-0.228,0.308-0.347c0.018-0.022,0.027-0.049,0.035-0.075c-0.721,0.862-1.526,1.62-2.423,2.235l0.153-0.105
		C54.374,62.044,54.477,61.97,54.577,61.894z"/>
	<path class="st2" d="M45.5,55.161c0.683,2.536,3.106,5.588,7.94,6.976c0.17-0.106,0.344-0.205,0.509-0.321l-0.022,0.015
		c-5.061-1.325-7.485-4.48-8.066-7.002c-0.025-0.106-0.121-0.141-0.234-0.131c-0.029,0.003-0.057,0.015-0.081,0.033h-2.166
		c-0.063,0-0.124,0.028-0.165,0.077c-0.04,0.048-0.058,0.112-0.047,0.175c0.093,0.537,0.318,1.533,0.819,2.699
		c0.157-0.03,0.31-0.041,0.458-0.033c-0.451-1.017-0.689-1.916-0.805-2.489H45.5z"/>
	<path class="st2" d="M32.153,56.507c-0.107,0.135-0.219,0.267-0.34,0.396c0.14,0.048,0.275,0.113,0.398,0.203
		c0.141-0.155,0.272-0.314,0.394-0.477L32.153,56.507z"/>
	<path class="st2" d="M48.72,63.163c0.208,0.125,0.416,0.25,0.639,0.367l-1.124,0c-0.001,0.001-0.002,0.001-0.003,0.001l1.908-0.001
		c0.046-0.011,0.089-0.029,0.136-0.041c-0.448-0.197-0.86-0.416-1.251-0.647C48.931,62.957,48.832,63.062,48.72,63.163z"/>
	<path class="st2" d="M33.69,42.891c-0.208-0.125-0.416-0.25-0.64-0.367l1.126,0c0,0,0,0,0,0l-1.908,0.001
		c-0.046,0.011-0.089,0.029-0.135,0.041c0.448,0.197,0.86,0.416,1.251,0.647C33.479,43.096,33.579,42.992,33.69,42.891z"/>
	<path class="st2" d="M36.911,50.892c-0.687-2.537-3.111-5.589-7.941-6.976c-0.168,0.105-0.34,0.203-0.503,0.317l0.016-0.011
		c5.057,1.324,7.482,4.479,8.068,7.002c0.024,0.106,0.121,0.144,0.233,0.131c0.029-0.003,0.057-0.015,0.081-0.033h2.165
		c0.063,0,0.124-0.028,0.165-0.077c0.04-0.048,0.058-0.112,0.047-0.175c-0.093-0.537-0.318-1.533-0.818-2.698
		c-0.157,0.03-0.31,0.041-0.458,0.033c0.451,1.017,0.689,1.915,0.805,2.487H36.911z"/>
	<path class="st2" d="M55.272,59.418c-0.074-0.023-0.146-0.047-0.219-0.071c-0.415-0.134-0.815-0.279-1.184-0.443
		c-0.234-0.104-0.457-0.214-0.673-0.328c-0.263-0.139-0.515-0.285-0.752-0.438c-0.896-0.579-1.597-1.251-2.126-1.965
		c-0.192-0.259-0.364-0.523-0.51-0.791c-0.131-0.242-0.241-0.486-0.335-0.731c-0.009-0.022-0.016-0.045-0.024-0.067
		c-0.046-0.125-0.091-0.25-0.128-0.375c-0.07-0.24-0.12-0.478-0.157-0.716c-0.011-0.072-0.026-0.145-0.034-0.216
		c-0.016-0.15-0.024-0.299-0.026-0.447c-0.001-0.031-0.005-0.062-0.005-0.092c0-0.747,0.168-1.457,0.482-2.119
		c0.178-0.375,0.404-0.735,0.676-1.076c0.107-0.134,0.219-0.267,0.339-0.395c-0.139-0.048-0.274-0.114-0.397-0.203
		c-0.988,1.089-1.529,2.38-1.529,3.792c0,2.796,2.252,6.102,7.271,7.311c0.106-0.118,0.199-0.252,0.301-0.375
		c-0.183-0.042-0.362-0.087-0.538-0.134C55.558,59.502,55.414,59.461,55.272,59.418z"/>
	<path class="st2" d="M27.138,46.635c0.075,0.023,0.147,0.047,0.22,0.071c0.415,0.134,0.814,0.279,1.183,0.442
		c0.234,0.104,0.457,0.214,0.673,0.328c0.264,0.139,0.515,0.285,0.752,0.438c0.894,0.578,1.595,1.25,2.123,1.963
		c0.192,0.259,0.364,0.523,0.51,0.791c0.132,0.243,0.242,0.488,0.336,0.734c0.009,0.023,0.016,0.046,0.025,0.069
		c0.045,0.123,0.09,0.246,0.126,0.369c0.071,0.24,0.121,0.479,0.157,0.717c0.011,0.072,0.026,0.145,0.033,0.216
		c0.016,0.15,0.024,0.299,0.026,0.447c0.001,0.031,0.005,0.062,0.005,0.093c0,0.747-0.168,1.457-0.482,2.118l0.424,0.114
		c0.319-0.697,0.487-1.446,0.487-2.232c0-2.796-2.251-6.102-7.27-7.311c-0.106,0.118-0.199,0.252-0.302,0.376
		c0.183,0.042,0.361,0.087,0.537,0.134C26.852,46.552,26.997,46.592,27.138,46.635z"/>
	<path class="st2" d="M27.499,44.986c-0.016,0.014-0.032,0.028-0.048,0.042C27.467,45.014,27.482,45,27.499,44.986z"/>
	<path class="st2" d="M45.625,51.357c0.116,0.005,0.209-0.059,0.234-0.166c0.155-0.672,0.75-2.57,2.742-4.318
		c-0.117-0.079-0.232-0.166-0.348-0.259c-1.86,1.663-2.538,3.451-2.761,4.279h-1.853c0.179-0.885,0.643-2.538,1.753-4.223
		c-0.005,0-0.01,0.001-0.016,0.002c-0.062,0.005-0.118,0.003-0.179,0.007c-0.325,0.507-0.669,0.941-1.025,1.288
		c-0.63,1.337-0.9,2.508-1.004,3.106c-0.011,0.063,0.007,0.126,0.048,0.175c0.04,0.049,0.101,0.077,0.164,0.077h2.151
		C45.559,51.341,45.591,51.352,45.625,51.357z"/>
	<path class="st2" d="M54.91,61.069c0.018-0.016,0.037-0.033,0.055-0.049C54.947,61.036,54.929,61.053,54.91,61.069z"/>
	<path class="st2" d="M36.785,54.697c-0.122-0.009-0.209,0.059-0.234,0.166c-0.154,0.672-0.749,2.571-2.742,4.319
		c0.117,0.079,0.232,0.166,0.348,0.26c1.862-1.664,2.539-3.452,2.762-4.28h1.852c-0.179,0.885-0.643,2.538-1.753,4.223
		c0.006,0,0.011-0.001,0.016-0.002c0.062-0.005,0.117-0.002,0.179-0.007c0.325-0.506,0.668-0.94,1.024-1.286
		c0.631-1.338,0.901-2.509,1.005-3.107c0.011-0.063-0.007-0.127-0.047-0.175c-0.041-0.049-0.102-0.077-0.165-0.077h-2.152
		C36.852,54.713,36.82,54.701,36.785,54.697z"/>
	<path class="st2" d="M31.26,55.01l0.106,0.029c-0.034-0.21-0.096-0.412-0.159-0.614C31.241,54.611,31.252,54.81,31.26,55.01z"/>
	<path class="st2" d="M31.185,54.337c-0.024-0.071-0.035-0.145-0.062-0.215C31.143,54.194,31.169,54.263,31.185,54.337z"/>
	<path class="st2" d="M27.589,51.535c0.809,0,1.527,0.21,2.11,0.583c-1.279-1.193-3.187-2.082-5.538-2.471l-0.006,0.014
		l-0.001,1.922c0.53,0.141,1.017,0.315,1.476,0.509C26.145,51.728,26.803,51.535,27.589,51.535z"/>
	<path class="st2" d="M39.665,50.464c0.868,0.397,1.347-0.186,1.347-0.73c0-0.544-0.814-1.614-1.776-1.293
		C39.961,48.75,40.079,49.809,39.665,50.464z"/>
	<path class="st2" d="M42.093,48.984c-0.113,0-0.225-0.016-0.336-0.036c-0.221,0.265-0.358,0.567-0.358,0.787
		c0,0.544,0.478,1.127,1.346,0.73c-0.292-0.462-0.312-1.12-0.049-1.579C42.494,48.943,42.292,48.984,42.093,48.984z"/>
	<path class="st0" d="M35.287,52.191c-0.481,0-0.873,0.39-0.873,0.871c0,0.481,0.391,0.871,0.873,0.871
		c0.479,0,0.869-0.39,0.869-0.871C36.157,52.581,35.767,52.191,35.287,52.191z"/>
	<path class="st0" d="M34.801,49.734c-0.481,0-0.872,0.39-0.872,0.871c0,0.481,0.39,0.871,0.872,0.871c0.481,0,0.87-0.39,0.87-0.871
		C35.672,50.124,35.283,49.734,34.801,49.734z"/>
	<path class="st0" d="M33.316,49.312c0.482,0,0.871-0.39,0.871-0.871c0-0.481-0.389-0.871-0.871-0.871
		c-0.48,0-0.869,0.39-0.869,0.871C32.447,48.922,32.836,49.312,33.316,49.312z"/>
	<path class="st0" d="M31.308,47.529c0.481,0,0.87-0.39,0.87-0.871c0-0.481-0.389-0.871-0.87-0.871c-0.481,0-0.87,0.39-0.87,0.871
		C30.437,47.138,30.826,47.529,31.308,47.529z"/>
	<path class="st0" d="M28.914,44.623c-0.48,0-0.87,0.39-0.87,0.871c0,0.481,0.39,0.871,0.87,0.871c0.481,0,0.872-0.39,0.872-0.871
		C29.786,45.013,29.396,44.623,28.914,44.623z"/>
	<path class="st2" d="M37.568,47.874c0.687,0.322,1.672-0.104,2.642-1.138c0.042-0.044,0.099-0.068,0.157-0.068
		c0.023,0,0.047,0.003,0.07,0.012c0.08,0.027,0.136,0.099,0.144,0.184c0.082,0.893,0.527,1.512,1.193,1.657
		c0.724,0.153,1.826-0.268,2.899-1.822c-0.374,0.017-0.755,0.042-1.114,0.042c-4.276,0-7.41-1.23-8.924-3.537
		c-0.07-0.106-0.118-0.224-0.18-0.334c-0.664,0.362-1.089,0.981-1.202,1.496c-0.055,0.249-0.093,0.714,0.262,1.032
		c0.293,0.261,1.069,0.603,3.004-0.053c0.068-0.025,0.146-0.01,0.205,0.037c0.058,0.047,0.087,0.12,0.077,0.193
		C36.658,46.703,36.952,47.584,37.568,47.874z"/>
	<path class="st2" d="M49.86,47.006c0.304-0.452,0.886-0.68,1.563-0.775c0.002-0.291-0.073-0.637-0.247-1.035
		c-0.032-0.075-0.02-0.161,0.032-0.224c0.052-0.063,0.139-0.092,0.214-0.072c0.654,0.155,1.214,0.21,1.66,0.179
		c-0.041-0.998-0.112-2.008-0.216-3.006c-0.043,0.175-0.086,0.35-0.151,0.525c-0.391,1.05-1.463,2.683-4.35,3.545
		C48.87,46.578,49.39,46.866,49.86,47.006z"/>
	<path class="st0" d="M42.505,39.157c0.846-0.186,1.73-0.761,1.754-1.824c-1.549-0.654-3.567,0.028-4.582,0.757
		C40.187,39.086,41.456,39.387,42.505,39.157z M41.555,37.438c0.322,0,0.584,0.262,0.584,0.584s-0.262,0.584-0.584,0.584
		s-0.584-0.262-0.584-0.584S41.233,37.438,41.555,37.438z"/>
	<path class="st0" d="M50.436,36.439c-0.107-0.245-0.208-0.476-0.342-0.708c-0.473-0.82-1.053-1.548-1.721-2.167
		c-1.392-0.784-5.354-0.98-8.702-0.419c0.321,3.364-0.741,8.252-5.035,9.155c0.108,0.228,0.219,0.455,0.358,0.667
		c1.632,2.487,5.314,3.65,10.351,3.275c3.684-0.273,6.158-1.62,6.967-3.792c0.622-1.671,0.104-3.392-0.729-4.228
		C50.929,37.569,50.678,36.994,50.436,36.439z M45.901,37.006c0.155-0.089,0.318-0.148,0.481-0.204
		c-0.167-0.064-0.331-0.155-0.485-0.294c0.623,0.035,2.351-0.339,3.015-1.155c0.774,0.346,1.189,1.216,1.235,1.949
		c-0.298-0.649-0.818-1.193-1.145-1.377c-0.174,0.183-0.607,0.526-1.127,0.755c0.997,0.142,1.942,0.654,2.499,1.186
		c0.061,0.058,0.082,0.146,0.055,0.225c-0.378,1.111-1.346,1.566-2.23,1.566c-0.155,0-0.308-0.014-0.455-0.041
		c-1.008-0.186-2.003-1.01-1.951-2.432C45.795,37.111,45.836,37.043,45.901,37.006z M45.845,38.499
		c0.121-0.03,0.232,0.042,0.261,0.157c0.146,0.592,0.598,1.095,1.179,1.313c0.635,0.24,1.346,0.123,1.993-0.33
		c0.095-0.068,0.23-0.046,0.3,0.053c0.067,0.097,0.044,0.231-0.054,0.299c-0.503,0.351-1.04,0.53-1.569,0.53
		c-0.278,0-0.555-0.05-0.821-0.15c-0.723-0.271-1.263-0.874-1.445-1.612C45.659,38.644,45.73,38.527,45.845,38.499z M42.179,40.656
		c-0.686,0-1.375-0.236-1.946-0.69c-0.093-0.074-0.108-0.209-0.034-0.302c0.072-0.092,0.208-0.108,0.302-0.035
		c0.912,0.726,1.954,0.688,2.622,0.412c0.644-0.266,1.068-0.773,1.137-1.358c0.014-0.118,0.105-0.201,0.239-0.188
		c0.117,0.014,0.202,0.121,0.188,0.238c-0.087,0.742-0.61,1.38-1.4,1.706C42.932,40.584,42.556,40.656,42.179,40.656z
		 M42.011,33.777c0.179,1.383,1.714,2.572,2.281,2.697c-1.631,0.277-2.365-1.175-2.53-1.95c-0.291,0.138-1.011,0.498-1.813,0.996
		C40.268,35.118,41.042,34.33,42.011,33.777z M39.276,37.854c1.102-0.875,3.469-1.719,5.289-0.855
		c0.071,0.034,0.118,0.105,0.122,0.185c0.051,1.164-0.77,2.104-2.09,2.394c-0.247,0.054-0.505,0.082-0.765,0.082
		c-1.077,0-2.182-0.479-2.622-1.555C39.174,38.015,39.2,37.913,39.276,37.854z M42.133,43.225c-0.313,0.094-0.707,0.168-1.082,0.106
		c-0.375-0.062-0.755-0.255-0.984-0.599c-0.074-0.185-0.178-0.366-0.177-0.562c-0.009-0.101-0.027-0.184-0.027-0.298l0.026-0.268
		c0.059-0.404,0.328-0.749,0.684-0.887c0.349-0.143,0.732-0.114,1.034,0.03c0.305,0.138,0.541,0.412,0.581,0.712
		c0.021,0.073,0.01,0.145,0.005,0.216c-0.002,0.071-0.017,0.146-0.038,0.199c-0.048,0.129-0.132,0.236-0.227,0.306
		c-0.198,0.139-0.421,0.145-0.576,0.096c-0.16-0.051-0.25-0.16-0.279-0.24c-0.032-0.08-0.027-0.128-0.031-0.127
		c0.003-0.001,0.003,0.048,0.042,0.122c0.035,0.075,0.129,0.17,0.28,0.204c0.147,0.034,0.35,0.007,0.508-0.126
		c0.161-0.13,0.221-0.378,0.178-0.624c-0.045-0.244-0.247-0.461-0.514-0.568c-0.266-0.113-0.596-0.115-0.876,0.003
		c-0.285,0.112-0.492,0.399-0.536,0.708L40.1,41.893c0.003,0.065,0.021,0.161,0.029,0.24c-0.001,0.174,0.095,0.313,0.151,0.466
		c0.179,0.273,0.482,0.439,0.809,0.5c0.336,0.058,0.652,0.007,0.991-0.086c0.286-0.108,0.586-0.262,0.809-0.453
		c0.242-0.178,0.421-0.42,0.601-0.626c0.191-0.201,0.375-0.385,0.589-0.482c0.097-0.064,0.212-0.071,0.309-0.094
		c0.098,0.007,0.194,0.013,0.269,0.045c0.072,0.039,0.136,0.074,0.192,0.104c0.045,0.042,0.083,0.079,0.114,0.108
		c0.062,0.059,0.095,0.09,0.095,0.09s-0.035-0.028-0.102-0.081c-0.034-0.027-0.075-0.059-0.123-0.098
		c-0.055-0.024-0.119-0.052-0.19-0.082c-0.071-0.024-0.16-0.021-0.248-0.021c-0.087,0.03-0.186,0.041-0.273,0.109
		c-0.186,0.103-0.347,0.295-0.524,0.493c-0.168,0.211-0.333,0.462-0.585,0.67C42.767,42.921,42.484,43.095,42.133,43.225z
		 M50.55,42.351L50.464,42.6c-0.143,0.318-0.42,0.598-0.764,0.688c-0.328,0.092-0.712,0.046-0.976-0.062
		c-0.313-0.138-0.545-0.321-0.74-0.543c-0.202-0.208-0.325-0.443-0.455-0.644c-0.133-0.194-0.259-0.376-0.406-0.49
		c-0.139-0.138-0.313-0.144-0.439-0.107c-0.058,0.032-0.115,0.057-0.16,0.086c-0.039,0.038-0.073,0.07-0.1,0.097
		c-0.054,0.052-0.083,0.08-0.083,0.08s0.026-0.031,0.075-0.088c0.025-0.029,0.055-0.064,0.09-0.106
		c0.043-0.034,0.099-0.067,0.161-0.108c0.129-0.058,0.344-0.063,0.506,0.072c0.176,0.111,0.323,0.287,0.47,0.484
		c0.141,0.197,0.279,0.424,0.475,0.603c0.176,0.188,0.43,0.35,0.666,0.456c0.299,0.109,0.561,0.119,0.845,0.046
		c0.279-0.079,0.488-0.304,0.602-0.565l0.076-0.206c0.015-0.072,0.018-0.148,0.029-0.222c0.028-0.145,0.013-0.291-0.002-0.454
		c-0.036-0.274-0.192-0.546-0.425-0.662c-0.23-0.127-0.519-0.116-0.734,0.007c-0.22,0.116-0.358,0.336-0.379,0.558
		c-0.012,0.055-0.001,0.111-0.003,0.164c-0.004,0.056,0.007,0.09,0.023,0.153c0.016,0.119,0.071,0.186,0.117,0.26
		c0.123,0.134,0.299,0.165,0.424,0.127c0.062-0.026,0.118-0.05,0.147-0.097c0.04-0.037,0.065-0.074,0.071-0.113
		c0.024-0.071,0.036-0.109,0.036-0.109s-0.009,0.039-0.026,0.113c-0.003,0.04-0.025,0.081-0.063,0.125
		c-0.027,0.053-0.084,0.086-0.151,0.121c-0.134,0.056-0.342,0.044-0.505-0.104c-0.159-0.166-0.22-0.39-0.212-0.654
		c0.01-0.26,0.163-0.545,0.427-0.703c0.257-0.164,0.622-0.206,0.927-0.041c0.313,0.157,0.507,0.483,0.558,0.834
		c0.017,0.152,0.037,0.326,0.01,0.499C50.57,42.181,50.568,42.267,50.55,42.351z"/>
	<path class="st0" d="M47.534,38.177c0.086,0,0.155-0.069,0.155-0.155s-0.069-0.155-0.155-0.155c-0.085,0-0.154,0.069-0.154,0.155
		S47.449,38.177,47.534,38.177z"/>
	<circle class="st0" cx="41.555" cy="38.022" r="0.155"/>
	<path class="st0" d="M47.822,39.194c0.802,0.147,1.753-0.145,2.151-1.111c-0.829-0.719-2.485-1.396-3.752-0.761
		C46.235,38.486,47.081,39.058,47.822,39.194z M47.534,37.438c0.322,0,0.585,0.262,0.585,0.584s-0.263,0.584-0.585,0.584
		s-0.584-0.262-0.584-0.584S47.212,37.438,47.534,37.438z"/>
	<path class="st2" d="M29.313,39.209c0.007,0.708,0.379,1.442,0.996,1.962c0.642,0.542,1.854,1.117,3.979,0.77
		c4.233-0.689,5.262-5.452,4.956-8.724c-1.531,0.292-2.9,0.748-3.779,1.39c0,0-0.001,0-0.001,0
		c-0.001,0.001-0.001,0.001-0.002,0.002c-0.504,0.354-0.912,1.042-1.213,2.045c-0.472,1.564-1.842,2.438-2.875,2.364
		c-0.663-0.042-1.121-0.447-1.227-1.083c-0.041-0.241,0.023-0.5,0.152-0.702C29.78,37.396,29.302,38.042,29.313,39.209z
		 M33.425,38.88c1.33-0.341,2.035-1.834,2.166-2.696c0.019-0.117,0.129-0.197,0.245-0.18c0.117,0.018,0.198,0.127,0.181,0.245
		c-0.148,0.97-0.954,2.655-2.484,3.048c-0.019,0.004-0.036,0.006-0.054,0.006c-0.096,0-0.184-0.064-0.208-0.162
		C33.241,39.027,33.31,38.91,33.425,38.88z M33.269,40.656c2.965-0.14,4.387-3.703,4.457-5.489c0.005-0.119,0.088-0.217,0.224-0.207
		c0.118,0.005,0.211,0.104,0.206,0.223c-0.076,1.92-1.626,5.75-4.867,5.902c-0.003,0-0.007,0-0.01,0
		c-0.114,0-0.209-0.089-0.215-0.205C33.058,40.762,33.15,40.661,33.269,40.656z"/>
	<path class="st2" d="M35.288,31.712c-0.199-0.163-0.371-0.387-0.502-0.673c0.065,0.281,0.131,0.565,0.196,0.855
		C35.082,31.833,35.181,31.77,35.288,31.712z"/>
	<path class="st2" d="M34.557,30.083c-0.016-0.679,0.268-1.232,0.753-1.353c0.306-0.077,0.638,0.033,0.925,0.312
		c0.261,0.252,0.461,0.62,0.563,1.034c0.088,0.352,0.094,0.69,0.036,0.984c0.38-0.126,0.773-0.244,1.188-0.345
		c-0.211-0.278-0.358-0.643-0.408-1.047c-0.052-0.423,0.003-0.838,0.155-1.167c0.169-0.363,0.436-0.584,0.752-0.623
		c0.226-0.027,0.455,0.042,0.66,0.203c0.343,0.267,0.588,0.758,0.656,1.313c0.044,0.355,0.004,0.696-0.095,0.99
		c0.43-0.066,0.864-0.123,1.303-0.166c-0.157-0.278-0.259-0.63-0.27-1.025c-0.026-0.933,0.445-1.678,1.074-1.695
		c0.007,0,0.014,0,0.021,0c0.618,0,1.118,0.712,1.143,1.634c0.01,0.356-0.069,0.686-0.198,0.972c0.458-0.015,0.909-0.021,1.35-0.013
		c-0.123-0.322-0.162-0.725-0.083-1.155c0,0,0.001-0.001,0.001-0.001c0.078-0.42,0.256-0.798,0.501-1.065
		c0.271-0.295,0.589-0.425,0.904-0.366c0.312,0.057,0.565,0.294,0.712,0.666c0.133,0.337,0.163,0.754,0.087,1.174
		c-0.062,0.332-0.194,0.609-0.351,0.844c0.379,0.036,0.74,0.08,1.079,0.135c-0.036-0.344,0.026-0.744,0.216-1.141c0,0,0,0,0.001,0
		c0.185-0.385,0.455-0.704,0.761-0.898c0.337-0.215,0.682-0.257,0.968-0.119c0.287,0.137,0.47,0.431,0.514,0.829
		c0.018,0.164,0.005,0.341-0.025,0.519c0.674-1.567,1.549-2.918,2.631-4.029H32.938C33.611,26.607,34.098,28.212,34.557,30.083z"/>
	<path class="st2" d="M48.793,30.779c0.052,0.021,0.098,0.044,0.146,0.066c0.055-0.165,0.117-0.322,0.176-0.482
		C49.019,30.519,48.914,30.658,48.793,30.779z"/>
	<path d="M33.279,41.085c0.003,0,0.007,0,0.01,0c3.241-0.153,4.791-3.982,4.867-5.902c0.005-0.119-0.088-0.218-0.206-0.223
		c-0.136-0.01-0.219,0.088-0.224,0.207c-0.07,1.787-1.492,5.35-4.457,5.489c-0.119,0.006-0.211,0.106-0.205,0.225
		C33.07,40.996,33.164,41.085,33.279,41.085z"/>
	<path d="M33.479,39.304c0.018,0,0.035-0.002,0.054-0.006c1.53-0.393,2.336-2.078,2.484-3.048c0.018-0.118-0.063-0.228-0.181-0.245
		c-0.116-0.018-0.227,0.063-0.245,0.18c-0.131,0.862-0.836,2.355-2.166,2.696c-0.115,0.03-0.184,0.147-0.154,0.262
		C33.295,39.239,33.383,39.304,33.479,39.304z"/>
	<path d="M41.832,39.659c0.26,0,0.518-0.028,0.765-0.082c1.32-0.29,2.141-1.229,2.09-2.394c-0.004-0.08-0.051-0.151-0.122-0.185
		c-1.82-0.863-4.188-0.02-5.289,0.855c-0.075,0.06-0.102,0.162-0.065,0.25C39.651,39.18,40.755,39.659,41.832,39.659z
		 M44.259,37.333c-0.023,1.063-0.908,1.638-1.754,1.824c-1.049,0.23-2.318-0.071-2.828-1.067
		C40.692,37.361,42.71,36.679,44.259,37.333z"/>
	<path d="M47.743,39.617c0.147,0.027,0.3,0.041,0.455,0.041c0.885,0,1.853-0.456,2.23-1.566c0.027-0.08,0.006-0.167-0.055-0.225
		c-0.558-0.532-1.502-1.044-2.499-1.186c0.52-0.229,0.953-0.572,1.127-0.755c0.327,0.184,0.847,0.727,1.145,1.377
		c-0.047-0.733-0.461-1.604-1.235-1.949c-0.664,0.816-2.392,1.19-3.015,1.155c0.154,0.14,0.317,0.23,0.485,0.294
		c-0.163,0.055-0.326,0.115-0.481,0.204c-0.064,0.037-0.105,0.104-0.108,0.179C45.74,38.607,46.736,39.431,47.743,39.617z
		 M49.973,38.083c-0.398,0.966-1.35,1.258-2.151,1.111c-0.74-0.136-1.587-0.708-1.601-1.872
		C47.488,36.687,49.144,37.364,49.973,38.083z"/>
	<path d="M44.292,36.473c-0.567-0.124-2.102-1.314-2.281-2.697c-0.968,0.553-1.743,1.341-2.061,1.742
		c0.802-0.498,1.522-0.857,1.813-0.996C41.927,35.298,42.661,36.75,44.292,36.473z"/>
	<path d="M43.597,42.027c0.176-0.199,0.338-0.39,0.524-0.493c0.087-0.068,0.185-0.08,0.273-0.109c0.088,0,0.177-0.003,0.248,0.021
		c0.071,0.031,0.135,0.058,0.19,0.082c0.049,0.038,0.09,0.071,0.123,0.098c0.067,0.053,0.102,0.081,0.102,0.081
		s-0.033-0.031-0.095-0.09c-0.031-0.029-0.069-0.065-0.114-0.108c-0.056-0.03-0.12-0.065-0.192-0.104
		c-0.074-0.032-0.171-0.038-0.269-0.045c-0.096,0.022-0.212,0.03-0.309,0.094c-0.214,0.096-0.398,0.281-0.589,0.482
		c-0.18,0.206-0.358,0.448-0.601,0.626c-0.224,0.192-0.524,0.345-0.809,0.453c-0.339,0.093-0.655,0.143-0.991,0.086
		c-0.327-0.061-0.63-0.227-0.809-0.5c-0.056-0.153-0.151-0.292-0.151-0.466c-0.009-0.079-0.026-0.175-0.029-0.24l0.021-0.268
		c0.045-0.309,0.252-0.597,0.536-0.708c0.28-0.117,0.61-0.116,0.876-0.003c0.268,0.108,0.469,0.324,0.514,0.568
		c0.043,0.246-0.017,0.495-0.178,0.624c-0.158,0.133-0.362,0.161-0.508,0.126c-0.151-0.034-0.245-0.129-0.28-0.204
		c-0.038-0.075-0.038-0.124-0.042-0.122c0.004-0.001-0.001,0.047,0.031,0.127c0.029,0.08,0.119,0.189,0.279,0.24
		c0.155,0.05,0.378,0.043,0.576-0.096c0.095-0.07,0.179-0.177,0.227-0.306c0.021-0.052,0.036-0.127,0.038-0.199
		c0.006-0.07,0.016-0.142-0.005-0.216c-0.039-0.299-0.275-0.574-0.581-0.712c-0.302-0.144-0.685-0.173-1.034-0.03
		c-0.356,0.139-0.625,0.484-0.684,0.887l-0.026,0.268c-0.001,0.114,0.018,0.197,0.027,0.298c-0.001,0.197,0.103,0.378,0.177,0.562
		c0.229,0.345,0.61,0.537,0.984,0.599c0.375,0.063,0.769-0.012,1.082-0.106c0.351-0.131,0.634-0.305,0.878-0.529
		C43.264,42.489,43.428,42.238,43.597,42.027z"/>
	<path d="M50.57,41.597c-0.051-0.352-0.246-0.677-0.558-0.834c-0.306-0.164-0.671-0.123-0.927,0.041
		c-0.265,0.158-0.417,0.443-0.427,0.703c-0.007,0.264,0.053,0.488,0.212,0.654c0.163,0.148,0.371,0.16,0.505,0.104
		c0.067-0.035,0.123-0.068,0.151-0.121c0.038-0.043,0.06-0.084,0.063-0.125c0.017-0.074,0.026-0.113,0.026-0.113
		s-0.013,0.038-0.036,0.109c-0.006,0.039-0.031,0.076-0.071,0.113c-0.029,0.047-0.085,0.071-0.147,0.097
		c-0.125,0.038-0.302,0.007-0.424-0.127c-0.046-0.075-0.101-0.142-0.117-0.26c-0.016-0.062-0.027-0.097-0.023-0.153
		c0.002-0.054-0.009-0.11,0.003-0.164c0.021-0.222,0.159-0.442,0.379-0.558c0.215-0.122,0.504-0.134,0.734-0.007
		c0.234,0.117,0.389,0.389,0.425,0.662c0.015,0.163,0.03,0.308,0.002,0.454c-0.01,0.074-0.013,0.15-0.029,0.222L50.234,42.5
		c-0.115,0.261-0.323,0.486-0.602,0.565c-0.284,0.073-0.546,0.063-0.845-0.046c-0.236-0.106-0.49-0.269-0.666-0.456
		c-0.196-0.179-0.334-0.406-0.475-0.603c-0.147-0.196-0.294-0.373-0.47-0.484c-0.163-0.135-0.377-0.13-0.506-0.072
		c-0.062,0.041-0.119,0.074-0.161,0.108c-0.035,0.042-0.066,0.077-0.09,0.106c-0.049,0.058-0.075,0.088-0.075,0.088
		s0.029-0.028,0.083-0.08c0.027-0.026,0.06-0.059,0.1-0.097c0.045-0.029,0.102-0.054,0.16-0.086
		c0.125-0.037,0.299-0.031,0.439,0.107c0.147,0.114,0.273,0.296,0.406,0.49c0.13,0.201,0.253,0.436,0.455,0.644
		c0.195,0.222,0.427,0.405,0.74,0.543c0.264,0.108,0.648,0.154,0.976,0.062c0.344-0.091,0.621-0.371,0.764-0.688l0.086-0.249
		c0.018-0.084,0.02-0.17,0.03-0.255C50.607,41.923,50.587,41.749,50.57,41.597z"/>
	<path d="M44.687,38.732c0.014-0.118-0.071-0.225-0.188-0.238c-0.134-0.013-0.226,0.071-0.239,0.188
		c-0.068,0.585-0.493,1.093-1.137,1.358c-0.668,0.276-1.71,0.314-2.622-0.412c-0.094-0.073-0.229-0.058-0.302,0.035
		c-0.074,0.093-0.059,0.229,0.034,0.302c0.571,0.454,1.261,0.69,1.946,0.69c0.377,0,0.753-0.072,1.107-0.218
		C44.076,40.112,44.6,39.474,44.687,38.732z"/>
	<path d="M47.133,40.371c0.267,0.101,0.543,0.15,0.821,0.15c0.529,0,1.066-0.179,1.569-0.53c0.098-0.068,0.121-0.202,0.054-0.299
		c-0.069-0.099-0.205-0.121-0.3-0.053c-0.647,0.453-1.358,0.569-1.993,0.33c-0.581-0.218-1.033-0.722-1.179-1.313
		c-0.028-0.114-0.14-0.187-0.261-0.157c-0.115,0.028-0.186,0.145-0.157,0.26C45.87,39.497,46.41,40.1,47.133,40.371z"/>
	<path d="M41.555,38.607c0.322,0,0.584-0.262,0.584-0.584s-0.262-0.584-0.584-0.584s-0.584,0.262-0.584,0.584
		S41.233,38.607,41.555,38.607z M41.555,37.868c0.085,0,0.154,0.069,0.154,0.155s-0.069,0.155-0.154,0.155s-0.154-0.069-0.154-0.155
		S41.47,37.868,41.555,37.868z"/>
	<path d="M47.534,38.607c0.322,0,0.585-0.262,0.585-0.584s-0.263-0.584-0.585-0.584S46.95,37.7,46.95,38.022
		S47.212,38.607,47.534,38.607z M47.534,37.868c0.086,0,0.155,0.069,0.155,0.155s-0.069,0.155-0.155,0.155
		c-0.085,0-0.154-0.069-0.154-0.155S47.449,37.868,47.534,37.868z"/>
	<path class="st1" d="M44.128,53.656v-1.259h-0.001h-1.22c0.032,0.202,0.054,0.411,0.054,0.629c0,0.219-0.022,0.427-0.054,0.629
		h1.22H44.128z"/>
	<path class="st0" d="M58.257,30.978c-1.588-1.023-2.861-2.573-3.458-4.177c-0.623,1.648-2.084,3.552-4.267,4.642
		c1.679,2.284,2.926,9.384,3.013,14.792c0.301,0.029,0.579,0.063,0.82,0.096c0.026-4.345,0.228-11.909,0.435-14.31
		c0.209,2.412,0.411,10.037,0.435,14.372c0.271,0.008,0.541,0.021,0.817,0.002c0.055-4.74,0.982-10.422,2.204-13.419V30.978z"/>
	<path class="st4" d="M54.801,32.021c-0.207,2.401-0.409,9.965-0.435,14.31c0.078,0.01,0.154,0.021,0.223,0.03l0.239,0.032
		c0.131,0.011,0.273-0.003,0.408,0.001C55.211,42.058,55.01,34.433,54.801,32.021z"/>
	<path class="st2" d="M58.257,47.627v-2.088c-0.132,0.037-0.246,0.104-0.331,0.197c-0.139,0.15-0.203,0.364-0.189,0.633
		c0.005,0.102-0.062,0.193-0.16,0.219c-0.856,0.225-1.877,0.31-2.793,0.233l-0.252-0.033c-0.498-0.068-1.354-0.185-2.186-0.185
		c-1.082,0-2.119,0.198-2.264,0.959c-0.11,0.587,0.183,0.901,0.367,1.037c0.313,0.23,0.746,0.277,1.051,0.113
		c0.257-0.138,0.384-0.404,0.366-0.77c-0.005-0.102,0.063-0.192,0.16-0.218c0.391-0.103,0.818-0.173,1.253-0.215
		c0.313-0.128,0.657-0.205,1.02-0.248c0.014-0.005,0.022-0.019,0.038-0.021c0.116-0.014,0.219-0.015,0.312-0.01
		c0.059-0.002,0.113-0.015,0.173-0.015c0.714,0,1.315,0.169,1.807,0.471C57.178,47.717,57.757,47.715,58.257,47.627z"/>
	<path class="st0" d="M51.565,50.867c0,1.927,1.31,3.222,3.258,3.222c2.465,0,2.833-2.019,2.833-3.222
		c0-1.094-0.323-2.847-2.234-3.158c0.013,0.031,0.023,0.059,0.029,0.08c0.115,0.385-0.073,0.853-0.411,1.021
		c-0.295,0.145-0.691,0.431-0.941,0.977c0.203,0.565,0.076,1.261-0.322,1.726c-0.277,0.323-0.648,0.494-1.056,0.494
		c-0.129,0-0.263-0.018-0.397-0.053c-0.114-0.03-0.184-0.147-0.153-0.262s0.142-0.185,0.263-0.154
		c0.396,0.104,0.759-0.003,1.018-0.306c0.312-0.363,0.403-0.937,0.219-1.364c-0.023-0.053-0.023-0.114-0.002-0.167
		c0.236-0.571,0.645-1.012,1.183-1.277c0.135-0.067,0.25-0.311,0.19-0.512c-0.056-0.186-0.242-0.24-0.421-0.25
		C52.787,47.752,51.565,49.01,51.565,50.867z"/>
	<path class="st0" d="M41.88,28.63c-0.281,0.008-0.501,0.252-0.493,0.544c0.008,0.293,0.242,0.524,0.522,0.516
		c0.281-0.008,0.502-0.252,0.494-0.545C42.396,28.853,42.162,28.622,41.88,28.63z"/>
	<path class="st0" d="M39.231,29.466c-0.035-0.29-0.291-0.498-0.569-0.463c-0.278,0.034-0.476,0.298-0.439,0.588
		c0.035,0.29,0.291,0.498,0.57,0.464C39.071,30.021,39.266,29.757,39.231,29.466z"/>
	<path class="st0" d="M35.584,29.831c-0.272,0.068-0.436,0.353-0.365,0.637c0.071,0.284,0.35,0.46,0.622,0.392
		c0.274-0.068,0.436-0.353,0.365-0.637C36.136,29.938,35.858,29.763,35.584,29.831z"/>
	<path class="st0" d="M45.687,29.229c0.054-0.288-0.128-0.563-0.404-0.614c-0.275-0.051-0.543,0.141-0.597,0.429
		c-0.054,0.288,0.128,0.564,0.404,0.614C45.367,29.709,45.633,29.517,45.687,29.229z"/>
	<path class="st0" d="M48.472,29.185c-0.252-0.121-0.56-0.006-0.688,0.258c-0.126,0.264-0.023,0.578,0.23,0.698
		c0.253,0.122,0.561,0.006,0.688-0.258C48.829,29.618,48.727,29.306,48.472,29.185z"/>
	<path class="st1" d="M42.109,31.426c0,0.406,0.33,0.735,0.737,0.735c0.405,0,0.735-0.329,0.735-0.735
		c0-0.406-0.33-0.736-0.735-0.736C42.438,30.69,42.109,31.019,42.109,31.426z"/>
	<path class="st1" d="M39.412,32.496c0.406,0,0.736-0.329,0.736-0.735c0-0.406-0.33-0.735-0.736-0.735
		c-0.406,0-0.736,0.329-0.736,0.735C38.676,32.168,39.006,32.496,39.412,32.496z"/>
	<path class="st1" d="M46.171,30.813c-0.407,0-0.737,0.329-0.737,0.735c0,0.406,0.33,0.735,0.737,0.735
		c0.405,0,0.735-0.329,0.735-0.735C46.905,31.142,46.575,30.813,46.171,30.813z"/>
	<path class="st2" d="M42.745,55.589c-0.868-0.397-1.346,0.186-1.346,0.729c0,0.544,0.814,1.615,1.776,1.294
		C42.451,57.304,42.331,56.245,42.745,55.589z"/>
	<path class="st2" d="M40.653,57.107c0.222-0.265,0.359-0.569,0.359-0.788c0-0.544-0.479-1.127-1.347-0.729
		c0.291,0.46,0.312,1.115,0.053,1.574C40.034,57.072,40.348,57.053,40.653,57.107z"/>
	<path class="st0" d="M47.124,53.862c0.481,0,0.872-0.39,0.872-0.871c0-0.481-0.39-0.871-0.872-0.871c-0.481,0-0.87,0.39-0.87,0.871
		C46.254,53.472,46.643,53.862,47.124,53.862z"/>
	<path class="st0" d="M47.609,56.319c0.481,0,0.872-0.39,0.872-0.871c0-0.481-0.39-0.871-0.872-0.871
		c-0.48,0-0.869,0.39-0.869,0.871C46.74,55.929,47.129,56.319,47.609,56.319z"/>
	<path class="st0" d="M49.094,56.742c-0.481,0-0.87,0.39-0.87,0.871s0.389,0.871,0.87,0.871c0.48,0,0.87-0.39,0.87-0.871
		S49.574,56.742,49.094,56.742z"/>
	<path class="st0" d="M51.104,58.525c-0.481,0-0.87,0.39-0.87,0.871c0,0.481,0.389,0.871,0.87,0.871c0.48,0,0.87-0.39,0.87-0.871
		C51.974,58.915,51.584,58.525,51.104,58.525z"/>
	<path class="st0" d="M53.495,61.431c0.481,0,0.871-0.39,0.871-0.871c0-0.481-0.39-0.871-0.871-0.871c-0.48,0-0.87,0.39-0.87,0.871
		C52.624,61.041,53.015,61.431,53.495,61.431z"/>
	<path class="st2" d="M44.843,58.181c-0.685-0.322-1.672,0.105-2.644,1.138c-0.058,0.062-0.145,0.083-0.227,0.056
		c-0.08-0.027-0.136-0.1-0.144-0.184c-0.081-0.893-0.526-1.512-1.191-1.657c-0.722-0.153-1.826,0.267-2.901,1.823
		c4.836-0.224,8.398,0.992,10.039,3.493c0.07,0.106,0.117,0.224,0.18,0.334c0.663-0.361,1.088-0.98,1.202-1.495
		c0.055-0.249,0.093-0.714-0.262-1.032c-0.292-0.262-1.073-0.601-3.003,0.053c-0.069,0.024-0.147,0.01-0.205-0.037
		s-0.087-0.12-0.077-0.193C45.752,59.351,45.458,58.47,44.843,58.181z"/>
	<path class="st2" d="M32.551,59.047c-0.304,0.452-0.885,0.68-1.562,0.775c-0.002,0.291,0.073,0.637,0.247,1.036
		c0.032,0.075,0.02,0.161-0.032,0.224c-0.053,0.063-0.141,0.091-0.214,0.072c-0.656-0.154-1.215-0.21-1.66-0.179
		c0.041,0.998,0.112,2.006,0.215,3.004c0.043-0.174,0.086-0.349,0.151-0.523c0.391-1.05,1.463-2.683,4.349-3.545
		C33.54,59.475,33.02,59.187,32.551,59.047z"/>
	<path class="st0" d="M31.973,69.611c0.107,0.246,0.209,0.479,0.345,0.712c0.467,0.808,1.062,1.556,1.72,2.166
		c1.391,0.785,5.354,0.981,8.702,0.42c-0.321-3.365,0.741-8.253,5.035-9.155c-0.108-0.229-0.219-0.456-0.358-0.668
		c-1.432-2.181-4.437-3.343-8.557-3.343c-0.576,0-1.174,0.022-1.793,0.068c-4.973,0.369-6.5,2.535-6.969,3.792
		c-0.621,1.671-0.103,3.391,0.731,4.227C31.48,68.483,31.731,69.056,31.973,69.611z M36.509,69.047
		c-0.152,0.087-0.31,0.151-0.469,0.206c0.164,0.064,0.324,0.155,0.475,0.292c-0.623-0.035-2.352,0.339-3.016,1.155
		c-0.775-0.346-1.189-1.216-1.235-1.95c0.299,0.649,0.818,1.193,1.145,1.376c0.174-0.182,0.604-0.523,1.121-0.752
		c-0.995-0.143-1.936-0.658-2.492-1.189c-0.061-0.058-0.082-0.146-0.055-0.225c0.444-1.308,1.708-1.708,2.686-1.525
		c1.008,0.186,2.002,1.01,1.949,2.432C36.614,68.943,36.573,69.011,36.509,69.047z M36.567,67.555
		c-0.018,0.004-0.035,0.006-0.052,0.006c-0.097,0-0.185-0.065-0.209-0.163c-0.146-0.593-0.599-1.096-1.18-1.314
		c-0.639-0.238-1.344-0.122-1.993,0.33c-0.096,0.067-0.231,0.045-0.3-0.053c-0.067-0.097-0.044-0.231,0.054-0.299
		c0.768-0.536,1.616-0.67,2.39-0.38c0.724,0.271,1.264,0.875,1.447,1.614C36.752,67.41,36.682,67.527,36.567,67.555z M39.123,65.616
		c1.001-0.413,2.169-0.231,3.054,0.472c0.093,0.074,0.108,0.209,0.034,0.302c-0.073,0.092-0.207,0.108-0.302,0.035
		c-0.911-0.723-1.95-0.688-2.622-0.411c-0.644,0.266-1.069,0.773-1.138,1.358c-0.013,0.109-0.106,0.19-0.214,0.19
		c-0.008,0-0.017,0-0.025-0.001c-0.117-0.014-0.202-0.121-0.188-0.238C37.81,66.579,38.333,65.941,39.123,65.616z M40.401,72.277
		c-0.18-1.383-1.716-2.572-2.284-2.697c1.633-0.277,2.366,1.176,2.532,1.951c0.29-0.138,1.009-0.498,1.811-0.996
		C42.144,70.936,41.368,71.724,40.401,72.277z M43.134,68.2c-0.775,0.616-2.18,1.217-3.576,1.217c-0.588,0-1.174-0.106-1.712-0.362
		c-0.071-0.034-0.118-0.105-0.122-0.185c-0.051-1.165,0.771-2.104,2.092-2.394c1.271-0.278,2.839,0.139,3.384,1.474
		C43.236,68.039,43.209,68.14,43.134,68.2z M40.278,62.828c0.314-0.094,0.708-0.168,1.083-0.105c0.375,0.062,0.755,0.255,0.984,0.6
		c0.075,0.185,0.177,0.365,0.177,0.562c0.009,0.101,0.028,0.183,0.026,0.298l-0.025,0.268c-0.06,0.404-0.331,0.748-0.686,0.887
		c-0.349,0.143-0.732,0.114-1.035-0.03c-0.305-0.138-0.541-0.412-0.581-0.712c-0.02-0.073-0.01-0.145-0.004-0.215
		c0.001-0.072,0.017-0.146,0.039-0.199c0.048-0.129,0.132-0.236,0.228-0.306c0.197-0.139,0.421-0.145,0.576-0.096
		c0.16,0.051,0.25,0.16,0.279,0.24c0.033,0.08,0.028,0.128,0.032,0.127c-0.003,0.001-0.003-0.048-0.042-0.122
		c-0.035-0.075-0.129-0.169-0.281-0.203c-0.147-0.035-0.35-0.007-0.509,0.126c-0.161,0.13-0.222,0.378-0.179,0.624
		c0.045,0.245,0.247,0.461,0.515,0.568c0.265,0.113,0.596,0.115,0.876-0.002c0.285-0.112,0.493-0.399,0.537-0.708l0.022-0.269
		c-0.002-0.065-0.021-0.161-0.029-0.24c0-0.175-0.094-0.313-0.151-0.467c-0.179-0.273-0.482-0.44-0.809-0.501
		c-0.336-0.057-0.652-0.008-0.991,0.085c-0.286,0.108-0.586,0.262-0.809,0.453c-0.243,0.178-0.422,0.42-0.601,0.626
		c-0.19,0.201-0.375,0.385-0.589,0.482c-0.098,0.064-0.212,0.072-0.309,0.094c-0.098-0.008-0.194-0.013-0.269-0.045
		c-0.071-0.039-0.136-0.073-0.191-0.104c-0.045-0.042-0.084-0.079-0.115-0.108c-0.062-0.059-0.095-0.09-0.095-0.09
		s0.035,0.028,0.102,0.081c0.034,0.027,0.075,0.059,0.123,0.098c0.055,0.024,0.119,0.052,0.19,0.082
		c0.071,0.024,0.16,0.021,0.249,0.021c0.087-0.03,0.186-0.041,0.272-0.109c0.186-0.103,0.348-0.295,0.524-0.494
		c0.168-0.211,0.333-0.462,0.585-0.67C39.644,63.132,39.928,62.959,40.278,62.828z M31.86,63.702l0.086-0.249
		c0.143-0.318,0.42-0.598,0.764-0.688c0.328-0.092,0.712-0.047,0.976,0.062c0.313,0.138,0.545,0.32,0.74,0.543
		c0.202,0.208,0.325,0.443,0.455,0.644c0.134,0.195,0.26,0.376,0.407,0.49c0.139,0.138,0.313,0.144,0.438,0.107
		c0.058-0.032,0.115-0.057,0.16-0.086c0.039-0.038,0.073-0.07,0.1-0.097c0.054-0.052,0.083-0.08,0.083-0.08
		s-0.026,0.031-0.075,0.088c-0.025,0.029-0.055,0.064-0.09,0.106c-0.043,0.034-0.099,0.068-0.161,0.108
		c-0.13,0.058-0.344,0.063-0.507-0.072c-0.175-0.111-0.323-0.288-0.469-0.484c-0.141-0.196-0.279-0.424-0.475-0.603
		c-0.176-0.188-0.431-0.35-0.667-0.456c-0.299-0.109-0.561-0.119-0.845-0.046c-0.279,0.079-0.488,0.304-0.603,0.565L32.1,63.759
		c-0.015,0.072-0.018,0.148-0.029,0.222c-0.028,0.145-0.013,0.291,0.002,0.454c0.036,0.274,0.192,0.546,0.425,0.662
		c0.23,0.127,0.519,0.116,0.734-0.006c0.22-0.116,0.357-0.336,0.379-0.558c0.012-0.055,0.001-0.111,0.003-0.165
		c0.004-0.056-0.007-0.09-0.023-0.153c-0.016-0.118-0.071-0.186-0.117-0.26c-0.123-0.134-0.298-0.166-0.424-0.128
		c-0.062,0.026-0.117,0.05-0.147,0.097c-0.04,0.037-0.065,0.074-0.071,0.113c-0.024,0.071-0.036,0.109-0.036,0.109
		s0.009-0.039,0.026-0.113c0.003-0.04,0.025-0.081,0.063-0.125c0.027-0.053,0.084-0.086,0.151-0.121
		c0.135-0.056,0.342-0.043,0.505,0.105c0.159,0.165,0.22,0.39,0.212,0.654c-0.01,0.26-0.163,0.545-0.428,0.702
		c-0.256,0.164-0.621,0.206-0.927,0.041c-0.312-0.157-0.506-0.483-0.558-0.834c-0.017-0.152-0.037-0.326-0.01-0.499
		C31.84,63.873,31.843,63.787,31.86,63.702z"/>
	<path class="st0" d="M34.59,66.86c-0.792-0.148-1.753,0.144-2.151,1.111c0.828,0.719,2.481,1.397,3.751,0.761
		C36.176,67.568,35.33,66.996,34.59,66.86z M34.875,68.616c-0.322,0-0.584-0.262-0.584-0.584c0-0.323,0.262-0.585,0.584-0.585
		s0.585,0.262,0.585,0.585C35.46,68.354,35.197,68.616,34.875,68.616z"/>
	<path class="st0" d="M40.855,67.876c-0.084,0-0.153,0.07-0.153,0.155c0,0.085,0.069,0.154,0.153,0.154
		c0.086,0,0.156-0.069,0.156-0.154C41.011,67.946,40.941,67.876,40.855,67.876z"/>
	<path class="st0" d="M39.907,66.897c-0.847,0.185-1.732,0.761-1.756,1.824c1.55,0.653,3.567-0.029,4.581-0.757
		C42.224,66.969,40.953,66.668,39.907,66.897z M40.855,68.616c-0.321,0-0.583-0.262-0.583-0.584c0-0.323,0.262-0.585,0.583-0.585
		c0.323,0,0.586,0.262,0.586,0.585C41.441,68.354,41.178,68.616,40.855,68.616z"/>
	<path class="st0" d="M34.875,67.876c-0.085,0-0.154,0.07-0.154,0.155c0,0.085,0.069,0.154,0.154,0.154
		c0.086,0,0.155-0.069,0.155-0.154C35.03,67.946,34.961,67.876,34.875,67.876z"/>
	<path class="st2" d="M53.097,66.846c-0.006-0.708-0.378-1.442-0.994-1.962c-0.508-0.428-1.369-0.875-2.754-0.875
		c-0.37,0-0.777,0.032-1.226,0.105c-4.233,0.688-5.262,5.451-4.956,8.724c1.531-0.292,2.9-0.748,3.779-1.39c0,0,0.001,0,0.001,0
		c0.001-0.001,0.001-0.001,0.002-0.002c0.505-0.355,0.913-1.043,1.214-2.045c0.472-1.564,1.82-2.413,2.876-2.364
		c0.662,0.042,1.12,0.447,1.226,1.082c0.04,0.242-0.024,0.5-0.154,0.703C52.629,68.658,53.108,68.013,53.097,66.846z M48.986,67.174
		c-1.33,0.34-2.034,1.834-2.166,2.696c-0.017,0.106-0.108,0.182-0.213,0.182c-0.011,0-0.021,0-0.032-0.002
		c-0.117-0.018-0.198-0.127-0.181-0.245c0.148-0.97,0.954-2.655,2.484-3.047c0.12-0.029,0.232,0.041,0.262,0.155
		S49.1,67.144,48.986,67.174z M49.142,65.398c-2.968,0.139-4.389,3.702-4.458,5.489c-0.005,0.116-0.1,0.207-0.215,0.207
		c-0.003,0-0.006,0-0.009,0c-0.118-0.004-0.211-0.104-0.206-0.223c0.075-1.92,1.625-5.75,4.868-5.902
		c0.11-0.007,0.219,0.086,0.225,0.205S49.261,65.392,49.142,65.398z"/>
	<path class="st2" d="M47.85,75.96c0.01,0.355-0.056,0.688-0.207,0.939c-0.134,0.223-0.322,0.37-0.543,0.424
		c-0.063,0.016-0.128,0.024-0.192,0.024c-0.163,0-0.328-0.049-0.488-0.145c-0.371-0.224-0.673-0.681-0.808-1.224
		c-0.086-0.345-0.088-0.687-0.026-0.989c-0.381,0.127-0.78,0.241-1.197,0.342c0.21,0.275,0.357,0.647,0.407,1.055
		c0.114,0.926-0.284,1.712-0.907,1.79c-0.033,0.004-0.065,0.006-0.099,0.006c-0.282,0-0.557-0.149-0.782-0.427
		c-0.229-0.282-0.383-0.67-0.436-1.094c-0.044-0.355-0.004-0.696,0.095-0.99c-0.433,0.066-0.871,0.122-1.314,0.166
		c0.164,0.288,0.271,0.641,0.281,1.024c0.025,0.933-0.446,1.678-1.074,1.695c-0.007,0-0.014,0-0.021,0
		c-0.618,0-1.118-0.712-1.146-1.634c-0.01-0.364,0.058-0.697,0.179-0.971c-0.302,0.01-0.606,0.021-0.902,0.021
		c-0.145,0-0.285-0.005-0.428-0.007c0.127,0.334,0.156,0.741,0.081,1.154c-0.102,0.55-0.375,1.025-0.732,1.271
		c-0.169,0.116-0.348,0.175-0.524,0.175c-0.049,0-0.098-0.005-0.146-0.014c-0.224-0.041-0.42-0.176-0.568-0.391
		c-0.246-0.357-0.332-0.899-0.23-1.449c0.06-0.321,0.192-0.599,0.353-0.841c-0.376-0.036-0.739-0.079-1.076-0.133
		c0.035,0.356-0.042,0.757-0.223,1.135c0,0,0,0-0.001,0c-0.242,0.505-0.631,0.893-1.04,1.036c-0.114,0.04-0.227,0.06-0.335,0.06
		c-0.125,0-0.244-0.026-0.354-0.079c-0.204-0.098-0.358-0.279-0.445-0.525c-0.085-0.24-0.092-0.529-0.041-0.827
		c-0.674,1.57-1.55,2.922-2.631,4.034h19.144C48.798,79.445,48.31,77.835,47.85,75.96z"/>
	<path class="st2" d="M47.125,74.332c0.195,0.16,0.364,0.38,0.491,0.647c-0.063-0.271-0.126-0.544-0.189-0.823
		C47.33,74.217,47.23,74.276,47.125,74.332z"/>
	<path class="st2" d="M33.613,75.279c-0.052-0.021-0.094-0.044-0.142-0.066c-0.055,0.164-0.117,0.32-0.175,0.48
		C33.39,75.537,33.493,75.399,33.613,75.279z"/>
	<path d="M49.122,64.969c-3.243,0.152-4.793,3.982-4.868,5.902c-0.005,0.119,0.088,0.219,0.206,0.223c0.003,0,0.006,0,0.009,0
		c0.115,0,0.21-0.091,0.215-0.207c0.069-1.787,1.49-5.35,4.458-5.489c0.119-0.006,0.211-0.106,0.205-0.225
		S49.233,64.962,49.122,64.969z"/>
	<path d="M48.878,66.757c-1.53,0.392-2.336,2.078-2.484,3.047c-0.018,0.118,0.063,0.228,0.181,0.245
		c0.011,0.002,0.021,0.002,0.032,0.002c0.104,0,0.196-0.076,0.213-0.182c0.132-0.862,0.836-2.355,2.166-2.696
		c0.114-0.03,0.184-0.147,0.154-0.262S48.998,66.727,48.878,66.757z"/>
	<path d="M39.816,66.476c-1.321,0.29-2.143,1.229-2.092,2.394c0.004,0.08,0.051,0.151,0.122,0.185
		c0.538,0.256,1.124,0.362,1.712,0.362c1.396,0,2.801-0.601,3.576-1.217c0.075-0.06,0.102-0.161,0.065-0.25
		C42.655,66.616,41.086,66.198,39.816,66.476z M38.152,68.721c0.023-1.063,0.909-1.639,1.756-1.824
		c1.046-0.229,2.316,0.072,2.825,1.067C41.719,68.692,39.701,69.374,38.152,68.721z"/>
	<path d="M34.668,66.437c-0.978-0.183-2.241,0.218-2.686,1.525c-0.027,0.079-0.006,0.167,0.055,0.225
		c0.556,0.531,1.497,1.047,2.492,1.189c-0.517,0.229-0.947,0.569-1.121,0.752c-0.327-0.184-0.846-0.727-1.145-1.376
		c0.047,0.733,0.461,1.603,1.235,1.95c0.664-0.816,2.393-1.19,3.016-1.155c-0.151-0.137-0.311-0.228-0.475-0.292
		c0.16-0.055,0.317-0.119,0.469-0.206c0.064-0.037,0.105-0.104,0.108-0.179C36.67,67.447,35.676,66.623,34.668,66.437z
		 M32.439,67.971c0.398-0.967,1.359-1.259,2.151-1.111c0.74,0.137,1.586,0.708,1.6,1.872C34.92,69.368,33.267,68.69,32.439,67.971z"
		/>
	<path d="M38.117,69.58c0.568,0.125,2.103,1.314,2.284,2.697c0.967-0.554,1.743-1.341,2.06-1.742
		c-0.802,0.497-1.522,0.858-1.811,0.996C40.483,70.756,39.751,69.303,38.117,69.58z"/>
	<path d="M38.814,64.027c-0.176,0.199-0.338,0.391-0.524,0.494c-0.086,0.068-0.185,0.079-0.272,0.109
		c-0.088-0.001-0.177,0.003-0.249-0.021c-0.071-0.031-0.135-0.058-0.19-0.082c-0.049-0.038-0.09-0.071-0.123-0.098
		c-0.067-0.053-0.102-0.081-0.102-0.081s0.033,0.031,0.095,0.09c0.031,0.029,0.07,0.065,0.115,0.108
		c0.055,0.03,0.12,0.065,0.191,0.104c0.075,0.032,0.171,0.038,0.269,0.045c0.097-0.022,0.212-0.03,0.309-0.094
		c0.214-0.096,0.398-0.281,0.589-0.482c0.179-0.206,0.358-0.448,0.601-0.626c0.223-0.192,0.524-0.345,0.809-0.453
		c0.339-0.093,0.655-0.143,0.991-0.085c0.327,0.061,0.63,0.228,0.809,0.501c0.056,0.153,0.151,0.292,0.151,0.467
		c0.008,0.079,0.027,0.175,0.029,0.24L42.29,64.43c-0.044,0.309-0.253,0.596-0.537,0.708c-0.28,0.117-0.611,0.115-0.876,0.002
		c-0.268-0.108-0.47-0.324-0.515-0.568c-0.043-0.246,0.018-0.494,0.179-0.624c0.159-0.133,0.362-0.161,0.509-0.126
		c0.151,0.034,0.245,0.128,0.281,0.203c0.038,0.075,0.038,0.124,0.042,0.122c-0.004,0.001,0.001-0.047-0.032-0.127
		c-0.029-0.08-0.119-0.189-0.279-0.24c-0.155-0.05-0.379-0.043-0.576,0.096c-0.096,0.07-0.179,0.176-0.228,0.306
		c-0.022,0.053-0.038,0.127-0.039,0.199c-0.006,0.07-0.016,0.142,0.004,0.215c0.04,0.299,0.276,0.574,0.581,0.712
		c0.303,0.144,0.685,0.174,1.035,0.03c0.355-0.138,0.626-0.482,0.686-0.887l0.025-0.268c0.002-0.115-0.017-0.197-0.026-0.298
		c0-0.197-0.103-0.378-0.177-0.562c-0.229-0.345-0.61-0.538-0.984-0.6c-0.375-0.062-0.769,0.011-1.083,0.105
		c-0.35,0.131-0.634,0.304-0.878,0.529C39.147,63.565,38.982,63.816,38.814,64.027z"/>
	<path d="M31.84,64.456c0.051,0.352,0.246,0.677,0.558,0.834c0.306,0.165,0.671,0.123,0.927-0.041
		c0.265-0.158,0.417-0.443,0.428-0.702c0.007-0.264-0.053-0.489-0.212-0.654c-0.163-0.148-0.37-0.161-0.505-0.105
		c-0.067,0.035-0.123,0.067-0.151,0.121c-0.038,0.043-0.06,0.084-0.063,0.125c-0.017,0.074-0.026,0.113-0.026,0.113
		s0.013-0.038,0.036-0.109c0.006-0.038,0.031-0.076,0.071-0.113c0.029-0.047,0.085-0.071,0.147-0.097
		c0.126-0.037,0.302-0.006,0.424,0.128c0.046,0.075,0.101,0.142,0.117,0.26c0.016,0.062,0.027,0.097,0.023,0.153
		c-0.002,0.054,0.009,0.11-0.003,0.165c-0.022,0.222-0.159,0.442-0.379,0.558c-0.215,0.122-0.504,0.133-0.734,0.006
		c-0.234-0.117-0.389-0.389-0.425-0.662c-0.015-0.163-0.03-0.309-0.002-0.454c0.01-0.074,0.013-0.15,0.029-0.222l0.076-0.206
		c0.115-0.261,0.323-0.486,0.603-0.565c0.284-0.073,0.546-0.063,0.845,0.046c0.236,0.106,0.49,0.268,0.667,0.456
		c0.196,0.179,0.334,0.406,0.475,0.603c0.146,0.196,0.294,0.372,0.469,0.484c0.163,0.135,0.377,0.13,0.507,0.072
		c0.062-0.041,0.118-0.074,0.161-0.108c0.035-0.042,0.066-0.077,0.09-0.106c0.049-0.058,0.075-0.088,0.075-0.088
		s-0.029,0.028-0.083,0.08c-0.027,0.026-0.06,0.059-0.1,0.097c-0.045,0.029-0.102,0.054-0.16,0.086
		c-0.125,0.037-0.299,0.031-0.438-0.107c-0.147-0.114-0.273-0.296-0.407-0.49c-0.129-0.201-0.253-0.435-0.455-0.644
		c-0.195-0.222-0.427-0.405-0.74-0.543c-0.264-0.108-0.648-0.154-0.976-0.062c-0.344,0.09-0.622,0.37-0.764,0.688l-0.086,0.249
		c-0.017,0.084-0.02,0.17-0.03,0.255C31.803,64.13,31.824,64.305,31.84,64.456z"/>
	<path d="M37.91,67.56c0.009,0.001,0.018,0.001,0.025,0.001c0.107,0,0.201-0.081,0.214-0.19c0.068-0.585,0.494-1.093,1.138-1.358
		c0.672-0.276,1.711-0.312,2.622,0.411c0.095,0.074,0.229,0.058,0.302-0.035c0.074-0.093,0.059-0.229-0.034-0.302
		c-0.885-0.703-2.053-0.884-3.054-0.472c-0.79,0.326-1.313,0.964-1.401,1.706C37.708,67.439,37.793,67.546,37.91,67.56z"/>
	<path d="M35.277,65.681c-0.773-0.29-1.622-0.155-2.39,0.38c-0.098,0.068-0.121,0.202-0.054,0.299c0.068,0.098,0.204,0.12,0.3,0.053
		c0.649-0.452,1.354-0.568,1.993-0.33c0.581,0.218,1.033,0.722,1.18,1.314c0.024,0.098,0.112,0.163,0.209,0.163
		c0.017,0,0.034-0.002,0.052-0.006c0.115-0.028,0.186-0.145,0.157-0.26C36.54,66.556,36,65.952,35.277,65.681z"/>
	<path d="M40.855,67.447c-0.321,0-0.583,0.262-0.583,0.585c0,0.322,0.262,0.584,0.583,0.584c0.323,0,0.586-0.262,0.586-0.584
		C41.441,67.709,41.178,67.447,40.855,67.447z M40.855,68.186c-0.084,0-0.153-0.069-0.153-0.154c0-0.085,0.069-0.155,0.153-0.155
		c0.086,0,0.156,0.07,0.156,0.155C41.011,68.117,40.941,68.186,40.855,68.186z"/>
	<path d="M34.875,67.447c-0.322,0-0.584,0.262-0.584,0.585c0,0.322,0.262,0.584,0.584,0.584s0.585-0.262,0.585-0.584
		C35.46,67.709,35.197,67.447,34.875,67.447z M34.875,68.186c-0.085,0-0.154-0.069-0.154-0.154c0-0.085,0.069-0.155,0.154-0.155
		c0.086,0,0.155,0.07,0.155,0.155C35.03,68.117,34.961,68.186,34.875,68.186z"/>
	<path class="st1" d="M38.283,53.656h1.221c-0.032-0.202-0.054-0.411-0.054-0.629c0-0.219,0.022-0.427,0.054-0.629h-1.221V53.656z"
		/>
	<path class="st0" d="M27.612,79.254c0.624-1.649,2.085-3.553,4.266-4.644c-1.678-2.283-2.924-9.384-3.011-14.792
		c-0.301-0.029-0.58-0.064-0.822-0.096c-0.026,4.345-0.228,11.909-0.435,14.31c-0.208-2.412-0.411-10.038-0.435-14.372
		c-0.271-0.008-0.541-0.021-0.817-0.002c-0.055,4.741-0.981,10.423-2.203,13.419v1.998C25.742,76.099,27.015,77.649,27.612,79.254z"
		/>
	<path class="st4" d="M27.61,74.033c0.207-2.401,0.409-9.965,0.435-14.31c-0.077-0.01-0.154-0.021-0.222-0.03l-0.24-0.032
		c-0.131-0.011-0.273,0.003-0.408-0.001C27.199,63.995,27.401,71.621,27.61,74.033z"/>
	<path class="st2" d="M24.154,58.427v2.088c0.133-0.037,0.246-0.104,0.332-0.197c0.139-0.15,0.203-0.363,0.189-0.632
		c-0.005-0.102,0.062-0.193,0.16-0.219c0.858-0.225,1.875-0.31,2.793-0.232l0.252,0.034c1.146,0.155,4.193,0.571,4.448-0.775
		c0.11-0.587-0.182-0.901-0.366-1.037c-0.315-0.23-0.749-0.278-1.052-0.113c-0.257,0.138-0.384,0.403-0.366,0.769
		c0.005,0.102-0.062,0.192-0.16,0.218c-0.391,0.103-0.817,0.172-1.251,0.214c-0.313,0.128-0.659,0.206-1.022,0.249
		c-0.014,0.005-0.022,0.019-0.037,0.021c-0.078,0.01-0.151,0.014-0.219,0.014c-0.019,0-0.03-0.007-0.048-0.008
		c-0.074,0.004-0.142,0.019-0.217,0.019c-0.713,0-1.313-0.168-1.805-0.469C25.236,58.338,24.655,58.34,24.154,58.427z"/>
	<path class="st0" d="M30.846,55.186c0-1.927-1.309-3.222-3.257-3.222c-2.465,0-2.833,2.019-2.833,3.222
		c0,1.095,0.324,2.849,2.238,3.158c-0.012-0.028-0.029-0.061-0.035-0.081c-0.114-0.385,0.073-0.853,0.411-1.02
		c0.295-0.146,0.691-0.432,0.942-0.978c-0.203-0.564-0.077-1.261,0.321-1.725c0.366-0.427,0.894-0.586,1.454-0.441
		c0.114,0.03,0.184,0.147,0.153,0.263c-0.03,0.114-0.142,0.184-0.263,0.153c-0.396-0.104-0.76,0.003-1.019,0.305
		c-0.312,0.363-0.403,0.937-0.218,1.364c0.023,0.053,0.023,0.114,0.001,0.168c-0.236,0.57-0.646,1.011-1.183,1.276
		c-0.135,0.067-0.249,0.31-0.189,0.511c0.056,0.186,0.242,0.24,0.421,0.25C29.624,58.301,30.846,57.044,30.846,55.186z"/>
	<path class="st2" d="M41.205,50.821c-0.718,0-1.325,1.01-1.325,2.206s0.607,2.206,1.325,2.206s1.325-1.01,1.325-2.206
		S41.923,50.821,41.205,50.821z M42.187,53.027c0,0.796-0.431,1.42-0.981,1.42s-0.981-0.624-0.981-1.42s0.431-1.42,0.981-1.42
		S42.187,52.23,42.187,53.027z"/>
	<ellipse class="st2" cx="41.205" cy="53.027" rx="0.552" ry="0.99"/>
	<path d="M41.205,51.607c-0.551,0-0.981,0.624-0.981,1.42s0.431,1.42,0.981,1.42s0.981-0.624,0.981-1.42
		S41.756,51.607,41.205,51.607z M41.757,53.027c0,0.583-0.291,0.99-0.552,0.99s-0.552-0.407-0.552-0.99s0.291-0.99,0.552-0.99
		S41.757,52.443,41.757,53.027z"/>
	<path d="M58.472,25.051h-5.864H32.543h-8.604c-0.119,0-0.215,0.096-0.215,0.215v24.35v0.005v0.733v1.397v3.657v1.032v1.811v2.513
		v12.272v2.159v5.595c0,0.119,0.096,0.215,0.215,0.215h5.865h20.063h8.604c0.119,0,0.215-0.096,0.215-0.215V56.439v-0.005v-0.733
		v-1.397v-3.658v-1.031v-1.812v-2.513V33.019V30.86v-5.594C58.687,25.147,58.591,25.051,58.472,25.051z M56.243,59.676
		c-0.102,0.123-0.195,0.257-0.301,0.375c-5.019-1.209-7.271-4.514-7.271-7.311c0-1.413,0.541-2.704,1.529-3.792
		c0.123,0.089,0.258,0.155,0.397,0.203c0.161,0.056,0.327,0.089,0.493,0.089c0.152,0,0.297-0.033,0.437-0.081
		c-0.101,0.208-0.182,0.429-0.244,0.663l-1.025-0.275c-0.271,0.341-0.497,0.7-0.676,1.076l1.009,0.271
		c0.149,1.241,0.766,2.372,1.76,3.316c-0.889-0.584-1.966-1.065-3.246-1.377c0.003,0.148,0.01,0.297,0.026,0.447
		c4.217,1.077,6.078,4.082,6.141,6.139c0.142,0.043,0.286,0.084,0.433,0.123c0.001-1.314-0.691-3.015-2.198-4.426
		c1.218,0.793,2.765,1.378,4.547,1.689C57.552,57.871,56.943,58.83,56.243,59.676z M51.039,67.035
		c-1.056-0.048-2.404,0.8-2.876,2.364c-0.301,1.002-0.709,1.69-1.214,2.045c-0.001,0.001-0.001,0.001-0.002,0.002
		c0,0-0.001,0-0.001,0c-0.88,0.642-2.248,1.099-3.779,1.39c-0.306-3.273,0.723-8.035,4.956-8.724
		c0.448-0.073,0.855-0.105,1.226-0.105c1.385,0,2.246,0.448,2.754,0.875c0.616,0.52,0.988,1.254,0.994,1.962
		c0.011,1.167-0.468,1.813-0.986,1.974c0.13-0.203,0.194-0.461,0.154-0.703C52.159,67.481,51.701,67.077,51.039,67.035z
		 M26.168,46.378c0.102-0.123,0.196-0.257,0.302-0.376c5.018,1.208,7.27,4.514,7.27,7.311c0,0.786-0.169,1.535-0.487,2.232
		l-0.424-0.114L31.82,55.16c-0.149-1.24-0.765-2.37-1.758-3.314c0.888,0.583,1.965,1.063,3.243,1.375
		c-0.003-0.148-0.01-0.297-0.026-0.447c-4.217-1.078-6.078-4.082-6.14-6.138c-0.142-0.043-0.286-0.084-0.433-0.123
		c-0.001,1.314,0.69,3.014,2.195,4.424c-1.217-0.792-2.763-1.377-4.544-1.687C24.859,48.183,25.468,47.223,26.168,46.378z
		 M31.373,39.019c1.033,0.073,2.403-0.8,2.875-2.364c0.301-1.003,0.709-1.691,1.213-2.045c0.001-0.001,0.001-0.001,0.002-0.002
		c0,0,0.001,0,0.001,0c0.88-0.642,2.248-1.099,3.779-1.39c0.306,3.272-0.723,8.035-4.956,8.724c-2.125,0.347-3.337-0.228-3.979-0.77
		c-0.617-0.52-0.989-1.254-0.996-1.962c-0.011-1.167,0.468-1.813,0.986-1.975c-0.129,0.202-0.193,0.461-0.152,0.702
		C30.252,38.572,30.71,38.976,31.373,39.019z M58.257,50.431h-0.201c-0.07-0.975-0.361-1.756-0.868-2.298
		c0.095,0,0.19-0.002,0.284-0.004c0.284,0.487,0.551,0.993,0.785,1.531V50.431z M58.257,56.392l-0.007,0.014
		c-2.351-0.389-4.26-1.278-5.539-2.472c0.583,0.374,1.301,0.583,2.111,0.583c0.786,0,1.443-0.193,1.958-0.557
		c0.459,0.194,0.947,0.368,1.476,0.509v0.974V56.392z M53.495,59.689c0.481,0,0.871,0.39,0.871,0.871
		c0,0.481-0.39,0.871-0.871,0.871c-0.48,0-0.87-0.39-0.87-0.871C52.624,60.079,53.015,59.689,53.495,59.689z M51.974,59.396
		c0,0.481-0.39,0.871-0.87,0.871c-0.481,0-0.87-0.39-0.87-0.871c0-0.481,0.389-0.871,0.87-0.871
		C51.584,58.525,51.974,58.915,51.974,59.396z M49.094,58.484c-0.481,0-0.87-0.39-0.87-0.871s0.389-0.871,0.87-0.871
		c0.48,0,0.87,0.39,0.87,0.871S49.574,58.484,49.094,58.484z M43.619,75.998c0.278-0.035,0.535,0.173,0.57,0.464
		c0.035,0.29-0.161,0.554-0.439,0.588c-0.279,0.034-0.535-0.173-0.57-0.464C43.144,76.296,43.34,76.033,43.619,75.998z
		 M43.734,74.292c0,0.407-0.33,0.736-0.735,0.736c-0.407,0-0.736-0.329-0.736-0.736c0-0.406,0.328-0.735,0.736-0.735
		C43.404,73.557,43.734,73.886,43.734,74.292z M41.023,76.88c0.009,0.293-0.212,0.537-0.493,0.544
		c-0.282,0.008-0.516-0.224-0.524-0.516c-0.008-0.293,0.213-0.537,0.495-0.544C40.781,76.356,41.016,76.587,41.023,76.88z
		 M39.566,75.364c-0.406,0-0.736-0.329-0.736-0.736c0-0.406,0.33-0.735,0.736-0.735s0.736,0.329,0.736,0.735
		C40.302,75.034,39.972,75.364,39.566,75.364z M33.708,76.171c0.127-0.263,0.435-0.38,0.688-0.258
		c0.253,0.121,0.357,0.434,0.23,0.698c-0.127,0.264-0.435,0.379-0.689,0.258C33.684,76.748,33.581,76.436,33.708,76.171z
		 M36.241,73.77c0.406,0,0.736,0.329,0.736,0.735c0,0.406-0.33,0.735-0.736,0.735s-0.736-0.329-0.736-0.735
		C35.505,74.099,35.835,73.77,36.241,73.77z M37.725,77.01c-0.055,0.288-0.323,0.479-0.598,0.428
		c-0.276-0.051-0.457-0.325-0.404-0.614c0.054-0.287,0.321-0.48,0.598-0.428C37.596,76.446,37.777,76.722,37.725,77.01z
		 M46.571,75.194c0.271-0.068,0.55,0.108,0.621,0.392c0.071,0.285-0.094,0.57-0.365,0.637c-0.273,0.068-0.551-0.107-0.622-0.392
		C46.133,75.547,46.297,75.262,46.571,75.194z M24.154,55.622h0.202c0.07,0.976,0.362,1.757,0.869,2.3
		c-0.096,0-0.191,0.001-0.287,0.004c-0.285-0.487-0.551-0.993-0.785-1.531V55.622z M24.155,49.661l0.006-0.014
		c2.351,0.389,4.26,1.278,5.538,2.471c-0.583-0.373-1.3-0.583-2.11-0.583c-0.786,0-1.444,0.193-1.959,0.557
		c-0.459-0.194-0.947-0.368-1.476-0.509L24.155,49.661z M28.914,46.365c-0.48,0-0.87-0.39-0.87-0.871c0-0.481,0.39-0.871,0.87-0.871
		c0.481,0,0.872,0.39,0.872,0.871C29.786,45.974,29.396,46.365,28.914,46.365z M30.437,46.657c0-0.481,0.389-0.871,0.87-0.871
		c0.481,0,0.87,0.39,0.87,0.871c0,0.481-0.389,0.871-0.87,0.871C30.826,47.529,30.437,47.138,30.437,46.657z M33.316,47.57
		c0.482,0,0.871,0.39,0.871,0.871c0,0.481-0.389,0.871-0.871,0.871c-0.48,0-0.869-0.39-0.869-0.871
		C32.447,47.96,32.836,47.57,33.316,47.57z M38.222,29.592c-0.036-0.291,0.161-0.554,0.439-0.588
		c0.278-0.035,0.534,0.173,0.569,0.463c0.035,0.291-0.16,0.555-0.438,0.589C38.513,30.09,38.258,29.882,38.222,29.592z
		 M38.676,31.761c0-0.406,0.33-0.735,0.736-0.735c0.406,0,0.736,0.329,0.736,0.735c0,0.406-0.33,0.735-0.736,0.735
		C39.006,32.496,38.676,32.168,38.676,31.761z M42.845,30.69c0.405,0,0.735,0.33,0.735,0.736c0,0.406-0.33,0.735-0.735,0.735
		c-0.407,0-0.737-0.329-0.737-0.735C42.109,31.019,42.438,30.69,42.845,30.69z M48.703,29.883c-0.127,0.264-0.435,0.38-0.688,0.258
		c-0.253-0.121-0.356-0.434-0.23-0.698c0.128-0.264,0.436-0.379,0.688-0.258C48.727,29.306,48.829,29.618,48.703,29.883z
		 M46.171,32.283c-0.407,0-0.737-0.329-0.737-0.735c0-0.406,0.33-0.735,0.737-0.735c0.405,0,0.735,0.329,0.735,0.735
		C46.905,31.954,46.575,32.283,46.171,32.283z M44.687,29.044c0.054-0.288,0.322-0.479,0.597-0.429
		c0.276,0.051,0.457,0.326,0.404,0.614c-0.054,0.288-0.319,0.48-0.597,0.429C44.814,29.607,44.633,29.332,44.687,29.044z
		 M41.91,29.69c-0.281,0.008-0.514-0.224-0.522-0.516c-0.008-0.292,0.212-0.536,0.493-0.544c0.282-0.008,0.516,0.224,0.524,0.516
		C42.412,29.438,42.191,29.682,41.91,29.69z M35.841,30.86c-0.271,0.068-0.551-0.108-0.622-0.392
		c-0.071-0.285,0.094-0.57,0.365-0.637c0.274-0.068,0.552,0.107,0.622,0.392C36.276,30.506,36.114,30.792,35.841,30.86z
		 M52.715,42.6c0.065-0.175,0.108-0.35,0.151-0.525c0.103,0.998,0.174,2.008,0.216,3.006c-0.446,0.031-1.006-0.025-1.66-0.179
		c-0.075-0.02-0.162,0.009-0.214,0.072c-0.052,0.063-0.064,0.149-0.032,0.224c0.174,0.398,0.25,0.744,0.247,1.035
		c-0.678,0.095-1.259,0.322-1.563,0.775c-0.47-0.14-0.99-0.428-1.495-0.861C51.252,45.283,52.324,43.65,52.715,42.6z M42.745,50.464
		c-0.868,0.397-1.346-0.186-1.346-0.73c0-0.219,0.137-0.522,0.358-0.787c0.111,0.02,0.223,0.036,0.336,0.036
		c0.199,0,0.401-0.04,0.603-0.099C42.433,49.344,42.453,50.002,42.745,50.464z M45.611,60.479c-0.01,0.073,0.02,0.146,0.077,0.193
		s0.136,0.061,0.205,0.037c1.93-0.654,2.711-0.315,3.003-0.053c0.354,0.318,0.316,0.783,0.262,1.032
		c-0.114,0.515-0.539,1.134-1.202,1.495c-0.062-0.11-0.11-0.228-0.18-0.334c-1.641-2.501-5.203-3.717-10.039-3.493
		c1.075-1.556,2.179-1.976,2.901-1.823c0.665,0.145,1.11,0.764,1.191,1.657c0.008,0.084,0.063,0.156,0.144,0.184
		c0.082,0.028,0.169,0.006,0.227-0.056c0.972-1.033,1.959-1.46,2.644-1.138C45.458,58.47,45.752,59.351,45.611,60.479z
		 M39.665,55.589c0.868-0.397,1.347,0.186,1.347,0.729c0,0.22-0.137,0.523-0.359,0.788c-0.305-0.054-0.619-0.035-0.935,0.056
		C39.978,56.704,39.956,56.05,39.665,55.589z M36.801,45.575c0.01-0.073-0.02-0.146-0.077-0.193
		c-0.059-0.047-0.137-0.063-0.205-0.037c-1.935,0.655-2.711,0.314-3.004,0.053c-0.354-0.318-0.316-0.783-0.262-1.032
		c0.113-0.515,0.538-1.134,1.202-1.496c0.062,0.11,0.11,0.228,0.18,0.334c1.514,2.307,4.647,3.538,8.924,3.537
		c0.359,0,0.74-0.025,1.114-0.042c-1.073,1.554-2.176,1.976-2.899,1.822c-0.666-0.145-1.111-0.764-1.193-1.657
		c-0.008-0.084-0.063-0.156-0.144-0.184c-0.023-0.008-0.047-0.012-0.07-0.012c-0.059,0-0.115,0.023-0.157,0.068
		c-0.97,1.034-1.955,1.46-2.642,1.138C36.952,47.584,36.658,46.703,36.801,45.575z M42.53,53.027c0,1.196-0.607,2.206-1.325,2.206
		s-1.325-1.01-1.325-2.206s0.607-2.206,1.325-2.206S42.53,51.831,42.53,53.027z M41.012,49.734c0,0.544-0.479,1.127-1.347,0.73
		c0.414-0.655,0.295-1.714-0.429-2.023C40.198,48.12,41.012,49.191,41.012,49.734z M39.504,52.397
		c-0.032,0.202-0.054,0.411-0.054,0.629c0,0.219,0.022,0.427,0.054,0.629h-1.221v-1.259H39.504z M39.031,54.731
		c0.063,0,0.124,0.028,0.165,0.077c0.04,0.048,0.058,0.112,0.047,0.175c-0.104,0.598-0.375,1.769-1.005,3.107
		c-0.356,0.346-0.699,0.779-1.024,1.286c-0.061,0.004-0.117,0.002-0.179,0.007c-0.006,0-0.011,0.001-0.016,0.002
		c-0.938,0.07-1.757,0.205-2.477,0.384c-0.127-0.122-0.255-0.225-0.384-0.328c-0.116-0.093-0.232-0.181-0.348-0.26
		c1.993-1.748,2.587-3.647,2.742-4.319c0.025-0.106,0.112-0.175,0.234-0.166c0.034,0.004,0.066,0.016,0.094,0.035H39.031z
		 M29.696,63.454c-0.065,0.174-0.108,0.349-0.151,0.523c-0.103-0.997-0.174-2.006-0.215-3.004c0.445-0.03,1.004,0.025,1.66,0.179
		c0.073,0.019,0.161-0.009,0.214-0.072c0.052-0.063,0.064-0.149,0.032-0.224c-0.174-0.398-0.25-0.745-0.247-1.036
		c0.677-0.095,1.259-0.323,1.562-0.775c0.47,0.14,0.99,0.428,1.494,0.862C31.158,60.771,30.086,62.404,29.696,63.454z
		 M32.211,57.106c-0.123-0.089-0.258-0.154-0.398-0.203c-0.31-0.107-0.639-0.104-0.932-0.001c0.103-0.21,0.185-0.434,0.247-0.67
		l1.024,0.275l0.452,0.122C32.483,56.792,32.351,56.951,32.211,57.106z M27.792,58.391c-0.179-0.01-0.365-0.064-0.421-0.25
		c-0.06-0.201,0.055-0.444,0.189-0.511c0.537-0.265,0.946-0.707,1.183-1.276c0.022-0.054,0.022-0.115-0.001-0.168
		c-0.186-0.427-0.094-1.001,0.218-1.364c0.259-0.302,0.623-0.409,1.019-0.305c0.121,0.031,0.232-0.04,0.263-0.153
		c0.03-0.115-0.039-0.232-0.153-0.263c-0.561-0.145-1.088,0.015-1.454,0.441c-0.398,0.464-0.524,1.161-0.321,1.725
		c-0.251,0.546-0.647,0.832-0.942,0.978c-0.338,0.167-0.525,0.635-0.411,1.02c0.006,0.019,0.023,0.053,0.035,0.081
		c-1.914-0.309-2.238-2.063-2.238-3.158c0-1.203,0.368-3.222,2.833-3.222c1.948,0,3.257,1.295,3.257,3.222
		C30.846,57.044,29.624,58.301,27.792,58.391z M30.121,57.919c-0.001,0.012-0.005,0.022-0.005,0.034
		c-0.014,0.003-0.031,0.003-0.045,0.007C30.087,57.946,30.105,57.934,30.121,57.919z M31.26,55.01
		c-0.008-0.2-0.018-0.399-0.052-0.585c0.063,0.202,0.125,0.404,0.159,0.614L31.26,55.01z M31.123,54.122
		c0.027,0.07,0.038,0.144,0.062,0.215C31.169,54.263,31.143,54.194,31.123,54.122z M35.287,53.933c-0.481,0-0.873-0.39-0.873-0.871
		c0-0.481,0.391-0.871,0.873-0.871c0.479,0,0.869,0.39,0.869,0.871C36.157,53.543,35.767,53.933,35.287,53.933z M34.801,51.476
		c-0.481,0-0.872-0.39-0.872-0.871c0-0.481,0.39-0.871,0.872-0.871c0.481,0,0.87,0.39,0.87,0.871
		C35.672,51.086,35.283,51.476,34.801,51.476z M25.784,58.369c0.492,0.301,1.092,0.469,1.805,0.469c0.076,0,0.144-0.016,0.217-0.019
		c0.019,0.001,0.029,0.008,0.048,0.008c0.067,0,0.141-0.004,0.219-0.014c0.015-0.002,0.023-0.016,0.037-0.021
		c0.364-0.043,0.709-0.121,1.022-0.249c0.434-0.042,0.86-0.112,1.251-0.214c0.099-0.026,0.165-0.117,0.16-0.218
		c-0.018-0.365,0.109-0.631,0.366-0.769c0.303-0.165,0.736-0.117,1.052,0.113c0.185,0.135,0.477,0.45,0.366,1.037
		c-0.255,1.347-3.302,0.931-4.448,0.775l-0.252-0.034c-0.918-0.077-1.935,0.007-2.793,0.232c-0.099,0.026-0.165,0.117-0.16,0.219
		c0.014,0.269-0.051,0.482-0.189,0.632c-0.086,0.093-0.199,0.16-0.332,0.197v-2.088C24.655,58.34,25.236,58.338,25.784,58.369z
		 M41.399,56.319c0-0.544,0.478-1.127,1.346-0.729c-0.414,0.656-0.294,1.714,0.43,2.023C42.214,57.933,41.399,56.863,41.399,56.319z
		 M42.907,53.656c0.032-0.202,0.054-0.411,0.054-0.629c0-0.219-0.022-0.427-0.054-0.629h1.22h0.001v1.259h-0.001H42.907z
		 M43.38,51.322c-0.063,0-0.124-0.028-0.164-0.077c-0.041-0.048-0.059-0.112-0.048-0.175c0.104-0.598,0.374-1.768,1.004-3.106
		c0.356-0.346,0.7-0.78,1.025-1.288c0.061-0.004,0.117-0.002,0.179-0.007c0.005,0,0.01-0.001,0.016-0.002
		c0.938-0.07,1.756-0.205,2.475-0.384c0.127,0.122,0.256,0.225,0.385,0.329c0.116,0.093,0.232,0.181,0.348,0.259
		c-1.992,1.748-2.587,3.646-2.742,4.318c-0.025,0.106-0.118,0.17-0.234,0.166c-0.034-0.004-0.066-0.016-0.094-0.035H43.38z
		 M47.124,52.121c0.481,0,0.872,0.39,0.872,0.871c0,0.481-0.39,0.871-0.872,0.871c-0.481,0-0.87-0.39-0.87-0.871
		C46.254,52.511,46.643,52.121,47.124,52.121z M47.609,54.577c0.481,0,0.872,0.39,0.872,0.871c0,0.482-0.39,0.871-0.872,0.871
		c-0.48,0-0.869-0.39-0.869-0.871C46.74,54.967,47.129,54.577,47.609,54.577z M52.289,48.135c0.001-0.012,0.005-0.022,0.006-0.035
		c0.015-0.003,0.031-0.004,0.046-0.007C52.324,48.108,52.306,48.12,52.289,48.135z M54.619,47.662
		c0.179,0.01,0.365,0.064,0.421,0.25c0.06,0.201-0.056,0.445-0.19,0.512c-0.538,0.265-0.946,0.706-1.183,1.277
		c-0.021,0.054-0.021,0.114,0.002,0.167c0.185,0.427,0.093,1-0.219,1.364c-0.259,0.302-0.621,0.409-1.018,0.306
		c-0.121-0.031-0.232,0.039-0.263,0.154s0.039,0.232,0.153,0.262c0.135,0.035,0.269,0.053,0.397,0.053
		c0.407,0,0.778-0.171,1.056-0.494c0.398-0.465,0.525-1.161,0.322-1.726c0.25-0.546,0.646-0.832,0.941-0.977
		c0.338-0.168,0.526-0.635,0.411-1.021c-0.006-0.021-0.016-0.049-0.029-0.08c1.91,0.311,2.234,2.063,2.234,3.158
		c0,1.203-0.368,3.222-2.833,3.222c-1.948,0-3.258-1.295-3.258-3.222C51.565,49.01,52.787,47.752,54.619,47.662z M51.151,51.043
		c0.008,0.2,0.018,0.398,0.052,0.585c-0.063-0.202-0.125-0.404-0.159-0.614L51.151,51.043z M51.287,51.931
		c-0.026-0.068-0.037-0.141-0.06-0.21C51.242,51.794,51.268,51.86,51.287,51.931z M56.63,47.686
		c-0.492-0.302-1.093-0.471-1.807-0.471c-0.06,0-0.114,0.013-0.173,0.015c-0.094-0.006-0.196-0.004-0.312,0.01
		c-0.015,0.002-0.023,0.016-0.038,0.021c-0.363,0.043-0.707,0.12-1.02,0.248c-0.435,0.042-0.862,0.112-1.253,0.215
		c-0.098,0.026-0.165,0.117-0.16,0.218c0.018,0.366-0.109,0.632-0.366,0.77c-0.305,0.164-0.737,0.117-1.051-0.113
		c-0.185-0.135-0.478-0.449-0.367-1.037c0.145-0.762,1.182-0.959,2.264-0.959c0.831,0,1.688,0.117,2.186,0.185l0.252,0.033
		c0.916,0.077,1.937-0.008,2.793-0.233c0.099-0.026,0.165-0.117,0.16-0.219c-0.014-0.269,0.051-0.482,0.189-0.633
		c0.085-0.093,0.199-0.16,0.331-0.197v2.088C57.757,47.715,57.178,47.717,56.63,47.686z M56.053,46.396
		c-0.276,0.019-0.546,0.006-0.817-0.002c-0.135-0.004-0.276,0.01-0.408-0.001l-0.239-0.032c-0.069-0.009-0.146-0.02-0.223-0.03
		c-0.241-0.032-0.52-0.066-0.82-0.096c-0.087-5.407-1.334-12.508-3.013-14.792c2.183-1.09,3.644-2.994,4.267-4.642
		c0.597,1.604,1.87,3.153,3.458,4.177v1.999C57.035,35.974,56.108,41.656,56.053,46.396z M52.312,42.45
		c-0.809,2.172-3.283,3.519-6.967,3.792c-5.036,0.375-8.719-0.788-10.351-3.275c-0.139-0.212-0.25-0.438-0.358-0.667
		c4.294-0.903,5.356-5.791,5.035-9.155c3.348-0.561,7.31-0.365,8.702,0.419c0.667,0.619,1.247,1.347,1.721,2.167
		c0.134,0.232,0.234,0.463,0.342,0.708c0.242,0.556,0.493,1.13,1.146,1.784C52.416,39.058,52.934,40.779,52.312,42.45z
		 M48.793,30.779c0.121-0.121,0.226-0.26,0.322-0.417c-0.059,0.161-0.122,0.317-0.176,0.482
		C48.891,30.823,48.844,30.801,48.793,30.779z M35.288,31.712c-0.107,0.058-0.205,0.12-0.305,0.182
		c-0.066-0.29-0.131-0.574-0.196-0.855C34.917,31.325,35.089,31.55,35.288,31.712z M32.134,42.565
		c0.046-0.011,0.089-0.03,0.135-0.041l1.908-0.001c0,0,0,0,0,0l-1.126,0c0.224,0.116,0.432,0.242,0.64,0.367
		c-0.111,0.101-0.211,0.206-0.305,0.321c-0.261,0.32-0.468,0.679-0.551,1.061c-0.127,0.58,0.017,1.106,0.396,1.444
		c0.417,0.375,1.295,0.687,3.115,0.135c-0.072,1.176,0.307,2.065,1.041,2.411c0.183,0.086,0.378,0.13,0.582,0.142
		c0.148,0.008,0.301-0.003,0.458-0.033c0.5,1.165,0.725,2.161,0.818,2.698c0.011,0.063-0.007,0.127-0.047,0.175
		c-0.041,0.049-0.102,0.077-0.165,0.077h-2.165c-0.024,0.018-0.052,0.029-0.081,0.033c-0.112,0.012-0.209-0.025-0.233-0.131
		c-0.586-2.523-3.012-5.678-8.068-7.002l-0.016,0.011c0.163-0.114,0.335-0.212,0.503-0.317
		C29.945,43.31,31.001,42.848,32.134,42.565z M27.451,45.028c0.016-0.014,0.032-0.028,0.048-0.042
		C27.482,45,27.467,45.014,27.451,45.028z M24.154,73.077c1.223-2.996,2.149-8.678,2.203-13.419
		c0.276-0.019,0.546-0.006,0.817,0.002c0.135,0.004,0.277-0.01,0.408,0.001l0.24,0.032c0.069,0.009,0.145,0.02,0.222,0.03
		c0.241,0.032,0.52,0.066,0.822,0.096c0.087,5.407,1.333,12.508,3.011,14.792c-2.181,1.09-3.642,2.995-4.266,4.644
		c-0.597-1.604-1.869-3.154-3.458-4.178V73.077z M30.098,63.604c0.469-1.258,1.996-3.424,6.969-3.792
		c0.619-0.046,1.217-0.068,1.793-0.068c4.12,0,7.125,1.163,8.557,3.343c0.139,0.212,0.251,0.439,0.358,0.668
		c-4.294,0.902-5.357,5.791-5.035,9.155c-3.348,0.561-7.31,0.365-8.702-0.42c-0.658-0.61-1.253-1.358-1.72-2.166
		c-0.136-0.233-0.237-0.466-0.345-0.712c-0.242-0.555-0.493-1.127-1.144-1.78C29.995,66.995,29.477,65.275,30.098,63.604z
		 M33.613,75.279c-0.119,0.12-0.223,0.258-0.318,0.413c0.058-0.16,0.121-0.315,0.175-0.48
		C33.518,75.234,33.561,75.257,33.613,75.279z M47.125,74.332c0.104-0.057,0.204-0.116,0.302-0.176
		c0.063,0.279,0.126,0.552,0.189,0.823C47.489,74.713,47.32,74.492,47.125,74.332z M50.276,63.489
		c-0.046,0.012-0.089,0.03-0.136,0.041l-1.908,0.001c0.001-0.001,0.002-0.001,0.003-0.001l1.124,0
		c-0.224-0.116-0.431-0.242-0.639-0.367c0.111-0.101,0.211-0.206,0.305-0.321c0.261-0.32,0.468-0.678,0.552-1.06
		c0.127-0.58-0.017-1.106-0.396-1.445c-0.419-0.375-1.295-0.688-3.114-0.135c0.071-1.176-0.307-2.065-1.041-2.41
		c-0.183-0.086-0.379-0.13-0.583-0.142c-0.148-0.008-0.301,0.003-0.458,0.033c-0.5-1.166-0.725-2.162-0.819-2.699
		c-0.011-0.063,0.007-0.127,0.047-0.175c0.041-0.049,0.102-0.077,0.165-0.077h2.166c0.024-0.018,0.052-0.029,0.081-0.033
		c0.113-0.009,0.209,0.025,0.234,0.131c0.581,2.522,3.006,5.677,8.066,7.002l0.022-0.015c-0.165,0.115-0.338,0.215-0.509,0.321
		C52.466,62.744,51.41,63.205,50.276,63.489z M54.965,61.02c-0.018,0.016-0.037,0.033-0.055,0.049
		C54.929,61.053,54.947,61.036,54.965,61.02z M49.452,29.51c0.03-0.178,0.043-0.355,0.025-0.519
		c-0.044-0.397-0.227-0.691-0.514-0.829c-0.286-0.138-0.631-0.096-0.968,0.119c-0.306,0.194-0.576,0.513-0.761,0.898
		c-0.001,0-0.001,0-0.001,0c-0.19,0.397-0.253,0.796-0.216,1.141c-0.339-0.055-0.701-0.099-1.079-0.135
		c0.158-0.235,0.289-0.512,0.351-0.844c0.076-0.42,0.046-0.837-0.087-1.174c-0.146-0.372-0.4-0.609-0.712-0.666
		c-0.315-0.059-0.634,0.071-0.904,0.366c-0.245,0.267-0.423,0.646-0.501,1.065c0,0-0.001,0-0.001,0.001
		c-0.079,0.43-0.04,0.833,0.083,1.155c-0.441-0.007-0.892-0.002-1.35,0.013c0.128-0.286,0.207-0.615,0.198-0.972
		c-0.024-0.922-0.524-1.634-1.143-1.634c-0.008,0-0.015,0-0.021,0c-0.629,0.018-1.101,0.763-1.074,1.695
		c0.011,0.395,0.113,0.747,0.27,1.025c-0.439,0.044-0.873,0.1-1.303,0.166c0.1-0.294,0.14-0.635,0.095-0.99
		c-0.068-0.555-0.313-1.045-0.656-1.313c-0.205-0.161-0.435-0.229-0.66-0.203c-0.316,0.039-0.583,0.26-0.752,0.623
		c-0.152,0.329-0.207,0.743-0.155,1.167c0.05,0.404,0.198,0.769,0.408,1.047c-0.415,0.101-0.809,0.219-1.188,0.345
		c0.058-0.293,0.052-0.632-0.036-0.984c-0.103-0.414-0.303-0.781-0.563-1.034c-0.287-0.278-0.619-0.389-0.925-0.312
		c-0.486,0.121-0.77,0.675-0.753,1.353c-0.459-1.87-0.946-3.476-1.62-4.602h19.145C51.001,26.592,50.126,27.943,49.452,29.51z
		 M24.451,57.957c-0.102,0.01-0.2,0.024-0.298,0.04v-0.636C24.254,57.559,24.344,57.766,24.451,57.957z M24.154,60.933
		c0.253-0.048,0.484-0.146,0.648-0.323c0.183-0.198,0.285-0.46,0.303-0.767c0.183-0.043,0.386-0.057,0.579-0.087
		c0.073,0.091,0.144,0.183,0.218,0.272c0.006,0.008,0.012,0.016,0.019,0.023c0,0.005,0,0.01,0,0.016
		c-0.088,4.066-0.798,8.728-1.767,11.738V60.933z M32.961,76.54c-0.051,0.299-0.044,0.587,0.041,0.827
		c0.087,0.246,0.241,0.427,0.445,0.525c0.11,0.053,0.229,0.079,0.354,0.079c0.108,0,0.221-0.02,0.335-0.06
		c0.409-0.143,0.798-0.53,1.04-1.036c0.001,0,0.001,0,0.001,0c0.18-0.378,0.258-0.78,0.223-1.135c0.337,0.054,0.7,0.097,1.076,0.133
		c-0.161,0.241-0.293,0.52-0.353,0.841c-0.102,0.55-0.016,1.092,0.23,1.449c0.148,0.215,0.345,0.35,0.568,0.391
		c0.049,0.009,0.098,0.014,0.146,0.014c0.177,0,0.355-0.06,0.524-0.175c0.357-0.246,0.631-0.721,0.732-1.271
		c0.076-0.412,0.046-0.82-0.081-1.154c0.143,0.002,0.283,0.007,0.428,0.007c0.296,0,0.599-0.011,0.902-0.021
		c-0.121,0.274-0.189,0.608-0.179,0.971c0.027,0.922,0.527,1.634,1.146,1.634c0.007,0,0.014,0,0.021,0
		c0.628-0.018,1.1-0.762,1.074-1.695c-0.01-0.384-0.117-0.736-0.281-1.024c0.442-0.044,0.881-0.1,1.314-0.166
		c-0.099,0.294-0.139,0.635-0.095,0.99c0.053,0.423,0.207,0.812,0.436,1.094c0.226,0.278,0.5,0.427,0.782,0.427
		c0.033,0,0.065-0.002,0.099-0.006c0.623-0.078,1.021-0.864,0.907-1.79c-0.05-0.409-0.198-0.78-0.407-1.055
		c0.417-0.101,0.816-0.215,1.197-0.342c-0.062,0.302-0.06,0.644,0.026,0.989c0.135,0.542,0.437,1,0.808,1.224
		c0.16,0.096,0.325,0.145,0.488,0.145c0.064,0,0.129-0.008,0.192-0.024c0.221-0.055,0.409-0.201,0.543-0.424
		c0.151-0.251,0.217-0.584,0.207-0.939c0.46,1.875,0.948,3.485,1.623,4.614H30.329C31.411,79.462,32.286,78.11,32.961,76.54z
		 M57.959,48.098c0.102-0.01,0.2-0.025,0.298-0.04v0.636C58.157,48.495,58.067,48.288,57.959,48.098z M58.257,45.121
		c-0.253,0.048-0.484,0.146-0.647,0.323c-0.183,0.198-0.285,0.461-0.303,0.768c-0.183,0.043-0.386,0.057-0.581,0.087
		c-0.073-0.091-0.143-0.183-0.218-0.271c-0.007-0.008-0.013-0.017-0.02-0.025c0-0.006,0-0.011,0-0.017
		c0.089-4.065,0.798-8.727,1.768-11.737V45.121z M58.257,30.45c-1.603-1.111-2.835-2.77-3.247-4.419
		c-0.024-0.096-0.11-0.163-0.209-0.163s-0.185,0.067-0.209,0.163c-0.433,1.73-1.988,3.991-4.486,5.14
		c-0.062,0.028-0.106,0.084-0.12,0.151c-0.015,0.066,0.004,0.135,0.049,0.187c0.905,1.03,1.764,3.772,2.346,7.071
		c-0.149-0.249-0.311-0.478-0.493-0.66c-0.597-0.596-0.831-1.133-1.058-1.652c-0.106-0.245-0.217-0.498-0.362-0.751
		c-0.478-0.827-1.063-1.56-1.73-2.192c0.071-0.358,0.149-0.709,0.236-1.051c0.068-0.266,0.146-0.526,0.224-0.786
		c0.741-2.473,1.911-4.491,3.502-6.006h5.558V30.45z M32.421,25.48c1.025,1.54,1.659,4.349,2.327,7.328
		c0.114,0.51,0.231,1.03,0.351,1.552c-0.534,0.429-0.952,1.133-1.263,2.17c-0.409,1.36-1.557,2.114-2.436,2.059
		c-0.269-0.017-0.732-0.134-0.83-0.725c-0.041-0.239,0.121-0.519,0.275-0.563c0.044-0.012,0.087-0.001,0.133,0.026
		c0.028,0.021,0.055,0.043,0.08,0.067c0.082,0.087,0.165,0.229,0.238,0.415c0.042,0.107,0.162,0.163,0.271,0.125
		c0.108-0.037,0.169-0.154,0.136-0.264c-0.186-0.625-0.721-0.982-1.333-0.893c-0.751,0.113-1.502,0.909-1.487,2.435
		c0.007,0.832,0.437,1.688,1.148,2.287c0.354,0.299,0.884,0.592,1.586,0.781c-1.196,0.349-2.317,0.859-3.325,1.551
		c-0.899,0.616-1.704,1.375-2.426,2.238c-0.653,0.781-1.225,1.658-1.712,2.623V25.48H32.421z M24.154,75.603
		c1.603,1.112,2.835,2.77,3.247,4.42c0.024,0.096,0.11,0.163,0.209,0.163s0.185-0.067,0.209-0.163
		c0.434-1.731,1.989-3.992,4.485-5.141c0.062-0.028,0.106-0.084,0.12-0.15c0.015-0.066-0.004-0.136-0.049-0.187
		c-0.904-1.03-1.763-3.774-2.345-7.072c0.149,0.25,0.312,0.479,0.494,0.661c0.594,0.595,0.828,1.131,1.054,1.648
		c0.108,0.247,0.22,0.501,0.366,0.755c0.478,0.827,1.063,1.559,1.729,2.191c-0.072,0.364-0.152,0.72-0.24,1.067
		c-0.056,0.221-0.122,0.436-0.186,0.653c-0.739,2.529-1.92,4.587-3.535,6.124h-5.559V75.603z M49.989,80.574
		c-0.988-1.483-1.612-4.146-2.254-7.003l-0.036-0.161c-0.127-0.563-0.255-1.138-0.388-1.716c0.535-0.431,0.953-1.135,1.264-2.171
		c0.409-1.36,1.566-2.113,2.436-2.059c0.269,0.017,0.732,0.134,0.83,0.723c0.039,0.24-0.123,0.521-0.277,0.564
		c-0.041,0.013-0.084,0.002-0.129-0.024c-0.03-0.021-0.059-0.046-0.086-0.072c-0.081-0.087-0.163-0.228-0.235-0.412
		c-0.042-0.107-0.16-0.162-0.271-0.125c-0.108,0.037-0.169,0.154-0.136,0.264c0.186,0.627,0.731,0.982,1.333,0.893
		c0.751-0.113,1.501-0.909,1.486-2.434c-0.007-0.832-0.436-1.687-1.146-2.287c-0.352-0.297-0.857-0.603-1.553-0.792
		c1.184-0.349,2.294-0.857,3.294-1.543c0.897-0.616,1.702-1.373,2.423-2.235c0.653-0.781,1.225-1.659,1.713-2.624v23.212H49.989z"/>
	<path class="st0" d="M40.006,76.908c0.008,0.293,0.242,0.524,0.524,0.516c0.281-0.007,0.502-0.252,0.493-0.544
		c-0.007-0.293-0.242-0.524-0.521-0.516C40.22,76.371,39.998,76.615,40.006,76.908z"/>
	<path class="st0" d="M43.75,77.051c0.278-0.035,0.474-0.298,0.439-0.588c-0.035-0.291-0.292-0.499-0.57-0.464
		c-0.278,0.035-0.475,0.298-0.439,0.589C43.215,76.878,43.471,77.085,43.75,77.051z"/>
	<path class="st0" d="M46.826,76.223c0.271-0.068,0.436-0.353,0.365-0.637c-0.071-0.284-0.349-0.46-0.621-0.392
		c-0.274,0.068-0.438,0.353-0.366,0.638C46.275,76.116,46.554,76.291,46.826,76.223z"/>
	<path class="st0" d="M36.723,76.824c-0.054,0.289,0.128,0.563,0.404,0.614c0.275,0.051,0.543-0.14,0.598-0.428
		c0.052-0.288-0.129-0.564-0.404-0.614C37.044,76.344,36.777,76.537,36.723,76.824z"/>
	<path class="st0" d="M33.937,76.869c0.254,0.12,0.562,0.006,0.689-0.258c0.127-0.264,0.023-0.577-0.23-0.698
		c-0.253-0.122-0.561-0.005-0.688,0.258C33.581,76.436,33.684,76.748,33.937,76.869z"/>
	<path class="st1" d="M40.302,74.628c0-0.406-0.33-0.735-0.736-0.735s-0.736,0.329-0.736,0.735c0,0.406,0.33,0.736,0.736,0.736
		S40.302,75.034,40.302,74.628z"/>
	<path class="st1" d="M42.999,73.557c-0.407,0-0.736,0.329-0.736,0.735c0,0.407,0.328,0.736,0.736,0.736
		c0.405,0,0.735-0.329,0.735-0.736C43.734,73.886,43.404,73.557,42.999,73.557z"/>
	<path class="st1" d="M36.241,75.241c0.406,0,0.736-0.329,0.736-0.735c0-0.406-0.33-0.735-0.736-0.735s-0.736,0.329-0.736,0.735
		C35.505,74.912,35.835,75.241,36.241,75.241z"/>
	<path class="st1" d="M22.035,28.163l-1.494-3.145l0.672-0.982c0.645-0.954,0.978-1.255,1.459-1.309v-0.236h-1.874v0.236
		c0.374,0.036,0.503,0.136,0.503,0.391c0,0.218-0.122,0.482-0.421,0.927l-1.405,2.1v-2.472c0-0.827,0.054-0.918,0.584-0.945v-0.236
		h-2.051v0.236c0.529,0.027,0.584,0.118,0.584,0.945v4.436c0,0.836-0.055,0.918-0.611,0.945v0.236h2.105v-0.236
		c-0.557-0.027-0.611-0.109-0.611-0.945V26.6l0.475-0.718l1.134,2.527c0.279,0.609,0.279,0.609,0.367,0.881h1.426v-0.227
		C22.551,29.018,22.327,28.781,22.035,28.163z"/>
	<path class="st1" d="M28.895,36.251c0.471-1.643,2.371-4.217,3.913-5.097c-1.541-0.879-3.441-3.455-3.913-5.097
		c-0.471,1.642-2.371,4.218-3.914,5.097C26.524,32.033,28.424,34.608,28.895,36.251z"/>
	<path class="st1" d="M20.247,31.077c-0.249,0.867-1.252,2.227-2.067,2.692c0.814,0.464,1.818,1.823,2.067,2.691
		c0.249-0.868,1.251-2.227,2.066-2.691C21.498,33.304,20.495,31.944,20.247,31.077z"/>
	<path class="st1" d="M62.363,76.928c0.557,0.027,0.611,0.109,0.611,0.945v1.509l-0.475,0.718l-1.134-2.527
		c-0.279-0.609-0.279-0.609-0.367-0.881h-1.426v0.227c0.326,0.046,0.55,0.282,0.842,0.9l1.494,3.145l-0.672,0.982
		c-0.645,0.954-0.978,1.254-1.459,1.309v0.236h1.874v-0.236c-0.374-0.036-0.503-0.136-0.503-0.391c0-0.218,0.122-0.482,0.421-0.927
		l1.405-2.1v2.472c0,0.827-0.054,0.918-0.584,0.945v0.236h2.051v-0.236c-0.529-0.027-0.584-0.118-0.584-0.945v-4.436
		c0-0.836,0.055-0.918,0.611-0.945v-0.236h-2.105V76.928z"/>
	<path class="st1" d="M62.205,74.905c0.247-0.867,1.251-2.227,2.066-2.692c-0.814-0.464-1.818-1.823-2.066-2.691
		c-0.249,0.868-1.252,2.227-2.067,2.691C60.952,72.678,61.956,74.038,62.205,74.905z"/>
	<path class="st1" d="M53.516,69.803c-0.471,1.642-2.373,4.217-3.914,5.096c1.541,0.879,3.443,3.455,3.914,5.097
		c0.47-1.642,2.37-4.218,3.913-5.097C55.887,74.02,53.986,71.445,53.516,69.803z"/>
</g>
</svg>
