<?xml version="1.0" encoding="utf-8"?>
<!-- Generator: Adobe Illustrator 23.0.2, SVG Export Plug-In . SVG Version: 6.00 Build 0)  -->
<svg version="1.1" id="Layer_1" xmlns="http://www.w3.org/2000/svg" xmlns:xlink="http://www.w3.org/1999/xlink" x="0px" y="0px"
	 viewBox="0 0 82.452 99.776" style="enable-background:new 0 0 82.452 99.776;" xml:space="preserve">
<style type="text/css">
	.st0{fill:#FFFFFF;}
	.st1{fill:#ED1C24;}
	.st2{fill:#FFCB05;}
	.st3{fill:#21409A;}
	.st4{fill:#D4D5D6;}
	.st5{fill:#000100;}
	.st6{fill:#300505;}
	.st7{fill:#BFD730;}
	.st8{fill:#F15A22;}
</style>
<g>
	<path class="st0" d="M23.15,72.648c0.066-0.224,0.134-0.447,0.193-0.675c0.088-0.347,0.167-0.702,0.239-1.065
		c-0.667-0.632-1.251-1.364-1.729-2.191c-0.146-0.254-0.258-0.509-0.365-0.755c-0.227-0.518-0.461-1.054-1.055-1.649
		c-0.182-0.183-0.345-0.411-0.494-0.661c0.581,3.299,1.44,6.042,2.345,7.072c0.045,0.051,0.063,0.121,0.049,0.187
		c-0.014,0.066-0.059,0.122-0.12,0.15c-2.496,1.148-4.052,3.409-4.485,5.14c-0.024,0.096-0.11,0.163-0.209,0.163
		s-0.185-0.067-0.209-0.163c-0.412-1.649-1.644-3.307-3.247-4.419v4.971h5.559C21.231,77.219,22.41,75.168,23.15,72.648z"/>
	<path class="st0" d="M47.867,46.276c0.107,0.19,0.198,0.398,0.297,0.595v-0.635C48.067,46.251,47.969,46.266,47.867,46.276z"/>
	<path class="st0" d="M46.416,44.205c0.075,0.088,0.146,0.181,0.218,0.272c0.194-0.03,0.397-0.044,0.58-0.087
		c0.018-0.307,0.12-0.57,0.304-0.768c0.163-0.177,0.394-0.274,0.646-0.323V32.427c-0.97,3.011-1.68,7.673-1.768,11.738
		C46.404,44.178,46.411,44.191,46.416,44.205z"/>
	<path class="st0" d="M39.099,29.681c-0.076,0.253-0.152,0.507-0.219,0.766c-0.087,0.343-0.166,0.695-0.237,1.054
		c0.667,0.632,1.252,1.365,1.73,2.192c0.146,0.253,0.256,0.506,0.363,0.751c0.226,0.519,0.46,1.056,1.057,1.652
		c0.182,0.183,0.345,0.411,0.493,0.661c-0.582-3.299-1.441-6.042-2.346-7.071c-0.045-0.051-0.063-0.12-0.049-0.187
		c0.014-0.067,0.059-0.123,0.12-0.151c2.498-1.149,4.054-3.41,4.486-5.141c0.024-0.096,0.11-0.163,0.209-0.163
		s0.185,0.067,0.209,0.163c0.412,1.649,1.644,3.308,3.247,4.419v-4.97h-5.558C41.011,25.177,39.84,27.201,39.099,29.681z"/>
	<path class="st0" d="M15.773,44.249c0.008-0.028,0.018-0.055,0.037-0.078c0.102-0.12,0.205-0.235,0.311-0.35l0.162-0.18
		c0.104-0.11,0.212-0.215,0.32-0.321l0.089-0.086c0.05-0.049,0.1-0.098,0.15-0.146c0.085-0.077,0.169-0.15,0.253-0.223
		c0.001-0.001,0.002-0.001,0.002-0.002c0.023-0.02,0.046-0.041,0.068-0.06c0.113-0.098,0.188-0.162,0.265-0.223
		c0.102-0.083,0.207-0.165,0.313-0.244c0.099-0.075,0.198-0.147,0.3-0.219c0.049-0.035,0.1-0.069,0.15-0.103
		c1.01-0.694,2.133-1.206,3.331-1.555c-0.702-0.188-1.232-0.482-1.586-0.781c-0.712-0.6-1.142-1.455-1.148-2.288
		c-0.015-1.525,0.736-2.322,1.487-2.434c0.612-0.092,1.147,0.268,1.333,0.893c0.033,0.11-0.027,0.227-0.136,0.264
		c-0.108,0.039-0.229-0.017-0.271-0.125c-0.072-0.185-0.154-0.326-0.236-0.413c-0.026-0.026-0.055-0.049-0.084-0.07
		c-0.044-0.026-0.088-0.036-0.131-0.025c-0.154,0.043-0.316,0.324-0.275,0.563c0.098,0.591,0.562,0.708,0.83,0.725
		c0.879,0.063,2.026-0.698,2.436-2.059c0.311-1.038,0.729-1.742,1.263-2.171c-0.12-0.523-0.237-1.043-0.352-1.553
		c-0.667-2.978-1.301-5.787-2.326-7.326h-8.268v23.213C14.549,45.907,15.121,45.029,15.773,44.249z M18.803,26.302
		c0.897-3.538,4.411-2.596,4.411,0.742c0,2.183-1.184,3.63-2.43,5.001c-0.623,0.686-1.45,1.603-1.981,2.563
		c-0.53-0.961-1.357-1.878-1.981-2.563c-1.246-1.37-2.431-2.818-2.431-5.001C14.391,23.706,17.907,22.764,18.803,26.302z"/>
	<path class="st0" d="M46.451,58.164c-0.008,0.026-0.016,0.052-0.035,0.074c-0.1,0.121-0.203,0.235-0.308,0.348l-0.052,0.058
		c-0.038,0.043-0.076,0.087-0.116,0.127c-0.107,0.114-0.219,0.223-0.33,0.332l-0.068,0.065c-0.055,0.053-0.108,0.106-0.164,0.156
		c-0.103,0.096-0.209,0.189-0.316,0.282c-0.105,0.09-0.187,0.159-0.268,0.224c-0.104,0.083-0.206,0.164-0.311,0.242
		c-0.1,0.076-0.202,0.15-0.304,0.222l-0.154,0.106c-1,0.686-2.109,1.192-3.293,1.541c0.697,0.188,1.202,0.494,1.555,0.791
		c0.711,0.6,1.14,1.455,1.146,2.287c0.015,1.525-0.736,2.322-1.486,2.434c-0.602,0.093-1.147-0.266-1.333-0.893
		c-0.033-0.11,0.027-0.227,0.136-0.264c0.11-0.039,0.229,0.018,0.271,0.124c0.072,0.185,0.154,0.326,0.236,0.414
		c0.026,0.025,0.055,0.049,0.084,0.07c0.045,0.027,0.089,0.037,0.13,0.025c0.154-0.043,0.316-0.324,0.277-0.564
		c-0.098-0.589-0.562-0.706-0.829-0.723c-0.031-0.001-0.062-0.002-0.093-0.002c-0.863,0-1.949,0.749-2.344,2.062
		c-0.311,1.037-0.73,1.741-1.264,2.171c0.121,0.525,0.238,1.047,0.353,1.559c0.667,2.976,1.3,5.783,2.325,7.321h8.268V55.539
		C47.677,56.505,47.104,57.382,46.451,58.164z M43.424,76.108c-0.897,3.538-4.412,2.597-4.412-0.741
		c0-2.183,1.185-3.631,2.431-5.001c0.622-0.686,1.45-1.602,1.981-2.563c0.53,0.961,1.357,1.877,1.98,2.563
		c1.246,1.37,2.431,2.818,2.431,5.001C47.835,78.705,44.319,79.647,43.424,76.108z"/>
	<path class="st0" d="M52.753,16.923H9.513c-1.564,0-2.837,1.272-2.837,2.836v62.82c0,1.564,1.272,2.836,2.837,2.836h43.239
		c1.564,0,2.838-1.272,2.838-2.836V19.76C55.59,18.196,54.317,16.923,52.753,16.923z M11.2,33.379
		c-0.328,0.362-0.765,0.847-1.046,1.354c-0.281-0.507-0.717-0.992-1.046-1.354c-0.658-0.723-1.283-1.487-1.283-2.64
		c0-1.763,1.857-2.259,2.329-0.392c0.473-1.868,2.329-1.371,2.329,0.392C12.483,31.892,11.858,32.656,11.2,33.379z M12.785,27.469
		h-1.426c-0.088-0.273-0.088-0.273-0.367-0.881l-1.134-2.527l-0.475,0.718v1.509c0,0.836,0.054,0.918,0.611,0.945v0.236H7.889
		v-0.236C8.445,27.206,8.5,27.124,8.5,26.288v-4.436c0-0.827-0.055-0.918-0.584-0.945V20.67h2.051v0.236
		c-0.53,0.027-0.584,0.118-0.584,0.945v2.472l1.405-2.1c0.299-0.445,0.421-0.709,0.421-0.927c0-0.254-0.129-0.354-0.503-0.391V20.67
		h1.874v0.236c-0.482,0.054-0.814,0.354-1.459,1.309l-0.672,0.982l1.494,3.145c0.292,0.618,0.516,0.854,0.842,0.9V27.469z
		 M48.594,29.038v2.158V43.47v2.513v1.811v1.032v3.658v1.397v0.733v0.005v24.35c0,0.119-0.096,0.215-0.215,0.215h-8.604H19.712
		h-5.865c-0.119,0-0.215-0.096-0.215-0.215v-5.595v-2.159V58.941v-2.513v-1.811v-1.032v-3.657v-1.397v-0.734v-0.005V23.444
		c0-0.119,0.096-0.215,0.215-0.215h8.604h20.064h5.864c0.119,0,0.215,0.096,0.215,0.215V29.038z M54.376,75.107
		c-0.557,0.027-0.611,0.109-0.611,0.945v4.436c0,0.827,0.055,0.918,0.584,0.946v0.236h-2.051v-0.236
		c0.53-0.027,0.584-0.119,0.584-0.946v-2.472l-1.405,2.099c-0.299,0.446-0.421,0.71-0.421,0.927c0,0.254,0.129,0.355,0.503,0.391
		v0.236h-1.874v-0.236c0.482-0.055,0.814-0.355,1.459-1.309l0.672-0.981l-1.494-3.145c-0.292-0.618-0.516-0.854-0.842-0.9v-0.227
		h1.426c0.088,0.273,0.088,0.273,0.367,0.881l1.134,2.528l0.475-0.719v-1.509c0-0.836-0.054-0.918-0.611-0.945v-0.236h2.105V75.107z
		 M52.112,71.992c-0.473,1.868-2.329,1.371-2.329-0.391c0-1.153,0.624-1.917,1.282-2.64c0.329-0.362,0.765-0.847,1.047-1.354
		c0.279,0.507,0.716,0.992,1.045,1.354c0.658,0.723,1.283,1.487,1.283,2.64C54.441,73.363,52.585,73.86,52.112,71.992z"/>
	<path class="st0" d="M14.359,56.135c-0.107-0.19-0.198-0.398-0.297-0.595v0.636C14.159,56.159,14.257,56.145,14.359,56.135z"/>
	<path class="st0" d="M15.811,58.206c-0.075-0.089-0.146-0.182-0.219-0.273c-0.194,0.03-0.396,0.044-0.579,0.087
		c-0.018,0.306-0.12,0.568-0.303,0.767c-0.164,0.178-0.395,0.276-0.648,0.324v10.872c0.97-3.01,1.679-7.673,1.767-11.739
		C15.822,58.232,15.815,58.219,15.811,58.206z"/>
	<path d="M52.753,16.494H9.513c-1.802,0-3.267,1.465-3.267,3.266v62.82c0,1.801,1.465,3.266,3.267,3.266h43.239
		c1.802,0,3.268-1.465,3.268-3.266V19.76C56.02,17.958,54.554,16.494,52.753,16.494z M55.59,82.58c0,1.564-1.273,2.836-2.838,2.836
		H9.513c-1.564,0-2.837-1.272-2.837-2.836V19.76c0-1.564,1.272-2.836,2.837-2.836h43.239c1.564,0,2.838,1.272,2.838,2.836V82.58z"/>
	<path class="st1" d="M35.407,53.339h-1.86c0.116,0.573,0.354,1.471,0.805,2.489c0.204,0.012,0.4,0.056,0.583,0.141
		c0.734,0.346,1.112,1.234,1.041,2.41c1.819-0.553,2.695-0.24,3.114,0.136c0.379,0.338,0.522,0.865,0.396,1.445
		c-0.084,0.382-0.29,0.74-0.552,1.06c0.391,0.231,0.802,0.45,1.251,0.647c1.133-0.284,2.19-0.745,3.163-1.351
		C38.512,58.927,36.091,55.875,35.407,53.339z"/>
	<path class="st1" d="M42.197,46.313c0.017-0.015,0.036-0.027,0.052-0.042c-0.015,0.003-0.032,0.004-0.047,0.007
		C42.202,46.291,42.198,46.301,42.197,46.313z"/>
	<path class="st1" d="M26.828,53.339c-0.224,0.827-0.9,2.616-2.762,4.28c0.129,0.103,0.258,0.206,0.384,0.328
		c0.719-0.179,1.538-0.314,2.477-0.384c1.11-1.685,1.574-3.339,1.753-4.223H26.828z"/>
	<path class="st1" d="M39.012,51.011c1.279,0.312,2.357,0.792,3.245,1.376c-0.993-0.945-1.61-2.075-1.759-3.316l-1.01-0.271
		c-0.314,0.662-0.482,1.372-0.482,2.118C39.007,50.949,39.012,50.98,39.012,51.011z"/>
	<path class="st1" d="M26.819,49.071h1.86c-0.116-0.573-0.354-1.471-0.805-2.488c-0.204-0.012-0.399-0.056-0.582-0.142
		c-0.734-0.346-1.113-1.234-1.041-2.41c-1.82,0.552-2.698,0.239-3.115-0.135c-0.379-0.339-0.522-0.866-0.396-1.445
		c0.084-0.382,0.29-0.741,0.552-1.061c-0.391-0.231-0.802-0.45-1.25-0.647c-1.134,0.283-2.191,0.745-3.165,1.352
		C23.708,43.482,26.132,46.533,26.819,49.071z"/>
	<path class="st1" d="M35.399,49.071c0.224-0.827,0.901-2.615,2.761-4.278c-0.129-0.104-0.258-0.207-0.385-0.329
		c-0.72,0.18-1.539,0.314-2.477,0.385c-1.109,1.685-1.573,3.338-1.752,4.222H35.399z"/>
	<path class="st1" d="M20.029,56.098c-0.016,0.014-0.034,0.026-0.05,0.04c0.014-0.003,0.031-0.003,0.045-0.007
		C20.024,56.12,20.028,56.11,20.029,56.098z"/>
	<path class="st1" d="M43.416,53.295c1.506,1.41,2.198,3.11,2.197,4.425c0.176,0.047,0.354,0.093,0.537,0.134
		c0.701-0.845,1.309-1.804,1.811-2.871C46.18,54.673,44.633,54.088,43.416,53.295z"/>
	<path class="st1" d="M18.808,49.115c-1.506-1.41-2.197-3.111-2.195-4.425c-0.176-0.047-0.354-0.093-0.537-0.134
		c-0.701,0.845-1.309,1.805-1.812,2.872C16.045,47.738,17.591,48.323,18.808,49.115z"/>
	<path class="st1" d="M41.19,48c0.062-0.234,0.142-0.455,0.244-0.663c-0.14,0.048-0.285,0.081-0.437,0.081
		c-0.165,0-0.331-0.033-0.492-0.089c-0.121,0.128-0.233,0.261-0.339,0.395L41.19,48z"/>
	<path class="st1" d="M15.131,56.099c-0.506-0.543-0.798-1.324-0.868-2.299h-0.202v0.773c0.234,0.538,0.5,1.044,0.785,1.53
		C14.941,56.101,15.036,56.099,15.131,56.099z"/>
	<path class="st1" d="M47.095,46.311c0.507,0.543,0.799,1.324,0.868,2.299h0.201v-0.772c-0.234-0.538-0.5-1.044-0.785-1.531
		C47.285,46.309,47.19,46.311,47.095,46.311z"/>
	<path class="st1" d="M21.036,54.41c-0.062,0.237-0.144,0.46-0.247,0.671c0.293-0.103,0.622-0.106,0.932,0.001
		c0.121-0.129,0.233-0.262,0.34-0.396L21.036,54.41z"/>
	<path class="st1" d="M23.213,51.4c-1.278-0.312-2.355-0.792-3.243-1.375c0.993,0.944,1.609,2.075,1.758,3.314l1.009,0.271
		c0.314-0.662,0.482-1.372,0.482-2.118C23.217,51.461,23.213,51.43,23.213,51.4z"/>
	<path class="st2" d="M41.134,49.898c0.023,0.07,0.034,0.143,0.061,0.212C41.176,50.038,41.15,49.971,41.134,49.898z"/>
	<path class="st2" d="M41.058,49.222l-0.106-0.029c0.034,0.209,0.096,0.411,0.159,0.613C41.077,49.62,41.067,49.421,41.058,49.222z"
		/>
	<path class="st2" d="M48.165,52.649c-0.529-0.141-1.017-0.315-1.476-0.509c-0.515,0.364-1.173,0.557-1.958,0.557
		c-0.81,0-1.529-0.21-2.112-0.584c1.279,1.194,3.188,2.083,5.54,2.473l0.007-0.014v-0.949V52.649z"/>
	<path class="st3" d="M39.229,52.39c0.037,0.125,0.082,0.249,0.128,0.374C39.359,52.627,39.317,52.495,39.229,52.39z"/>
	<path class="st3" d="M39.381,52.832c0.094,0.245,0.204,0.489,0.335,0.731c1.82,0.744,2.908,2.002,3.387,3.193
		c0.216,0.114,0.439,0.224,0.673,0.328c0.6-0.458,1.116-0.03,1.184,0.43c0.001,0.004-0.001,0.008,0,0.013
		c0.073,0.024,0.145,0.048,0.219,0.071c-0.064-2.057-1.925-5.061-6.141-6.138c0.008,0.072,0.022,0.144,0.033,0.216
		C39.433,51.806,39.673,52.26,39.381,52.832z M44.18,55.386c0.236,0.428-0.068,1.077-0.899,1.024
		c0.349-0.058,0.557-0.51,0.389-0.778c-0.112-0.178-0.413-0.315-0.81-0.143C43.256,54.726,43.946,54.959,44.18,55.386z
		 M42.897,53.626c0.37,0.319,0.311,1.032-0.485,1.275c0.307-0.178,0.343-0.674,0.092-0.866c-0.167-0.127-0.497-0.15-0.809,0.15
		C41.8,53.331,42.527,53.308,42.897,53.626z M40.998,52.404c0.461,0.16,0.67,0.845,0.018,1.364c0.219-0.277,0.072-0.752-0.233-0.84
		c-0.202-0.057-0.517,0.043-0.696,0.437C39.869,52.533,40.537,52.244,40.998,52.404z"/>
	<path class="st0" d="M42.505,54.035c0.251,0.193,0.214,0.688-0.092,0.866c0.796-0.243,0.854-0.956,0.485-1.275
		c-0.37-0.318-1.097-0.295-1.201,0.559C42.007,53.885,42.338,53.908,42.505,54.035z"/>
	<path class="st0" d="M42.861,55.49c0.397-0.172,0.698-0.035,0.81,0.143c0.168,0.268-0.04,0.72-0.389,0.778
		c0.83,0.052,1.135-0.597,0.899-1.024C43.946,54.959,43.256,54.726,42.861,55.49z"/>
	<path class="st0" d="M43.777,57.083c0.369,0.164,0.769,0.308,1.184,0.442c0-0.004,0.001-0.008,0-0.013
		C44.893,57.053,44.377,56.626,43.777,57.083z"/>
	<path class="st0" d="M40.783,52.928c0.305,0.087,0.452,0.562,0.233,0.84c0.651-0.519,0.443-1.204-0.018-1.364
		c-0.461-0.16-1.129,0.128-0.91,0.961C40.267,52.972,40.581,52.871,40.783,52.928z"/>
	<path class="st0" d="M39.072,51.674c0.036,0.237,0.086,0.476,0.157,0.716c0.088,0.104,0.13,0.237,0.128,0.374
		c0.008,0.022,0.016,0.045,0.024,0.067C39.673,52.26,39.433,51.806,39.072,51.674z"/>
	<path class="st3" d="M40.226,54.353c0.529,0.713,1.23,1.386,2.126,1.964C41.918,55.596,41.215,54.893,40.226,54.353z"/>
	<path class="st0" d="M39.716,53.563c0.145,0.268,0.318,0.531,0.51,0.791c0.989,0.54,1.692,1.243,2.126,1.964
		c0.237,0.153,0.489,0.299,0.752,0.438C42.624,55.565,41.536,54.307,39.716,53.563z"/>
	<path class="st3" d="M22.845,49.581c-0.094-0.246-0.204-0.491-0.336-0.734c-1.819-0.745-2.906-2.002-3.385-3.192
		c-0.216-0.114-0.439-0.224-0.674-0.328c-0.6,0.458-1.116,0.03-1.183-0.43c-0.001-0.004,0.001-0.008,0-0.012
		c-0.073-0.024-0.145-0.048-0.22-0.071c0.061,2.056,1.922,5.061,6.14,6.139c-0.008-0.072-0.023-0.144-0.034-0.216
		C22.793,50.604,22.554,50.151,22.845,49.581z M18.045,47.024c-0.235-0.427,0.068-1.076,0.899-1.025
		c-0.348,0.059-0.555,0.51-0.388,0.779c0.112,0.177,0.412,0.314,0.81,0.142C18.969,47.684,18.279,47.452,18.045,47.024z
		 M19.329,48.784c-0.37-0.319-0.311-1.032,0.485-1.274c-0.306,0.177-0.343,0.673-0.091,0.866c0.165,0.128,0.496,0.15,0.808-0.15
		C20.426,49.079,19.699,49.103,19.329,48.784z M21.229,50.006c-0.462-0.16-0.671-0.845-0.018-1.364
		c-0.22,0.278-0.073,0.753,0.233,0.84c0.201,0.057,0.517-0.043,0.696-0.437C22.358,49.878,21.69,50.167,21.229,50.006z"/>
	<path class="st3" d="M22.996,50.019c-0.036-0.123-0.081-0.246-0.126-0.369C22.869,49.785,22.91,49.916,22.996,50.019z"/>
	<path class="st0" d="M19.722,48.375c-0.252-0.193-0.214-0.689,0.091-0.866c-0.796,0.242-0.854,0.956-0.485,1.274
		c0.371,0.319,1.097,0.296,1.201-0.559C20.218,48.525,19.887,48.503,19.722,48.375z"/>
	<path class="st0" d="M19.366,46.92c-0.398,0.173-0.698,0.036-0.81-0.142c-0.168-0.269,0.04-0.72,0.388-0.779
		c-0.83-0.051-1.134,0.597-0.899,1.025C18.279,47.452,18.969,47.684,19.366,46.92z"/>
	<path class="st0" d="M18.45,45.327c-0.369-0.164-0.768-0.308-1.183-0.442c0.001,0.004-0.001,0.008,0,0.012
		C17.334,45.357,17.849,45.784,18.45,45.327z"/>
	<path class="st0" d="M21.443,49.482c-0.306-0.087-0.453-0.561-0.233-0.84c-0.652,0.518-0.444,1.204,0.018,1.364
		c0.461,0.161,1.129-0.128,0.91-0.962C21.96,49.439,21.644,49.539,21.443,49.482z"/>
	<path class="st0" d="M23.153,50.736c-0.036-0.238-0.086-0.477-0.157-0.717c-0.086-0.103-0.127-0.234-0.126-0.369
		c-0.008-0.023-0.016-0.046-0.025-0.069C22.554,50.151,22.793,50.604,23.153,50.736z"/>
	<path class="st3" d="M21.999,48.056c-0.528-0.713-1.229-1.385-2.124-1.963C20.308,46.814,21.011,47.516,21.999,48.056z"/>
	<path class="st0" d="M22.509,48.847c-0.146-0.268-0.318-0.531-0.51-0.791c-0.988-0.54-1.691-1.242-2.124-1.963
		c-0.237-0.153-0.489-0.299-0.752-0.438C19.602,46.845,20.69,48.102,22.509,48.847z"/>
	<path class="st2" d="M15.829,58.229c-0.006-0.007-0.012-0.015-0.018-0.022c0.004,0.013,0.011,0.025,0.018,0.037
		C15.829,58.239,15.829,58.234,15.829,58.229z"/>
	<path class="st2" d="M16.692,43.234l-0.089,0.086c-0.108,0.105-0.216,0.21-0.32,0.321l-0.162,0.18
		c-0.105,0.114-0.209,0.23-0.311,0.35c-0.019,0.023-0.029,0.051-0.037,0.078c0.414-0.496,0.848-0.967,1.323-1.383
		c-0.084,0.073-0.169,0.146-0.253,0.223C16.792,43.136,16.742,43.185,16.692,43.234z"/>
	<path class="st2" d="M44.484,60.073c0.104-0.079,0.207-0.159,0.311-0.242c0.081-0.065,0.162-0.134,0.268-0.224
		c0.107-0.093,0.214-0.186,0.316-0.282c0.056-0.05,0.109-0.103,0.164-0.156l0.068-0.065c0.111-0.109,0.223-0.218,0.33-0.332
		c0.04-0.041,0.078-0.084,0.116-0.127l0.052-0.058c0.104-0.113,0.208-0.228,0.308-0.348c0.018-0.022,0.026-0.048,0.035-0.074
		c-0.721,0.863-1.527,1.621-2.425,2.237l0.154-0.106C44.282,60.223,44.384,60.148,44.484,60.073z"/>
	<path class="st2" d="M46.396,44.181c0.007,0.008,0.013,0.017,0.02,0.025c-0.005-0.014-0.012-0.028-0.02-0.041
		C46.396,44.17,46.396,44.175,46.396,44.181z"/>
	<path class="st2" d="M17.744,42.337c-0.105,0.079-0.211,0.161-0.313,0.244c-0.077,0.061-0.151,0.125-0.265,0.223
		c-0.023,0.02-0.046,0.041-0.068,0.06c0.35-0.306,0.716-0.589,1.096-0.849c-0.051,0.034-0.101,0.068-0.15,0.103
		C17.942,42.189,17.842,42.262,17.744,42.337z"/>
	<path class="st2" d="M26.819,49.071c-0.687-2.537-3.111-5.589-7.941-6.976c-0.171,0.106-0.345,0.206-0.51,0.322l0.024-0.016
		c5.057,1.324,7.482,4.479,8.068,7.002c0.024,0.108,0.127,0.146,0.233,0.131c0.029-0.003,0.058-0.015,0.082-0.033h2.164
		c0.063,0,0.124-0.028,0.165-0.077c0.04-0.048,0.058-0.112,0.047-0.175c-0.093-0.537-0.318-1.533-0.818-2.698
		c-0.157,0.03-0.31,0.041-0.458,0.033c0.451,1.017,0.689,1.915,0.805,2.488H26.819z"/>
	<path class="st2" d="M23.598,41.069c-0.208-0.125-0.415-0.25-0.638-0.366l1.123,0c0,0,0,0,0.001,0l-1.906,0.001
		c-0.046,0.011-0.088,0.029-0.134,0.04c0.448,0.197,0.859,0.416,1.25,0.647C23.387,41.274,23.486,41.17,23.598,41.069z"/>
	<path class="st2" d="M22.061,54.686c-0.107,0.135-0.219,0.267-0.34,0.396c0.14,0.048,0.275,0.113,0.398,0.203
		c0.141-0.155,0.273-0.314,0.395-0.477L22.061,54.686z"/>
	<path class="st2" d="M38.628,61.341c0.208,0.125,0.416,0.25,0.639,0.366l-1.123,0c-0.001,0.001-0.002,0.001-0.003,0.001
		l1.907-0.001c0.046-0.011,0.089-0.029,0.136-0.041c-0.448-0.197-0.859-0.416-1.251-0.647
		C38.839,61.136,38.739,61.241,38.628,61.341z"/>
	<path class="st2" d="M35.407,53.339c0.684,2.536,3.106,5.588,7.941,6.977c0.168-0.105,0.34-0.202,0.503-0.316l-0.015,0.011
		c-5.062-1.326-7.485-4.48-8.066-7.001c-0.025-0.106-0.121-0.143-0.234-0.132c-0.029,0.003-0.057,0.015-0.081,0.032h-2.166
		c-0.063,0-0.124,0.028-0.165,0.077c-0.04,0.048-0.058,0.112-0.047,0.175c0.093,0.537,0.318,1.533,0.818,2.698
		c0.157-0.03,0.31-0.041,0.458-0.032c-0.451-1.017-0.689-1.916-0.805-2.489H35.407z"/>
	<path class="st2" d="M45.18,57.596c-0.074-0.023-0.146-0.047-0.219-0.071c-0.415-0.134-0.814-0.279-1.184-0.442
		c-0.234-0.104-0.457-0.214-0.673-0.328c-0.263-0.139-0.515-0.285-0.752-0.438c-0.895-0.579-1.597-1.251-2.126-1.964
		c-0.192-0.259-0.364-0.523-0.51-0.791c-0.131-0.242-0.241-0.486-0.335-0.731c-0.009-0.022-0.016-0.045-0.024-0.067
		c-0.046-0.125-0.091-0.249-0.128-0.374c-0.071-0.24-0.121-0.478-0.157-0.716c-0.011-0.072-0.026-0.144-0.033-0.216
		c-0.016-0.15-0.024-0.299-0.026-0.447c-0.001-0.031-0.005-0.062-0.005-0.093c0-0.747,0.168-1.457,0.482-2.118
		c0.178-0.375,0.404-0.735,0.676-1.076c0.107-0.134,0.219-0.267,0.339-0.395c-0.139-0.048-0.275-0.114-0.397-0.203
		c-0.988,1.089-1.529,2.38-1.529,3.792c0,2.796,2.252,6.102,7.271,7.31c0.106-0.118,0.199-0.252,0.301-0.375
		c-0.183-0.042-0.361-0.087-0.537-0.134C45.466,57.68,45.321,57.639,45.18,57.596z"/>
	<path class="st2" d="M17.046,44.813c0.075,0.023,0.147,0.047,0.22,0.071c0.415,0.134,0.814,0.279,1.183,0.442
		c0.234,0.104,0.458,0.214,0.674,0.328c0.264,0.139,0.515,0.285,0.752,0.438c0.894,0.578,1.595,1.25,2.124,1.963
		c0.192,0.259,0.364,0.523,0.51,0.791c0.132,0.243,0.242,0.488,0.336,0.734c0.009,0.023,0.016,0.046,0.025,0.069
		c0.045,0.123,0.09,0.246,0.126,0.369c0.071,0.24,0.121,0.479,0.157,0.717c0.011,0.072,0.026,0.145,0.034,0.216
		c0.016,0.15,0.024,0.299,0.026,0.447c0.001,0.031,0.005,0.062,0.005,0.092c0,0.747-0.168,1.457-0.482,2.118l0.424,0.114
		c0.319-0.697,0.487-1.446,0.487-2.232c0-2.796-2.252-6.102-7.27-7.311c-0.106,0.118-0.199,0.252-0.301,0.375
		c0.183,0.042,0.361,0.087,0.537,0.134C16.76,44.729,16.904,44.77,17.046,44.813z"/>
	<path class="st2" d="M44.815,59.249c0.019-0.017,0.038-0.034,0.057-0.051C44.853,59.216,44.836,59.232,44.815,59.249z"/>
	<path class="st2" d="M35.533,49.535c0.116,0.005,0.209-0.059,0.234-0.166c0.155-0.672,0.75-2.57,2.742-4.318
		c-0.117-0.079-0.232-0.166-0.348-0.259c-1.86,1.663-2.538,3.451-2.761,4.278h-1.853c0.179-0.885,0.643-2.538,1.752-4.222
		c-0.005,0-0.01,0.001-0.015,0.001c-0.062,0.005-0.118,0.003-0.18,0.007c-0.325,0.507-0.668,0.94-1.024,1.287
		c-0.63,1.337-0.9,2.507-1.004,3.105c-0.011,0.063,0.007,0.126,0.048,0.175c0.04,0.049,0.101,0.077,0.164,0.077h2.151
		C35.466,49.519,35.499,49.531,35.533,49.535z"/>
	<path class="st2" d="M17.414,43.158c-0.018,0.016-0.036,0.031-0.055,0.047C17.377,43.19,17.395,43.174,17.414,43.158z"/>
	<path class="st2" d="M26.693,52.875c-0.122-0.004-0.209,0.059-0.234,0.166c-0.154,0.672-0.749,2.57-2.741,4.319
		c0.117,0.079,0.232,0.166,0.348,0.259c1.862-1.664,2.539-3.453,2.762-4.28h1.852c-0.179,0.885-0.643,2.538-1.753,4.223
		c0.006,0,0.011-0.001,0.017-0.002c0.062-0.005,0.118-0.003,0.18-0.007c0.324-0.505,0.667-0.938,1.022-1.283
		c0.631-1.339,0.902-2.511,1.006-3.11c0.011-0.063-0.007-0.127-0.047-0.175c-0.041-0.049-0.102-0.077-0.165-0.077h-2.152
		C26.759,52.892,26.727,52.879,26.693,52.875z"/>
	<path class="st2" d="M21.092,52.516c-0.024-0.071-0.035-0.145-0.062-0.215C21.05,52.373,21.077,52.441,21.092,52.516z"/>
	<path class="st2" d="M21.167,53.189l0.106,0.029c-0.034-0.209-0.096-0.412-0.159-0.614C21.149,52.79,21.159,52.989,21.167,53.189z"
		/>
	<path class="st2" d="M17.497,49.714c0.81,0,1.527,0.21,2.11,0.583c-1.279-1.193-3.187-2.082-5.538-2.471l-0.007,0.013l-0.001,1.923
		c0.53,0.14,1.017,0.315,1.477,0.509C16.053,49.907,16.711,49.714,17.497,49.714z"/>
	<path class="st2" d="M29.573,48.642c0.868,0.397,1.347-0.186,1.347-0.729c0-0.543-0.814-1.615-1.776-1.294
		C29.868,46.928,29.987,47.987,29.573,48.642z"/>
	<path class="st2" d="M32.001,47.162c-0.113,0-0.225-0.016-0.336-0.036c-0.221,0.265-0.358,0.568-0.358,0.787
		c0,0.544,0.478,1.127,1.346,0.729c-0.292-0.462-0.312-1.12-0.049-1.579C32.401,47.122,32.2,47.162,32.001,47.162z"/>
	<path class="st0" d="M25.195,50.37c-0.481,0-0.873,0.39-0.873,0.871c0,0.481,0.391,0.87,0.873,0.87c0.479,0,0.869-0.39,0.869-0.87
		C26.064,50.759,25.674,50.37,25.195,50.37z"/>
	<path class="st0" d="M24.709,47.913c-0.481,0-0.872,0.39-0.872,0.871c0,0.481,0.39,0.871,0.872,0.871c0.481,0,0.87-0.39,0.87-0.871
		C25.579,48.303,25.19,47.913,24.709,47.913z"/>
	<path class="st0" d="M23.224,47.49c0.482,0,0.871-0.39,0.871-0.871c0-0.48-0.389-0.871-0.871-0.871c-0.48,0-0.869,0.39-0.869,0.871
		C22.355,47.1,22.744,47.49,23.224,47.49z"/>
	<path class="st0" d="M21.215,45.707c0.481,0,0.87-0.391,0.87-0.871c0-0.481-0.389-0.87-0.87-0.87c-0.481,0-0.87,0.39-0.87,0.87
		C20.345,45.316,20.734,45.707,21.215,45.707z"/>
	<path class="st0" d="M18.822,42.802c-0.48,0-0.87,0.39-0.87,0.87c0,0.481,0.39,0.871,0.87,0.871c0.481,0,0.872-0.391,0.872-0.871
		C19.694,43.191,19.304,42.802,18.822,42.802z"/>
	<path class="st2" d="M27.475,46.052c0.687,0.323,1.671-0.104,2.642-1.139c0.042-0.044,0.099-0.068,0.157-0.068
		c0.023,0,0.047,0.003,0.07,0.012c0.08,0.027,0.136,0.099,0.144,0.184c0.082,0.893,0.527,1.513,1.193,1.657
		c0.723,0.159,1.825-0.267,2.898-1.821c-0.373,0.017-0.754,0.042-1.111,0.042c-4.277,0-7.412-1.231-8.926-3.538
		c-0.07-0.106-0.118-0.224-0.18-0.334c-0.663,0.361-1.088,0.981-1.202,1.496c-0.055,0.249-0.093,0.714,0.262,1.033
		c0.294,0.262,1.073,0.602,3.004-0.053c0.068-0.024,0.146-0.01,0.205,0.037c0.058,0.047,0.087,0.12,0.077,0.193
		C26.566,44.882,26.86,45.763,27.475,46.052z"/>
	<path class="st2" d="M39.767,45.185c0.304-0.453,0.886-0.68,1.563-0.775c0.002-0.291-0.073-0.637-0.247-1.035
		c-0.032-0.075-0.02-0.161,0.032-0.224c0.052-0.063,0.139-0.091,0.214-0.072c0.655,0.155,1.215,0.21,1.66,0.18
		c-0.041-0.999-0.113-2.008-0.216-3.007c-0.043,0.175-0.086,0.35-0.151,0.525c-0.391,1.05-1.463,2.683-4.349,3.546
		C38.777,44.757,39.297,45.045,39.767,45.185z"/>
	<path class="st0" d="M37.729,37.372c0.802,0.151,1.753-0.144,2.151-1.11c-0.829-0.719-2.485-1.397-3.752-0.761
		C36.142,36.664,36.989,37.236,37.729,37.372z M37.442,35.616c0.322,0,0.585,0.262,0.585,0.585c0,0.322-0.263,0.584-0.585,0.584
		s-0.584-0.262-0.584-0.584C36.858,35.878,37.12,35.616,37.442,35.616z"/>
	<path class="st0" d="M37.442,36.355c0.086,0,0.155-0.069,0.155-0.154c0-0.085-0.069-0.155-0.155-0.155
		c-0.085,0-0.154,0.07-0.154,0.155C37.288,36.286,37.357,36.355,37.442,36.355z"/>
	<path class="st0" d="M32.413,37.335c0.846-0.186,1.73-0.761,1.754-1.823c-1.549-0.654-3.567,0.027-4.582,0.757
		C30.094,37.264,31.367,37.564,32.413,37.335z M31.463,35.616c0.322,0,0.584,0.262,0.584,0.585c0,0.322-0.262,0.584-0.584,0.584
		s-0.584-0.262-0.584-0.584C30.879,35.878,31.14,35.616,31.463,35.616z"/>
	<path class="st0" d="M40.343,34.618c-0.107-0.245-0.208-0.477-0.342-0.708c-0.467-0.809-1.062-1.556-1.72-2.166
		c-1.391-0.785-5.354-0.98-8.703-0.42c0.321,3.364-0.741,8.252-5.035,9.155c0.108,0.228,0.219,0.455,0.358,0.667
		c1.632,2.487,5.313,3.65,10.351,3.276c4.972-0.369,6.499-2.535,6.968-3.793c0.621-1.671,0.104-3.391-0.73-4.227
		C40.837,35.747,40.586,35.173,40.343,34.618z M35.808,35.185c0.155-0.089,0.318-0.148,0.481-0.204
		c-0.167-0.064-0.331-0.155-0.485-0.295c0.623,0.034,2.351-0.339,3.015-1.155c0.774,0.346,1.189,1.216,1.235,1.95
		c-0.298-0.65-0.818-1.193-1.145-1.377c-0.174,0.184-0.607,0.527-1.128,0.756c0.998,0.142,1.943,0.654,2.5,1.185
		c0.061,0.058,0.082,0.146,0.055,0.225c-0.378,1.111-1.346,1.566-2.23,1.566c-0.155,0-0.308-0.014-0.455-0.042
		c-1.008-0.186-2.003-1.01-1.951-2.432C35.703,35.289,35.744,35.222,35.808,35.185z M35.753,36.677
		c0.121-0.026,0.232,0.043,0.261,0.157c0.146,0.592,0.598,1.096,1.179,1.314c0.635,0.239,1.345,0.123,1.993-0.33
		c0.095-0.069,0.23-0.045,0.3,0.053c0.067,0.097,0.044,0.231-0.054,0.299c-0.503,0.351-1.041,0.53-1.569,0.53
		c-0.278,0-0.555-0.05-0.821-0.15c-0.723-0.271-1.263-0.875-1.445-1.613C35.567,36.822,35.637,36.705,35.753,36.677z M32.087,38.834
		c-0.686,0-1.375-0.236-1.946-0.69c-0.093-0.074-0.108-0.209-0.034-0.302c0.072-0.093,0.208-0.109,0.302-0.035
		c0.912,0.724,1.954,0.689,2.622,0.411c0.644-0.266,1.068-0.773,1.137-1.358c0.014-0.117,0.105-0.205,0.239-0.188
		c0.117,0.014,0.202,0.121,0.188,0.238c-0.087,0.742-0.61,1.379-1.4,1.706C32.84,38.763,32.463,38.834,32.087,38.834z
		 M31.918,31.955c0.179,1.383,1.714,2.572,2.281,2.696c-1.631,0.277-2.365-1.175-2.53-1.95c-0.291,0.139-1.011,0.498-1.813,0.997
		C30.175,33.296,30.95,32.508,31.918,31.955z M29.183,36.033c1.102-0.876,3.469-1.718,5.289-0.855
		c0.071,0.034,0.118,0.105,0.122,0.185c0.051,1.164-0.77,2.104-2.09,2.393c-0.246,0.054-0.505,0.082-0.765,0.082
		c-1.077,0-2.182-0.479-2.622-1.555C29.082,36.194,29.108,36.092,29.183,36.033z M32.041,41.404
		c-0.313,0.094-0.707,0.168-1.082,0.106c-0.375-0.062-0.755-0.255-0.984-0.599c-0.075-0.185-0.178-0.366-0.178-0.562
		c-0.009-0.101-0.027-0.184-0.026-0.298l0.026-0.268c0.06-0.404,0.328-0.749,0.684-0.887c0.349-0.143,0.732-0.115,1.034,0.03
		c0.305,0.138,0.541,0.412,0.581,0.712c0.021,0.073,0.01,0.145,0.005,0.215c-0.002,0.071-0.017,0.146-0.038,0.199
		c-0.048,0.129-0.132,0.236-0.227,0.306c-0.198,0.139-0.421,0.145-0.576,0.096c-0.16-0.05-0.25-0.16-0.279-0.24
		c-0.032-0.08-0.027-0.128-0.031-0.127c0.003-0.001,0.003,0.048,0.042,0.122c0.035,0.075,0.129,0.17,0.28,0.204
		c0.147,0.034,0.35,0.007,0.508-0.126c0.161-0.13,0.221-0.378,0.178-0.624c-0.045-0.244-0.247-0.461-0.514-0.568
		c-0.265-0.113-0.596-0.115-0.876,0.003c-0.285,0.112-0.492,0.399-0.536,0.708l-0.021,0.269c0.003,0.065,0.021,0.161,0.029,0.24
		c0,0.175,0.095,0.313,0.151,0.467c0.179,0.273,0.482,0.439,0.809,0.5c0.336,0.058,0.652,0.007,0.991-0.086
		c0.286-0.108,0.586-0.262,0.809-0.453c0.242-0.178,0.421-0.42,0.601-0.626c0.191-0.201,0.375-0.385,0.589-0.481
		c0.097-0.064,0.212-0.072,0.309-0.094c0.098,0.007,0.194,0.013,0.269,0.045c0.072,0.039,0.136,0.073,0.192,0.104
		c0.045,0.042,0.083,0.079,0.114,0.108c0.062,0.058,0.095,0.09,0.095,0.09s-0.035-0.028-0.102-0.081
		c-0.034-0.026-0.075-0.059-0.123-0.098c-0.055-0.024-0.119-0.052-0.19-0.083c-0.071-0.023-0.16-0.021-0.248-0.021
		c-0.087,0.03-0.186,0.041-0.273,0.109c-0.186,0.103-0.347,0.295-0.524,0.493c-0.168,0.211-0.333,0.462-0.585,0.67
		C32.675,41.099,32.391,41.273,32.041,41.404z M40.458,40.529l-0.086,0.249c-0.143,0.318-0.42,0.598-0.764,0.688
		c-0.328,0.092-0.712,0.047-0.976-0.062c-0.313-0.138-0.545-0.32-0.74-0.543c-0.202-0.208-0.326-0.443-0.455-0.644
		c-0.133-0.195-0.259-0.376-0.406-0.491c-0.139-0.137-0.313-0.143-0.439-0.106c-0.058,0.032-0.115,0.057-0.16,0.086
		c-0.039,0.038-0.073,0.07-0.1,0.097c-0.054,0.052-0.083,0.08-0.083,0.08s0.026-0.031,0.075-0.088
		c0.025-0.029,0.055-0.064,0.09-0.106c0.043-0.034,0.099-0.067,0.161-0.108c0.13-0.058,0.344-0.063,0.507,0.072
		c0.176,0.111,0.323,0.287,0.47,0.484c0.141,0.197,0.279,0.424,0.474,0.603c0.177,0.188,0.431,0.35,0.667,0.456
		c0.299,0.109,0.561,0.119,0.845,0.046c0.279-0.079,0.488-0.304,0.603-0.565l0.076-0.206c0.015-0.072,0.018-0.148,0.029-0.222
		c0.028-0.145,0.013-0.291-0.002-0.453c-0.036-0.274-0.192-0.546-0.425-0.663c-0.23-0.127-0.519-0.115-0.734,0.007
		c-0.22,0.116-0.358,0.336-0.379,0.558c-0.012,0.055-0.001,0.111-0.003,0.164c-0.004,0.056,0.007,0.091,0.023,0.153
		c0.016,0.119,0.071,0.186,0.117,0.26c0.123,0.135,0.299,0.166,0.424,0.128c0.062-0.026,0.118-0.05,0.147-0.097
		c0.04-0.037,0.065-0.074,0.071-0.113c0.024-0.071,0.036-0.109,0.036-0.109s-0.009,0.039-0.026,0.113
		c-0.003,0.04-0.025,0.081-0.063,0.125c-0.027,0.053-0.084,0.086-0.151,0.121c-0.135,0.056-0.342,0.044-0.505-0.104
		c-0.159-0.166-0.22-0.39-0.212-0.654c0.01-0.26,0.163-0.545,0.427-0.703c0.257-0.164,0.622-0.206,0.927-0.041
		c0.313,0.157,0.507,0.483,0.558,0.834c0.017,0.152,0.037,0.326,0.01,0.499C40.478,40.359,40.475,40.445,40.458,40.529z"/>
	<path class="st0" d="M31.463,36.355c0.085,0,0.154-0.069,0.154-0.154c0-0.085-0.069-0.155-0.154-0.155s-0.154,0.07-0.154,0.155
		C31.308,36.286,31.378,36.355,31.463,36.355z"/>
	<path class="st2" d="M19.22,37.387c0.007,0.709,0.379,1.443,0.996,1.963c0.642,0.542,1.854,1.117,3.979,0.77
		c4.233-0.689,5.262-5.451,4.956-8.723c-1.531,0.291-2.9,0.748-3.779,1.39c0,0-0.001,0-0.001,0
		c-0.001,0.001-0.001,0.001-0.002,0.002c-0.504,0.354-0.912,1.042-1.213,2.045c-0.472,1.564-1.842,2.44-2.875,2.364
		c-0.663-0.042-1.121-0.447-1.227-1.083c-0.041-0.241,0.023-0.5,0.152-0.702C19.688,35.574,19.21,36.22,19.22,37.387z
		 M23.333,37.059c1.33-0.341,2.035-1.835,2.166-2.697c0.019-0.117,0.129-0.198,0.245-0.18c0.117,0.018,0.198,0.127,0.181,0.245
		c-0.148,0.97-0.954,2.655-2.484,3.048c-0.019,0.004-0.036,0.006-0.054,0.006c-0.096,0-0.184-0.064-0.208-0.162
		C23.149,37.206,23.217,37.089,23.333,37.059z M23.176,38.834c2.965-0.14,4.387-3.703,4.457-5.489
		c0.005-0.119,0.088-0.199,0.224-0.207c0.118,0.005,0.211,0.104,0.206,0.223c-0.076,1.92-1.626,5.75-4.867,5.902
		c-0.003,0-0.007,0-0.01,0c-0.114,0-0.209-0.089-0.215-0.205C22.965,38.94,23.057,38.84,23.176,38.834z"/>
	<path class="st2" d="M38.716,28.965c0.046,0.019,0.087,0.039,0.13,0.059c0.048-0.144,0.103-0.281,0.154-0.422
		C38.914,28.735,38.82,28.859,38.716,28.965z"/>
	<path class="st2" d="M24.465,28.26c-0.016-0.678,0.268-1.232,0.753-1.353c0.604-0.154,1.264,0.439,1.488,1.345
		c0.088,0.352,0.094,0.691,0.036,0.984c0.38-0.126,0.773-0.244,1.189-0.345c-0.211-0.278-0.358-0.644-0.409-1.047
		c-0.052-0.424,0.003-0.838,0.155-1.167c0.169-0.363,0.436-0.584,0.752-0.623c0.318-0.034,0.629,0.11,0.881,0.421
		c0.229,0.282,0.383,0.67,0.436,1.094c0.044,0.355,0.004,0.697-0.095,0.991c0.43-0.066,0.865-0.123,1.304-0.166
		c-0.157-0.278-0.259-0.63-0.27-1.026c-0.026-0.933,0.445-1.678,1.074-1.695c0.007,0,0.014,0,0.021,0
		c0.618,0,1.118,0.712,1.143,1.634c0.01,0.356-0.069,0.686-0.198,0.972c0.458-0.016,0.909-0.021,1.35-0.013
		c-0.123-0.322-0.162-0.725-0.083-1.155l0.001,0c0.172-0.917,0.779-1.554,1.404-1.432c0.617,0.113,0.968,0.922,0.8,1.84
		c-0.062,0.332-0.193,0.609-0.351,0.844c0.377,0.036,0.736,0.08,1.073,0.134c-0.037-0.357,0.041-0.76,0.222-1.14c0,0,0,0,0.001,0
		c0.242-0.505,0.631-0.893,1.04-1.036c0.247-0.086,0.484-0.079,0.689,0.019c0.417,0.2,0.592,0.73,0.494,1.333
		c0.673-1.56,1.546-2.906,2.624-4.014H22.845C23.519,24.785,24.006,26.39,24.465,28.26z"/>
	<path class="st2" d="M25.196,29.891c-0.199-0.162-0.371-0.387-0.501-0.671c0.065,0.28,0.131,0.564,0.196,0.853
		C24.99,30.011,25.088,29.949,25.196,29.891z"/>
	<path d="M23.186,39.264c0.003,0,0.007,0,0.01,0c3.241-0.153,4.791-3.982,4.867-5.902c0.005-0.119-0.088-0.218-0.206-0.223
		c-0.136,0.007-0.219,0.088-0.224,0.207c-0.07,1.787-1.492,5.35-4.457,5.489c-0.119,0.006-0.211,0.106-0.205,0.225
		C22.977,39.174,23.072,39.264,23.186,39.264z"/>
	<path d="M23.386,37.482c0.018,0,0.035-0.002,0.054-0.006c1.53-0.393,2.336-2.079,2.484-3.048c0.018-0.118-0.063-0.228-0.181-0.245
		c-0.116-0.018-0.227,0.063-0.245,0.18c-0.131,0.862-0.836,2.356-2.166,2.697c-0.115,0.03-0.184,0.147-0.154,0.262
		C23.203,37.418,23.291,37.482,23.386,37.482z"/>
	<path d="M31.74,37.837c0.26,0,0.519-0.028,0.765-0.082c1.32-0.29,2.141-1.229,2.09-2.393c-0.004-0.08-0.051-0.151-0.122-0.185
		c-1.82-0.863-4.187-0.021-5.289,0.855c-0.075,0.06-0.102,0.162-0.065,0.25C29.558,37.358,30.663,37.837,31.74,37.837z
		 M34.167,35.512c-0.023,1.063-0.908,1.638-1.754,1.823c-1.046,0.229-2.318-0.071-2.828-1.066
		C30.599,35.539,32.618,34.858,34.167,35.512z"/>
	<path d="M37.651,37.795c0.147,0.027,0.3,0.042,0.455,0.042c0.885,0,1.853-0.456,2.23-1.566c0.027-0.08,0.006-0.167-0.055-0.225
		c-0.558-0.531-1.503-1.044-2.5-1.185c0.52-0.229,0.953-0.572,1.128-0.756c0.327,0.184,0.847,0.727,1.145,1.377
		c-0.047-0.734-0.461-1.604-1.235-1.95c-0.664,0.816-2.392,1.189-3.015,1.155c0.154,0.14,0.317,0.231,0.485,0.295
		c-0.163,0.055-0.326,0.115-0.481,0.204c-0.064,0.037-0.105,0.104-0.108,0.179C35.648,36.786,36.643,37.61,37.651,37.795z
		 M39.88,36.262c-0.398,0.966-1.35,1.262-2.151,1.11c-0.74-0.136-1.587-0.708-1.601-1.872C37.395,34.865,39.051,35.543,39.88,36.262
		z"/>
	<path d="M34.199,34.651c-0.567-0.124-2.102-1.314-2.281-2.696c-0.968,0.553-1.743,1.341-2.061,1.743
		c0.802-0.498,1.522-0.858,1.813-0.997C31.835,33.477,32.568,34.928,34.199,34.651z"/>
	<path d="M33.504,40.205c0.176-0.199,0.338-0.391,0.524-0.493c0.087-0.068,0.185-0.08,0.273-0.109c0.088,0,0.177-0.003,0.248,0.021
		c0.071,0.031,0.135,0.059,0.19,0.083c0.049,0.039,0.09,0.071,0.123,0.098c0.067,0.053,0.102,0.081,0.102,0.081
		s-0.033-0.031-0.095-0.09c-0.031-0.029-0.069-0.065-0.114-0.108c-0.056-0.03-0.12-0.065-0.192-0.104
		c-0.074-0.032-0.171-0.038-0.269-0.045c-0.096,0.022-0.212,0.03-0.309,0.094c-0.214,0.096-0.398,0.281-0.589,0.481
		c-0.18,0.206-0.358,0.448-0.601,0.626c-0.224,0.192-0.524,0.345-0.809,0.453c-0.339,0.093-0.655,0.143-0.991,0.086
		c-0.327-0.061-0.63-0.227-0.809-0.5c-0.056-0.153-0.151-0.292-0.151-0.467c-0.008-0.079-0.026-0.175-0.029-0.24l0.021-0.269
		c0.045-0.309,0.252-0.596,0.536-0.708c0.28-0.117,0.611-0.116,0.876-0.003c0.268,0.107,0.469,0.324,0.514,0.568
		c0.043,0.246-0.017,0.495-0.178,0.624c-0.158,0.134-0.362,0.161-0.508,0.126c-0.151-0.034-0.245-0.128-0.28-0.204
		c-0.038-0.075-0.038-0.124-0.042-0.122c0.004-0.001-0.001,0.047,0.031,0.127c0.029,0.08,0.119,0.189,0.279,0.24
		c0.155,0.05,0.378,0.043,0.576-0.096c0.095-0.07,0.179-0.177,0.227-0.306c0.021-0.053,0.036-0.128,0.038-0.199
		c0.006-0.07,0.016-0.142-0.005-0.215c-0.039-0.299-0.275-0.574-0.581-0.712c-0.302-0.144-0.685-0.173-1.034-0.03
		c-0.356,0.138-0.625,0.484-0.684,0.887L29.77,40.05c-0.001,0.114,0.018,0.197,0.026,0.298c0,0.197,0.103,0.378,0.178,0.562
		c0.229,0.344,0.61,0.537,0.984,0.599c0.375,0.062,0.769-0.012,1.082-0.106c0.351-0.131,0.634-0.305,0.878-0.529
		C33.171,40.667,33.336,40.416,33.504,40.205z"/>
	<path d="M40.478,39.775c-0.051-0.352-0.246-0.677-0.558-0.834c-0.306-0.164-0.671-0.123-0.927,0.041
		c-0.265,0.158-0.417,0.443-0.427,0.703c-0.007,0.264,0.053,0.488,0.212,0.654c0.163,0.148,0.37,0.16,0.505,0.104
		c0.067-0.035,0.123-0.068,0.151-0.121c0.038-0.043,0.06-0.084,0.063-0.125c0.017-0.074,0.026-0.113,0.026-0.113
		s-0.013,0.038-0.036,0.109c-0.006,0.039-0.031,0.076-0.071,0.113c-0.029,0.047-0.085,0.071-0.147,0.097
		c-0.125,0.038-0.302,0.007-0.424-0.128c-0.046-0.075-0.101-0.142-0.117-0.26c-0.016-0.062-0.027-0.097-0.023-0.153
		c0.002-0.054-0.009-0.11,0.003-0.164c0.021-0.222,0.159-0.442,0.379-0.558c0.215-0.122,0.504-0.134,0.734-0.007
		c0.234,0.117,0.389,0.389,0.425,0.663c0.015,0.163,0.03,0.308,0.002,0.453c-0.01,0.074-0.013,0.15-0.029,0.222l-0.076,0.206
		c-0.115,0.261-0.323,0.486-0.603,0.565c-0.284,0.072-0.546,0.063-0.845-0.046c-0.236-0.106-0.49-0.268-0.667-0.456
		c-0.196-0.179-0.334-0.406-0.474-0.603c-0.147-0.196-0.294-0.372-0.47-0.484c-0.163-0.135-0.377-0.129-0.507-0.072
		c-0.062,0.041-0.118,0.074-0.161,0.108c-0.035,0.042-0.066,0.077-0.09,0.106c-0.049,0.057-0.075,0.088-0.075,0.088
		s0.029-0.028,0.083-0.08c0.027-0.026,0.06-0.059,0.1-0.097c0.045-0.029,0.102-0.054,0.16-0.086
		c0.125-0.037,0.299-0.031,0.439,0.106c0.147,0.114,0.273,0.296,0.406,0.491c0.129,0.201,0.253,0.436,0.455,0.644
		c0.195,0.222,0.427,0.405,0.74,0.543c0.264,0.108,0.648,0.154,0.976,0.062c0.344-0.09,0.622-0.37,0.764-0.688l0.086-0.249
		c0.017-0.084,0.02-0.17,0.03-0.255C40.515,40.101,40.494,39.927,40.478,39.775z"/>
	<path d="M34.594,36.911c0.014-0.118-0.071-0.225-0.188-0.238c-0.134-0.017-0.226,0.071-0.239,0.188
		c-0.068,0.584-0.493,1.092-1.137,1.358c-0.668,0.278-1.71,0.313-2.622-0.411c-0.094-0.074-0.229-0.058-0.302,0.035
		c-0.074,0.093-0.059,0.229,0.034,0.302c0.571,0.454,1.261,0.69,1.946,0.69c0.377,0,0.754-0.072,1.107-0.218
		C33.984,38.29,34.507,37.652,34.594,36.911z"/>
	<path d="M37.041,38.55c0.267,0.101,0.543,0.15,0.821,0.15c0.528,0,1.066-0.179,1.569-0.53c0.098-0.068,0.121-0.202,0.054-0.299
		c-0.069-0.099-0.205-0.122-0.3-0.053c-0.648,0.453-1.358,0.569-1.993,0.33c-0.581-0.218-1.033-0.722-1.179-1.314
		c-0.028-0.114-0.14-0.183-0.261-0.157c-0.115,0.029-0.186,0.146-0.157,0.261C35.778,37.676,36.318,38.279,37.041,38.55z"/>
	<path d="M31.463,36.785c0.322,0,0.584-0.262,0.584-0.584c0-0.323-0.262-0.585-0.584-0.585s-0.584,0.262-0.584,0.585
		C30.879,36.523,31.14,36.785,31.463,36.785z M31.463,36.046c0.085,0,0.154,0.07,0.154,0.155c0,0.085-0.069,0.154-0.154,0.154
		s-0.154-0.069-0.154-0.154C31.308,36.116,31.378,36.046,31.463,36.046z"/>
	<path d="M37.442,36.785c0.322,0,0.585-0.262,0.585-0.584c0-0.323-0.263-0.585-0.585-0.585s-0.584,0.262-0.584,0.585
		C36.858,36.523,37.12,36.785,37.442,36.785z M37.442,36.046c0.086,0,0.155,0.07,0.155,0.155c0,0.085-0.069,0.154-0.155,0.154
		c-0.085,0-0.154-0.069-0.154-0.154C37.288,36.116,37.357,36.046,37.442,36.046z"/>
	<path class="st1" d="M34.035,51.834v-1.258h-0.001h-1.22c0.032,0.202,0.054,0.411,0.054,0.629s-0.022,0.427-0.054,0.629h1.22
		H34.035z"/>
	<path class="st0" d="M48.165,29.157c-1.589-1.024-2.861-2.573-3.458-4.177c-0.623,1.648-2.085,3.552-4.267,4.643
		c1.679,2.283,2.926,9.384,3.013,14.791c0.301,0.029,0.58,0.063,0.82,0.096C44.3,40.164,44.501,32.6,44.708,30.2
		c0.209,2.412,0.411,10.037,0.435,14.372c0.271,0.008,0.541,0.022,0.817,0.003c0.055-4.74,0.982-10.422,2.204-13.42V29.157z"/>
	<path class="st4" d="M44.708,30.2c-0.207,2.4-0.409,9.964-0.435,14.309c0.077,0.01,0.153,0.02,0.221,0.03l0.241,0.032
		c0.131,0.011,0.273-0.003,0.408,0.001C45.119,40.237,44.918,32.611,44.708,30.2z"/>
	<path class="st2" d="M48.165,45.806v-2.088c-0.132,0.037-0.246,0.104-0.331,0.196c-0.139,0.151-0.203,0.364-0.189,0.633
		c0.005,0.102-0.062,0.193-0.16,0.219c-0.856,0.225-1.873,0.311-2.793,0.232l-0.254-0.034c-0.497-0.067-1.353-0.184-2.182-0.184
		c-1.083,0-2.121,0.198-2.266,0.959c-0.11,0.588,0.183,0.902,0.367,1.038c0.313,0.229,0.746,0.275,1.051,0.113
		c0.257-0.138,0.384-0.404,0.366-0.77c-0.005-0.102,0.063-0.192,0.16-0.218c0.392-0.103,0.82-0.173,1.255-0.215
		c0.312-0.127,0.655-0.204,1.016-0.247c0.014-0.005,0.023-0.02,0.039-0.022c0.117-0.014,0.22-0.015,0.315-0.009
		c0.058-0.002,0.112-0.015,0.171-0.015c0.714,0,1.314,0.168,1.806,0.47C47.084,45.894,47.664,45.893,48.165,45.806z"/>
	<path class="st0" d="M41.472,49.045c0,1.927,1.31,3.222,3.258,3.222c2.465,0,2.833-2.019,2.833-3.222
		c0-1.094-0.323-2.846-2.233-3.157c0.013,0.031,0.024,0.059,0.03,0.08c0.114,0.386-0.074,0.853-0.412,1.02
		c-0.296,0.146-0.691,0.432-0.941,0.977c0.203,0.565,0.076,1.262-0.322,1.727c-0.277,0.323-0.648,0.493-1.055,0.493
		c-0.13,0-0.263-0.018-0.398-0.053c-0.114-0.03-0.184-0.147-0.153-0.263c0.03-0.114,0.142-0.184,0.263-0.153
		c0.396,0.104,0.759-0.003,1.018-0.304c0.312-0.364,0.403-0.938,0.219-1.365c-0.023-0.053-0.023-0.114-0.001-0.167
		c0.235-0.57,0.644-1.011,1.182-1.276c0.135-0.067,0.25-0.31,0.19-0.512c-0.056-0.185-0.24-0.24-0.419-0.25
		C42.696,45.93,41.472,47.188,41.472,49.045z"/>
	<path class="st0" d="M31.788,26.808c-0.281,0.008-0.501,0.252-0.493,0.544c0.008,0.293,0.242,0.524,0.522,0.516
		c0.281-0.008,0.502-0.252,0.494-0.544C32.304,27.032,32.07,26.8,31.788,26.808z"/>
	<path class="st0" d="M29.138,27.645c-0.035-0.29-0.291-0.497-0.569-0.463c-0.278,0.034-0.476,0.298-0.439,0.589
		c0.035,0.29,0.291,0.498,0.57,0.464C28.979,28.2,29.174,27.936,29.138,27.645z"/>
	<path class="st0" d="M25.492,28.009c-0.272,0.067-0.436,0.352-0.365,0.637c0.071,0.285,0.35,0.46,0.622,0.393
		c0.274-0.068,0.436-0.354,0.365-0.638C26.044,28.116,25.765,27.941,25.492,28.009z"/>
	<path class="st0" d="M35.594,27.408c0.054-0.289-0.128-0.563-0.404-0.614c-0.275-0.051-0.543,0.14-0.597,0.428
		s0.128,0.563,0.404,0.615C35.275,27.888,35.541,27.695,35.594,27.408z"/>
	<path class="st0" d="M38.38,27.363c-0.252-0.121-0.56-0.006-0.688,0.258c-0.126,0.264-0.023,0.578,0.23,0.698
		c0.253,0.122,0.561,0.006,0.688-0.259C38.737,27.797,38.634,27.485,38.38,27.363z"/>
	<path class="st1" d="M32.016,29.604c0,0.406,0.33,0.735,0.737,0.735c0.405,0,0.735-0.329,0.735-0.735
		c0-0.406-0.33-0.736-0.735-0.736C32.346,28.868,32.016,29.198,32.016,29.604z"/>
	<path class="st1" d="M29.32,30.675c0.406,0,0.736-0.329,0.736-0.735c0-0.406-0.33-0.735-0.736-0.735
		c-0.406,0-0.736,0.329-0.736,0.735C28.584,30.346,28.914,30.675,29.32,30.675z"/>
	<path class="st1" d="M36.078,28.991c-0.407,0-0.737,0.329-0.737,0.736c0,0.406,0.33,0.735,0.737,0.735
		c0.405,0,0.735-0.329,0.735-0.735C36.813,29.32,36.483,28.991,36.078,28.991z"/>
	<path class="st2" d="M32.653,53.768c-0.868-0.398-1.346,0.186-1.346,0.729s0.814,1.615,1.776,1.294
		C32.358,55.482,32.239,54.424,32.653,53.768z"/>
	<path class="st2" d="M30.561,55.285c0.222-0.265,0.359-0.568,0.359-0.788c0-0.544-0.479-1.127-1.347-0.729
		c0.291,0.461,0.313,1.117,0.052,1.575C29.941,55.252,30.255,55.232,30.561,55.285z"/>
	<path class="st0" d="M37.032,52.041c0.481,0,0.872-0.39,0.872-0.871c0-0.481-0.39-0.871-0.872-0.871c-0.481,0-0.87,0.39-0.87,0.871
		C36.161,51.651,36.55,52.041,37.032,52.041z"/>
	<path class="st0" d="M37.516,54.497c0.481,0,0.872-0.39,0.872-0.871s-0.39-0.87-0.872-0.87c-0.48,0-0.869,0.389-0.869,0.87
		S37.036,54.497,37.516,54.497z"/>
	<path class="st0" d="M39.002,54.921c-0.481,0-0.87,0.39-0.87,0.87c0,0.481,0.389,0.871,0.87,0.871c0.48,0,0.87-0.39,0.87-0.871
		C39.872,55.31,39.482,54.921,39.002,54.921z"/>
	<path class="st0" d="M41.012,56.703c-0.481,0-0.87,0.39-0.87,0.871c0,0.481,0.389,0.871,0.87,0.871c0.48,0,0.87-0.389,0.87-0.871
		C41.882,57.093,41.492,56.703,41.012,56.703z"/>
	<path class="st0" d="M43.402,59.609c0.481,0,0.871-0.39,0.871-0.871c0-0.48-0.39-0.87-0.871-0.87c-0.48,0-0.87,0.39-0.87,0.87
		C42.532,59.22,42.922,59.609,43.402,59.609z"/>
	<path class="st2" d="M34.751,56.358c-0.683-0.322-1.671,0.104-2.644,1.138c-0.058,0.062-0.145,0.084-0.227,0.056
		c-0.08-0.027-0.136-0.1-0.144-0.184c-0.081-0.893-0.526-1.512-1.191-1.657c-0.722-0.156-1.826,0.267-2.901,1.823
		c4.836-0.225,8.398,0.994,10.039,3.494c0.07,0.106,0.118,0.224,0.18,0.334c0.663-0.361,1.088-0.98,1.202-1.495
		c0.055-0.25,0.093-0.715-0.262-1.033c-0.294-0.262-1.069-0.604-3.003,0.052c-0.069,0.023-0.147,0.01-0.205-0.037
		s-0.087-0.12-0.077-0.193C35.66,57.529,35.366,56.648,34.751,56.358z"/>
	<path class="st2" d="M22.458,57.226c-0.303,0.453-0.885,0.68-1.562,0.775c-0.002,0.291,0.073,0.637,0.247,1.034
		c0.032,0.074,0.021,0.161-0.032,0.224c-0.053,0.063-0.141,0.089-0.214,0.072c-0.654-0.154-1.214-0.21-1.66-0.179
		c0.041,0.998,0.112,2.007,0.215,3.004c0.043-0.174,0.086-0.349,0.151-0.523c0.391-1.05,1.462-2.683,4.349-3.546
		C23.448,57.654,22.928,57.366,22.458,57.226z"/>
	<path class="st0" d="M29.814,65.075c-0.846,0.186-1.731,0.76-1.755,1.824c1.55,0.652,3.567-0.028,4.581-0.756
		C32.13,65.146,30.858,64.846,29.814,65.075z M30.762,66.793c-0.321,0-0.583-0.262-0.583-0.583c0-0.322,0.262-0.584,0.583-0.584
		c0.323,0,0.586,0.262,0.586,0.584C31.348,66.532,31.086,66.793,30.762,66.793z"/>
	<path class="st0" d="M30.762,66.056c-0.084,0-0.153,0.069-0.153,0.154c0,0.084,0.069,0.154,0.153,0.154
		c0.086,0,0.156-0.069,0.156-0.154C30.919,66.125,30.848,66.056,30.762,66.056z"/>
	<path class="st0" d="M24.783,66.056c-0.085,0-0.154,0.069-0.154,0.154c0,0.084,0.069,0.154,0.154,0.154
		c0.086,0,0.155-0.069,0.155-0.154C24.938,66.125,24.869,66.056,24.783,66.056z"/>
	<path class="st0" d="M24.499,65.038c-0.805-0.149-1.753,0.146-2.152,1.111c0.828,0.719,2.481,1.397,3.751,0.76
		C26.084,65.747,25.239,65.175,24.499,65.038z M24.783,66.793c-0.322,0-0.584-0.262-0.584-0.583c0-0.322,0.262-0.584,0.584-0.584
		s0.585,0.262,0.585,0.584C25.368,66.532,25.105,66.793,24.783,66.793z"/>
	<path class="st0" d="M21.88,67.789c0.107,0.246,0.21,0.479,0.345,0.712c0.467,0.808,1.063,1.556,1.72,2.166
		c1.391,0.785,5.354,0.981,8.702,0.42c-0.321-3.365,0.741-8.253,5.036-9.155c-0.108-0.229-0.219-0.456-0.358-0.668
		c-1.432-2.181-4.437-3.343-8.557-3.343c-0.576,0-1.174,0.022-1.793,0.068c-4.973,0.369-6.5,2.535-6.969,3.793
		c-0.621,1.671-0.103,3.391,0.731,4.226C21.387,66.662,21.638,67.235,21.88,67.789z M26.417,67.225
		c-0.152,0.087-0.31,0.152-0.47,0.207c0.164,0.064,0.325,0.155,0.476,0.292c-0.623-0.035-2.352,0.339-3.016,1.155
		c-0.775-0.346-1.189-1.216-1.235-1.949c0.299,0.649,0.818,1.193,1.145,1.376c0.174-0.182,0.604-0.523,1.121-0.752
		c-0.995-0.142-1.936-0.657-2.493-1.188c-0.061-0.058-0.082-0.146-0.055-0.225c0.444-1.306,1.701-1.707,2.687-1.525
		c1.008,0.186,2.001,1.01,1.948,2.431C26.522,67.121,26.481,67.188,26.417,67.225z M26.474,65.734
		c-0.018,0.004-0.035,0.006-0.052,0.006c-0.097,0-0.185-0.065-0.209-0.163c-0.146-0.592-0.599-1.096-1.18-1.314
		c-0.641-0.242-1.346-0.123-1.993,0.33c-0.096,0.068-0.231,0.044-0.3-0.053c-0.067-0.097-0.044-0.231,0.054-0.299
		c0.769-0.536,1.617-0.668,2.391-0.38c0.723,0.271,1.263,0.875,1.446,1.614C26.66,65.589,26.589,65.705,26.474,65.734z
		 M29.031,63.794c1.001-0.412,2.169-0.23,3.054,0.472c0.093,0.074,0.108,0.209,0.034,0.302c-0.073,0.092-0.207,0.108-0.302,0.035
		c-0.912-0.725-1.953-0.687-2.622-0.411c-0.644,0.266-1.069,0.773-1.138,1.358c-0.013,0.109-0.106,0.19-0.214,0.19
		c-0.008,0-0.017,0-0.025-0.001c-0.117-0.014-0.202-0.121-0.188-0.238C27.717,64.758,28.241,64.121,29.031,63.794z M30.309,70.456
		c-0.18-1.384-1.716-2.573-2.284-2.697c1.633-0.277,2.366,1.175,2.532,1.95c0.29-0.138,1.009-0.498,1.811-0.996
		C32.052,69.114,31.276,69.902,30.309,70.456z M33.042,66.378c-0.776,0.616-2.18,1.217-3.576,1.217
		c-0.588,0-1.174-0.106-1.712-0.362c-0.071-0.034-0.118-0.105-0.122-0.185c-0.051-1.164,0.771-2.104,2.091-2.393
		c1.266-0.281,2.839,0.138,3.385,1.474C33.143,66.217,33.117,66.319,33.042,66.378z M30.185,61.007
		c0.313-0.094,0.707-0.168,1.082-0.105c0.375,0.062,0.756,0.255,0.984,0.599c0.075,0.185,0.178,0.366,0.178,0.562
		c0.009,0.101,0.028,0.184,0.026,0.298l-0.025,0.268c-0.06,0.404-0.33,0.749-0.686,0.887c-0.349,0.143-0.732,0.114-1.034-0.03
		c-0.305-0.138-0.541-0.412-0.581-0.712c-0.02-0.073-0.01-0.145-0.004-0.216c0.001-0.071,0.017-0.146,0.038-0.198
		c0.049-0.129,0.132-0.236,0.228-0.306c0.198-0.139,0.421-0.145,0.576-0.096c0.16,0.051,0.25,0.16,0.279,0.24
		c0.033,0.08,0.028,0.128,0.032,0.127c-0.003,0.002-0.003-0.047-0.042-0.123c-0.035-0.075-0.129-0.169-0.28-0.203
		c-0.147-0.034-0.351-0.007-0.509,0.126c-0.161,0.129-0.222,0.378-0.179,0.624c0.045,0.245,0.247,0.461,0.515,0.569
		c0.266,0.113,0.596,0.115,0.877-0.003c0.284-0.111,0.492-0.399,0.537-0.708l0.022-0.268c-0.002-0.065-0.021-0.161-0.029-0.241
		c0-0.174-0.095-0.313-0.151-0.467c-0.179-0.273-0.482-0.439-0.809-0.501c-0.336-0.057-0.652-0.008-0.991,0.086
		c-0.286,0.108-0.586,0.261-0.809,0.453c-0.243,0.179-0.422,0.42-0.601,0.626c-0.19,0.201-0.375,0.385-0.589,0.482
		c-0.098,0.064-0.213,0.071-0.309,0.094c-0.098-0.008-0.194-0.014-0.269-0.046c-0.071-0.039-0.136-0.073-0.191-0.104
		c-0.046-0.042-0.084-0.078-0.115-0.107c-0.062-0.059-0.095-0.09-0.095-0.09s0.035,0.029,0.102,0.082
		c0.034,0.027,0.075,0.059,0.123,0.098c0.055,0.024,0.119,0.051,0.19,0.083c0.071,0.023,0.16,0.021,0.248,0.021
		c0.087-0.03,0.186-0.041,0.273-0.109c0.186-0.103,0.348-0.295,0.524-0.494c0.168-0.211,0.332-0.462,0.585-0.67
		C29.551,61.311,29.835,61.137,30.185,61.007z M21.768,61.88l0.087-0.249c0.143-0.318,0.42-0.598,0.764-0.688
		c0.329-0.092,0.712-0.047,0.977,0.062c0.313,0.138,0.545,0.321,0.74,0.543c0.201,0.209,0.325,0.444,0.455,0.644
		c0.133,0.194,0.259,0.376,0.406,0.49c0.139,0.137,0.313,0.144,0.438,0.107c0.058-0.032,0.115-0.057,0.16-0.087
		c0.039-0.038,0.073-0.07,0.1-0.096c0.054-0.052,0.083-0.08,0.083-0.08s-0.026,0.031-0.075,0.088
		c-0.025,0.029-0.055,0.064-0.09,0.106c-0.043,0.034-0.099,0.067-0.161,0.108c-0.13,0.058-0.344,0.063-0.507-0.072
		c-0.175-0.112-0.323-0.287-0.469-0.484c-0.141-0.196-0.279-0.424-0.475-0.603c-0.176-0.188-0.43-0.35-0.666-0.456
		c-0.3-0.109-0.561-0.119-0.846-0.046c-0.279,0.079-0.488,0.303-0.602,0.565l-0.076,0.205c-0.015,0.072-0.018,0.148-0.029,0.222
		c-0.028,0.145-0.013,0.29,0.002,0.453c0.036,0.274,0.191,0.546,0.425,0.663c0.23,0.128,0.519,0.116,0.734-0.006
		c0.22-0.116,0.358-0.335,0.379-0.558c0.012-0.054,0.001-0.111,0.003-0.164c0.004-0.056-0.007-0.09-0.023-0.153
		c-0.016-0.119-0.071-0.185-0.117-0.26c-0.123-0.135-0.298-0.165-0.424-0.128c-0.062,0.025-0.117,0.05-0.147,0.097
		c-0.04,0.036-0.065,0.074-0.071,0.112c-0.024,0.071-0.036,0.11-0.036,0.11s0.009-0.039,0.026-0.114
		c0.003-0.04,0.025-0.081,0.063-0.124c0.027-0.053,0.084-0.086,0.151-0.121c0.135-0.056,0.342-0.043,0.505,0.105
		c0.159,0.165,0.22,0.39,0.212,0.654c-0.01,0.26-0.163,0.545-0.428,0.703c-0.257,0.164-0.622,0.205-0.927,0.04
		c-0.313-0.157-0.506-0.483-0.558-0.834c-0.017-0.152-0.037-0.326-0.01-0.498C21.748,62.051,21.75,61.965,21.768,61.88z"/>
	<path class="st2" d="M43.004,65.024c-0.006-0.708-0.378-1.442-0.994-1.962c-0.508-0.428-1.369-0.875-2.753-0.875
		c-0.37,0-0.778,0.032-1.227,0.105c-4.233,0.688-5.262,5.451-4.956,8.723c1.531-0.292,2.9-0.748,3.779-1.39c0.001,0,0.001,0,0.002,0
		c0.001-0.001,0.001-0.001,0.002-0.002c0.504-0.354,0.912-1.042,1.213-2.045c0.471-1.566,1.837-2.439,2.876-2.364
		c0.662,0.042,1.12,0.446,1.226,1.082c0.04,0.242-0.025,0.501-0.154,0.703C42.537,66.837,43.015,66.191,43.004,65.024z
		 M38.893,65.351c-1.33,0.342-2.035,1.835-2.166,2.697c-0.017,0.106-0.108,0.182-0.213,0.182c-0.011,0-0.021,0-0.032-0.002
		c-0.117-0.018-0.198-0.127-0.181-0.245c0.148-0.969,0.954-2.654,2.484-3.047c0.12-0.032,0.232,0.04,0.262,0.154
		C39.078,65.205,39.008,65.322,38.893,65.351z M39.049,63.577c-2.968,0.139-4.389,3.702-4.458,5.489
		c-0.005,0.116-0.1,0.207-0.215,0.207c-0.003,0-0.006,0-0.009,0c-0.118-0.004-0.211-0.104-0.206-0.223
		c0.075-1.92,1.625-5.75,4.868-5.902c0.11,0,0.219,0.086,0.225,0.205C39.26,63.471,39.169,63.572,39.049,63.577z"/>
	<path class="st2" d="M37.036,72.509c0.031,0.025,0.063,0.045,0.092,0.074c0.169,0.164,0.299,0.386,0.407,0.628
		c-0.067-0.287-0.134-0.578-0.201-0.875C37.238,72.395,37.139,72.453,37.036,72.509z"/>
	<path class="st2" d="M37.751,74.113c0.01,0.241-0.006,0.475-0.073,0.681c-0.123,0.38-0.361,0.632-0.671,0.708
		c-0.063,0.016-0.128,0.024-0.192,0.024c-0.162,0-0.328-0.049-0.487-0.145c-0.372-0.224-0.674-0.681-0.809-1.224
		c-0.087-0.346-0.08-0.686-0.015-0.992c-0.384,0.129-0.787,0.243-1.208,0.345c0.21,0.275,0.357,0.647,0.407,1.055
		c0.052,0.424-0.003,0.839-0.156,1.168c-0.168,0.362-0.436,0.583-0.751,0.623c-0.032,0.004-0.065,0.006-0.098,0.006
		c-0.194,0-0.387-0.071-0.563-0.208c-0.342-0.267-0.587-0.757-0.655-1.312c-0.044-0.355-0.004-0.696,0.095-0.99
		c-0.43,0.066-0.864,0.121-1.303,0.165c0.157,0.279,0.259,0.63,0.27,1.026c0.025,0.933-0.446,1.678-1.074,1.695
		c-0.007,0-0.015,0-0.021,0c-0.617,0-1.117-0.711-1.145-1.633c-0.01-0.364,0.058-0.697,0.179-0.972
		c-0.302,0.01-0.605,0.021-0.901,0.021c-0.144,0-0.284-0.005-0.426-0.007c0.124,0.33,0.154,0.739,0.077,1.155
		c-0.101,0.55-0.374,1.025-0.731,1.271c-0.169,0.116-0.348,0.175-0.524,0.175c-0.049,0-0.098-0.005-0.146-0.014
		c-0.224-0.041-0.42-0.176-0.568-0.391c-0.246-0.357-0.332-0.899-0.23-1.45c0.06-0.321,0.192-0.6,0.353-0.841
		c-0.379-0.036-0.743-0.079-1.083-0.134c0.035,0.344-0.027,0.741-0.216,1.137c0,0,0,0-0.001,0c-0.185,0.385-0.455,0.704-0.761,0.898
		c-0.207,0.132-0.416,0.199-0.613,0.199c-0.124,0-0.244-0.027-0.355-0.08c-0.204-0.098-0.358-0.279-0.445-0.524
		c-0.085-0.24-0.092-0.528-0.041-0.827c-0.674,1.569-1.55,2.922-2.631,4.033H39.38C38.702,77.619,38.213,75.999,37.751,74.113z"/>
	<path class="st2" d="M23.509,73.451c-0.047-0.019-0.087-0.041-0.131-0.061c-0.045,0.135-0.097,0.263-0.144,0.395
		C23.317,73.659,23.411,73.55,23.509,73.451z"/>
	<path d="M39.03,63.147c-3.243,0.152-4.793,3.982-4.868,5.902c-0.005,0.119,0.088,0.219,0.206,0.223c0.003,0,0.006,0,0.009,0
		c0.115,0,0.21-0.091,0.215-0.207c0.069-1.787,1.49-5.351,4.458-5.489c0.119-0.005,0.211-0.106,0.205-0.225
		C39.249,63.234,39.14,63.147,39.03,63.147z"/>
	<path d="M38.786,64.935c-1.53,0.394-2.336,2.078-2.484,3.047c-0.018,0.118,0.063,0.228,0.181,0.245
		c0.011,0.002,0.021,0.002,0.032,0.002c0.104,0,0.196-0.076,0.213-0.182c0.131-0.861,0.836-2.354,2.166-2.697
		c0.115-0.029,0.185-0.146,0.154-0.262C39.018,64.975,38.906,64.903,38.786,64.935z"/>
	<path d="M29.722,64.655c-1.32,0.289-2.142,1.229-2.091,2.393c0.004,0.08,0.051,0.151,0.122,0.185
		c0.538,0.256,1.124,0.362,1.712,0.362c1.396,0,2.8-0.601,3.576-1.217c0.075-0.06,0.102-0.161,0.065-0.25
		C32.561,64.793,30.988,64.374,29.722,64.655z M28.059,66.899c0.023-1.063,0.909-1.638,1.755-1.824
		c1.044-0.229,2.316,0.071,2.826,1.067C31.627,66.871,29.609,67.551,28.059,66.899z"/>
	<path d="M24.577,64.615c-0.985-0.181-2.242,0.219-2.687,1.525c-0.027,0.079-0.006,0.167,0.055,0.225
		c0.556,0.531,1.497,1.046,2.493,1.188c-0.517,0.229-0.947,0.569-1.121,0.752c-0.327-0.184-0.846-0.727-1.145-1.376
		c0.047,0.733,0.461,1.603,1.235,1.949c0.664-0.816,2.393-1.19,3.016-1.155c-0.151-0.137-0.312-0.228-0.476-0.292
		c0.16-0.055,0.318-0.119,0.47-0.207c0.064-0.037,0.105-0.104,0.108-0.179C26.578,65.625,25.585,64.801,24.577,64.615z
		 M22.346,66.149c0.399-0.965,1.348-1.26,2.152-1.111c0.74,0.137,1.585,0.708,1.599,1.871
		C24.828,67.546,23.174,66.868,22.346,66.149z"/>
	<path d="M28.025,67.759c0.568,0.124,2.103,1.313,2.284,2.697c0.967-0.554,1.743-1.342,2.06-1.743
		c-0.802,0.497-1.522,0.858-1.811,0.996C30.391,68.934,29.658,67.482,28.025,67.759z"/>
	<path d="M28.722,62.205c-0.176,0.199-0.338,0.391-0.524,0.494c-0.086,0.068-0.185,0.079-0.273,0.109
		c-0.088-0.001-0.177,0.002-0.248-0.021c-0.071-0.031-0.135-0.059-0.19-0.083c-0.049-0.039-0.09-0.071-0.123-0.098
		c-0.067-0.053-0.102-0.082-0.102-0.082s0.033,0.031,0.095,0.09c0.031,0.029,0.069,0.065,0.115,0.107
		c0.055,0.031,0.12,0.065,0.191,0.104c0.074,0.032,0.171,0.038,0.269,0.046c0.096-0.023,0.212-0.03,0.309-0.094
		c0.214-0.096,0.398-0.281,0.589-0.482c0.179-0.206,0.358-0.448,0.601-0.626c0.223-0.192,0.523-0.345,0.809-0.453
		c0.339-0.094,0.655-0.143,0.991-0.086c0.327,0.062,0.63,0.228,0.809,0.501c0.057,0.153,0.151,0.292,0.151,0.467
		c0.008,0.079,0.027,0.176,0.029,0.241l-0.022,0.268c-0.044,0.309-0.253,0.597-0.537,0.708c-0.281,0.117-0.611,0.116-0.877,0.003
		c-0.268-0.108-0.47-0.324-0.515-0.569c-0.043-0.246,0.018-0.494,0.179-0.624c0.159-0.133,0.362-0.16,0.509-0.126
		c0.151,0.034,0.245,0.128,0.28,0.203c0.038,0.075,0.038,0.124,0.042,0.123c-0.004,0.001,0.001-0.047-0.032-0.127
		c-0.029-0.08-0.119-0.189-0.279-0.24c-0.155-0.05-0.378-0.043-0.576,0.096c-0.096,0.07-0.179,0.176-0.228,0.306
		c-0.021,0.052-0.037,0.127-0.038,0.198c-0.006,0.07-0.016,0.143,0.004,0.216c0.04,0.299,0.276,0.574,0.581,0.712
		c0.302,0.144,0.685,0.173,1.034,0.03c0.356-0.138,0.626-0.482,0.686-0.887l0.025-0.268c0.002-0.115-0.017-0.197-0.026-0.298
		c0-0.197-0.103-0.378-0.178-0.562c-0.229-0.345-0.61-0.538-0.984-0.599c-0.375-0.063-0.769,0.011-1.082,0.105
		c-0.351,0.131-0.635,0.305-0.878,0.529C29.054,61.743,28.89,61.994,28.722,62.205z"/>
	<path d="M21.748,62.634c0.051,0.351,0.245,0.678,0.558,0.834c0.306,0.165,0.671,0.123,0.927-0.04
		c0.265-0.158,0.417-0.443,0.428-0.703c0.007-0.264-0.053-0.488-0.212-0.654c-0.163-0.148-0.37-0.161-0.505-0.105
		c-0.067,0.035-0.123,0.068-0.151,0.121c-0.038,0.043-0.06,0.084-0.063,0.124c-0.017,0.074-0.026,0.114-0.026,0.114
		s0.013-0.038,0.036-0.11c0.006-0.038,0.031-0.076,0.071-0.112c0.029-0.047,0.085-0.072,0.147-0.097
		c0.126-0.038,0.302-0.007,0.424,0.128c0.046,0.075,0.101,0.141,0.117,0.26c0.016,0.063,0.027,0.097,0.023,0.153
		c-0.002,0.054,0.009,0.11-0.003,0.164c-0.022,0.222-0.159,0.442-0.379,0.558c-0.215,0.122-0.504,0.133-0.734,0.006
		c-0.234-0.116-0.388-0.389-0.425-0.663c-0.015-0.163-0.03-0.308-0.002-0.453c0.011-0.074,0.013-0.151,0.029-0.222l0.076-0.205
		c0.115-0.261,0.323-0.485,0.602-0.565c0.285-0.072,0.546-0.063,0.846,0.046c0.236,0.106,0.49,0.269,0.666,0.456
		c0.196,0.179,0.334,0.407,0.475,0.603c0.146,0.196,0.294,0.372,0.469,0.484c0.163,0.135,0.377,0.13,0.507,0.072
		c0.062-0.041,0.118-0.074,0.161-0.108c0.035-0.042,0.066-0.077,0.09-0.106c0.049-0.057,0.075-0.088,0.075-0.088
		s-0.029,0.028-0.083,0.08c-0.027,0.026-0.06,0.059-0.1,0.096c-0.045,0.03-0.102,0.055-0.16,0.087
		c-0.125,0.037-0.299,0.031-0.438-0.107c-0.147-0.114-0.273-0.296-0.406-0.49c-0.13-0.2-0.253-0.435-0.455-0.644
		c-0.195-0.222-0.427-0.405-0.74-0.543c-0.265-0.108-0.648-0.154-0.977-0.062c-0.343,0.09-0.621,0.37-0.764,0.688l-0.087,0.249
		c-0.018,0.084-0.02,0.171-0.03,0.255C21.711,62.309,21.731,62.483,21.748,62.634z"/>
	<path d="M27.818,65.739c0.009,0.001,0.018,0.001,0.025,0.001c0.107,0,0.201-0.081,0.214-0.19c0.068-0.585,0.494-1.093,1.138-1.358
		c0.669-0.276,1.71-0.313,2.622,0.411c0.095,0.074,0.229,0.058,0.302-0.035c0.074-0.093,0.059-0.229-0.034-0.302
		c-0.885-0.702-2.053-0.884-3.054-0.472c-0.79,0.326-1.313,0.964-1.401,1.706C27.616,65.618,27.701,65.725,27.818,65.739z"/>
	<path d="M25.185,63.86c-0.773-0.289-1.622-0.156-2.391,0.38c-0.098,0.068-0.121,0.202-0.054,0.299
		c0.068,0.098,0.204,0.121,0.3,0.053c0.647-0.453,1.353-0.571,1.993-0.33c0.581,0.218,1.033,0.722,1.18,1.314
		c0.024,0.098,0.112,0.163,0.209,0.163c0.017,0,0.034-0.002,0.052-0.006c0.115-0.028,0.186-0.145,0.157-0.26
		C26.448,64.735,25.908,64.131,25.185,63.86z"/>
	<path d="M30.762,65.626c-0.321,0-0.583,0.262-0.583,0.584c0,0.322,0.262,0.583,0.583,0.583c0.323,0,0.586-0.262,0.586-0.583
		C31.348,65.888,31.086,65.626,30.762,65.626z M30.762,66.364c-0.084,0-0.153-0.069-0.153-0.154c0-0.085,0.069-0.154,0.153-0.154
		c0.086,0,0.156,0.069,0.156,0.154C30.919,66.294,30.848,66.364,30.762,66.364z"/>
	<path d="M24.783,65.626c-0.322,0-0.584,0.262-0.584,0.584c0,0.322,0.262,0.583,0.584,0.583s0.585-0.262,0.585-0.583
		C25.368,65.888,25.105,65.626,24.783,65.626z M24.783,66.364c-0.085,0-0.154-0.069-0.154-0.154c0-0.085,0.069-0.154,0.154-0.154
		c0.086,0,0.155,0.069,0.155,0.154C24.938,66.294,24.869,66.364,24.783,66.364z"/>
	<path class="st1" d="M28.19,51.834h1.221c-0.032-0.202-0.054-0.41-0.054-0.629s0.022-0.427,0.054-0.629H28.19V51.834z"/>
	<path class="st0" d="M17.519,77.432c0.624-1.648,2.085-3.553,4.266-4.643c-1.678-2.283-2.924-9.383-3.011-14.791
		c-0.301-0.029-0.58-0.064-0.822-0.096c-0.026,4.345-0.228,11.909-0.435,14.31c-0.208-2.412-0.411-10.038-0.435-14.373
		c-0.271-0.008-0.541-0.021-0.817-0.002c-0.055,4.741-0.981,10.423-2.203,13.419v1.999C15.65,74.278,16.922,75.828,17.519,77.432z"
		/>
	<path class="st4" d="M17.517,72.211c0.207-2.401,0.409-9.965,0.435-14.31c-0.079-0.01-0.156-0.021-0.226-0.031L17.49,57.84
		c-0.131-0.011-0.273,0.003-0.408-0.001C17.107,62.174,17.309,69.799,17.517,72.211z"/>
	<path class="st2" d="M14.061,56.605v2.088c0.133-0.037,0.246-0.104,0.332-0.197c0.139-0.151,0.203-0.364,0.189-0.632
		c-0.005-0.102,0.062-0.193,0.16-0.219c0.857-0.225,1.874-0.31,2.793-0.232l0.248,0.033c1.038,0.14,4.197,0.57,4.452-0.775
		c0.11-0.587-0.182-0.901-0.366-1.036c-0.315-0.231-0.749-0.278-1.052-0.114c-0.257,0.138-0.384,0.404-0.366,0.769
		c0.005,0.102-0.063,0.192-0.16,0.218c-0.39,0.103-0.816,0.172-1.25,0.214c-0.314,0.128-0.66,0.206-1.024,0.249
		c-0.014,0.005-0.021,0.019-0.036,0.02c-0.078,0.01-0.151,0.014-0.22,0.014c-0.019,0-0.029-0.007-0.048-0.008
		c-0.074,0.004-0.142,0.019-0.217,0.019c-0.714,0-1.314-0.168-1.806-0.47C15.143,56.516,14.563,56.518,14.061,56.605z"/>
	<path class="st0" d="M20.754,53.365c0-1.927-1.309-3.222-3.257-3.222c-2.465,0-2.833,2.019-2.833,3.222
		c0,1.095,0.324,2.849,2.238,3.158c-0.012-0.028-0.029-0.061-0.035-0.081c-0.115-0.385,0.073-0.853,0.411-1.02
		c0.295-0.146,0.691-0.433,0.942-0.978c-0.203-0.564-0.077-1.26,0.321-1.725c0.366-0.426,0.894-0.586,1.454-0.441
		c0.114,0.03,0.184,0.147,0.153,0.263c-0.03,0.114-0.142,0.184-0.263,0.153c-0.396-0.104-0.76,0.004-1.019,0.305
		c-0.312,0.363-0.403,0.937-0.218,1.364c0.023,0.053,0.023,0.114,0.001,0.168c-0.235,0.569-0.645,1.01-1.182,1.277
		c-0.136,0.067-0.25,0.31-0.19,0.511c0.057,0.188,0.245,0.241,0.425,0.25C19.534,56.478,20.754,55.221,20.754,53.365z"/>
	<path class="st2" d="M31.113,48.998c-0.718,0-1.325,1.011-1.325,2.207s0.607,2.207,1.325,2.207s1.325-1.011,1.325-2.207
		S31.831,48.998,31.113,48.998z M32.094,51.205c0,0.796-0.431,1.42-0.981,1.42s-0.981-0.624-0.981-1.42
		c0-0.796,0.431-1.419,0.981-1.419S32.094,50.409,32.094,51.205z"/>
	<path class="st2" d="M31.113,50.215c-0.261,0-0.552,0.407-0.552,0.99c0,0.584,0.291,0.991,0.552,0.991s0.552-0.407,0.552-0.991
		C31.665,50.622,31.374,50.215,31.113,50.215z"/>
	<path d="M31.113,49.786c-0.551,0-0.981,0.624-0.981,1.419c0,0.796,0.431,1.42,0.981,1.42s0.981-0.624,0.981-1.42
		C32.094,50.409,31.664,49.786,31.113,49.786z M31.665,51.205c0,0.584-0.291,0.991-0.552,0.991s-0.552-0.407-0.552-0.991
		c0-0.583,0.291-0.99,0.552-0.99S31.665,50.622,31.665,51.205z"/>
	<path d="M48.379,23.229h-5.864H22.451h-8.604c-0.119,0-0.215,0.096-0.215,0.215v24.349v0.005v0.734v1.397v3.657v1.032v1.811v2.513
		v12.272v2.159v5.595c0,0.119,0.096,0.215,0.215,0.215h5.865h20.063h8.604c0.119,0,0.215-0.096,0.215-0.215v-24.35v-0.005v-0.733
		v-1.397v-3.658v-1.032v-1.811V43.47V31.197v-2.158v-5.595C48.594,23.325,48.499,23.229,48.379,23.229z M46.15,57.854
		c-0.102,0.123-0.195,0.257-0.301,0.375c-5.019-1.208-7.271-4.514-7.271-7.31c0-1.413,0.541-2.704,1.529-3.792
		c0.122,0.089,0.258,0.155,0.397,0.203c0.161,0.056,0.327,0.089,0.492,0.089c0.152,0,0.297-0.033,0.437-0.081
		c-0.101,0.208-0.182,0.429-0.244,0.663l-1.025-0.275c-0.271,0.341-0.498,0.7-0.676,1.076l1.01,0.271
		c0.149,1.24,0.766,2.371,1.759,3.316c-0.888-0.584-1.966-1.064-3.245-1.376c0.003,0.148,0.01,0.297,0.026,0.447
		c4.216,1.077,6.077,4.081,6.141,6.138c0.142,0.043,0.286,0.084,0.433,0.123c0-1.314-0.691-3.015-2.197-4.425
		c1.218,0.793,2.764,1.378,4.546,1.688C47.459,56.049,46.851,57.008,46.15,57.854z M40.947,65.213
		c-1.039-0.075-2.405,0.798-2.876,2.364c-0.301,1.002-0.709,1.69-1.213,2.045c-0.001,0.001-0.001,0.001-0.002,0.002
		c-0.001,0-0.001,0-0.002,0c-0.879,0.642-2.248,1.099-3.779,1.39c-0.306-3.273,0.723-8.035,4.956-8.723
		c0.448-0.073,0.856-0.105,1.227-0.105c1.384,0,2.245,0.448,2.753,0.875c0.616,0.521,0.988,1.254,0.994,1.962
		c0.011,1.167-0.468,1.813-0.986,1.974c0.129-0.202,0.194-0.461,0.154-0.703C42.067,65.66,41.609,65.255,40.947,65.213z
		 M16.076,44.556c0.102-0.123,0.195-0.257,0.301-0.375c5.018,1.209,7.27,4.515,7.27,7.311c0,0.787-0.169,1.535-0.487,2.232
		l-0.424-0.114l-1.009-0.271c-0.149-1.24-0.765-2.37-1.758-3.314c0.888,0.583,1.965,1.063,3.243,1.375
		c-0.003-0.148-0.01-0.297-0.026-0.447c-4.218-1.078-6.079-4.083-6.14-6.139c-0.142-0.043-0.286-0.084-0.433-0.123
		c-0.001,1.314,0.689,3.014,2.195,4.425c-1.217-0.792-2.763-1.377-4.544-1.687C14.767,46.361,15.375,45.401,16.076,44.556z
		 M21.281,37.197c1.033,0.077,2.403-0.799,2.875-2.364c0.301-1.003,0.709-1.691,1.213-2.045c0.001-0.001,0.001-0.001,0.002-0.002
		c0,0,0.001,0,0.001,0c0.88-0.642,2.248-1.098,3.779-1.39c0.306,3.272-0.723,8.034-4.956,8.723c-2.125,0.347-3.337-0.228-3.979-0.77
		c-0.617-0.52-0.989-1.254-0.996-1.963c-0.011-1.167,0.468-1.813,0.986-1.974c-0.129,0.203-0.193,0.461-0.152,0.702
		C20.16,36.75,20.618,37.155,21.281,37.197z M48.165,48.61h-0.201c-0.07-0.975-0.362-1.756-0.868-2.299
		c0.095,0,0.19-0.001,0.285-0.004c0.284,0.487,0.551,0.992,0.785,1.531V48.61z M48.165,54.571l-0.007,0.014
		c-2.352-0.389-4.261-1.279-5.54-2.473c0.583,0.374,1.302,0.584,2.112,0.584c0.786,0,1.443-0.193,1.958-0.557
		c0.459,0.194,0.947,0.368,1.476,0.509v0.974V54.571z M43.402,57.867c0.481,0,0.871,0.39,0.871,0.87c0,0.482-0.39,0.871-0.871,0.871
		c-0.48,0-0.87-0.39-0.87-0.871C42.532,58.258,42.922,57.867,43.402,57.867z M41.882,57.574c0,0.481-0.39,0.871-0.87,0.871
		c-0.481,0-0.87-0.389-0.87-0.871c0-0.481,0.389-0.871,0.87-0.871C41.492,56.703,41.882,57.093,41.882,57.574z M39.002,56.662
		c-0.481,0-0.87-0.39-0.87-0.871c0-0.481,0.389-0.87,0.87-0.87c0.48,0,0.87,0.39,0.87,0.87
		C39.872,56.272,39.482,56.662,39.002,56.662z M33.526,74.177c0.278-0.035,0.535,0.173,0.57,0.464
		c0.035,0.291-0.161,0.554-0.439,0.589c-0.279,0.035-0.535-0.173-0.57-0.464C33.052,74.474,33.248,74.211,33.526,74.177z
		 M33.642,72.47c0,0.407-0.33,0.736-0.735,0.736c-0.407,0-0.736-0.329-0.736-0.736c0-0.405,0.328-0.735,0.736-0.735
		C33.312,71.735,33.642,72.065,33.642,72.47z M29.474,73.542c-0.406,0-0.736-0.33-0.736-0.735c0-0.406,0.33-0.736,0.736-0.736
		s0.736,0.33,0.736,0.736C30.209,73.212,29.88,73.542,29.474,73.542z M23.615,74.349c0.127-0.263,0.435-0.38,0.688-0.258
		c0.253,0.121,0.357,0.434,0.23,0.698c-0.127,0.264-0.435,0.379-0.689,0.258C23.591,74.926,23.489,74.614,23.615,74.349z
		 M26.149,71.949c0.406,0,0.736,0.328,0.736,0.735c0,0.406-0.33,0.735-0.736,0.735s-0.736-0.33-0.736-0.735
		C25.413,72.277,25.743,71.949,26.149,71.949z M27.633,75.188c-0.055,0.289-0.323,0.48-0.598,0.429
		c-0.276-0.051-0.457-0.326-0.404-0.614s0.321-0.481,0.598-0.429C27.504,74.624,27.685,74.9,27.633,75.188z M30.409,74.542
		c0.279-0.007,0.514,0.224,0.521,0.517c0.009,0.293-0.212,0.537-0.493,0.544c-0.282,0.008-0.516-0.223-0.524-0.516
		C29.906,74.793,30.127,74.55,30.409,74.542z M36.478,73.373c0.271-0.068,0.55,0.108,0.621,0.391
		c0.071,0.285-0.094,0.57-0.365,0.638c-0.273,0.068-0.551-0.108-0.622-0.391C36.041,73.726,36.205,73.44,36.478,73.373z
		 M14.061,53.8h0.202c0.069,0.975,0.361,1.756,0.868,2.299c-0.095,0-0.19,0.001-0.285,0.004c-0.284-0.487-0.551-0.992-0.785-1.53
		V53.8z M14.062,47.839l0.007-0.013c2.351,0.389,4.259,1.279,5.538,2.471c-0.583-0.373-1.3-0.583-2.11-0.583
		c-0.786,0-1.444,0.193-1.959,0.557c-0.459-0.194-0.947-0.368-1.477-0.509L14.062,47.839z M18.822,44.543
		c-0.48,0-0.87-0.391-0.87-0.871c0-0.481,0.39-0.87,0.87-0.87c0.481,0,0.872,0.39,0.872,0.87
		C19.694,44.152,19.304,44.543,18.822,44.543z M20.345,44.836c0-0.481,0.389-0.87,0.87-0.87c0.481,0,0.87,0.39,0.87,0.87
		c0,0.481-0.389,0.871-0.87,0.871C20.734,45.707,20.345,45.316,20.345,44.836z M23.224,45.748c0.482,0,0.871,0.39,0.871,0.871
		c0,0.481-0.389,0.871-0.871,0.871c-0.48,0-0.869-0.39-0.869-0.871C22.355,46.139,22.744,45.748,23.224,45.748z M28.13,27.77
		c-0.036-0.291,0.161-0.554,0.439-0.589c0.278-0.034,0.534,0.173,0.569,0.463c0.035,0.291-0.16,0.555-0.438,0.589
		C28.421,28.268,28.165,28.06,28.13,27.77z M28.584,29.94c0-0.406,0.33-0.735,0.736-0.735c0.406,0,0.736,0.329,0.736,0.735
		c0,0.406-0.33,0.735-0.736,0.735C28.914,30.675,28.584,30.346,28.584,29.94z M32.753,28.868c0.405,0,0.735,0.329,0.735,0.736
		c0,0.406-0.33,0.735-0.735,0.735c-0.407,0-0.737-0.329-0.737-0.735C32.016,29.198,32.346,28.868,32.753,28.868z M38.61,28.061
		c-0.127,0.265-0.435,0.381-0.688,0.259c-0.253-0.121-0.356-0.435-0.23-0.698c0.128-0.264,0.436-0.379,0.688-0.258
		C38.634,27.485,38.737,27.797,38.61,28.061z M36.078,30.462c-0.407,0-0.737-0.329-0.737-0.735c0-0.406,0.33-0.736,0.737-0.736
		c0.405,0,0.735,0.329,0.735,0.736C36.813,30.132,36.483,30.462,36.078,30.462z M34.594,27.222c0.054-0.288,0.322-0.479,0.597-0.428
		c0.276,0.051,0.457,0.325,0.404,0.614c-0.054,0.287-0.319,0.48-0.597,0.429C34.722,27.786,34.541,27.51,34.594,27.222z
		 M31.818,27.868c-0.281,0.008-0.514-0.224-0.522-0.516c-0.008-0.292,0.212-0.536,0.493-0.544c0.282-0.008,0.516,0.224,0.524,0.516
		C32.32,27.617,32.098,27.861,31.818,27.868z M25.748,29.039c-0.271,0.067-0.551-0.108-0.622-0.393
		c-0.071-0.284,0.094-0.569,0.365-0.637c0.274-0.068,0.552,0.107,0.622,0.392C26.184,28.685,26.022,28.97,25.748,29.039z
		 M42.623,40.778c0.065-0.175,0.108-0.35,0.151-0.525c0.103,0.998,0.174,2.008,0.216,3.007c-0.446,0.03-1.005-0.025-1.66-0.18
		c-0.075-0.019-0.162,0.009-0.214,0.072c-0.052,0.063-0.064,0.149-0.032,0.224c0.174,0.398,0.25,0.744,0.247,1.035
		c-0.678,0.095-1.26,0.323-1.563,0.775c-0.47-0.14-0.99-0.428-1.494-0.862C41.16,43.461,42.232,41.828,42.623,40.778z
		 M32.653,48.642c-0.868,0.397-1.346-0.186-1.346-0.729c0-0.219,0.137-0.522,0.358-0.787c0.111,0.02,0.223,0.036,0.336,0.036
		c0.199,0,0.401-0.04,0.603-0.099C32.34,47.522,32.361,48.18,32.653,48.642z M35.518,58.657c-0.01,0.073,0.02,0.146,0.077,0.193
		s0.136,0.06,0.205,0.037c1.934-0.656,2.709-0.314,3.003-0.052c0.354,0.318,0.316,0.783,0.262,1.033
		c-0.114,0.515-0.539,1.134-1.202,1.495c-0.062-0.11-0.11-0.228-0.18-0.334c-1.641-2.5-5.203-3.719-10.039-3.494
		c1.075-1.556,2.179-1.979,2.901-1.823c0.665,0.145,1.11,0.764,1.191,1.657c0.008,0.084,0.063,0.156,0.144,0.184
		c0.082,0.028,0.169,0.005,0.227-0.056c0.973-1.035,1.961-1.46,2.644-1.138C35.366,56.648,35.66,57.529,35.518,58.657z
		 M29.573,53.768c0.868-0.398,1.347,0.186,1.347,0.729c0,0.22-0.137,0.523-0.359,0.788c-0.306-0.053-0.62-0.034-0.936,0.058
		C29.885,54.884,29.864,54.229,29.573,53.768z M26.709,43.753c0.01-0.073-0.02-0.146-0.077-0.193
		c-0.059-0.047-0.137-0.062-0.205-0.037c-1.931,0.655-2.71,0.314-3.004,0.053c-0.354-0.318-0.316-0.784-0.262-1.033
		c0.114-0.515,0.538-1.135,1.202-1.496c0.062,0.11,0.11,0.228,0.18,0.334c1.514,2.307,4.648,3.538,8.926,3.538
		c0.357,0,0.738-0.025,1.111-0.042c-1.073,1.554-2.175,1.98-2.898,1.821c-0.666-0.144-1.111-0.764-1.193-1.657
		c-0.008-0.084-0.063-0.156-0.144-0.184c-0.023-0.008-0.047-0.012-0.07-0.012c-0.059,0-0.115,0.023-0.157,0.068
		c-0.971,1.034-1.955,1.462-2.642,1.139C26.86,45.763,26.566,44.882,26.709,43.753z M32.438,51.205c0,1.196-0.607,2.207-1.325,2.207
		s-1.325-1.011-1.325-2.207s0.607-2.207,1.325-2.207S32.438,50.009,32.438,51.205z M30.92,47.913c0,0.544-0.479,1.127-1.347,0.729
		c0.414-0.655,0.295-1.714-0.429-2.023C30.106,46.298,30.92,47.37,30.92,47.913z M29.412,50.576
		c-0.032,0.202-0.054,0.411-0.054,0.629s0.022,0.427,0.054,0.629H28.19v-1.258H29.412z M28.939,52.91
		c0.063,0,0.124,0.028,0.165,0.077c0.04,0.048,0.058,0.112,0.047,0.175c-0.104,0.599-0.375,1.77-1.006,3.11
		c-0.355,0.345-0.698,0.778-1.022,1.283c-0.062,0.004-0.118,0.002-0.18,0.007c-0.006,0-0.011,0.001-0.017,0.002
		c-0.938,0.07-1.757,0.205-2.477,0.384c-0.127-0.122-0.255-0.225-0.384-0.328c-0.116-0.093-0.232-0.181-0.348-0.259
		c1.993-1.748,2.587-3.646,2.741-4.319c0.025-0.106,0.112-0.169,0.234-0.166c0.034,0.004,0.066,0.016,0.094,0.034H28.939z
		 M19.603,61.633c-0.065,0.174-0.108,0.349-0.151,0.523c-0.103-0.997-0.174-2.006-0.215-3.004c0.446-0.031,1.006,0.025,1.66,0.179
		c0.073,0.018,0.161-0.009,0.214-0.072c0.053-0.063,0.064-0.149,0.032-0.224c-0.174-0.398-0.25-0.743-0.247-1.034
		c0.677-0.095,1.259-0.323,1.562-0.775c0.47,0.14,0.99,0.428,1.494,0.861C21.066,58.949,19.994,60.582,19.603,61.633z
		 M22.118,55.284c-0.123-0.089-0.258-0.154-0.398-0.203c-0.31-0.107-0.639-0.104-0.932-0.001c0.103-0.21,0.185-0.434,0.247-0.671
		l1.024,0.275l0.452,0.122C22.391,54.97,22.259,55.129,22.118,55.284z M17.704,56.57c-0.181-0.009-0.369-0.062-0.425-0.25
		c-0.06-0.201,0.055-0.444,0.19-0.511c0.537-0.267,0.946-0.708,1.182-1.277c0.022-0.054,0.022-0.115-0.001-0.168
		c-0.186-0.427-0.094-1,0.218-1.364c0.259-0.301,0.623-0.409,1.019-0.305c0.121,0.031,0.232-0.039,0.263-0.153
		c0.03-0.115-0.039-0.232-0.153-0.263c-0.561-0.145-1.088,0.015-1.454,0.441c-0.398,0.465-0.524,1.161-0.321,1.725
		c-0.251,0.544-0.647,0.832-0.942,0.978c-0.338,0.167-0.526,0.635-0.411,1.02c0.006,0.019,0.023,0.053,0.035,0.081
		c-1.914-0.309-2.238-2.063-2.238-3.158c0-1.203,0.368-3.222,2.833-3.222c1.948,0,3.257,1.295,3.257,3.222
		C20.754,55.221,19.534,56.478,17.704,56.57z M20.029,56.098c-0.001,0.012-0.005,0.022-0.005,0.034
		c-0.014,0.003-0.03,0.003-0.045,0.007C19.995,56.124,20.013,56.112,20.029,56.098z M21.167,53.189
		c-0.008-0.2-0.018-0.398-0.052-0.585c0.063,0.202,0.125,0.404,0.159,0.614L21.167,53.189z M21.031,52.301
		c0.027,0.07,0.038,0.144,0.062,0.215C21.077,52.441,21.05,52.373,21.031,52.301z M25.195,52.111c-0.481,0-0.873-0.39-0.873-0.87
		c0-0.482,0.391-0.871,0.873-0.871c0.479,0,0.869,0.39,0.869,0.871C26.064,51.721,25.674,52.111,25.195,52.111z M24.709,49.655
		c-0.481,0-0.872-0.39-0.872-0.871c0-0.481,0.39-0.871,0.872-0.871c0.481,0,0.87,0.39,0.87,0.871
		C25.579,49.265,25.19,49.655,24.709,49.655z M15.691,56.547c0.492,0.302,1.092,0.47,1.806,0.47c0.075,0,0.143-0.015,0.217-0.019
		c0.018,0.001,0.029,0.008,0.048,0.008c0.068,0,0.142-0.004,0.22-0.014c0.015-0.002,0.023-0.016,0.036-0.02
		c0.364-0.043,0.71-0.121,1.024-0.249c0.434-0.042,0.86-0.111,1.25-0.214c0.098-0.026,0.165-0.117,0.16-0.218
		c-0.018-0.365,0.109-0.631,0.366-0.769c0.303-0.165,0.736-0.117,1.052,0.114c0.185,0.135,0.477,0.449,0.366,1.036
		c-0.255,1.345-3.414,0.915-4.452,0.775l-0.248-0.033c-0.919-0.078-1.936,0.008-2.793,0.232c-0.099,0.026-0.165,0.117-0.16,0.219
		c0.014,0.269-0.051,0.481-0.189,0.632c-0.086,0.093-0.199,0.16-0.332,0.197v-2.088C14.563,56.518,15.143,56.516,15.691,56.547z
		 M31.307,54.497c0-0.544,0.478-1.127,1.346-0.729c-0.414,0.656-0.294,1.714,0.43,2.023C32.121,56.112,31.307,55.041,31.307,54.497z
		 M32.814,51.834c0.032-0.202,0.054-0.41,0.054-0.629s-0.022-0.427-0.054-0.629h1.22h0.001v1.258h-0.001H32.814z M33.288,49.5
		c-0.063,0-0.124-0.028-0.164-0.077c-0.041-0.048-0.059-0.112-0.048-0.175c0.104-0.598,0.374-1.768,1.004-3.105
		c0.356-0.346,0.7-0.78,1.024-1.287c0.062-0.004,0.118-0.002,0.18-0.007c0.005,0,0.01-0.001,0.015-0.001
		c0.938-0.071,1.757-0.205,2.477-0.385c0.127,0.122,0.256,0.225,0.385,0.329c0.116,0.093,0.232,0.181,0.348,0.259
		c-1.992,1.748-2.587,3.646-2.742,4.318c-0.025,0.106-0.118,0.171-0.234,0.166c-0.034-0.004-0.066-0.016-0.094-0.035H33.288z
		 M37.032,50.299c0.481,0,0.872,0.39,0.872,0.871c0,0.481-0.39,0.871-0.872,0.871c-0.481,0-0.87-0.39-0.87-0.871
		C36.161,50.689,36.55,50.299,37.032,50.299z M37.516,52.756c0.481,0,0.872,0.389,0.872,0.87s-0.39,0.871-0.872,0.871
		c-0.48,0-0.869-0.39-0.869-0.871S37.036,52.756,37.516,52.756z M42.197,46.313c0.001-0.012,0.005-0.023,0.006-0.035
		c0.015-0.003,0.032-0.004,0.047-0.007C42.233,46.286,42.214,46.298,42.197,46.313z M44.529,45.841
		c0.179,0.01,0.363,0.065,0.419,0.25c0.06,0.202-0.056,0.445-0.19,0.512c-0.538,0.265-0.946,0.707-1.182,1.276
		c-0.022,0.054-0.022,0.114,0.001,0.167c0.185,0.427,0.093,1.001-0.219,1.365c-0.259,0.301-0.621,0.409-1.018,0.304
		c-0.121-0.03-0.232,0.04-0.263,0.153c-0.03,0.115,0.039,0.232,0.153,0.263c0.136,0.035,0.269,0.053,0.398,0.053
		c0.406,0,0.777-0.17,1.055-0.493c0.398-0.464,0.525-1.161,0.322-1.727c0.25-0.545,0.646-0.831,0.941-0.977
		c0.338-0.167,0.526-0.634,0.412-1.02c-0.006-0.021-0.016-0.049-0.03-0.08c1.91,0.311,2.233,2.063,2.233,3.157
		c0,1.203-0.368,3.222-2.833,3.222c-1.948,0-3.258-1.295-3.258-3.222C41.472,47.188,42.696,45.93,44.529,45.841z M41.058,49.222
		c0.008,0.199,0.018,0.398,0.052,0.585c-0.063-0.202-0.125-0.404-0.159-0.613L41.058,49.222z M41.195,50.11
		c-0.027-0.069-0.037-0.142-0.061-0.212C41.15,49.971,41.176,50.038,41.195,50.11z M46.536,45.864
		c-0.492-0.302-1.092-0.47-1.806-0.47c-0.059,0-0.113,0.013-0.171,0.015c-0.094-0.006-0.197-0.005-0.315,0.009
		c-0.016,0.002-0.024,0.017-0.039,0.022c-0.361,0.043-0.705,0.12-1.016,0.247c-0.436,0.042-0.864,0.112-1.255,0.215
		c-0.098,0.026-0.165,0.117-0.16,0.218c0.018,0.366-0.109,0.632-0.366,0.77c-0.305,0.162-0.737,0.116-1.051-0.113
		c-0.185-0.135-0.478-0.45-0.367-1.038c0.145-0.761,1.183-0.959,2.266-0.959c0.829,0,1.685,0.116,2.182,0.184l0.254,0.034
		c0.92,0.078,1.937-0.007,2.793-0.232c0.099-0.026,0.165-0.117,0.16-0.219c-0.014-0.27,0.051-0.482,0.189-0.633
		c0.085-0.092,0.199-0.159,0.331-0.196v2.088C47.664,45.893,47.084,45.894,46.536,45.864z M45.96,44.575
		c-0.276,0.019-0.546,0.005-0.817-0.003c-0.135-0.004-0.276,0.01-0.408-0.001l-0.241-0.032c-0.068-0.009-0.144-0.019-0.221-0.03
		c-0.241-0.032-0.519-0.066-0.82-0.096c-0.087-5.407-1.334-12.508-3.013-14.791c2.182-1.09,3.644-2.995,4.267-4.643
		c0.597,1.604,1.869,3.153,3.458,4.177v1.998C46.942,34.152,46.015,39.835,45.96,44.575z M42.22,40.628
		c-0.469,1.258-1.996,3.424-6.968,3.793c-5.037,0.374-8.719-0.79-10.351-3.276c-0.139-0.212-0.25-0.438-0.358-0.667
		c4.294-0.903,5.356-5.791,5.035-9.155c3.348-0.561,7.311-0.365,8.703,0.42c0.658,0.61,1.253,1.357,1.72,2.166
		c0.134,0.232,0.234,0.463,0.342,0.708c0.242,0.555,0.493,1.13,1.146,1.784C42.324,37.237,42.841,38.957,42.22,40.628z
		 M38.716,28.965c0.104-0.106,0.198-0.23,0.284-0.363c-0.051,0.141-0.106,0.278-0.154,0.422
		C38.803,29.004,38.762,28.984,38.716,28.965z M25.196,29.891c-0.107,0.058-0.205,0.12-0.305,0.182
		c-0.065-0.29-0.131-0.573-0.196-0.853C24.825,29.504,24.997,29.729,25.196,29.891z M22.043,40.743
		c0.045-0.011,0.088-0.03,0.134-0.04l1.906-0.001c0,0,0,0-0.001,0l-1.123,0c0.223,0.116,0.43,0.241,0.638,0.366
		c-0.111,0.101-0.211,0.206-0.305,0.321c-0.261,0.32-0.467,0.679-0.552,1.061c-0.127,0.58,0.017,1.106,0.396,1.445
		c0.417,0.374,1.295,0.687,3.115,0.135c-0.072,1.176,0.307,2.064,1.041,2.41c0.183,0.086,0.379,0.13,0.582,0.142
		c0.148,0.009,0.301-0.003,0.458-0.033c0.5,1.165,0.725,2.161,0.818,2.698c0.011,0.063-0.007,0.127-0.047,0.175
		c-0.041,0.049-0.102,0.077-0.165,0.077h-2.164c-0.024,0.018-0.053,0.03-0.082,0.033c-0.106,0.015-0.209-0.023-0.233-0.131
		c-0.586-2.523-3.012-5.678-8.068-7.002l-0.024,0.016c0.165-0.116,0.339-0.216,0.51-0.322
		C19.852,41.488,20.909,41.026,22.043,40.743z M17.359,43.206c0.018-0.016,0.036-0.031,0.055-0.047
		C17.395,43.174,17.377,43.19,17.359,43.206z M14.061,71.256c1.223-2.996,2.149-8.678,2.203-13.419
		c0.277-0.019,0.546-0.006,0.817,0.002c0.135,0.004,0.277-0.01,0.408,0.001l0.236,0.031c0.07,0.01,0.147,0.02,0.226,0.031
		c0.241,0.032,0.52,0.067,0.822,0.096c0.087,5.407,1.333,12.508,3.011,14.791c-2.181,1.09-3.642,2.995-4.266,4.643
		c-0.597-1.604-1.869-3.153-3.458-4.177V71.256z M20.005,61.783c0.469-1.258,1.996-3.424,6.969-3.793
		c0.619-0.046,1.217-0.068,1.793-0.068c4.12,0,7.125,1.163,8.557,3.343c0.139,0.212,0.251,0.439,0.358,0.668
		c-4.294,0.902-5.357,5.79-5.036,9.155c-3.348,0.561-7.31,0.365-8.702-0.42c-0.657-0.61-1.252-1.357-1.72-2.166
		c-0.135-0.233-0.237-0.466-0.345-0.712c-0.242-0.554-0.493-1.127-1.144-1.781C19.903,65.173,19.384,63.454,20.005,61.783z
		 M23.509,73.451c-0.098,0.099-0.191,0.208-0.275,0.334c0.047-0.132,0.099-0.26,0.144-0.395
		C23.422,73.41,23.462,73.432,23.509,73.451z M37.129,72.583c-0.03-0.029-0.062-0.048-0.092-0.074
		c0.103-0.056,0.202-0.114,0.298-0.174c0.067,0.297,0.134,0.588,0.201,0.875C37.428,72.969,37.298,72.747,37.129,72.583z
		 M40.184,61.667c-0.046,0.012-0.089,0.03-0.136,0.041l-1.907,0.001c0.001-0.001,0.002-0.001,0.003-0.001l1.123,0
		c-0.223-0.116-0.431-0.241-0.639-0.366c0.111-0.101,0.211-0.206,0.305-0.321c0.261-0.32,0.467-0.678,0.552-1.06
		c0.127-0.58-0.017-1.107-0.396-1.445c-0.419-0.375-1.295-0.689-3.114-0.136c0.071-1.176-0.307-2.064-1.041-2.41
		c-0.183-0.086-0.379-0.13-0.583-0.141c-0.148-0.009-0.301,0.002-0.458,0.032c-0.5-1.165-0.725-2.162-0.818-2.698
		c-0.011-0.063,0.007-0.127,0.047-0.175c0.041-0.049,0.102-0.077,0.165-0.077h2.166c0.024-0.018,0.052-0.029,0.081-0.032
		c0.113-0.011,0.209,0.025,0.234,0.132c0.581,2.521,3.005,5.676,8.066,7.001L43.85,60c-0.163,0.114-0.334,0.211-0.503,0.316
		C42.374,60.922,41.317,61.384,40.184,61.667z M44.873,59.199c-0.019,0.017-0.038,0.034-0.057,0.051
		C44.836,59.232,44.853,59.216,44.873,59.199z M39.366,27.673c0.098-0.602-0.077-1.133-0.494-1.333
		c-0.205-0.098-0.442-0.105-0.689-0.019c-0.409,0.143-0.798,0.53-1.04,1.036c-0.001,0-0.001,0-0.001,0
		c-0.181,0.379-0.259,0.783-0.222,1.14c-0.337-0.054-0.697-0.099-1.073-0.134c0.157-0.235,0.289-0.512,0.351-0.844
		c0.168-0.918-0.183-1.727-0.8-1.84c-0.625-0.122-1.232,0.516-1.404,1.432l-0.001,0c-0.079,0.43-0.04,0.833,0.083,1.155
		c-0.441-0.007-0.892-0.002-1.35,0.013c0.128-0.286,0.207-0.615,0.198-0.972c-0.024-0.922-0.524-1.634-1.143-1.634
		c-0.008,0-0.015,0-0.021,0c-0.629,0.018-1.101,0.763-1.074,1.695c0.011,0.395,0.113,0.747,0.27,1.026
		c-0.439,0.044-0.874,0.1-1.304,0.166c0.1-0.294,0.14-0.636,0.095-0.991c-0.053-0.423-0.207-0.812-0.436-1.094
		c-0.252-0.311-0.563-0.455-0.881-0.421c-0.316,0.039-0.583,0.26-0.752,0.623c-0.152,0.329-0.207,0.743-0.155,1.167
		c0.05,0.403,0.198,0.769,0.409,1.047c-0.415,0.101-0.809,0.219-1.189,0.345c0.059-0.294,0.052-0.632-0.036-0.984
		c-0.225-0.906-0.884-1.5-1.488-1.345c-0.485,0.121-0.769,0.674-0.753,1.353c-0.459-1.87-0.946-3.475-1.62-4.602H41.99
		C40.912,24.767,40.039,26.113,39.366,27.673z M14.359,56.135c-0.102,0.01-0.2,0.025-0.297,0.04v-0.636
		C14.161,55.737,14.251,55.944,14.359,56.135z M14.061,59.111c0.253-0.049,0.485-0.146,0.648-0.324
		c0.183-0.198,0.285-0.46,0.303-0.767c0.183-0.043,0.386-0.057,0.579-0.087c0.073,0.091,0.144,0.184,0.219,0.273
		c0.006,0.007,0.012,0.015,0.018,0.022c0,0.005,0,0.01,0,0.015c-0.088,4.066-0.798,8.729-1.767,11.739V59.111z M22.868,74.72
		c-0.051,0.299-0.044,0.587,0.041,0.827c0.087,0.246,0.241,0.427,0.445,0.524c0.111,0.053,0.231,0.08,0.355,0.08
		c0.197,0,0.406-0.067,0.613-0.199c0.306-0.194,0.576-0.513,0.761-0.898c0.001,0,0.001,0,0.001,0
		c0.189-0.396,0.251-0.793,0.216-1.137c0.339,0.055,0.704,0.098,1.083,0.134c-0.161,0.241-0.293,0.52-0.353,0.841
		c-0.102,0.551-0.016,1.093,0.23,1.45c0.148,0.215,0.345,0.35,0.568,0.391c0.049,0.009,0.098,0.014,0.146,0.014
		c0.177,0,0.355-0.06,0.524-0.175c0.357-0.246,0.631-0.721,0.731-1.271c0.077-0.415,0.048-0.825-0.077-1.155
		c0.142,0.002,0.282,0.007,0.426,0.007c0.296,0,0.599-0.011,0.901-0.021c-0.121,0.275-0.189,0.608-0.179,0.972
		c0.027,0.922,0.527,1.633,1.145,1.633c0.007,0,0.015,0,0.021,0c0.628-0.017,1.1-0.762,1.074-1.695
		c-0.011-0.396-0.113-0.747-0.27-1.026c0.439-0.044,0.873-0.099,1.303-0.165c-0.099,0.294-0.139,0.635-0.095,0.99
		c0.068,0.555,0.313,1.045,0.655,1.312c0.177,0.138,0.369,0.208,0.563,0.208c0.032,0,0.065-0.002,0.098-0.006
		c0.315-0.039,0.583-0.26,0.751-0.623c0.153-0.329,0.208-0.744,0.156-1.168c-0.05-0.408-0.197-0.78-0.407-1.055
		c0.42-0.102,0.824-0.217,1.208-0.345c-0.064,0.307-0.071,0.647,0.015,0.992c0.135,0.543,0.437,1,0.809,1.224
		c0.159,0.096,0.325,0.145,0.487,0.145c0.064,0,0.129-0.008,0.192-0.024c0.31-0.077,0.548-0.329,0.671-0.708
		c0.066-0.206,0.082-0.44,0.073-0.681c0.462,1.886,0.951,3.506,1.629,4.64H20.237C21.318,77.641,22.194,76.289,22.868,74.72z
		 M47.867,46.276c0.102-0.01,0.2-0.025,0.297-0.04v0.635C48.065,46.674,47.974,46.466,47.867,46.276z M48.165,43.299
		c-0.252,0.048-0.483,0.145-0.646,0.323c-0.184,0.198-0.286,0.461-0.304,0.768c-0.183,0.043-0.386,0.057-0.58,0.087
		c-0.073-0.091-0.144-0.183-0.218-0.272c-0.007-0.008-0.013-0.017-0.02-0.025c0-0.005,0-0.011,0-0.016
		c0.089-4.065,0.798-8.727,1.768-11.738V43.299z M48.165,28.629c-1.603-1.112-2.835-2.77-3.247-4.419
		c-0.024-0.096-0.11-0.163-0.209-0.163s-0.185,0.067-0.209,0.163c-0.433,1.73-1.988,3.991-4.486,5.141
		c-0.062,0.028-0.106,0.084-0.12,0.151c-0.015,0.066,0.004,0.135,0.049,0.187c0.905,1.03,1.764,3.773,2.346,7.071
		c-0.149-0.25-0.311-0.478-0.493-0.661c-0.597-0.597-0.831-1.133-1.057-1.652c-0.107-0.245-0.218-0.498-0.363-0.751
		c-0.479-0.828-1.064-1.561-1.73-2.192c0.071-0.359,0.15-0.711,0.237-1.054c0.066-0.26,0.143-0.513,0.219-0.766
		c0.74-2.48,1.912-4.504,3.507-6.022h5.558V28.629z M22.329,23.659c1.025,1.539,1.658,4.348,2.326,7.326
		c0.115,0.511,0.232,1.031,0.352,1.553c-0.534,0.43-0.952,1.134-1.263,2.171c-0.409,1.36-1.557,2.122-2.436,2.059
		c-0.269-0.017-0.732-0.134-0.83-0.725c-0.041-0.239,0.121-0.519,0.275-0.563c0.043-0.011,0.087-0.001,0.131,0.025
		c0.029,0.021,0.058,0.044,0.084,0.07c0.082,0.087,0.164,0.228,0.236,0.413c0.042,0.108,0.162,0.164,0.271,0.125
		c0.108-0.037,0.169-0.154,0.136-0.264c-0.186-0.625-0.721-0.985-1.333-0.893c-0.751,0.112-1.502,0.909-1.487,2.434
		c0.007,0.833,0.437,1.688,1.148,2.288c0.355,0.299,0.885,0.593,1.586,0.781c-1.199,0.349-2.321,0.861-3.331,1.555
		c-0.38,0.261-0.746,0.543-1.096,0.849c-0.001,0.001-0.002,0.001-0.002,0.002c-0.474,0.416-0.908,0.887-1.323,1.383
		c-0.652,0.781-1.224,1.658-1.712,2.622V23.659H22.329z M14.061,73.782c1.603,1.112,2.835,2.77,3.247,4.419
		c0.024,0.096,0.11,0.163,0.209,0.163s0.185-0.067,0.209-0.163c0.434-1.731,1.989-3.992,4.485-5.14
		c0.062-0.028,0.106-0.084,0.12-0.15c0.015-0.066-0.004-0.136-0.049-0.187c-0.904-1.03-1.763-3.773-2.345-7.072
		c0.149,0.25,0.312,0.478,0.494,0.661c0.594,0.596,0.828,1.131,1.055,1.649c0.107,0.246,0.219,0.501,0.365,0.755
		c0.478,0.827,1.063,1.559,1.729,2.191c-0.072,0.363-0.151,0.719-0.239,1.065c-0.058,0.228-0.126,0.451-0.193,0.675
		c-0.74,2.52-1.918,4.571-3.529,6.105h-5.559V73.782z M39.897,78.753c-1.025-1.539-1.657-4.345-2.325-7.321
		c-0.115-0.513-0.232-1.034-0.353-1.559c0.535-0.43,0.953-1.134,1.264-2.171c0.395-1.313,1.48-2.062,2.344-2.062
		c0.031,0,0.062,0.001,0.093,0.002c0.268,0.017,0.731,0.134,0.829,0.723c0.039,0.24-0.123,0.521-0.277,0.564
		c-0.041,0.012-0.085,0.002-0.13-0.025c-0.029-0.021-0.058-0.045-0.084-0.07c-0.082-0.087-0.164-0.229-0.236-0.414
		c-0.042-0.106-0.16-0.163-0.271-0.124c-0.108,0.037-0.169,0.154-0.136,0.264c0.186,0.627,0.731,0.986,1.333,0.893
		c0.75-0.112,1.501-0.909,1.486-2.434c-0.007-0.832-0.436-1.687-1.146-2.287c-0.353-0.297-0.858-0.603-1.555-0.791
		c1.184-0.349,2.294-0.856,3.293-1.541c0.898-0.616,1.703-1.374,2.425-2.237c0.653-0.781,1.226-1.659,1.713-2.624v23.214H39.897z"/>
	<path class="st0" d="M30.437,75.603c0.281-0.007,0.502-0.252,0.493-0.544c-0.007-0.293-0.242-0.524-0.521-0.517
		c-0.282,0.008-0.503,0.251-0.495,0.545C29.922,75.38,30.156,75.61,30.437,75.603z"/>
	<path class="st0" d="M33.658,75.229c0.278-0.034,0.474-0.298,0.439-0.589c-0.035-0.291-0.292-0.498-0.57-0.464
		c-0.278,0.034-0.475,0.298-0.439,0.589C33.123,75.056,33.378,75.264,33.658,75.229z"/>
	<path class="st0" d="M36.734,74.401c0.271-0.068,0.436-0.353,0.365-0.638c-0.071-0.283-0.349-0.46-0.621-0.391
		c-0.274,0.067-0.438,0.353-0.366,0.638C36.183,74.294,36.461,74.47,36.734,74.401z"/>
	<path class="st0" d="M26.631,75.003c-0.054,0.288,0.128,0.562,0.404,0.614c0.275,0.051,0.543-0.14,0.598-0.429
		c0.052-0.288-0.129-0.563-0.404-0.614C26.952,74.522,26.685,74.715,26.631,75.003z"/>
	<path class="st0" d="M23.844,75.048c0.254,0.121,0.562,0.006,0.689-0.258c0.127-0.264,0.023-0.577-0.23-0.698
		c-0.253-0.122-0.561-0.006-0.688,0.258C23.489,74.614,23.591,74.926,23.844,75.048z"/>
	<path class="st1" d="M30.209,72.807c0-0.406-0.33-0.736-0.736-0.736s-0.736,0.33-0.736,0.736c0,0.406,0.33,0.735,0.736,0.735
		S30.209,73.212,30.209,72.807z"/>
	<path class="st1" d="M32.907,71.735c-0.407,0-0.736,0.33-0.736,0.735c0,0.407,0.328,0.736,0.736,0.736
		c0.405,0,0.735-0.329,0.735-0.736C33.642,72.065,33.312,71.735,32.907,71.735z"/>
	<circle class="st1" cx="26.149" cy="72.684" r="0.735"/>
	<path class="st1" d="M11.943,26.342l-1.494-3.145l0.672-0.982c0.645-0.954,0.978-1.255,1.459-1.309V20.67h-1.874v0.236
		c0.374,0.036,0.503,0.136,0.503,0.391c0,0.218-0.122,0.482-0.421,0.927l-1.405,2.1v-2.472c0-0.827,0.054-0.918,0.584-0.945V20.67
		H7.916v0.236C8.445,20.934,8.5,21.025,8.5,21.852v4.436c0,0.836-0.055,0.918-0.611,0.945v0.236h2.105v-0.236
		c-0.557-0.027-0.611-0.109-0.611-0.945v-1.509l0.475-0.718l1.134,2.527c0.279,0.609,0.279,0.609,0.367,0.881h1.426v-0.227
		C12.459,27.197,12.235,26.961,11.943,26.342z"/>
	<path class="st1" d="M18.803,34.608c0.532-0.961,1.359-1.878,1.981-2.563c1.246-1.37,2.43-2.818,2.43-5.001
		c0-3.338-3.514-4.279-4.411-0.742c-0.895-3.538-4.412-2.596-4.412,0.742c0,2.183,1.185,3.63,2.431,5.001
		C17.445,32.73,18.272,33.647,18.803,34.608z"/>
	<path class="st1" d="M10.154,30.347c-0.472-1.868-2.329-1.371-2.329,0.392c0,1.153,0.625,1.917,1.283,2.64
		c0.328,0.362,0.765,0.847,1.046,1.354c0.281-0.507,0.718-0.992,1.046-1.354c0.658-0.723,1.283-1.487,1.283-2.64
		C12.483,28.977,10.628,28.48,10.154,30.347z"/>
	<path class="st1" d="M52.27,75.107c0.557,0.027,0.611,0.109,0.611,0.945v1.509l-0.475,0.719l-1.134-2.528
		c-0.279-0.609-0.279-0.609-0.367-0.881h-1.426v0.227c0.326,0.046,0.55,0.282,0.842,0.9l1.494,3.145l-0.672,0.981
		c-0.645,0.955-0.978,1.255-1.459,1.309v0.236h1.874v-0.236c-0.374-0.036-0.503-0.137-0.503-0.391c0-0.218,0.122-0.481,0.421-0.927
		l1.405-2.099v2.472c0,0.827-0.054,0.918-0.584,0.946v0.236h2.051v-0.236c-0.529-0.027-0.584-0.119-0.584-0.946v-4.436
		c0-0.836,0.055-0.918,0.611-0.945v-0.236H52.27V75.107z"/>
	<path class="st1" d="M52.112,67.606c-0.282,0.507-0.719,0.992-1.047,1.354c-0.658,0.723-1.282,1.487-1.282,2.64
		c0,1.762,1.856,2.259,2.329,0.391c0.472,1.868,2.328,1.371,2.328-0.391c0-1.153-0.625-1.917-1.283-2.64
		C52.829,68.598,52.392,68.113,52.112,67.606z"/>
	<path class="st1" d="M43.424,67.803c-0.532,0.961-1.36,1.877-1.981,2.563c-1.246,1.37-2.431,2.818-2.431,5.001
		c0,3.338,3.516,4.28,4.412,0.741c0.895,3.538,4.411,2.597,4.411-0.741c0-2.183-1.185-3.631-2.431-5.001
		C44.781,69.68,43.954,68.764,43.424,67.803z"/>
</g>
</svg>
