<?xml version="1.0" encoding="utf-8"?>
<!-- Generator: Adobe Illustrator 23.0.2, SVG Export Plug-In . SVG Version: 6.00 Build 0)  -->
<svg version="1.1" id="Layer_1" xmlns="http://www.w3.org/2000/svg" xmlns:xlink="http://www.w3.org/1999/xlink" x="0px" y="0px"
	 viewBox="0 0 82.452 99.776" style="enable-background:new 0 0 82.452 99.776;" xml:space="preserve">
<style type="text/css">
	.st0{fill:#FFFFFF;}
	.st1{fill:#ED1C24;}
	.st2{fill:#FFCB05;}
	.st3{fill:#21409A;}
	.st4{fill:#D4D5D6;}
	.st5{fill:#000100;}
	.st6{fill:#300505;}
	.st7{fill:#BFD730;}
	.st8{fill:#F15A22;}
</style>
<g>
	<path class="st0" d="M28.747,59.855c-0.107-0.19-0.198-0.398-0.298-0.596v0.636C28.548,59.879,28.645,59.865,28.747,59.855z"/>
	<path class="st0" d="M37.538,76.367c0.066-0.225,0.135-0.449,0.193-0.679c0.087-0.345,0.167-0.699,0.238-1.061
		c-0.659-0.625-1.258-1.375-1.729-2.191c-0.146-0.254-0.258-0.509-0.366-0.755c-0.226-0.518-0.46-1.053-1.054-1.649
		c-0.182-0.183-0.345-0.412-0.494-0.661c0.581,3.299,1.44,6.042,2.345,7.072c0.045,0.051,0.063,0.121,0.049,0.187
		c-0.014,0.066-0.059,0.122-0.12,0.15c-2.496,1.148-4.052,3.41-4.485,5.141c-0.024,0.096-0.11,0.163-0.209,0.163
		c-0.099,0-0.185-0.067-0.209-0.163c-0.412-1.65-1.644-3.308-3.247-4.419v4.969h5.559C35.62,80.938,36.799,78.886,37.538,76.367z"/>
	<path class="st0" d="M62.255,49.995c0.107,0.191,0.198,0.398,0.298,0.596v-0.636C62.455,49.971,62.357,49.985,62.255,49.995z"/>
	<path class="st0" d="M53.49,33.393c-0.077,0.257-0.154,0.514-0.221,0.777c-0.087,0.342-0.165,0.693-0.236,1.052
		c0.667,0.632,1.253,1.364,1.73,2.191c0.146,0.253,0.256,0.506,0.362,0.751c0.227,0.519,0.461,1.056,1.058,1.653
		c0.182,0.183,0.345,0.411,0.494,0.661c-0.582-3.299-1.441-6.042-2.346-7.073c-0.045-0.051-0.063-0.121-0.049-0.187
		c0.014-0.066,0.059-0.122,0.12-0.15c2.498-1.149,4.054-3.409,4.486-5.14c0.024-0.096,0.11-0.163,0.209-0.163
		s0.185,0.067,0.209,0.163c0.412,1.649,1.644,3.308,3.247,4.419v-4.97h-5.558C55.401,28.895,54.231,30.916,53.49,33.393z"/>
	<path class="st0" d="M30.162,47.968c0.008-0.027,0.018-0.054,0.036-0.077c0.102-0.121,0.205-0.237,0.311-0.352l0.162-0.179
		c0.104-0.111,0.213-0.216,0.322-0.322l0.237-0.23c0.108-0.1,0.217-0.194,0.325-0.287c0.094-0.081,0.177-0.152,0.263-0.222
		c0.103-0.083,0.208-0.165,0.313-0.244c0.1-0.075,0.198-0.147,0.3-0.219l0.159-0.109c1.008-0.691,2.127-1.2,3.321-1.549
		c-0.701-0.188-1.23-0.482-1.584-0.78c-0.712-0.6-1.142-1.456-1.148-2.288c-0.015-1.526,0.736-2.322,1.486-2.435
		c0.623-0.095,1.148,0.268,1.334,0.894c0.033,0.11-0.027,0.227-0.136,0.264c-0.108,0.039-0.229-0.017-0.271-0.125
		c-0.073-0.186-0.156-0.328-0.238-0.415c-0.025-0.024-0.052-0.047-0.08-0.067c-0.047-0.029-0.093-0.038-0.133-0.026
		c-0.154,0.043-0.316,0.324-0.275,0.563c0.098,0.59,0.562,0.707,0.829,0.724c0.031,0.002,0.062,0.003,0.093,0.003
		c0.863,0,1.949-0.749,2.344-2.062c0.311-1.037,0.728-1.741,1.263-2.17c-0.12-0.522-0.237-1.042-0.351-1.551
		c-0.668-2.979-1.302-5.789-2.327-7.329H28.45v23.213C28.937,49.626,29.509,48.749,30.162,47.968z M31.209,30.07
		c0.624-0.558,1.451-1.303,1.982-2.085c0.532,0.782,1.357,1.527,1.981,2.085c1.246,1.115,2.43,2.293,2.43,4.067
		c0,2.533-3.062,3.368-4.198,1.13c0.105,0.988,0.565,2.491,1.493,2.85h-3.413c0.93-0.359,1.388-1.863,1.493-2.85
		c-1.138,2.239-4.199,1.404-4.199-1.13C28.779,32.363,29.964,31.185,31.209,30.07z"/>
	<path class="st0" d="M60.805,47.925c0.074,0.088,0.145,0.18,0.218,0.271c0.194-0.03,0.397-0.044,0.58-0.087
		c0.018-0.307,0.12-0.569,0.303-0.768c0.164-0.177,0.395-0.275,0.647-0.323V36.146c-0.97,3.01-1.68,7.672-1.768,11.737
		C60.793,47.897,60.8,47.911,60.805,47.925z"/>
	<path class="st0" d="M67.141,20.643H23.902c-1.564,0-2.837,1.272-2.837,2.836v62.82c0,1.563,1.272,2.836,2.837,2.836h43.239
		c1.564,0,2.838-1.272,2.838-2.836v-62.82C69.979,21.916,68.705,20.643,67.141,20.643z M24.654,36.836
		c0.056,0.521,0.299,1.316,0.789,1.506h-1.802c0.49-0.19,0.733-0.984,0.788-1.506c-0.6,1.183-2.216,0.742-2.216-0.596
		c0-0.937,0.625-1.559,1.282-2.148c0.33-0.294,0.767-0.687,1.047-1.1c0.281,0.413,0.718,0.806,1.046,1.1
		c0.658,0.589,1.283,1.211,1.283,2.148C26.872,37.578,25.256,38.019,24.654,36.836z M27.174,31.188h-1.426
		c-0.088-0.273-0.088-0.273-0.367-0.882l-1.134-2.527l-0.475,0.718v1.509c0,0.837,0.054,0.918,0.611,0.946v0.236h-2.105v-0.236
		c0.557-0.027,0.611-0.109,0.611-0.946v-4.436c0-0.827-0.055-0.918-0.584-0.946v-0.236h2.051v0.236
		c-0.53,0.027-0.584,0.119-0.584,0.946v2.472l1.405-2.1c0.299-0.445,0.421-0.709,0.421-0.927c0-0.255-0.129-0.355-0.503-0.391
		v-0.236h1.874v0.236c-0.482,0.055-0.814,0.355-1.459,1.309l-0.672,0.982l1.494,3.145c0.292,0.618,0.516,0.854,0.842,0.9V31.188z
		 M62.983,32.758v2.159v12.272v2.513v1.812v1.031v3.658v1.396v0.733v0.006v24.349c0,0.119-0.096,0.215-0.215,0.215h-8.604H34.1
		h-5.865c-0.119,0-0.215-0.096-0.215-0.215v-5.594v-2.16V62.661v-2.513v-1.811v-1.032v-3.657V52.25v-0.733v-0.004v-24.35
		c0-0.119,0.096-0.215,0.215-0.215h8.604h20.064h5.864c0.119,0,0.215,0.096,0.215,0.215V32.758z M68.764,78.825
		c-0.557,0.027-0.611,0.109-0.611,0.946v4.435c0,0.827,0.055,0.918,0.584,0.946v0.236h-2.051v-0.236
		c0.53-0.027,0.584-0.119,0.584-0.946v-2.472l-1.405,2.1c-0.299,0.445-0.421,0.709-0.421,0.927c0,0.255,0.129,0.355,0.503,0.391
		v0.236h-1.874v-0.236c0.482-0.055,0.814-0.355,1.459-1.309l0.672-0.982l-1.494-3.145c-0.292-0.618-0.516-0.854-0.842-0.9v-0.227
		h1.426c0.088,0.273,0.088,0.273,0.367,0.882l1.134,2.527l0.475-0.718V79.77c0-0.837-0.054-0.918-0.611-0.946v-0.236h2.105V78.825z
		 M67.547,75.686c-0.33,0.295-0.767,0.688-1.046,1.101c-0.282-0.413-0.719-0.806-1.048-1.101c-0.657-0.588-1.281-1.211-1.281-2.147
		c0-1.337,1.615-1.778,2.216-0.597c-0.056-0.521-0.298-1.315-0.789-1.505h1.802c-0.49,0.189-0.732,0.983-0.788,1.505
		c0.6-1.182,2.216-0.741,2.216,0.597C68.829,74.475,68.204,75.098,67.547,75.686z"/>
	<path class="st0" d="M60.841,61.881c-0.008,0.027-0.017,0.055-0.036,0.077c-0.1,0.119-0.203,0.234-0.308,0.347l-0.049,0.055
		c-0.039,0.043-0.078,0.087-0.117,0.129c-0.099,0.104-0.199,0.204-0.301,0.302l-0.263,0.252c-0.104,0.097-0.211,0.19-0.318,0.282
		c-0.106,0.091-0.186,0.159-0.266,0.224c-0.104,0.084-0.207,0.165-0.312,0.243c-0.1,0.075-0.202,0.149-0.304,0.221
		c-0.051,0.037-0.105,0.073-0.158,0.109c-0.998,0.684-2.105,1.189-3.286,1.538c0.695,0.189,1.2,0.494,1.552,0.791
		c0.711,0.6,1.14,1.456,1.146,2.288c0.015,1.525-0.736,2.321-1.486,2.434c-0.602,0.091-1.147-0.267-1.333-0.893
		c-0.033-0.11,0.027-0.227,0.136-0.264c0.11-0.039,0.229,0.017,0.271,0.124c0.073,0.186,0.155,0.327,0.237,0.414
		c0.025,0.025,0.053,0.048,0.082,0.069c0.046,0.028,0.091,0.035,0.131,0.025c0.154-0.043,0.316-0.324,0.277-0.564
		c-0.098-0.589-0.562-0.706-0.83-0.723c-0.869-0.052-2.026,0.699-2.436,2.059c-0.311,1.036-0.729,1.741-1.264,2.171
		c0.121,0.524,0.238,1.046,0.353,1.558c0.667,2.977,1.3,5.784,2.325,7.322h8.268V59.259C62.066,60.224,61.494,61.101,60.841,61.881z
		 M59.834,79.709c-0.624,0.557-1.451,1.302-1.981,2.085c-0.532-0.782-1.359-1.527-1.982-2.085c-1.244-1.115-2.43-2.293-2.43-4.068
		c0-2.533,3.062-3.368,4.199-1.129c-0.106-0.987-0.565-2.491-1.493-2.85h3.412c-0.928,0.359-1.387,1.863-1.492,2.85
		c1.137-2.239,4.198-1.404,4.198,1.129C62.263,77.416,61.078,78.594,59.834,79.709z"/>
	<path class="st0" d="M30.2,61.926c-0.075-0.089-0.147-0.182-0.22-0.274c-0.194,0.03-0.396,0.044-0.579,0.087
		c-0.018,0.306-0.12,0.568-0.303,0.767c-0.164,0.178-0.395,0.276-0.648,0.324v10.872c0.97-3.011,1.679-7.674,1.767-11.74
		C30.21,61.951,30.204,61.939,30.2,61.926z"/>
	<path d="M67.141,20.213H23.902c-1.802,0-3.267,1.465-3.267,3.266v62.82c0,1.801,1.465,3.266,3.267,3.266h43.239
		c1.802,0,3.268-1.465,3.268-3.266v-62.82C70.409,21.678,68.943,20.213,67.141,20.213z M69.979,86.299
		c0,1.563-1.273,2.836-2.838,2.836H23.902c-1.564,0-2.837-1.272-2.837-2.836v-62.82c0-1.563,1.272-2.836,2.837-2.836h43.239
		c1.564,0,2.838,1.272,2.838,2.836V86.299z"/>
	<path class="st1" d="M49.787,52.791c0.224-0.827,0.901-2.615,2.761-4.278c-0.129-0.104-0.259-0.207-0.386-0.329
		c-0.719,0.179-1.538,0.314-2.475,0.384c-1.11,1.685-1.574,3.339-1.753,4.223H49.787z"/>
	<path class="st1" d="M29.521,59.82c-0.507-0.543-0.799-1.324-0.869-2.3H28.45v0.773c0.234,0.538,0.5,1.044,0.785,1.531
		C29.33,59.821,29.425,59.82,29.521,59.82z"/>
	<path class="st1" d="M56.586,50.033c0.016-0.014,0.034-0.027,0.051-0.041c-0.014,0.003-0.031,0.003-0.045,0.007
		C56.591,50.011,56.587,50.021,56.586,50.033z"/>
	<path class="st1" d="M35.425,58.13c-0.062,0.237-0.144,0.46-0.247,0.67c0.293-0.103,0.622-0.107,0.932,0.001
		c0.121-0.129,0.233-0.261,0.34-0.395L35.425,58.13z"/>
	<path class="st1" d="M34.417,59.817c-0.016,0.014-0.034,0.026-0.05,0.041c0.014-0.003,0.031-0.003,0.045-0.007
		C34.412,59.839,34.416,59.829,34.417,59.817z"/>
	<path class="st1" d="M61.483,50.03c0.507,0.543,0.799,1.324,0.869,2.3h0.201v-0.772c-0.234-0.539-0.501-1.045-0.785-1.532
		C61.673,50.028,61.578,50.03,61.483,50.03z"/>
	<path class="st1" d="M53.401,54.73c1.279,0.312,2.357,0.792,3.245,1.376c-0.993-0.944-1.61-2.075-1.759-3.315l-1.01-0.271
		c-0.314,0.662-0.482,1.372-0.482,2.118C53.396,54.669,53.4,54.7,53.401,54.73z"/>
	<path class="st1" d="M57.804,57.014c1.506,1.41,2.198,3.111,2.197,4.426c0.176,0.047,0.354,0.093,0.537,0.134
		c0.701-0.845,1.309-1.805,1.812-2.871C60.568,58.392,59.022,57.807,57.804,57.014z"/>
	<path class="st1" d="M55.578,51.719c0.062-0.234,0.142-0.455,0.244-0.663c-0.14,0.048-0.285,0.081-0.437,0.082
		c-0.165,0-0.332-0.033-0.492-0.089c-0.121,0.128-0.233,0.261-0.34,0.395L55.578,51.719z"/>
	<path class="st1" d="M41.207,52.791h1.86c-0.116-0.573-0.354-1.471-0.805-2.488c-0.204-0.012-0.4-0.056-0.583-0.142
		c-0.733-0.346-1.112-1.234-1.04-2.41c-1.82,0.552-2.698,0.239-3.115-0.135c-0.379-0.339-0.522-0.865-0.396-1.445
		c0.084-0.382,0.29-0.741,0.551-1.061c-0.391-0.231-0.803-0.451-1.251-0.647c-1.133,0.284-2.189,0.746-3.163,1.352
		C38.097,47.202,40.521,50.254,41.207,52.791z"/>
	<path class="st1" d="M33.195,52.833c-1.505-1.41-2.195-3.109-2.194-4.422c-0.176-0.047-0.354-0.093-0.538-0.134
		c-0.7,0.845-1.308,1.804-1.811,2.871C30.433,51.457,31.978,52.042,33.195,52.833z"/>
	<path class="st1" d="M37.601,55.119c-1.277-0.311-2.354-0.791-3.242-1.374c0.992,0.944,1.607,2.074,1.756,3.313l1.008,0.271
		c0.314-0.662,0.482-1.372,0.482-2.119C37.606,55.181,37.602,55.15,37.601,55.119z"/>
	<path class="st1" d="M41.216,57.059c-0.224,0.828-0.901,2.616-2.762,4.279c0.129,0.104,0.258,0.207,0.385,0.329
		c0.719-0.179,1.538-0.314,2.476-0.385c1.11-1.685,1.574-3.338,1.753-4.223H41.216z"/>
	<path class="st1" d="M49.795,57.059h-1.86c0.116,0.573,0.354,1.471,0.805,2.488c0.204,0.012,0.4,0.056,0.583,0.142
		c0.734,0.346,1.112,1.234,1.041,2.411c1.819-0.554,2.695-0.24,3.114,0.135c0.379,0.339,0.522,0.865,0.396,1.445
		c-0.084,0.382-0.29,0.74-0.551,1.06c0.391,0.231,0.803,0.451,1.252,0.648c1.133-0.284,2.189-0.745,3.162-1.351
		C52.902,62.647,50.479,59.595,49.795,57.059z"/>
	<path class="st2" d="M55.523,53.618c0.023,0.069,0.034,0.142,0.06,0.211C55.564,53.758,55.538,53.691,55.523,53.618z"/>
	<path class="st2" d="M55.447,52.941l-0.106-0.029c0.034,0.209,0.096,0.411,0.159,0.613C55.465,53.34,55.455,53.141,55.447,52.941z"
		/>
	<path class="st2" d="M62.553,57.342v-0.973c-0.53-0.141-1.017-0.315-1.477-0.509c-0.515,0.364-1.172,0.556-1.958,0.556
		c-0.81,0-1.529-0.21-2.112-0.584c1.279,1.194,3.188,2.083,5.539,2.472l0.007-0.015V57.342z"/>
	<path class="st3" d="M53.617,56.11c0.037,0.125,0.082,0.249,0.128,0.374C53.747,56.347,53.705,56.215,53.617,56.11z"/>
	<path class="st3" d="M53.769,56.551c0.094,0.245,0.203,0.489,0.334,0.73c1.821,0.745,2.909,2.003,3.388,3.194
		c0.216,0.114,0.439,0.224,0.673,0.328c0.6-0.458,1.116-0.031,1.184,0.429c0.001,0.004-0.001,0.009,0,0.013
		c0.073,0.024,0.145,0.048,0.219,0.071c-0.063-2.057-1.924-5.062-6.141-6.139c0.008,0.072,0.022,0.144,0.034,0.216
		C53.821,55.525,54.062,55.98,53.769,56.551z M58.569,59.106c0.236,0.428-0.068,1.076-0.899,1.025
		c0.349-0.059,0.557-0.51,0.389-0.78c-0.112-0.177-0.413-0.314-0.81-0.141C57.645,58.446,58.335,58.678,58.569,59.106z
		 M57.285,57.346c0.37,0.318,0.311,1.033-0.485,1.275c0.307-0.177,0.343-0.673,0.092-0.866c-0.167-0.127-0.497-0.151-0.809,0.15
		C56.188,57.051,56.916,57.028,57.285,57.346z M55.386,56.124c0.461,0.16,0.67,0.845,0.018,1.364
		c0.219-0.278,0.072-0.752-0.233-0.84c-0.202-0.057-0.517,0.044-0.696,0.437C54.257,56.252,54.925,55.963,55.386,56.124z"/>
	<path class="st0" d="M56.893,57.755c0.251,0.193,0.214,0.689-0.092,0.866c0.796-0.242,0.854-0.957,0.485-1.275
		s-1.097-0.295-1.201,0.559C56.396,57.604,56.727,57.628,56.893,57.755z"/>
	<path class="st0" d="M57.249,59.21c0.397-0.173,0.698-0.036,0.81,0.141c0.168,0.269-0.04,0.721-0.389,0.78
		c0.83,0.051,1.135-0.597,0.899-1.025C58.335,58.678,57.645,58.446,57.249,59.21z"/>
	<path class="st0" d="M58.165,60.804c0.369,0.164,0.769,0.308,1.184,0.442c-0.001-0.004,0.001-0.009,0-0.013
		C59.282,60.773,58.766,60.346,58.165,60.804z"/>
	<path class="st0" d="M55.172,56.648c0.305,0.087,0.452,0.562,0.233,0.84c0.651-0.518,0.443-1.203-0.018-1.364
		c-0.461-0.161-1.129,0.128-0.91,0.962C54.655,56.692,54.97,56.591,55.172,56.648z"/>
	<path class="st0" d="M53.461,55.394c0.036,0.237,0.086,0.476,0.157,0.716c0.088,0.104,0.13,0.237,0.128,0.374
		c0.008,0.022,0.016,0.044,0.024,0.067C54.062,55.98,53.821,55.525,53.461,55.394z"/>
	<path class="st3" d="M54.613,58.072c0.529,0.714,1.231,1.387,2.127,1.966C56.307,59.316,55.603,58.613,54.613,58.072z"/>
	<path class="st0" d="M54.104,57.281c0.145,0.268,0.318,0.531,0.51,0.791c0.99,0.541,1.694,1.244,2.127,1.966
		c0.237,0.153,0.489,0.299,0.752,0.438C57.013,59.284,55.924,58.026,54.104,57.281z"/>
	<path class="st3" d="M37.384,53.739c-0.036-0.123-0.081-0.246-0.126-0.369C37.257,53.505,37.298,53.635,37.384,53.739z"/>
	<path class="st3" d="M37.233,53.3c-0.094-0.246-0.204-0.491-0.336-0.734c-1.819-0.745-2.906-2.002-3.386-3.192
		c-0.216-0.114-0.44-0.225-0.674-0.328c-0.6,0.457-1.115,0.03-1.183-0.43c-0.001-0.004,0-0.008,0-0.012
		c-0.073-0.024-0.145-0.048-0.22-0.071c0.062,2.056,1.923,5.06,6.14,6.138c-0.008-0.072-0.023-0.145-0.034-0.217
		C37.182,54.324,36.943,53.871,37.233,53.3z M32.434,50.743c-0.235-0.427,0.068-1.076,0.899-1.024
		c-0.348,0.059-0.555,0.51-0.388,0.779c0.112,0.179,0.412,0.314,0.81,0.142C33.358,51.404,32.668,51.172,32.434,50.743z
		 M33.717,52.503c-0.37-0.318-0.311-1.032,0.485-1.274c-0.306,0.176-0.343,0.672-0.091,0.866c0.165,0.128,0.496,0.15,0.808-0.15
		C34.814,52.799,34.088,52.822,33.717,52.503z M35.617,53.726c-0.462-0.16-0.671-0.845-0.018-1.364
		c-0.22,0.278-0.073,0.753,0.233,0.84c0.201,0.058,0.517-0.043,0.696-0.437C36.747,53.598,36.078,53.887,35.617,53.726z"/>
	<path class="st0" d="M34.111,52.095c-0.252-0.193-0.214-0.69,0.091-0.866c-0.796,0.242-0.854,0.956-0.485,1.274
		c0.371,0.319,1.097,0.296,1.201-0.558C34.607,52.245,34.276,52.223,34.111,52.095z"/>
	<path class="st0" d="M33.755,50.639c-0.398,0.172-0.698,0.036-0.81-0.142c-0.168-0.269,0.04-0.72,0.388-0.779
		c-0.83-0.051-1.134,0.597-0.899,1.024C32.668,51.172,33.358,51.404,33.755,50.639z"/>
	<path class="st0" d="M32.837,49.046c-0.369-0.163-0.768-0.308-1.183-0.442c0,0.004-0.001,0.008,0,0.012
		C31.722,49.077,32.238,49.504,32.837,49.046z"/>
	<path class="st0" d="M35.832,53.201c-0.306-0.087-0.453-0.561-0.233-0.84c-0.652,0.519-0.444,1.204,0.018,1.364
		c0.461,0.161,1.129-0.128,0.91-0.962C36.349,53.158,36.033,53.259,35.832,53.201z"/>
	<path class="st0" d="M37.541,54.455c-0.036-0.238-0.086-0.477-0.157-0.716c-0.086-0.103-0.127-0.234-0.126-0.369
		c-0.008-0.023-0.016-0.046-0.025-0.069C36.943,53.871,37.182,54.324,37.541,54.455z"/>
	<path class="st3" d="M36.388,51.776c-0.528-0.713-1.229-1.385-2.124-1.963C34.697,50.534,35.399,51.236,36.388,51.776z"/>
	<path class="st0" d="M36.897,52.567c-0.146-0.268-0.318-0.531-0.51-0.791c-0.988-0.54-1.691-1.242-2.124-1.963
		c-0.237-0.153-0.489-0.299-0.752-0.438C33.991,50.565,35.078,51.822,36.897,52.567z"/>
	<path class="st2" d="M58.872,63.792c0.104-0.078,0.207-0.159,0.312-0.243c0.08-0.065,0.159-0.133,0.266-0.224
		c0.107-0.092,0.215-0.185,0.318-0.282l0.263-0.252c0.102-0.099,0.202-0.198,0.301-0.302c0.039-0.042,0.078-0.085,0.117-0.129
		l0.049-0.055c0.104-0.113,0.208-0.228,0.308-0.347c0.019-0.023,0.028-0.05,0.036-0.077c-0.723,0.865-1.53,1.625-2.43,2.241
		c0.053-0.036,0.107-0.072,0.158-0.109C58.67,63.942,58.773,63.868,58.872,63.792z"/>
	<path class="st2" d="M32.132,46.056c-0.105,0.079-0.211,0.161-0.313,0.244c-0.086,0.069-0.169,0.141-0.263,0.222
		c-0.108,0.092-0.217,0.187-0.325,0.287l-0.237,0.23c-0.109,0.105-0.218,0.211-0.322,0.322l-0.162,0.179
		c-0.105,0.114-0.209,0.231-0.311,0.352c-0.019,0.022-0.028,0.05-0.036,0.077c0.722-0.864,1.529-1.624,2.429-2.24l-0.159,0.109
		C32.33,45.909,32.232,45.981,32.132,46.056z"/>
	<path class="st2" d="M30.217,61.948c-0.006-0.007-0.012-0.015-0.018-0.022c0.004,0.013,0.011,0.025,0.017,0.037
		C30.217,61.958,30.217,61.953,30.217,61.948z"/>
	<path class="st2" d="M60.785,47.9c0.007,0.008,0.013,0.017,0.02,0.025c-0.005-0.015-0.012-0.028-0.02-0.042
		C60.785,47.889,60.785,47.895,60.785,47.9z"/>
	<path class="st2" d="M53.017,65.06c0.208,0.125,0.417,0.251,0.641,0.367l-1.126,0c-0.001,0.001-0.002,0.001-0.003,0.001
		l1.908-0.001c0.047-0.011,0.09-0.03,0.137-0.041c-0.449-0.197-0.86-0.416-1.252-0.648C53.228,64.855,53.128,64.96,53.017,65.06z"/>
	<path class="st2" d="M37.986,44.789c-0.208-0.125-0.417-0.251-0.641-0.367l1.127,0c0,0,0,0,0.001,0l-1.908,0.001
		c-0.046,0.011-0.089,0.029-0.136,0.041c0.448,0.197,0.86,0.416,1.251,0.647C37.775,44.994,37.874,44.89,37.986,44.789z"/>
	<path class="st2" d="M36.449,58.405c-0.107,0.134-0.219,0.267-0.34,0.395c0.14,0.048,0.275,0.113,0.397,0.203
		c0.141-0.155,0.272-0.314,0.394-0.477L36.449,58.405z"/>
	<path class="st2" d="M49.795,57.059c0.684,2.536,3.107,5.588,7.941,6.976c0.164-0.102,0.333-0.197,0.492-0.308
		c-0.001,0.001-0.003,0.002-0.004,0.003c-5.062-1.325-7.486-4.479-8.067-7.002c-0.025-0.106-0.121-0.144-0.234-0.132
		c-0.029,0.003-0.057,0.015-0.081,0.033h-2.166c-0.063,0-0.124,0.028-0.165,0.077c-0.04,0.048-0.058,0.112-0.047,0.175
		c0.093,0.537,0.318,1.533,0.818,2.698c0.157-0.03,0.31-0.041,0.458-0.032c-0.451-1.017-0.689-1.915-0.805-2.488H49.795z"/>
	<path class="st2" d="M41.207,52.791c-0.687-2.537-3.11-5.589-7.941-6.976c-0.17,0.106-0.343,0.204-0.507,0.319l0.02-0.014
		c5.057,1.324,7.483,4.479,8.068,7.002c0.024,0.107,0.121,0.145,0.233,0.131c0.029-0.003,0.057-0.015,0.081-0.033h2.165
		c0.063,0,0.124-0.028,0.165-0.077c0.04-0.048,0.058-0.112,0.047-0.175c-0.093-0.537-0.318-1.533-0.818-2.698
		c-0.157,0.03-0.31,0.041-0.458,0.033c0.451,1.017,0.689,1.915,0.805,2.488H41.207z"/>
	<path class="st2" d="M59.568,61.317c-0.074-0.023-0.146-0.047-0.219-0.071c-0.415-0.134-0.814-0.279-1.184-0.442
		c-0.234-0.104-0.457-0.214-0.673-0.328c-0.264-0.139-0.515-0.285-0.752-0.438c-0.896-0.579-1.598-1.252-2.127-1.966
		c-0.192-0.259-0.364-0.523-0.51-0.791c-0.131-0.242-0.24-0.485-0.334-0.73c-0.009-0.022-0.016-0.044-0.024-0.067
		c-0.046-0.125-0.091-0.249-0.128-0.374c-0.071-0.24-0.121-0.479-0.157-0.716c-0.011-0.072-0.026-0.145-0.034-0.216
		c-0.016-0.15-0.024-0.299-0.026-0.447c-0.001-0.031-0.005-0.062-0.005-0.092c0-0.747,0.168-1.457,0.482-2.118
		c0.178-0.375,0.404-0.735,0.676-1.076c0.107-0.134,0.219-0.267,0.34-0.395c-0.139-0.048-0.274-0.114-0.397-0.203
		c-0.988,1.089-1.53,2.38-1.53,3.793c0,2.796,2.252,6.102,7.271,7.311c0.106-0.118,0.199-0.252,0.301-0.375
		c-0.183-0.042-0.361-0.087-0.537-0.134C59.854,61.4,59.71,61.36,59.568,61.317z"/>
	<path class="st2" d="M31.434,48.534c0.075,0.023,0.147,0.047,0.22,0.071c0.415,0.134,0.814,0.278,1.183,0.442
		c0.234,0.104,0.458,0.214,0.674,0.328c0.264,0.139,0.515,0.285,0.752,0.438c0.894,0.578,1.595,1.25,2.124,1.963
		c0.192,0.259,0.364,0.523,0.51,0.791c0.132,0.243,0.241,0.488,0.336,0.734c0.009,0.023,0.016,0.046,0.025,0.069
		c0.045,0.123,0.09,0.246,0.126,0.369c0.071,0.24,0.121,0.479,0.157,0.716c0.011,0.072,0.026,0.145,0.034,0.217
		c0.016,0.15,0.023,0.299,0.026,0.447c0.001,0.031,0.005,0.062,0.005,0.092c0,0.747-0.168,1.457-0.482,2.119l0.424,0.114
		c0.319-0.697,0.488-1.446,0.488-2.232c0-2.797-2.252-6.103-7.27-7.31c-0.106,0.118-0.199,0.252-0.301,0.375
		c0.184,0.041,0.362,0.087,0.538,0.134C31.148,48.45,31.293,48.491,31.434,48.534z"/>
	<path class="st2" d="M41.081,56.595c-0.122-0.005-0.209,0.06-0.234,0.166c-0.154,0.672-0.749,2.57-2.741,4.319
		c0.117,0.079,0.232,0.166,0.348,0.26c1.862-1.664,2.539-3.452,2.762-4.279h1.852c-0.179,0.885-0.643,2.538-1.753,4.223
		c0.006,0,0.011-0.001,0.017-0.002c0.062-0.005,0.118-0.002,0.18-0.007c0.324-0.505,0.666-0.937,1.021-1.282
		c0.632-1.34,0.903-2.512,1.007-3.111c0.011-0.063-0.007-0.127-0.047-0.175c-0.041-0.049-0.102-0.077-0.165-0.077h-2.152
		C41.148,56.611,41.116,56.599,41.081,56.595z"/>
	<path class="st2" d="M59.197,62.975c0.024-0.021,0.048-0.042,0.071-0.063C59.244,62.933,59.223,62.952,59.197,62.975z"/>
	<path class="st2" d="M31.807,46.875c-0.023,0.02-0.047,0.041-0.07,0.061C31.76,46.915,31.782,46.895,31.807,46.875z"/>
	<path class="st2" d="M49.921,53.255c0.116,0.006,0.209-0.059,0.234-0.166c0.155-0.672,0.75-2.57,2.741-4.318
		c-0.117-0.079-0.232-0.166-0.348-0.259c-1.86,1.663-2.537,3.451-2.761,4.278h-1.853c0.179-0.885,0.643-2.538,1.753-4.223
		c-0.005,0-0.01,0.001-0.015,0.002c-0.062,0.005-0.118,0.003-0.179,0.007c-0.325,0.507-0.669,0.941-1.025,1.287
		c-0.63,1.338-0.9,2.508-1.004,3.106c-0.011,0.063,0.007,0.126,0.048,0.175c0.04,0.049,0.101,0.077,0.164,0.077h2.151
		C49.855,53.239,49.887,53.25,49.921,53.255z"/>
	<path class="st2" d="M35.48,56.231c-0.023-0.069-0.034-0.142-0.06-0.211C35.438,56.092,35.465,56.158,35.48,56.231z"/>
	<path class="st2" d="M35.556,56.908l0.106,0.029c-0.034-0.209-0.096-0.412-0.159-0.614C35.537,56.51,35.548,56.708,35.556,56.908z"
		/>
	<path class="st2" d="M31.885,53.433c0.809,0,1.527,0.21,2.109,0.583c-1.279-1.193-3.187-2.082-5.538-2.471l-0.006,0.014
		l-0.001,1.922c0.529,0.141,1.017,0.315,1.476,0.509C30.441,53.626,31.099,53.433,31.885,53.433z"/>
	<path class="st2" d="M43.961,52.362c0.868,0.398,1.347-0.185,1.347-0.729c0-0.543-0.814-1.615-1.776-1.293
		C44.257,50.648,44.375,51.707,43.961,52.362z"/>
	<path class="st2" d="M46.389,50.882c-0.113,0-0.225-0.016-0.336-0.036c-0.221,0.265-0.358,0.567-0.358,0.786
		c0,0.544,0.478,1.127,1.346,0.729c-0.292-0.462-0.312-1.12-0.049-1.579C46.79,50.841,46.588,50.882,46.389,50.882z"/>
	<path class="st0" d="M39.584,54.089c-0.481,0-0.873,0.39-0.873,0.871c0,0.481,0.391,0.87,0.873,0.87
		c0.479,0,0.869-0.389,0.869-0.87C40.453,54.479,40.063,54.089,39.584,54.089z"/>
	<path class="st0" d="M39.098,51.632c-0.481,0-0.872,0.391-0.872,0.871c0,0.481,0.39,0.871,0.872,0.871
		c0.481,0,0.87-0.391,0.87-0.871C39.968,52.023,39.579,51.632,39.098,51.632z"/>
	<path class="st0" d="M37.612,51.21c0.482,0,0.871-0.391,0.871-0.87c0-0.481-0.389-0.872-0.871-0.872
		c-0.48,0-0.869,0.391-0.869,0.872C36.743,50.819,37.132,51.21,37.612,51.21z"/>
	<path class="st0" d="M35.604,49.426c0.481,0,0.87-0.39,0.87-0.871c0-0.481-0.389-0.87-0.87-0.87c-0.481,0-0.87,0.39-0.87,0.87
		C34.733,49.036,35.122,49.426,35.604,49.426z"/>
	<path class="st0" d="M33.211,46.52c-0.48,0-0.87,0.391-0.87,0.871c0,0.481,0.39,0.871,0.87,0.871c0.481,0,0.872-0.391,0.872-0.871
		C34.082,46.911,33.692,46.52,33.211,46.52z"/>
	<path class="st2" d="M54.155,48.905c0.304-0.453,0.886-0.68,1.564-0.776c0.002-0.291-0.073-0.637-0.247-1.035
		c-0.032-0.075-0.02-0.161,0.032-0.224c0.052-0.063,0.139-0.091,0.214-0.072c0.655,0.154,1.214,0.21,1.66,0.179
		c-0.041-0.998-0.113-2.008-0.216-3.006c-0.043,0.175-0.086,0.35-0.151,0.525c-0.391,1.05-1.463,2.683-4.35,3.546
		C53.165,48.477,53.685,48.765,54.155,48.905z"/>
	<path class="st2" d="M41.864,49.771c0.687,0.323,1.672-0.104,2.642-1.138c0.042-0.044,0.099-0.068,0.157-0.068
		c0.023,0,0.047,0.003,0.07,0.012c0.08,0.027,0.136,0.099,0.144,0.184c0.082,0.893,0.527,1.512,1.193,1.657
		c0.724,0.156,1.826-0.268,2.899-1.822c-0.374,0.017-0.755,0.042-1.114,0.042c-4.276,0-7.41-1.23-8.924-3.537
		c-0.07-0.106-0.118-0.224-0.18-0.334c-0.664,0.361-1.089,0.981-1.202,1.496c-0.055,0.25-0.093,0.714,0.262,1.033
		c0.294,0.261,1.073,0.602,3.004-0.053c0.068-0.025,0.146-0.01,0.205,0.037c0.058,0.047,0.087,0.12,0.077,0.193
		C40.954,48.601,41.248,49.482,41.864,49.771z"/>
	<path class="st0" d="M52.118,41.092c0.802,0.151,1.753-0.145,2.151-1.111c-0.829-0.718-2.487-1.395-3.752-0.761
		C50.531,40.384,51.377,40.956,52.118,41.092z M51.83,39.336c0.322,0,0.585,0.262,0.585,0.584s-0.263,0.584-0.585,0.584
		s-0.584-0.262-0.584-0.584S51.508,39.336,51.83,39.336z"/>
	<path class="st0" d="M54.732,38.337c-0.107-0.245-0.208-0.477-0.342-0.708c-0.467-0.809-1.063-1.556-1.721-2.166
		c-1.391-0.784-5.354-0.98-8.702-0.42c0.321,3.364-0.741,8.252-5.035,9.155c0.108,0.228,0.219,0.455,0.358,0.667
		c1.632,2.487,5.314,3.651,10.351,3.275c4.972-0.369,6.499-2.535,6.968-3.793c0.621-1.67,0.103-3.39-0.73-4.226
		C55.225,39.467,54.974,38.893,54.732,38.337z M50.197,38.904c0.155-0.089,0.317-0.148,0.48-0.204
		c-0.167-0.064-0.331-0.155-0.484-0.294c0.623,0.034,2.351-0.339,3.015-1.156c0.774,0.346,1.189,1.217,1.235,1.95
		c-0.298-0.65-0.818-1.193-1.145-1.377c-0.174,0.183-0.607,0.527-1.128,0.755c0.997,0.142,1.942,0.654,2.5,1.185
		c0.061,0.058,0.082,0.146,0.055,0.225c-0.378,1.111-1.346,1.567-2.23,1.567c-0.155,0-0.308-0.014-0.454-0.041
		c-1.009-0.186-2.004-1.01-1.952-2.433C50.091,39.009,50.132,38.941,50.197,38.904z M50.141,40.396
		c0.121-0.026,0.232,0.043,0.261,0.157c0.146,0.592,0.598,1.095,1.178,1.313c0.639,0.241,1.346,0.123,1.994-0.33
		c0.095-0.068,0.23-0.045,0.3,0.053c0.067,0.097,0.044,0.231-0.054,0.299c-0.503,0.351-1.041,0.53-1.569,0.53
		c-0.278,0-0.555-0.05-0.822-0.15c-0.722-0.272-1.262-0.875-1.444-1.613C49.955,40.542,50.026,40.425,50.141,40.396z M46.475,42.554
		c-0.686,0-1.375-0.236-1.946-0.69c-0.093-0.074-0.108-0.209-0.034-0.302c0.072-0.092,0.208-0.108,0.302-0.035
		c0.912,0.725,1.953,0.687,2.622,0.412c0.644-0.266,1.068-0.773,1.137-1.358c0.014-0.117,0.105-0.203,0.239-0.188
		c0.117,0.014,0.202,0.121,0.188,0.238c-0.087,0.742-0.61,1.379-1.4,1.706C47.229,42.482,46.853,42.554,46.475,42.554z
		 M46.307,35.675c0.179,1.383,1.714,2.572,2.281,2.696c-1.631,0.277-2.365-1.175-2.53-1.95c-0.291,0.139-1.011,0.498-1.813,0.996
		C44.564,37.016,45.338,36.228,46.307,35.675z M43.572,39.751c1.104-0.875,3.473-1.719,5.289-0.855
		c0.071,0.034,0.118,0.105,0.122,0.185c0.051,1.165-0.77,2.104-2.09,2.394c-0.247,0.054-0.505,0.082-0.764,0.082
		c-1.077,0-2.183-0.48-2.623-1.556C43.47,39.913,43.496,39.811,43.572,39.751z M46.429,45.124c-0.313,0.094-0.707,0.168-1.082,0.106
		c-0.375-0.062-0.755-0.255-0.984-0.6c-0.075-0.185-0.178-0.366-0.178-0.562c-0.009-0.1-0.027-0.184-0.026-0.298l0.026-0.269
		c0.06-0.404,0.329-0.749,0.685-0.887c0.349-0.144,0.732-0.115,1.034,0.03c0.305,0.137,0.541,0.412,0.58,0.712
		c0.021,0.073,0.01,0.145,0.005,0.216c-0.002,0.071-0.017,0.146-0.039,0.198c-0.048,0.129-0.131,0.236-0.227,0.306
		c-0.197,0.139-0.421,0.145-0.576,0.095c-0.16-0.051-0.249-0.16-0.278-0.24c-0.032-0.08-0.027-0.128-0.031-0.127
		c0.003-0.001,0.003,0.047,0.042,0.123c0.035,0.075,0.128,0.169,0.279,0.204c0.147,0.034,0.351,0.007,0.509-0.127
		c0.161-0.129,0.221-0.378,0.178-0.624c-0.044-0.245-0.246-0.461-0.514-0.569c-0.266-0.113-0.596-0.115-0.877,0.003
		c-0.284,0.112-0.492,0.399-0.536,0.708l-0.021,0.269c0.002,0.065,0.021,0.161,0.029,0.24c0,0.175,0.095,0.313,0.151,0.467
		c0.179,0.273,0.482,0.439,0.809,0.501c0.336,0.058,0.652,0.007,0.991-0.086c0.286-0.108,0.586-0.262,0.809-0.453
		c0.242-0.178,0.421-0.42,0.601-0.626c0.191-0.201,0.375-0.386,0.589-0.482c0.097-0.064,0.212-0.071,0.309-0.094
		c0.098,0.007,0.194,0.013,0.269,0.045c0.072,0.039,0.136,0.073,0.192,0.104c0.045,0.042,0.083,0.078,0.114,0.108
		c0.062,0.058,0.095,0.09,0.095,0.09s-0.035-0.029-0.102-0.082c-0.034-0.026-0.075-0.059-0.123-0.097
		c-0.055-0.024-0.119-0.052-0.19-0.083c-0.071-0.023-0.16-0.021-0.248-0.021c-0.087,0.03-0.186,0.041-0.273,0.109
		c-0.186,0.103-0.347,0.295-0.524,0.493c-0.168,0.211-0.333,0.462-0.585,0.67C47.063,44.819,46.78,44.993,46.429,45.124z
		 M54.847,44.249l-0.087,0.249c-0.143,0.318-0.42,0.598-0.764,0.689c-0.328,0.092-0.712,0.047-0.977-0.062
		c-0.313-0.137-0.545-0.32-0.74-0.543c-0.202-0.208-0.326-0.443-0.455-0.644c-0.134-0.195-0.259-0.376-0.406-0.491
		c-0.139-0.137-0.313-0.144-0.439-0.107c-0.058,0.032-0.115,0.057-0.16,0.086c-0.039,0.038-0.073,0.071-0.1,0.097
		c-0.054,0.052-0.083,0.08-0.083,0.08s0.026-0.031,0.075-0.088c0.025-0.029,0.055-0.064,0.09-0.106
		c0.043-0.034,0.099-0.067,0.161-0.108c0.129-0.058,0.344-0.063,0.506,0.072c0.176,0.111,0.323,0.287,0.47,0.484
		c0.141,0.197,0.279,0.424,0.474,0.603c0.177,0.187,0.431,0.35,0.667,0.456c0.3,0.109,0.561,0.119,0.846,0.046
		c0.279-0.079,0.487-0.305,0.602-0.566l0.076-0.205c0.015-0.072,0.018-0.148,0.029-0.222c0.028-0.145,0.013-0.291-0.002-0.453
		c-0.036-0.274-0.192-0.546-0.425-0.662c-0.23-0.127-0.52-0.115-0.735,0.007c-0.22,0.116-0.357,0.336-0.378,0.558
		c-0.012,0.054-0.001,0.111-0.003,0.164c-0.005,0.056,0.007,0.091,0.023,0.153c0.017,0.119,0.072,0.185,0.117,0.26
		c0.123,0.135,0.299,0.165,0.425,0.127c0.062-0.025,0.117-0.05,0.147-0.097c0.039-0.037,0.064-0.075,0.071-0.113
		c0.023-0.071,0.036-0.109,0.036-0.109s-0.009,0.039-0.026,0.113c-0.003,0.04-0.025,0.081-0.062,0.124
		c-0.028,0.054-0.084,0.087-0.151,0.121c-0.135,0.056-0.342,0.044-0.505-0.104c-0.159-0.166-0.22-0.39-0.212-0.654
		c0.01-0.26,0.162-0.545,0.427-0.703c0.257-0.164,0.622-0.206,0.927-0.042c0.313,0.157,0.508,0.482,0.558,0.834
		c0.017,0.152,0.038,0.326,0.01,0.499C54.866,44.078,54.863,44.164,54.847,44.249z"/>
	<path class="st0" d="M51.83,40.075c0.086,0,0.155-0.069,0.155-0.155c0-0.085-0.069-0.154-0.155-0.154
		c-0.085,0-0.154,0.069-0.154,0.154C51.676,40.005,51.746,40.075,51.83,40.075z"/>
	<path class="st0" d="M45.851,40.075c0.085,0,0.154-0.069,0.154-0.155c0-0.085-0.069-0.154-0.154-0.154s-0.154,0.069-0.154,0.154
		C45.697,40.005,45.766,40.075,45.851,40.075z"/>
	<path class="st0" d="M46.8,41.055c0.847-0.186,1.731-0.761,1.755-1.825c-1.551-0.653-3.567,0.029-4.582,0.757
		C44.483,40.984,45.754,41.284,46.8,41.055z M45.851,39.336c0.322,0,0.584,0.262,0.584,0.584s-0.262,0.584-0.584,0.584
		s-0.584-0.262-0.584-0.584S45.529,39.336,45.851,39.336z"/>
	<path class="st2" d="M33.609,41.106c0.007,0.709,0.379,1.443,0.996,1.963c0.643,0.542,1.856,1.118,3.979,0.77
		c4.232-0.689,5.262-5.451,4.956-8.724c-1.531,0.291-2.9,0.748-3.779,1.39c0,0-0.001,0-0.001,0
		c-0.001,0.001-0.001,0.001-0.002,0.002c-0.504,0.354-0.912,1.042-1.213,2.045c-0.472,1.565-1.814,2.444-2.876,2.364
		c-0.662-0.042-1.12-0.447-1.226-1.082c-0.041-0.242,0.023-0.5,0.152-0.703C34.077,39.293,33.598,39.939,33.609,41.106z
		 M37.721,40.779c1.33-0.342,2.035-1.836,2.166-2.698c0.019-0.117,0.129-0.198,0.245-0.18c0.117,0.018,0.198,0.127,0.181,0.245
		c-0.148,0.97-0.954,2.655-2.484,3.048c-0.019,0.005-0.036,0.007-0.054,0.007c-0.096,0-0.184-0.064-0.208-0.161
		C37.537,40.926,37.606,40.809,37.721,40.779z M37.565,42.553c2.965-0.14,4.387-3.703,4.457-5.489
		c0.005-0.119,0.088-0.202,0.224-0.207c0.118,0.005,0.211,0.104,0.206,0.223c-0.076,1.919-1.626,5.749-4.867,5.902
		c-0.003,0-0.007,0-0.01,0c-0.114,0-0.209-0.089-0.215-0.205C37.354,42.66,37.446,42.559,37.565,42.553z"/>
	<path class="st2" d="M38.853,31.98c-0.016-0.678,0.268-1.231,0.753-1.352c0.306-0.078,0.638,0.033,0.925,0.312
		c0.261,0.252,0.461,0.619,0.563,1.034c0.086,0.345,0.079,0.684,0.016,0.99c0.384-0.128,0.782-0.248,1.202-0.35
		c-0.202-0.268-0.35-0.63-0.402-1.048c-0.114-0.926,0.284-1.712,0.907-1.791c0.309-0.035,0.629,0.111,0.881,0.421
		c0.229,0.282,0.383,0.67,0.436,1.094c0.044,0.355,0.004,0.697-0.095,0.99c0.43-0.066,0.864-0.123,1.303-0.166
		c-0.157-0.279-0.259-0.63-0.27-1.026c-0.026-0.932,0.445-1.677,1.074-1.694c0.007,0,0.015,0,0.022,0
		c0.31,0,0.598,0.178,0.813,0.503c0.2,0.302,0.316,0.704,0.328,1.131c0.01,0.356-0.07,0.686-0.198,0.971
		c0.458-0.015,0.909-0.021,1.35-0.013c-0.123-0.322-0.161-0.724-0.083-1.154l0.001,0c0.172-0.918,0.788-1.547,1.404-1.433
		c0.617,0.113,0.968,0.922,0.8,1.84c-0.062,0.332-0.194,0.609-0.351,0.844c0.379,0.036,0.741,0.08,1.08,0.135
		c-0.036-0.344,0.026-0.744,0.216-1.141c0,0,0,0,0.001,0c0.185-0.385,0.455-0.704,0.761-0.898c0.337-0.215,0.682-0.257,0.968-0.119
		c0.418,0.201,0.593,0.731,0.495,1.333c0.673-1.56,1.546-2.906,2.624-4.014H37.234C37.907,28.505,38.394,30.11,38.853,31.98z"/>
	<path class="st2" d="M39.584,33.61c-0.199-0.162-0.37-0.386-0.5-0.67c0.065,0.28,0.13,0.563,0.196,0.852
		C39.379,33.73,39.477,33.668,39.584,33.61z"/>
	<path class="st2" d="M53.089,32.677c0.052,0.021,0.098,0.044,0.146,0.066c0.055-0.165,0.118-0.322,0.177-0.484
		C53.315,32.417,53.21,32.556,53.089,32.677z"/>
	<path d="M37.575,42.983c0.003,0,0.007,0,0.01,0c3.241-0.153,4.791-3.982,4.867-5.902c0.005-0.119-0.088-0.218-0.206-0.223
		c-0.136,0.005-0.219,0.088-0.224,0.207c-0.07,1.786-1.492,5.349-4.457,5.489c-0.119,0.006-0.211,0.106-0.205,0.225
		C37.366,42.894,37.46,42.983,37.575,42.983z"/>
	<path d="M37.775,41.202c0.018,0,0.035-0.002,0.054-0.007c1.53-0.394,2.336-2.079,2.484-3.048c0.018-0.118-0.063-0.228-0.181-0.245
		c-0.116-0.018-0.227,0.063-0.245,0.18c-0.131,0.861-0.836,2.355-2.166,2.698c-0.115,0.029-0.185,0.146-0.154,0.262
		C37.591,41.138,37.679,41.202,37.775,41.202z"/>
	<path d="M46.129,41.557c0.259,0,0.517-0.028,0.764-0.082c1.32-0.29,2.141-1.229,2.09-2.394c-0.004-0.08-0.051-0.151-0.122-0.185
		c-1.816-0.864-4.186-0.021-5.289,0.855c-0.075,0.06-0.102,0.161-0.065,0.25C43.947,41.077,45.052,41.557,46.129,41.557z
		 M48.555,39.23c-0.023,1.063-0.908,1.639-1.755,1.825c-1.046,0.229-2.317-0.071-2.827-1.068
		C44.988,39.26,47.004,38.578,48.555,39.23z"/>
	<path d="M52.04,41.516c0.146,0.027,0.299,0.041,0.454,0.041c0.885,0,1.853-0.456,2.23-1.567c0.027-0.08,0.006-0.167-0.055-0.225
		c-0.559-0.531-1.503-1.043-2.5-1.185c0.52-0.229,0.953-0.572,1.128-0.755c0.327,0.184,0.847,0.727,1.145,1.377
		c-0.047-0.733-0.461-1.604-1.235-1.95c-0.664,0.817-2.392,1.19-3.015,1.156c0.154,0.139,0.317,0.23,0.484,0.294
		c-0.163,0.055-0.325,0.115-0.48,0.204c-0.064,0.037-0.105,0.104-0.108,0.179C50.037,40.505,51.032,41.33,52.04,41.516z
		 M54.269,39.981c-0.398,0.966-1.35,1.263-2.151,1.111c-0.74-0.136-1.587-0.708-1.601-1.872
		C51.782,38.586,53.44,39.263,54.269,39.981z"/>
	<path d="M48.588,38.371c-0.567-0.124-2.102-1.313-2.281-2.696c-0.968,0.553-1.743,1.341-2.061,1.742
		c0.802-0.498,1.522-0.858,1.813-0.996C46.223,37.195,46.957,38.648,48.588,38.371z"/>
	<path d="M47.893,43.925c0.176-0.198,0.338-0.391,0.524-0.493c0.087-0.068,0.185-0.08,0.273-0.109c0.088,0,0.177-0.003,0.248,0.021
		c0.071,0.031,0.135,0.059,0.19,0.083c0.049,0.038,0.09,0.071,0.123,0.097c0.067,0.053,0.102,0.082,0.102,0.082
		s-0.033-0.031-0.095-0.09c-0.031-0.03-0.069-0.066-0.114-0.108c-0.056-0.03-0.12-0.065-0.192-0.104
		c-0.074-0.032-0.171-0.038-0.269-0.045c-0.096,0.022-0.212,0.03-0.309,0.094c-0.214,0.096-0.398,0.281-0.589,0.482
		c-0.18,0.206-0.358,0.448-0.601,0.626c-0.224,0.192-0.524,0.346-0.809,0.453c-0.339,0.093-0.655,0.143-0.991,0.086
		c-0.327-0.062-0.63-0.228-0.809-0.501c-0.056-0.153-0.151-0.292-0.151-0.467c-0.008-0.079-0.026-0.175-0.029-0.24l0.021-0.269
		c0.045-0.309,0.252-0.596,0.536-0.708c0.281-0.117,0.611-0.116,0.877-0.003c0.267,0.108,0.469,0.324,0.514,0.569
		c0.043,0.246-0.017,0.495-0.178,0.624c-0.158,0.134-0.362,0.161-0.509,0.127c-0.151-0.035-0.245-0.129-0.279-0.204
		c-0.038-0.075-0.038-0.124-0.042-0.123c0.004-0.001-0.001,0.047,0.031,0.127c0.029,0.08,0.119,0.189,0.278,0.24
		c0.155,0.05,0.379,0.043,0.576-0.095c0.096-0.07,0.179-0.177,0.227-0.306c0.022-0.052,0.037-0.127,0.039-0.198
		c0.005-0.07,0.017-0.143-0.005-0.216c-0.039-0.299-0.275-0.574-0.58-0.712c-0.302-0.145-0.685-0.174-1.034-0.03
		c-0.356,0.138-0.625,0.483-0.685,0.887l-0.026,0.269c-0.001,0.114,0.018,0.197,0.026,0.298c0,0.197,0.103,0.378,0.178,0.562
		c0.229,0.344,0.61,0.538,0.984,0.6c0.375,0.062,0.769-0.012,1.082-0.106c0.351-0.131,0.634-0.305,0.878-0.529
		C47.56,44.387,47.725,44.136,47.893,43.925z"/>
	<path d="M54.865,43.494c-0.051-0.351-0.246-0.677-0.558-0.834c-0.306-0.164-0.671-0.122-0.927,0.042
		c-0.265,0.158-0.416,0.444-0.427,0.703c-0.007,0.264,0.054,0.488,0.212,0.654c0.163,0.148,0.371,0.16,0.505,0.104
		c0.067-0.035,0.123-0.068,0.151-0.121c0.038-0.043,0.059-0.084,0.062-0.124c0.017-0.074,0.026-0.113,0.026-0.113
		s-0.013,0.038-0.036,0.109c-0.006,0.038-0.031,0.076-0.071,0.113c-0.029,0.047-0.085,0.072-0.147,0.097
		c-0.125,0.038-0.302,0.007-0.425-0.127c-0.045-0.075-0.1-0.141-0.117-0.26c-0.016-0.062-0.027-0.097-0.023-0.153
		c0.002-0.054-0.009-0.11,0.003-0.164c0.021-0.222,0.159-0.443,0.378-0.558c0.215-0.122,0.504-0.134,0.735-0.007
		c0.233,0.116,0.389,0.388,0.425,0.662c0.015,0.163,0.03,0.309,0.002,0.453c-0.01,0.074-0.013,0.151-0.029,0.222l-0.076,0.205
		c-0.115,0.261-0.323,0.486-0.602,0.566c-0.285,0.072-0.546,0.063-0.846-0.046c-0.236-0.106-0.49-0.269-0.667-0.456
		c-0.196-0.179-0.334-0.406-0.474-0.603c-0.147-0.197-0.294-0.373-0.47-0.484c-0.163-0.135-0.377-0.129-0.506-0.072
		c-0.062,0.041-0.119,0.074-0.161,0.108c-0.035,0.042-0.066,0.077-0.09,0.106c-0.049,0.058-0.075,0.088-0.075,0.088
		s0.029-0.028,0.083-0.08c0.027-0.026,0.06-0.059,0.1-0.097c0.045-0.029,0.102-0.054,0.16-0.086
		c0.125-0.037,0.299-0.031,0.439,0.107c0.147,0.114,0.272,0.296,0.406,0.491c0.129,0.201,0.253,0.436,0.455,0.644
		c0.195,0.222,0.427,0.406,0.74,0.543c0.265,0.108,0.649,0.154,0.977,0.062c0.344-0.091,0.621-0.371,0.764-0.689l0.087-0.249
		c0.017-0.084,0.019-0.171,0.029-0.255C54.903,43.821,54.883,43.647,54.865,43.494z"/>
	<path d="M48.983,40.63c0.014-0.118-0.071-0.225-0.188-0.238c-0.134-0.014-0.226,0.071-0.239,0.188
		c-0.068,0.584-0.493,1.092-1.137,1.358c-0.669,0.275-1.71,0.313-2.622-0.412c-0.094-0.074-0.229-0.058-0.302,0.035
		c-0.074,0.093-0.059,0.229,0.034,0.302c0.571,0.454,1.261,0.69,1.946,0.69c0.378,0,0.754-0.071,1.107-0.218
		C48.372,42.01,48.896,41.373,48.983,40.63z"/>
	<path d="M51.428,42.27c0.268,0.1,0.544,0.15,0.822,0.15c0.528,0,1.066-0.179,1.569-0.53c0.098-0.068,0.121-0.202,0.054-0.299
		c-0.069-0.099-0.205-0.122-0.3-0.053c-0.648,0.453-1.355,0.57-1.994,0.33c-0.58-0.218-1.032-0.722-1.178-1.313
		c-0.028-0.114-0.14-0.184-0.261-0.157c-0.115,0.029-0.186,0.146-0.157,0.261C50.166,41.395,50.706,41.998,51.428,42.27z"/>
	<path d="M45.851,40.504c0.322,0,0.584-0.262,0.584-0.584s-0.262-0.584-0.584-0.584s-0.584,0.262-0.584,0.584
		S45.529,40.504,45.851,40.504z M45.851,39.766c0.085,0,0.154,0.069,0.154,0.154c0,0.085-0.069,0.155-0.154,0.155
		s-0.154-0.069-0.154-0.155C45.697,39.835,45.766,39.766,45.851,39.766z"/>
	<path d="M51.83,40.504c0.322,0,0.585-0.262,0.585-0.584s-0.263-0.584-0.585-0.584s-0.584,0.262-0.584,0.584
		S51.508,40.504,51.83,40.504z M51.83,39.766c0.086,0,0.155,0.069,0.155,0.154c0,0.085-0.069,0.155-0.155,0.155
		c-0.085,0-0.154-0.069-0.154-0.155C51.676,39.835,51.746,39.766,51.83,39.766z"/>
	<path class="st1" d="M48.424,55.554v-1.258h-0.001h-1.22c0.032,0.202,0.053,0.41,0.053,0.628c0,0.219-0.022,0.427-0.054,0.63h1.22
		H48.424z"/>
	<path class="st0" d="M62.553,32.876c-1.588-1.023-2.861-2.573-3.458-4.177c-0.623,1.648-2.085,3.552-4.267,4.642
		c1.679,2.284,2.926,9.385,3.013,14.792c0.301,0.029,0.579,0.064,0.82,0.096c0.026-4.344,0.228-11.909,0.435-14.31
		c0.209,2.412,0.411,10.038,0.435,14.372c0.271,0.008,0.542,0.021,0.817,0.002c0.055-4.74,0.982-10.423,2.204-13.419V32.876z"/>
	<path class="st4" d="M59.097,33.919c-0.207,2.401-0.409,9.965-0.435,14.31c0.078,0.01,0.154,0.021,0.223,0.03l0.239,0.032
		c0.132,0.011,0.272-0.003,0.408,0.001C59.508,43.957,59.306,36.331,59.097,33.919z"/>
	<path class="st2" d="M62.553,49.525v-2.088c-0.132,0.037-0.246,0.104-0.331,0.196c-0.139,0.151-0.203,0.364-0.189,0.634
		c0.005,0.102-0.062,0.193-0.16,0.219c-0.854,0.224-1.874,0.308-2.793,0.232l-0.252-0.033c-0.498-0.068-1.355-0.185-2.186-0.185
		c-1.082,0-2.119,0.198-2.264,0.959c-0.11,0.587,0.183,0.902,0.367,1.037c0.313,0.229,0.745,0.275,1.052,0.113
		c0.256-0.138,0.383-0.404,0.365-0.769c-0.005-0.102,0.062-0.192,0.16-0.218c0.392-0.103,0.819-0.173,1.253-0.215
		c0.313-0.128,0.657-0.205,1.02-0.248c0.014-0.005,0.022-0.019,0.038-0.021c0.115-0.014,0.216-0.015,0.309-0.009
		c0.06-0.002,0.115-0.015,0.176-0.015c0.715,0,1.316,0.169,1.808,0.471C61.474,49.615,62.053,49.613,62.553,49.525z"/>
	<path class="st0" d="M55.861,52.765c0,1.927,1.31,3.221,3.258,3.221c2.465,0,2.833-2.018,2.833-3.221
		c0-1.095-0.323-2.847-2.234-3.158c0.014,0.031,0.024,0.059,0.03,0.08c0.115,0.386-0.073,0.853-0.411,1.021
		c-0.295,0.145-0.691,0.43-0.941,0.977c0.203,0.565,0.076,1.261-0.322,1.726c-0.277,0.323-0.648,0.494-1.055,0.494
		c-0.13,0-0.264-0.018-0.398-0.053c-0.114-0.03-0.184-0.147-0.153-0.262s0.142-0.184,0.263-0.154
		c0.401,0.105,0.76-0.004,1.018-0.305c0.312-0.364,0.403-0.938,0.219-1.365c-0.023-0.053-0.023-0.114-0.001-0.167
		c0.235-0.571,0.645-1.013,1.182-1.276c0.135-0.067,0.25-0.311,0.189-0.512c-0.055-0.185-0.239-0.24-0.418-0.25
		C57.084,49.649,55.861,50.907,55.861,52.765z"/>
	<path class="st0" d="M46.177,30.528c-0.281,0.008-0.501,0.251-0.493,0.543c0.008,0.293,0.242,0.524,0.522,0.516
		c0.281-0.007,0.502-0.252,0.494-0.544C46.692,30.751,46.458,30.52,46.177,30.528z"/>
	<path class="st0" d="M42.958,30.901c-0.278,0.035-0.476,0.298-0.439,0.589c0.035,0.291,0.291,0.499,0.57,0.465
		c0.278-0.035,0.473-0.299,0.438-0.59C43.491,31.074,43.236,30.866,42.958,30.901z"/>
	<path class="st0" d="M39.88,31.729c-0.272,0.067-0.436,0.352-0.365,0.637c0.071,0.284,0.35,0.46,0.622,0.392
		c0.274-0.067,0.436-0.354,0.365-0.637C40.432,31.836,40.154,31.661,39.88,31.729z"/>
	<path class="st0" d="M49.983,31.127c0.054-0.289-0.128-0.563-0.404-0.614c-0.275-0.051-0.543,0.141-0.597,0.429
		c-0.054,0.287,0.128,0.562,0.404,0.614C49.664,31.607,49.929,31.415,49.983,31.127z"/>
	<path class="st0" d="M52.768,31.082c-0.252-0.12-0.56-0.006-0.688,0.258c-0.126,0.265-0.023,0.578,0.23,0.699
		c0.253,0.122,0.561,0.006,0.688-0.258C53.126,31.516,53.023,31.204,52.768,31.082z"/>
	<path class="st1" d="M46.405,33.324c0,0.406,0.33,0.736,0.737,0.736c0.405,0,0.735-0.33,0.735-0.736s-0.33-0.736-0.735-0.736
		C46.734,32.588,46.405,32.917,46.405,33.324z"/>
	<path class="st1" d="M43.708,34.395c0.406,0,0.736-0.329,0.736-0.735c0-0.407-0.33-0.736-0.736-0.736
		c-0.406,0-0.736,0.329-0.736,0.736C42.972,34.066,43.302,34.395,43.708,34.395z"/>
	<path class="st1" d="M50.467,32.711c-0.407,0-0.737,0.329-0.737,0.735s0.33,0.735,0.737,0.735c0.405,0,0.735-0.329,0.735-0.735
		S50.872,32.711,50.467,32.711z"/>
	<path class="st2" d="M47.041,57.487c-0.868-0.398-1.346,0.186-1.346,0.729c0,0.544,0.814,1.615,1.776,1.294
		C46.747,59.202,46.627,58.143,47.041,57.487z"/>
	<path class="st2" d="M44.949,59.005c0.222-0.265,0.359-0.569,0.359-0.788c0-0.544-0.479-1.127-1.347-0.729
		c0.291,0.461,0.313,1.117,0.052,1.575C44.33,58.971,44.644,58.952,44.949,59.005z"/>
	<path class="st0" d="M51.42,55.76c0.481,0,0.872-0.389,0.872-0.87c0-0.481-0.39-0.87-0.872-0.87c-0.481,0-0.87,0.39-0.87,0.87
		C50.55,55.371,50.939,55.76,51.42,55.76z"/>
	<path class="st0" d="M51.905,58.217c0.481,0,0.872-0.39,0.872-0.871c0-0.481-0.39-0.871-0.872-0.871
		c-0.48,0-0.869,0.39-0.869,0.871C51.036,57.827,51.425,58.217,51.905,58.217z"/>
	<path class="st0" d="M53.39,58.639c-0.481,0-0.87,0.391-0.87,0.871c0,0.482,0.389,0.871,0.87,0.871c0.48,0,0.87-0.39,0.87-0.871
		C54.26,59.03,53.87,58.639,53.39,58.639z"/>
	<path class="st0" d="M55.4,60.423c-0.481,0-0.87,0.391-0.87,0.871c0,0.481,0.389,0.871,0.87,0.871c0.48,0,0.87-0.391,0.87-0.871
		C56.27,60.814,55.88,60.423,55.4,60.423z"/>
	<path class="st0" d="M57.791,63.329c0.481,0,0.871-0.39,0.871-0.87c0-0.481-0.39-0.872-0.871-0.872c-0.48,0-0.87,0.391-0.87,0.872
		C56.92,62.939,57.311,63.329,57.791,63.329z"/>
	<path class="st2" d="M36.847,60.945c-0.304,0.452-0.885,0.679-1.562,0.775c-0.002,0.291,0.073,0.637,0.247,1.035
		c0.032,0.075,0.02,0.161-0.032,0.224c-0.053,0.063-0.141,0.089-0.214,0.072c-0.655-0.154-1.214-0.209-1.66-0.179
		c0.041,0.998,0.112,2.006,0.215,3.004c0.043-0.174,0.086-0.349,0.151-0.523c0.391-1.05,1.462-2.683,4.349-3.546
		C37.837,61.373,37.317,61.085,36.847,60.945z"/>
	<path class="st2" d="M49.139,60.078c-0.682-0.32-1.67,0.104-2.643,1.139c-0.06,0.062-0.146,0.084-0.228,0.056
		c-0.08-0.027-0.136-0.1-0.144-0.184c-0.081-0.893-0.526-1.513-1.191-1.657c-0.722-0.153-1.826,0.267-2.901,1.823
		c4.843-0.224,8.399,0.994,10.039,3.494c0.07,0.106,0.117,0.223,0.18,0.333c0.663-0.361,1.089-0.98,1.202-1.495
		c0.055-0.249,0.093-0.714-0.262-1.032c-0.292-0.262-1.073-0.601-3.003,0.053c-0.069,0.023-0.147,0.009-0.205-0.037
		c-0.058-0.047-0.087-0.12-0.077-0.193C50.048,61.249,49.754,60.368,49.139,60.078z"/>
	<path class="st0" d="M39.171,69.774c-0.085,0-0.154,0.069-0.154,0.155s0.069,0.155,0.154,0.155c0.086,0,0.155-0.069,0.155-0.155
		S39.257,69.774,39.171,69.774z"/>
	<path class="st0" d="M44.204,68.795c-0.847,0.186-1.732,0.761-1.756,1.824c1.547,0.651,3.566-0.028,4.581-0.757
		C46.52,68.866,45.245,68.565,44.204,68.795z M45.151,70.514c-0.321,0-0.583-0.262-0.583-0.584s0.262-0.584,0.583-0.584
		c0.323,0,0.586,0.262,0.586,0.584S45.474,70.514,45.151,70.514z"/>
	<path class="st0" d="M38.886,68.758c-0.792-0.143-1.753,0.144-2.151,1.11c0.829,0.72,2.482,1.395,3.751,0.761
		C40.472,69.466,39.626,68.895,38.886,68.758z M39.171,70.514c-0.322,0-0.584-0.262-0.584-0.584s0.262-0.584,0.584-0.584
		s0.585,0.262,0.585,0.584S39.494,70.514,39.171,70.514z"/>
	<path class="st0" d="M45.151,69.774c-0.084,0-0.153,0.069-0.153,0.155s0.069,0.155,0.153,0.155c0.086,0,0.156-0.069,0.156-0.155
		S45.237,69.774,45.151,69.774z"/>
	<path class="st0" d="M36.269,71.509c0.107,0.246,0.209,0.479,0.345,0.712c0.467,0.809,1.063,1.556,1.72,2.166
		c1.392,0.785,5.354,0.981,8.702,0.42c-0.321-3.364,0.741-8.252,5.035-9.155c-0.108-0.228-0.219-0.455-0.358-0.667
		c-1.432-2.181-4.437-3.344-8.557-3.344c-0.576,0-1.174,0.022-1.793,0.068c-4.973,0.369-6.5,2.535-6.969,3.793
		c-0.621,1.67-0.103,3.391,0.731,4.226C35.776,70.382,36.027,70.955,36.269,71.509z M40.805,70.945
		c-0.152,0.087-0.31,0.152-0.47,0.207c0.164,0.064,0.325,0.155,0.476,0.293c-0.623-0.035-2.352,0.338-3.016,1.154
		c-0.775-0.346-1.189-1.216-1.235-1.949c0.299,0.648,0.818,1.192,1.145,1.376c0.174-0.182,0.603-0.523,1.12-0.751
		c-0.995-0.143-1.935-0.658-2.492-1.189c-0.061-0.058-0.082-0.146-0.055-0.225c0.444-1.307,1.708-1.705,2.686-1.525
		c1.009,0.186,2.002,1.01,1.949,2.431C40.911,70.84,40.87,70.908,40.805,70.945z M40.863,69.453
		c-0.018,0.004-0.035,0.006-0.052,0.006c-0.097,0-0.185-0.065-0.209-0.163c-0.146-0.592-0.599-1.096-1.18-1.314
		c-0.643-0.242-1.348-0.123-1.993,0.329c-0.096,0.067-0.231,0.044-0.3-0.053c-0.067-0.098-0.044-0.231,0.054-0.299
		c0.769-0.536,1.615-0.669,2.391-0.379c0.723,0.271,1.263,0.875,1.446,1.614C41.048,69.308,40.978,69.425,40.863,69.453z
		 M43.419,67.514c1.001-0.413,2.169-0.231,3.054,0.472c0.093,0.074,0.108,0.209,0.034,0.302c-0.073,0.092-0.207,0.109-0.302,0.035
		c-0.911-0.724-1.95-0.688-2.622-0.411c-0.644,0.266-1.069,0.773-1.138,1.358c-0.013,0.109-0.106,0.19-0.214,0.19
		c-0.008,0-0.017,0-0.025-0.001c-0.117-0.014-0.202-0.121-0.188-0.238C42.106,68.478,42.629,67.839,43.419,67.514z M44.697,74.175
		c-0.18-1.383-1.716-2.573-2.284-2.697c1.633-0.277,2.366,1.175,2.532,1.951c0.29-0.139,1.009-0.499,1.811-0.996
		C46.44,72.834,45.664,73.622,44.697,74.175z M47.43,70.098c-0.775,0.616-2.179,1.217-3.576,1.217c-0.587,0-1.174-0.106-1.712-0.362
		c-0.071-0.034-0.118-0.105-0.122-0.185c-0.051-1.164,0.771-2.104,2.091-2.393c1.271-0.278,2.839,0.138,3.385,1.473
		C47.532,69.937,47.505,70.038,47.43,70.098z M44.574,64.726c0.314-0.094,0.708-0.168,1.083-0.105
		c0.375,0.062,0.755,0.255,0.984,0.599c0.075,0.185,0.177,0.366,0.177,0.562c0.009,0.101,0.028,0.184,0.026,0.298l-0.025,0.268
		c-0.06,0.404-0.331,0.748-0.686,0.887c-0.349,0.143-0.732,0.114-1.035-0.03c-0.305-0.138-0.541-0.412-0.581-0.712
		c-0.02-0.073-0.01-0.145-0.004-0.216c0.001-0.071,0.017-0.147,0.038-0.198c0.049-0.129,0.132-0.236,0.228-0.306
		c0.197-0.139,0.421-0.145,0.576-0.096c0.16,0.05,0.25,0.159,0.279,0.239c0.033,0.08,0.028,0.128,0.032,0.127
		c-0.003,0.001-0.003-0.047-0.042-0.122c-0.035-0.075-0.129-0.169-0.281-0.204c-0.147-0.034-0.351-0.007-0.509,0.127
		c-0.161,0.13-0.222,0.378-0.179,0.624c0.045,0.244,0.247,0.461,0.514,0.568c0.266,0.113,0.596,0.115,0.877-0.002
		c0.284-0.112,0.493-0.399,0.537-0.708l0.022-0.268c-0.002-0.065-0.021-0.161-0.029-0.241c0-0.174-0.094-0.313-0.151-0.466
		c-0.179-0.274-0.482-0.44-0.809-0.501c-0.336-0.057-0.652-0.008-0.991,0.086c-0.286,0.108-0.586,0.261-0.809,0.453
		c-0.242,0.178-0.421,0.42-0.601,0.626c-0.19,0.201-0.375,0.386-0.589,0.481c-0.098,0.064-0.212,0.071-0.309,0.094
		c-0.098-0.007-0.194-0.013-0.269-0.045c-0.071-0.039-0.136-0.074-0.191-0.104c-0.045-0.042-0.083-0.078-0.115-0.108
		c-0.062-0.058-0.095-0.09-0.095-0.09s0.035,0.029,0.102,0.082c0.034,0.026,0.075,0.059,0.123,0.098
		c0.055,0.024,0.119,0.052,0.19,0.083c0.071,0.023,0.16,0.021,0.249,0.021c0.087-0.03,0.186-0.041,0.272-0.109
		c0.186-0.103,0.348-0.295,0.524-0.493c0.168-0.211,0.332-0.463,0.585-0.67C43.94,65.03,44.224,64.857,44.574,64.726z M36.156,65.6
		l0.087-0.249c0.143-0.318,0.42-0.598,0.764-0.688c0.328-0.092,0.712-0.047,0.976,0.062c0.313,0.138,0.545,0.32,0.74,0.543
		c0.202,0.208,0.325,0.443,0.455,0.644c0.134,0.195,0.259,0.376,0.406,0.49c0.139,0.138,0.313,0.144,0.439,0.107
		c0.058-0.033,0.115-0.057,0.16-0.086c0.039-0.038,0.073-0.071,0.1-0.097c0.054-0.052,0.083-0.08,0.083-0.08
		s-0.026,0.031-0.075,0.088c-0.025,0.029-0.055,0.064-0.09,0.106c-0.043,0.034-0.099,0.067-0.161,0.108
		c-0.13,0.058-0.344,0.063-0.507-0.072c-0.175-0.111-0.323-0.287-0.47-0.484c-0.141-0.196-0.279-0.424-0.474-0.603
		c-0.176-0.188-0.431-0.35-0.667-0.456c-0.299-0.109-0.561-0.119-0.845-0.046c-0.279,0.079-0.488,0.303-0.603,0.565l-0.076,0.206
		c-0.015,0.072-0.018,0.148-0.029,0.222c-0.028,0.145-0.013,0.291,0.002,0.453c0.036,0.274,0.192,0.546,0.425,0.663
		c0.23,0.127,0.519,0.116,0.734-0.006c0.22-0.116,0.358-0.335,0.379-0.558c0.012-0.054,0.001-0.111,0.003-0.164
		c0.004-0.056-0.007-0.091-0.023-0.153c-0.016-0.119-0.071-0.185-0.116-0.26c-0.123-0.135-0.299-0.166-0.425-0.128
		c-0.061,0.026-0.117,0.05-0.147,0.096c-0.039,0.038-0.065,0.075-0.071,0.113c-0.024,0.071-0.036,0.109-0.036,0.109
		s0.009-0.039,0.026-0.113c0.003-0.04,0.025-0.081,0.063-0.124c0.027-0.053,0.084-0.086,0.151-0.12
		c0.135-0.056,0.342-0.043,0.505,0.105c0.159,0.165,0.22,0.39,0.212,0.654c-0.01,0.259-0.163,0.545-0.428,0.703
		c-0.256,0.164-0.621,0.205-0.927,0.04c-0.313-0.157-0.507-0.483-0.558-0.834c-0.017-0.152-0.038-0.326-0.01-0.499
		C36.136,65.77,36.139,65.684,36.156,65.6z"/>
	<path class="st2" d="M57.393,68.744c-0.006-0.709-0.378-1.442-0.994-1.963c-0.508-0.428-1.369-0.875-2.754-0.875
		c-0.37,0-0.777,0.032-1.226,0.105c-4.233,0.689-5.262,5.451-4.956,8.724c1.531-0.291,2.899-0.748,3.779-1.39c0,0,0.001,0,0.001,0
		c0.001-0.001,0.001-0.001,0.002-0.002c0.505-0.354,0.913-1.042,1.214-2.045c0.471-1.564,1.848-2.433,2.875-2.364
		c0.663,0.042,1.121,0.447,1.227,1.082c0.04,0.242-0.025,0.5-0.154,0.703C56.925,70.556,57.404,69.91,57.393,68.744z M53.282,69.071
		c-1.33,0.341-2.035,1.834-2.166,2.696c-0.017,0.106-0.108,0.182-0.213,0.182c-0.011,0-0.021,0-0.032-0.002
		c-0.117-0.018-0.198-0.127-0.181-0.245c0.148-0.97,0.954-2.654,2.484-3.047c0.12-0.028,0.232,0.041,0.262,0.155
		S53.397,69.041,53.282,69.071z M53.438,67.296c-2.968,0.14-4.389,3.702-4.458,5.489c-0.005,0.116-0.1,0.207-0.215,0.207
		c-0.003,0-0.006,0-0.009,0c-0.118-0.004-0.211-0.104-0.206-0.223c0.075-1.92,1.625-5.749,4.868-5.902
		c0.11-0.012,0.219,0.086,0.225,0.205C53.649,67.19,53.557,67.291,53.438,67.296z"/>
	<path class="st2" d="M37.909,77.176c-0.052-0.021-0.094-0.045-0.143-0.067c-0.055,0.164-0.117,0.32-0.176,0.48
		C37.686,77.435,37.79,77.297,37.909,77.176z"/>
	<path class="st2" d="M52.149,77.87c0.017,0.678-0.267,1.232-0.753,1.353c-0.063,0.016-0.129,0.024-0.193,0.024
		c-0.25,0-0.504-0.115-0.731-0.336c-0.261-0.252-0.461-0.62-0.563-1.034c-0.086-0.345-0.088-0.687-0.026-0.989
		c-0.381,0.127-0.78,0.241-1.197,0.342c0.205,0.268,0.355,0.631,0.408,1.055c0.114,0.926-0.284,1.712-0.907,1.791
		c-0.032,0.004-0.064,0.006-0.097,0.006c-0.587,0-1.111-0.644-1.22-1.521c-0.045-0.363-0.009-0.702,0.087-0.988
		c-0.431,0.066-0.866,0.121-1.306,0.165c0.164,0.289,0.271,0.641,0.281,1.025c0.025,0.933-0.446,1.678-1.074,1.695
		c-0.007,0-0.014,0-0.021,0c-0.617,0-1.117-0.712-1.145-1.633c-0.01-0.364,0.058-0.697,0.179-0.972
		c-0.303,0.01-0.606,0.021-0.902,0.021c-0.144,0-0.284-0.005-0.426-0.007c0.125,0.33,0.154,0.74,0.077,1.155
		c-0.101,0.55-0.374,1.024-0.731,1.27c-0.168,0.116-0.348,0.175-0.524,0.175c-0.049,0-0.098-0.005-0.146-0.014
		c-0.617-0.114-0.968-0.923-0.799-1.841c0.061-0.324,0.179-0.61,0.331-0.842c-0.368-0.035-0.723-0.078-1.054-0.131
		c0.035,0.356-0.042,0.758-0.223,1.136c0,0,0,0-0.001,0c-0.185,0.385-0.455,0.704-0.761,0.898c-0.207,0.132-0.416,0.198-0.613,0.198
		c-0.125,0-0.244-0.026-0.354-0.08c-0.205-0.098-0.359-0.279-0.446-0.524c-0.085-0.24-0.092-0.528-0.041-0.827
		c-0.674,1.569-1.55,2.922-2.631,4.033h19.144C53.095,81.345,52.608,79.74,52.149,77.87z"/>
	<path class="st2" d="M51.421,76.23c0.196,0.16,0.365,0.381,0.491,0.649c-0.063-0.271-0.126-0.545-0.189-0.825
		C51.626,76.115,51.526,76.173,51.421,76.23z"/>
	<path d="M53.418,66.867c-3.243,0.153-4.793,3.982-4.868,5.902c-0.005,0.119,0.088,0.219,0.206,0.223c0.003,0,0.006,0,0.009,0
		c0.115,0,0.21-0.091,0.215-0.207c0.069-1.787,1.49-5.349,4.458-5.489c0.119-0.006,0.211-0.106,0.205-0.225
		C53.637,66.953,53.529,66.854,53.418,66.867z"/>
	<path d="M53.174,68.654c-1.53,0.393-2.336,2.078-2.484,3.047c-0.018,0.118,0.063,0.228,0.181,0.245
		c0.011,0.002,0.021,0.002,0.032,0.002c0.104,0,0.196-0.076,0.213-0.182c0.131-0.861,0.836-2.355,2.166-2.696
		c0.115-0.03,0.184-0.147,0.154-0.262S53.294,68.626,53.174,68.654z"/>
	<path d="M44.111,68.375c-1.32,0.289-2.142,1.229-2.091,2.393c0.004,0.08,0.051,0.151,0.122,0.185
		c0.538,0.256,1.125,0.362,1.712,0.362c1.397,0,2.801-0.601,3.576-1.217c0.075-0.06,0.102-0.161,0.065-0.25
		C46.95,68.513,45.381,68.097,44.111,68.375z M42.448,70.619c0.023-1.063,0.909-1.638,1.756-1.824
		c1.041-0.229,2.316,0.071,2.825,1.067C46.014,70.591,43.995,71.27,42.448,70.619z"/>
	<path d="M38.964,68.335c-0.978-0.18-2.241,0.218-2.686,1.525c-0.027,0.079-0.006,0.167,0.055,0.225
		c0.556,0.531,1.496,1.047,2.492,1.189c-0.517,0.229-0.946,0.569-1.12,0.751c-0.327-0.184-0.846-0.727-1.145-1.376
		c0.047,0.733,0.461,1.603,1.235,1.949c0.664-0.816,2.393-1.19,3.016-1.154c-0.151-0.137-0.312-0.228-0.476-0.293
		c0.16-0.055,0.318-0.119,0.47-0.207c0.064-0.037,0.105-0.104,0.108-0.179C40.966,69.345,39.973,68.521,38.964,68.335z
		 M36.735,69.868c0.398-0.966,1.359-1.253,2.151-1.11c0.74,0.137,1.586,0.708,1.6,1.871C39.217,71.263,37.564,70.588,36.735,69.868z
		"/>
	<path d="M42.413,71.478c0.568,0.124,2.103,1.314,2.284,2.697c0.967-0.554,1.743-1.341,2.06-1.742
		c-0.802,0.497-1.522,0.857-1.811,0.996C44.779,72.654,44.047,71.202,42.413,71.478z"/>
	<path d="M43.11,65.925c-0.176,0.198-0.338,0.391-0.524,0.493c-0.086,0.068-0.185,0.079-0.272,0.109
		c-0.088,0-0.177,0.003-0.249-0.021c-0.071-0.031-0.135-0.059-0.19-0.083c-0.049-0.038-0.09-0.071-0.123-0.098
		c-0.067-0.053-0.102-0.082-0.102-0.082s0.033,0.031,0.095,0.09c0.031,0.03,0.07,0.066,0.115,0.108
		c0.055,0.03,0.12,0.065,0.191,0.104c0.075,0.032,0.171,0.038,0.269,0.045c0.097-0.022,0.212-0.03,0.309-0.094
		c0.214-0.096,0.398-0.281,0.589-0.481c0.18-0.206,0.358-0.448,0.601-0.626c0.223-0.192,0.524-0.345,0.809-0.453
		c0.339-0.093,0.655-0.143,0.991-0.086c0.327,0.062,0.63,0.228,0.809,0.501c0.056,0.153,0.151,0.292,0.151,0.466
		c0.008,0.079,0.027,0.176,0.029,0.241l-0.022,0.268c-0.044,0.309-0.253,0.596-0.537,0.708c-0.281,0.117-0.611,0.115-0.877,0.002
		c-0.268-0.107-0.469-0.324-0.514-0.568c-0.043-0.246,0.018-0.494,0.179-0.624c0.158-0.133,0.362-0.161,0.509-0.127
		c0.151,0.034,0.245,0.128,0.281,0.204c0.038,0.075,0.038,0.123,0.042,0.122c-0.004,0.001,0.001-0.047-0.032-0.127
		c-0.029-0.08-0.119-0.189-0.279-0.239c-0.155-0.05-0.379-0.043-0.576,0.096c-0.096,0.07-0.179,0.176-0.228,0.306
		c-0.021,0.052-0.037,0.127-0.038,0.198c-0.006,0.07-0.016,0.143,0.004,0.216c0.04,0.299,0.276,0.574,0.581,0.712
		c0.303,0.144,0.685,0.173,1.035,0.03c0.355-0.139,0.626-0.482,0.686-0.887l0.025-0.268c0.002-0.115-0.017-0.197-0.026-0.298
		c0-0.197-0.103-0.378-0.177-0.562c-0.229-0.344-0.61-0.537-0.984-0.599c-0.375-0.063-0.769,0.011-1.083,0.105
		c-0.35,0.131-0.634,0.304-0.878,0.529C43.443,65.462,43.279,65.714,43.11,65.925z"/>
	<path d="M36.137,66.354c0.051,0.351,0.245,0.677,0.558,0.834c0.306,0.165,0.671,0.123,0.927-0.04
		c0.265-0.158,0.417-0.443,0.428-0.703c0.007-0.264-0.053-0.488-0.212-0.654c-0.163-0.148-0.37-0.161-0.505-0.105
		c-0.067,0.035-0.123,0.067-0.151,0.12c-0.038,0.043-0.06,0.084-0.063,0.124c-0.017,0.074-0.026,0.113-0.026,0.113
		s0.013-0.038,0.036-0.109c0.006-0.038,0.031-0.075,0.071-0.113c0.029-0.047,0.086-0.071,0.147-0.096
		c0.126-0.038,0.302-0.006,0.425,0.128c0.045,0.075,0.1,0.141,0.116,0.26c0.016,0.062,0.027,0.097,0.023,0.153
		c-0.002,0.054,0.009,0.11-0.003,0.164c-0.021,0.222-0.159,0.442-0.379,0.558c-0.215,0.122-0.504,0.133-0.734,0.006
		c-0.234-0.117-0.389-0.389-0.425-0.663c-0.015-0.163-0.03-0.309-0.002-0.453c0.01-0.074,0.013-0.15,0.029-0.222l0.076-0.206
		c0.115-0.261,0.323-0.485,0.603-0.565c0.284-0.072,0.546-0.063,0.845,0.046c0.236,0.106,0.49,0.268,0.667,0.456
		c0.196,0.178,0.333,0.407,0.474,0.603c0.147,0.196,0.295,0.372,0.47,0.484c0.163,0.135,0.377,0.13,0.507,0.072
		c0.062-0.041,0.118-0.074,0.161-0.108c0.035-0.042,0.066-0.077,0.09-0.106c0.049-0.057,0.075-0.088,0.075-0.088
		s-0.029,0.028-0.083,0.08c-0.027,0.026-0.06,0.059-0.1,0.097c-0.045,0.029-0.102,0.054-0.16,0.086
		c-0.125,0.037-0.299,0.031-0.439-0.107c-0.147-0.114-0.272-0.295-0.406-0.49c-0.129-0.201-0.253-0.436-0.455-0.644
		c-0.195-0.223-0.427-0.405-0.74-0.543c-0.264-0.108-0.648-0.153-0.976-0.062c-0.344,0.09-0.621,0.37-0.764,0.688L36.156,65.6
		c-0.017,0.084-0.019,0.17-0.029,0.255C36.099,66.028,36.12,66.202,36.137,66.354z"/>
	<path d="M42.206,69.458c0.009,0.001,0.018,0.001,0.025,0.001c0.107,0,0.201-0.081,0.214-0.19c0.068-0.585,0.494-1.093,1.138-1.358
		c0.672-0.277,1.711-0.313,2.622,0.411c0.095,0.074,0.229,0.058,0.302-0.035c0.074-0.093,0.059-0.229-0.034-0.302
		c-0.885-0.703-2.053-0.884-3.054-0.472c-0.79,0.326-1.313,0.964-1.401,1.706C42.004,69.337,42.089,69.444,42.206,69.458z"/>
	<path d="M39.574,67.579c-0.775-0.29-1.622-0.156-2.391,0.379c-0.098,0.068-0.121,0.202-0.054,0.299
		c0.068,0.098,0.204,0.121,0.3,0.053c0.646-0.452,1.351-0.571,1.993-0.329c0.581,0.218,1.033,0.722,1.18,1.314
		c0.024,0.098,0.112,0.163,0.209,0.163c0.017,0,0.034-0.002,0.052-0.006c0.115-0.028,0.186-0.145,0.157-0.26
		C40.836,68.454,40.296,67.851,39.574,67.579z"/>
	<path d="M45.151,69.345c-0.321,0-0.583,0.262-0.583,0.584s0.262,0.584,0.583,0.584c0.323,0,0.586-0.262,0.586-0.584
		S45.474,69.345,45.151,69.345z M45.151,70.084c-0.084,0-0.153-0.069-0.153-0.155s0.069-0.155,0.153-0.155
		c0.086,0,0.156,0.069,0.156,0.155S45.237,70.084,45.151,70.084z"/>
	<path d="M39.171,69.345c-0.322,0-0.584,0.262-0.584,0.584s0.262,0.584,0.584,0.584s0.585-0.262,0.585-0.584
		S39.494,69.345,39.171,69.345z M39.171,70.084c-0.085,0-0.154-0.069-0.154-0.155s0.069-0.155,0.154-0.155
		c0.086,0,0.155,0.069,0.155,0.155S39.257,70.084,39.171,70.084z"/>
	<path class="st1" d="M42.579,55.554H43.8c-0.032-0.202-0.054-0.411-0.054-0.63c0-0.219,0.022-0.427,0.053-0.628h-1.221V55.554z"/>
	<path class="st0" d="M31.908,81.152c0.624-1.649,2.086-3.553,4.266-4.644c-1.678-2.283-2.924-9.384-3.011-14.792
		c-0.301-0.029-0.58-0.064-0.822-0.096c-0.026,4.345-0.228,11.909-0.435,14.31c-0.208-2.412-0.411-10.038-0.435-14.373
		c-0.271-0.008-0.542-0.022-0.817-0.003c-0.055,4.741-0.981,10.424-2.203,13.421v1.999C30.037,77.998,31.311,79.547,31.908,81.152z"
		/>
	<path class="st4" d="M31.906,75.931c0.207-2.401,0.409-9.965,0.435-14.31c-0.077-0.01-0.154-0.021-0.222-0.03l-0.24-0.032
		c-0.131-0.011-0.273,0.003-0.408-0.001C31.495,65.892,31.697,73.519,31.906,75.931z"/>
	<path class="st2" d="M28.45,60.325v2.087c0.133-0.037,0.246-0.104,0.332-0.197c0.139-0.151,0.203-0.364,0.189-0.632
		c-0.005-0.102,0.062-0.193,0.16-0.219c0.853-0.225,1.871-0.31,2.792-0.233l0.254,0.034c1.145,0.156,4.19,0.57,4.447-0.775
		c0.11-0.587-0.182-0.901-0.366-1.037c-0.315-0.23-0.749-0.278-1.052-0.113c-0.257,0.138-0.384,0.403-0.366,0.769
		c0.005,0.102-0.062,0.192-0.16,0.218c-0.391,0.103-0.817,0.172-1.251,0.214c-0.314,0.128-0.659,0.206-1.023,0.249
		c-0.014,0.005-0.021,0.019-0.036,0.02c-0.078,0.01-0.151,0.014-0.22,0.014c-0.019,0-0.029-0.007-0.048-0.008
		c-0.074,0.004-0.142,0.019-0.217,0.019c-0.714,0-1.314-0.168-1.806-0.47C29.531,60.236,28.95,60.238,28.45,60.325z"/>
	<path class="st0" d="M35.142,57.084c0-1.927-1.309-3.221-3.257-3.221c-2.465,0-2.833,2.018-2.833,3.221
		c0,1.096,0.324,2.85,2.238,3.159c-0.012-0.028-0.029-0.061-0.035-0.081c-0.115-0.385,0.073-0.853,0.411-1.02
		c0.295-0.145,0.691-0.432,0.942-0.978c-0.203-0.564-0.077-1.26,0.32-1.725c0.366-0.427,0.895-0.588,1.455-0.442
		c0.114,0.03,0.184,0.147,0.153,0.262s-0.142,0.185-0.263,0.154c-0.396-0.103-0.76,0.004-1.019,0.306
		c-0.312,0.363-0.403,0.937-0.218,1.363c0.023,0.053,0.023,0.114,0.001,0.168c-0.236,0.57-0.646,1.012-1.183,1.277
		c-0.135,0.067-0.249,0.31-0.189,0.511c0.057,0.188,0.245,0.241,0.426,0.25C33.922,60.197,35.142,58.939,35.142,57.084z"/>
	<path class="st2" d="M45.501,52.718c-0.718,0-1.325,1.01-1.325,2.206c0,1.196,0.607,2.207,1.325,2.207s1.325-1.011,1.325-2.207
		C46.827,53.728,46.219,52.718,45.501,52.718z M46.483,54.924c0,0.796-0.431,1.42-0.981,1.42s-0.981-0.624-0.981-1.42
		c0-0.796,0.431-1.419,0.981-1.419S46.483,54.128,46.483,54.924z"/>
	<path class="st2" d="M45.501,53.935c-0.261,0-0.552,0.407-0.552,0.99c0,0.584,0.291,0.991,0.552,0.991s0.552-0.407,0.552-0.991
		C46.053,54.341,45.762,53.935,45.501,53.935z"/>
	<path d="M45.501,53.505c-0.551,0-0.981,0.624-0.981,1.419c0,0.796,0.431,1.42,0.981,1.42s0.981-0.624,0.981-1.42
		C46.483,54.128,46.052,53.505,45.501,53.505z M46.053,54.924c0,0.584-0.291,0.991-0.552,0.991s-0.552-0.407-0.552-0.991
		c0-0.583,0.291-0.99,0.552-0.99S46.053,54.341,46.053,54.924z"/>
	<path d="M62.768,26.949h-5.864H36.839h-8.604c-0.119,0-0.215,0.096-0.215,0.215v24.35v0.004v0.733v1.397v3.657v1.032v1.811v2.513
		v12.272v2.16v5.594c0,0.119,0.096,0.215,0.215,0.215H34.1h20.063h8.604c0.119,0,0.215-0.096,0.215-0.215V58.337v-0.006v-0.733
		v-1.396v-3.658v-1.031v-1.812v-2.513V34.916v-2.159v-5.594C62.983,27.045,62.887,26.949,62.768,26.949z M60.539,61.574
		c-0.102,0.123-0.195,0.257-0.301,0.375c-5.019-1.209-7.271-4.514-7.271-7.311c0-1.413,0.541-2.704,1.53-3.793
		c0.122,0.089,0.258,0.155,0.397,0.203c0.161,0.056,0.327,0.089,0.492,0.089c0.152,0,0.297-0.033,0.437-0.082
		c-0.102,0.208-0.182,0.429-0.244,0.663l-1.025-0.275c-0.271,0.341-0.497,0.7-0.676,1.076l1.01,0.271
		c0.149,1.24,0.766,2.371,1.759,3.315c-0.888-0.584-1.966-1.064-3.245-1.376c0.003,0.148,0.01,0.297,0.026,0.447
		c4.217,1.077,6.078,4.082,6.141,6.139c0.142,0.043,0.286,0.084,0.433,0.123c0-1.314-0.691-3.015-2.197-4.426
		c1.218,0.793,2.764,1.378,4.546,1.688C61.848,59.769,61.239,60.728,60.539,61.574z M55.334,68.933
		c-1.027-0.069-2.404,0.8-2.875,2.364c-0.301,1.002-0.709,1.69-1.214,2.045c-0.001,0.001-0.001,0.001-0.002,0.002
		c0,0-0.001,0-0.001,0c-0.88,0.642-2.248,1.099-3.779,1.39c-0.306-3.272,0.723-8.035,4.956-8.724
		c0.448-0.073,0.855-0.105,1.226-0.105c1.385,0,2.246,0.448,2.754,0.875c0.616,0.521,0.988,1.254,0.994,1.963
		c0.011,1.167-0.468,1.813-0.986,1.974c0.129-0.202,0.194-0.461,0.154-0.703C56.455,69.379,55.997,68.975,55.334,68.933z
		 M30.464,48.277c0.102-0.123,0.195-0.257,0.301-0.375c5.018,1.208,7.27,4.513,7.27,7.31c0,0.787-0.169,1.535-0.488,2.232
		l-0.424-0.114l-1.008-0.271c-0.149-1.239-0.764-2.369-1.756-3.313c0.888,0.583,1.964,1.062,3.242,1.374
		c-0.003-0.148-0.01-0.297-0.026-0.447c-4.217-1.078-6.078-4.082-6.14-6.138c-0.142-0.043-0.286-0.084-0.433-0.123
		c-0.001,1.313,0.689,3.013,2.194,4.422c-1.217-0.792-2.762-1.376-4.542-1.686C29.155,50.081,29.763,49.122,30.464,48.277z
		 M35.668,40.917c1.062,0.08,2.404-0.799,2.876-2.364c0.301-1.003,0.709-1.691,1.213-2.045c0.001-0.001,0.001-0.001,0.002-0.002
		c0,0,0.001,0,0.001,0c0.88-0.642,2.248-1.099,3.779-1.39c0.306,3.272-0.724,8.035-4.956,8.724c-2.122,0.349-3.336-0.228-3.979-0.77
		c-0.617-0.521-0.989-1.254-0.996-1.963c-0.011-1.167,0.468-1.813,0.986-1.975c-0.129,0.203-0.193,0.461-0.152,0.703
		C34.548,40.47,35.006,40.874,35.668,40.917z M62.553,52.33h-0.201c-0.07-0.975-0.362-1.757-0.869-2.3
		c0.095,0,0.19-0.001,0.285-0.004c0.285,0.487,0.552,0.993,0.785,1.532V52.33z M57.791,61.586c0.481,0,0.871,0.391,0.871,0.872
		c0,0.481-0.39,0.87-0.871,0.87c-0.48,0-0.87-0.39-0.87-0.87C56.92,61.977,57.311,61.586,57.791,61.586z M56.27,61.294
		c0,0.481-0.39,0.871-0.87,0.871c-0.481,0-0.87-0.391-0.87-0.871c0-0.48,0.389-0.871,0.87-0.871
		C55.88,60.423,56.27,60.814,56.27,61.294z M53.39,60.382c-0.481,0-0.87-0.39-0.87-0.871c0-0.48,0.389-0.871,0.87-0.871
		c0.48,0,0.87,0.391,0.87,0.871C54.26,59.992,53.87,60.382,53.39,60.382z M47.915,77.896c0.278-0.035,0.535,0.173,0.57,0.464
		c0.035,0.29-0.161,0.553-0.439,0.588c-0.279,0.034-0.535-0.173-0.57-0.464C47.44,78.195,47.637,77.931,47.915,77.896z M48.03,76.19
		c0,0.407-0.33,0.736-0.735,0.736c-0.407,0-0.736-0.33-0.736-0.736c0-0.405,0.328-0.735,0.736-0.735
		C47.7,75.455,48.03,75.784,48.03,76.19z M45.319,78.778c0.009,0.292-0.212,0.536-0.493,0.544c-0.282,0.007-0.516-0.223-0.524-0.516
		c-0.008-0.293,0.213-0.536,0.495-0.544C45.077,78.253,45.312,78.485,45.319,78.778z M43.862,77.261
		c-0.406,0-0.736-0.329-0.736-0.735c0-0.407,0.33-0.736,0.736-0.736s0.736,0.329,0.736,0.736
		C44.598,76.932,44.268,77.261,43.862,77.261z M38.004,78.068c0.127-0.263,0.435-0.379,0.688-0.257
		c0.253,0.12,0.357,0.433,0.23,0.697c-0.127,0.264-0.435,0.379-0.689,0.258C37.98,78.645,37.877,78.334,38.004,78.068z
		 M40.537,75.668c0.406,0,0.736,0.329,0.736,0.735c0,0.406-0.33,0.735-0.736,0.735s-0.736-0.329-0.736-0.735
		C39.801,75.997,40.131,75.668,40.537,75.668z M42.021,78.907c-0.055,0.289-0.323,0.48-0.598,0.429
		c-0.276-0.051-0.457-0.326-0.404-0.614c0.054-0.287,0.321-0.48,0.598-0.428C41.892,78.345,42.074,78.62,42.021,78.907z
		 M50.867,77.093c0.271-0.068,0.55,0.107,0.621,0.391c0.071,0.285-0.094,0.57-0.365,0.638c-0.273,0.068-0.551-0.108-0.622-0.392
		C50.429,77.445,50.593,77.159,50.867,77.093z M28.45,57.52h0.202c0.07,0.976,0.362,1.757,0.869,2.3
		c-0.096,0-0.191,0.001-0.286,0.004c-0.285-0.487-0.551-0.993-0.785-1.531V57.52z M28.451,51.559l0.006-0.014
		c2.351,0.389,4.259,1.278,5.538,2.471c-0.583-0.373-1.3-0.583-2.109-0.583c-0.786,0-1.444,0.193-1.959,0.557
		c-0.459-0.194-0.947-0.368-1.476-0.509L28.451,51.559z M33.211,48.263c-0.48,0-0.87-0.391-0.87-0.871c0-0.48,0.39-0.871,0.87-0.871
		c0.481,0,0.872,0.391,0.872,0.871C34.082,47.872,33.692,48.263,33.211,48.263z M34.733,48.555c0-0.481,0.389-0.87,0.87-0.87
		c0.481,0,0.87,0.39,0.87,0.87c0,0.481-0.389,0.871-0.87,0.871C35.122,49.426,34.733,49.036,34.733,48.555z M37.612,49.467
		c0.482,0,0.871,0.391,0.871,0.872c0,0.48-0.389,0.87-0.871,0.87c-0.48,0-0.869-0.391-0.869-0.87
		C36.743,49.858,37.132,49.467,37.612,49.467z M43.089,31.954c-0.279,0.034-0.535-0.174-0.57-0.465
		c-0.036-0.29,0.161-0.554,0.439-0.589c0.278-0.034,0.534,0.173,0.569,0.464C43.562,31.655,43.367,31.919,43.089,31.954z
		 M42.972,33.659c0-0.407,0.33-0.736,0.736-0.736c0.406,0,0.736,0.329,0.736,0.736c0,0.406-0.33,0.735-0.736,0.735
		C43.302,34.395,42.972,34.066,42.972,33.659z M47.142,32.588c0.405,0,0.735,0.33,0.735,0.736s-0.33,0.736-0.735,0.736
		c-0.407,0-0.737-0.33-0.737-0.736S46.734,32.588,47.142,32.588z M52.999,31.781c-0.127,0.264-0.435,0.38-0.688,0.258
		c-0.253-0.121-0.356-0.434-0.23-0.699c0.128-0.264,0.436-0.379,0.688-0.258C53.023,31.204,53.126,31.516,52.999,31.781z
		 M50.467,34.181c-0.407,0-0.737-0.329-0.737-0.735s0.33-0.735,0.737-0.735c0.405,0,0.735,0.329,0.735,0.735
		S50.872,34.181,50.467,34.181z M48.983,30.942c0.054-0.289,0.322-0.48,0.597-0.429c0.276,0.051,0.457,0.326,0.404,0.614
		c-0.054,0.287-0.319,0.48-0.597,0.429C49.11,31.505,48.929,31.23,48.983,30.942z M46.206,31.587
		c-0.281,0.008-0.514-0.223-0.522-0.516c-0.008-0.292,0.212-0.536,0.493-0.543c0.282-0.007,0.516,0.224,0.524,0.516
		C46.708,31.336,46.487,31.58,46.206,31.587z M40.137,32.758c-0.271,0.068-0.551-0.108-0.622-0.392
		c-0.071-0.285,0.094-0.57,0.365-0.637c0.274-0.068,0.552,0.107,0.622,0.392C40.572,32.404,40.41,32.69,40.137,32.758z
		 M57.011,44.497c0.065-0.175,0.108-0.35,0.151-0.525c0.103,0.998,0.174,2.008,0.216,3.006c-0.446,0.03-1.005-0.025-1.66-0.179
		c-0.075-0.02-0.162,0.009-0.214,0.072c-0.052,0.063-0.064,0.149-0.032,0.224c0.174,0.398,0.25,0.744,0.247,1.035
		c-0.678,0.095-1.26,0.323-1.564,0.776c-0.47-0.14-0.99-0.428-1.495-0.862C55.548,47.18,56.62,45.547,57.011,44.497z M47.041,52.362
		c-0.868,0.398-1.346-0.185-1.346-0.729c0-0.219,0.137-0.521,0.358-0.786c0.111,0.02,0.223,0.036,0.336,0.036
		c0.199,0,0.401-0.04,0.603-0.099C46.729,51.242,46.749,51.9,47.041,52.362z M49.907,62.377c-0.01,0.073,0.02,0.146,0.077,0.193
		c0.058,0.046,0.136,0.061,0.205,0.037c1.93-0.653,2.711-0.314,3.003-0.053c0.354,0.318,0.316,0.783,0.262,1.032
		c-0.114,0.515-0.539,1.134-1.202,1.495c-0.062-0.11-0.11-0.227-0.18-0.333c-1.64-2.5-5.195-3.718-10.039-3.494
		c1.075-1.556,2.179-1.976,2.901-1.823c0.665,0.145,1.11,0.764,1.191,1.657c0.008,0.084,0.063,0.156,0.144,0.184
		c0.082,0.028,0.168,0.006,0.228-0.056c0.973-1.035,1.961-1.458,2.643-1.139C49.754,60.368,50.048,61.249,49.907,62.377z
		 M43.961,57.487c0.868-0.398,1.347,0.186,1.347,0.729c0,0.22-0.137,0.523-0.359,0.788c-0.306-0.053-0.619-0.034-0.936,0.058
		C44.274,58.604,44.252,57.948,43.961,57.487z M41.097,47.473c0.01-0.073-0.02-0.146-0.077-0.193
		c-0.059-0.047-0.137-0.062-0.205-0.037c-1.931,0.654-2.71,0.314-3.004,0.053c-0.354-0.318-0.316-0.783-0.262-1.033
		c0.113-0.515,0.538-1.135,1.202-1.496c0.062,0.11,0.11,0.228,0.18,0.334c1.514,2.307,4.647,3.538,8.924,3.537
		c0.358,0,0.74-0.025,1.114-0.042c-1.073,1.554-2.175,1.978-2.899,1.822c-0.666-0.145-1.111-0.764-1.193-1.657
		c-0.008-0.084-0.063-0.156-0.144-0.184c-0.023-0.008-0.047-0.012-0.07-0.012c-0.059,0-0.115,0.023-0.157,0.068
		c-0.97,1.034-1.955,1.46-2.642,1.138C41.248,49.482,40.954,48.601,41.097,47.473z M46.827,54.924c0,1.196-0.607,2.207-1.325,2.207
		s-1.325-1.011-1.325-2.207c0-1.196,0.607-2.206,1.325-2.206S46.827,53.728,46.827,54.924z M45.308,51.632
		c0,0.544-0.479,1.127-1.347,0.729c0.414-0.655,0.295-1.714-0.429-2.022C44.494,50.018,45.308,51.089,45.308,51.632z M43.8,54.296
		c-0.032,0.202-0.053,0.41-0.053,0.628c0,0.219,0.022,0.427,0.054,0.63h-1.221v-1.258H43.8z M43.328,56.629
		c0.063,0,0.124,0.028,0.165,0.077c0.04,0.048,0.058,0.112,0.047,0.175c-0.104,0.599-0.375,1.771-1.007,3.111
		c-0.355,0.345-0.697,0.777-1.021,1.282c-0.062,0.004-0.118,0.002-0.18,0.007c-0.006,0-0.011,0.001-0.017,0.002
		c-0.938,0.07-1.757,0.205-2.476,0.385c-0.127-0.122-0.256-0.225-0.385-0.329c-0.116-0.093-0.232-0.181-0.348-0.26
		c1.993-1.748,2.587-3.646,2.741-4.319c0.025-0.106,0.112-0.171,0.234-0.166c0.034,0.004,0.066,0.016,0.094,0.035H43.328z
		 M33.992,65.353c-0.065,0.174-0.108,0.348-0.151,0.523c-0.103-0.997-0.174-2.006-0.215-3.004c0.446-0.03,1.005,0.025,1.66,0.179
		c0.073,0.018,0.161-0.009,0.214-0.072c0.052-0.063,0.064-0.149,0.032-0.224c-0.174-0.398-0.25-0.744-0.247-1.035
		c0.677-0.095,1.259-0.323,1.562-0.775c0.47,0.14,0.99,0.428,1.494,0.862C35.454,62.67,34.382,64.302,33.992,65.353z M36.507,59.003
		c-0.123-0.089-0.258-0.154-0.397-0.203c-0.31-0.107-0.639-0.104-0.932-0.001c0.103-0.21,0.185-0.433,0.247-0.67l1.024,0.275
		l0.452,0.121C36.779,58.69,36.647,58.848,36.507,59.003z M32.094,60.289c-0.181-0.009-0.37-0.062-0.426-0.25
		c-0.06-0.201,0.055-0.444,0.189-0.511c0.537-0.265,0.946-0.707,1.183-1.277c0.022-0.054,0.022-0.115-0.001-0.168
		c-0.186-0.427-0.094-1,0.218-1.363c0.259-0.301,0.623-0.408,1.019-0.306c0.121,0.031,0.232-0.039,0.263-0.154
		s-0.039-0.232-0.153-0.262c-0.561-0.146-1.089,0.015-1.455,0.442c-0.397,0.464-0.523,1.16-0.32,1.725
		c-0.251,0.546-0.647,0.833-0.942,0.978c-0.338,0.167-0.526,0.635-0.411,1.02c0.006,0.019,0.023,0.053,0.035,0.081
		c-1.914-0.309-2.238-2.063-2.238-3.159c0-1.203,0.368-3.221,2.833-3.221c1.948,0,3.257,1.294,3.257,3.221
		C35.142,58.939,33.922,60.197,32.094,60.289z M34.417,59.817c-0.001,0.012-0.005,0.022-0.006,0.034
		c-0.014,0.003-0.031,0.004-0.045,0.007C34.383,59.844,34.401,59.832,34.417,59.817z M35.556,56.908
		c-0.008-0.2-0.018-0.398-0.052-0.585c0.063,0.202,0.125,0.404,0.159,0.614L35.556,56.908z M35.42,56.021
		c0.027,0.068,0.037,0.141,0.06,0.211C35.465,56.158,35.438,56.092,35.42,56.021z M39.584,55.831c-0.481,0-0.873-0.389-0.873-0.87
		c0-0.481,0.391-0.871,0.873-0.871c0.479,0,0.869,0.39,0.869,0.871C40.453,55.441,40.063,55.831,39.584,55.831z M39.098,53.375
		c-0.481,0-0.872-0.391-0.872-0.871c0-0.48,0.39-0.871,0.872-0.871c0.481,0,0.87,0.391,0.87,0.871
		C39.968,52.984,39.579,53.375,39.098,53.375z M30.08,60.267c0.492,0.301,1.092,0.47,1.806,0.47c0.075,0,0.143-0.015,0.217-0.019
		c0.018,0.001,0.029,0.008,0.048,0.008c0.068,0,0.142-0.004,0.22-0.014c0.015-0.002,0.023-0.016,0.036-0.02
		c0.364-0.043,0.71-0.121,1.023-0.249c0.434-0.042,0.86-0.112,1.251-0.214c0.099-0.026,0.165-0.117,0.16-0.218
		c-0.018-0.366,0.109-0.631,0.366-0.769c0.303-0.165,0.736-0.117,1.052,0.113c0.185,0.135,0.477,0.45,0.366,1.037
		c-0.257,1.346-3.303,0.931-4.447,0.775l-0.254-0.034c-0.921-0.077-1.939,0.008-2.792,0.233c-0.099,0.026-0.165,0.117-0.16,0.219
		c0.014,0.269-0.051,0.481-0.189,0.632c-0.086,0.093-0.199,0.16-0.332,0.197v-2.087C28.95,60.238,29.531,60.236,30.08,60.267z
		 M45.695,58.217c0-0.544,0.478-1.127,1.346-0.729c-0.414,0.656-0.294,1.714,0.43,2.023C46.51,59.831,45.695,58.76,45.695,58.217z
		 M47.203,55.554c0.032-0.202,0.054-0.411,0.054-0.63c0-0.219-0.022-0.427-0.053-0.628h1.22h0.001v1.258h-0.001H47.203z
		 M47.676,53.22c-0.063,0-0.124-0.028-0.164-0.077c-0.041-0.048-0.059-0.112-0.048-0.175c0.104-0.598,0.374-1.768,1.004-3.106
		c0.356-0.346,0.7-0.78,1.025-1.287c0.061-0.004,0.117-0.002,0.179-0.007c0.005,0,0.01-0.001,0.015-0.002
		c0.937-0.07,1.756-0.205,2.475-0.384c0.127,0.122,0.256,0.226,0.386,0.329c0.116,0.093,0.232,0.181,0.348,0.259
		c-1.991,1.748-2.586,3.646-2.741,4.318c-0.025,0.106-0.118,0.171-0.234,0.166c-0.034-0.004-0.066-0.016-0.094-0.035H47.676z
		 M51.42,54.019c0.481,0,0.872,0.39,0.872,0.87c0,0.481-0.39,0.87-0.872,0.87c-0.481,0-0.87-0.389-0.87-0.87
		C50.55,54.409,50.939,54.019,51.42,54.019z M51.905,56.475c0.481,0,0.872,0.39,0.872,0.871c0,0.481-0.39,0.871-0.872,0.871
		c-0.48,0-0.869-0.39-0.869-0.871C51.036,56.865,51.425,56.475,51.905,56.475z M56.586,50.033c0.001-0.012,0.005-0.022,0.006-0.034
		c0.014-0.003,0.031-0.003,0.045-0.007C56.62,50.006,56.602,50.018,56.586,50.033z M58.917,49.56c0.179,0.01,0.363,0.065,0.418,0.25
		c0.061,0.202-0.055,0.445-0.189,0.512c-0.537,0.264-0.946,0.705-1.182,1.276c-0.022,0.054-0.022,0.114,0.001,0.167
		c0.185,0.427,0.093,1.001-0.219,1.365c-0.258,0.3-0.616,0.41-1.018,0.305c-0.121-0.03-0.232,0.039-0.263,0.154
		s0.039,0.232,0.153,0.262c0.135,0.035,0.269,0.053,0.398,0.053c0.406,0,0.777-0.17,1.055-0.494
		c0.398-0.465,0.525-1.161,0.322-1.726c0.25-0.546,0.646-0.832,0.941-0.977c0.338-0.168,0.526-0.635,0.411-1.021
		c-0.006-0.021-0.017-0.049-0.03-0.08c1.911,0.31,2.234,2.063,2.234,3.158c0,1.203-0.368,3.221-2.833,3.221
		c-1.948,0-3.258-1.294-3.258-3.221C55.861,50.907,57.084,49.649,58.917,49.56z M55.447,52.941c0.008,0.199,0.018,0.398,0.052,0.585
		c-0.063-0.202-0.125-0.404-0.159-0.613L55.447,52.941z M55.583,53.829c-0.027-0.068-0.037-0.141-0.06-0.211
		C55.538,53.691,55.564,53.758,55.583,53.829z M62.546,58.305c-2.352-0.389-4.261-1.279-5.539-2.472
		c0.583,0.374,1.302,0.584,2.112,0.584c0.786,0,1.443-0.193,1.958-0.556c0.459,0.194,0.947,0.368,1.477,0.509v0.973v0.948
		L62.546,58.305z M60.926,49.584c-0.492-0.302-1.093-0.471-1.808-0.471c-0.061,0-0.116,0.013-0.176,0.015
		c-0.093-0.006-0.194-0.005-0.309,0.009c-0.015,0.002-0.023,0.016-0.038,0.021c-0.363,0.043-0.707,0.12-1.02,0.248
		c-0.435,0.042-0.861,0.112-1.253,0.215c-0.099,0.026-0.165,0.117-0.16,0.218c0.018,0.365-0.109,0.631-0.365,0.769
		c-0.307,0.162-0.738,0.116-1.052-0.113c-0.185-0.135-0.478-0.45-0.367-1.037c0.145-0.761,1.182-0.959,2.264-0.959
		c0.83,0,1.688,0.117,2.186,0.185l0.252,0.033c0.919,0.075,1.938-0.009,2.793-0.232c0.099-0.026,0.165-0.117,0.16-0.219
		c-0.014-0.27,0.051-0.483,0.189-0.634c0.085-0.092,0.199-0.159,0.331-0.196v2.088C62.053,49.613,61.474,49.615,60.926,49.584z
		 M60.349,48.293c-0.275,0.019-0.545,0.006-0.817-0.002c-0.135-0.004-0.276,0.01-0.408-0.001l-0.239-0.032
		c-0.069-0.009-0.146-0.02-0.223-0.03c-0.241-0.032-0.52-0.067-0.82-0.096c-0.087-5.407-1.334-12.508-3.013-14.792
		c2.182-1.09,3.644-2.994,4.267-4.642c0.597,1.604,1.87,3.153,3.458,4.177v1.998C61.331,37.871,60.404,43.553,60.349,48.293z
		 M56.609,44.347c-0.469,1.258-1.996,3.424-6.968,3.793c-5.036,0.376-8.719-0.789-10.351-3.275c-0.139-0.212-0.25-0.438-0.358-0.667
		c4.294-0.903,5.356-5.791,5.035-9.155c3.348-0.561,7.311-0.365,8.702,0.42c0.658,0.61,1.253,1.357,1.721,2.166
		c0.134,0.232,0.234,0.463,0.342,0.708c0.242,0.556,0.493,1.13,1.146,1.785C56.711,40.957,57.23,42.677,56.609,44.347z
		 M53.089,32.677c0.121-0.121,0.227-0.261,0.323-0.418c-0.059,0.161-0.122,0.318-0.177,0.484
		C53.187,32.721,53.141,32.699,53.089,32.677z M39.584,33.61c-0.107,0.058-0.205,0.12-0.305,0.182
		c-0.065-0.289-0.131-0.572-0.196-0.852C39.214,33.224,39.385,33.448,39.584,33.61z M36.429,44.462
		c0.046-0.012,0.089-0.03,0.136-0.041l1.908-0.001c0,0,0,0-0.001,0l-1.127,0c0.224,0.116,0.432,0.242,0.641,0.367
		c-0.111,0.101-0.211,0.206-0.305,0.321c-0.261,0.32-0.467,0.679-0.551,1.061c-0.127,0.58,0.017,1.106,0.396,1.445
		c0.417,0.374,1.295,0.687,3.115,0.135c-0.072,1.175,0.307,2.064,1.04,2.41c0.183,0.086,0.379,0.13,0.583,0.142
		c0.148,0.008,0.301-0.003,0.458-0.033c0.5,1.165,0.725,2.162,0.818,2.698c0.011,0.063-0.007,0.127-0.047,0.175
		c-0.041,0.049-0.102,0.077-0.165,0.077h-2.165c-0.024,0.018-0.052,0.029-0.081,0.033c-0.112,0.014-0.209-0.024-0.233-0.131
		c-0.585-2.522-3.012-5.678-8.068-7.002l-0.02,0.014c0.164-0.115,0.337-0.214,0.507-0.319C34.24,45.208,35.296,44.746,36.429,44.462
		z M31.737,46.936c0.023-0.021,0.046-0.041,0.07-0.061C31.782,46.895,31.76,46.915,31.737,46.936z M28.45,74.976
		c1.223-2.997,2.149-8.679,2.203-13.421c0.276-0.02,0.546-0.006,0.817,0.003c0.135,0.004,0.277-0.01,0.408,0.001l0.24,0.032
		c0.069,0.009,0.145,0.02,0.222,0.03c0.241,0.032,0.52,0.067,0.822,0.096c0.087,5.407,1.333,12.508,3.011,14.792
		c-2.18,1.09-3.642,2.995-4.266,4.644c-0.597-1.604-1.87-3.154-3.458-4.177V74.976z M34.394,65.502
		c0.469-1.258,1.996-3.424,6.969-3.793c0.619-0.046,1.217-0.068,1.793-0.068c4.12,0,7.125,1.163,8.557,3.344
		c0.139,0.212,0.25,0.438,0.358,0.667c-4.294,0.903-5.356,5.791-5.035,9.155c-3.348,0.561-7.31,0.365-8.702-0.42
		c-0.657-0.609-1.252-1.357-1.72-2.166c-0.136-0.233-0.237-0.466-0.345-0.712c-0.242-0.554-0.493-1.127-1.144-1.78
		C34.291,68.893,33.773,67.173,34.394,65.502z M37.909,77.176c-0.12,0.12-0.223,0.258-0.318,0.413
		c0.058-0.16,0.121-0.316,0.176-0.48C37.815,77.132,37.857,77.155,37.909,77.176z M51.421,76.23
		c0.104-0.057,0.205-0.116,0.302-0.176c0.063,0.28,0.127,0.553,0.189,0.825C51.786,76.612,51.617,76.391,51.421,76.23z
		 M54.574,65.387c-0.047,0.012-0.09,0.03-0.137,0.041l-1.908,0.001c0.001-0.001,0.002-0.001,0.003-0.001l1.126,0
		c-0.224-0.116-0.432-0.242-0.641-0.367c0.111-0.101,0.211-0.206,0.305-0.321c0.261-0.32,0.467-0.678,0.551-1.06
		c0.127-0.58-0.017-1.106-0.396-1.445c-0.419-0.375-1.295-0.689-3.114-0.135c0.071-1.176-0.307-2.065-1.041-2.411
		c-0.183-0.086-0.379-0.13-0.583-0.142c-0.148-0.009-0.301,0.002-0.458,0.032c-0.5-1.165-0.725-2.161-0.818-2.698
		c-0.011-0.063,0.007-0.127,0.047-0.175c0.041-0.049,0.102-0.077,0.165-0.077h2.166c0.024-0.018,0.052-0.029,0.081-0.033
		c0.113-0.012,0.209,0.025,0.234,0.132c0.581,2.522,3.006,5.677,8.067,7.002c0.001-0.001,0.003-0.002,0.004-0.003
		c-0.159,0.111-0.328,0.206-0.492,0.308C56.762,64.641,55.707,65.103,54.574,65.387z M59.268,62.912
		c-0.024,0.021-0.047,0.042-0.071,0.063C59.223,62.952,59.244,62.933,59.268,62.912z M53.755,31.393
		c0.098-0.602-0.077-1.132-0.495-1.333c-0.286-0.138-0.631-0.097-0.968,0.119c-0.306,0.194-0.576,0.513-0.761,0.898
		c-0.001,0-0.001,0-0.001,0c-0.19,0.397-0.252,0.797-0.216,1.141c-0.339-0.055-0.701-0.099-1.08-0.135
		c0.157-0.235,0.289-0.512,0.351-0.844c0.168-0.918-0.183-1.727-0.8-1.84c-0.616-0.114-1.232,0.514-1.404,1.433l-0.001,0
		c-0.079,0.43-0.04,0.832,0.083,1.154c-0.441-0.007-0.893-0.002-1.35,0.013c0.129-0.285,0.208-0.615,0.198-0.971
		c-0.012-0.427-0.128-0.829-0.328-1.131c-0.216-0.325-0.504-0.503-0.813-0.503c-0.008,0-0.016,0-0.022,0
		c-0.629,0.018-1.101,0.762-1.074,1.694c0.011,0.395,0.113,0.747,0.27,1.026c-0.439,0.044-0.873,0.1-1.303,0.166
		c0.099-0.294,0.14-0.635,0.095-0.99c-0.053-0.423-0.207-0.812-0.436-1.094c-0.252-0.311-0.572-0.457-0.881-0.421
		c-0.623,0.078-1.021,0.864-0.907,1.791c0.052,0.418,0.2,0.78,0.402,1.048c-0.421,0.102-0.818,0.222-1.202,0.35
		c0.064-0.306,0.071-0.645-0.016-0.99c-0.103-0.415-0.303-0.782-0.563-1.034c-0.287-0.279-0.619-0.39-0.925-0.312
		c-0.485,0.121-0.769,0.674-0.753,1.352c-0.459-1.87-0.947-3.475-1.62-4.601h19.145C55.3,28.486,54.428,29.832,53.755,31.393z
		 M28.747,59.855c-0.102,0.01-0.2,0.025-0.298,0.04v-0.636C28.55,59.457,28.64,59.664,28.747,59.855z M28.45,62.831
		c0.253-0.049,0.485-0.146,0.648-0.324c0.183-0.198,0.285-0.46,0.303-0.767c0.183-0.043,0.385-0.057,0.579-0.087
		c0.073,0.091,0.145,0.185,0.22,0.274c0.006,0.007,0.012,0.015,0.018,0.022c0,0.005,0,0.01,0,0.015
		c-0.088,4.066-0.798,8.729-1.767,11.74V62.831z M37.256,78.438c-0.051,0.299-0.044,0.587,0.041,0.827
		c0.087,0.246,0.241,0.427,0.446,0.524c0.11,0.053,0.229,0.08,0.354,0.08c0.197,0,0.406-0.066,0.613-0.198
		c0.306-0.194,0.576-0.513,0.761-0.898c0.001,0,0.001,0,0.001,0c0.18-0.378,0.258-0.78,0.223-1.136
		c0.331,0.053,0.685,0.096,1.054,0.131c-0.152,0.232-0.27,0.518-0.331,0.842c-0.169,0.918,0.182,1.728,0.799,1.841
		c0.049,0.009,0.098,0.014,0.146,0.014c0.177,0,0.356-0.06,0.524-0.175c0.357-0.246,0.631-0.72,0.731-1.27
		c0.077-0.415,0.047-0.825-0.077-1.155c0.142,0.002,0.282,0.007,0.426,0.007c0.296,0,0.6-0.011,0.902-0.021
		c-0.121,0.275-0.189,0.608-0.179,0.972c0.027,0.921,0.527,1.633,1.145,1.633c0.008,0,0.015,0,0.021,0
		c0.628-0.017,1.1-0.762,1.074-1.695c-0.01-0.384-0.117-0.736-0.281-1.025c0.44-0.044,0.875-0.099,1.306-0.165
		c-0.096,0.286-0.132,0.625-0.087,0.988c0.108,0.877,0.633,1.521,1.22,1.521c0.032,0,0.064-0.002,0.097-0.006
		c0.623-0.078,1.021-0.864,0.907-1.791c-0.052-0.424-0.202-0.787-0.408-1.055c0.417-0.101,0.816-0.215,1.197-0.342
		c-0.062,0.302-0.06,0.644,0.026,0.989c0.103,0.415,0.303,0.782,0.563,1.034c0.228,0.221,0.481,0.336,0.731,0.336
		c0.064,0,0.13-0.008,0.193-0.024c0.486-0.121,0.77-0.675,0.753-1.353c0.459,1.87,0.946,3.475,1.62,4.602H34.625
		C35.707,81.36,36.582,80.008,37.256,78.438z M62.255,49.995c0.102-0.01,0.2-0.025,0.298-0.04v0.636
		C62.453,50.393,62.363,50.186,62.255,49.995z M62.553,47.019c-0.253,0.048-0.484,0.146-0.647,0.323
		c-0.183,0.198-0.285,0.461-0.303,0.768c-0.183,0.043-0.386,0.057-0.58,0.087c-0.072-0.091-0.143-0.183-0.218-0.271
		c-0.007-0.008-0.013-0.017-0.02-0.025c0-0.006,0-0.011,0-0.017c0.089-4.065,0.798-8.727,1.768-11.737V47.019z M62.553,32.348
		c-1.603-1.111-2.835-2.77-3.247-4.419c-0.024-0.096-0.11-0.163-0.209-0.163s-0.185,0.067-0.209,0.163
		c-0.433,1.73-1.988,3.991-4.486,5.14c-0.062,0.028-0.106,0.084-0.12,0.15c-0.015,0.066,0.004,0.136,0.049,0.187
		c0.905,1.03,1.765,3.774,2.346,7.073c-0.149-0.25-0.312-0.478-0.494-0.661c-0.597-0.597-0.831-1.134-1.058-1.653
		c-0.106-0.245-0.217-0.499-0.362-0.751c-0.478-0.827-1.064-1.559-1.73-2.191c0.071-0.359,0.15-0.71,0.236-1.052
		c0.067-0.263,0.144-0.52,0.221-0.777c0.741-2.477,1.911-4.498,3.505-6.015h5.558V32.348z M36.718,27.378
		c1.025,1.539,1.658,4.349,2.327,7.329c0.114,0.51,0.231,1.029,0.351,1.551c-0.535,0.429-0.952,1.133-1.263,2.17
		c-0.395,1.313-1.48,2.062-2.344,2.062c-0.031,0-0.062-0.001-0.093-0.003c-0.268-0.017-0.731-0.134-0.829-0.724
		c-0.041-0.239,0.121-0.52,0.275-0.563c0.04-0.011,0.086-0.002,0.133,0.026c0.028,0.02,0.055,0.042,0.08,0.067
		c0.082,0.087,0.165,0.229,0.238,0.415c0.042,0.107,0.162,0.163,0.271,0.125c0.108-0.037,0.169-0.154,0.136-0.264
		c-0.186-0.626-0.711-0.988-1.334-0.894c-0.75,0.112-1.501,0.909-1.486,2.435c0.007,0.833,0.437,1.688,1.148,2.288
		c0.354,0.299,0.884,0.592,1.584,0.78c-1.195,0.349-2.314,0.858-3.321,1.549c-0.9,0.617-1.706,1.376-2.429,2.24
		c-0.653,0.781-1.225,1.658-1.713,2.624V27.378H36.718z M28.45,77.502c1.603,1.111,2.835,2.769,3.247,4.419
		c0.024,0.096,0.11,0.163,0.209,0.163c0.099,0,0.185-0.067,0.209-0.163c0.434-1.731,1.989-3.992,4.485-5.141
		c0.062-0.028,0.106-0.084,0.12-0.15c0.015-0.066-0.004-0.136-0.049-0.187c-0.904-1.03-1.763-3.774-2.345-7.072
		c0.149,0.25,0.312,0.479,0.494,0.661c0.594,0.596,0.828,1.131,1.054,1.649c0.108,0.246,0.22,0.501,0.366,0.755
		c0.471,0.815,1.07,1.566,1.729,2.191c-0.072,0.362-0.151,0.716-0.238,1.061c-0.059,0.23-0.127,0.454-0.193,0.679
		c-0.74,2.52-1.918,4.571-3.529,6.105H28.45V77.502z M54.285,82.472c-1.025-1.539-1.657-4.346-2.325-7.322
		c-0.115-0.512-0.232-1.033-0.353-1.558c0.535-0.43,0.953-1.134,1.264-2.171c0.409-1.36,1.566-2.111,2.436-2.059
		c0.269,0.017,0.732,0.134,0.83,0.723c0.039,0.24-0.123,0.521-0.277,0.564c-0.04,0.009-0.085,0.002-0.131-0.025
		c-0.029-0.021-0.057-0.044-0.082-0.069c-0.082-0.087-0.164-0.229-0.237-0.414c-0.042-0.107-0.16-0.163-0.271-0.124
		c-0.108,0.037-0.169,0.154-0.136,0.264c0.186,0.626,0.731,0.984,1.333,0.893c0.75-0.113,1.501-0.909,1.486-2.434
		c-0.007-0.832-0.436-1.688-1.146-2.288c-0.352-0.297-0.857-0.603-1.552-0.791c1.181-0.349,2.288-0.854,3.286-1.538
		c0.9-0.617,1.707-1.377,2.43-2.241c0.653-0.781,1.225-1.658,1.712-2.622v23.213H54.285z"/>
	<path class="st0" d="M44.302,78.806c0.008,0.293,0.242,0.524,0.524,0.516c0.281-0.007,0.502-0.252,0.493-0.544
		c-0.007-0.294-0.242-0.525-0.521-0.517C44.516,78.27,44.294,78.513,44.302,78.806z"/>
	<path class="st0" d="M48.046,78.948c0.278-0.035,0.474-0.298,0.439-0.588c-0.035-0.291-0.292-0.499-0.57-0.464
		c-0.278,0.035-0.475,0.298-0.439,0.589C47.511,78.776,47.767,78.983,48.046,78.948z"/>
	<path class="st0" d="M51.122,78.122c0.271-0.068,0.436-0.353,0.365-0.638c-0.071-0.284-0.349-0.46-0.621-0.391
		c-0.274,0.067-0.438,0.352-0.366,0.636C50.571,78.014,50.85,78.189,51.122,78.122z"/>
	<path class="st0" d="M41.02,78.722c-0.054,0.289,0.128,0.563,0.404,0.614c0.275,0.051,0.543-0.14,0.598-0.429
		c0.052-0.287-0.129-0.563-0.404-0.614C41.34,78.242,41.073,78.435,41.02,78.722z"/>
	<path class="st0" d="M38.233,78.767c0.254,0.12,0.562,0.006,0.689-0.258c0.127-0.265,0.023-0.577-0.23-0.697
		c-0.253-0.122-0.561-0.006-0.688,0.257C37.877,78.334,37.98,78.645,38.233,78.767z"/>
	<path class="st1" d="M44.598,76.526c0-0.407-0.33-0.736-0.736-0.736s-0.736,0.329-0.736,0.736c0,0.406,0.33,0.735,0.736,0.735
		S44.598,76.932,44.598,76.526z"/>
	<path class="st1" d="M47.295,75.455c-0.407,0-0.736,0.33-0.736,0.735c0,0.407,0.328,0.736,0.736,0.736
		c0.405,0,0.735-0.33,0.735-0.736C48.03,75.784,47.7,75.455,47.295,75.455z"/>
	<circle class="st1" cx="40.537" cy="76.404" r="0.735"/>
	<path class="st5" d="M26.331,30.061l-1.494-3.145l0.672-0.982c0.645-0.954,0.978-1.254,1.459-1.309v-0.236h-1.874v0.236
		c0.374,0.036,0.503,0.136,0.503,0.391c0,0.218-0.122,0.481-0.421,0.927l-1.405,2.1v-2.472c0-0.827,0.054-0.918,0.584-0.946v-0.236
		h-2.051v0.236c0.529,0.027,0.584,0.119,0.584,0.946v4.436c0,0.837-0.055,0.918-0.611,0.946v0.236h2.105v-0.236
		c-0.557-0.027-0.611-0.109-0.611-0.946v-1.509l0.475-0.718l1.134,2.527c0.279,0.609,0.279,0.609,0.367,0.882h1.426v-0.227
		C26.847,30.916,26.623,30.679,26.331,30.061z"/>
	<path d="M32.978,35.267c-0.105,0.988-0.563,2.491-1.493,2.85h3.413c-0.928-0.359-1.388-1.863-1.493-2.85
		c1.136,2.239,4.198,1.404,4.198-1.13c0-1.774-1.184-2.952-2.43-4.067c-0.624-0.558-1.45-1.303-1.981-2.085
		c-0.532,0.782-1.359,1.527-1.982,2.085c-1.245,1.115-2.43,2.293-2.43,4.067C28.779,36.671,31.839,37.506,32.978,35.267z"/>
	<path d="M58.066,74.511c0.105-0.987,0.563-2.491,1.492-2.85h-3.412c0.929,0.359,1.387,1.863,1.493,2.85
		c-1.137-2.239-4.199-1.404-4.199,1.129c0,1.775,1.185,2.953,2.43,4.068c0.624,0.557,1.451,1.302,1.982,2.085
		c0.53-0.782,1.357-1.527,1.981-2.085c1.244-1.115,2.43-2.293,2.43-4.068C62.263,73.107,59.203,72.272,58.066,74.511z"/>
	<path d="M25.589,34.092c-0.328-0.294-0.765-0.687-1.046-1.1c-0.281,0.413-0.717,0.806-1.047,1.1
		c-0.657,0.589-1.282,1.211-1.282,2.148c0,1.338,1.616,1.779,2.216,0.596c-0.055,0.521-0.298,1.316-0.788,1.506h1.802
		c-0.49-0.19-0.733-0.984-0.789-1.506c0.601,1.183,2.217,0.742,2.217-0.596C26.872,35.303,26.247,34.681,25.589,34.092z"/>
	<path class="st5" d="M66.659,78.825c0.557,0.027,0.611,0.109,0.611,0.946v1.508l-0.475,0.718l-1.134-2.527
		c-0.279-0.609-0.279-0.609-0.367-0.882h-1.426v0.227c0.326,0.046,0.55,0.282,0.842,0.9l1.494,3.145l-0.672,0.982
		c-0.645,0.954-0.978,1.254-1.459,1.309v0.236h1.874v-0.236c-0.374-0.036-0.503-0.136-0.503-0.391c0-0.218,0.122-0.481,0.421-0.927
		l1.405-2.1v2.472c0,0.827-0.054,0.918-0.584,0.946v0.236h2.051v-0.236c-0.529-0.027-0.584-0.119-0.584-0.946V79.77
		c0-0.837,0.055-0.918,0.611-0.946v-0.236h-2.105V78.825z"/>
	<path d="M66.613,72.942c0.056-0.521,0.298-1.315,0.788-1.505h-1.802c0.492,0.189,0.733,0.983,0.789,1.505
		c-0.601-1.182-2.216-0.741-2.216,0.597c0,0.936,0.624,1.559,1.281,2.147c0.33,0.295,0.767,0.688,1.048,1.101
		c0.279-0.413,0.716-0.806,1.046-1.101c0.657-0.588,1.282-1.211,1.282-2.147C68.829,72.201,67.213,71.76,66.613,72.942z"/>
</g>
</svg>
