<?xml version="1.0" encoding="utf-8"?>
<!-- Generator: Adobe Illustrator 23.0.2, SVG Export Plug-In . SVG Version: 6.00 Build 0)  -->
<svg version="1.1" id="Layer_1" xmlns="http://www.w3.org/2000/svg" xmlns:xlink="http://www.w3.org/1999/xlink" x="0px" y="0px"
	 viewBox="0 0 82.452 99.776" style="enable-background:new 0 0 82.452 99.776;" xml:space="preserve">
<style type="text/css">
	.st0{fill:#FFFFFF;}
	.st1{fill:#ED1C24;}
	.st2{fill:#FFCB05;}
	.st3{fill:#21409A;}
	.st4{fill:#D4D5D6;}
	.st5{fill:#000100;}
	.st6{fill:#300505;}
	.st7{fill:#BFD730;}
	.st8{fill:#F15A22;}
</style>
<g>
	<path class="st0" d="M58.844,42.847c-0.017,0-0.035,0.001-0.052,0.001c-0.008,0-0.016-0.001-0.024-0.001
		c0.482,0.641,0.91,1.343,1.289,2.095v-1.608C59.65,43.18,59.245,43.018,58.844,42.847z"/>
	<path class="st0" d="M60.058,53.612c-0.325,0.644-0.675,1.262-1.075,1.825c0.557,0.514,0.909,1.288,1.075,2.289V53.612z"/>
	<path class="st0" d="M53.111,24.823c0.15,0.508,0.275,1.104,0.408,1.733c0.473,2.254,1.046,4.937,3.163,6.489
		c0.232,0.171,0.483,0.329,0.748,0.468c0.003,0.002,0.004,0.005,0.007,0.007c0.387,0.2,0.815,0.369,1.291,0.499
		c0.095,0.026,0.16,0.113,0.158,0.211s-0.069,0.183-0.165,0.206l-1.375,0.328c0,0,0,0-0.001,0l-0.41,0.098l-2.379,0.568l-1.216,0.29
		c2.552,1.863,4.865,2.782,6.719,3.359V21.73h-8.962C52.057,22.526,52.731,23.534,53.111,24.823z"/>
	<path class="st0" d="M32.902,73.731c-0.149-0.508-0.274-1.103-0.407-1.732c-0.474-2.255-1.046-4.94-3.165-6.492
		c-0.236-0.173-0.487-0.331-0.745-0.467c-0.003-0.001-0.003-0.004-0.006-0.006c-0.388-0.201-0.817-0.37-1.294-0.5
		c-0.095-0.026-0.16-0.113-0.158-0.211c0.001-0.098,0.069-0.183,0.165-0.206l3.903-0.931l1.48-0.353
		c-2.553-1.864-4.866-2.782-6.719-3.359v17.35h8.962C33.956,76.028,33.282,75.02,32.902,73.731z"/>
	<path class="st0" d="M26.134,39.08c0.87,0.347,1.92,0.935,2.542,2.151c0.038-0.036,0.071-0.078,0.109-0.113V38.89
		c-0.556,0.175-1.189,0.045-1.631-0.396c-0.306-0.306-0.474-0.712-0.474-1.144c0-0.364,0.119-0.709,0.34-0.992
		c-0.221-0.282-0.34-0.627-0.34-0.991c0-0.432,0.168-0.838,0.474-1.144c0.584-0.581,1.504-0.625,2.136-0.134
		c0.634-0.492,1.553-0.447,2.135,0.134c0.085,0.085,0.157,0.18,0.22,0.279c0.56-0.586,1.216-1.123,1.975-1.605
		c0.118-0.555,0.256-1.084,0.418-1.552c0.062-0.505,0.155-0.987,0.279-1.447c-0.58,0.409-1.353,0.511-2.041,0.185
		c-0.44-0.209-0.771-0.555-0.964-0.964h-0.001c-0.001-0.005-0.005-0.01-0.007-0.015l-0.419-0.857v0.965
		c0,0.914,0.447,2.845,1.517,3.259h-3.415c1.07-0.414,1.518-2.345,1.518-3.259v-0.965l-0.421,0.857
		c-0.001,0.005-0.005,0.009-0.007,0.015c-0.194,0.408-0.524,0.755-0.964,0.964c-1.015,0.481-2.229,0.049-2.709-0.966
		c-0.481-1.015-0.049-2.227,0.966-2.709c0.44-0.209,0.917-0.245,1.356-0.137l0.001,0c0.005,0.001,0.01,0.003,0.015,0.004
		l1.069,0.249l-0.683-0.859c-0.003-0.004-0.007-0.008-0.009-0.013l-0.001,0c-0.286-0.35-0.457-0.798-0.457-1.284
		c0-1.123,0.91-2.033,2.034-2.033s2.034,0.911,2.034,2.033c0,0.487-0.172,0.934-0.457,1.284l-0.001,0
		c-0.002,0.004-0.006,0.008-0.009,0.013l-0.684,0.859l1.07-0.249c0.005-0.001,0.01-0.003,0.016-0.004v0
		c0.439-0.108,0.917-0.072,1.356,0.137c0.622,0.295,1.023,0.866,1.131,1.497c0.875-1.541,2.198-2.65,3.874-3.218
		c-0.096-0.169-0.194-0.338-0.28-0.5c-0.053-0.101-0.019-0.225,0.078-0.284l1.534-0.939c0,0,0.001,0,0.001,0l1.333-0.816
		c0,0,0,0,0.001,0l0.681-0.417H25.955v17.369C26.009,39.069,26.074,39.056,26.134,39.08z"/>
	<path class="st0" d="M27.223,55.728c0.013,0,0.026,0,0.039,0c-0.489-0.648-0.923-1.356-1.308-2.117v1.608
		C26.382,55.38,26.805,55.549,27.223,55.728z"/>
	<path class="st0" d="M21.593,23.895c-0.245,0-0.394,0.218-0.441,0.664c0.068,0.282,0.122,0.409,0.265,0.554
		c0.197,0.218,0.462,0.336,0.734,0.336c0.17,0,0.326-0.036,0.489-0.128c-0.238-0.554-0.306-0.691-0.448-0.936
		C21.994,24.041,21.811,23.895,21.593,23.895z"/>
	<path class="st0" d="M23.243,19.814c-0.224-0.618-0.625-0.963-1.121-0.963c-0.455,0-0.821,0.3-1.032,0.845
		c-0.237,0.609-0.36,1.445-0.36,2.454c0,0.573,0.048,1.118,0.129,1.491c0.007,0.027,0.047,0.2,0.115,0.463
		c0.014,0.036,0.027,0.082,0.041,0.155c0.122-0.654,0.441-1.018,0.896-1.018c0.489,0,0.862,0.391,1.297,1.354
		c0.123-0.363,0.17-0.518,0.21-0.691c0.088-0.4,0.143-1.055,0.143-1.718C23.562,21.214,23.454,20.414,23.243,19.814z"/>
	<path class="st0" d="M25.955,44.943c0.325-0.644,0.676-1.263,1.076-1.826c-0.558-0.516-0.91-1.292-1.076-2.298V44.943z"/>
	<path class="st0" d="M64.461,74.587c0.245,0,0.394-0.218,0.441-0.664c-0.068-0.282-0.122-0.409-0.265-0.554
		c-0.197-0.218-0.462-0.337-0.733-0.337c-0.17,0-0.326,0.036-0.489,0.127c0.238,0.555,0.306,0.691,0.448,0.936
		C64.06,74.442,64.243,74.587,64.461,74.587z"/>
	<path class="st0" d="M64.648,14.995H21.407c-1.564,0-2.837,1.272-2.837,2.836v62.82c0,1.564,1.272,2.836,2.837,2.836h43.241
		c1.563,0,2.835-1.272,2.835-2.836v-62.82C67.483,16.268,66.212,14.995,64.648,14.995z M24.313,30.924
		c-0.253,0.536-0.894,0.764-1.43,0.51c-0.233-0.11-0.407-0.293-0.509-0.509h-0.001c0-0.003-0.001-0.005-0.002-0.008l-0.222-0.452
		v0.51c0,0.482,0.237,1.502,0.802,1.72h-1.802c0.564-0.218,0.801-1.238,0.801-1.72v-0.51l-0.222,0.452
		c-0.001,0.002-0.002,0.005-0.003,0.008c-0.103,0.216-0.277,0.399-0.509,0.509c-0.536,0.254-1.177,0.025-1.43-0.51
		c-0.254-0.536-0.026-1.177,0.51-1.43c0.233-0.11,0.484-0.129,0.715-0.072h0.001c0.003,0.001,0.006,0.001,0.008,0.001l0.565,0.132
		l-0.36-0.454c-0.002-0.002-0.005-0.004-0.006-0.006l-0.001,0c-0.149-0.186-0.241-0.421-0.241-0.678c0-0.593,0.48-1.074,1.073-1.074
		s1.075,0.481,1.075,1.074c0,0.257-0.091,0.492-0.242,0.678v0c-0.002,0.002-0.003,0.004-0.005,0.006l-0.362,0.454l0.565-0.132
		c0.002-0.001,0.006-0.001,0.008-0.001c0.232-0.057,0.484-0.038,0.716,0.072C24.34,29.747,24.567,30.388,24.313,30.924z
		 M23.705,26.295c-0.373,0-0.638-0.2-0.944-0.718c-0.224,0.082-0.38,0.109-0.611,0.109c-0.706,0-1.311-0.318-1.732-0.927
		c-0.435-0.609-0.659-1.473-0.659-2.536c0-1.063,0.211-1.963,0.618-2.609c0.408-0.664,1.025-1.009,1.773-1.009
		c1.467,0,2.383,1.327,2.383,3.445c0,0.936-0.156,1.727-0.469,2.363c-0.149,0.318-0.292,0.509-0.557,0.763
		c0.245,0.427,0.469,0.618,0.72,0.618c0.143,0,0.306-0.054,0.489-0.173l0.041,0.209C24.391,26.15,24.065,26.295,23.705,26.295z
		 M60.488,39.374v2.893v0.921v2.676v0.005v0.733V48v3.657v1.032v24.349c0,0.119-0.096,0.215-0.215,0.215H42.878h-7.354H25.74
		c-0.119,0-0.215-0.096-0.215-0.215V59.18v-2.893v-0.921v-2.676v-0.006v-0.733v-1.397v-3.658v-1.031v-24.35
		c0-0.119,0.096-0.215,0.215-0.215h17.396h7.354h9.783c0.119,0,0.215,0.096,0.215,0.215V39.374z M65.677,78.869
		c-0.408,0.664-1.026,1.009-1.773,1.009c-1.467,0-2.383-1.327-2.383-3.445c0-0.936,0.156-1.727,0.469-2.363
		c0.149-0.318,0.292-0.509,0.557-0.764c-0.245-0.427-0.469-0.618-0.72-0.618c-0.143,0-0.306,0.055-0.489,0.173l-0.041-0.209
		c0.367-0.318,0.693-0.464,1.053-0.464c0.373,0,0.638,0.2,0.944,0.718c0.224-0.082,0.38-0.109,0.611-0.109
		c0.706,0,1.311,0.318,1.732,0.927c0.435,0.609,0.659,1.472,0.659,2.536C66.294,77.323,66.084,78.223,65.677,78.869z M65.76,68.989
		c-0.232,0.11-0.485,0.129-0.715,0.072h-0.001c-0.002-0.001-0.005-0.001-0.008-0.001l-0.565-0.132l0.362,0.454
		c0.002,0.002,0.003,0.004,0.005,0.006l0.001,0c0.151,0.186,0.241,0.421,0.241,0.678c0,0.593-0.48,1.074-1.073,1.074
		c-0.593,0-1.075-0.481-1.075-1.074c0-0.257,0.091-0.493,0.242-0.678v0c0.002-0.002,0.005-0.004,0.006-0.006l0.362-0.454
		l-0.565,0.132c-0.002,0-0.006,0-0.009,0.001c-0.232,0.057-0.484,0.038-0.716-0.072c-0.536-0.254-0.764-0.894-0.51-1.43
		c0.254-0.536,0.894-0.764,1.432-0.51c0.232,0.11,0.406,0.293,0.508,0.509h0.001c0,0.003,0.001,0.006,0.003,0.008l0.221,0.453v-0.51
		c0-0.482-0.237-1.501-0.802-1.72h1.803c-0.565,0.219-0.802,1.239-0.802,1.72v0.51l0.222-0.453c0.002-0.002,0.003-0.005,0.003-0.008
		c0.103-0.215,0.277-0.399,0.51-0.509c0.536-0.254,1.176-0.026,1.43,0.51C66.525,68.095,66.297,68.735,65.76,68.989z"/>
	<path class="st0" d="M65.079,74.378c-0.014-0.036-0.027-0.082-0.041-0.155c-0.122,0.654-0.441,1.018-0.896,1.018
		c-0.489,0-0.862-0.391-1.297-1.355c-0.123,0.364-0.17,0.518-0.21,0.691c-0.088,0.4-0.143,1.054-0.143,1.718
		c0,0.973,0.108,1.773,0.319,2.373c0.224,0.618,0.625,0.964,1.121,0.964c0.455,0,0.821-0.3,1.032-0.846
		c0.237-0.609,0.36-1.445,0.36-2.454c0-0.573-0.048-1.118-0.129-1.491C65.187,74.815,65.147,74.642,65.079,74.378z"/>
	<path class="st0" d="M59.96,59.489c-0.027,0-0.054-0.005-0.079-0.015c-0.871-0.347-1.921-0.935-2.544-2.152
		c-0.038,0.035-0.071,0.078-0.109,0.112v2.229c0.558-0.175,1.191-0.045,1.631,0.395c0.581,0.583,0.626,1.501,0.134,2.135
		c0.492,0.634,0.447,1.553-0.134,2.135c-0.582,0.583-1.501,0.626-2.136,0.135c-0.291,0.226-0.642,0.338-0.992,0.338
		c-0.414,0-0.828-0.157-1.144-0.472c0,0,0,0,0,0c-0.088-0.088-0.139-0.195-0.203-0.296c-0.563,0.593-1.225,1.135-1.991,1.621
		c-0.118,0.555-0.256,1.085-0.418,1.553c-0.059,0.485-0.148,0.95-0.264,1.393c0.583-0.424,1.368-0.533,2.065-0.203
		c0.44,0.209,0.77,0.556,0.963,0.964h0.001c0.002,0.005,0.005,0.01,0.007,0.015l0.42,0.856v-0.965c0-0.914-0.448-2.845-1.517-3.259
		h3.414c-1.069,0.414-1.517,2.345-1.517,3.259v0.965l0.421-0.856c0.001-0.005,0.005-0.009,0.007-0.015
		c0.194-0.408,0.524-0.755,0.964-0.964c1.015-0.481,2.229-0.048,2.709,0.966c0.481,1.015,0.049,2.227-0.966,2.709
		c-0.44,0.209-0.918,0.245-1.356,0.137l-0.001,0c-0.005-0.001-0.01-0.002-0.015-0.004l-1.07-0.249l0.684,0.86
		c0.002,0.004,0.006,0.008,0.009,0.012l0.001,0.001c0.285,0.35,0.457,0.797,0.457,1.284c0,1.123-0.91,2.034-2.034,2.034
		c-1.124,0-2.034-0.911-2.034-2.034c0-0.487,0.172-0.934,0.457-1.284l0.001-0.001c0.003-0.004,0.006-0.008,0.009-0.012l0.684-0.86
		l-1.07,0.249c-0.006,0.001-0.01,0.002-0.016,0.004l-0.001,0c-0.437,0.108-0.916,0.072-1.356-0.137
		c-0.622-0.295-1.022-0.866-1.13-1.497c-0.874,1.578-2.211,2.713-3.913,3.29c0.097,0.168,0.194,0.338,0.28,0.5
		c0.053,0.101,0.019,0.225-0.078,0.284l-3.551,2.172h16.417V59.459C60.027,59.476,59.994,59.489,59.96,59.489z"/>
	<path d="M64.648,14.565H21.407c-1.802,0-3.267,1.465-3.267,3.266v62.82c0,1.801,1.465,3.266,3.267,3.266h43.241
		c1.8,0,3.265-1.465,3.265-3.266v-62.82C67.913,16.03,66.448,14.565,64.648,14.565z M67.483,80.651c0,1.564-1.271,2.836-2.835,2.836
		H21.407c-1.564,0-2.837-1.272-2.837-2.836v-62.82c0-1.563,1.272-2.836,2.837-2.836h43.241c1.563,0,2.835,1.272,2.835,2.836V80.651z
		"/>
	<path d="M23.803,29.493c-0.233-0.11-0.485-0.129-0.716-0.072c-0.002,0.001-0.006,0.001-0.008,0.001l-0.565,0.132l0.362-0.454
		c0.001-0.002,0.002-0.004,0.005-0.006v0c0.151-0.186,0.242-0.421,0.242-0.678c0-0.593-0.481-1.074-1.075-1.074
		s-1.073,0.481-1.073,1.074c0,0.257,0.091,0.492,0.241,0.678l0.001,0c0.001,0.002,0.003,0.004,0.006,0.006l0.36,0.454l-0.565-0.132
		c-0.002-0.001-0.005-0.001-0.008-0.001h-0.001c-0.232-0.057-0.482-0.038-0.715,0.072c-0.536,0.253-0.764,0.894-0.51,1.43
		c0.253,0.536,0.894,0.764,1.43,0.51c0.232-0.11,0.406-0.293,0.509-0.509c0.001-0.003,0.002-0.005,0.003-0.008l0.222-0.452v0.51
		c0,0.482-0.237,1.502-0.801,1.72h1.802c-0.565-0.218-0.802-1.238-0.802-1.72v-0.51l0.222,0.452
		c0.001,0.002,0.002,0.005,0.002,0.008h0.001c0.102,0.216,0.276,0.399,0.509,0.509c0.536,0.254,1.177,0.025,1.43-0.51
		C24.567,30.388,24.34,29.747,23.803,29.493z"/>
	<path class="st5" d="M24.228,25.795c-0.251,0-0.475-0.191-0.72-0.618c0.265-0.254,0.407-0.445,0.557-0.763
		c0.313-0.636,0.469-1.427,0.469-2.363c0-2.118-0.917-3.445-2.383-3.445c-0.747,0-1.365,0.345-1.773,1.009
		c-0.407,0.645-0.618,1.545-0.618,2.609c0,1.063,0.224,1.927,0.659,2.536c0.421,0.609,1.025,0.927,1.732,0.927
		c0.231,0,0.387-0.027,0.611-0.109c0.306,0.518,0.571,0.718,0.944,0.718c0.36,0,0.686-0.145,1.053-0.463l-0.041-0.209
		C24.534,25.741,24.37,25.795,24.228,25.795z M22.15,25.45c-0.271,0-0.537-0.118-0.734-0.336c-0.143-0.145-0.197-0.273-0.265-0.554
		c0.047-0.445,0.197-0.664,0.441-0.664c0.217,0,0.4,0.145,0.597,0.491c0.143,0.246,0.21,0.382,0.448,0.936
		C22.476,25.413,22.32,25.45,22.15,25.45z M23.209,24.595c-0.435-0.963-0.808-1.354-1.297-1.354c-0.455,0-0.774,0.364-0.896,1.018
		c-0.014-0.073-0.027-0.118-0.041-0.155c-0.068-0.263-0.108-0.436-0.115-0.463c-0.081-0.373-0.129-0.918-0.129-1.491
		c0-1.009,0.123-1.845,0.36-2.454c0.211-0.545,0.577-0.845,1.032-0.845c0.496,0,0.897,0.345,1.121,0.963
		c0.21,0.6,0.319,1.4,0.319,2.373c0,0.663-0.054,1.318-0.143,1.718C23.379,24.077,23.332,24.232,23.209,24.595z"/>
	<path d="M64.841,67.049c-0.233,0.11-0.407,0.293-0.51,0.509c0,0.003-0.001,0.006-0.003,0.008l-0.222,0.453v-0.51
		c0-0.482,0.237-1.501,0.802-1.72h-1.803c0.565,0.219,0.802,1.239,0.802,1.72v0.51l-0.221-0.453
		c-0.002-0.002-0.003-0.005-0.003-0.008h-0.001c-0.102-0.215-0.276-0.399-0.508-0.509c-0.537-0.254-1.177-0.026-1.432,0.51
		c-0.254,0.536-0.026,1.177,0.51,1.43c0.233,0.11,0.485,0.129,0.716,0.072c0.003-0.001,0.007-0.001,0.009-0.001l0.565-0.132
		l-0.362,0.454c-0.001,0.002-0.003,0.004-0.006,0.006v0c-0.151,0.186-0.242,0.421-0.242,0.678c0,0.593,0.481,1.074,1.075,1.074
		c0.593,0,1.073-0.481,1.073-1.074c0-0.257-0.09-0.493-0.241-0.678l-0.001,0c-0.001-0.002-0.002-0.004-0.005-0.006l-0.362-0.454
		l0.565,0.132c0.003,0,0.006,0,0.008,0.001h0.001c0.23,0.057,0.484,0.038,0.715-0.072c0.537-0.254,0.765-0.894,0.511-1.43
		C66.017,67.023,65.377,66.795,64.841,67.049z"/>
	<path class="st5" d="M63.904,72.797c-0.231,0-0.387,0.027-0.611,0.109c-0.306-0.518-0.571-0.718-0.944-0.718
		c-0.36,0-0.686,0.145-1.053,0.464l0.041,0.209c0.183-0.118,0.346-0.173,0.489-0.173c0.251,0,0.475,0.191,0.72,0.618
		c-0.265,0.255-0.407,0.445-0.557,0.764c-0.313,0.636-0.469,1.427-0.469,2.363c0,2.118,0.917,3.445,2.383,3.445
		c0.747,0,1.365-0.345,1.773-1.009c0.407-0.645,0.618-1.545,0.618-2.609c0-1.064-0.224-1.927-0.659-2.536
		C65.215,73.115,64.61,72.797,63.904,72.797z M63.904,73.033c0.271,0,0.537,0.118,0.733,0.337c0.143,0.145,0.197,0.273,0.265,0.554
		c-0.047,0.445-0.197,0.664-0.441,0.664c-0.217,0-0.4-0.145-0.597-0.491c-0.143-0.245-0.21-0.382-0.448-0.936
		C63.579,73.069,63.734,73.033,63.904,73.033z M64.964,78.787c-0.211,0.546-0.577,0.846-1.032,0.846
		c-0.496,0-0.897-0.346-1.121-0.964c-0.211-0.6-0.319-1.4-0.319-2.373c0-0.664,0.054-1.318,0.143-1.718
		c0.041-0.173,0.088-0.327,0.21-0.691c0.435,0.964,0.808,1.355,1.297,1.355c0.455,0,0.774-0.364,0.896-1.018
		c0.014,0.073,0.027,0.118,0.041,0.155c0.068,0.264,0.108,0.436,0.115,0.463c0.082,0.373,0.129,0.918,0.129,1.491
		C65.324,77.342,65.201,78.178,64.964,78.787z"/>
	<path class="st1" d="M31.809,37.805c-0.037,0.125-0.088,0.241-0.156,0.356c-0.143,0.372-0.252,0.766-0.326,1.181
		c0.747-0.385,1.546-0.677,2.377-0.897c-0.249-0.864-0.372-1.769-0.38-2.67C32.702,36.313,32.179,36.998,31.809,37.805z"/>
	<path class="st1" d="M54.204,60.751c0.037-0.127,0.089-0.245,0.157-0.361c0.143-0.371,0.252-0.765,0.326-1.179
		c-0.747,0.385-1.545,0.677-2.377,0.897c0.249,0.864,0.372,1.768,0.38,2.669C53.311,62.241,53.834,61.557,54.204,60.751z"/>
	<path class="st1" d="M55.075,55.015c0.093-0.048,0.197-0.08,0.297-0.119c-0.067-0.021-0.134-0.04-0.199-0.064
		c-0.187-0.07-0.359-0.161-0.526-0.259c-0.147-0.085-0.282-0.183-0.412-0.289c-0.116-0.093-0.23-0.186-0.332-0.293
		c-0.074-0.079-0.14-0.166-0.207-0.253c-0.109-0.14-0.205-0.288-0.292-0.445c-0.026-0.047-0.063-0.084-0.087-0.133
		c-0.006-0.013,0.001-0.026-0.002-0.039c-0.096-0.201-0.173-0.415-0.232-0.64l-1.024,0.275
		C52.771,53.652,53.793,54.42,55.075,55.015z"/>
	<path class="st1" d="M30.939,43.539c-0.093,0.048-0.198,0.08-0.298,0.119c0.067,0.021,0.135,0.04,0.2,0.064
		c0.19,0.071,0.364,0.163,0.534,0.262c0.143,0.083,0.274,0.18,0.402,0.282c0.117,0.094,0.233,0.188,0.336,0.297
		c0.073,0.078,0.138,0.163,0.203,0.248c0.111,0.143,0.21,0.294,0.298,0.455c0.024,0.045,0.06,0.08,0.083,0.126
		c0.006,0.012-0.001,0.024,0.002,0.037c0.097,0.202,0.173,0.416,0.233,0.642l1.023-0.275C33.242,44.902,32.22,44.134,30.939,43.539z
		"/>
	<path class="st1" d="M60.058,51.872h-0.201c-0.108,1.512-0.762,2.55-1.885,2.983c0.241,0.084,0.461,0.195,0.662,0.329
		c0.546-0.769,1.024-1.616,1.424-2.539V51.872z"/>
	<path class="st1" d="M51.384,51.682l1.009-0.271c0.149-1.241,0.766-2.372,1.76-3.317c-0.889,0.585-1.967,1.066-3.246,1.378
		c-0.001,0.03-0.005,0.062-0.005,0.092C50.902,50.31,51.07,51.02,51.384,51.682z"/>
	<path class="st1" d="M25.955,46.681h0.202c0.108-1.512,0.763-2.549,1.886-2.982c-0.241-0.084-0.461-0.195-0.663-0.33
		c-0.546,0.769-1.025,1.617-1.425,2.54V46.681z"/>
	<path class="st1" d="M40.573,51.411h-1.859c-0.518,1.915-2.028,4.123-4.81,5.689c0.831,0.391,1.578,0.849,2.248,1.359
		C39.306,56.128,40.291,52.81,40.573,51.411z"/>
	<path class="st1" d="M28.504,55.76c0.011-1.31,0.705-2.995,2.199-4.393c-1.218,0.793-2.764,1.378-4.545,1.687
		c0.464,0.986,1.02,1.879,1.657,2.677C28.047,55.738,28.279,55.745,28.504,55.76z"/>
	<path class="st1" d="M45.44,47.142h1.86c0.519-1.914,2.027-4.12,4.807-5.686c-0.831-0.392-1.579-0.849-2.248-1.359
		C46.71,42.426,45.722,45.743,45.44,47.142z"/>
	<path class="st1" d="M57.508,42.789c-0.01,1.311-0.704,2.999-2.201,4.4c1.218-0.794,2.766-1.379,4.548-1.69
		c-0.464-0.987-1.021-1.88-1.657-2.678C57.965,42.814,57.734,42.804,57.508,42.789z"/>
	<path class="st1" d="M34.629,46.872l-1.009,0.271c-0.149,1.24-0.765,2.371-1.758,3.315c0.888-0.584,1.965-1.064,3.243-1.375
		c0.001-0.031,0.005-0.062,0.005-0.092C35.111,48.244,34.943,47.533,34.629,46.872z"/>
	<path class="st1" d="M30.573,40.285c-0.268,0.175-0.524,0.367-0.778,0.565v0.208h0.188C30.155,40.757,30.358,40.509,30.573,40.285z
		"/>
	<path class="st1" d="M34.389,40.118c-0.235-0.402-0.413-0.83-0.565-1.27c-0.382,0.1-0.76,0.211-1.125,0.349
		c0.014,0.028,0.043,0.047,0.043,0.079c0.01,0.668-0.045,1.256-0.152,1.781h0.602c0.033,0,0.065,0.007,0.095,0.022
		c3.963,1.947,5.125,4.92,5.435,6.063h1.852c-0.171-0.848-0.599-2.403-1.612-4.014c-0.021-0.004-0.042-0.005-0.064-0.009
		C36.856,42.754,35.339,41.744,34.389,40.118z"/>
	<path class="st1" d="M55.443,58.268c0.268-0.174,0.523-0.367,0.777-0.565v-0.207h-0.188C55.86,57.796,55.658,58.044,55.443,58.268z
		"/>
	<path class="st1" d="M51.625,58.435c0.235,0.402,0.413,0.831,0.565,1.27c0.383-0.1,0.76-0.211,1.126-0.349
		c-0.013-0.028-0.042-0.047-0.043-0.079c-0.01-0.668,0.045-1.257,0.152-1.782h-0.602c-0.033,0-0.065-0.007-0.095-0.022
		c-3.966-1.947-5.128-4.922-5.438-6.063h-1.85c0.171,0.849,0.6,2.404,1.613,4.016c0.021,0.004,0.042,0.004,0.063,0.008
		C49.158,55.8,50.674,56.81,51.625,58.435z"/>
	<path class="st2" d="M32.926,48.177c0.022-0.058,0.031-0.119,0.051-0.177C32.964,48.062,32.942,48.118,32.926,48.177z"/>
	<path class="st2" d="M25.955,52.64c0.001,0.001,0.001,0.002,0.001,0.003l0.007,0.014c2.351-0.389,4.259-1.278,5.538-2.471
		c-0.583,0.373-1.301,0.583-2.11,0.583c-0.786,0-1.444-0.193-1.959-0.557c-0.459,0.194-0.947,0.368-1.477,0.509v0.974V52.64z"/>
	<path class="st2" d="M33.167,47.265l-0.105,0.028c-0.008,0.198-0.018,0.395-0.052,0.58C33.072,47.673,33.134,47.472,33.167,47.265z
		"/>
	<path class="st3" d="M29.16,55.585c0.067-0.46,0.583-0.887,1.184-0.43c0.234-0.104,0.458-0.214,0.674-0.328
		c0.479-1.191,1.567-2.448,3.385-3.192c0.132-0.242,0.241-0.487,0.336-0.732c-0.291-0.57-0.051-1.024,0.308-1.156
		c0.011-0.072,0.026-0.145,0.034-0.217c-4.216,1.077-6.077,4.082-6.141,6.139c0.075-0.023,0.147-0.047,0.221-0.071
		C29.16,55.593,29.159,55.589,29.16,55.585z M33.122,50.476c0.461-0.161,1.129,0.128,0.911,0.961
		c-0.18-0.394-0.495-0.494-0.697-0.437c-0.305,0.087-0.453,0.562-0.233,0.84C32.453,51.321,32.66,50.635,33.122,50.476z
		 M31.223,51.698c0.37-0.318,1.097-0.295,1.201,0.56c-0.311-0.3-0.642-0.278-0.809-0.15c-0.251,0.193-0.214,0.689,0.092,0.866
		C30.912,52.73,30.853,52.017,31.223,51.698z M29.94,53.458c0.234-0.428,0.924-0.66,1.32,0.104c-0.397-0.172-0.698-0.036-0.81,0.142
		c-0.168,0.269,0.04,0.721,0.389,0.779C30.007,54.534,29.704,53.886,29.94,53.458z"/>
	<path class="st3" d="M34.762,50.835c0.046-0.124,0.091-0.248,0.127-0.372C34.802,50.567,34.761,50.698,34.762,50.835z"/>
	<path class="st0" d="M31.708,52.973c-0.307-0.177-0.343-0.673-0.092-0.866c0.167-0.128,0.497-0.15,0.809,0.15
		c-0.104-0.854-0.831-0.878-1.201-0.56C30.853,52.017,30.912,52.73,31.708,52.973z"/>
	<path class="st0" d="M30.839,54.483c-0.349-0.058-0.557-0.51-0.389-0.779c0.112-0.178,0.413-0.314,0.81-0.142
		c-0.396-0.764-1.086-0.532-1.32-0.104C29.704,53.886,30.007,54.534,30.839,54.483z"/>
	<path class="st0" d="M29.16,55.585c-0.001,0.004,0.001,0.009,0,0.013c0.415-0.134,0.814-0.279,1.184-0.443
		C29.743,54.698,29.227,55.125,29.16,55.585z"/>
	<path class="st0" d="M33.104,51.839c-0.22-0.278-0.072-0.752,0.233-0.84c0.202-0.057,0.517,0.044,0.697,0.437
		c0.218-0.833-0.451-1.122-0.911-0.961C32.66,50.635,32.453,51.321,33.104,51.839z"/>
	<path class="st0" d="M34.738,50.903c0.009-0.022,0.016-0.045,0.025-0.068c-0.002-0.137,0.04-0.269,0.127-0.372
		c0.071-0.24,0.121-0.479,0.157-0.716C34.687,49.878,34.447,50.332,34.738,50.903z"/>
	<path class="st3" d="M31.769,54.389c0.894-0.578,1.595-1.25,2.123-1.963C32.904,52.966,32.202,53.668,31.769,54.389z"/>
	<path class="st0" d="M31.017,54.827c0.264-0.139,0.515-0.285,0.752-0.438c0.433-0.721,1.135-1.423,2.123-1.963
		c0.192-0.259,0.364-0.523,0.51-0.791C32.583,52.379,31.496,53.636,31.017,54.827z"/>
	<path class="st3" d="M51.251,47.718c-0.046,0.125-0.091,0.249-0.128,0.374C51.211,47.987,51.253,47.855,51.251,47.718z"/>
	<path class="st3" d="M56.854,42.969c-0.067,0.46-0.583,0.887-1.184,0.43c-0.234,0.104-0.457,0.214-0.673,0.328
		c-0.479,1.191-1.567,2.448-3.387,3.193c-0.132,0.242-0.241,0.487-0.335,0.732c0.291,0.571,0.052,1.025-0.309,1.157
		c-0.011,0.072-0.026,0.145-0.034,0.217c4.216-1.078,6.077-4.083,6.141-6.139c-0.075,0.023-0.147,0.047-0.22,0.071
		C56.853,42.96,56.854,42.964,56.854,42.969z M52.891,48.078c-0.461,0.161-1.128-0.128-0.91-0.961
		c0.179,0.393,0.494,0.494,0.696,0.437c0.305-0.087,0.453-0.561,0.233-0.839C53.561,47.233,53.352,47.918,52.891,48.078z
		 M54.791,46.855c-0.371,0.319-1.097,0.295-1.201-0.559c0.311,0.301,0.641,0.278,0.808,0.151c0.252-0.193,0.214-0.69-0.091-0.866
		C55.103,45.824,55.16,46.537,54.791,46.855z M56.075,45.095c-0.235,0.428-0.925,0.661-1.321-0.104
		c0.397,0.172,0.699,0.036,0.81-0.141c0.168-0.27-0.04-0.721-0.389-0.779C56.006,44.02,56.31,44.668,56.075,45.095z"/>
	<path class="st0" d="M54.307,45.581c0.306,0.177,0.343,0.673,0.091,0.866c-0.167,0.128-0.496,0.15-0.808-0.151
		c0.104,0.855,0.83,0.878,1.201,0.559C55.16,46.537,55.103,45.824,54.307,45.581z"/>
	<path class="st0" d="M55.175,44.071c0.349,0.059,0.557,0.51,0.389,0.779c-0.111,0.177-0.413,0.314-0.81,0.141
		c0.396,0.764,1.086,0.532,1.321,0.104C56.31,44.668,56.006,44.02,55.175,44.071z"/>
	<path class="st0" d="M56.854,42.969c0.001-0.004-0.001-0.009,0-0.013c-0.415,0.134-0.814,0.279-1.184,0.443
		C56.27,43.856,56.786,43.429,56.854,42.969z"/>
	<path class="st0" d="M52.909,46.714c0.22,0.278,0.072,0.753-0.233,0.839c-0.202,0.057-0.517-0.043-0.696-0.437
		c-0.218,0.833,0.449,1.122,0.91,0.961C53.352,47.918,53.561,47.233,52.909,46.714z"/>
	<path class="st0" d="M51.275,47.65c-0.009,0.022-0.016,0.045-0.024,0.067c0.002,0.137-0.04,0.269-0.128,0.374
		c-0.071,0.24-0.12,0.479-0.157,0.716C51.327,48.676,51.567,48.221,51.275,47.65z"/>
	<path class="st3" d="M54.245,44.164c-0.895,0.579-1.596,1.251-2.125,1.964C53.109,45.588,53.812,44.885,54.245,44.164z"/>
	<path class="st0" d="M54.997,43.726c-0.264,0.139-0.515,0.285-0.752,0.438c-0.433,0.721-1.136,1.424-2.125,1.964
		c-0.192,0.259-0.364,0.523-0.51,0.79C53.43,46.174,54.518,44.916,54.997,43.726z"/>
	<path class="st2" d="M57.332,57.313c-0.035,0.033-0.068,0.07-0.104,0.103v0.019c0.038-0.035,0.071-0.077,0.109-0.112
		C57.335,57.319,57.334,57.316,57.332,57.313z"/>
	<path class="st2" d="M28.681,41.241c0.036-0.033,0.069-0.07,0.104-0.103v-0.02c-0.038,0.035-0.071,0.077-0.109,0.113
		C28.678,41.234,28.68,41.238,28.681,41.241z"/>
	<path class="st2" d="M38.721,47.142c-0.31-1.142-1.472-4.116-5.435-6.063c-0.029-0.015-0.062-0.022-0.095-0.022H32.59
		c-0.031,0.151-0.072,0.29-0.112,0.43h0.664c4.019,1.994,5.005,5.06,5.211,5.954c0.025,0.107,0.128,0.16,0.234,0.147
		c0.021-0.002,0.04-0.008,0.058-0.017h2.187c0.063,0,0.124-0.028,0.164-0.076c0.041-0.049,0.059-0.113,0.048-0.175
		c-0.129-0.745-0.516-2.378-1.541-4.12c-0.18-0.022-0.36-0.041-0.542-0.073c1.013,1.612,1.441,3.166,1.612,4.014H38.721z"/>
	<path class="st2" d="M47.291,51.411c0.31,1.142,1.472,4.116,5.438,6.063c0.029,0.015,0.062,0.022,0.095,0.022h0.602
		c0.031-0.151,0.071-0.29,0.112-0.43h-0.664c-4.021-1.994-5.007-5.06-5.213-5.954c-0.024-0.106-0.117-0.157-0.234-0.148
		c-0.021,0.002-0.039,0.008-0.057,0.017h-2.188c-0.063,0-0.124,0.028-0.165,0.077c-0.04,0.048-0.058,0.112-0.047,0.175
		c0.13,0.747,0.519,2.385,1.549,4.131c0.179,0.022,0.356,0.032,0.536,0.063c-1.013-1.612-1.442-3.168-1.613-4.016H47.291z"/>
	<path class="st2" d="M28.595,55.77c0.367,0.027,0.727,0.062,1.075,0.109c4.035-1.44,5.871-4.369,5.871-6.888
		c0-2.388-1.542-4.429-4.186-5.73c-0.132,0.102-0.266,0.201-0.416,0.279c1.282,0.595,2.304,1.363,3.015,2.257
		c0.271,0.341,0.497,0.7,0.675,1.075c0.314,0.662,0.482,1.372,0.482,2.118c0,0.03-0.004,0.062-0.005,0.092
		c-0.003,0.148-0.01,0.297-0.026,0.447c-0.008,0.072-0.023,0.145-0.034,0.217c-0.036,0.237-0.086,0.476-0.157,0.716
		c-0.037,0.124-0.081,0.248-0.127,0.372c-0.008,0.023-0.016,0.045-0.025,0.068c-0.094,0.246-0.204,0.49-0.336,0.732
		c-0.146,0.268-0.318,0.532-0.51,0.791c-0.528,0.713-1.229,1.385-2.123,1.963c-0.237,0.153-0.489,0.299-0.752,0.438
		c-0.216,0.114-0.439,0.225-0.674,0.328c-0.369,0.164-0.769,0.308-1.184,0.443c-0.074,0.024-0.146,0.048-0.221,0.071
		C28.825,55.703,28.712,55.738,28.595,55.77z"/>
	<path class="st2" d="M56.353,42.672c-4.041,1.439-5.88,4.37-5.88,6.891c0,0.787,0.169,1.535,0.488,2.233l0.424-0.114
		c-0.314-0.662-0.482-1.372-0.482-2.119c0-0.03,0.004-0.061,0.005-0.092c0.003-0.148,0.01-0.297,0.026-0.447
		c0.008-0.072,0.023-0.144,0.034-0.217c0.036-0.237,0.086-0.476,0.157-0.716c0.037-0.125,0.081-0.249,0.128-0.374
		c0.008-0.022,0.016-0.045,0.024-0.067c0.094-0.245,0.204-0.49,0.335-0.732c0.146-0.268,0.318-0.531,0.51-0.79
		c0.529-0.713,1.23-1.385,2.125-1.964c0.237-0.153,0.489-0.299,0.752-0.438c0.216-0.114,0.439-0.224,0.673-0.328
		c0.369-0.164,0.769-0.308,1.184-0.443c0.073-0.024,0.145-0.048,0.22-0.071c0.112-0.034,0.224-0.068,0.339-0.1
		C57.049,42.759,56.698,42.718,56.353,42.672z"/>
	<path class="st2" d="M47.426,47.639c0.104,0.012,0.209-0.059,0.233-0.165c0.448-1.928,1.976-4.223,4.926-5.79
		c-0.166-0.07-0.318-0.152-0.478-0.228c-2.78,1.566-4.289,3.772-4.807,5.686h-1.86c0.282-1.399,1.27-4.716,4.42-7.045
		c-0.12-0.092-0.239-0.185-0.354-0.28c-3.409,2.573-4.322,6.262-4.537,7.502c-0.011,0.063,0.007,0.127,0.047,0.175
		c0.041,0.049,0.102,0.077,0.165,0.077h2.113C47.328,47.608,47.374,47.633,47.426,47.639z"/>
	<path class="st2" d="M41.044,51.232c0.011-0.063-0.007-0.126-0.048-0.175c-0.04-0.048-0.101-0.076-0.164-0.076h-2.112
		c-0.033-0.036-0.08-0.06-0.132-0.066c-0.111-0.018-0.21,0.058-0.233,0.165c-0.449,1.932-1.982,4.232-4.944,5.799
		c0.168,0.071,0.331,0.145,0.493,0.221c2.783-1.566,4.292-3.774,4.81-5.689h1.859c-0.282,1.399-1.267,4.718-4.422,7.048
		c0.12,0.091,0.249,0.176,0.364,0.271C39.921,56.155,40.829,52.471,41.044,51.232z"/>
	<path class="st2" d="M29.983,41.058h-0.188v0.413C29.856,41.33,29.912,41.183,29.983,41.058z"/>
	<path class="st2" d="M56.032,57.496h0.188v-0.413C56.158,57.223,56.103,57.371,56.032,57.496z"/>
	<path class="st2" d="M54.659,55.293c0.132-0.102,0.265-0.201,0.416-0.278c-1.282-0.595-2.304-1.363-3.016-2.258l-0.452,0.121
		C52.322,53.832,53.356,54.653,54.659,55.293z"/>
	<path class="st2" d="M60.051,45.897c-2.353,0.389-4.262,1.279-5.54,2.473c0.583-0.374,1.302-0.584,2.112-0.584
		c0.786,0,1.443,0.193,1.958,0.556c0.459-0.194,0.947-0.368,1.476-0.509L60.051,45.897z"/>
	<path class="st2" d="M52.847,51.289l0.105-0.028c0.008-0.198,0.018-0.395,0.052-0.581C52.942,50.88,52.88,51.081,52.847,51.289z"/>
	<path class="st2" d="M53.088,50.375c-0.024,0.061-0.033,0.126-0.054,0.188C53.048,50.498,53.071,50.438,53.088,50.375z"/>
	<path class="st2" d="M44.976,44.691c-0.962-0.321-1.776,0.75-1.776,1.294c0,0.544,0.478,1.127,1.346,0.729
		C44.132,46.059,44.253,45,44.976,44.691z"/>
	<path class="st2" d="M41.037,44.691c0.724,0.309,0.845,1.368,0.43,2.023c0.868,0.397,1.346-0.186,1.346-0.729
		C42.813,45.441,41.999,44.37,41.037,44.691z"/>
	<path class="st0" d="M48.926,50.183c0.48,0,0.87-0.39,0.87-0.871s-0.39-0.871-0.87-0.871c-0.481,0-0.871,0.39-0.871,0.871
		S48.445,50.183,48.926,50.183z"/>
	<path class="st0" d="M48.539,46.855c0,0.481,0.39,0.871,0.873,0.871c0.479,0,0.869-0.39,0.869-0.871
		c0-0.481-0.39-0.871-0.869-0.871C48.929,45.985,48.539,46.374,48.539,46.855z"/>
	<path class="st0" d="M51.766,44.691c0-0.481-0.39-0.871-0.871-0.871c-0.48,0-0.87,0.39-0.87,0.871c0,0.481,0.39,0.871,0.87,0.871
		C51.376,45.562,51.766,45.172,51.766,44.691z"/>
	<path class="st0" d="M52.905,43.779c0.481,0,0.871-0.39,0.871-0.871c0-0.481-0.39-0.871-0.871-0.871c-0.48,0-0.87,0.39-0.87,0.871
		C52.034,43.388,52.425,43.779,52.905,43.779z"/>
	<path class="st0" d="M55.297,42.614c0.097,0,0.186-0.026,0.273-0.055c-0.308-0.057-0.598-0.13-0.891-0.202
		C54.837,42.516,55.055,42.614,55.297,42.614z"/>
	<path class="st0" d="M44.492,34.771c-0.314-1.073-1.506-1.604-2.576-1.577c-0.866,0.024-1.845,0.423-2.066,1.463
		C41.251,35.59,43.359,35.296,44.492,34.771z M42.073,34.272c0-0.322,0.262-0.584,0.584-0.584s0.585,0.262,0.585,0.584
		s-0.263,0.584-0.585,0.584S42.073,34.594,42.073,34.272z"/>
	<path class="st0" d="M42.812,34.272c0-0.085-0.069-0.154-0.155-0.154c-0.085,0-0.154,0.069-0.154,0.154
		c0,0.085,0.069,0.155,0.154,0.155C42.743,34.427,42.812,34.357,42.812,34.272z"/>
	<path class="st0" d="M36.676,34.427c0.086,0,0.156-0.069,0.156-0.155c0-0.085-0.07-0.154-0.156-0.154
		c-0.084,0-0.153,0.069-0.153,0.154C36.523,34.357,36.592,34.427,36.676,34.427z"/>
	<path class="st0" d="M34.289,34.758c0.967,0.522,2.73,0.825,3.828-0.069c-0.265-1.134-1.239-1.512-1.967-1.481
		C35.338,33.237,34.469,33.728,34.289,34.758z M36.676,33.688c0.323,0,0.586,0.262,0.586,0.584S37,34.856,36.676,34.856
		c-0.321,0-0.583-0.262-0.583-0.584S36.355,33.688,36.676,33.688z"/>
	<path class="st0" d="M34.76,39.901c0.884,1.513,2.302,2.453,4.213,2.795c3.444,0.614,6.702-0.495,8.688-2.979
		c0.25-0.313,0.473-0.641,0.672-0.98c-1.84-1.96-2.846-4.3-3.281-6.29c-0.301-0.323-0.6-0.651-0.897-0.983
		c-1.208-0.25-2.847-0.241-3.892,0.57c0.29-0.632,1.057-1.138,1.915-1.318c-1.214-0.38-2.313-1.16-2.956-2.54
		c-0.827,1.174-1.603,1.936-2.632,2.514c0.778,0.16,1.481,0.688,1.734,1.35c-1.066-0.977-2.891-0.807-3.92-0.411
		C33.641,33.915,33.29,37.386,34.76,39.901z M40.482,40.857c-0.297,0.259-0.765,0.405-1.257,0.405c-0.126,0-0.254-0.01-0.38-0.029
		c-0.477-0.074-0.836-0.275-1.012-0.567c-0.062-0.102-0.029-0.234,0.072-0.295c0.103-0.06,0.234-0.029,0.295,0.073
		c0.106,0.176,0.372,0.312,0.71,0.365c0.497,0.078,1.012-0.034,1.288-0.275c0.09-0.079,0.224-0.069,0.304,0.021
		C40.581,40.644,40.571,40.779,40.482,40.857z M42.03,39.875c-0.019,0-0.038-0.002-0.058-0.008
		c-2.065-0.577-4.639-0.411-5.366-0.018c-0.105,0.056-0.235,0.019-0.292-0.087c-0.057-0.104-0.018-0.235,0.087-0.291
		c0.887-0.48,3.621-0.595,5.687-0.018c0.114,0.032,0.182,0.15,0.149,0.265C42.211,39.813,42.124,39.875,42.03,39.875z
		 M41.904,32.764c1.324-0.043,2.764,0.668,3.049,2.081c0.019,0.094-0.026,0.188-0.111,0.233c-0.662,0.348-1.674,0.62-2.721,0.62
		c-0.923,0-1.873-0.211-2.634-0.769c-0.064-0.047-0.098-0.125-0.086-0.205C39.569,33.57,40.551,32.801,41.904,32.764z M38.565,34.73
		c0.013,0.073-0.013,0.148-0.067,0.198c-0.609,0.554-1.396,0.764-2.177,0.764c-0.898,0-1.787-0.28-2.377-0.636
		c-0.071-0.043-0.111-0.125-0.103-0.208c0.151-1.372,1.295-2.035,2.293-2.071C37.141,32.739,38.308,33.331,38.565,34.73z"/>
	<path d="M42.121,35.697c1.047,0,2.059-0.272,2.721-0.62c0.085-0.044,0.13-0.139,0.111-0.233c-0.285-1.413-1.725-2.124-3.049-2.081
		c-1.353,0.037-2.335,0.806-2.503,1.959c-0.012,0.079,0.021,0.158,0.086,0.205C40.248,35.485,41.198,35.697,42.121,35.697z
		 M41.916,33.193c1.07-0.027,2.262,0.504,2.576,1.577c-1.133,0.526-3.241,0.819-4.643-0.114
		C40.071,33.617,41.049,33.217,41.916,33.193z"/>
	<path d="M33.841,34.849c-0.009,0.083,0.031,0.164,0.103,0.208c0.59,0.356,1.479,0.636,2.377,0.636c0.78,0,1.567-0.21,2.177-0.764
		c0.055-0.05,0.08-0.125,0.067-0.198c-0.257-1.4-1.424-1.992-2.431-1.953C35.136,32.813,33.993,33.477,33.841,34.849z M36.15,33.208
		c0.728-0.031,1.702,0.348,1.967,1.481c-1.098,0.894-2.861,0.591-3.828,0.069C34.469,33.728,35.338,33.237,36.15,33.208z"/>
	<path d="M43.242,34.272c0-0.322-0.263-0.584-0.585-0.584s-0.584,0.262-0.584,0.584s0.262,0.584,0.584,0.584
		S43.242,34.594,43.242,34.272z M42.503,34.272c0-0.085,0.069-0.154,0.154-0.154c0.086,0,0.155,0.069,0.155,0.154
		c0,0.085-0.069,0.155-0.155,0.155C42.572,34.427,42.503,34.357,42.503,34.272z"/>
	<path d="M36.676,34.856c0.323,0,0.586-0.262,0.586-0.584S37,33.688,36.676,33.688c-0.321,0-0.583,0.262-0.583,0.584
		S36.355,34.856,36.676,34.856z M36.676,34.118c0.086,0,0.156,0.069,0.156,0.154c0,0.085-0.07,0.155-0.156,0.155
		c-0.084,0-0.153-0.069-0.153-0.155C36.523,34.187,36.592,34.118,36.676,34.118z"/>
	<path class="st1" d="M40.085,48.647v1.259h0.001h1.22c-0.032-0.202-0.054-0.411-0.054-0.63c0-0.219,0.022-0.427,0.054-0.629h-1.22
		H40.085z"/>
	<path class="st0" d="M29.215,43.48c0.052-0.002,0.098-0.012,0.15-0.013v-4.799c-0.024-0.017-0.052-0.022-0.075-0.04
		c-0.023,0.018-0.052,0.023-0.075,0.039V43.48z"/>
	<path class="st0" d="M29.39,50.339c1.948,0,3.258-1.295,3.258-3.222c0-0.606-0.142-1.14-0.38-1.6
		c-0.095-0.184-0.207-0.351-0.332-0.506c-0.033-0.04-0.063-0.083-0.099-0.121c-0.14-0.154-0.297-0.291-0.468-0.411
		c-0.025-0.018-0.046-0.041-0.072-0.058c-0.422-0.277-0.927-0.451-1.498-0.507c-0.05-0.005-0.097-0.009-0.141-0.009
		c-0.202,0.001-0.439,0.05-0.492,0.278c-0.047,0.202,0.065,0.424,0.195,0.489c0.54,0.267,0.948,0.708,1.183,1.277
		c0.021,0.053,0.021,0.114-0.002,0.167c-0.185,0.427-0.092,1.001,0.22,1.365c0.259,0.301,0.621,0.41,1.018,0.305
		c0.119-0.031,0.232,0.039,0.263,0.154s-0.039,0.232-0.153,0.262c-0.135,0.035-0.269,0.053-0.397,0.053
		c-0.407,0-0.778-0.171-1.056-0.494c-0.398-0.465-0.525-1.161-0.323-1.727c-0.248-0.544-0.646-0.831-0.941-0.977
		c-0.32-0.158-0.511-0.594-0.424-0.971c0.011-0.049,0.037-0.087,0.056-0.131c-1.922,0.305-2.247,2.062-2.247,3.159
		C26.557,48.32,26.925,50.339,29.39,50.339z"/>
	<path class="st2" d="M42.813,52.569c0-0.544-0.478-1.127-1.346-0.729c0.415,0.656,0.294,1.714-0.43,2.023
		C41.999,54.183,42.813,53.113,42.813,52.569z"/>
	<path class="st2" d="M44.976,53.862c-0.723-0.309-0.844-1.367-0.43-2.023c-0.868-0.397-1.346,0.186-1.346,0.729
		S44.014,54.183,44.976,53.862z"/>
	<path class="st0" d="M37.959,49.242c0-0.481-0.389-0.871-0.871-0.871c-0.48,0-0.869,0.39-0.869,0.871c0,0.48,0.389,0.87,0.869,0.87
		C37.57,50.112,37.959,49.722,37.959,49.242z"/>
	<path class="st0" d="M37.473,51.698c0-0.481-0.389-0.871-0.87-0.871c-0.48,0-0.87,0.39-0.87,0.871c0,0.482,0.39,0.871,0.87,0.871
		C37.084,52.569,37.473,52.179,37.473,51.698z"/>
	<path class="st0" d="M35.118,52.992c-0.48,0-0.87,0.39-0.87,0.871c0,0.482,0.39,0.871,0.87,0.871s0.87-0.39,0.87-0.871
		C35.989,53.382,35.599,52.992,35.118,52.992z"/>
	<path class="st0" d="M33.979,55.646c0-0.481-0.389-0.871-0.87-0.871c-0.48,0-0.87,0.39-0.87,0.871c0,0.481,0.39,0.871,0.87,0.871
		C33.59,56.517,33.979,56.127,33.979,55.646z"/>
	<path class="st0" d="M30.718,55.939c-0.108,0-0.208,0.026-0.303,0.061c0.309,0.056,0.616,0.116,0.909,0.188
		C31.167,56.035,30.954,55.939,30.718,55.939z"/>
	<path class="st1" d="M45.93,49.906v-1.259h-0.001h-1.221c0.032,0.202,0.053,0.41,0.053,0.629c0,0.219-0.022,0.427-0.054,0.63h1.222
		H45.93z"/>
	<path class="st2" d="M43.007,47.07c-0.718,0-1.325,1.01-1.325,2.206s0.607,2.207,1.325,2.207c0.717,0,1.323-1.011,1.323-2.207
		S43.724,47.07,43.007,47.07z M42.026,49.276c0-0.796,0.431-1.419,0.981-1.419c0.55,0,0.979,0.624,0.979,1.419
		c0,0.796-0.43,1.42-0.979,1.42C42.457,50.696,42.026,50.073,42.026,49.276z"/>
	<path class="st2" d="M43.007,50.267c0.26,0,0.55-0.407,0.55-0.99c0-0.583-0.29-0.99-0.55-0.99c-0.261,0-0.552,0.407-0.552,0.99
		C42.456,49.86,42.747,50.267,43.007,50.267z"/>
	<path d="M43.987,49.276c0-0.796-0.43-1.419-0.979-1.419c-0.551,0-0.981,0.624-0.981,1.419c0,0.796,0.431,1.42,0.981,1.42
		C43.557,50.696,43.987,50.073,43.987,49.276z M42.456,49.276c0-0.583,0.291-0.99,0.552-0.99c0.26,0,0.55,0.407,0.55,0.99
		c0,0.583-0.29,0.99-0.55,0.99C42.747,50.267,42.456,49.86,42.456,49.276z"/>
	<path d="M60.273,21.3H50.49h-7.354H25.74c-0.119,0-0.215,0.096-0.215,0.215v24.35v1.031v3.658v1.397v0.733v0.006v2.676v0.921v2.893
		v17.859c0,0.119,0.096,0.215,0.215,0.215h9.783h7.354h17.396c0.119,0,0.215-0.096,0.215-0.215V52.689v-1.032V48v-1.397V45.87
		v-0.005v-2.676v-0.921v-2.893V21.515C60.488,21.397,60.392,21.3,60.273,21.3z M35.589,76.824c-1.123-0.78-1.867-1.833-2.275-3.214
		c-0.145-0.492-0.268-1.078-0.398-1.699c-0.36-1.711-0.805-3.805-2.022-5.438c0.198,0.186,0.46,0.304,0.752,0.304
		c0.608,0,1.103-0.495,1.103-1.103c0-0.608-0.494-1.103-1.103-1.103s-1.104,0.495-1.104,1.103c0,0.235,0.091,0.442,0.217,0.621
		c-0.242-0.303-0.513-0.587-0.817-0.849c0.374-0.177,0.637-0.551,0.637-0.991c0-0.232-0.079-0.448-0.21-0.63l0.274-0.065
		c4.327,2.175,11.504,9.784,13.262,12.399l-1.087,0.665H35.589z M60.058,42.366v0.512c-3.773-1.445-7.176-3.631-10.988-7.055
		c-2.868-2.574-7.771-7.849-9.85-11.66l1.177-0.72c2.14,3.486,7.291,8.023,10.391,10.753l0.48,0.423
		c3.375,2.977,6.456,4.196,8.79,4.914V42.366z M57.232,55.103c1.655,0.236,2.479,1.499,2.513,3.848
		C58.555,58.42,57.311,57.464,57.232,55.103z M58.554,62.346c0.463,0.463,0.463,1.216,0,1.679c-0.462,0.462-1.215,0.464-1.679,0
		c-0.084-0.083-0.221-0.083-0.305,0c-0.464,0.463-1.217,0.461-1.679,0c-0.463-0.463-0.463-1.217,0-1.68
		c0.084-0.084,0.084-0.22,0-0.304c-0.463-0.463-0.463-1.216,0-1.679c0.447-0.451,1.23-0.448,1.678,0
		c0.084,0.084,0.221,0.083,0.305,0c0.464-0.464,1.218-0.462,1.68,0c0.463,0.463,0.463,1.216,0,1.679
		C58.47,62.126,58.47,62.262,58.554,62.346z M46.776,73.502c-1.01-1.678-2.476-3.598-4.08-5.461c1.396,0.169,3.077,0.821,3.851,2.86
		c0.028,0.075,0.097,0.128,0.177,0.138c0.076,0.005,0.158-0.028,0.203-0.094c1.305-1.945,2.407-2.796,4.582-3.485
		C50.925,71.387,48.597,72.91,46.776,73.502z M45.616,75.11c-2.139-3.485-7.29-8.023-10.391-10.753l-0.479-0.423
		c-3.376-2.977-6.457-4.196-8.791-4.914v-2.833v-0.512c3.771,1.444,7.174,3.63,10.989,7.054c0.179,0.161,0.366,0.332,0.56,0.513
		c2.909,2.714,7.338,7.573,9.289,11.147L45.616,75.11z M28.782,43.451c-1.654-0.236-2.479-1.499-2.513-3.848
		C27.459,40.134,28.703,41.09,28.782,43.451z M27.46,36.207c-0.225-0.224-0.349-0.522-0.349-0.839s0.124-0.615,0.349-0.839
		c0.462-0.462,1.215-0.463,1.679,0c0.084,0.084,0.221,0.084,0.305,0c0.463-0.462,1.215-0.462,1.678,0v0
		c0.225,0.224,0.348,0.521,0.349,0.838c0,0.317-0.124,0.615-0.349,0.839c-0.04,0.041-0.063,0.095-0.063,0.152
		s0.022,0.112,0.063,0.152c0.463,0.463,0.463,1.216,0,1.68c-0.463,0.462-1.215,0.462-1.678,0c-0.042-0.042-0.098-0.063-0.152-0.063
		s-0.11,0.021-0.152,0.063c-0.465,0.462-1.218,0.461-1.679,0c-0.225-0.224-0.349-0.522-0.349-0.839c0-0.317,0.124-0.615,0.349-0.84
		c0.04-0.04,0.063-0.095,0.063-0.152S27.5,36.247,27.46,36.207z M39.239,25.052c0.839,1.395,1.993,2.958,3.282,4.517
		c0.26,0.315,0.527,0.629,0.797,0.942c-1.397-0.168-3.077-0.819-3.849-2.858c-0.028-0.075-0.097-0.128-0.177-0.137
		c-0.081-0.008-0.158,0.027-0.203,0.093c-1.307,1.945-2.409,2.796-4.583,3.485C35.089,27.167,37.418,25.644,39.239,25.052z
		 M52.69,62.778c-0.009-0.901-0.131-1.805-0.38-2.669c0.831-0.22,1.63-0.512,2.377-0.897c-0.074,0.414-0.183,0.808-0.326,1.179
		c-0.069,0.116-0.12,0.234-0.157,0.361C53.834,61.557,53.311,62.241,52.69,62.778z M33.324,35.775
		c0.009,0.901,0.131,1.805,0.38,2.67c-0.831,0.22-1.63,0.512-2.377,0.897c0.074-0.414,0.183-0.809,0.326-1.181
		c0.068-0.115,0.119-0.231,0.156-0.356C32.179,36.998,32.702,36.313,33.324,35.775z M49.982,37.188
		c0.005,0.004,0.011,0.006,0.016,0.009c2.674,2.266,5.189,3.932,7.816,5.177c-7.601-0.4-11.04-5.331-12.156-9.285
		c0.577,0.604,1.151,1.185,1.709,1.727c-0.032-0.001-0.063-0.012-0.094,0.002c-0.108,0.048-0.158,0.174-0.111,0.283
		c0.64,1.467,2.611,3.7,4.681,4.75c0.031,0.016,0.064,0.023,0.098,0.023c0.078,0,0.154-0.043,0.191-0.118
		c0.054-0.106,0.012-0.235-0.094-0.289c-1.925-0.976-3.747-3.004-4.412-4.402c0.397,0.38,0.786,0.744,1.158,1.078
		c0.043,0.038,0.084,0.072,0.126,0.11C49.269,36.574,49.627,36.886,49.982,37.188z M60.058,47.834
		c-0.53,0.14-1.017,0.315-1.476,0.509c-0.515-0.364-1.172-0.556-1.958-0.556c-0.81,0-1.529,0.21-2.112,0.584
		c1.279-1.194,3.187-2.084,5.54-2.473L60.058,47.834z M47.054,55.427c-0.18-0.031-0.357-0.041-0.536-0.063
		c-1.029-1.746-1.419-3.384-1.549-4.131c-0.011-0.063,0.007-0.127,0.047-0.175c0.041-0.049,0.102-0.077,0.165-0.077h2.188
		c0.018-0.008,0.036-0.014,0.057-0.017c0.117-0.009,0.21,0.042,0.234,0.148c0.206,0.895,1.192,3.96,5.213,5.954h0.664
		c-0.04,0.139-0.081,0.278-0.112,0.43c-0.107,0.525-0.162,1.114-0.152,1.782c0,0.032,0.029,0.051,0.043,0.079
		c-0.365,0.138-0.743,0.249-1.126,0.349c-0.152-0.439-0.331-0.868-0.565-1.27c-0.95-1.625-2.467-2.635-4.507-3
		C47.096,55.431,47.076,55.431,47.054,55.427z M40.357,65.464c-0.572-0.599-1.141-1.175-1.694-1.713
		c0.027-0.001,0.055-0.005,0.08-0.017c0.109-0.047,0.158-0.174,0.111-0.283c-0.642-1.468-2.614-3.701-4.681-4.75
		c-0.104-0.053-0.236-0.012-0.289,0.095c-0.054,0.106-0.012,0.235,0.094,0.289c1.923,0.975,3.746,3.005,4.412,4.404
		c-0.397-0.381-0.787-0.745-1.159-1.079c-0.405-0.362-0.803-0.707-1.199-1.044c-0.005-0.004-0.01-0.006-0.016-0.009
		c-2.675-2.267-5.191-3.933-7.819-5.178C35.802,56.589,39.24,61.512,40.357,65.464z M38.961,43.128
		c0.182,0.032,0.362,0.051,0.542,0.073c1.024,1.742,1.411,3.374,1.541,4.12c0.011,0.063-0.007,0.126-0.048,0.175
		c-0.04,0.048-0.101,0.076-0.164,0.076h-2.187c-0.018,0.009-0.037,0.015-0.058,0.017c-0.106,0.012-0.209-0.04-0.234-0.147
		c-0.206-0.895-1.192-3.96-5.211-5.954h-0.664c0.04-0.139,0.081-0.278,0.112-0.43c0.107-0.525,0.162-1.113,0.152-1.781
		c0-0.032-0.03-0.051-0.043-0.079c0.365-0.138,0.743-0.249,1.125-0.349c0.152,0.439,0.331,0.868,0.565,1.27
		c0.95,1.626,2.467,2.636,4.508,3.001C38.918,43.123,38.94,43.124,38.961,43.128z M57.074,42.885
		c-0.064,2.057-1.925,5.062-6.141,6.139c-0.016,0.15-0.024,0.299-0.026,0.447c1.28-0.312,2.358-0.793,3.246-1.378
		c-0.994,0.945-1.611,2.076-1.76,3.317l-1.009,0.271l-0.424,0.114c-0.319-0.697-0.488-1.446-0.488-2.233
		c0-2.521,1.839-5.453,5.88-6.891c0.346,0.047,0.696,0.087,1.061,0.113C57.298,42.817,57.186,42.851,57.074,42.885z M57.21,54.596
		c0.019-0.043,0.045-0.082,0.056-0.13c0.087-0.377-0.104-0.813-0.426-0.972c-0.294-0.145-0.689-0.431-0.94-0.977
		c0.203-0.564,0.077-1.26-0.321-1.725c-0.365-0.427-0.898-0.587-1.454-0.442c-0.114,0.03-0.184,0.147-0.153,0.262
		c0.029,0.115,0.144,0.184,0.263,0.154c0.533-0.141,0.868,0.131,1.019,0.306c0.312,0.363,0.403,0.937,0.218,1.363
		c-0.023,0.053-0.023,0.114-0.001,0.168c0.236,0.57,0.645,1.012,1.181,1.276c0.132,0.065,0.243,0.288,0.197,0.49
		c-0.053,0.228-0.29,0.277-0.493,0.278c-0.044,0-0.092-0.004-0.141-0.009c-0.57-0.056-1.074-0.23-1.496-0.507
		c-0.027-0.018-0.049-0.042-0.076-0.06c-0.169-0.119-0.325-0.254-0.464-0.407c-0.036-0.039-0.068-0.083-0.102-0.125
		c-0.123-0.152-0.233-0.317-0.326-0.497c-0.24-0.462-0.384-0.997-0.384-1.606c0-1.927,1.31-3.222,3.258-3.222
		c2.465,0,2.833,2.019,2.833,3.222C59.457,52.534,59.131,54.291,57.21,54.596z M56.219,57.496v0.207
		c-0.253,0.198-0.509,0.39-0.777,0.565c0.215-0.224,0.418-0.472,0.589-0.772c0.071-0.125,0.127-0.273,0.188-0.413V57.496z
		 M51.607,52.878l0.452-0.121l1.024-0.275c0.059,0.225,0.136,0.439,0.232,0.64c0.003,0.013-0.004,0.026,0.002,0.039
		c0.024,0.049,0.061,0.085,0.087,0.133c0.086,0.158,0.183,0.306,0.292,0.445c0.067,0.087,0.133,0.174,0.207,0.253
		c0.102,0.107,0.216,0.2,0.332,0.293c0.131,0.105,0.265,0.204,0.412,0.289c0.167,0.097,0.339,0.188,0.526,0.259
		c0.065,0.024,0.132,0.043,0.199,0.064c-0.1,0.039-0.204,0.071-0.297,0.119c-0.151,0.078-0.284,0.177-0.416,0.278
		C53.356,54.653,52.322,53.832,51.607,52.878z M35.08,49.53c0.016-0.15,0.024-0.299,0.026-0.447
		c-1.278,0.311-2.355,0.792-3.243,1.375c0.993-0.944,1.609-2.075,1.758-3.315l1.009-0.271c-0.178-0.375-0.404-0.734-0.675-1.075
		l-1.023,0.275c-0.059-0.226-0.136-0.44-0.233-0.642c-0.003-0.012,0.004-0.025-0.002-0.037c-0.023-0.047-0.058-0.081-0.083-0.126
		c-0.088-0.161-0.187-0.313-0.298-0.455c-0.066-0.086-0.13-0.17-0.203-0.248c-0.103-0.109-0.219-0.203-0.336-0.297
		c-0.128-0.103-0.258-0.199-0.402-0.282c-0.169-0.099-0.344-0.191-0.534-0.262c-0.065-0.024-0.133-0.043-0.2-0.064
		c0.1-0.039,0.205-0.071,0.298-0.119c0.151-0.078,0.284-0.177,0.416-0.279c2.644,1.301,4.186,3.342,4.186,5.73
		c0,2.52-1.836,5.448-5.871,6.888c-0.348-0.047-0.707-0.082-1.075-0.109c0.117-0.032,0.23-0.066,0.344-0.101
		C29.003,53.612,30.864,50.607,35.08,49.53z M26.557,47.117c0-1.097,0.325-2.854,2.247-3.159c-0.019,0.044-0.045,0.082-0.056,0.131
		c-0.087,0.377,0.104,0.813,0.424,0.971c0.296,0.146,0.693,0.433,0.941,0.977c-0.202,0.565-0.075,1.262,0.323,1.727
		c0.277,0.323,0.648,0.494,1.056,0.494c0.129,0,0.263-0.018,0.397-0.053c0.114-0.03,0.184-0.147,0.153-0.262
		s-0.144-0.185-0.263-0.154c-0.396,0.104-0.759-0.004-1.018-0.305c-0.312-0.363-0.404-0.938-0.22-1.365
		c0.023-0.053,0.023-0.114,0.002-0.167c-0.234-0.569-0.643-1.011-1.183-1.277c-0.13-0.064-0.242-0.287-0.195-0.489
		c0.053-0.228,0.29-0.277,0.492-0.278c0.044,0,0.091,0.004,0.141,0.009c0.571,0.056,1.076,0.23,1.498,0.507
		c0.026,0.017,0.047,0.04,0.072,0.058c0.171,0.12,0.328,0.256,0.468,0.411c0.035,0.038,0.066,0.081,0.099,0.121
		c0.125,0.154,0.237,0.322,0.332,0.506c0.238,0.46,0.38,0.994,0.38,1.6c0,1.927-1.31,3.222-3.258,3.222
		C26.925,50.339,26.557,48.32,26.557,47.117z M29.795,41.058V40.85c0.254-0.198,0.51-0.391,0.778-0.565
		c-0.215,0.224-0.419,0.472-0.59,0.773c-0.071,0.125-0.127,0.273-0.188,0.413V41.058z M32.312,39.603
		c-0.034,2.349-0.858,3.611-2.513,3.848C29.878,41.09,31.123,40.134,32.312,39.603z M33.167,47.265
		c-0.033,0.208-0.095,0.408-0.157,0.609c0.034-0.185,0.044-0.382,0.052-0.58L33.167,47.265z M35.989,53.862
		c0,0.482-0.39,0.871-0.87,0.871s-0.87-0.39-0.87-0.871c0-0.481,0.39-0.871,0.87-0.871S35.989,53.382,35.989,53.862z M30.414,56
		c0.095-0.036,0.196-0.061,0.303-0.061c0.236,0,0.449,0.096,0.606,0.249C31.03,56.116,30.724,56.057,30.414,56z M32.238,55.646
		c0-0.481,0.39-0.871,0.87-0.871c0.481,0,0.87,0.39,0.87,0.871c0,0.481-0.389,0.871-0.87,0.871
		C32.628,56.517,32.238,56.127,32.238,55.646z M35.732,51.698c0-0.481,0.39-0.871,0.87-0.871c0.481,0,0.87,0.39,0.87,0.871
		c0,0.482-0.389,0.871-0.87,0.871C36.122,52.569,35.732,52.179,35.732,51.698z M37.087,50.112c-0.48,0-0.869-0.39-0.869-0.87
		c0-0.481,0.389-0.871,0.869-0.871c0.482,0,0.871,0.39,0.871,0.871C37.959,49.722,37.57,50.112,37.087,50.112z M36.151,58.459
		c-0.669-0.51-1.417-0.967-2.248-1.359c-0.161-0.076-0.325-0.15-0.493-0.221c2.961-1.567,4.495-3.867,4.944-5.799
		c0.023-0.107,0.122-0.183,0.233-0.165c0.052,0.006,0.099,0.03,0.132,0.066h2.112c0.063,0,0.124,0.028,0.164,0.076
		c0.041,0.049,0.059,0.113,0.048,0.175c-0.214,1.239-1.123,4.923-4.529,7.497C36.4,58.635,36.271,58.55,36.151,58.459z
		 M44.546,46.714c-0.868,0.397-1.346-0.186-1.346-0.729c0-0.544,0.814-1.615,1.776-1.294C44.253,45,44.132,46.059,44.546,46.714z
		 M44.331,49.276c0,1.196-0.606,2.207-1.323,2.207c-0.718,0-1.325-1.011-1.325-2.207s0.607-2.206,1.325-2.206
		C43.724,47.07,44.331,48.081,44.331,49.276z M41.467,46.714c0.415-0.655,0.294-1.714-0.43-2.023
		c0.962-0.321,1.776,0.75,1.776,1.294C42.813,46.528,42.335,47.111,41.467,46.714z M41.306,48.647
		c-0.032,0.202-0.054,0.41-0.054,0.629c0,0.219,0.022,0.427,0.054,0.63h-1.22h-0.001v-1.259h0.001H41.306z M41.467,51.839
		c0.868-0.397,1.346,0.186,1.346,0.729s-0.814,1.615-1.776,1.294C41.762,53.553,41.882,52.495,41.467,51.839z M44.546,51.839
		c-0.414,0.656-0.293,1.714,0.43,2.023c-0.962,0.321-1.776-0.75-1.776-1.294S43.678,51.442,44.546,51.839z M44.707,49.906
		c0.032-0.202,0.054-0.411,0.054-0.63c0-0.219-0.022-0.427-0.053-0.629h1.221h0.001v1.259h-0.001H44.707z M45.18,47.572
		c-0.063,0-0.124-0.028-0.165-0.077c-0.04-0.048-0.058-0.112-0.047-0.175c0.216-1.24,1.128-4.929,4.537-7.502
		c0.115,0.095,0.234,0.188,0.354,0.28c0.669,0.51,1.417,0.967,2.248,1.359c0.16,0.075,0.312,0.158,0.478,0.228
		c-2.95,1.567-4.478,3.862-4.926,5.79c-0.024,0.106-0.129,0.177-0.233,0.165c-0.053-0.006-0.099-0.03-0.133-0.067H45.18z
		 M55.57,42.559c-0.087,0.029-0.176,0.055-0.273,0.055c-0.242,0-0.46-0.099-0.617-0.258C54.972,42.429,55.262,42.503,55.57,42.559z
		 M53.703,58.951c0.033-2.349,0.857-3.612,2.513-3.848C56.136,57.464,54.892,58.42,53.703,58.951z M52.847,51.289
		c0.033-0.208,0.095-0.409,0.157-0.609c-0.034,0.186-0.044,0.383-0.052,0.581L52.847,51.289z M50.281,46.855
		c0,0.481-0.39,0.871-0.869,0.871c-0.483,0-0.873-0.39-0.873-0.871c0-0.481,0.39-0.871,0.873-0.871
		C49.891,45.985,50.281,46.374,50.281,46.855z M50.895,45.562c-0.48,0-0.87-0.39-0.87-0.871c0-0.481,0.39-0.871,0.87-0.871
		c0.481,0,0.871,0.39,0.871,0.871C51.766,45.172,51.376,45.562,50.895,45.562z M52.034,42.907c0-0.481,0.39-0.871,0.87-0.871
		c0.481,0,0.871,0.39,0.871,0.871c0,0.481-0.39,0.871-0.871,0.871C52.425,43.779,52.034,43.388,52.034,42.907z M48.926,48.441
		c0.48,0,0.87,0.39,0.87,0.871s-0.39,0.871-0.87,0.871c-0.481,0-0.871-0.39-0.871-0.871S48.445,48.441,48.926,48.441z
		 M53.034,50.563c0.021-0.062,0.03-0.127,0.054-0.188C53.071,50.438,53.048,50.498,53.034,50.563z M32.977,48
		c-0.02,0.058-0.029,0.119-0.051,0.177C32.942,48.118,32.964,48.062,32.977,48z M30.703,51.367
		c-1.494,1.399-2.188,3.084-2.199,4.393c-0.225-0.015-0.458-0.022-0.69-0.029c-0.636-0.798-1.192-1.691-1.657-2.677
		C27.939,52.745,29.485,52.16,30.703,51.367z M55.307,47.189c1.497-1.401,2.192-3.089,2.201-4.4c0.226,0.015,0.457,0.024,0.69,0.032
		c0.636,0.798,1.193,1.692,1.657,2.678C58.072,45.81,56.525,46.396,55.307,47.189z M28.043,43.699
		c-1.123,0.433-1.778,1.47-1.886,2.982h-0.202v-0.772c0.4-0.923,0.879-1.771,1.425-2.54C27.581,43.504,27.801,43.615,28.043,43.699z
		 M25.955,51.694V50.72c0.53-0.141,1.017-0.315,1.477-0.509c0.515,0.364,1.173,0.557,1.959,0.557c0.81,0,1.527-0.21,2.11-0.583
		c-1.279,1.193-3.187,2.082-5.538,2.471l-0.007-0.014c0,0,0-0.001-0.001-0.003V51.694z M57.972,54.855
		c1.123-0.433,1.778-1.471,1.885-2.983h0.201v0.773c-0.4,0.923-0.879,1.77-1.424,2.539C58.433,55.05,58.213,54.939,57.972,54.855z
		 M34.403,31.627c1.029-0.396,2.853-0.566,3.92,0.411c-0.253-0.662-0.956-1.189-1.734-1.35c1.029-0.578,1.805-1.34,2.632-2.514
		c0.643,1.38,1.742,2.16,2.956,2.54c-0.858,0.181-1.625,0.686-1.915,1.318c1.045-0.811,2.684-0.82,3.892-0.57
		c0.297,0.332,0.597,0.66,0.897,0.983c0.434,1.989,1.441,4.33,3.281,6.29c-0.198,0.339-0.422,0.667-0.672,0.98
		c-1.985,2.484-5.243,3.593-8.688,2.979c-1.911-0.342-3.329-1.283-4.213-2.795C33.29,37.386,33.641,33.915,34.403,31.627z
		 M29.291,38.628c0.023,0.018,0.051,0.024,0.075,0.04v4.799c-0.053,0-0.099,0.011-0.15,0.013v-4.813
		C29.239,38.651,29.268,38.646,29.291,38.628z M27.262,55.729c-0.013,0-0.026,0-0.039,0c-0.418-0.18-0.841-0.348-1.268-0.509v-1.608
		C26.339,54.372,26.773,55.081,27.262,55.729z M51.611,66.926c-1.028,0.396-2.853,0.566-3.921-0.411
		c0.253,0.662,0.956,1.189,1.734,1.35c-1.03,0.578-1.806,1.34-2.632,2.514c-0.643-1.381-1.744-2.161-2.958-2.54
		c0.859-0.181,1.627-0.686,1.917-1.319c-1.045,0.811-2.685,0.82-3.892,0.57c-0.297-0.332-0.596-0.659-0.896-0.982
		c-0.434-1.988-1.448-4.323-3.286-6.281c0.2-0.343,0.424-0.674,0.676-0.989c1.625-2.032,4.094-3.147,6.829-3.147
		c0.609,0,1.231,0.055,1.859,0.167c1.911,0.342,3.328,1.283,4.212,2.795C52.724,61.167,52.373,64.638,51.611,66.926z M56.722,59.925
		c-0.022-0.017-0.05-0.021-0.073-0.037v-4.801c0.052,0,0.098-0.011,0.149-0.013v4.812C56.774,59.903,56.745,59.907,56.722,59.925z
		 M58.769,42.847c0.008,0,0.016,0.001,0.024,0.001c0.017,0,0.035-0.001,0.052-0.001c0.401,0.171,0.805,0.333,1.214,0.487v1.608
		C59.679,44.19,59.251,43.488,58.769,42.847z M54.37,31.776c-0.608,0-1.104,0.495-1.104,1.103s0.495,1.103,1.104,1.103
		c0.607,0,1.102-0.495,1.102-1.103c0-0.237-0.091-0.445-0.219-0.625c0.242,0.304,0.515,0.59,0.82,0.853
		c-0.374,0.177-0.637,0.551-0.637,0.991c0,0.232,0.08,0.448,0.21,0.63l-0.273,0.065c-4.328-2.176-11.504-9.784-13.263-12.398
		l1.088-0.666h7.227c1.123,0.78,1.867,1.833,2.275,3.215c0.145,0.492,0.269,1.079,0.399,1.7c0.36,1.711,0.806,3.803,2.022,5.436
		C54.923,31.895,54.661,31.776,54.37,31.776z M57.64,34.084c0.082,0.036,0.159,0.077,0.245,0.11l-0.265,0.063
		c0.008-0.053,0.022-0.106,0.022-0.16C57.641,34.093,57.64,34.089,57.64,34.084z M27.031,43.117c-0.4,0.563-0.751,1.182-1.076,1.826
		v-4.124C26.12,41.825,26.472,42.601,27.031,43.117z M28.375,64.471c-0.083-0.036-0.16-0.077-0.247-0.111l0.267-0.064
		c-0.008,0.053-0.022,0.106-0.022,0.16C28.374,64.461,28.375,64.465,28.375,64.471z M58.983,55.436
		c0.4-0.563,0.75-1.181,1.075-1.825v4.114C59.892,56.724,59.54,55.951,58.983,55.436z M60.058,39.08
		c-1.853-0.578-4.167-1.496-6.719-3.359l1.216-0.29l2.379-0.568l0.41-0.098c0,0,0,0,0.001,0l1.375-0.328
		c0.096-0.022,0.163-0.107,0.165-0.206s-0.063-0.185-0.158-0.211c-0.476-0.13-0.904-0.299-1.291-0.499
		c-0.003-0.002-0.004-0.005-0.007-0.007c-0.265-0.139-0.516-0.297-0.748-0.468c-2.117-1.552-2.69-4.236-3.163-6.489
		c-0.133-0.63-0.258-1.225-0.408-1.733c-0.38-1.289-1.054-2.297-2.015-3.093h8.962V39.08z M42.373,21.73l-0.681,0.417
		c0,0,0,0-0.001,0l-1.333,0.816c0,0-0.001,0-0.001,0l-1.534,0.939c-0.097,0.06-0.131,0.184-0.078,0.284
		c0.086,0.162,0.184,0.332,0.28,0.5c-1.676,0.568-2.999,1.677-3.874,3.218c-0.108-0.631-0.508-1.201-1.131-1.497
		c-0.439-0.209-0.917-0.245-1.356-0.137v0c-0.006,0.001-0.011,0.003-0.016,0.004l-1.07,0.249l0.684-0.859
		c0.003-0.004,0.007-0.008,0.009-0.013l0.001,0c0.285-0.35,0.457-0.798,0.457-1.284c0-1.123-0.91-2.033-2.034-2.033
		s-2.034,0.911-2.034,2.033c0,0.487,0.171,0.934,0.457,1.284l0.001,0c0.002,0.004,0.006,0.008,0.009,0.013l0.683,0.859l-1.069-0.249
		c-0.005-0.001-0.01-0.003-0.015-0.004l-0.001,0c-0.439-0.108-0.916-0.072-1.356,0.137c-1.015,0.482-1.448,1.694-0.966,2.709
		c0.48,1.015,1.694,1.448,2.709,0.966c0.44-0.209,0.77-0.555,0.964-0.964c0.002-0.005,0.006-0.01,0.007-0.015l0.421-0.857v0.965
		c0,0.914-0.448,2.845-1.518,3.259h3.415c-1.07-0.414-1.517-2.345-1.517-3.259v-0.965l0.419,0.857
		c0.002,0.005,0.006,0.009,0.007,0.015h0.001c0.193,0.408,0.523,0.755,0.964,0.964c0.688,0.326,1.461,0.225,2.041-0.185
		c-0.124,0.459-0.217,0.942-0.279,1.447c-0.162,0.468-0.301,0.998-0.418,1.552c-0.759,0.482-1.415,1.019-1.975,1.605
		c-0.063-0.099-0.135-0.194-0.22-0.279c-0.582-0.581-1.501-0.626-2.135-0.134c-0.632-0.492-1.552-0.447-2.136,0.134
		c-0.306,0.306-0.474,0.711-0.474,1.144c0,0.364,0.119,0.709,0.34,0.991c-0.221,0.283-0.34,0.628-0.34,0.992
		c0,0.432,0.168,0.838,0.474,1.144c0.442,0.44,1.075,0.57,1.631,0.396v2.227v0.02c-0.036,0.033-0.069,0.07-0.104,0.103
		c-0.002-0.003-0.003-0.007-0.005-0.01c-0.623-1.216-1.672-1.804-2.542-2.151c-0.06-0.023-0.125-0.011-0.18,0.019V21.73H42.373z
		 M25.955,59.474c1.853,0.578,4.167,1.496,6.719,3.359l-1.48,0.353l-3.903,0.931c-0.096,0.022-0.164,0.107-0.165,0.206
		c-0.002,0.098,0.063,0.185,0.158,0.211c0.477,0.131,0.906,0.3,1.294,0.5c0.003,0.001,0.003,0.005,0.006,0.006
		c0.259,0.136,0.509,0.294,0.745,0.467c2.119,1.552,2.691,4.238,3.165,6.492c0.133,0.629,0.258,1.224,0.407,1.732
		c0.38,1.289,1.054,2.297,2.015,3.093h-8.962V59.474z M43.641,76.824l3.551-2.172c0.097-0.06,0.131-0.184,0.078-0.284
		c-0.086-0.162-0.184-0.332-0.28-0.5c1.702-0.577,3.039-1.712,3.913-3.29c0.108,0.631,0.508,1.202,1.13,1.497
		c0.44,0.209,0.919,0.245,1.356,0.137l0.001,0c0.006-0.001,0.01-0.002,0.016-0.004l1.07-0.249l-0.684,0.86
		c-0.003,0.004-0.006,0.008-0.009,0.012l-0.001,0.001c-0.285,0.35-0.457,0.797-0.457,1.284c0,1.123,0.91,2.034,2.034,2.034
		c1.124,0,2.034-0.911,2.034-2.034c0-0.487-0.172-0.934-0.457-1.284l-0.001-0.001c-0.003-0.004-0.007-0.008-0.009-0.012l-0.684-0.86
		l1.07,0.249c0.005,0.001,0.01,0.002,0.015,0.004l0.001,0c0.438,0.108,0.916,0.072,1.356-0.137c1.015-0.482,1.448-1.694,0.966-2.709
		c-0.48-1.015-1.694-1.447-2.709-0.966c-0.44,0.209-0.77,0.556-0.964,0.964c-0.002,0.005-0.006,0.01-0.007,0.015l-0.421,0.856
		v-0.965c0-0.914,0.448-2.845,1.517-3.259H53.65c1.069,0.414,1.517,2.345,1.517,3.259v0.965l-0.42-0.856
		c-0.002-0.005-0.005-0.009-0.007-0.015h-0.001c-0.193-0.408-0.522-0.755-0.963-0.964c-0.697-0.33-1.483-0.222-2.065,0.203
		c0.117-0.443,0.205-0.908,0.264-1.393c0.162-0.468,0.301-0.998,0.418-1.553c0.766-0.487,1.428-1.028,1.991-1.621
		c0.063,0.101,0.115,0.208,0.203,0.296c0,0,0,0,0,0c0.315,0.315,0.729,0.472,1.144,0.472c0.351,0,0.701-0.113,0.992-0.338
		c0.635,0.492,1.554,0.448,2.136-0.135c0.581-0.582,0.626-1.501,0.134-2.135c0.492-0.634,0.447-1.553-0.134-2.135
		c-0.44-0.439-1.073-0.57-1.631-0.395v-2.229v-0.019c0.036-0.033,0.069-0.07,0.104-0.103c0.002,0.003,0.003,0.007,0.004,0.01
		c0.623,1.217,1.673,1.805,2.544,2.152c0.025,0.01,0.052,0.015,0.079,0.015c0.035,0,0.068-0.013,0.099-0.03v17.364H43.641z"/>
	<path d="M42.087,39.453c-2.065-0.577-4.8-0.462-5.687,0.018c-0.104,0.056-0.144,0.187-0.087,0.291
		c0.057,0.106,0.187,0.143,0.292,0.087c0.728-0.393,3.301-0.559,5.366,0.018c0.02,0.005,0.039,0.008,0.058,0.008
		c0.094,0,0.181-0.062,0.207-0.157C42.269,39.603,42.202,39.484,42.087,39.453z"/>
	<path d="M40.199,40.533c-0.276,0.241-0.791,0.353-1.288,0.275c-0.338-0.053-0.604-0.189-0.71-0.365
		c-0.061-0.102-0.192-0.132-0.295-0.073c-0.102,0.062-0.134,0.194-0.072,0.295c0.176,0.292,0.535,0.493,1.012,0.567
		c0.126,0.02,0.254,0.029,0.38,0.029c0.492,0,0.96-0.146,1.257-0.405c0.089-0.078,0.099-0.214,0.021-0.304
		C40.422,40.464,40.289,40.455,40.199,40.533z"/>
	<path class="st0" d="M56.798,55.074c-0.051,0.002-0.097,0.012-0.149,0.013v4.801c0.023,0.016,0.051,0.02,0.073,0.037
		c0.023-0.018,0.052-0.023,0.076-0.039V55.074z"/>
	<path class="st0" d="M56.624,48.215c-1.948,0-3.258,1.295-3.258,3.222c0,0.609,0.143,1.145,0.384,1.606
		c0.094,0.18,0.203,0.345,0.326,0.497c0.034,0.042,0.065,0.085,0.102,0.125c0.139,0.153,0.295,0.288,0.464,0.407
		c0.027,0.019,0.048,0.042,0.076,0.06c0.422,0.277,0.927,0.451,1.496,0.507c0.049,0.004,0.097,0.009,0.141,0.009
		c0.203-0.001,0.44-0.05,0.493-0.278c0.046-0.202-0.065-0.425-0.197-0.49c-0.536-0.265-0.944-0.706-1.181-1.276
		c-0.022-0.054-0.022-0.115,0.001-0.168c0.186-0.426,0.094-1-0.218-1.363c-0.15-0.174-0.485-0.447-1.019-0.306
		c-0.119,0.03-0.233-0.039-0.263-0.154c-0.03-0.115,0.039-0.232,0.153-0.262c0.556-0.146,1.089,0.015,1.454,0.442
		c0.398,0.465,0.524,1.16,0.321,1.725c0.251,0.546,0.646,0.832,0.94,0.977c0.322,0.159,0.513,0.595,0.426,0.972
		c-0.011,0.048-0.037,0.087-0.056,0.13c1.922-0.305,2.247-2.062,2.247-3.159C59.457,50.234,59.088,48.215,56.624,48.215z"/>
	<path class="st0" d="M47.625,35.065c0.665,1.398,2.487,3.427,4.412,4.402c0.105,0.054,0.147,0.183,0.094,0.289
		c-0.037,0.075-0.113,0.118-0.191,0.118c-0.033,0-0.066-0.007-0.098-0.023c-2.069-1.05-4.041-3.283-4.681-4.75
		c-0.047-0.109,0.003-0.235,0.111-0.283c0.031-0.014,0.062-0.003,0.094-0.002c-0.558-0.541-1.132-1.122-1.709-1.727
		c1.116,3.953,4.555,8.884,12.156,9.285c-2.627-1.246-5.142-2.911-7.816-5.177c-0.005-0.004-0.011-0.005-0.016-0.009
		c-0.355-0.302-0.713-0.614-1.073-0.935c-0.043-0.038-0.084-0.071-0.126-0.11C48.411,35.809,48.022,35.446,47.625,35.065z"/>
	<path class="st0" d="M34.505,31.094c2.174-0.689,3.276-1.54,4.583-3.485c0.045-0.066,0.122-0.102,0.203-0.093
		c0.08,0.009,0.148,0.062,0.177,0.137c0.772,2.039,2.452,2.69,3.849,2.858c-0.27-0.313-0.536-0.627-0.797-0.942
		c-1.289-1.559-2.442-3.122-3.282-4.517C37.418,25.644,35.089,27.167,34.505,31.094z M38.811,26.356
		c0.114,0.035,0.178,0.155,0.144,0.268c-0.265,0.869-2.298,2.916-3.398,3.423c-0.029,0.013-0.06,0.02-0.09,0.02
		c-0.081,0-0.159-0.046-0.195-0.125c-0.05-0.108-0.003-0.235,0.105-0.285c0.982-0.453,2.936-2.401,3.166-3.158
		C38.577,26.385,38.697,26.321,38.811,26.356z M35.601,28.349c0.3-0.522,1.21-1.594,1.588-1.945c0.088-0.08,0.223-0.076,0.305,0.012
		c0.08,0.087,0.075,0.223-0.012,0.304c-0.353,0.326-1.23,1.36-1.508,1.844c-0.04,0.069-0.112,0.108-0.187,0.108
		c-0.036,0-0.073-0.009-0.107-0.028C35.578,28.584,35.543,28.452,35.601,28.349z"/>
	<path class="st2" d="M57.884,34.194c-0.086-0.033-0.162-0.074-0.245-0.11c0,0.005,0.002,0.009,0.002,0.014
		c0,0.054-0.014,0.106-0.022,0.16L57.884,34.194z"/>
	<path class="st2" d="M53.098,26.645c-0.131-0.622-0.255-1.208-0.399-1.7c-0.408-1.382-1.152-2.435-2.275-3.215h-7.227l-1.088,0.666
		c1.759,2.614,8.935,10.222,13.263,12.398l0.273-0.065c-0.13-0.183-0.21-0.398-0.21-0.63c0-0.44,0.263-0.814,0.637-0.991
		c-0.305-0.263-0.578-0.548-0.82-0.853c0.128,0.18,0.219,0.388,0.219,0.625c0,0.608-0.494,1.103-1.102,1.103
		c-0.608,0-1.104-0.495-1.104-1.103s0.495-1.103,1.104-1.103c0.292,0,0.553,0.119,0.751,0.304
		C53.904,30.448,53.458,28.356,53.098,26.645z M43.577,23.436c0-0.608,0.495-1.103,1.104-1.103s1.104,0.495,1.104,1.103
		s-0.495,1.103-1.104,1.103S43.577,24.044,43.577,23.436z M46.457,26.776c-0.608,0-1.103-0.495-1.103-1.103s0.494-1.103,1.103-1.103
		s1.104,0.495,1.104,1.103S47.065,26.776,46.457,26.776z M48.41,28.671c-0.608,0-1.104-0.495-1.104-1.103
		c0-0.608,0.495-1.103,1.104-1.103c0.607,0,1.102,0.495,1.102,1.103C49.511,28.176,49.017,28.671,48.41,28.671z M50.375,30.546
		c-0.608,0-1.103-0.495-1.103-1.103c0-0.608,0.494-1.103,1.103-1.103s1.104,0.495,1.104,1.103
		C51.478,30.052,50.983,30.546,50.375,30.546z M52.326,32.389c-0.608,0-1.103-0.495-1.103-1.103s0.494-1.103,1.103-1.103
		c0.607,0,1.102,0.495,1.102,1.103S52.933,32.389,52.326,32.389z"/>
	<path class="st1" d="M51.268,34.62l-0.48-0.423c-3.1-2.73-8.251-7.268-10.391-10.753l-1.177,0.72
		c2.079,3.811,6.981,9.086,9.85,11.66c3.813,3.423,7.215,5.609,10.988,7.055v-0.512v-2.833
		C57.724,38.815,54.643,37.596,51.268,34.62z"/>
	<path class="st2" d="M27.111,37.351c0,0.317,0.124,0.616,0.349,0.839c0.461,0.461,1.214,0.463,1.679,0
		c0.042-0.042,0.098-0.063,0.152-0.063s0.11,0.021,0.152,0.063c0.463,0.462,1.215,0.462,1.678,0c0.463-0.463,0.463-1.216,0-1.68
		c-0.04-0.04-0.063-0.095-0.063-0.152s0.022-0.112,0.063-0.152c0.225-0.224,0.349-0.522,0.349-0.839
		c-0.001-0.317-0.124-0.615-0.349-0.838v0c-0.463-0.462-1.215-0.462-1.678,0c-0.084,0.084-0.221,0.084-0.305,0
		c-0.464-0.462-1.217-0.462-1.679,0c-0.225,0.224-0.349,0.522-0.349,0.839s0.124,0.615,0.349,0.839
		c0.04,0.041,0.063,0.095,0.063,0.152s-0.022,0.112-0.063,0.152C27.235,36.735,27.111,37.034,27.111,37.351z M29.291,35.153
		c0.665,0,1.206,0.541,1.206,1.206c0,0.666-0.541,1.207-1.206,1.207c-0.666,0-1.207-0.542-1.207-1.207
		C28.084,35.694,28.625,35.153,29.291,35.153z"/>
	<path class="st0" d="M29.291,37.136c0.428,0,0.776-0.349,0.776-0.777c0-0.428-0.349-0.776-0.776-0.776
		c-0.429,0-0.777,0.348-0.777,0.776C28.513,36.788,28.862,37.136,29.291,37.136z"/>
	<path d="M29.291,37.566c0.665,0,1.206-0.542,1.206-1.207c0-0.665-0.541-1.206-1.206-1.206c-0.666,0-1.207,0.541-1.207,1.206
		C28.084,37.024,28.625,37.566,29.291,37.566z M29.291,35.583c0.428,0,0.776,0.348,0.776,0.776c0,0.429-0.349,0.777-0.776,0.777
		c-0.429,0-0.777-0.349-0.777-0.777C28.513,35.931,28.862,35.583,29.291,35.583z"/>
	<path class="st7" d="M26.269,39.603c0.034,2.349,0.858,3.612,2.513,3.848C28.703,41.09,27.459,40.134,26.269,39.603z"/>
	<path class="st7" d="M29.799,43.451c1.654-0.236,2.479-1.499,2.513-3.848C31.123,40.134,29.878,41.09,29.799,43.451z"/>
	<circle cx="44.68" cy="23.436" r="1.103"/>
	<path d="M46.457,24.571c-0.608,0-1.103,0.495-1.103,1.103s0.494,1.103,1.103,1.103s1.104-0.495,1.104-1.103
		S47.065,24.571,46.457,24.571z"/>
	<path d="M48.41,26.465c-0.608,0-1.104,0.495-1.104,1.103c0,0.608,0.495,1.103,1.104,1.103c0.607,0,1.102-0.495,1.102-1.103
		C49.511,26.96,49.017,26.465,48.41,26.465z"/>
	<path d="M50.375,28.341c-0.608,0-1.103,0.495-1.103,1.103c0,0.608,0.494,1.103,1.103,1.103s1.104-0.495,1.104-1.103
		C51.478,28.835,50.983,28.341,50.375,28.341z"/>
	<path d="M52.326,30.184c-0.608,0-1.103,0.495-1.103,1.103s0.494,1.103,1.103,1.103c0.607,0,1.102-0.495,1.102-1.103
		S52.933,30.184,52.326,30.184z"/>
	<path d="M35.377,29.657c-0.108,0.05-0.155,0.177-0.105,0.285c0.036,0.079,0.114,0.125,0.195,0.125c0.03,0,0.061-0.006,0.09-0.02
		c1.101-0.507,3.134-2.555,3.398-3.423c0.034-0.113-0.029-0.233-0.144-0.268c-0.114-0.035-0.234,0.029-0.269,0.143
		C38.312,27.256,36.359,29.204,35.377,29.657z"/>
	<path d="M35.788,28.671c0.074,0,0.146-0.039,0.187-0.108c0.277-0.483,1.155-1.518,1.508-1.844c0.087-0.081,0.092-0.217,0.012-0.304
		c-0.082-0.088-0.217-0.092-0.305-0.012c-0.378,0.351-1.288,1.423-1.588,1.945c-0.059,0.103-0.023,0.234,0.079,0.293
		C35.714,28.662,35.752,28.671,35.788,28.671z"/>
	<path class="st0" d="M49.337,64.126c-0.085,0-0.154,0.069-0.154,0.155s0.069,0.155,0.154,0.155c0.086,0,0.155-0.069,0.155-0.155
		S49.422,64.126,49.337,64.126z"/>
	<path class="st0" d="M41.522,63.783c0.314,1.074,1.521,1.586,2.577,1.577c0.866-0.024,1.844-0.423,2.065-1.463
		C44.764,62.964,42.655,63.257,41.522,63.783z M43.941,64.281c0,0.322-0.263,0.584-0.585,0.584s-0.584-0.262-0.584-0.584
		c0-0.322,0.262-0.584,0.584-0.584S43.941,63.959,43.941,64.281z"/>
	<path class="st0" d="M43.202,64.281c0,0.085,0.069,0.155,0.154,0.155c0.086,0,0.155-0.069,0.155-0.155s-0.069-0.155-0.155-0.155
		C43.271,64.126,43.202,64.196,43.202,64.281z"/>
	<path class="st0" d="M51.726,63.796c-0.967-0.522-2.73-0.827-3.829,0.068c0.266,1.134,1.23,1.51,1.968,1.481
		C50.676,65.317,51.545,64.826,51.726,63.796z M49.337,64.866c-0.322,0-0.584-0.262-0.584-0.584c0-0.322,0.262-0.584,0.584-0.584
		s0.585,0.262,0.585,0.584C49.921,64.604,49.659,64.866,49.337,64.866z"/>
	<path class="st0" d="M51.253,58.652c-0.884-1.512-2.301-2.453-4.212-2.795c-0.628-0.112-1.25-0.167-1.859-0.167
		c-2.735,0-5.204,1.115-6.829,3.147c-0.252,0.316-0.477,0.647-0.676,0.989c1.838,1.959,2.852,4.293,3.286,6.281
		c0.3,0.323,0.599,0.65,0.896,0.982c1.207,0.25,2.847,0.241,3.892-0.57c-0.29,0.633-1.058,1.138-1.917,1.319
		c1.214,0.38,2.315,1.16,2.958,2.54c0.827-1.174,1.603-1.936,2.632-2.514c-0.778-0.16-1.481-0.688-1.734-1.35
		c1.068,0.977,2.892,0.807,3.921,0.411C52.373,64.638,52.724,61.167,51.253,58.652z M45.531,57.696
		c0.372-0.326,1.009-0.473,1.639-0.375c0.475,0.074,0.834,0.275,1.01,0.567c0.062,0.102,0.029,0.234-0.072,0.295
		c-0.035,0.021-0.073,0.031-0.111,0.031c-0.072,0-0.144-0.037-0.184-0.104c-0.106-0.176-0.372-0.312-0.709-0.365
		c-0.496-0.077-1.012,0.034-1.289,0.274c-0.091,0.078-0.226,0.068-0.304-0.021S45.442,57.774,45.531,57.696z M44.042,58.687
		c2.066,0.578,4.64,0.412,5.366,0.018c0.105-0.055,0.235-0.019,0.292,0.087c0.057,0.104,0.018,0.235-0.087,0.291
		c-0.472,0.255-1.465,0.407-2.601,0.407c-1.004,0-2.118-0.119-3.086-0.389c-0.114-0.032-0.182-0.15-0.149-0.265
		C43.809,58.721,43.929,58.657,44.042,58.687z M44.111,65.79c-0.031,0.001-0.063,0.001-0.095,0.001
		c-1.274,0-2.676-0.703-2.955-2.082c-0.019-0.093,0.026-0.188,0.111-0.233c1.245-0.653,3.73-1.041,5.354,0.149
		c0.064,0.047,0.098,0.125,0.086,0.205C46.445,64.983,45.462,65.753,44.111,65.79z M49.791,65.777c-1.001,0-2.092-0.595-2.342-1.954
		c-0.013-0.073,0.013-0.148,0.067-0.198c1.313-1.192,3.454-0.793,4.555-0.127c0.071,0.043,0.111,0.125,0.103,0.208
		c-0.152,1.372-1.295,2.035-2.293,2.07C49.85,65.777,49.821,65.777,49.791,65.777z"/>
	<path d="M41.172,63.477c-0.085,0.044-0.13,0.14-0.111,0.233c0.279,1.379,1.681,2.082,2.955,2.082c0.032,0,0.063,0,0.095-0.001
		c1.352-0.037,2.334-0.807,2.502-1.959c0.012-0.079-0.021-0.158-0.086-0.205C44.903,62.436,42.418,62.823,41.172,63.477z
		 M44.099,65.36c-1.056,0.009-2.263-0.503-2.577-1.577c1.133-0.526,3.242-0.819,4.643,0.114
		C45.943,64.937,44.965,65.336,44.099,65.36z"/>
	<path d="M52.173,63.706c0.009-0.083-0.031-0.164-0.103-0.208c-1.101-0.666-3.242-1.065-4.555,0.127
		c-0.055,0.05-0.08,0.125-0.067,0.198c0.25,1.359,1.341,1.954,2.342,1.954c0.03,0,0.06,0,0.09-0.001
		C50.878,65.74,52.021,65.077,52.173,63.706z M49.865,65.346c-0.737,0.029-1.702-0.348-1.968-1.481
		c1.099-0.895,2.862-0.591,3.829-0.068C51.545,64.826,50.676,65.317,49.865,65.346z"/>
	<path d="M42.772,64.281c0,0.322,0.262,0.584,0.584,0.584s0.585-0.262,0.585-0.584c0-0.322-0.263-0.584-0.585-0.584
		S42.772,63.959,42.772,64.281z M43.511,64.281c0,0.085-0.069,0.155-0.155,0.155c-0.085,0-0.154-0.069-0.154-0.155
		s0.069-0.155,0.154-0.155C43.442,64.126,43.511,64.196,43.511,64.281z"/>
	<path d="M49.337,63.697c-0.322,0-0.584,0.262-0.584,0.584c0,0.322,0.262,0.584,0.584,0.584s0.585-0.262,0.585-0.584
		C49.921,63.959,49.659,63.697,49.337,63.697z M49.337,64.436c-0.085,0-0.154-0.069-0.154-0.155s0.069-0.155,0.154-0.155
		c0.086,0,0.155,0.069,0.155,0.155S49.422,64.436,49.337,64.436z"/>
	<path d="M43.926,59.101c0.968,0.271,2.082,0.389,3.086,0.389c1.136,0,2.129-0.152,2.601-0.407c0.104-0.056,0.144-0.187,0.087-0.291
		c-0.057-0.106-0.187-0.142-0.292-0.087c-0.727,0.394-3.3,0.56-5.366-0.018c-0.112-0.03-0.232,0.035-0.265,0.149
		C43.745,58.95,43.812,59.069,43.926,59.101z"/>
	<path d="M45.51,58c0.078,0.089,0.213,0.099,0.304,0.021c0.277-0.241,0.793-0.352,1.289-0.274c0.337,0.053,0.603,0.189,0.709,0.365
		c0.04,0.067,0.111,0.104,0.184,0.104c0.038,0,0.076-0.01,0.111-0.031c0.102-0.062,0.134-0.194,0.072-0.295
		c-0.176-0.292-0.535-0.493-1.01-0.567c-0.63-0.098-1.267,0.049-1.639,0.375C45.442,57.774,45.432,57.91,45.51,58z"/>
	<path class="st0" d="M28.197,56.178c2.627,1.245,5.144,2.911,7.819,5.178c0.005,0.004,0.011,0.006,0.016,0.009
		c0.396,0.337,0.794,0.682,1.199,1.044c0.373,0.334,0.762,0.698,1.159,1.079c-0.667-1.398-2.49-3.428-4.412-4.404
		c-0.105-0.054-0.147-0.183-0.094-0.289c0.053-0.106,0.185-0.147,0.289-0.095c2.066,1.049,4.039,3.282,4.681,4.75
		c0.047,0.108-0.002,0.235-0.111,0.283c-0.026,0.012-0.053,0.016-0.08,0.017c0.553,0.537,1.122,1.113,1.694,1.713
		C39.24,61.512,35.802,56.589,28.197,56.178z"/>
	<path class="st0" d="M51.508,67.459c-2.175,0.689-3.277,1.54-4.582,3.485c-0.045,0.066-0.127,0.099-0.203,0.094
		c-0.08-0.009-0.148-0.063-0.177-0.138c-0.774-2.039-2.455-2.691-3.851-2.86c1.604,1.863,3.071,3.783,4.08,5.461
		C48.597,72.91,50.925,71.387,51.508,67.459z M47.265,72.207c-0.021,0-0.042-0.003-0.063-0.009
		c-0.113-0.034-0.178-0.154-0.144-0.268c0.264-0.869,2.297-2.917,3.398-3.423c0.106-0.049,0.234-0.003,0.285,0.105
		c0.05,0.108,0.002,0.235-0.105,0.285c-0.983,0.453-2.937,2.4-3.166,3.158C47.443,72.147,47.358,72.207,47.265,72.207z
		 M50.412,70.205c-0.297,0.519-1.206,1.592-1.587,1.945c-0.042,0.038-0.094,0.057-0.146,0.057c-0.058,0-0.115-0.023-0.157-0.068
		c-0.081-0.087-0.076-0.223,0.011-0.304c0.354-0.329,1.232-1.364,1.507-1.844c0.06-0.104,0.191-0.14,0.293-0.08
		C50.435,69.97,50.47,70.102,50.412,70.205z"/>
	<path class="st2" d="M30.642,63.76l-0.274,0.065c0.13,0.183,0.21,0.398,0.21,0.63c0,0.44-0.263,0.815-0.637,0.991
		c0.304,0.262,0.576,0.546,0.817,0.849c-0.126-0.179-0.217-0.386-0.217-0.621c0-0.608,0.495-1.103,1.104-1.103
		s1.103,0.495,1.103,1.103c0,0.608-0.494,1.103-1.103,1.103c-0.292,0-0.554-0.119-0.752-0.304c1.217,1.633,1.662,3.726,2.022,5.438
		c0.131,0.621,0.254,1.207,0.398,1.699c0.408,1.382,1.152,2.434,2.275,3.214h7.228l1.087-0.665
		C42.146,73.544,34.969,65.935,30.642,63.76z M33.689,68.37c-0.608,0-1.104-0.495-1.104-1.103s0.495-1.103,1.104-1.103
		s1.103,0.495,1.103,1.103S34.297,68.37,33.689,68.37z M35.638,70.213c-0.608,0-1.103-0.495-1.103-1.103
		c0-0.608,0.494-1.103,1.103-1.103s1.103,0.495,1.103,1.103C36.741,69.718,36.247,70.213,35.638,70.213z M37.604,72.088
		c-0.608,0-1.103-0.495-1.103-1.103c0-0.608,0.494-1.103,1.103-1.103c0.607,0,1.102,0.495,1.102,1.103
		C38.706,71.594,38.212,72.088,37.604,72.088z M38.454,72.88c0-0.608,0.494-1.103,1.103-1.103s1.103,0.495,1.103,1.103
		s-0.494,1.103-1.103,1.103S38.454,73.488,38.454,72.88z M41.334,76.22c-0.608,0-1.104-0.495-1.104-1.103s0.495-1.103,1.104-1.103
		s1.103,0.495,1.103,1.103S41.942,76.22,41.334,76.22z"/>
	<path class="st2" d="M28.128,64.359c0.086,0.034,0.164,0.075,0.247,0.111c0-0.005-0.002-0.01-0.002-0.015
		c0-0.054,0.014-0.107,0.022-0.16L28.128,64.359z"/>
	<path class="st1" d="M37.504,63.244c-0.194-0.181-0.381-0.352-0.56-0.513c-3.815-3.424-7.218-5.61-10.989-7.054v0.512v2.833
		c2.334,0.718,5.415,1.937,8.791,4.914l0.479,0.423c3.101,2.73,8.252,7.268,10.391,10.753l1.178-0.72
		C44.843,70.817,40.413,65.957,37.504,63.244z"/>
	<path class="st2" d="M58.554,60.363c-0.462-0.462-1.216-0.463-1.68,0c-0.084,0.083-0.221,0.083-0.305,0
		c-0.447-0.448-1.23-0.45-1.678,0c-0.463,0.463-0.463,1.216,0,1.679c0.084,0.084,0.084,0.22,0,0.304
		c-0.463,0.463-0.463,1.216,0,1.68c0.462,0.46,1.215,0.463,1.679,0c0.084-0.083,0.221-0.083,0.305,0
		c0.464,0.464,1.217,0.462,1.679,0c0.463-0.463,0.463-1.216,0-1.679c-0.084-0.084-0.084-0.22,0-0.304
		C59.017,61.58,59.017,60.826,58.554,60.363z M56.723,63.401c-0.666,0-1.207-0.541-1.207-1.207s0.541-1.207,1.207-1.207
		c0.665,0,1.206,0.541,1.206,1.207S57.388,63.401,56.723,63.401z"/>
	<path class="st0" d="M57.5,62.194c0-0.428-0.349-0.777-0.776-0.777c-0.429,0-0.777,0.349-0.777,0.777s0.349,0.777,0.777,0.777
		C57.151,62.971,57.5,62.623,57.5,62.194z"/>
	<path d="M56.723,60.988c-0.666,0-1.207,0.541-1.207,1.207s0.541,1.207,1.207,1.207c0.665,0,1.206-0.541,1.206-1.207
		S57.388,60.988,56.723,60.988z M55.946,62.194c0-0.428,0.349-0.777,0.777-0.777c0.428,0,0.776,0.349,0.776,0.777
		s-0.349,0.777-0.776,0.777C56.295,62.971,55.946,62.623,55.946,62.194z"/>
	<path class="st7" d="M59.745,58.951c-0.033-2.349-0.857-3.611-2.513-3.848C57.311,57.464,58.555,58.42,59.745,58.951z"/>
	<path class="st7" d="M56.215,55.103c-1.655,0.236-2.479,1.499-2.513,3.848C54.892,58.42,56.136,57.464,56.215,55.103z"/>
	<path d="M41.334,74.015c-0.608,0-1.104,0.495-1.104,1.103s0.495,1.103,1.104,1.103s1.103-0.495,1.103-1.103
		S41.942,74.015,41.334,74.015z"/>
	<circle cx="39.556" cy="72.88" r="1.103"/>
	<path d="M37.604,69.883c-0.608,0-1.103,0.495-1.103,1.103c0,0.608,0.494,1.103,1.103,1.103c0.607,0,1.102-0.495,1.102-1.103
		C38.706,70.377,38.212,69.883,37.604,69.883z"/>
	<path d="M35.638,68.007c-0.608,0-1.103,0.495-1.103,1.103c0,0.608,0.494,1.103,1.103,1.103s1.103-0.495,1.103-1.103
		C36.741,68.502,36.247,68.007,35.638,68.007z"/>
	<path d="M33.689,66.165c-0.608,0-1.104,0.495-1.104,1.103s0.495,1.103,1.104,1.103s1.103-0.495,1.103-1.103
		S34.297,66.165,33.689,66.165z"/>
	<path d="M50.637,68.897c0.107-0.05,0.155-0.177,0.105-0.285c-0.051-0.108-0.179-0.154-0.285-0.105
		c-1.102,0.507-3.135,2.555-3.398,3.423c-0.034,0.114,0.03,0.234,0.144,0.268c0.021,0.006,0.042,0.009,0.063,0.009
		c0.093,0,0.178-0.06,0.206-0.152C47.701,71.297,49.654,69.35,50.637,68.897z"/>
	<path d="M50.039,69.991c-0.274,0.48-1.152,1.515-1.507,1.844c-0.087,0.081-0.092,0.217-0.011,0.304
		c0.042,0.045,0.1,0.068,0.157,0.068c0.053,0,0.104-0.019,0.146-0.057c0.381-0.354,1.29-1.427,1.587-1.945
		c0.059-0.103,0.023-0.234-0.08-0.293C50.23,69.851,50.098,69.887,50.039,69.991z"/>
</g>
</svg>
