<?xml version="1.0" encoding="utf-8"?>
<!-- Generator: Adobe Illustrator 23.0.2, SVG Export Plug-In . SVG Version: 6.00 Build 0)  -->
<svg version="1.1" id="Layer_1" xmlns="http://www.w3.org/2000/svg" xmlns:xlink="http://www.w3.org/1999/xlink" x="0px" y="0px"
	 viewBox="0 0 82.452 99.776" style="enable-background:new 0 0 82.452 99.776;" xml:space="preserve">
<style type="text/css">
	.st0{fill:#FFFFFF;}
	.st1{fill:#ED1C24;}
	.st2{fill:#FFCB05;}
	.st3{fill:#21409A;}
	.st4{fill:#D4D5D6;}
	.st5{fill:#000100;}
	.st6{fill:#300505;}
	.st7{fill:#BFD730;}
	.st8{fill:#F15A22;}
</style>
<g>
	<path class="st0" d="M61.58,54.419c-0.325,0.643-0.675,1.261-1.075,1.824c0.557,0.514,0.908,1.287,1.075,2.289V54.419z"/>
	<path class="st0" d="M27.476,45.75c0.325-0.644,0.675-1.262,1.076-1.825c-0.558-0.515-0.91-1.289-1.076-2.293V45.75z"/>
	<path class="st0" d="M54.632,25.63c0.15,0.508,0.275,1.104,0.408,1.733c0.473,2.253,1.046,4.937,3.163,6.489
		c0.235,0.173,0.486,0.331,0.748,0.467c0.004,0.002,0.005,0.007,0.009,0.009c0.387,0.2,0.814,0.368,1.289,0.499
		c0.095,0.026,0.16,0.113,0.158,0.211s-0.069,0.183-0.165,0.206l-4.165,0.994l-1.216,0.29c2.552,1.863,4.865,2.782,6.719,3.359
		v-17.35h-8.962C53.578,23.333,54.252,24.341,54.632,25.63z"/>
	<path class="st0" d="M34.423,74.538c-0.149-0.508-0.274-1.103-0.407-1.732c-0.474-2.256-1.046-4.943-3.168-6.494
		c-0.239-0.174-0.487-0.331-0.743-0.465c-0.003-0.001-0.003-0.005-0.006-0.006c-0.388-0.201-0.817-0.37-1.294-0.5
		c-0.095-0.026-0.16-0.113-0.158-0.211c0.001-0.098,0.069-0.183,0.165-0.206l1.376-0.328c0,0,0.001-0.001,0.001-0.001l1.226-0.292
		c0.001,0,0.001,0,0.002,0l0.727-0.173c0,0,0,0,0,0l2.051-0.489c-2.552-1.863-4.866-2.781-6.719-3.359v17.35h8.962
		C35.478,76.835,34.804,75.827,34.423,74.538z"/>
	<path class="st0" d="M27.655,39.887c0.871,0.347,1.921,0.934,2.544,2.151c0.038-0.035,0.071-0.078,0.109-0.112v-2.229
		c-0.556,0.174-1.189,0.044-1.63-0.395c-0.307-0.306-0.475-0.712-0.475-1.144c0-0.364,0.119-0.709,0.34-0.992
		c-0.221-0.282-0.34-0.628-0.34-0.992c0-0.432,0.168-0.838,0.474-1.144c0.584-0.581,1.504-0.626,2.136-0.134
		c0.634-0.491,1.553-0.447,2.135,0.134c0.085,0.085,0.157,0.18,0.22,0.279c0.56-0.586,1.216-1.123,1.975-1.605
		c0.117-0.555,0.256-1.084,0.418-1.553c0.41-3.355,2.237-5.727,4.986-6.659c-0.096-0.168-0.194-0.338-0.28-0.5
		c-0.053-0.101-0.019-0.225,0.078-0.284l1.534-0.939c0,0,0,0,0.001,0l1.333-0.816c0.001,0,0.001,0,0.002,0l0.68-0.416H27.476v17.369
		C27.532,39.876,27.597,39.863,27.655,39.887z M32.217,23.114c0.471,1.642,2.373,4.218,3.914,5.097
		c-1.541,0.88-3.443,3.454-3.914,5.097c-0.471-1.643-2.371-4.217-3.914-5.097C29.846,27.331,31.746,24.756,32.217,23.114z"/>
	<path class="st0" d="M60.367,43.654c-0.017,0-0.035,0.001-0.052,0.001c-0.009,0-0.016-0.001-0.025-0.001
		c0.482,0.641,0.91,1.343,1.289,2.095v-1.609C61.172,43.987,60.768,43.825,60.367,43.654z"/>
	<path class="st0" d="M24.765,20.621c-0.224-0.618-0.625-0.964-1.121-0.964c-0.455,0-0.821,0.3-1.032,0.846
		c-0.237,0.609-0.36,1.445-0.36,2.454c0,0.573,0.048,1.118,0.129,1.491c0.007,0.027,0.047,0.2,0.115,0.463
		c0.014,0.036,0.027,0.082,0.041,0.155c0.122-0.654,0.441-1.018,0.896-1.018c0.489,0,0.862,0.391,1.297,1.354
		c0.123-0.364,0.17-0.518,0.21-0.691c0.088-0.4,0.143-1.054,0.143-1.718C25.084,22.02,24.975,21.221,24.765,20.621z"/>
	<path class="st0" d="M28.743,56.535c0.013,0,0.027,0,0.04,0c-0.489-0.647-0.923-1.356-1.307-2.117v1.608
		C27.903,56.187,28.325,56.355,28.743,56.535z"/>
	<path class="st0" d="M23.115,24.702c-0.245,0-0.394,0.218-0.441,0.664c0.068,0.282,0.122,0.409,0.265,0.554
		c0.197,0.218,0.462,0.336,0.734,0.336c0.17,0,0.326-0.036,0.489-0.127c-0.238-0.555-0.306-0.691-0.448-0.936
		C23.515,24.847,23.332,24.702,23.115,24.702z"/>
	<path class="st0" d="M65.982,75.394c0.245,0,0.394-0.218,0.441-0.664c-0.068-0.282-0.122-0.409-0.265-0.554
		c-0.197-0.218-0.462-0.337-0.733-0.337c-0.17,0-0.326,0.037-0.489,0.127c0.238,0.555,0.306,0.691,0.448,0.936
		C65.582,75.249,65.765,75.394,65.982,75.394z"/>
	<path class="st0" d="M66.601,75.185c-0.014-0.036-0.027-0.082-0.041-0.155c-0.122,0.654-0.441,1.018-0.896,1.018
		c-0.489,0-0.862-0.391-1.297-1.355c-0.123,0.364-0.17,0.518-0.21,0.691c-0.088,0.4-0.143,1.054-0.143,1.718
		c0,0.973,0.108,1.773,0.319,2.373c0.224,0.618,0.625,0.964,1.121,0.964c0.455,0,0.821-0.3,1.032-0.846
		c0.237-0.609,0.36-1.445,0.36-2.454c0-0.573-0.048-1.118-0.129-1.491C66.709,75.621,66.668,75.449,66.601,75.185z"/>
	<path class="st0" d="M61.481,60.295c-0.027,0-0.054-0.005-0.079-0.015c-0.871-0.346-1.921-0.934-2.544-2.151
		c-0.037,0.035-0.071,0.078-0.108,0.112v2.229c0.558-0.175,1.191-0.044,1.631,0.396c0.581,0.582,0.626,1.5,0.134,2.134
		c0.492,0.634,0.447,1.553-0.134,2.135s-1.5,0.628-2.136,0.134c-0.291,0.226-0.642,0.339-0.992,0.339
		c-0.414,0-0.828-0.158-1.144-0.473c-0.088-0.088-0.139-0.195-0.203-0.296c-0.563,0.593-1.225,1.135-1.991,1.622
		c-0.118,0.555-0.256,1.085-0.418,1.553c-0.41,3.354-2.236,5.727-4.985,6.659c0.097,0.168,0.194,0.337,0.28,0.5
		c0.053,0.101,0.019,0.225-0.078,0.284l-3.551,2.172H61.58V60.265C61.549,60.282,61.516,60.295,61.481,60.295z M56.839,77.054
		c-0.471-1.642-2.371-4.218-3.914-5.097c1.542-0.88,3.443-3.454,3.914-5.096c0.471,1.643,2.371,4.217,3.912,5.096
		C59.21,72.836,57.31,75.412,56.839,77.054z"/>
	<path class="st0" d="M66.17,15.802H22.928c-1.564,0-2.837,1.272-2.837,2.836v62.82c0,1.564,1.272,2.836,2.837,2.836H66.17
		c1.563,0,2.835-1.272,2.835-2.836v-62.82C69.005,17.074,67.733,15.802,66.17,15.802z M65.527,66.579
		c0.249,0.868,1.251,2.227,2.066,2.691c-0.814,0.465-1.817,1.824-2.066,2.692c-0.249-0.867-1.253-2.227-2.067-2.692
		C64.275,68.806,65.279,67.447,65.527,66.579z M23.569,33.517c-0.247-0.868-1.251-2.227-2.065-2.691
		c0.813-0.465,1.817-1.825,2.065-2.692c0.249,0.867,1.253,2.227,2.067,2.692C24.821,31.29,23.818,32.649,23.569,33.517z
		 M25.226,27.102c-0.373,0-0.638-0.2-0.944-0.718c-0.224,0.082-0.38,0.109-0.611,0.109c-0.706,0-1.311-0.318-1.732-0.927
		c-0.435-0.609-0.659-1.472-0.659-2.536c0-1.063,0.211-1.963,0.618-2.609c0.408-0.664,1.025-1.009,1.773-1.009
		c1.467,0,2.383,1.327,2.383,3.445c0,0.937-0.156,1.727-0.469,2.363c-0.149,0.318-0.292,0.509-0.557,0.764
		c0.245,0.427,0.469,0.618,0.72,0.618c0.143,0,0.306-0.054,0.489-0.173l0.041,0.209C25.912,26.956,25.586,27.102,25.226,27.102z
		 M62.009,40.181v2.894v0.921v2.677v0.005v0.733v1.397v3.657v1.032v24.349c0,0.119-0.096,0.215-0.215,0.215H44.399h-7.354h-9.783
		c-0.119,0-0.215-0.096-0.215-0.215V59.987v-2.893v-0.922v-2.676v-0.005v-0.733v-1.397v-3.658v-1.031v-24.35
		c0-0.119,0.096-0.215,0.215-0.215h17.396h7.354h9.783c0.119,0,0.215,0.096,0.215,0.215V40.181z M67.198,79.675
		c-0.408,0.664-1.026,1.009-1.773,1.009c-1.467,0-2.383-1.327-2.383-3.445c0-0.936,0.156-1.727,0.469-2.363
		c0.149-0.318,0.292-0.509,0.557-0.764c-0.245-0.427-0.469-0.618-0.72-0.618c-0.143,0-0.306,0.054-0.489,0.173l-0.041-0.209
		c0.367-0.318,0.693-0.464,1.053-0.464c0.373,0,0.638,0.2,0.944,0.718c0.224-0.082,0.38-0.109,0.611-0.109
		c0.706,0,1.311,0.318,1.732,0.927c0.435,0.609,0.659,1.472,0.659,2.536C67.816,78.13,67.606,79.03,67.198,79.675z"/>
	<path d="M66.17,15.372H22.928c-1.802,0-3.267,1.465-3.267,3.266v62.82c0,1.801,1.465,3.266,3.267,3.266H66.17
		c1.8,0,3.265-1.465,3.265-3.266v-62.82C69.434,16.837,67.969,15.372,66.17,15.372z M69.005,81.458c0,1.564-1.271,2.836-2.835,2.836
		H22.928c-1.564,0-2.837-1.272-2.837-2.836v-62.82c0-1.564,1.272-2.836,2.837-2.836H66.17c1.563,0,2.835,1.272,2.835,2.836V81.458z"
		/>
	<path class="st1" d="M33.387,38.484c-0.042,0.207-0.125,0.403-0.243,0.578c-0.126,0.344-0.227,0.706-0.295,1.087
		c0.747-0.385,1.545-0.677,2.377-0.897c-0.249-0.864-0.372-1.768-0.38-2.669C34.256,37.092,33.753,37.731,33.387,38.484z"/>
	<path class="st1" d="M55.725,61.558c0.037-0.127,0.089-0.244,0.157-0.361c0.143-0.371,0.252-0.765,0.326-1.179
		c-0.747,0.385-1.545,0.677-2.377,0.897c0.249,0.864,0.372,1.768,0.38,2.669C54.833,63.048,55.356,62.364,55.725,61.558z"/>
	<path class="st1" d="M30.026,56.566c0.011-1.31,0.706-2.995,2.2-4.394c-1.218,0.793-2.765,1.378-4.547,1.689
		c0.464,0.986,1.02,1.878,1.656,2.676C29.568,56.544,29.8,56.551,30.026,56.566z"/>
	<path class="st1" d="M36.151,47.679l-1.009,0.271c-0.149,1.24-0.766,2.371-1.759,3.316c0.888-0.584,1.966-1.065,3.244-1.376
		c0.001-0.031,0.005-0.062,0.005-0.092C36.632,49.05,36.465,48.34,36.151,47.679z"/>
	<path class="st1" d="M46.962,47.949h1.86c0.518-1.914,2.027-4.121,4.807-5.686c-0.831-0.392-1.578-0.849-2.247-1.359
		C48.232,43.233,47.244,46.55,46.962,47.949z"/>
	<path class="st1" d="M59.03,43.596c-0.01,1.311-0.704,2.999-2.201,4.399c1.218-0.794,2.765-1.379,4.548-1.69
		c-0.464-0.986-1.021-1.88-1.657-2.678C59.486,43.621,59.255,43.612,59.03,43.596z"/>
	<path class="st1" d="M27.476,47.488h0.202c0.108-1.512,0.763-2.549,1.886-2.982c-0.241-0.084-0.461-0.195-0.663-0.329
		c-0.546,0.769-1.025,1.617-1.425,2.54V47.488z"/>
	<path class="st1" d="M56.596,55.822c0.093-0.048,0.198-0.08,0.297-0.119c-0.067-0.021-0.134-0.039-0.198-0.063
		c-0.192-0.072-0.369-0.165-0.541-0.266c-0.141-0.082-0.269-0.178-0.395-0.279c-0.117-0.094-0.233-0.188-0.336-0.296
		c-0.074-0.079-0.139-0.165-0.206-0.251c-0.109-0.14-0.206-0.288-0.292-0.446c-0.026-0.047-0.063-0.084-0.087-0.133
		c-0.006-0.013,0.001-0.026-0.002-0.039c-0.096-0.201-0.172-0.415-0.232-0.64l-1.024,0.275
		C54.292,54.459,55.314,55.226,56.596,55.822z"/>
	<path class="st1" d="M32.46,44.346c-0.093,0.048-0.198,0.081-0.298,0.119c0.067,0.02,0.134,0.039,0.199,0.063
		c0.196,0.074,0.377,0.168,0.552,0.271c0.137,0.081,0.262,0.175,0.385,0.274c0.117,0.094,0.233,0.188,0.337,0.297
		c0.073,0.078,0.138,0.164,0.204,0.25c0.111,0.142,0.209,0.293,0.297,0.454c0.024,0.045,0.06,0.08,0.083,0.127
		c0.006,0.012-0.001,0.024,0.002,0.037c0.097,0.202,0.173,0.416,0.233,0.642l1.023-0.275C34.764,45.708,33.742,44.941,32.46,44.346z
		"/>
	<path class="st1" d="M42.094,52.218h-1.859c-0.518,1.914-2.027,4.122-4.809,5.688c0.831,0.391,1.578,0.849,2.247,1.359
		C40.828,56.935,41.813,53.617,42.094,52.218z"/>
	<path class="st1" d="M52.905,52.488l1.009-0.271c0.149-1.241,0.766-2.372,1.76-3.317c-0.889,0.585-1.967,1.066-3.246,1.378
		c-0.001,0.031-0.005,0.062-0.005,0.092C52.423,51.117,52.591,51.827,52.905,52.488z"/>
	<path class="st1" d="M61.58,52.679h-0.201c-0.108,1.512-0.762,2.55-1.885,2.983c0.241,0.084,0.46,0.194,0.661,0.328
		c0.546-0.769,1.024-1.616,1.424-2.539V52.679z"/>
	<path class="st1" d="M32.094,41.093c-0.268,0.174-0.524,0.367-0.777,0.565v0.207h0.188C31.676,41.564,31.879,41.316,32.094,41.093z
		"/>
	<path class="st1" d="M35.911,40.925c-0.235-0.402-0.413-0.83-0.565-1.27c-0.382,0.1-0.76,0.211-1.125,0.349
		c0.014,0.028,0.043,0.047,0.043,0.08c0.01,0.668-0.045,1.256-0.152,1.781h0.602c0.033,0,0.065,0.007,0.095,0.022
		c3.963,1.946,5.125,4.92,5.435,6.063h1.852c-0.171-0.848-0.599-2.403-1.612-4.015c-0.021-0.004-0.042-0.005-0.064-0.009
		C38.378,43.561,36.861,42.551,35.911,40.925z"/>
	<path class="st1" d="M56.965,59.074c0.267-0.174,0.523-0.367,0.776-0.565v-0.207h-0.188C57.382,58.603,57.18,58.851,56.965,59.074z
		"/>
	<path class="st1" d="M53.146,59.242c0.235,0.402,0.413,0.831,0.565,1.27c0.383-0.1,0.761-0.211,1.126-0.349
		c-0.014-0.028-0.043-0.047-0.043-0.079c-0.01-0.668,0.045-1.256,0.151-1.781h-0.602c-0.033,0-0.065-0.007-0.095-0.022
		c-3.965-1.947-5.127-4.921-5.437-6.063h-1.851c0.171,0.849,0.6,2.404,1.613,4.016c0.021,0.004,0.042,0.004,0.064,0.008
		C50.679,56.606,52.196,57.616,53.146,59.242z"/>
	<path class="st2" d="M34.448,48.985c0.023-0.059,0.031-0.121,0.052-0.181C34.486,48.866,34.464,48.924,34.448,48.985z"/>
	<path class="st2" d="M27.476,53.447c0.001,0.001,0.001,0.002,0.001,0.002l0.007,0.014c2.351-0.389,4.259-1.278,5.538-2.471
		c-0.583,0.373-1.301,0.583-2.11,0.583c-0.786,0-1.443-0.193-1.959-0.557c-0.459,0.194-0.947,0.369-1.477,0.509v0.974V53.447z"/>
	<path class="st2" d="M34.689,48.072L34.583,48.1c-0.008,0.198-0.018,0.395-0.052,0.581C34.594,48.48,34.655,48.279,34.689,48.072z"
		/>
	<path class="st3" d="M36.284,51.642c0.046-0.124,0.091-0.248,0.127-0.372C36.324,51.373,36.282,51.505,36.284,51.642z"/>
	<path class="st3" d="M30.681,56.392c0.067-0.46,0.583-0.888,1.184-0.43c0.234-0.104,0.458-0.214,0.674-0.328
		c0.479-1.19,1.567-2.447,3.385-3.192c0.132-0.242,0.241-0.487,0.336-0.732c-0.291-0.57-0.051-1.024,0.308-1.156
		c0.011-0.072,0.026-0.145,0.034-0.217c-4.216,1.078-6.077,4.083-6.141,6.139c0.075-0.023,0.147-0.047,0.221-0.071
		C30.682,56.4,30.68,56.396,30.681,56.392z M34.644,51.283c0.461-0.161,1.129,0.128,0.911,0.962
		c-0.18-0.394-0.495-0.494-0.697-0.438c-0.305,0.087-0.453,0.562-0.233,0.84C33.974,52.127,34.182,51.442,34.644,51.283z
		 M32.745,52.504c0.37-0.318,1.097-0.295,1.201,0.56c-0.311-0.301-0.642-0.278-0.809-0.15c-0.251,0.193-0.214,0.689,0.092,0.866
		C32.433,53.537,32.375,52.824,32.745,52.504z M31.461,54.265c0.234-0.428,0.924-0.661,1.32,0.104
		c-0.397-0.173-0.698-0.036-0.81,0.142c-0.168,0.269,0.04,0.72,0.389,0.779C31.529,55.341,31.225,54.692,31.461,54.265z"/>
	<path class="st0" d="M33.229,53.78c-0.307-0.177-0.343-0.673-0.092-0.866c0.167-0.128,0.497-0.151,0.809,0.15
		c-0.104-0.854-0.831-0.878-1.201-0.56C32.375,52.824,32.433,53.537,33.229,53.78z"/>
	<path class="st0" d="M32.36,55.289c-0.349-0.058-0.557-0.51-0.389-0.779c0.112-0.178,0.413-0.314,0.81-0.142
		c-0.396-0.765-1.086-0.532-1.32-0.104C31.225,54.692,31.529,55.341,32.36,55.289z"/>
	<path class="st0" d="M30.681,56.392c-0.001,0.004,0.001,0.008,0,0.013c0.415-0.134,0.814-0.279,1.184-0.443
		C31.264,55.504,30.748,55.932,30.681,56.392z"/>
	<path class="st0" d="M34.625,52.646c-0.22-0.278-0.072-0.752,0.233-0.84c0.202-0.057,0.517,0.043,0.697,0.438
		c0.218-0.833-0.451-1.122-0.911-0.962C34.182,51.442,33.974,52.127,34.625,52.646z"/>
	<path class="st0" d="M36.259,51.709c0.009-0.023,0.016-0.045,0.025-0.068c-0.001-0.137,0.04-0.268,0.127-0.372
		c0.071-0.24,0.121-0.479,0.157-0.716C36.208,50.685,35.969,51.139,36.259,51.709z"/>
	<path class="st3" d="M33.291,55.195c0.894-0.578,1.594-1.25,2.122-1.962C34.426,53.773,33.724,54.475,33.291,55.195z"/>
	<path class="st0" d="M32.539,55.633c0.264-0.139,0.515-0.285,0.752-0.439c0.433-0.72,1.135-1.422,2.122-1.962
		c0.192-0.259,0.364-0.523,0.51-0.791C34.105,53.186,33.018,54.443,32.539,55.633z"/>
	<path class="st3" d="M58.375,43.775c-0.067,0.46-0.583,0.887-1.184,0.43c-0.234,0.104-0.457,0.214-0.673,0.328
		c-0.479,1.19-1.567,2.447-3.386,3.192c-0.132,0.242-0.241,0.487-0.336,0.733c0.291,0.571,0.052,1.025-0.309,1.157
		c-0.011,0.072-0.026,0.145-0.034,0.216c4.215-1.077,6.077-4.082,6.141-6.139c-0.075,0.023-0.147,0.047-0.22,0.071
		C58.375,43.767,58.376,43.771,58.375,43.775z M54.413,48.884c-0.461,0.161-1.128-0.128-0.91-0.961
		c0.179,0.394,0.494,0.494,0.696,0.437c0.305-0.087,0.453-0.561,0.233-0.84C55.082,48.039,54.873,48.725,54.413,48.884z
		 M56.313,47.662c-0.371,0.319-1.097,0.295-1.201-0.559c0.311,0.301,0.641,0.278,0.808,0.151c0.252-0.193,0.214-0.69-0.091-0.866
		C56.624,46.63,56.681,47.343,56.313,47.662z M57.596,45.902c-0.235,0.428-0.925,0.661-1.321-0.104
		c0.397,0.172,0.699,0.036,0.81-0.142c0.168-0.269-0.04-0.72-0.389-0.779C57.528,44.826,57.831,45.475,57.596,45.902z"/>
	<path class="st3" d="M52.772,48.525c-0.046,0.124-0.091,0.249-0.127,0.373C52.732,48.794,52.774,48.662,52.772,48.525z"/>
	<path class="st0" d="M55.828,46.388c0.306,0.177,0.343,0.673,0.091,0.866c-0.167,0.128-0.496,0.15-0.808-0.151
		c0.104,0.855,0.83,0.878,1.201,0.559C56.681,47.343,56.624,46.63,55.828,46.388z"/>
	<path class="st0" d="M56.696,44.878c0.349,0.059,0.557,0.51,0.389,0.779c-0.111,0.177-0.413,0.314-0.81,0.142
		c0.396,0.764,1.086,0.532,1.321,0.104C57.831,45.475,57.528,44.826,56.696,44.878z"/>
	<path class="st0" d="M58.375,43.775c0.001-0.004,0-0.008,0-0.012c-0.415,0.134-0.814,0.279-1.184,0.442
		C57.792,44.663,58.308,44.236,58.375,43.775z"/>
	<path class="st0" d="M54.431,47.521c0.22,0.278,0.072,0.753-0.233,0.84c-0.202,0.057-0.517-0.044-0.696-0.437
		c-0.218,0.833,0.449,1.122,0.91,0.961C54.873,48.725,55.082,48.039,54.431,47.521z"/>
	<path class="st0" d="M52.797,48.457c-0.009,0.022-0.016,0.045-0.024,0.067c0.002,0.137-0.04,0.269-0.127,0.373
		c-0.071,0.24-0.121,0.479-0.157,0.716C52.849,49.483,53.088,49.028,52.797,48.457z"/>
	<path class="st3" d="M55.766,44.971c-0.894,0.578-1.596,1.25-2.124,1.963C54.631,46.394,55.333,45.692,55.766,44.971z"/>
	<path class="st0" d="M56.518,44.533c-0.264,0.139-0.515,0.285-0.752,0.438c-0.433,0.721-1.136,1.423-2.124,1.963
		c-0.192,0.259-0.364,0.523-0.51,0.791C54.952,46.98,56.039,45.723,56.518,44.533z"/>
	<path class="st2" d="M58.854,58.12c-0.035,0.033-0.068,0.07-0.104,0.103v0.019c0.038-0.034,0.071-0.077,0.108-0.112
		C58.857,58.126,58.855,58.123,58.854,58.12z"/>
	<path class="st2" d="M30.203,42.048c0.035-0.033,0.068-0.07,0.104-0.103v-0.019c-0.038,0.035-0.071,0.077-0.109,0.112
		C30.2,42.041,30.201,42.045,30.203,42.048z"/>
	<path class="st2" d="M48.813,52.218c0.31,1.142,1.472,4.116,5.437,6.063c0.029,0.015,0.062,0.022,0.095,0.022h0.602
		c0.031-0.151,0.071-0.29,0.112-0.43h-0.664c-4.021-1.993-5.007-5.06-5.213-5.954c-0.024-0.107-0.126-0.154-0.234-0.147
		c-0.021,0.002-0.039,0.008-0.058,0.017h-2.187c-0.063,0-0.124,0.028-0.165,0.077c-0.04,0.048-0.058,0.112-0.047,0.175
		c0.13,0.747,0.519,2.385,1.548,4.13c0.179,0.022,0.356,0.032,0.536,0.063c-1.013-1.612-1.442-3.167-1.613-4.016H48.813z"/>
	<path class="st2" d="M40.243,47.949c-0.31-1.142-1.472-4.116-5.435-6.063c-0.029-0.015-0.062-0.022-0.095-0.022h-0.602
		c-0.031,0.151-0.072,0.29-0.112,0.43h0.664c4.019,1.993,5.005,5.059,5.211,5.954c0.025,0.108,0.128,0.159,0.234,0.147
		c0.021-0.002,0.039-0.008,0.058-0.017h2.187c0.063,0,0.124-0.028,0.164-0.076c0.041-0.049,0.059-0.113,0.048-0.175
		c-0.129-0.746-0.516-2.378-1.541-4.12c-0.18-0.022-0.361-0.042-0.542-0.073c1.013,1.612,1.441,3.167,1.612,4.015H40.243z"/>
	<path class="st2" d="M30.118,56.576c0.367,0.027,0.727,0.062,1.075,0.109c4.033-1.44,5.869-4.368,5.869-6.888
		c0-2.388-1.542-4.429-4.185-5.73c-0.132,0.102-0.266,0.201-0.417,0.279c1.282,0.595,2.304,1.363,3.016,2.258
		c0.271,0.341,0.497,0.7,0.675,1.075c0.314,0.662,0.482,1.372,0.482,2.118c0,0.03-0.004,0.062-0.005,0.092
		c-0.003,0.148-0.01,0.297-0.026,0.447c-0.008,0.072-0.023,0.145-0.034,0.217c-0.036,0.238-0.086,0.476-0.157,0.716
		c-0.037,0.124-0.081,0.248-0.127,0.372c-0.008,0.023-0.016,0.045-0.025,0.068c-0.094,0.246-0.204,0.49-0.336,0.732
		c-0.146,0.268-0.318,0.532-0.51,0.791c-0.528,0.713-1.229,1.384-2.122,1.962c-0.237,0.153-0.489,0.299-0.752,0.439
		c-0.216,0.114-0.44,0.225-0.674,0.328c-0.369,0.164-0.769,0.308-1.184,0.443c-0.074,0.024-0.146,0.048-0.221,0.071
		C30.347,56.51,30.235,56.544,30.118,56.576z"/>
	<path class="st2" d="M58.936,43.592c-0.365-0.026-0.716-0.067-1.062-0.114c-4.041,1.439-5.88,4.37-5.88,6.892
		c0,0.786,0.169,1.535,0.488,2.232l0.424-0.114c-0.314-0.662-0.482-1.372-0.482-2.118c0-0.03,0.004-0.062,0.005-0.092
		c0.003-0.148,0.01-0.297,0.026-0.447c0.008-0.072,0.022-0.144,0.034-0.216c0.036-0.238,0.086-0.477,0.157-0.716
		c0.037-0.125,0.081-0.249,0.127-0.373c0.008-0.022,0.016-0.045,0.024-0.067c0.094-0.246,0.204-0.49,0.336-0.733
		c0.146-0.268,0.318-0.531,0.51-0.791c0.528-0.713,1.229-1.385,2.124-1.963c0.237-0.153,0.489-0.299,0.752-0.438
		c0.216-0.114,0.439-0.224,0.673-0.328c0.369-0.163,0.768-0.308,1.184-0.442c0.073-0.024,0.145-0.048,0.22-0.071
		C58.708,43.658,58.82,43.624,58.936,43.592z"/>
	<path class="st2" d="M48.948,48.446c0.104,0.006,0.209-0.059,0.233-0.166c0.448-1.928,1.976-4.223,4.925-5.79
		c-0.166-0.07-0.318-0.152-0.478-0.228c-2.78,1.566-4.289,3.773-4.807,5.686h-1.86c0.282-1.399,1.27-4.716,4.42-7.045
		c-0.12-0.092-0.238-0.184-0.353-0.279c-3.409,2.573-4.322,6.262-4.538,7.502c-0.011,0.063,0.007,0.127,0.047,0.175
		c0.041,0.049,0.102,0.077,0.165,0.077h2.113C48.849,48.415,48.895,48.439,48.948,48.446z"/>
	<path class="st2" d="M42.565,52.04c0.011-0.063-0.007-0.126-0.048-0.175c-0.04-0.048-0.101-0.076-0.164-0.076h-2.111
		c-0.034-0.036-0.08-0.061-0.133-0.067c-0.111-0.01-0.21,0.059-0.233,0.166c-0.449,1.932-1.982,4.231-4.942,5.798
		c0.168,0.071,0.331,0.144,0.492,0.22c2.782-1.566,4.291-3.773,4.809-5.688h1.859c-0.282,1.399-1.266,4.717-4.421,7.047
		c0.12,0.091,0.249,0.176,0.364,0.271C41.442,56.962,42.351,53.278,42.565,52.04z"/>
	<path class="st2" d="M31.505,41.865h-0.188v0.412C31.378,42.137,31.433,41.99,31.505,41.865z"/>
	<path class="st2" d="M57.553,58.303h0.188V57.89C57.68,58.03,57.624,58.178,57.553,58.303z"/>
	<path class="st2" d="M56.18,56.1c0.132-0.102,0.266-0.201,0.416-0.279c-1.282-0.595-2.304-1.363-3.016-2.258l-0.452,0.121
		C53.843,54.639,54.878,55.459,56.18,56.1z"/>
	<path class="st2" d="M54.368,52.096l0.105-0.028c0.008-0.198,0.018-0.396,0.052-0.581C54.463,51.687,54.401,51.887,54.368,52.096z"
		/>
	<path class="st2" d="M54.61,51.181c-0.024,0.063-0.034,0.13-0.056,0.194C54.569,51.308,54.592,51.246,54.61,51.181z"/>
	<path class="st2" d="M61.573,46.703c-2.353,0.39-4.263,1.28-5.541,2.474c0.583-0.375,1.303-0.585,2.114-0.585
		c0.786,0,1.443,0.193,1.958,0.556c0.459-0.194,0.947-0.368,1.477-0.509L61.573,46.703z"/>
	<path class="st2" d="M46.497,45.498c-0.962-0.321-1.776,0.75-1.776,1.293c0,0.544,0.478,1.127,1.346,0.73
		C45.653,46.866,45.774,45.807,46.497,45.498z"/>
	<path class="st2" d="M42.559,45.498c0.724,0.309,0.845,1.368,0.43,2.023c0.868,0.397,1.346-0.186,1.346-0.73
		C44.335,46.248,43.52,45.177,42.559,45.498z"/>
	<path class="st0" d="M50.448,50.99c0.48,0,0.87-0.39,0.87-0.871c0-0.481-0.39-0.871-0.87-0.871c-0.481,0-0.871,0.39-0.871,0.871
		C49.576,50.6,49.966,50.99,50.448,50.99z"/>
	<path class="st0" d="M50.061,47.662c0,0.481,0.39,0.871,0.873,0.871c0.479,0,0.869-0.39,0.869-0.871
		c0-0.481-0.39-0.871-0.869-0.871C50.451,46.791,50.061,47.181,50.061,47.662z"/>
	<path class="st0" d="M53.288,45.498c0-0.481-0.39-0.871-0.871-0.871c-0.48,0-0.87,0.39-0.87,0.871c0,0.481,0.39,0.871,0.87,0.871
		C52.898,46.369,53.288,45.978,53.288,45.498z"/>
	<path class="st0" d="M54.426,44.585c0.481,0,0.871-0.39,0.871-0.871c0-0.481-0.39-0.871-0.871-0.871c-0.48,0-0.87,0.39-0.87,0.871
		C53.556,44.195,53.946,44.585,54.426,44.585z"/>
	<path class="st0" d="M56.818,43.421c0.097,0,0.186-0.026,0.273-0.055c-0.308-0.057-0.598-0.13-0.891-0.202
		C56.358,43.323,56.576,43.421,56.818,43.421z"/>
	<path class="st0" d="M46.013,35.577c-0.314-1.073-1.506-1.6-2.576-1.577c-0.866,0.024-1.845,0.423-2.066,1.463
		C42.772,36.396,44.88,36.103,46.013,35.577z M43.594,35.079c0-0.322,0.262-0.584,0.584-0.584s0.585,0.262,0.585,0.584
		s-0.263,0.584-0.585,0.584S43.594,35.401,43.594,35.079z"/>
	<path class="st0" d="M44.334,35.079c0-0.085-0.069-0.155-0.155-0.155c-0.085,0-0.154,0.069-0.154,0.155s0.069,0.155,0.154,0.155
		C44.264,35.234,44.334,35.165,44.334,35.079z"/>
	<path class="st0" d="M38.198,35.234c0.086,0,0.156-0.069,0.156-0.155s-0.07-0.155-0.156-0.155c-0.084,0-0.153,0.069-0.153,0.155
		S38.114,35.234,38.198,35.234z"/>
	<path class="st0" d="M35.81,35.564c0.965,0.523,2.73,0.826,3.828-0.069c-0.265-1.132-1.204-1.509-1.967-1.481
		C36.86,34.043,35.991,34.535,35.81,35.564z M38.198,34.495c0.323,0,0.586,0.262,0.586,0.584s-0.263,0.584-0.586,0.584
		c-0.321,0-0.583-0.262-0.583-0.584S37.877,34.495,38.198,34.495z"/>
	<path class="st0" d="M36.282,40.708c0.884,1.512,2.302,2.453,4.213,2.795c3.456,0.617,6.702-0.495,8.688-2.979
		c0.25-0.313,0.473-0.641,0.672-0.98c-1.84-1.96-2.846-4.3-3.281-6.29c-0.301-0.323-0.6-0.651-0.897-0.983
		c-1.208-0.25-2.847-0.241-3.892,0.57c0.29-0.632,1.057-1.138,1.915-1.319c-1.214-0.38-2.313-1.16-2.956-2.541
		c-0.827,1.174-1.603,1.936-2.632,2.514c0.778,0.16,1.481,0.688,1.733,1.349c-1.067-0.977-2.891-0.807-3.92-0.411
		C35.162,34.722,34.812,38.193,36.282,40.708z M42.004,41.665c-0.297,0.258-0.765,0.405-1.257,0.405c-0.126,0-0.254-0.01-0.381-0.03
		c-0.476-0.074-0.835-0.275-1.011-0.567c-0.062-0.102-0.029-0.234,0.072-0.295c0.103-0.06,0.234-0.029,0.295,0.073
		c0.106,0.176,0.372,0.312,0.71,0.365c0.492,0.079,1.012-0.033,1.288-0.274c0.09-0.079,0.224-0.069,0.304,0.021
		C42.102,41.451,42.092,41.586,42.004,41.665z M43.551,40.682c-0.02,0-0.038-0.002-0.058-0.008
		c-2.065-0.578-4.639-0.413-5.366-0.018c-0.103,0.056-0.235,0.019-0.292-0.086c-0.057-0.104-0.018-0.235,0.087-0.292
		c0.887-0.481,3.624-0.595,5.687-0.018c0.114,0.032,0.182,0.15,0.149,0.265C43.732,40.62,43.645,40.682,43.551,40.682z
		 M43.425,33.571c1.324-0.032,2.764,0.668,3.049,2.08c0.019,0.093-0.026,0.188-0.111,0.233c-0.661,0.348-1.674,0.62-2.721,0.62
		c-0.923,0-1.873-0.211-2.634-0.769c-0.064-0.047-0.098-0.125-0.086-0.205C41.09,34.377,42.073,33.608,43.425,33.571z
		 M40.087,35.537c0.013,0.073-0.013,0.148-0.067,0.198c-0.609,0.554-1.397,0.764-2.177,0.764c-0.899,0-1.787-0.28-2.377-0.636
		c-0.071-0.043-0.111-0.125-0.103-0.208c0.151-1.372,1.295-2.035,2.293-2.071C38.696,33.555,39.83,34.137,40.087,35.537z"/>
	<path d="M43.642,36.504c1.047,0,2.06-0.272,2.721-0.62c0.085-0.044,0.13-0.14,0.111-0.233c-0.285-1.412-1.725-2.112-3.049-2.08
		c-1.353,0.037-2.335,0.806-2.503,1.959c-0.012,0.079,0.021,0.158,0.086,0.205C41.769,36.292,42.719,36.504,43.642,36.504z
		 M43.437,34c1.07-0.023,2.262,0.504,2.576,1.577c-1.133,0.526-3.241,0.819-4.643-0.113C41.592,34.424,42.571,34.024,43.437,34z"/>
	<path d="M35.363,35.655c-0.009,0.083,0.031,0.164,0.103,0.208c0.59,0.356,1.478,0.636,2.377,0.636c0.779,0,1.567-0.21,2.177-0.764
		c0.055-0.05,0.08-0.125,0.067-0.198c-0.257-1.4-1.391-1.982-2.431-1.953C36.658,33.62,35.514,34.283,35.363,35.655z M37.672,34.015
		c0.763-0.028,1.702,0.349,1.967,1.481c-1.098,0.895-2.863,0.592-3.828,0.069C35.991,34.535,36.86,34.043,37.672,34.015z"/>
	<path d="M44.763,35.079c0-0.322-0.263-0.584-0.585-0.584s-0.584,0.262-0.584,0.584s0.262,0.584,0.584,0.584
		S44.763,35.401,44.763,35.079z M44.024,35.079c0-0.085,0.069-0.155,0.154-0.155c0.086,0,0.155,0.069,0.155,0.155
		s-0.069,0.155-0.155,0.155C44.093,35.234,44.024,35.165,44.024,35.079z"/>
	<path d="M38.198,35.664c0.323,0,0.586-0.262,0.586-0.584s-0.263-0.584-0.586-0.584c-0.321,0-0.583,0.262-0.583,0.584
		S37.877,35.664,38.198,35.664z M38.198,34.924c0.086,0,0.156,0.069,0.156,0.155s-0.07,0.155-0.156,0.155
		c-0.084,0-0.153-0.069-0.153-0.155S38.114,34.924,38.198,34.924z"/>
	<path class="st1" d="M41.606,49.454v1.259h0.001h1.22c-0.032-0.202-0.054-0.411-0.054-0.629c0-0.219,0.022-0.427,0.054-0.629h-1.22
		H41.606z"/>
	<path class="st0" d="M30.737,44.287c0.052-0.002,0.098-0.012,0.15-0.013v-4.798c-0.024-0.016-0.052-0.022-0.075-0.04
		c-0.023,0.018-0.052,0.023-0.075,0.039V44.287z"/>
	<path class="st0" d="M30.912,51.145c1.948,0,3.258-1.295,3.258-3.222c0-0.606-0.142-1.14-0.38-1.6
		c-0.094-0.183-0.206-0.35-0.331-0.505c-0.033-0.041-0.064-0.083-0.1-0.122c-0.14-0.155-0.298-0.291-0.469-0.411
		c-0.025-0.017-0.045-0.04-0.07-0.056c-0.423-0.277-0.928-0.451-1.499-0.507c-0.05-0.005-0.097-0.009-0.141-0.009
		c-0.202,0-0.439,0.05-0.492,0.278c-0.047,0.202,0.065,0.425,0.196,0.489c0.375,0.186,0.886,0.558,1.182,1.277
		c0.021,0.053,0.021,0.114-0.002,0.167c-0.185,0.427-0.092,1.001,0.22,1.364c0.259,0.301,0.621,0.409,1.018,0.305
		c0.119-0.031,0.232,0.039,0.263,0.154s-0.039,0.232-0.153,0.262c-0.135,0.035-0.269,0.053-0.397,0.053
		c-0.407,0-0.779-0.171-1.056-0.494c-0.399-0.464-0.525-1.161-0.323-1.726c-0.248-0.544-0.646-0.831-0.94-0.977
		c-0.321-0.159-0.512-0.595-0.425-0.972c0.011-0.048,0.037-0.087,0.056-0.13c-1.921,0.305-2.247,2.062-2.247,3.159
		C28.079,49.127,28.447,51.145,30.912,51.145z"/>
	<path class="st2" d="M44.335,53.376c0-0.544-0.478-1.127-1.346-0.729c0.415,0.656,0.294,1.714-0.43,2.023
		C43.52,54.99,44.335,53.919,44.335,53.376z"/>
	<path class="st2" d="M46.497,54.669c-0.723-0.309-0.844-1.368-0.43-2.023c-0.868-0.397-1.346,0.186-1.346,0.729
		C44.721,53.919,45.536,54.99,46.497,54.669z"/>
	<path class="st0" d="M39.48,50.048c0-0.481-0.389-0.871-0.871-0.871c-0.48,0-0.869,0.39-0.869,0.871
		c0,0.481,0.389,0.871,0.869,0.871C39.091,50.919,39.48,50.529,39.48,50.048z"/>
	<path class="st0" d="M38.994,52.504c0-0.481-0.389-0.871-0.87-0.871c-0.48,0-0.87,0.39-0.87,0.871c0,0.482,0.39,0.871,0.87,0.871
		C38.605,53.376,38.994,52.986,38.994,52.504z"/>
	<path class="st0" d="M36.64,53.798c-0.48,0-0.87,0.39-0.87,0.871s0.39,0.871,0.87,0.871s0.87-0.39,0.87-0.871
		S37.12,53.798,36.64,53.798z"/>
	<path class="st0" d="M35.5,56.453c0-0.481-0.389-0.871-0.87-0.871c-0.48,0-0.87,0.39-0.87,0.871c0,0.481,0.39,0.871,0.87,0.871
		C35.111,57.324,35.5,56.934,35.5,56.453z"/>
	<path class="st0" d="M32.239,56.746c-0.107,0-0.206,0.026-0.3,0.061c0.307,0.056,0.611,0.115,0.903,0.186
		C32.685,56.841,32.474,56.746,32.239,56.746z"/>
	<path class="st1" d="M47.451,50.713v-1.259H47.45h-1.222c0.032,0.202,0.054,0.411,0.054,0.629c0,0.219-0.022,0.427-0.054,0.629
		h1.222H47.451z"/>
	<path class="st2" d="M44.529,47.877c-0.718,0-1.325,1.01-1.325,2.206s0.607,2.206,1.325,2.206c0.717,0,1.323-1.01,1.323-2.206
		S45.246,47.877,44.529,47.877z M43.547,50.083c0-0.796,0.431-1.42,0.981-1.42c0.55,0,0.979,0.624,0.979,1.42s-0.43,1.42-0.979,1.42
		C43.978,51.503,43.547,50.88,43.547,50.083z"/>
	<path class="st2" d="M44.529,51.074c0.26,0,0.55-0.407,0.55-0.99s-0.29-0.99-0.55-0.99c-0.261,0-0.552,0.407-0.552,0.99
		S44.268,51.074,44.529,51.074z"/>
	<path d="M45.508,50.083c0-0.796-0.43-1.42-0.979-1.42c-0.551,0-0.981,0.624-0.981,1.42s0.431,1.42,0.981,1.42
		C45.079,51.503,45.508,50.88,45.508,50.083z M43.977,50.083c0-0.583,0.291-0.99,0.552-0.99c0.26,0,0.55,0.407,0.55,0.99
		s-0.29,0.99-0.55,0.99C44.268,51.074,43.977,50.667,43.977,50.083z"/>
	<path d="M61.795,22.107h-9.783h-7.354H27.261c-0.119,0-0.215,0.096-0.215,0.215v24.35v1.031v3.658v1.397v0.733v0.005v2.676v0.922
		v2.893v17.858c0,0.119,0.096,0.215,0.215,0.215h9.783h7.354h17.396c0.119,0,0.215-0.096,0.215-0.215V53.496v-1.032v-3.657V47.41
		v-0.733v-0.005v-2.677v-0.921v-2.894V22.322C62.009,22.204,61.914,22.107,61.795,22.107z M37.111,77.63
		c-1.123-0.78-1.867-1.832-2.275-3.214c-0.145-0.492-0.268-1.078-0.398-1.699c-0.359-1.712-0.805-3.805-2.022-5.438
		c0.198,0.186,0.46,0.304,0.752,0.304c0.608,0,1.103-0.495,1.103-1.103c0-0.608-0.494-1.103-1.103-1.103s-1.104,0.495-1.104,1.103
		c0,0.235,0.09,0.441,0.216,0.621c-0.242-0.303-0.513-0.587-0.817-0.848c0.373-0.177,0.636-0.551,0.636-0.991
		c0-0.232-0.079-0.448-0.21-0.63l0.274-0.065c4.326,2.174,11.503,9.784,13.262,12.398l-1.087,0.665H37.111z M61.58,43.173v0.511
		c-3.773-1.445-7.176-3.631-10.988-7.054c-0.179-0.161-0.366-0.332-0.56-0.513c-2.909-2.715-7.34-7.575-9.289-11.146l1.177-0.72
		c2.142,3.488,7.296,8.027,10.397,10.758l0.474,0.418c3.375,2.977,6.456,4.196,8.79,4.914V43.173z M58.754,55.91
		c1.655,0.235,2.479,1.498,2.513,3.847C60.077,59.227,58.833,58.271,58.754,55.91z M60.076,63.153c0.463,0.463,0.463,1.217,0,1.68
		c-0.464,0.463-1.217,0.461-1.679,0c-0.042-0.042-0.098-0.063-0.152-0.063s-0.11,0.021-0.152,0.063
		c-0.462,0.462-1.215,0.464-1.679,0c-0.463-0.463-0.463-1.216,0-1.68c0.084-0.084,0.084-0.22,0-0.304
		c-0.463-0.463-0.463-1.216,0-1.679c0.447-0.449,1.23-0.448,1.678,0c0.04,0.041,0.095,0.063,0.152,0.063
		c0.057,0,0.111-0.022,0.152-0.063c0.464-0.464,1.218-0.463,1.68,0c0.463,0.463,0.463,1.216,0,1.679
		C59.992,62.933,59.992,63.069,60.076,63.153z M47.137,75.917c-2.139-3.485-7.29-8.022-10.39-10.752l-0.48-0.423
		c-3.375-2.977-6.456-4.196-8.791-4.914v-2.833v-0.512c3.771,1.444,7.174,3.63,10.989,7.055c2.867,2.573,7.769,7.848,9.85,11.66
		L47.137,75.917z M30.303,44.257c-1.655-0.236-2.48-1.499-2.513-3.847C28.98,40.94,30.224,41.896,30.303,44.257z M28.981,37.014
		c-0.225-0.224-0.349-0.522-0.349-0.839c0-0.317,0.124-0.615,0.348-0.839c0.464-0.462,1.218-0.463,1.68,0
		c0.084,0.083,0.221,0.083,0.305,0c0.461-0.462,1.215-0.462,1.678,0c0.225,0.224,0.349,0.522,0.349,0.839
		c0,0.317-0.124,0.616-0.349,0.839c-0.04,0.041-0.063,0.095-0.063,0.152s0.022,0.112,0.063,0.152
		c0.225,0.224,0.349,0.522,0.349,0.839c0,0.317-0.124,0.615-0.349,0.839c-0.463,0.463-1.215,0.463-1.678,0
		c-0.042-0.042-0.098-0.063-0.152-0.063s-0.11,0.021-0.152,0.063c-0.465,0.463-1.218,0.461-1.679,0
		c-0.225-0.225-0.349-0.523-0.349-0.84c0-0.317,0.124-0.616,0.349-0.839c0.04-0.041,0.063-0.095,0.063-0.152
		S29.021,37.054,28.981,37.014z M54.212,63.585c-0.009-0.901-0.131-1.805-0.38-2.669c0.831-0.22,1.63-0.512,2.377-0.897
		c-0.074,0.414-0.183,0.808-0.326,1.179c-0.069,0.116-0.12,0.234-0.157,0.361C55.356,62.364,54.833,63.048,54.212,63.585z
		 M34.845,36.582c0.009,0.901,0.131,1.805,0.38,2.669c-0.831,0.22-1.63,0.512-2.377,0.897c0.068-0.38,0.168-0.742,0.295-1.087
		c0.119-0.175,0.201-0.371,0.243-0.578C33.753,37.731,34.256,37.092,34.845,36.582z M51.504,37.995
		c0.005,0.004,0.01,0.006,0.015,0.009c2.674,2.266,5.189,3.932,7.818,5.178c-7.604-0.4-11.042-5.332-12.157-9.285
		c0.577,0.605,1.151,1.186,1.709,1.727c-0.032-0.001-0.063-0.012-0.095,0.002c-0.108,0.048-0.158,0.174-0.111,0.283
		c0.64,1.466,2.611,3.699,4.681,4.75c0.031,0.016,0.064,0.023,0.098,0.023c0.078,0,0.154-0.043,0.191-0.118
		c0.054-0.106,0.012-0.235-0.094-0.289c-1.925-0.976-3.747-3.005-4.412-4.403c0.397,0.38,0.786,0.744,1.158,1.078
		c0.043,0.039,0.085,0.073,0.128,0.111C50.792,37.382,51.149,37.694,51.504,37.995z M61.58,48.64
		c-0.53,0.141-1.017,0.315-1.477,0.509c-0.515-0.364-1.172-0.556-1.958-0.556c-0.811,0-1.53,0.21-2.114,0.585
		c1.279-1.194,3.188-2.085,5.541-2.474L61.58,48.64z M48.576,56.234c-0.18-0.031-0.357-0.041-0.536-0.063
		c-1.029-1.746-1.419-3.383-1.548-4.13c-0.011-0.063,0.007-0.127,0.047-0.175c0.041-0.049,0.102-0.077,0.165-0.077h2.187
		c0.019-0.009,0.037-0.014,0.058-0.017c0.108-0.007,0.21,0.04,0.234,0.147c0.206,0.895,1.192,3.961,5.213,5.954h0.664
		c-0.04,0.139-0.081,0.278-0.112,0.43c-0.106,0.525-0.162,1.113-0.151,1.781c0,0.032,0.03,0.051,0.043,0.079
		c-0.366,0.138-0.744,0.249-1.126,0.349c-0.152-0.439-0.331-0.868-0.565-1.27c-0.95-1.626-2.467-2.636-4.507-3.001
		C48.618,56.237,48.597,56.237,48.576,56.234z M41.878,66.271c-0.572-0.599-1.141-1.175-1.695-1.713
		c0.027-0.001,0.055-0.005,0.081-0.017c0.109-0.047,0.158-0.174,0.111-0.283c-0.642-1.468-2.614-3.701-4.681-4.75
		c-0.104-0.052-0.236-0.012-0.289,0.095c-0.054,0.106-0.012,0.235,0.094,0.289c1.923,0.976,3.746,3.006,4.413,4.405
		c-0.397-0.381-0.787-0.745-1.16-1.08c-0.405-0.363-0.803-0.708-1.199-1.045c-0.005-0.005-0.012-0.007-0.017-0.011
		c-2.675-2.266-5.19-3.932-7.816-5.177C37.324,57.398,40.761,62.319,41.878,66.271z M40.482,43.934
		c0.182,0.032,0.362,0.051,0.542,0.073c1.024,1.742,1.411,3.374,1.541,4.12c0.011,0.063-0.007,0.126-0.048,0.175
		c-0.04,0.048-0.101,0.076-0.164,0.076h-2.187c-0.019,0.009-0.037,0.014-0.058,0.017c-0.106,0.011-0.209-0.04-0.234-0.147
		c-0.206-0.895-1.192-3.96-5.211-5.954h-0.664c0.04-0.139,0.081-0.278,0.112-0.43c0.107-0.525,0.162-1.113,0.152-1.781
		c0-0.032-0.03-0.052-0.043-0.08c0.365-0.138,0.743-0.249,1.125-0.349c0.152,0.439,0.331,0.868,0.565,1.27
		c0.95,1.626,2.467,2.636,4.508,3.001C40.44,43.93,40.461,43.931,40.482,43.934z M52.455,49.831
		c-0.016,0.15-0.024,0.299-0.026,0.447c1.28-0.312,2.358-0.793,3.246-1.378c-0.994,0.945-1.611,2.076-1.76,3.317l-1.009,0.271
		l-0.424,0.114c-0.319-0.697-0.488-1.446-0.488-2.232c0-2.522,1.84-5.453,5.88-6.892c0.346,0.047,0.697,0.087,1.062,0.114
		c-0.116,0.032-0.228,0.066-0.341,0.1C58.531,45.749,56.67,48.753,52.455,49.831z M58.731,55.403
		c0.019-0.044,0.045-0.082,0.056-0.131c0.087-0.377-0.104-0.813-0.425-0.971c-0.295-0.146-0.69-0.432-0.941-0.977
		c0.203-0.564,0.077-1.261-0.321-1.725c-0.365-0.427-0.898-0.586-1.454-0.442c-0.114,0.03-0.184,0.147-0.153,0.262
		c0.029,0.115,0.144,0.184,0.263,0.154c0.533-0.143,0.868,0.131,1.019,0.306c0.312,0.363,0.403,0.937,0.218,1.364
		c-0.023,0.053-0.023,0.114-0.001,0.168c0.235,0.569,0.645,1.011,1.182,1.276c0.131,0.064,0.242,0.288,0.196,0.489
		c-0.053,0.229-0.29,0.278-0.493,0.278c-0.043,0-0.09-0.004-0.141-0.009c-0.57-0.056-1.075-0.23-1.497-0.507
		c-0.026-0.017-0.047-0.04-0.072-0.057c-0.17-0.12-0.327-0.256-0.467-0.41c-0.036-0.039-0.067-0.083-0.101-0.124
		c-0.123-0.152-0.233-0.317-0.327-0.497c-0.24-0.462-0.384-0.997-0.384-1.606c0-1.927,1.31-3.222,3.258-3.222
		c2.465,0,2.833,2.019,2.833,3.222C60.978,53.341,60.653,55.098,58.731,55.403z M57.741,58.303v0.207
		c-0.253,0.198-0.509,0.39-0.776,0.565c0.215-0.224,0.418-0.471,0.589-0.772c0.071-0.125,0.127-0.272,0.188-0.412V58.303z
		 M53.129,53.685l0.452-0.121l1.024-0.275c0.059,0.225,0.135,0.439,0.232,0.64c0.003,0.013-0.004,0.026,0.002,0.039
		c0.024,0.049,0.061,0.085,0.087,0.133c0.087,0.158,0.183,0.306,0.292,0.446c0.066,0.087,0.132,0.172,0.206,0.251
		c0.103,0.108,0.219,0.202,0.336,0.296c0.126,0.101,0.254,0.197,0.395,0.279c0.171,0.101,0.349,0.194,0.541,0.266
		c0.065,0.024,0.132,0.043,0.198,0.063c-0.1,0.039-0.205,0.071-0.297,0.119c-0.151,0.078-0.284,0.177-0.416,0.279
		C54.878,55.459,53.843,54.639,53.129,53.685z M36.601,50.336c0.016-0.15,0.024-0.299,0.026-0.447
		c-1.279,0.312-2.356,0.792-3.244,1.376c0.993-0.945,1.61-2.075,1.759-3.316l1.009-0.271c-0.178-0.375-0.404-0.734-0.675-1.075
		l-1.023,0.275c-0.059-0.226-0.136-0.44-0.233-0.642c-0.003-0.012,0.004-0.025-0.002-0.037c-0.023-0.047-0.058-0.081-0.083-0.127
		c-0.088-0.161-0.186-0.312-0.297-0.454c-0.066-0.086-0.131-0.171-0.204-0.25c-0.103-0.109-0.219-0.203-0.337-0.297
		c-0.123-0.099-0.248-0.193-0.385-0.274c-0.174-0.103-0.356-0.198-0.552-0.271c-0.065-0.024-0.132-0.043-0.199-0.063
		c0.1-0.039,0.205-0.071,0.298-0.119c0.151-0.078,0.285-0.177,0.417-0.279c2.644,1.301,4.185,3.342,4.185,5.73
		c0,2.519-1.836,5.447-5.869,6.888c-0.348-0.047-0.708-0.082-1.075-0.109c0.116-0.032,0.229-0.066,0.342-0.1
		C30.524,54.419,32.385,51.414,36.601,50.336z M28.079,47.924c0-1.097,0.325-2.854,2.247-3.159c-0.019,0.043-0.045,0.082-0.056,0.13
		c-0.087,0.377,0.104,0.813,0.425,0.972c0.295,0.146,0.692,0.433,0.94,0.977c-0.202,0.565-0.076,1.261,0.323,1.726
		c0.276,0.323,0.648,0.494,1.056,0.494c0.129,0,0.263-0.018,0.397-0.053c0.114-0.03,0.184-0.147,0.153-0.262
		s-0.144-0.185-0.263-0.154c-0.396,0.104-0.759-0.004-1.018-0.305c-0.312-0.363-0.404-0.937-0.22-1.364
		c0.023-0.053,0.023-0.114,0.002-0.167c-0.296-0.72-0.807-1.092-1.182-1.277c-0.131-0.064-0.243-0.288-0.196-0.489
		c0.053-0.228,0.29-0.277,0.492-0.278c0.044,0,0.091,0.004,0.141,0.009c0.571,0.056,1.076,0.23,1.499,0.507
		c0.025,0.017,0.046,0.039,0.07,0.056c0.171,0.12,0.328,0.257,0.469,0.411c0.035,0.039,0.066,0.081,0.1,0.122
		c0.125,0.154,0.237,0.322,0.331,0.505c0.238,0.46,0.38,0.994,0.38,1.6c0,1.927-1.31,3.222-3.258,3.222
		C28.447,51.145,28.079,49.127,28.079,47.924z M31.317,41.865v-0.207c0.253-0.198,0.509-0.39,0.777-0.565
		c-0.215,0.224-0.418,0.472-0.589,0.772c-0.071,0.125-0.127,0.272-0.188,0.412V41.865z M33.834,40.41
		c-0.034,2.349-0.858,3.611-2.513,3.847C31.4,41.896,32.644,40.94,33.834,40.41z M34.689,48.072
		c-0.033,0.208-0.095,0.408-0.157,0.609c0.034-0.185,0.044-0.383,0.052-0.581L34.689,48.072z M37.51,54.669
		c0,0.481-0.39,0.871-0.87,0.871s-0.87-0.39-0.87-0.871s0.39-0.871,0.87-0.871S37.51,54.188,37.51,54.669z M31.939,56.806
		c0.094-0.035,0.194-0.061,0.3-0.061c0.235,0,0.446,0.095,0.603,0.247C32.55,56.921,32.246,56.862,31.939,56.806z M33.76,56.453
		c0-0.481,0.39-0.871,0.87-0.871c0.481,0,0.87,0.39,0.87,0.871c0,0.481-0.389,0.871-0.87,0.871
		C34.15,57.324,33.76,56.934,33.76,56.453z M37.254,52.504c0-0.481,0.39-0.871,0.87-0.871c0.481,0,0.87,0.39,0.87,0.871
		c0,0.482-0.389,0.871-0.87,0.871C37.644,53.376,37.254,52.986,37.254,52.504z M38.609,50.919c-0.48,0-0.869-0.39-0.869-0.871
		c0-0.481,0.389-0.871,0.869-0.871c0.482,0,0.871,0.39,0.871,0.871C39.48,50.529,39.091,50.919,38.609,50.919z M37.674,59.265
		c-0.669-0.51-1.416-0.968-2.247-1.359c-0.161-0.076-0.325-0.15-0.492-0.22c2.96-1.567,4.493-3.867,4.942-5.798
		c0.023-0.106,0.122-0.175,0.233-0.166c0.053,0.006,0.099,0.031,0.133,0.067h2.111c0.063,0,0.124,0.028,0.164,0.076
		c0.041,0.049,0.059,0.113,0.048,0.175c-0.214,1.239-1.123,4.922-4.527,7.496C37.923,59.441,37.794,59.356,37.674,59.265z
		 M46.067,47.521c-0.868,0.397-1.346-0.186-1.346-0.73c0-0.544,0.814-1.614,1.776-1.293C45.774,45.807,45.653,46.866,46.067,47.521z
		 M45.852,50.083c0,1.196-0.606,2.206-1.323,2.206c-0.718,0-1.325-1.01-1.325-2.206s0.607-2.206,1.325-2.206
		C45.246,47.877,45.852,48.888,45.852,50.083z M42.989,47.521c0.415-0.655,0.294-1.714-0.43-2.023
		c0.962-0.321,1.776,0.75,1.776,1.293C44.335,47.335,43.857,47.918,42.989,47.521z M42.828,49.454
		c-0.032,0.202-0.054,0.411-0.054,0.629c0,0.219,0.022,0.427,0.054,0.629h-1.22h-0.001v-1.259h0.001H42.828z M42.989,52.646
		c0.868-0.397,1.346,0.186,1.346,0.729c0,0.544-0.814,1.615-1.776,1.294C43.283,54.36,43.404,53.302,42.989,52.646z M46.067,52.646
		c-0.414,0.656-0.293,1.714,0.43,2.023c-0.962,0.321-1.776-0.75-1.776-1.294C44.721,52.832,45.199,52.249,46.067,52.646z
		 M46.228,50.713c0.032-0.202,0.054-0.411,0.054-0.629c0-0.219-0.022-0.427-0.054-0.629h1.222h0.001v1.259H47.45H46.228z
		 M46.702,48.379c-0.063,0-0.124-0.028-0.165-0.077c-0.04-0.048-0.058-0.112-0.047-0.175c0.216-1.24,1.129-4.929,4.538-7.502
		c0.115,0.095,0.233,0.187,0.353,0.279c0.669,0.51,1.417,0.967,2.247,1.359c0.16,0.075,0.312,0.158,0.478,0.228
		c-2.95,1.567-4.478,3.862-4.925,5.79c-0.024,0.106-0.129,0.171-0.233,0.166c-0.053-0.006-0.099-0.031-0.133-0.067H46.702z
		 M57.091,43.366c-0.087,0.029-0.176,0.055-0.273,0.055c-0.242,0-0.46-0.099-0.617-0.258C56.493,43.236,56.783,43.309,57.091,43.366
		z M55.224,59.757c0.033-2.35,0.857-3.612,2.513-3.847C57.658,58.27,56.414,59.227,55.224,59.757z M54.368,52.096
		c0.033-0.208,0.095-0.409,0.158-0.61c-0.034,0.186-0.044,0.383-0.052,0.581L54.368,52.096z M51.803,47.662
		c0,0.481-0.39,0.871-0.869,0.871c-0.483,0-0.873-0.39-0.873-0.871c0-0.481,0.39-0.871,0.873-0.871
		C51.413,46.791,51.803,47.181,51.803,47.662z M52.416,46.369c-0.48,0-0.87-0.39-0.87-0.871c0-0.481,0.39-0.871,0.87-0.871
		c0.481,0,0.871,0.39,0.871,0.871C53.288,45.978,52.898,46.369,52.416,46.369z M53.556,43.714c0-0.481,0.39-0.871,0.87-0.871
		c0.481,0,0.871,0.39,0.871,0.871c0,0.481-0.39,0.871-0.871,0.871C53.946,44.585,53.556,44.195,53.556,43.714z M50.448,49.248
		c0.48,0,0.87,0.39,0.87,0.871c0,0.481-0.39,0.871-0.87,0.871c-0.481,0-0.871-0.39-0.871-0.871
		C49.576,49.638,49.966,49.248,50.448,49.248z M54.554,51.375c0.022-0.064,0.031-0.131,0.056-0.194
		C54.592,51.246,54.569,51.308,54.554,51.375z M34.5,48.804c-0.02,0.06-0.029,0.122-0.052,0.181
		C34.464,48.924,34.486,48.866,34.5,48.804z M32.226,52.173c-1.494,1.399-2.189,3.084-2.2,4.394
		c-0.226-0.015-0.458-0.022-0.691-0.029c-0.636-0.798-1.192-1.69-1.656-2.676C29.461,53.551,31.008,52.966,32.226,52.173z
		 M56.828,47.996c1.497-1.401,2.192-3.089,2.201-4.399c0.226,0.015,0.457,0.024,0.69,0.032c0.636,0.798,1.193,1.691,1.657,2.678
		C59.594,46.616,58.046,47.202,56.828,47.996z M29.564,44.506c-1.123,0.433-1.778,1.47-1.886,2.982h-0.202v-0.771
		c0.4-0.923,0.879-1.771,1.425-2.54C29.103,44.311,29.323,44.422,29.564,44.506z M27.476,52.501v-0.974
		c0.53-0.141,1.018-0.315,1.477-0.509c0.515,0.364,1.173,0.557,1.959,0.557c0.81,0,1.527-0.21,2.11-0.583
		c-1.279,1.193-3.187,2.082-5.538,2.471l-0.007-0.014c0,0,0-0.001-0.001-0.002V52.501z M59.494,55.662
		c1.123-0.433,1.777-1.471,1.885-2.983h0.201v0.773c-0.4,0.923-0.879,1.77-1.424,2.539C59.954,55.856,59.735,55.745,59.494,55.662z
		 M42.757,28.761c0.645,0.846,1.35,1.708,2.082,2.558c-1.396-0.168-3.077-0.82-3.85-2.859c-0.028-0.075-0.097-0.128-0.177-0.137
		c-0.081-0.01-0.158,0.027-0.203,0.093c-1.307,1.946-2.409,2.796-4.583,3.485c0.583-3.927,2.912-5.451,4.733-6.042
		C41.308,26.771,41.988,27.753,42.757,28.761z M35.924,32.434c1.029-0.396,2.853-0.566,3.92,0.411
		c-0.253-0.662-0.956-1.189-1.733-1.349c1.029-0.578,1.805-1.34,2.632-2.514c0.643,1.38,1.742,2.161,2.956,2.541
		c-0.858,0.181-1.625,0.686-1.915,1.319c1.045-0.811,2.684-0.82,3.892-0.57c0.297,0.332,0.597,0.66,0.897,0.983
		c0.434,1.989,1.441,4.33,3.281,6.29c-0.199,0.34-0.422,0.668-0.672,0.98c-1.985,2.484-5.231,3.595-8.688,2.979
		c-1.911-0.342-3.329-1.283-4.213-2.795C34.812,38.193,35.162,34.722,35.924,32.434z M30.812,39.436
		c0.023,0.018,0.051,0.024,0.075,0.04v4.798c-0.053,0-0.099,0.011-0.15,0.013v-4.812C30.761,39.458,30.789,39.453,30.812,39.436z
		 M28.784,56.535c-0.013,0-0.027,0-0.04,0c-0.418-0.18-0.841-0.348-1.267-0.509v-1.608C27.86,55.179,28.294,55.888,28.784,56.535z
		 M44.218,68.849c1.396,0.169,3.077,0.821,3.85,2.858c0.028,0.075,0.097,0.128,0.177,0.138c0.076,0.003,0.158-0.027,0.203-0.094
		c1.305-1.946,2.408-2.797,4.582-3.484c-0.583,3.926-2.912,5.45-4.732,6.042C47.288,72.631,45.822,70.711,44.218,68.849z
		 M53.133,67.733c-1.028,0.396-2.853,0.566-3.921-0.411c0.253,0.662,0.956,1.189,1.734,1.35c-1.029,0.577-1.805,1.34-2.632,2.514
		c-0.643-1.38-1.744-2.16-2.959-2.54c0.859-0.18,1.628-0.686,1.918-1.319c-1.045,0.811-2.685,0.82-3.893,0.57
		c-0.297-0.332-0.596-0.659-0.896-0.982c-0.434-1.988-1.448-4.323-3.286-6.282c0.2-0.342,0.424-0.673,0.676-0.989
		c1.625-2.032,4.094-3.147,6.829-3.147c0.609,0,1.231,0.055,1.859,0.167c1.911,0.343,3.328,1.283,4.212,2.795
		C54.245,61.974,53.895,65.445,53.133,67.733z M58.244,60.732c-0.022-0.017-0.05-0.021-0.073-0.037v-4.801
		c0.052,0,0.098-0.011,0.149-0.013v4.812C58.296,60.71,58.267,60.714,58.244,60.732z M60.29,43.654c0.009,0,0.016,0.001,0.025,0.001
		c0.017,0,0.035-0.001,0.052-0.001c0.4,0.171,0.804,0.333,1.212,0.487v1.609C61.2,44.997,60.772,44.295,60.29,43.654z
		 M55.891,32.583c-0.608,0-1.104,0.495-1.104,1.103s0.495,1.103,1.104,1.103c0.607,0,1.102-0.495,1.102-1.103
		c0-0.237-0.091-0.444-0.218-0.624c0.242,0.304,0.515,0.589,0.82,0.852c-0.374,0.177-0.638,0.551-0.638,0.991
		c0,0.232,0.079,0.448,0.209,0.631L56.893,35.6c-4.328-2.175-11.503-9.783-13.263-12.398l1.088-0.666h7.227
		c1.123,0.78,1.867,1.833,2.275,3.215c0.145,0.492,0.269,1.079,0.399,1.7c0.36,1.711,0.806,3.803,2.022,5.436
		C56.444,32.702,56.183,32.583,55.891,32.583z M59.161,34.891c0.082,0.036,0.159,0.077,0.245,0.11l-0.265,0.063
		c0.008-0.053,0.022-0.105,0.022-0.159C59.163,34.9,59.161,34.895,59.161,34.891z M28.552,43.924c-0.4,0.563-0.75,1.181-1.076,1.825
		v-4.119C27.642,42.635,27.994,43.41,28.552,43.924z M29.897,65.278c-0.083-0.036-0.16-0.077-0.247-0.111l0.267-0.064
		c-0.008,0.053-0.022,0.106-0.022,0.16C29.895,65.268,29.897,65.273,29.897,65.278z M60.505,56.243
		c0.4-0.563,0.75-1.181,1.075-1.824v4.113C61.414,57.53,61.062,56.757,60.505,56.243z M61.58,39.887
		c-1.853-0.578-4.167-1.496-6.719-3.359l1.216-0.29l4.165-0.994c0.096-0.022,0.163-0.107,0.165-0.206s-0.063-0.185-0.158-0.211
		c-0.475-0.13-0.903-0.299-1.289-0.499c-0.004-0.002-0.005-0.007-0.009-0.009c-0.262-0.136-0.513-0.294-0.748-0.467
		c-2.117-1.552-2.69-4.235-3.163-6.489c-0.133-0.63-0.258-1.225-0.408-1.733c-0.38-1.289-1.054-2.297-2.015-3.093h8.962V39.887z
		 M43.894,22.537l-0.68,0.416c-0.001,0-0.001,0-0.002,0l-1.333,0.816c0,0,0,0-0.001,0l-1.534,0.939
		c-0.097,0.06-0.131,0.184-0.078,0.284c0.086,0.162,0.183,0.331,0.28,0.5c-2.749,0.932-4.576,3.304-4.986,6.659
		c-0.162,0.468-0.301,0.998-0.418,1.553c-0.759,0.482-1.415,1.018-1.975,1.605c-0.063-0.099-0.135-0.194-0.22-0.279
		c-0.582-0.581-1.501-0.625-2.135-0.134c-0.632-0.492-1.552-0.447-2.136,0.134c-0.306,0.306-0.474,0.712-0.474,1.144
		c0,0.364,0.119,0.709,0.34,0.992c-0.221,0.282-0.34,0.628-0.34,0.992c0,0.432,0.168,0.838,0.475,1.144
		c0.441,0.44,1.074,0.57,1.63,0.395v2.229v0.019c-0.036,0.033-0.069,0.07-0.104,0.103c-0.002-0.003-0.003-0.007-0.004-0.01
		c-0.623-1.217-1.673-1.805-2.544-2.151c-0.058-0.023-0.123-0.011-0.179,0.019V22.537H43.894z M27.476,60.281
		c1.853,0.578,4.166,1.496,6.719,3.359l-2.051,0.489c0,0,0,0,0,0l-0.727,0.173c-0.001,0-0.001,0-0.002,0l-1.226,0.292
		c0,0-0.001,0.001-0.001,0.001l-1.376,0.328c-0.096,0.022-0.164,0.107-0.165,0.206c-0.002,0.098,0.063,0.185,0.158,0.211
		c0.477,0.13,0.906,0.3,1.294,0.5c0.003,0.001,0.003,0.005,0.006,0.006c0.256,0.134,0.504,0.29,0.743,0.465
		c2.122,1.552,2.694,4.238,3.168,6.494c0.133,0.629,0.258,1.224,0.407,1.732c0.38,1.289,1.055,2.297,2.015,3.092h-8.962V60.281z
		 M45.163,77.63l3.551-2.172c0.097-0.06,0.131-0.184,0.078-0.284c-0.086-0.162-0.184-0.331-0.28-0.5
		c2.749-0.932,4.575-3.305,4.985-6.659c0.162-0.469,0.301-0.998,0.418-1.553c0.766-0.487,1.428-1.029,1.991-1.622
		c0.063,0.101,0.115,0.208,0.203,0.296c0.315,0.315,0.729,0.473,1.144,0.473c0.351,0,0.701-0.113,0.992-0.339
		c0.636,0.494,1.555,0.448,2.136-0.134s0.626-1.501,0.134-2.135c0.492-0.634,0.447-1.553-0.134-2.134
		c-0.44-0.44-1.073-0.571-1.631-0.396v-2.229v-0.019c0.036-0.033,0.069-0.07,0.104-0.103c0.002,0.003,0.003,0.006,0.004,0.009
		c0.623,1.217,1.673,1.805,2.544,2.151c0.025,0.01,0.052,0.015,0.079,0.015c0.035,0,0.068-0.013,0.099-0.03V77.63H45.163z"/>
	<path class="st1" d="M25.749,26.602c-0.251,0-0.475-0.191-0.72-0.618c0.265-0.255,0.407-0.445,0.557-0.764
		c0.313-0.636,0.469-1.427,0.469-2.363c0-2.118-0.917-3.445-2.383-3.445c-0.747,0-1.365,0.345-1.773,1.009
		c-0.407,0.645-0.618,1.545-0.618,2.609c0,1.064,0.224,1.927,0.659,2.536c0.421,0.609,1.025,0.927,1.732,0.927
		c0.231,0,0.387-0.027,0.611-0.109c0.306,0.518,0.571,0.718,0.944,0.718c0.36,0,0.686-0.145,1.053-0.464l-0.041-0.209
		C26.055,26.547,25.892,26.602,25.749,26.602z M23.672,26.256c-0.271,0-0.537-0.118-0.734-0.336
		c-0.143-0.145-0.197-0.273-0.265-0.554c0.047-0.445,0.197-0.664,0.441-0.664c0.217,0,0.4,0.145,0.597,0.491
		c0.143,0.245,0.21,0.382,0.448,0.936C23.997,26.22,23.842,26.256,23.672,26.256z M24.731,25.402
		c-0.435-0.964-0.808-1.354-1.297-1.354c-0.455,0-0.774,0.364-0.896,1.018c-0.014-0.073-0.027-0.118-0.041-0.155
		c-0.068-0.264-0.108-0.436-0.115-0.463c-0.081-0.373-0.129-0.918-0.129-1.491c0-1.009,0.123-1.845,0.36-2.454
		c0.211-0.546,0.577-0.846,1.032-0.846c0.496,0,0.897,0.346,1.121,0.964c0.21,0.6,0.319,1.4,0.319,2.373
		c0,0.664-0.054,1.318-0.143,1.718C24.901,24.884,24.853,25.038,24.731,25.402z"/>
	<path class="st1" d="M32.217,33.307c0.471-1.643,2.373-4.217,3.914-5.097c-1.541-0.879-3.443-3.455-3.914-5.097
		c-0.471,1.642-2.371,4.218-3.914,5.097C29.846,29.09,31.746,31.665,32.217,33.307z"/>
	<path class="st1" d="M56.839,66.86c-0.471,1.643-2.371,4.217-3.914,5.096c1.542,0.879,3.443,3.455,3.914,5.097
		c0.471-1.642,2.371-4.218,3.912-5.097C59.21,71.077,57.31,68.503,56.839,66.86z"/>
	<path class="st1" d="M23.569,28.134c-0.247,0.867-1.251,2.227-2.065,2.692c0.813,0.464,1.817,1.823,2.065,2.691
		c0.249-0.868,1.253-2.227,2.067-2.691C24.821,30.361,23.818,29.001,23.569,28.134z"/>
	<path class="st1" d="M65.426,73.604c-0.231,0-0.387,0.027-0.611,0.109c-0.306-0.518-0.571-0.718-0.944-0.718
		c-0.36,0-0.686,0.145-1.053,0.464l0.041,0.209c0.183-0.118,0.346-0.173,0.489-0.173c0.251,0,0.475,0.191,0.72,0.618
		c-0.265,0.255-0.407,0.445-0.557,0.764c-0.313,0.636-0.469,1.427-0.469,2.363c0,2.118,0.917,3.445,2.383,3.445
		c0.747,0,1.365-0.345,1.773-1.009c0.407-0.645,0.618-1.545,0.618-2.609c0-1.064-0.224-1.927-0.659-2.536
		C66.736,73.922,66.132,73.604,65.426,73.604z M65.426,73.84c0.271,0,0.537,0.118,0.733,0.337c0.143,0.145,0.197,0.273,0.265,0.554
		c-0.047,0.445-0.197,0.664-0.441,0.664c-0.217,0-0.4-0.145-0.597-0.491c-0.143-0.246-0.21-0.382-0.448-0.936
		C65.1,73.876,65.256,73.84,65.426,73.84z M66.485,79.594c-0.211,0.545-0.577,0.846-1.032,0.846c-0.496,0-0.897-0.346-1.121-0.964
		c-0.211-0.6-0.319-1.4-0.319-2.373c0-0.664,0.054-1.318,0.143-1.718c0.041-0.173,0.088-0.327,0.21-0.691
		c0.435,0.964,0.808,1.355,1.297,1.355c0.455,0,0.774-0.364,0.896-1.018c0.014,0.073,0.027,0.118,0.041,0.155
		c0.068,0.263,0.108,0.436,0.115,0.463c0.082,0.373,0.129,0.918,0.129,1.491C66.845,78.148,66.723,78.985,66.485,79.594z"/>
	<path class="st1" d="M65.527,71.962c0.249-0.867,1.251-2.227,2.066-2.692c-0.814-0.464-1.817-1.823-2.066-2.691
		c-0.249,0.868-1.253,2.227-2.067,2.691C64.275,69.735,65.279,71.095,65.527,71.962z"/>
	<path d="M43.609,40.26c-2.063-0.577-4.8-0.463-5.687,0.018c-0.104,0.057-0.144,0.187-0.087,0.292
		c0.057,0.105,0.189,0.142,0.292,0.086c0.728-0.395,3.301-0.56,5.366,0.018c0.02,0.005,0.038,0.008,0.058,0.008
		c0.094,0,0.181-0.062,0.207-0.157C43.791,40.41,43.723,40.291,43.609,40.26z"/>
	<path d="M41.72,41.34c-0.276,0.241-0.796,0.353-1.288,0.274c-0.338-0.053-0.604-0.189-0.71-0.365
		c-0.061-0.102-0.192-0.132-0.295-0.073c-0.102,0.062-0.134,0.194-0.072,0.295c0.176,0.292,0.535,0.493,1.011,0.567
		c0.127,0.02,0.255,0.03,0.381,0.03c0.492,0,0.96-0.146,1.257-0.405c0.089-0.078,0.099-0.214,0.021-0.303
		C41.944,41.271,41.81,41.261,41.72,41.34z"/>
	<path class="st0" d="M58.32,55.881c-0.051,0.002-0.097,0.012-0.149,0.013v4.801c0.023,0.016,0.051,0.02,0.073,0.037
		c0.023-0.018,0.052-0.023,0.076-0.039V55.881z"/>
	<path class="st0" d="M58.145,49.022c-1.948,0-3.258,1.295-3.258,3.222c0,0.609,0.143,1.145,0.384,1.606
		c0.094,0.18,0.203,0.345,0.327,0.497c0.034,0.041,0.065,0.085,0.101,0.124c0.14,0.154,0.297,0.29,0.467,0.41
		c0.025,0.018,0.046,0.04,0.072,0.057c0.422,0.277,0.927,0.451,1.497,0.507c0.051,0.005,0.098,0.009,0.141,0.009
		c0.203,0,0.44-0.05,0.493-0.278c0.046-0.201-0.065-0.424-0.196-0.489c-0.537-0.266-0.946-0.707-1.182-1.276
		c-0.022-0.054-0.022-0.115,0.001-0.168c0.186-0.427,0.094-1-0.218-1.364c-0.15-0.175-0.485-0.448-1.019-0.306
		c-0.119,0.03-0.233-0.039-0.263-0.154c-0.03-0.115,0.039-0.232,0.153-0.262c0.556-0.144,1.089,0.015,1.454,0.442
		c0.398,0.464,0.524,1.161,0.321,1.725c0.251,0.545,0.646,0.832,0.941,0.977c0.32,0.158,0.512,0.594,0.425,0.971
		c-0.011,0.049-0.037,0.087-0.056,0.131c1.922-0.305,2.247-2.062,2.247-3.159C60.978,51.041,60.61,49.022,58.145,49.022z"/>
	<path class="st0" d="M49.146,35.872c0.665,1.397,2.487,3.427,4.412,4.403c0.105,0.054,0.147,0.183,0.094,0.289
		c-0.037,0.075-0.113,0.118-0.191,0.118c-0.033,0-0.066-0.007-0.098-0.023c-2.069-1.05-4.041-3.283-4.681-4.75
		c-0.047-0.109,0.003-0.235,0.111-0.283c0.031-0.014,0.063-0.003,0.095-0.002c-0.558-0.542-1.132-1.123-1.709-1.727
		c1.116,3.954,4.554,8.885,12.157,9.285c-2.628-1.246-5.144-2.911-7.818-5.178c-0.005-0.003-0.011-0.005-0.015-0.009
		c-0.354-0.301-0.712-0.613-1.071-0.934c-0.043-0.039-0.085-0.072-0.128-0.111C49.932,36.616,49.543,36.252,49.146,35.872z"/>
	<path class="st0" d="M36.027,31.901c2.174-0.688,3.276-1.539,4.583-3.485c0.045-0.066,0.122-0.103,0.203-0.093
		c0.08,0.009,0.148,0.062,0.177,0.137c0.773,2.04,2.453,2.691,3.85,2.859c-0.732-0.85-1.437-1.712-2.082-2.558
		c-0.769-1.008-1.449-1.99-1.997-2.902C38.939,26.45,36.61,27.974,36.027,31.901z M40.333,27.163
		c0.114,0.035,0.178,0.155,0.144,0.268c-0.266,0.869-2.298,2.916-3.398,3.422c-0.029,0.013-0.06,0.02-0.09,0.02
		c-0.081,0-0.159-0.046-0.195-0.125c-0.05-0.108-0.002-0.235,0.105-0.285c0.982-0.452,2.936-2.399,3.166-3.157
		C40.098,27.192,40.218,27.126,40.333,27.163z M38.711,27.211c0.088-0.08,0.223-0.076,0.305,0.012
		c0.08,0.087,0.075,0.223-0.012,0.304c-0.353,0.327-1.23,1.36-1.508,1.843c-0.04,0.069-0.112,0.108-0.187,0.108
		c-0.036,0-0.073-0.009-0.107-0.028c-0.103-0.059-0.138-0.19-0.079-0.293C37.422,28.634,38.332,27.562,38.711,27.211z"/>
	<path class="st2" d="M59.406,35.001c-0.086-0.033-0.162-0.074-0.245-0.11c0,0.005,0.002,0.009,0.002,0.014
		c0,0.054-0.014,0.106-0.022,0.159L59.406,35.001z"/>
	<path class="st2" d="M54.62,27.452c-0.131-0.621-0.255-1.208-0.399-1.7c-0.408-1.382-1.152-2.435-2.275-3.215h-7.227l-1.088,0.666
		c1.759,2.615,8.934,10.222,13.263,12.398l0.273-0.065c-0.13-0.183-0.209-0.398-0.209-0.631c0-0.44,0.264-0.814,0.638-0.991
		c-0.305-0.263-0.577-0.548-0.82-0.852c0.127,0.18,0.218,0.387,0.218,0.624c0,0.608-0.494,1.103-1.102,1.103
		c-0.608,0-1.104-0.495-1.104-1.103s0.495-1.103,1.104-1.103c0.292,0,0.553,0.119,0.75,0.304
		C55.425,31.255,54.98,29.163,54.62,27.452z M45.098,24.243c0-0.608,0.495-1.103,1.104-1.103s1.104,0.495,1.104,1.103
		c0,0.608-0.495,1.103-1.104,1.103S45.098,24.851,45.098,24.243z M47.978,27.583c-0.608,0-1.103-0.495-1.103-1.103
		s0.494-1.103,1.103-1.103s1.104,0.495,1.104,1.103S48.587,27.583,47.978,27.583z M49.931,29.478c-0.608,0-1.104-0.495-1.104-1.103
		s0.495-1.103,1.104-1.103c0.607,0,1.102,0.495,1.102,1.103S50.539,29.478,49.931,29.478z M51.896,31.353
		c-0.608,0-1.103-0.495-1.103-1.103s0.494-1.103,1.103-1.103S53,29.643,53,30.25S52.505,31.353,51.896,31.353z M53.847,33.196
		c-0.608,0-1.103-0.495-1.103-1.103c0-0.608,0.494-1.103,1.103-1.103c0.607,0,1.102,0.495,1.102,1.103
		C54.949,32.701,54.455,33.196,53.847,33.196z"/>
	<path class="st1" d="M52.79,35.426l-0.474-0.418c-3.102-2.731-8.256-7.271-10.397-10.758l-1.177,0.72
		c1.949,3.571,6.38,8.432,9.289,11.146c0.194,0.181,0.381,0.352,0.56,0.513c3.813,3.423,7.215,5.609,10.988,7.054v-0.511V40.34
		C59.246,39.622,56.165,38.403,52.79,35.426z"/>
	<path class="st2" d="M28.632,38.158c0,0.317,0.124,0.615,0.349,0.84c0.461,0.46,1.214,0.463,1.679,0
		c0.042-0.042,0.098-0.063,0.152-0.063s0.11,0.021,0.152,0.063c0.463,0.463,1.215,0.463,1.678,0
		c0.225-0.224,0.349-0.522,0.349-0.839c0-0.317-0.124-0.616-0.349-0.839c-0.04-0.041-0.063-0.095-0.063-0.152
		s0.022-0.112,0.063-0.152c0.225-0.224,0.349-0.522,0.349-0.839c0-0.317-0.124-0.615-0.349-0.839c-0.463-0.463-1.217-0.462-1.678,0
		c-0.084,0.084-0.221,0.083-0.305,0c-0.462-0.463-1.216-0.462-1.68,0c-0.224,0.224-0.348,0.522-0.348,0.839
		c0,0.317,0.124,0.616,0.349,0.839c0.04,0.041,0.063,0.095,0.063,0.152s-0.022,0.112-0.063,0.152
		C28.756,37.542,28.632,37.84,28.632,38.158z M30.812,35.96c0.665,0,1.206,0.541,1.206,1.206c0,0.666-0.541,1.207-1.206,1.207
		c-0.666,0-1.207-0.542-1.207-1.207C29.605,36.501,30.146,35.96,30.812,35.96z"/>
	<path class="st0" d="M30.812,37.943c0.428,0,0.776-0.349,0.776-0.777c0-0.428-0.349-0.776-0.776-0.776
		c-0.429,0-0.777,0.348-0.777,0.776C30.035,37.595,30.383,37.943,30.812,37.943z"/>
	<path d="M30.812,38.373c0.665,0,1.206-0.542,1.206-1.207c0-0.665-0.541-1.206-1.206-1.206c-0.666,0-1.207,0.541-1.207,1.206
		C29.605,37.832,30.146,38.373,30.812,38.373z M30.812,36.39c0.428,0,0.776,0.348,0.776,0.776c0,0.429-0.349,0.777-0.776,0.777
		c-0.429,0-0.777-0.349-0.777-0.777C30.035,36.738,30.383,36.39,30.812,36.39z"/>
	<path class="st7" d="M27.791,40.41c0.032,2.349,0.857,3.611,2.513,3.847C30.224,41.896,28.98,40.94,27.791,40.41z"/>
	<path class="st7" d="M31.321,44.257c1.654-0.236,2.479-1.499,2.513-3.847C32.644,40.94,31.4,41.896,31.321,44.257z"/>
	<path d="M47.305,24.243c0-0.608-0.495-1.103-1.104-1.103s-1.104,0.495-1.104,1.103c0,0.608,0.495,1.103,1.104,1.103
		S47.305,24.851,47.305,24.243z"/>
	<path d="M47.978,25.377c-0.608,0-1.103,0.495-1.103,1.103s0.494,1.103,1.103,1.103s1.104-0.495,1.104-1.103
		S48.587,25.377,47.978,25.377z"/>
	<path d="M49.931,27.272c-0.608,0-1.104,0.495-1.104,1.103s0.495,1.103,1.104,1.103c0.607,0,1.102-0.495,1.102-1.103
		S50.539,27.272,49.931,27.272z"/>
	<path d="M51.896,29.148c-0.608,0-1.103,0.495-1.103,1.103s0.494,1.103,1.103,1.103S53,30.858,53,30.25S52.505,29.148,51.896,29.148
		z"/>
	<path d="M53.847,30.991c-0.608,0-1.103,0.495-1.103,1.103c0,0.608,0.494,1.103,1.103,1.103c0.607,0,1.102-0.495,1.102-1.103
		C54.949,31.485,54.455,30.991,53.847,30.991z"/>
	<path d="M36.898,30.463c-0.107,0.05-0.155,0.177-0.105,0.285c0.036,0.079,0.114,0.125,0.195,0.125c0.03,0,0.061-0.006,0.09-0.02
		c1.101-0.506,3.133-2.553,3.398-3.422c0.034-0.113-0.029-0.233-0.144-0.268c-0.114-0.037-0.234,0.029-0.269,0.143
		C39.834,28.064,37.88,30.011,36.898,30.463z"/>
	<path d="M37.202,29.449c0.034,0.02,0.071,0.028,0.107,0.028c0.074,0,0.146-0.039,0.187-0.108c0.277-0.483,1.155-1.517,1.508-1.843
		c0.087-0.081,0.092-0.217,0.012-0.304c-0.082-0.088-0.217-0.091-0.305-0.012c-0.379,0.351-1.288,1.423-1.588,1.945
		C37.064,29.259,37.099,29.39,37.202,29.449z"/>
	<path class="st0" d="M43.044,64.59c0.314,1.074,1.521,1.604,2.577,1.577c0.866-0.024,1.844-0.423,2.065-1.463
		C46.288,63.771,44.176,64.064,43.044,64.59z M45.463,65.088c0,0.322-0.263,0.584-0.585,0.584s-0.584-0.262-0.584-0.584
		c0-0.323,0.262-0.585,0.584-0.585S45.463,64.766,45.463,65.088z"/>
	<path class="st0" d="M50.858,64.933c-0.085,0-0.154,0.07-0.154,0.155s0.069,0.155,0.154,0.155c0.086,0,0.155-0.069,0.155-0.155
		S50.944,64.933,50.858,64.933z"/>
	<path class="st0" d="M44.723,65.088c0,0.085,0.069,0.155,0.154,0.155c0.086,0,0.155-0.069,0.155-0.155s-0.069-0.155-0.155-0.155
		C44.793,64.933,44.723,65.003,44.723,65.088z"/>
	<path class="st0" d="M52.775,59.459c-0.884-1.513-2.301-2.453-4.212-2.795c-0.628-0.112-1.25-0.167-1.859-0.167
		c-2.735,0-5.204,1.115-6.829,3.147c-0.252,0.315-0.476,0.646-0.676,0.989c1.838,1.959,2.852,4.294,3.286,6.282
		c0.3,0.323,0.599,0.65,0.896,0.982c1.208,0.25,2.847,0.241,3.893-0.57c-0.29,0.633-1.059,1.138-1.918,1.319
		c1.215,0.38,2.316,1.16,2.959,2.54c0.827-1.174,1.603-1.937,2.632-2.514c-0.778-0.161-1.481-0.688-1.734-1.35
		c1.068,0.977,2.892,0.807,3.921,0.411C53.895,65.445,54.245,61.974,52.775,59.459z M47.052,58.503
		c0.375-0.325,1.02-0.472,1.639-0.375c0.476,0.074,0.834,0.276,1.01,0.567c0.062,0.102,0.029,0.234-0.072,0.295
		c-0.035,0.021-0.073,0.031-0.111,0.031c-0.072,0-0.144-0.037-0.184-0.104c-0.106-0.175-0.371-0.312-0.709-0.365
		c-0.487-0.078-1.012,0.033-1.289,0.274c-0.091,0.078-0.228,0.068-0.304-0.021C46.954,58.717,46.964,58.581,47.052,58.503z
		 M45.563,59.493c2.066,0.578,4.64,0.413,5.366,0.018c0.105-0.056,0.235-0.019,0.292,0.086c0.057,0.104,0.018,0.235-0.087,0.292
		c-0.472,0.255-1.464,0.407-2.601,0.407c-1.003,0-2.118-0.118-3.086-0.389c-0.114-0.032-0.182-0.15-0.149-0.265
		C45.331,59.528,45.451,59.464,45.563,59.493z M45.632,66.597c-0.031,0-0.063,0.001-0.095,0.001c-1.274,0-2.676-0.703-2.955-2.082
		c-0.019-0.093,0.026-0.188,0.111-0.233c1.245-0.654,3.73-1.041,5.354,0.149c0.064,0.047,0.098,0.125,0.086,0.204
		C47.966,65.791,46.984,66.56,45.632,66.597z M51.312,66.584c-1.001,0-2.092-0.595-2.342-1.954
		c-0.013-0.073,0.013-0.148,0.067-0.198c1.313-1.193,3.454-0.793,4.555-0.127c0.071,0.043,0.111,0.125,0.103,0.208
		c-0.152,1.372-1.295,2.035-2.293,2.07C51.372,66.583,51.342,66.584,51.312,66.584z"/>
	<path class="st0" d="M53.248,64.603c-0.967-0.523-2.729-0.826-3.829,0.068c0.266,1.134,1.23,1.507,1.968,1.481
		C52.198,66.124,53.067,65.633,53.248,64.603z M50.858,65.673c-0.322,0-0.584-0.262-0.584-0.584c0-0.323,0.262-0.585,0.584-0.585
		s0.585,0.262,0.585,0.585C51.443,65.411,51.18,65.673,50.858,65.673z"/>
	<path d="M42.694,64.283c-0.085,0.044-0.13,0.14-0.111,0.233c0.279,1.379,1.681,2.082,2.955,2.082c0.032,0,0.063,0,0.095-0.001
		c1.352-0.038,2.334-0.807,2.502-1.96c0.012-0.079-0.021-0.157-0.086-0.204C46.424,63.243,43.939,63.629,42.694,64.283z
		 M45.621,66.167c-1.056,0.027-2.263-0.503-2.577-1.577c1.133-0.526,3.244-0.819,4.643,0.114
		C47.464,65.744,46.487,66.143,45.621,66.167z"/>
	<path d="M53.695,64.512c0.009-0.083-0.031-0.164-0.103-0.208c-1.101-0.666-3.241-1.066-4.555,0.127
		c-0.055,0.05-0.08,0.125-0.067,0.198c0.25,1.359,1.341,1.954,2.342,1.954c0.03,0,0.06,0,0.09-0.001
		C52.4,66.547,53.543,65.884,53.695,64.512z M51.386,66.153c-0.737,0.025-1.702-0.348-1.968-1.481
		c1.101-0.894,2.862-0.591,3.829-0.068C53.067,65.633,52.198,66.124,51.386,66.153z"/>
	<path d="M44.294,65.088c0,0.322,0.262,0.584,0.584,0.584s0.585-0.262,0.585-0.584c0-0.323-0.263-0.585-0.585-0.585
		S44.294,64.766,44.294,65.088z M45.033,65.088c0,0.085-0.069,0.155-0.155,0.155c-0.085,0-0.154-0.069-0.154-0.155
		s0.069-0.155,0.154-0.155C44.964,64.933,45.033,65.003,45.033,65.088z"/>
	<path d="M50.858,64.503c-0.322,0-0.584,0.262-0.584,0.585c0,0.322,0.262,0.584,0.584,0.584s0.585-0.262,0.585-0.584
		C51.443,64.766,51.18,64.503,50.858,64.503z M50.858,65.243c-0.085,0-0.154-0.069-0.154-0.155s0.069-0.155,0.154-0.155
		c0.086,0,0.155,0.07,0.155,0.155S50.944,65.243,50.858,65.243z"/>
	<path d="M45.448,59.907c0.968,0.271,2.083,0.389,3.086,0.389c1.137,0,2.129-0.152,2.601-0.407c0.104-0.056,0.144-0.187,0.087-0.292
		c-0.057-0.105-0.187-0.143-0.292-0.086c-0.727,0.395-3.3,0.56-5.366-0.018c-0.112-0.029-0.232,0.035-0.265,0.149
		C45.266,59.757,45.334,59.875,45.448,59.907z"/>
	<path d="M47.032,58.806c0.076,0.089,0.213,0.099,0.304,0.021c0.277-0.241,0.802-0.352,1.289-0.274
		c0.338,0.053,0.603,0.189,0.709,0.365c0.04,0.067,0.111,0.104,0.184,0.104c0.038,0,0.076-0.01,0.111-0.031
		c0.102-0.062,0.134-0.194,0.072-0.295c-0.176-0.291-0.534-0.493-1.01-0.567c-0.619-0.097-1.264,0.05-1.639,0.375
		C46.964,58.581,46.954,58.717,47.032,58.806z"/>
	<path class="st0" d="M29.719,56.985c2.626,1.245,5.142,2.91,7.816,5.177c0.006,0.004,0.012,0.006,0.017,0.011
		c0.396,0.337,0.794,0.682,1.199,1.045c0.373,0.335,0.762,0.699,1.16,1.08c-0.666-1.398-2.49-3.429-4.413-4.405
		c-0.105-0.054-0.147-0.183-0.094-0.289c0.053-0.106,0.185-0.147,0.289-0.095c2.066,1.049,4.039,3.282,4.681,4.75
		c0.047,0.108-0.002,0.235-0.111,0.283c-0.026,0.012-0.053,0.016-0.081,0.017c0.553,0.538,1.122,1.113,1.695,1.713
		C40.761,62.319,37.324,57.398,29.719,56.985z"/>
	<path class="st0" d="M53.03,68.267c-2.174,0.688-3.277,1.539-4.582,3.484c-0.045,0.067-0.127,0.098-0.203,0.094
		c-0.08-0.009-0.148-0.063-0.177-0.138c-0.773-2.037-2.454-2.689-3.85-2.858c1.604,1.862,3.07,3.782,4.079,5.459
		C50.118,73.717,52.447,72.193,53.03,68.267z M48.787,73.014c-0.021,0-0.042-0.003-0.063-0.009
		c-0.113-0.034-0.178-0.154-0.144-0.268c0.264-0.87,2.297-2.917,3.398-3.423c0.106-0.051,0.234-0.003,0.285,0.105
		c0.05,0.108,0.002,0.236-0.105,0.285c-0.983,0.452-2.937,2.399-3.166,3.158C48.964,72.955,48.88,73.014,48.787,73.014z
		 M50.346,72.957c-0.041,0.039-0.094,0.058-0.146,0.058c-0.058,0-0.115-0.023-0.157-0.068c-0.081-0.087-0.076-0.223,0.011-0.304
		c0.354-0.33,1.232-1.366,1.507-1.845c0.06-0.103,0.191-0.139,0.293-0.08c0.104,0.059,0.139,0.19,0.08,0.293
		C51.637,71.528,50.727,72.603,50.346,72.957z"/>
	<path class="st2" d="M32.164,64.567l-0.274,0.065c0.13,0.183,0.21,0.398,0.21,0.63c0,0.44-0.263,0.814-0.636,0.991
		c0.304,0.262,0.575,0.545,0.817,0.848c-0.126-0.179-0.216-0.385-0.216-0.621c0-0.608,0.495-1.103,1.104-1.103
		s1.103,0.495,1.103,1.103c0,0.608-0.494,1.103-1.103,1.103c-0.292,0-0.554-0.119-0.752-0.304c1.217,1.633,1.663,3.727,2.022,5.438
		c0.131,0.621,0.254,1.207,0.398,1.699c0.408,1.382,1.152,2.434,2.275,3.214h7.228l1.087-0.665
		C43.666,74.35,36.49,66.741,32.164,64.567z M35.211,69.177c-0.608,0-1.104-0.495-1.104-1.103c0-0.608,0.495-1.103,1.104-1.103
		s1.103,0.495,1.103,1.103C36.313,68.682,35.819,69.177,35.211,69.177z M37.16,71.02c-0.608,0-1.103-0.495-1.103-1.103
		c0-0.608,0.494-1.103,1.103-1.103s1.103,0.495,1.103,1.103C38.262,70.525,37.768,71.02,37.16,71.02z M39.126,72.895
		c-0.608,0-1.103-0.495-1.103-1.103c0-0.608,0.494-1.103,1.103-1.103c0.607,0,1.102,0.495,1.102,1.103
		C40.227,72.4,39.733,72.895,39.126,72.895z M39.975,73.687c0-0.608,0.494-1.103,1.103-1.103s1.103,0.495,1.103,1.103
		s-0.494,1.103-1.103,1.103S39.975,74.295,39.975,73.687z M42.855,77.027c-0.608,0-1.104-0.495-1.104-1.103
		c0-0.608,0.495-1.103,1.104-1.103s1.103,0.495,1.103,1.103C43.958,76.533,43.464,77.027,42.855,77.027z"/>
	<path class="st2" d="M29.65,65.166c0.086,0.034,0.164,0.075,0.247,0.111c0-0.005-0.002-0.01-0.002-0.015
		c0-0.054,0.014-0.107,0.022-0.16L29.65,65.166z"/>
	<path class="st1" d="M38.465,63.538c-3.815-3.425-7.218-5.611-10.989-7.055v0.512v2.833c2.335,0.718,5.416,1.937,8.791,4.914
		l0.48,0.423c3.1,2.73,8.251,7.268,10.39,10.752l1.178-0.72C46.234,71.386,41.333,66.111,38.465,63.538z"/>
	<path class="st2" d="M60.076,61.17c-0.462-0.463-1.216-0.463-1.68,0c-0.041,0.04-0.096,0.063-0.152,0.063
		c-0.058,0-0.112-0.022-0.152-0.063c-0.447-0.448-1.23-0.449-1.678,0c-0.463,0.463-0.463,1.216,0,1.679
		c0.084,0.084,0.084,0.22,0,0.304c-0.463,0.463-0.463,1.217,0,1.68c0.464,0.464,1.217,0.462,1.679,0
		c0.042-0.042,0.098-0.063,0.152-0.063s0.11,0.021,0.152,0.063c0.462,0.461,1.215,0.463,1.679,0c0.463-0.463,0.463-1.217,0-1.68
		c-0.084-0.084-0.084-0.22,0-0.304C60.539,62.386,60.539,61.633,60.076,61.17z M58.245,64.208c-0.666,0-1.207-0.542-1.207-1.207
		c0-0.665,0.541-1.206,1.207-1.206c0.665,0,1.206,0.541,1.206,1.206C59.451,63.666,58.91,64.208,58.245,64.208z"/>
	<path class="st0" d="M59.021,63.001c0-0.428-0.349-0.776-0.776-0.776c-0.429,0-0.777,0.348-0.777,0.776
		c0,0.429,0.349,0.777,0.777,0.777C58.672,63.778,59.021,63.43,59.021,63.001z"/>
	<path d="M58.245,61.795c-0.666,0-1.207,0.541-1.207,1.206c0,0.666,0.541,1.207,1.207,1.207c0.665,0,1.206-0.542,1.206-1.207
		C59.451,62.336,58.91,61.795,58.245,61.795z M57.467,63.001c0-0.428,0.349-0.776,0.777-0.776c0.428,0,0.776,0.348,0.776,0.776
		c0,0.429-0.349,0.777-0.776,0.777C57.816,63.778,57.467,63.43,57.467,63.001z"/>
	<path class="st7" d="M61.266,59.757c-0.033-2.349-0.857-3.612-2.513-3.847C58.833,58.271,60.077,59.227,61.266,59.757z"/>
	<path class="st7" d="M57.737,55.91c-1.655,0.235-2.479,1.497-2.513,3.847C56.414,59.227,57.658,58.27,57.737,55.91z"/>
	<path d="M42.855,74.822c-0.608,0-1.104,0.495-1.104,1.103c0,0.608,0.495,1.103,1.104,1.103s1.103-0.495,1.103-1.103
		C43.958,75.316,43.464,74.822,42.855,74.822z"/>
	<circle cx="41.078" cy="73.687" r="1.103"/>
	<path d="M39.126,70.689c-0.608,0-1.103,0.495-1.103,1.103c0,0.608,0.494,1.103,1.103,1.103c0.607,0,1.102-0.495,1.102-1.103
		C40.227,71.184,39.733,70.689,39.126,70.689z"/>
	<path d="M37.16,68.814c-0.608,0-1.103,0.495-1.103,1.103c0,0.608,0.494,1.103,1.103,1.103s1.103-0.495,1.103-1.103
		C38.262,69.309,37.768,68.814,37.16,68.814z"/>
	<path d="M35.211,66.971c-0.608,0-1.104,0.495-1.104,1.103c0,0.608,0.495,1.103,1.104,1.103s1.103-0.495,1.103-1.103
		C36.313,67.466,35.819,66.971,35.211,66.971z"/>
	<path d="M52.159,69.704c0.107-0.049,0.155-0.177,0.105-0.285c-0.051-0.108-0.179-0.157-0.285-0.105
		c-1.102,0.506-3.135,2.554-3.398,3.423c-0.034,0.114,0.03,0.234,0.144,0.268c0.021,0.006,0.042,0.009,0.063,0.009
		c0.093,0,0.178-0.06,0.206-0.152C49.222,72.103,51.175,70.156,52.159,69.704z"/>
	<path d="M51.853,70.718c-0.102-0.059-0.233-0.023-0.293,0.08c-0.274,0.479-1.152,1.515-1.507,1.845
		c-0.087,0.081-0.092,0.217-0.011,0.304c0.042,0.045,0.1,0.068,0.157,0.068c0.053,0,0.105-0.019,0.146-0.058
		c0.381-0.354,1.291-1.428,1.587-1.945C51.992,70.908,51.957,70.777,51.853,70.718z"/>
</g>
</svg>
