<?xml version="1.0" encoding="utf-8"?>
<!-- Generator: Adobe Illustrator 23.0.2, SVG Export Plug-In . SVG Version: 6.00 Build 0)  -->
<svg version="1.1" id="Layer_1" xmlns="http://www.w3.org/2000/svg" xmlns:xlink="http://www.w3.org/1999/xlink" x="0px" y="0px"
	 viewBox="0 0 82.452 99.776" style="enable-background:new 0 0 82.452 99.776;" xml:space="preserve">
<style type="text/css">
	.st0{fill:#FFFFFF;}
	.st1{fill:#ED1C24;}
	.st2{fill:#FFCB05;}
	.st3{fill:#21409A;}
	.st4{fill:#D4D5D6;}
	.st5{fill:#000100;}
	.st6{fill:#300505;}
	.st7{fill:#BFD730;}
	.st8{fill:#F15A22;}
</style>
<g>
	<path class="st0" d="M18.075,39.306c0.871,0.347,1.921,0.934,2.544,2.152c0.038-0.035,0.071-0.078,0.109-0.112v-2.229
		c-0.556,0.174-1.189,0.045-1.63-0.395c-0.307-0.306-0.475-0.712-0.475-1.145c0-0.364,0.119-0.709,0.34-0.991
		c-0.221-0.283-0.34-0.628-0.34-0.992c0-0.432,0.168-0.838,0.474-1.143c0.584-0.582,1.504-0.625,2.136-0.134
		c0.634-0.491,1.553-0.448,2.135,0.134c0.085,0.085,0.157,0.18,0.22,0.279c0.56-0.586,1.216-1.123,1.975-1.605
		c0.117-0.555,0.256-1.084,0.418-1.552c0.41-3.355,2.237-5.727,4.986-6.659c-0.096-0.168-0.194-0.337-0.28-0.5
		c-0.053-0.101-0.019-0.225,0.078-0.284l2.868-1.756c0.001,0,0.001,0,0.002,0l0.68-0.416H17.896v17.369
		C17.951,39.295,18.017,39.282,18.075,39.306z M22.639,24.6c0.895-3.538,4.41-2.596,4.41,0.742c0,2.183-1.184,3.63-2.43,5.001
		c-0.623,0.686-1.45,1.603-1.98,2.563c-0.532-0.961-1.359-1.878-1.982-2.563c-1.246-1.37-2.43-2.818-2.43-5.001
		C18.227,22.004,21.742,21.062,22.639,24.6z"/>
	<path class="st0" d="M24.844,73.957c-0.149-0.508-0.274-1.103-0.407-1.732c-0.473-2.254-1.045-4.937-3.163-6.49
		c-0.237-0.174-0.487-0.332-0.748-0.468c-0.003-0.001-0.004-0.005-0.006-0.006c-0.388-0.201-0.816-0.37-1.294-0.5
		c-0.095-0.026-0.16-0.113-0.158-0.211s0.069-0.183,0.165-0.206l2.329-0.556l0.273-0.065c0,0,0,0,0,0l2.779-0.663
		c-2.553-1.864-4.866-2.782-6.719-3.359v17.351h8.962C25.899,76.255,25.224,75.247,24.844,73.957z"/>
	<path class="st0" d="M45.053,25.049c0.15,0.508,0.275,1.104,0.408,1.733c0.473,2.254,1.046,4.937,3.163,6.489
		c0.234,0.173,0.485,0.33,0.748,0.467c0.004,0.002,0.005,0.007,0.008,0.009c0.387,0.2,0.814,0.369,1.289,0.499
		c0.095,0.026,0.16,0.113,0.158,0.211s-0.069,0.183-0.165,0.206l-1.836,0.438l-0.768,0.183c0,0-0.001,0-0.001,0l-2.079,0.496
		l-0.698,0.167c2.553,1.864,4.866,2.782,6.718,3.36v-17.35h-8.962C43.998,22.752,44.673,23.76,45.053,25.049z"/>
	<path class="st0" d="M17.896,45.169c0.325-0.644,0.676-1.263,1.076-1.826c-0.558-0.516-0.91-1.292-1.076-2.298V45.169z"/>
	<path class="st0" d="M51.901,59.715c-0.027,0-0.054-0.005-0.079-0.015c-0.871-0.347-1.921-0.934-2.544-2.151
		c-0.038,0.035-0.071,0.078-0.109,0.113v2.229c0.558-0.175,1.191-0.044,1.631,0.395c0.581,0.583,0.625,1.501,0.134,2.135
		c0.492,0.634,0.447,1.553-0.134,2.135c-0.581,0.581-1.5,0.627-2.136,0.134c-0.29,0.226-0.641,0.339-0.991,0.339
		c-0.414,0-0.828-0.158-1.145-0.473c0,0,0,0,0,0c-0.088-0.088-0.139-0.195-0.203-0.296c-0.563,0.593-1.225,1.135-1.992,1.622
		c-0.118,0.555-0.256,1.085-0.418,1.553c-0.41,3.355-2.236,5.727-4.985,6.66c0.096,0.168,0.194,0.337,0.28,0.499
		c0.053,0.101,0.019,0.225-0.078,0.284l-3.551,2.173H52V59.685C51.969,59.702,51.936,59.715,51.901,59.715z M47.258,74.406
		c-0.895,3.538-4.411,2.597-4.411-0.741c0-2.183,1.185-3.631,2.43-5.001c0.624-0.686,1.452-1.602,1.981-2.563
		c0.531,0.961,1.358,1.877,1.982,2.563c1.245,1.37,2.43,2.818,2.43,5.001C51.67,77.003,48.154,77.945,47.258,74.406z"/>
	<path class="st0" d="M52,53.838c-0.325,0.644-0.675,1.262-1.075,1.825c0.557,0.514,0.909,1.288,1.075,2.289V53.838z"/>
	<path class="st0" d="M19.162,55.954c0.014,0,0.028,0,0.042,0c-0.489-0.647-0.923-1.356-1.307-2.117v1.609
		C18.322,55.607,18.745,55.774,19.162,55.954z"/>
	<path class="st0" d="M57.021,74.605c-0.014-0.036-0.027-0.082-0.041-0.155c-0.122,0.655-0.441,1.018-0.896,1.018
		c-0.489,0-0.862-0.391-1.297-1.354c-0.123,0.364-0.17,0.518-0.21,0.691c-0.088,0.4-0.143,1.054-0.143,1.718
		c0,0.972,0.108,1.773,0.319,2.373c0.224,0.618,0.625,0.963,1.121,0.963c0.455,0,0.821-0.3,1.032-0.846
		c0.237-0.609,0.36-1.445,0.36-2.454c0-0.573-0.048-1.118-0.129-1.491C57.129,75.041,57.089,74.868,57.021,74.605z"/>
	<path class="st0" d="M13.535,24.122c-0.245,0-0.394,0.218-0.441,0.664c0.068,0.282,0.122,0.409,0.265,0.554
		c0.197,0.218,0.462,0.336,0.734,0.336c0.17,0,0.326-0.036,0.489-0.127c-0.238-0.555-0.306-0.691-0.448-0.936
		C13.936,24.267,13.752,24.122,13.535,24.122z"/>
	<path class="st0" d="M56.59,15.221H13.349c-1.564,0-2.837,1.272-2.837,2.836v62.82c0,1.564,1.272,2.836,2.837,2.836H56.59
		c1.563,0,2.835-1.272,2.835-2.836v-62.82C59.425,16.494,58.153,15.221,56.59,15.221z M15.036,31.677
		c-0.33,0.362-0.765,0.847-1.047,1.354c-0.279-0.507-0.716-0.992-1.045-1.354c-0.658-0.723-1.284-1.487-1.284-2.64
		c0-1.763,1.857-2.259,2.329-0.392c0.473-1.868,2.329-1.371,2.329,0.392C16.318,30.19,15.693,30.954,15.036,31.677z M15.647,26.522
		c-0.373,0-0.638-0.2-0.944-0.718c-0.224,0.082-0.38,0.109-0.611,0.109c-0.706,0-1.311-0.318-1.732-0.927
		c-0.435-0.609-0.659-1.472-0.659-2.536c0-1.063,0.211-1.963,0.618-2.609c0.408-0.664,1.025-1.009,1.773-1.009
		c1.467,0,2.383,1.327,2.383,3.445c0,0.937-0.156,1.727-0.469,2.363c-0.149,0.318-0.292,0.509-0.557,0.764
		c0.245,0.427,0.469,0.618,0.72,0.618c0.143,0,0.306-0.054,0.489-0.173l0.041,0.209C16.333,26.376,16.006,26.522,15.647,26.522z
		 M52.43,39.601v2.893v0.921v2.676v0.005v0.734v1.397v3.657v1.032v24.35c0,0.119-0.096,0.215-0.215,0.215H34.819h-7.354h-9.783
		c-0.119,0-0.215-0.096-0.215-0.215V59.406v-2.893v-0.921v-2.676V52.91v-0.733V50.78v-3.658v-1.032V21.742
		c0-0.119,0.096-0.215,0.215-0.215h17.396h7.354h9.783c0.119,0,0.215,0.096,0.215,0.215V39.601z M57.619,79.095
		c-0.408,0.664-1.026,1.009-1.773,1.009c-1.467,0-2.383-1.327-2.383-3.445c0-0.937,0.156-1.728,0.469-2.364
		c0.149-0.318,0.292-0.509,0.557-0.764c-0.245-0.427-0.469-0.618-0.72-0.618c-0.143,0-0.306,0.055-0.489,0.173l-0.041-0.209
		c0.367-0.318,0.693-0.464,1.053-0.464c0.373,0,0.638,0.2,0.944,0.718c0.224-0.082,0.38-0.109,0.611-0.109
		c0.706,0,1.311,0.318,1.732,0.927c0.435,0.609,0.659,1.472,0.659,2.536C58.236,77.549,58.026,78.449,57.619,79.095z M55.947,70.29
		c-0.473,1.868-2.329,1.371-2.329-0.391c0-1.153,0.625-1.917,1.283-2.64c0.33-0.362,0.765-0.847,1.046-1.354
		c0.279,0.507,0.717,0.992,1.046,1.354c0.657,0.723,1.283,1.487,1.283,2.64C58.277,71.661,56.421,72.158,55.947,70.29z"/>
	<path class="st0" d="M15.185,20.041c-0.224-0.618-0.625-0.964-1.121-0.964c-0.455,0-0.821,0.3-1.032,0.846
		c-0.237,0.609-0.36,1.445-0.36,2.454c0,0.573,0.048,1.118,0.129,1.491c0.007,0.027,0.047,0.2,0.115,0.463
		c0.014,0.036,0.027,0.082,0.041,0.155c0.122-0.654,0.441-1.018,0.896-1.018c0.489,0,0.862,0.391,1.297,1.354
		c0.123-0.364,0.17-0.518,0.21-0.691c0.088-0.4,0.143-1.054,0.143-1.718C15.504,21.441,15.396,20.641,15.185,20.041z"/>
	<path class="st0" d="M50.787,43.074c-0.018,0-0.036,0.001-0.054,0.001c-0.008,0-0.015-0.001-0.023-0.001
		c0.482,0.641,0.91,1.343,1.289,2.095V43.56C51.592,43.406,51.188,43.245,50.787,43.074z"/>
	<path class="st0" d="M56.403,74.814c0.245,0,0.394-0.218,0.441-0.664c-0.068-0.282-0.122-0.409-0.265-0.554
		c-0.197-0.218-0.462-0.336-0.733-0.336c-0.17,0-0.326,0.036-0.489,0.127c0.238,0.555,0.306,0.691,0.448,0.936
		C56.002,74.668,56.185,74.814,56.403,74.814z"/>
	<path d="M56.59,14.791H13.349c-1.802,0-3.267,1.465-3.267,3.266v62.82c0,1.801,1.465,3.266,3.267,3.266H56.59
		c1.8,0,3.265-1.465,3.265-3.266v-62.82C59.854,16.256,58.39,14.791,56.59,14.791z M59.425,80.877c0,1.564-1.271,2.836-2.835,2.836
		H13.349c-1.564,0-2.837-1.272-2.837-2.836v-62.82c0-1.564,1.272-2.836,2.837-2.836H56.59c1.563,0,2.835,1.272,2.835,2.836V80.877z"
		/>
	<path class="st1" d="M16.17,26.022c-0.251,0-0.475-0.191-0.72-0.618c0.265-0.255,0.407-0.445,0.557-0.764
		c0.313-0.636,0.469-1.427,0.469-2.363c0-2.118-0.917-3.445-2.383-3.445c-0.747,0-1.365,0.345-1.773,1.009
		c-0.407,0.645-0.618,1.545-0.618,2.609c0,1.064,0.224,1.927,0.659,2.536c0.421,0.609,1.025,0.927,1.732,0.927
		c0.231,0,0.387-0.027,0.611-0.109c0.306,0.518,0.571,0.718,0.944,0.718c0.36,0,0.686-0.146,1.053-0.464l-0.041-0.209
		C16.475,25.967,16.312,26.022,16.17,26.022z M14.092,25.676c-0.271,0-0.537-0.118-0.734-0.336
		c-0.143-0.145-0.197-0.273-0.265-0.554c0.047-0.445,0.197-0.664,0.441-0.664c0.217,0,0.4,0.145,0.597,0.491
		c0.143,0.245,0.21,0.382,0.448,0.936C14.417,25.64,14.262,25.676,14.092,25.676z M15.151,24.822
		c-0.435-0.964-0.808-1.354-1.297-1.354c-0.455,0-0.774,0.364-0.896,1.018c-0.014-0.073-0.027-0.118-0.041-0.155
		c-0.068-0.264-0.108-0.436-0.115-0.463c-0.081-0.373-0.129-0.918-0.129-1.491c0-1.009,0.123-1.845,0.36-2.454
		c0.211-0.546,0.577-0.846,1.032-0.846c0.496,0,0.897,0.346,1.121,0.964c0.21,0.6,0.319,1.4,0.319,2.373
		c0,0.664-0.054,1.318-0.143,1.718C15.321,24.304,15.274,24.458,15.151,24.822z"/>
	<path class="st1" d="M22.639,32.905c0.53-0.961,1.357-1.878,1.98-2.563c1.246-1.37,2.43-2.818,2.43-5.001
		c0-3.338-3.514-4.279-4.41-0.742c-0.897-3.538-4.412-2.596-4.412,0.742c0,2.183,1.184,3.63,2.43,5.001
		C21.28,31.028,22.107,31.945,22.639,32.905z"/>
	<path class="st1" d="M13.989,28.645c-0.472-1.868-2.329-1.371-2.329,0.392c0,1.153,0.626,1.917,1.284,2.64
		c0.328,0.362,0.765,0.847,1.045,1.354c0.282-0.507,0.717-0.992,1.047-1.354c0.657-0.723,1.282-1.487,1.282-2.64
		C16.318,27.275,14.463,26.778,13.989,28.645z"/>
	<path class="st1" d="M55.846,73.023c-0.231,0-0.387,0.027-0.611,0.109c-0.306-0.518-0.571-0.718-0.944-0.718
		c-0.36,0-0.686,0.145-1.053,0.464l0.041,0.209c0.183-0.119,0.346-0.173,0.489-0.173c0.251,0,0.475,0.191,0.72,0.618
		c-0.265,0.254-0.407,0.445-0.557,0.764c-0.313,0.636-0.469,1.427-0.469,2.364c0,2.118,0.917,3.445,2.383,3.445
		c0.747,0,1.365-0.345,1.773-1.009c0.407-0.646,0.618-1.546,0.618-2.609c0-1.064-0.224-1.927-0.659-2.536
		C57.157,73.341,56.552,73.023,55.846,73.023z M55.846,73.259c0.271,0,0.537,0.119,0.733,0.336c0.143,0.145,0.197,0.273,0.265,0.554
		c-0.047,0.445-0.197,0.664-0.441,0.664c-0.217,0-0.4-0.146-0.597-0.491c-0.143-0.246-0.21-0.382-0.448-0.936
		C55.52,73.296,55.676,73.259,55.846,73.259z M56.906,79.013c-0.211,0.546-0.577,0.846-1.032,0.846
		c-0.496,0-0.897-0.346-1.121-0.963c-0.211-0.6-0.319-1.4-0.319-2.373c0-0.664,0.054-1.318,0.143-1.718
		c0.041-0.173,0.088-0.327,0.21-0.691c0.435,0.964,0.808,1.354,1.297,1.354c0.455,0,0.774-0.363,0.896-1.018
		c0.014,0.073,0.027,0.118,0.041,0.155c0.068,0.263,0.108,0.436,0.115,0.464c0.082,0.372,0.129,0.918,0.129,1.491
		C57.265,77.568,57.143,78.404,56.906,79.013z"/>
	<path class="st1" d="M55.947,65.904c-0.281,0.507-0.716,0.992-1.046,1.354c-0.658,0.723-1.283,1.487-1.283,2.64
		c0,1.762,1.856,2.259,2.329,0.391c0.473,1.868,2.329,1.371,2.329-0.391c0-1.153-0.626-1.917-1.283-2.64
		C56.665,66.896,56.227,66.411,55.947,65.904z"/>
	<path class="st1" d="M47.258,66.101c-0.529,0.961-1.357,1.877-1.981,2.563c-1.244,1.37-2.43,2.818-2.43,5.001
		c0,3.338,3.516,4.28,4.411,0.741c0.897,3.538,4.412,2.597,4.412-0.741c0-2.183-1.185-3.631-2.43-5.001
		C48.616,67.978,47.789,67.062,47.258,66.101z"/>
	<path class="st1" d="M23.807,37.904c-0.042,0.207-0.125,0.403-0.243,0.578c-0.126,0.344-0.227,0.706-0.295,1.086
		c0.747-0.385,1.545-0.677,2.377-0.897c-0.249-0.864-0.372-1.768-0.38-2.67C24.676,36.511,24.173,37.151,23.807,37.904z"/>
	<path class="st1" d="M46.146,60.977c0.037-0.127,0.089-0.244,0.157-0.36c0.143-0.371,0.252-0.765,0.326-1.179
		c-0.747,0.385-1.546,0.677-2.377,0.897c0.249,0.864,0.372,1.768,0.38,2.67C45.253,62.468,45.776,61.783,46.146,60.977z"/>
	<path class="st1" d="M47.017,55.241c0.092-0.048,0.197-0.08,0.297-0.119c-0.067-0.021-0.134-0.04-0.2-0.064
		c-0.183-0.069-0.352-0.159-0.516-0.254c-0.152-0.087-0.291-0.188-0.425-0.296c-0.114-0.092-0.227-0.183-0.327-0.289
		c-0.075-0.08-0.142-0.168-0.21-0.256c-0.107-0.138-0.203-0.284-0.288-0.44c-0.026-0.048-0.065-0.086-0.089-0.136
		c-0.006-0.013,0.001-0.026-0.002-0.04c-0.096-0.201-0.173-0.415-0.232-0.64L44,52.983C44.712,53.878,45.734,54.646,47.017,55.241z"
		/>
	<path class="st1" d="M43.325,51.908l1.01-0.271c0.149-1.241,0.766-2.372,1.76-3.317c-0.889,0.585-1.967,1.066-3.246,1.378
		c-0.001,0.03-0.005,0.062-0.005,0.092C42.844,50.536,43.011,51.246,43.325,51.908z"/>
	<path class="st1" d="M17.896,46.908h0.202c0.108-1.512,0.763-2.549,1.886-2.982c-0.241-0.084-0.462-0.195-0.663-0.33
		c-0.546,0.769-1.025,1.617-1.425,2.54V46.908z"/>
	<path class="st1" d="M26.571,47.098l-1.009,0.271c-0.149,1.24-0.765,2.371-1.758,3.315c0.888-0.584,1.965-1.064,3.244-1.376
		c0.001-0.031,0.005-0.062,0.005-0.093C27.053,48.47,26.885,47.76,26.571,47.098z"/>
	<path class="st1" d="M22.881,43.765c-0.093,0.048-0.198,0.081-0.298,0.119c0.068,0.021,0.136,0.04,0.201,0.064
		c0.188,0.071,0.362,0.163,0.531,0.261c0.144,0.084,0.276,0.18,0.404,0.284c0.117,0.094,0.233,0.188,0.335,0.296
		c0.073,0.078,0.138,0.163,0.203,0.248c0.111,0.143,0.21,0.294,0.298,0.456c0.024,0.045,0.06,0.079,0.082,0.126
		c0.006,0.012-0.001,0.024,0.002,0.037c0.097,0.202,0.173,0.416,0.233,0.642l1.024-0.275C25.184,45.128,24.162,44.36,22.881,43.765z
		"/>
	<path class="st1" d="M37.382,47.369h1.86c0.518-1.914,2.027-4.12,4.807-5.686c-0.831-0.392-1.579-0.849-2.248-1.359
		C38.652,42.653,37.664,45.97,37.382,47.369z"/>
	<path class="st1" d="M32.515,51.637h-1.859c-0.518,1.914-2.026,4.121-4.807,5.687c0.831,0.392,1.578,0.849,2.247,1.359
		C31.248,56.354,32.233,53.036,32.515,51.637z"/>
	<path class="st1" d="M52,52.098h-0.201c-0.108,1.512-0.762,2.55-1.885,2.983c0.241,0.084,0.46,0.195,0.662,0.329
		c0.546-0.769,1.024-1.616,1.424-2.539V52.098z"/>
	<path class="st1" d="M20.446,55.985c0.012-1.31,0.706-2.994,2.199-4.392c-1.218,0.793-2.764,1.378-4.546,1.688
		c0.464,0.985,1.02,1.878,1.655,2.675C19.988,55.963,20.221,55.97,20.446,55.985z"/>
	<path class="st1" d="M49.45,43.016c-0.01,1.311-0.704,2.999-2.201,4.4c1.218-0.794,2.766-1.379,4.548-1.69
		c-0.464-0.987-1.02-1.88-1.657-2.678C49.907,43.04,49.676,43.031,49.45,43.016z"/>
	<path class="st1" d="M22.515,40.511c-0.268,0.175-0.525,0.367-0.778,0.565v0.208h0.188C22.096,40.983,22.3,40.735,22.515,40.511z"
		/>
	<path class="st1" d="M26.331,40.344c-0.235-0.401-0.413-0.83-0.565-1.269c-0.382,0.1-0.76,0.21-1.126,0.348
		c0.014,0.028,0.043,0.048,0.043,0.08c0.01,0.668-0.045,1.256-0.152,1.781h0.602c0.033,0,0.065,0.007,0.095,0.022
		c3.963,1.947,5.125,4.921,5.435,6.063h1.852c-0.171-0.848-0.599-2.403-1.612-4.015c-0.021-0.004-0.042-0.005-0.064-0.009
		C28.798,42.98,27.281,41.97,26.331,40.344z"/>
	<path class="st1" d="M47.383,58.495c0.268-0.175,0.524-0.367,0.778-0.566v-0.207h-0.188C47.802,58.023,47.599,58.271,47.383,58.495
		z"/>
	<path class="st1" d="M43.566,58.662c0.235,0.402,0.413,0.83,0.565,1.27c0.383-0.1,0.761-0.211,1.126-0.349
		c-0.014-0.028-0.043-0.047-0.043-0.079c-0.01-0.668,0.045-1.256,0.152-1.781h-0.602c-0.033,0-0.065-0.007-0.095-0.022
		c-3.966-1.948-5.128-4.922-5.438-6.063h-1.85c0.171,0.849,0.6,2.404,1.614,4.017c0.021,0.004,0.042,0.004,0.063,0.007
		C41.1,56.027,42.616,57.037,43.566,58.662z"/>
	<path class="st2" d="M17.896,52.867c0.001,0.001,0.001,0.001,0.001,0.001l0.007,0.015c2.352-0.389,4.26-1.279,5.539-2.472
		c-0.583,0.374-1.301,0.584-2.111,0.584c-0.786,0-1.443-0.193-1.959-0.557c-0.459,0.194-0.947,0.368-1.477,0.509v0.974V52.867z"/>
	<path class="st2" d="M25.109,47.491l-0.105,0.028c-0.008,0.198-0.019,0.395-0.052,0.581C25.014,47.9,25.075,47.699,25.109,47.491z"
		/>
	<path class="st2" d="M24.868,48.404c0.023-0.059,0.032-0.122,0.052-0.183C24.907,48.285,24.884,48.343,24.868,48.404z"/>
	<path class="st3" d="M21.101,55.811c0.067-0.46,0.583-0.887,1.183-0.43c0.235-0.104,0.458-0.214,0.674-0.329
		c0.479-1.19,1.567-2.447,3.385-3.191c0.132-0.242,0.241-0.487,0.336-0.733c-0.291-0.57-0.051-1.024,0.308-1.156
		c0.011-0.072,0.026-0.145,0.034-0.217c-4.215,1.077-6.076,4.081-6.141,6.138c0.075-0.023,0.147-0.047,0.221-0.071
		C21.102,55.819,21.101,55.815,21.101,55.811z M25.064,50.702c0.461-0.16,1.129,0.128,0.911,0.961
		c-0.18-0.393-0.495-0.494-0.697-0.437c-0.305,0.087-0.453,0.562-0.233,0.84C24.394,51.547,24.602,50.862,25.064,50.702z
		 M23.165,51.924c0.37-0.318,1.097-0.295,1.201,0.559c-0.311-0.3-0.642-0.277-0.809-0.15c-0.251,0.193-0.214,0.688,0.092,0.866
		C22.853,52.957,22.795,52.243,23.165,51.924z M21.881,53.684c0.234-0.428,0.924-0.661,1.32,0.104
		c-0.397-0.172-0.698-0.035-0.81,0.143c-0.168,0.268,0.04,0.72,0.389,0.778C21.949,54.761,21.645,54.112,21.881,53.684z"/>
	<path class="st3" d="M26.704,51.061c0.046-0.124,0.091-0.248,0.127-0.372C26.744,50.793,26.703,50.925,26.704,51.061z"/>
	<path class="st0" d="M23.649,53.2c-0.307-0.178-0.343-0.674-0.092-0.866c0.167-0.127,0.497-0.15,0.809,0.15
		c-0.104-0.854-0.831-0.877-1.201-0.559C22.795,52.243,22.853,52.957,23.649,53.2z"/>
	<path class="st0" d="M22.78,54.709c-0.349-0.058-0.557-0.51-0.389-0.778c0.112-0.178,0.413-0.315,0.81-0.143
		c-0.396-0.765-1.086-0.532-1.32-0.104C21.645,54.112,21.949,54.761,22.78,54.709z"/>
	<path class="st0" d="M21.101,55.811c-0.001,0.004,0,0.008,0,0.012c0.415-0.134,0.814-0.279,1.183-0.442
		C21.684,54.924,21.169,55.351,21.101,55.811z"/>
	<path class="st0" d="M25.046,52.066c-0.22-0.277-0.072-0.752,0.233-0.84c0.202-0.057,0.517,0.043,0.697,0.437
		c0.218-0.833-0.451-1.121-0.911-0.961C24.602,50.862,24.394,51.547,25.046,52.066z"/>
	<path class="st0" d="M26.679,51.129c0.009-0.023,0.016-0.045,0.025-0.068c-0.001-0.136,0.04-0.268,0.127-0.372
		c0.071-0.24,0.121-0.479,0.157-0.716C26.628,50.105,26.389,50.559,26.679,51.129z"/>
	<path class="st3" d="M23.712,54.614c0.893-0.578,1.594-1.249,2.122-1.961C24.847,53.192,24.145,53.894,23.712,54.614z"/>
	<path class="st0" d="M22.959,55.053c0.264-0.139,0.516-0.285,0.753-0.439c0.433-0.72,1.135-1.422,2.122-1.961
		c0.192-0.259,0.365-0.523,0.51-0.791C24.526,52.606,23.438,53.862,22.959,55.053z"/>
	<path class="st3" d="M43.193,47.944c-0.046,0.125-0.091,0.249-0.128,0.373C43.153,48.213,43.194,48.081,43.193,47.944z"/>
	<path class="st3" d="M48.795,43.195c-0.067,0.46-0.583,0.888-1.184,0.43c-0.234,0.104-0.457,0.214-0.673,0.328
		c-0.479,1.19-1.567,2.447-3.386,3.192c-0.132,0.242-0.241,0.487-0.336,0.732c0.291,0.571,0.052,1.025-0.309,1.157
		c-0.011,0.072-0.026,0.145-0.034,0.217c4.216-1.078,6.077-4.083,6.141-6.139c-0.075,0.023-0.147,0.047-0.22,0.071
		C48.795,43.186,48.796,43.19,48.795,43.195z M44.833,48.304c-0.461,0.161-1.128-0.128-0.91-0.962
		c0.179,0.394,0.494,0.495,0.696,0.437c0.305-0.087,0.453-0.561,0.233-0.84C45.502,47.459,45.294,48.144,44.833,48.304z
		 M46.733,47.082c-0.371,0.319-1.097,0.296-1.201-0.559c0.311,0.301,0.641,0.278,0.808,0.15c0.252-0.193,0.214-0.689-0.091-0.866
		C47.044,46.049,47.102,46.763,46.733,47.082z M48.016,45.322c-0.235,0.428-0.925,0.661-1.321-0.104
		c0.397,0.173,0.699,0.036,0.81-0.142c0.168-0.269-0.04-0.72-0.389-0.779C47.948,44.246,48.251,44.894,48.016,45.322z"/>
	<path class="st0" d="M46.248,45.807c0.306,0.177,0.343,0.673,0.091,0.866c-0.167,0.128-0.496,0.15-0.808-0.15
		c0.104,0.855,0.83,0.878,1.201,0.559C47.102,46.763,47.044,46.049,46.248,45.807z"/>
	<path class="st0" d="M47.116,44.297c0.349,0.059,0.557,0.51,0.389,0.779c-0.111,0.177-0.413,0.314-0.81,0.142
		c0.396,0.765,1.086,0.532,1.321,0.104C48.251,44.894,47.948,44.246,47.116,44.297z"/>
	<path class="st0" d="M48.795,43.195c0.001-0.004-0.001-0.008,0-0.012c-0.415,0.134-0.814,0.279-1.184,0.442
		C48.212,44.082,48.728,43.655,48.795,43.195z"/>
	<path class="st0" d="M44.851,46.94c0.22,0.278,0.072,0.753-0.233,0.84c-0.202,0.057-0.517-0.043-0.696-0.437
		c-0.218,0.833,0.449,1.123,0.91,0.962C45.294,48.144,45.502,47.459,44.851,46.94z"/>
	<path class="st0" d="M43.217,47.877c-0.009,0.022-0.016,0.045-0.024,0.067c0.002,0.137-0.04,0.269-0.128,0.373
		c-0.071,0.24-0.12,0.479-0.157,0.716C43.269,48.902,43.508,48.448,43.217,47.877z"/>
	<path class="st3" d="M46.186,44.391c-0.895,0.578-1.596,1.25-2.124,1.963C45.051,45.814,45.753,45.111,46.186,44.391z"/>
	<path class="st0" d="M46.939,43.953c-0.264,0.139-0.515,0.285-0.752,0.438c-0.433,0.721-1.136,1.423-2.124,1.963
		c-0.192,0.259-0.364,0.523-0.51,0.791C45.372,46.4,46.459,45.143,46.939,43.953z"/>
	<path class="st2" d="M20.623,41.467c0.036-0.033,0.069-0.07,0.104-0.103v-0.018c-0.038,0.035-0.071,0.077-0.109,0.112
		C20.62,41.461,20.622,41.464,20.623,41.467z"/>
	<path class="st2" d="M49.274,57.539c-0.035,0.033-0.068,0.07-0.104,0.103v0.019c0.038-0.035,0.071-0.077,0.109-0.113
		C49.277,57.546,49.276,57.542,49.274,57.539z"/>
	<path class="st2" d="M39.232,51.637c0.31,1.142,1.472,4.116,5.438,6.063c0.029,0.015,0.062,0.022,0.095,0.022h0.602
		c0.031-0.151,0.071-0.29,0.112-0.43h-0.664c-4.021-1.994-5.007-5.06-5.213-5.954c-0.024-0.106-0.117-0.159-0.234-0.148
		c-0.021,0.002-0.039,0.008-0.057,0.017h-2.188c-0.063,0-0.124,0.028-0.165,0.077c-0.04,0.048-0.058,0.112-0.047,0.175
		c0.13,0.747,0.519,2.385,1.549,4.132c0.179,0.022,0.356,0.032,0.536,0.063c-1.013-1.613-1.442-3.168-1.614-4.017H39.232z"/>
	<path class="st2" d="M30.663,47.369c-0.31-1.142-1.472-4.115-5.435-6.063c-0.029-0.015-0.062-0.022-0.095-0.022h-0.602
		c-0.031,0.151-0.072,0.29-0.112,0.43h0.664c4.019,1.994,5.005,5.059,5.211,5.954c0.025,0.108,0.128,0.158,0.234,0.147
		c0.021-0.002,0.039-0.008,0.058-0.017h2.187c0.063,0,0.124-0.028,0.164-0.076c0.041-0.049,0.059-0.113,0.048-0.175
		c-0.129-0.746-0.516-2.378-1.541-4.12c-0.18-0.022-0.36-0.042-0.542-0.073c1.013,1.612,1.44,3.167,1.612,4.015H30.663z"/>
	<path class="st2" d="M20.539,55.995c0.368,0.027,0.727,0.062,1.076,0.109c4.032-1.44,5.867-4.368,5.867-6.887
		c0-2.388-1.542-4.429-4.185-5.73c-0.132,0.102-0.266,0.201-0.416,0.279c1.282,0.595,2.304,1.363,3.015,2.258
		c0.271,0.341,0.497,0.7,0.675,1.076c0.314,0.662,0.481,1.372,0.481,2.118c0,0.031-0.004,0.062-0.005,0.093
		c-0.003,0.148-0.01,0.297-0.026,0.447c-0.008,0.072-0.023,0.144-0.034,0.217c-0.036,0.238-0.086,0.476-0.157,0.716
		c-0.036,0.124-0.081,0.248-0.127,0.372c-0.008,0.023-0.016,0.045-0.025,0.068c-0.094,0.246-0.204,0.49-0.336,0.733
		c-0.146,0.268-0.318,0.532-0.51,0.791c-0.528,0.712-1.228,1.383-2.122,1.961c-0.237,0.153-0.489,0.299-0.753,0.439
		c-0.216,0.114-0.44,0.225-0.674,0.329c-0.369,0.163-0.768,0.308-1.183,0.442c-0.074,0.024-0.146,0.048-0.221,0.071
		C20.768,55.929,20.655,55.963,20.539,55.995z"/>
	<path class="st2" d="M49.355,43.012c-0.365-0.026-0.715-0.067-1.061-0.113c-4.041,1.439-5.88,4.37-5.88,6.891
		c0,0.786,0.169,1.535,0.487,2.232l0.424-0.114c-0.314-0.662-0.482-1.372-0.482-2.118c0-0.03,0.004-0.061,0.005-0.092
		c0.003-0.148,0.01-0.297,0.026-0.447c0.008-0.072,0.023-0.145,0.034-0.217c0.036-0.238,0.086-0.476,0.157-0.716
		c0.037-0.125,0.081-0.249,0.128-0.373c0.008-0.022,0.016-0.045,0.024-0.067c0.094-0.245,0.204-0.49,0.336-0.732
		c0.146-0.268,0.318-0.531,0.51-0.791c0.528-0.713,1.23-1.385,2.124-1.963c0.237-0.153,0.489-0.299,0.752-0.438
		c0.216-0.114,0.439-0.224,0.673-0.328c0.369-0.164,0.768-0.308,1.184-0.442c0.073-0.024,0.145-0.048,0.22-0.071
		C49.128,43.077,49.24,43.043,49.355,43.012z"/>
	<path class="st2" d="M32.985,51.459c0.011-0.063-0.007-0.126-0.048-0.175c-0.04-0.048-0.101-0.076-0.164-0.076h-2.112
		c-0.034-0.036-0.08-0.06-0.132-0.065c-0.111-0.017-0.21,0.059-0.233,0.165c-0.448,1.931-1.981,4.23-4.94,5.797
		c0.168,0.071,0.331,0.144,0.492,0.22c2.781-1.566,4.289-3.773,4.807-5.687h1.859c-0.282,1.399-1.266,4.717-4.419,7.046
		c0.12,0.091,0.249,0.176,0.364,0.271C31.863,56.381,32.771,52.698,32.985,51.459z"/>
	<path class="st2" d="M39.368,47.865c0.104,0.013,0.209-0.059,0.233-0.165c0.448-1.928,1.976-4.223,4.926-5.79
		c-0.166-0.07-0.318-0.152-0.478-0.228c-2.78,1.566-4.289,3.772-4.807,5.686h-1.86c0.282-1.399,1.27-4.716,4.42-7.045
		c-0.12-0.092-0.238-0.185-0.354-0.279c-3.409,2.574-4.322,6.262-4.538,7.502c-0.011,0.063,0.007,0.127,0.047,0.175
		c0.041,0.049,0.102,0.077,0.165,0.077h2.113C39.269,47.835,39.315,47.859,39.368,47.865z"/>
	<path class="st2" d="M21.925,41.284h-0.188v0.412C21.798,41.557,21.854,41.409,21.925,41.284z"/>
	<path class="st2" d="M47.973,57.723h0.188v-0.413C48.1,57.45,48.044,57.598,47.973,57.723z"/>
	<path class="st2" d="M46.601,55.52c0.132-0.102,0.266-0.201,0.416-0.279c-1.282-0.595-2.305-1.363-3.017-2.258l-0.452,0.121
		C44.263,54.058,45.298,54.879,46.601,55.52z"/>
	<path class="st2" d="M44.788,51.515l0.105-0.028c0.008-0.198,0.018-0.395,0.052-0.58C44.884,51.107,44.822,51.307,44.788,51.515z"
		/>
	<path class="st2" d="M45.029,50.602c-0.023,0.06-0.032,0.123-0.053,0.184C44.99,50.722,45.013,50.664,45.029,50.602z"/>
	<path class="st2" d="M51.993,46.124c-2.352,0.389-4.261,1.279-5.54,2.473c0.583-0.374,1.302-0.584,2.112-0.584
		c0.786,0,1.443,0.193,1.958,0.556C50.983,48.375,51.47,48.2,52,48.06L51.993,46.124z"/>
	<path class="st2" d="M36.918,44.917c-0.962-0.321-1.776,0.751-1.776,1.294c0,0.544,0.478,1.127,1.346,0.729
		C36.074,46.285,36.194,45.226,36.918,44.917z"/>
	<path class="st2" d="M32.979,44.917c0.724,0.309,0.845,1.368,0.43,2.023c0.868,0.397,1.346-0.186,1.346-0.729
		C34.755,45.668,33.941,44.596,32.979,44.917z"/>
	<path class="st0" d="M40.868,50.409c0.48,0,0.87-0.39,0.87-0.87c0-0.482-0.39-0.871-0.87-0.871c-0.481,0-0.871,0.39-0.871,0.871
		C39.996,50.019,40.386,50.409,40.868,50.409z"/>
	<path class="st0" d="M40.481,47.082c0,0.481,0.39,0.871,0.873,0.871c0.479,0,0.869-0.39,0.869-0.871
		c0-0.481-0.39-0.871-0.869-0.871C40.871,46.211,40.481,46.601,40.481,47.082z"/>
	<path class="st0" d="M43.708,44.917c0-0.48-0.39-0.871-0.871-0.871c-0.48,0-0.87,0.39-0.87,0.871c0,0.481,0.39,0.871,0.87,0.871
		C43.318,45.788,43.708,45.398,43.708,44.917z"/>
	<path class="st0" d="M44.846,44.005c0.481,0,0.871-0.391,0.871-0.871c0-0.481-0.39-0.87-0.871-0.87c-0.48,0-0.87,0.39-0.87,0.87
		C43.976,43.614,44.366,44.005,44.846,44.005z"/>
	<path class="st0" d="M47.238,42.841c0.097,0,0.186-0.026,0.273-0.055c-0.308-0.057-0.598-0.13-0.89-0.202
		C46.779,42.742,46.997,42.841,47.238,42.841z"/>
	<path class="st0" d="M28.618,34.653c0.086,0,0.156-0.069,0.156-0.154c0-0.085-0.07-0.155-0.156-0.155
		c-0.084,0-0.153,0.07-0.153,0.155C28.465,34.584,28.534,34.653,28.618,34.653z"/>
	<path class="st0" d="M34.754,34.499c0-0.085-0.069-0.155-0.155-0.155c-0.085,0-0.154,0.07-0.154,0.155
		c0,0.085,0.069,0.154,0.154,0.154C34.684,34.653,34.754,34.584,34.754,34.499z"/>
	<path class="st0" d="M36.434,34.997c-0.307-1.045-1.447-1.578-2.492-1.578c-0.028,0-0.057,0-0.084,0.001
		c-0.866,0.024-1.845,0.423-2.066,1.464C33.189,35.816,35.301,35.524,36.434,34.997z M34.015,34.499
		c0-0.323,0.262-0.585,0.584-0.585s0.585,0.262,0.585,0.585c0,0.322-0.263,0.584-0.585,0.584S34.015,34.821,34.015,34.499z"/>
	<path class="st0" d="M26.702,40.127c0.884,1.512,2.302,2.453,4.213,2.795c3.456,0.616,6.702-0.495,8.688-2.979
		c0.25-0.313,0.473-0.641,0.672-0.98c-1.839-1.96-2.846-4.3-3.281-6.289c-0.301-0.323-0.6-0.651-0.898-0.984
		c-1.208-0.25-2.847-0.241-3.892,0.57c0.29-0.632,1.055-1.137,1.912-1.318c-1.213-0.381-2.311-1.161-2.954-2.541
		c-0.827,1.174-1.603,1.936-2.632,2.514c0.778,0.16,1.481,0.688,1.734,1.35c-1.066-0.977-2.891-0.807-3.92-0.411
		C25.582,34.141,25.232,37.613,26.702,40.127z M32.424,41.084c-0.297,0.258-0.765,0.405-1.256,0.405c-0.127,0-0.255-0.01-0.382-0.03
		c-0.476-0.074-0.835-0.276-1.011-0.567c-0.062-0.102-0.029-0.234,0.072-0.295c0.103-0.061,0.234-0.029,0.295,0.073
		c0.106,0.176,0.372,0.313,0.71,0.365c0.492,0.077,1.012-0.033,1.288-0.274c0.09-0.079,0.224-0.069,0.304,0.021
		C32.522,40.87,32.513,41.006,32.424,41.084z M33.972,40.101c-0.019,0-0.038-0.002-0.058-0.008c-2.067-0.579-4.64-0.412-5.366-0.018
		c-0.105,0.056-0.235,0.019-0.292-0.086c-0.057-0.104-0.018-0.235,0.087-0.292c0.889-0.481,3.624-0.595,5.687-0.018
		c0.114,0.032,0.182,0.15,0.149,0.265C34.152,40.039,34.065,40.101,33.972,40.101z M33.846,32.99c1.32-0.033,2.764,0.667,3.049,2.08
		c0.019,0.093-0.026,0.188-0.111,0.233c-0.662,0.348-1.675,0.62-2.722,0.62c-0.923,0-1.872-0.211-2.633-0.769
		c-0.064-0.047-0.098-0.125-0.086-0.204C31.511,33.797,32.493,33.027,33.846,32.99z M30.507,34.957
		c0.013,0.073-0.013,0.148-0.067,0.198c-0.608,0.553-1.396,0.764-2.176,0.764c-0.899,0-1.788-0.28-2.378-0.637
		c-0.071-0.043-0.111-0.125-0.103-0.208c0.151-1.372,1.295-2.035,2.293-2.07C29.097,32.941,30.25,33.558,30.507,34.957z"/>
	<path class="st0" d="M26.23,34.983c0.966,0.523,2.729,0.825,3.828-0.068c-0.265-1.134-1.209-1.511-1.968-1.481
		C27.28,33.463,26.411,33.954,26.23,34.983z M28.618,33.914c0.323,0,0.586,0.262,0.586,0.585c0,0.322-0.263,0.584-0.586,0.584
		c-0.321,0-0.583-0.262-0.583-0.584C28.035,34.176,28.297,33.914,28.618,33.914z"/>
	<path d="M34.061,35.923c1.047,0,2.06-0.272,2.722-0.62c0.085-0.044,0.13-0.14,0.111-0.233c-0.285-1.413-1.729-2.113-3.049-2.08
		c-1.353,0.037-2.335,0.807-2.503,1.96c-0.012,0.079,0.021,0.157,0.086,0.204C32.189,35.712,33.139,35.923,34.061,35.923z
		 M33.857,33.42c0.027,0,0.056-0.001,0.084-0.001c1.045,0,2.186,0.532,2.492,1.578c-1.133,0.527-3.244,0.82-4.643-0.113
		C32.013,33.843,32.991,33.444,33.857,33.42z"/>
	<path d="M25.783,35.074c-0.009,0.083,0.031,0.164,0.103,0.208c0.59,0.356,1.479,0.637,2.378,0.637c0.779,0,1.567-0.21,2.176-0.764
		c0.055-0.05,0.08-0.125,0.067-0.198c-0.257-1.399-1.41-2.016-2.431-1.953C27.078,33.04,25.934,33.703,25.783,35.074z
		 M28.091,33.434c0.759-0.029,1.703,0.348,1.968,1.481c-1.1,0.893-2.862,0.591-3.828,0.068
		C26.411,33.954,27.28,33.463,28.091,33.434z"/>
	<path d="M35.184,34.499c0-0.323-0.263-0.585-0.585-0.585s-0.584,0.262-0.584,0.585c0,0.322,0.262,0.584,0.584,0.584
		S35.184,34.821,35.184,34.499z M34.444,34.499c0-0.085,0.069-0.155,0.154-0.155c0.086,0,0.155,0.07,0.155,0.155
		c0,0.085-0.069,0.154-0.155,0.154C34.514,34.653,34.444,34.584,34.444,34.499z"/>
	<path d="M28.618,35.083c0.323,0,0.586-0.262,0.586-0.584c0-0.323-0.263-0.585-0.586-0.585c-0.321,0-0.583,0.262-0.583,0.585
		C28.035,34.821,28.297,35.083,28.618,35.083z M28.618,34.344c0.086,0,0.156,0.07,0.156,0.155c0,0.085-0.07,0.154-0.156,0.154
		c-0.084,0-0.153-0.069-0.153-0.154C28.465,34.414,28.534,34.344,28.618,34.344z"/>
	<path class="st1" d="M32.027,48.874v1.258h0.001h1.22c-0.032-0.202-0.054-0.41-0.054-0.629s0.022-0.427,0.054-0.629h-1.22H32.027z"
		/>
	<path class="st0" d="M21.157,43.707c0.052-0.002,0.098-0.012,0.15-0.013v-4.798c-0.024-0.016-0.052-0.022-0.075-0.04
		c-0.023,0.018-0.052,0.023-0.075,0.039V43.707z"/>
	<path class="st0" d="M21.332,50.565c1.948,0,3.258-1.295,3.258-3.222c0-0.605-0.142-1.139-0.38-1.599
		c-0.095-0.184-0.207-0.352-0.333-0.507c-0.033-0.04-0.063-0.082-0.098-0.12c-0.14-0.155-0.298-0.291-0.469-0.411
		c-0.025-0.018-0.046-0.04-0.071-0.057c-0.422-0.277-0.927-0.451-1.498-0.507c-0.051-0.006-0.098-0.009-0.141-0.009
		c-0.202,0.001-0.439,0.05-0.492,0.278c-0.047,0.202,0.065,0.424,0.195,0.489c0.54,0.267,0.948,0.708,1.183,1.276
		c0.021,0.054,0.021,0.114-0.002,0.167c-0.185,0.428-0.092,1.002,0.22,1.365c0.259,0.301,0.621,0.407,1.018,0.304
		c0.119-0.03,0.232,0.04,0.263,0.153c0.03,0.115-0.039,0.232-0.153,0.263c-0.136,0.035-0.269,0.053-0.398,0.053
		c-0.406,0-0.777-0.17-1.055-0.493c-0.398-0.464-0.526-1.161-0.323-1.727c-0.248-0.543-0.646-0.831-0.941-0.977
		c-0.32-0.158-0.511-0.594-0.424-0.971c0.011-0.048,0.037-0.087,0.056-0.13c-1.921,0.305-2.247,2.062-2.247,3.159
		C18.499,48.546,18.867,50.565,21.332,50.565z"/>
	<path class="st2" d="M34.755,52.795c0-0.544-0.478-1.127-1.346-0.729c0.415,0.656,0.294,1.714-0.43,2.023
		C33.941,54.41,34.755,53.339,34.755,52.795z"/>
	<path class="st2" d="M36.918,54.089c-0.723-0.309-0.844-1.367-0.43-2.023c-0.868-0.398-1.346,0.186-1.346,0.729
		S35.956,54.41,36.918,54.089z"/>
	<path class="st0" d="M29.9,49.468c0-0.481-0.389-0.871-0.871-0.871c-0.48,0-0.869,0.39-0.869,0.871
		c0,0.481,0.389,0.871,0.869,0.871C29.511,50.339,29.9,49.949,29.9,49.468z"/>
	<path class="st0" d="M29.414,51.924c0-0.481-0.389-0.87-0.87-0.87c-0.48,0-0.87,0.389-0.87,0.87s0.39,0.871,0.87,0.871
		C29.025,52.795,29.414,52.406,29.414,51.924z"/>
	<path class="st0" d="M27.06,53.218c-0.48,0-0.87,0.39-0.87,0.87c0,0.481,0.39,0.871,0.87,0.871s0.87-0.39,0.87-0.871
		C27.93,53.608,27.54,53.218,27.06,53.218z"/>
	<path class="st0" d="M25.921,55.872c0-0.481-0.389-0.871-0.87-0.871c-0.48,0-0.87,0.39-0.87,0.871c0,0.481,0.39,0.871,0.87,0.871
		C25.532,56.743,25.921,56.354,25.921,55.872z"/>
	<path class="st0" d="M22.659,56.165c-0.105,0-0.203,0.026-0.297,0.06c0.305,0.056,0.607,0.114,0.896,0.185
		C23.103,56.26,22.893,56.165,22.659,56.165z"/>
	<path class="st1" d="M37.871,50.132v-1.258H37.87h-1.221c0.032,0.202,0.053,0.411,0.053,0.629s-0.022,0.427-0.053,0.629h1.221
		H37.871z"/>
	<path class="st2" d="M34.949,47.296c-0.718,0-1.325,1.011-1.325,2.207s0.607,2.207,1.325,2.207c0.717,0,1.323-1.011,1.323-2.207
		S35.666,47.296,34.949,47.296z M33.968,49.503c0-0.796,0.431-1.419,0.981-1.419c0.55,0,0.979,0.624,0.979,1.419
		c0,0.796-0.43,1.42-0.979,1.42C34.398,50.923,33.968,50.299,33.968,49.503z"/>
	<path class="st2" d="M34.949,50.494c0.26,0,0.55-0.407,0.55-0.991c0-0.583-0.29-0.99-0.55-0.99c-0.261,0-0.552,0.407-0.552,0.99
		C34.397,50.087,34.688,50.494,34.949,50.494z"/>
	<path d="M35.929,49.503c0-0.796-0.43-1.419-0.979-1.419c-0.551,0-0.981,0.624-0.981,1.419c0,0.796,0.431,1.42,0.981,1.42
		C35.499,50.923,35.929,50.299,35.929,49.503z M34.397,49.503c0-0.583,0.291-0.99,0.552-0.99c0.26,0,0.55,0.407,0.55,0.99
		c0,0.584-0.29,0.991-0.55,0.991C34.688,50.494,34.397,50.087,34.397,49.503z"/>
	<path d="M52.215,21.527h-9.783h-7.354H17.682c-0.119,0-0.215,0.096-0.215,0.215v24.349v1.032v3.658v1.397v0.733v0.005v2.676v0.921
		v2.893v17.859c0,0.119,0.096,0.215,0.215,0.215h9.783h7.354h17.396c0.119,0,0.215-0.096,0.215-0.215v-24.35v-1.032v-3.657V46.83
		v-0.734v-0.005v-2.676v-0.921v-2.893V21.742C52.43,21.623,52.334,21.527,52.215,21.527z M27.531,77.051
		c-1.122-0.78-1.867-1.833-2.275-3.215c-0.145-0.491-0.268-1.078-0.398-1.698c-0.36-1.711-0.805-3.804-2.022-5.437
		c0.198,0.185,0.459,0.304,0.751,0.304c0.608,0,1.103-0.495,1.103-1.103c0-0.608-0.494-1.103-1.103-1.103s-1.104,0.495-1.104,1.103
		c0,0.234,0.09,0.44,0.215,0.618c-0.241-0.302-0.512-0.585-0.815-0.846c0.374-0.177,0.637-0.551,0.637-0.991
		c0-0.232-0.079-0.448-0.21-0.631l0.273-0.065c4.328,2.174,11.505,9.784,13.263,12.399l-1.087,0.666H27.531z M52,42.592v0.512
		c-3.772-1.444-7.174-3.63-10.988-7.054c-2.868-2.573-7.77-7.849-9.85-11.66l1.177-0.72c2.143,3.489,7.298,8.029,10.401,10.761
		l0.47,0.415c3.376,2.977,6.456,4.197,8.79,4.914V42.592z M49.174,55.329c1.655,0.237,2.479,1.499,2.513,3.848
		C50.497,58.646,49.253,57.69,49.174,55.329z M50.496,62.573c0.463,0.463,0.463,1.217,0,1.679c-0.462,0.462-1.215,0.464-1.679,0
		c-0.084-0.083-0.221-0.083-0.305,0c-0.464,0.463-1.217,0.462-1.679,0c-0.463-0.462-0.463-1.215,0-1.679
		c0.084-0.084,0.084-0.22,0-0.304c-0.462-0.463-0.462-1.216,0-1.679c0.447-0.45,1.23-0.449,1.678,0c0.084,0.084,0.222,0.084,0.304,0
		c0.466-0.464,1.219-0.462,1.681,0c0.462,0.463,0.462,1.216,0,1.679C50.412,62.353,50.412,62.489,50.496,62.573z M37.558,75.337
		c-2.139-3.485-7.29-8.023-10.391-10.753l-0.479-0.423c-3.377-2.977-6.457-4.196-8.791-4.914v-2.833v-0.512
		c3.771,1.443,7.174,3.629,10.989,7.055c2.866,2.571,7.768,7.845,9.85,11.659L37.558,75.337z M20.724,43.677
		c-1.654-0.236-2.479-1.499-2.513-3.848C19.4,40.36,20.644,41.316,20.724,43.677z M19.401,36.434
		c-0.225-0.225-0.349-0.523-0.349-0.84c0-0.317,0.124-0.615,0.348-0.838c0.464-0.462,1.218-0.463,1.68,0
		c0.084,0.083,0.221,0.083,0.305,0c0.46-0.462,1.214-0.463,1.678,0c0.225,0.224,0.349,0.521,0.349,0.838
		c0,0.317-0.124,0.616-0.349,0.84C23.022,36.474,23,36.529,23,36.586s0.022,0.112,0.063,0.152c0.225,0.224,0.349,0.522,0.349,0.839
		c0,0.317-0.124,0.616-0.349,0.84c-0.463,0.462-1.215,0.462-1.678,0c-0.042-0.042-0.098-0.063-0.152-0.063s-0.11,0.021-0.152,0.063
		c-0.463,0.462-1.218,0.46-1.679,0c-0.225-0.225-0.349-0.523-0.349-0.84c0-0.317,0.124-0.615,0.349-0.839
		c0.04-0.041,0.063-0.095,0.063-0.152S19.441,36.474,19.401,36.434z M44.632,63.005c-0.009-0.901-0.131-1.805-0.38-2.67
		c0.831-0.22,1.63-0.512,2.377-0.897c-0.074,0.414-0.183,0.808-0.326,1.179c-0.068,0.116-0.12,0.233-0.157,0.36
		C45.776,61.783,45.253,62.468,44.632,63.005z M25.265,36.002c0.009,0.901,0.131,1.805,0.38,2.67
		c-0.831,0.22-1.63,0.511-2.377,0.897c0.068-0.38,0.168-0.742,0.295-1.086c0.119-0.175,0.201-0.371,0.243-0.578
		C24.173,37.151,24.676,36.511,25.265,36.002z M41.924,37.415c0.005,0.004,0.011,0.006,0.017,0.01
		c2.674,2.266,5.189,3.932,7.816,5.177c-7.602-0.4-11.041-5.33-12.157-9.284c0.577,0.604,1.151,1.185,1.708,1.726
		c-0.032-0.001-0.063-0.012-0.094,0.002c-0.108,0.048-0.158,0.174-0.111,0.283c0.64,1.467,2.611,3.7,4.681,4.75
		c0.031,0.016,0.064,0.023,0.098,0.023c0.078,0,0.154-0.043,0.191-0.118c0.054-0.106,0.012-0.235-0.094-0.289
		c-1.925-0.976-3.747-3.004-4.412-4.402c0.397,0.38,0.786,0.744,1.158,1.078c0.042,0.037,0.082,0.07,0.123,0.107
		C41.208,36.799,41.568,37.112,41.924,37.415z M52,48.06c-0.53,0.14-1.017,0.315-1.476,0.509c-0.515-0.364-1.172-0.556-1.958-0.556
		c-0.81,0-1.529,0.21-2.112,0.584c1.279-1.194,3.187-2.083,5.54-2.473L52,48.06z M38.996,55.654
		c-0.18-0.031-0.357-0.041-0.536-0.063c-1.03-1.746-1.419-3.384-1.549-4.132c-0.011-0.063,0.007-0.127,0.047-0.175
		c0.041-0.049,0.102-0.077,0.165-0.077h2.188c0.018-0.008,0.036-0.014,0.057-0.017c0.117-0.011,0.21,0.042,0.234,0.148
		c0.206,0.895,1.192,3.96,5.213,5.954h0.664c-0.04,0.139-0.081,0.278-0.112,0.43c-0.107,0.525-0.162,1.113-0.152,1.781
		c0,0.032,0.03,0.051,0.043,0.079c-0.366,0.138-0.744,0.249-1.126,0.349c-0.152-0.439-0.331-0.868-0.565-1.27
		c-0.95-1.625-2.467-2.635-4.507-3C39.038,55.658,39.017,55.658,38.996,55.654z M32.299,65.691
		c-0.572-0.599-1.141-1.175-1.695-1.713c0.027-0.001,0.054-0.005,0.08-0.017c0.109-0.047,0.158-0.174,0.111-0.283
		c-0.642-1.468-2.614-3.702-4.681-4.75c-0.104-0.053-0.236-0.012-0.289,0.095c-0.054,0.106-0.012,0.235,0.094,0.289
		c1.922,0.975,3.745,3.005,4.412,4.404c-0.397-0.381-0.787-0.745-1.159-1.079c-0.405-0.363-0.803-0.708-1.199-1.045
		c-0.005-0.004-0.011-0.006-0.017-0.01c-2.675-2.267-5.19-3.932-7.816-5.177C27.743,56.805,31.182,61.737,32.299,65.691z
		 M30.903,43.354c0.182,0.032,0.361,0.051,0.542,0.073c1.025,1.742,1.412,3.374,1.541,4.12c0.011,0.063-0.007,0.126-0.048,0.175
		c-0.04,0.048-0.101,0.076-0.164,0.076h-2.187c-0.019,0.009-0.037,0.014-0.058,0.017c-0.106,0.01-0.209-0.04-0.234-0.147
		c-0.206-0.895-1.192-3.96-5.211-5.954h-0.664c0.04-0.139,0.081-0.278,0.112-0.43c0.107-0.525,0.162-1.113,0.152-1.781
		c0-0.032-0.03-0.052-0.043-0.08c0.365-0.138,0.743-0.248,1.126-0.348c0.152,0.439,0.331,0.868,0.565,1.269
		c0.95,1.626,2.467,2.636,4.508,3.001C30.86,43.349,30.881,43.35,30.903,43.354z M42.875,49.25c-0.016,0.15-0.024,0.299-0.026,0.447
		c1.28-0.312,2.358-0.793,3.246-1.378c-0.994,0.945-1.611,2.076-1.76,3.317l-1.01,0.271l-0.424,0.114
		c-0.319-0.697-0.487-1.446-0.487-2.232c0-2.521,1.84-5.453,5.88-6.891c0.346,0.046,0.696,0.087,1.061,0.113
		c-0.115,0.032-0.227,0.066-0.339,0.1C48.952,45.168,47.091,48.173,42.875,49.25z M49.152,54.823
		c0.019-0.044,0.045-0.082,0.056-0.131c0.087-0.376-0.104-0.813-0.426-0.971c-0.294-0.145-0.689-0.431-0.94-0.977
		c0.203-0.564,0.077-1.261-0.321-1.726c-0.365-0.426-0.898-0.586-1.454-0.441c-0.114,0.03-0.184,0.147-0.153,0.262
		c0.029,0.115,0.144,0.185,0.263,0.154c0.401-0.104,0.761,0.005,1.018,0.306c0.313,0.363,0.404,0.937,0.219,1.364
		c-0.023,0.053-0.023,0.114-0.001,0.168c0.236,0.57,0.646,1.011,1.181,1.276c0.132,0.064,0.243,0.288,0.197,0.489
		c-0.052,0.224-0.281,0.276-0.47,0.279c-0.065,0-0.107-0.004-0.164-0.009c-0.569-0.055-1.073-0.23-1.495-0.506
		c-0.03-0.02-0.055-0.046-0.084-0.067c-0.165-0.117-0.318-0.249-0.454-0.398c-0.038-0.042-0.072-0.088-0.108-0.132
		c-0.121-0.15-0.229-0.311-0.32-0.488c-0.242-0.463-0.386-1-0.386-1.611c0-1.927,1.31-3.221,3.258-3.221
		c2.465,0,2.833,2.018,2.833,3.221C51.398,52.76,51.073,54.518,49.152,54.823z M48.161,57.723v0.207
		c-0.254,0.198-0.51,0.391-0.778,0.566c0.215-0.224,0.418-0.472,0.59-0.772c0.071-0.125,0.127-0.273,0.188-0.413V57.723z
		 M43.548,53.105L44,52.983l1.024-0.275c0.059,0.225,0.136,0.439,0.232,0.64c0.003,0.013-0.004,0.027,0.002,0.04
		c0.024,0.05,0.063,0.087,0.089,0.136c0.086,0.155,0.181,0.302,0.288,0.44c0.068,0.088,0.134,0.176,0.21,0.256
		c0.1,0.105,0.213,0.197,0.327,0.289c0.134,0.109,0.273,0.209,0.425,0.296c0.165,0.095,0.333,0.185,0.516,0.254
		c0.065,0.024,0.132,0.043,0.2,0.064c-0.1,0.039-0.204,0.071-0.297,0.119c-0.151,0.078-0.284,0.177-0.416,0.279
		C45.298,54.879,44.263,54.058,43.548,53.105z M27.021,49.756c0.016-0.15,0.024-0.299,0.026-0.447
		c-1.278,0.312-2.355,0.792-3.244,1.376c0.993-0.944,1.609-2.075,1.758-3.315l1.009-0.271c-0.178-0.375-0.404-0.735-0.675-1.076
		l-1.024,0.275c-0.059-0.226-0.136-0.44-0.233-0.642c-0.003-0.012,0.004-0.025-0.002-0.037c-0.023-0.047-0.058-0.081-0.082-0.126
		c-0.088-0.161-0.187-0.313-0.298-0.456c-0.066-0.086-0.13-0.17-0.203-0.248c-0.103-0.108-0.218-0.202-0.335-0.296
		c-0.128-0.104-0.26-0.2-0.404-0.284c-0.169-0.098-0.342-0.19-0.531-0.261c-0.065-0.024-0.133-0.043-0.201-0.064
		c0.1-0.039,0.205-0.071,0.298-0.119c0.151-0.078,0.284-0.177,0.416-0.279c2.644,1.301,4.185,3.342,4.185,5.73
		c0,2.519-1.836,5.447-5.867,6.887c-0.348-0.047-0.708-0.082-1.076-0.109c0.116-0.032,0.229-0.066,0.341-0.1
		C20.945,53.838,22.806,50.833,27.021,49.756z M18.499,47.343c0-1.097,0.325-2.854,2.247-3.159c-0.019,0.043-0.045,0.082-0.056,0.13
		c-0.087,0.377,0.104,0.813,0.424,0.971c0.296,0.146,0.693,0.433,0.941,0.977c-0.203,0.566-0.075,1.263,0.323,1.727
		c0.277,0.323,0.648,0.493,1.055,0.493c0.13,0,0.263-0.018,0.398-0.053c0.114-0.03,0.184-0.147,0.153-0.263
		c-0.03-0.114-0.144-0.184-0.263-0.153c-0.396,0.103-0.759-0.003-1.018-0.304c-0.312-0.363-0.404-0.938-0.22-1.365
		c0.023-0.053,0.023-0.114,0.002-0.167c-0.234-0.568-0.643-1.01-1.183-1.276c-0.13-0.064-0.242-0.287-0.195-0.489
		c0.053-0.229,0.29-0.277,0.492-0.278c0.043,0,0.09,0.003,0.141,0.009c0.571,0.055,1.076,0.23,1.498,0.507
		c0.026,0.017,0.046,0.039,0.071,0.057c0.171,0.12,0.328,0.257,0.469,0.411c0.035,0.038,0.065,0.08,0.098,0.12
		c0.126,0.155,0.238,0.323,0.333,0.507c0.238,0.46,0.38,0.993,0.38,1.599c0,1.927-1.31,3.222-3.258,3.222
		C18.867,50.565,18.499,48.546,18.499,47.343z M21.737,41.284v-0.208c0.254-0.198,0.51-0.391,0.778-0.565
		c-0.216,0.224-0.419,0.473-0.591,0.774c-0.071,0.125-0.127,0.272-0.188,0.412V41.284z M24.254,39.83
		c-0.034,2.349-0.858,3.611-2.513,3.848C21.82,41.316,23.064,40.36,24.254,39.83z M25.109,47.491
		c-0.033,0.208-0.095,0.408-0.157,0.609c0.034-0.185,0.044-0.383,0.052-0.581L25.109,47.491z M27.93,54.089
		c0,0.481-0.39,0.871-0.87,0.871s-0.87-0.39-0.87-0.871c0-0.481,0.39-0.87,0.87-0.87S27.93,53.608,27.93,54.089z M22.363,56.225
		c0.093-0.034,0.191-0.06,0.297-0.06c0.234,0,0.443,0.095,0.6,0.245C22.969,56.339,22.667,56.281,22.363,56.225z M24.18,55.872
		c0-0.481,0.39-0.871,0.87-0.871c0.481,0,0.87,0.39,0.87,0.871c0,0.481-0.389,0.871-0.87,0.871
		C24.57,56.743,24.18,56.354,24.18,55.872z M27.674,51.924c0-0.481,0.39-0.87,0.87-0.87c0.481,0,0.87,0.389,0.87,0.87
		s-0.389,0.871-0.87,0.871C28.064,52.795,27.674,52.406,27.674,51.924z M29.029,50.339c-0.48,0-0.869-0.39-0.869-0.871
		c0-0.481,0.389-0.871,0.869-0.871c0.482,0,0.871,0.39,0.871,0.871C29.9,49.949,29.511,50.339,29.029,50.339z M28.095,58.684
		c-0.669-0.51-1.416-0.968-2.247-1.359c-0.161-0.076-0.325-0.15-0.492-0.22c2.959-1.567,4.492-3.866,4.94-5.797
		c0.023-0.106,0.122-0.182,0.233-0.165c0.052,0.006,0.098,0.03,0.132,0.065h2.112c0.063,0,0.124,0.028,0.164,0.076
		c0.041,0.049,0.059,0.113,0.048,0.175c-0.214,1.239-1.122,4.922-4.526,7.495C28.344,58.86,28.215,58.775,28.095,58.684z
		 M36.488,46.94c-0.868,0.397-1.346-0.186-1.346-0.729c0-0.543,0.814-1.615,1.776-1.294C36.194,45.226,36.074,46.285,36.488,46.94z
		 M36.272,49.503c0,1.196-0.606,2.207-1.323,2.207c-0.718,0-1.325-1.011-1.325-2.207s0.607-2.207,1.325-2.207
		C35.666,47.296,36.272,48.307,36.272,49.503z M33.409,46.94c0.415-0.655,0.294-1.714-0.43-2.023
		c0.962-0.321,1.776,0.751,1.776,1.294C34.755,46.755,34.277,47.338,33.409,46.94z M33.248,48.874
		c-0.032,0.202-0.054,0.411-0.054,0.629s0.022,0.427,0.054,0.629h-1.22h-0.001v-1.258h0.001H33.248z M33.409,52.066
		c0.868-0.398,1.346,0.186,1.346,0.729s-0.814,1.615-1.776,1.294C33.703,53.78,33.824,52.722,33.409,52.066z M36.488,52.066
		c-0.414,0.656-0.293,1.714,0.43,2.023c-0.962,0.321-1.776-0.75-1.776-1.294S35.62,51.668,36.488,52.066z M36.649,50.132
		c0.032-0.202,0.053-0.41,0.053-0.629s-0.022-0.427-0.053-0.629h1.221h0.001v1.258H37.87H36.649z M37.122,47.798
		c-0.063,0-0.124-0.028-0.165-0.077c-0.04-0.048-0.058-0.112-0.047-0.175c0.216-1.24,1.129-4.928,4.538-7.502
		c0.115,0.095,0.233,0.188,0.354,0.279c0.669,0.51,1.417,0.967,2.248,1.359c0.16,0.075,0.312,0.157,0.478,0.228
		c-2.95,1.567-4.478,3.862-4.926,5.79c-0.024,0.106-0.129,0.178-0.233,0.165c-0.053-0.006-0.099-0.03-0.133-0.067H37.122z
		 M47.511,42.786c-0.087,0.029-0.176,0.055-0.273,0.055c-0.242,0-0.46-0.099-0.617-0.257C46.914,42.656,47.204,42.729,47.511,42.786
		z M45.644,59.177c0.033-2.349,0.857-3.611,2.513-3.848C48.078,57.69,46.834,58.646,45.644,59.177z M44.788,51.515
		c0.033-0.208,0.095-0.408,0.157-0.609c-0.034,0.185-0.044,0.382-0.052,0.58L44.788,51.515z M42.223,47.082
		c0,0.481-0.39,0.871-0.869,0.871c-0.483,0-0.873-0.39-0.873-0.871c0-0.481,0.39-0.871,0.873-0.871
		C41.833,46.211,42.223,46.601,42.223,47.082z M42.837,45.788c-0.48,0-0.87-0.39-0.87-0.871c0-0.48,0.39-0.871,0.87-0.871
		c0.481,0,0.871,0.39,0.871,0.871C43.708,45.398,43.318,45.788,42.837,45.788z M43.976,43.134c0-0.481,0.39-0.87,0.87-0.87
		c0.481,0,0.871,0.39,0.871,0.87c0,0.481-0.39,0.871-0.871,0.871C44.366,44.005,43.976,43.614,43.976,43.134z M40.868,48.667
		c0.48,0,0.87,0.39,0.87,0.871c0,0.481-0.39,0.87-0.87,0.87c-0.481,0-0.871-0.39-0.871-0.87
		C39.996,49.057,40.386,48.667,40.868,48.667z M44.977,50.786c0.021-0.06,0.029-0.124,0.053-0.184
		C45.013,50.664,44.99,50.722,44.977,50.786z M24.92,48.222c-0.02,0.06-0.029,0.123-0.052,0.183
		C24.884,48.343,24.907,48.285,24.92,48.222z M22.646,51.593c-1.493,1.398-2.187,3.083-2.199,4.392
		c-0.226-0.015-0.458-0.022-0.691-0.029c-0.636-0.797-1.191-1.69-1.655-2.675C19.881,52.971,21.428,52.386,22.646,51.593z
		 M47.249,47.416c1.497-1.401,2.192-3.089,2.201-4.4c0.226,0.015,0.457,0.025,0.69,0.032c0.636,0.798,1.193,1.691,1.657,2.678
		C50.014,46.036,48.467,46.622,47.249,47.416z M19.985,43.926c-1.124,0.433-1.779,1.47-1.886,2.982h-0.202v-0.772
		c0.4-0.923,0.879-1.771,1.425-2.54C19.523,43.73,19.744,43.841,19.985,43.926z M17.896,51.92v-0.974
		c0.53-0.141,1.018-0.315,1.477-0.509c0.515,0.364,1.173,0.557,1.959,0.557c0.81,0,1.528-0.21,2.111-0.584
		c-1.279,1.194-3.187,2.083-5.539,2.472l-0.007-0.015c0,0,0,0-0.001-0.001V51.92z M49.914,55.081
		c1.123-0.433,1.777-1.471,1.885-2.983H52v0.773c-0.4,0.923-0.879,1.77-1.424,2.539C50.374,55.276,50.155,55.165,49.914,55.081z
		 M32.586,27.386c0.796,1.096,1.711,2.235,2.674,3.353c-1.396-0.168-3.077-0.819-3.85-2.859c-0.028-0.075-0.097-0.128-0.177-0.137
		c-0.081-0.011-0.158,0.027-0.203,0.093c-1.307,1.945-2.409,2.796-4.583,3.484c0.583-3.927,2.912-5.45,4.733-6.042
		C31.583,25.949,32.056,26.656,32.586,27.386z M26.344,31.854c1.029-0.396,2.853-0.566,3.92,0.411
		c-0.253-0.662-0.956-1.189-1.734-1.35c1.029-0.578,1.805-1.34,2.632-2.514c0.643,1.379,1.741,2.16,2.954,2.541
		c-0.857,0.181-1.623,0.686-1.912,1.318c1.045-0.811,2.684-0.82,3.892-0.57c0.298,0.333,0.597,0.661,0.898,0.984
		c0.435,1.989,1.441,4.329,3.281,6.289c-0.199,0.34-0.422,0.667-0.672,0.98c-1.985,2.483-5.231,3.595-8.688,2.979
		c-1.911-0.342-3.329-1.283-4.213-2.795C25.232,37.613,25.582,34.141,26.344,31.854z M21.232,38.855
		c0.023,0.018,0.051,0.024,0.075,0.04v4.798c-0.053,0-0.099,0.011-0.15,0.013v-4.812C21.181,38.878,21.209,38.873,21.232,38.855z
		 M19.204,55.954c-0.014,0-0.028,0-0.042,0c-0.417-0.18-0.84-0.347-1.266-0.508v-1.609C18.281,54.598,18.715,55.307,19.204,55.954z
		 M34.637,68.268c1.396,0.169,3.077,0.82,3.851,2.859c0.028,0.075,0.097,0.128,0.177,0.138c0.076,0.002,0.158-0.027,0.203-0.094
		c1.305-1.945,2.407-2.795,4.582-3.484c-0.583,3.927-2.911,5.451-4.732,6.043C37.708,72.05,36.241,70.13,34.637,68.268z
		 M43.553,67.153c-1.028,0.396-2.853,0.566-3.921-0.411c0.253,0.662,0.956,1.189,1.734,1.349c-1.03,0.578-1.806,1.339-2.632,2.513
		c-0.643-1.379-1.744-2.16-2.958-2.54c0.859-0.181,1.627-0.686,1.917-1.319c-1.045,0.811-2.685,0.82-3.892,0.57
		c-0.297-0.332-0.596-0.659-0.896-0.982c-0.434-1.989-1.448-4.324-3.286-6.284c0.2-0.342,0.424-0.673,0.676-0.988
		c1.625-2.031,4.093-3.146,6.828-3.146c0.609,0,1.231,0.056,1.86,0.168c1.911,0.342,3.328,1.283,4.212,2.795
		C44.665,61.394,44.315,64.865,43.553,67.153z M48.664,60.152c-0.022-0.017-0.05-0.021-0.073-0.037v-4.801
		c0.052,0,0.098-0.011,0.149-0.013v4.812C48.716,60.129,48.687,60.134,48.664,60.152z M50.711,43.074
		c0.008,0,0.015,0.001,0.023,0.001c0.018,0,0.036-0.001,0.054-0.001c0.4,0.171,0.805,0.333,1.213,0.487v1.608
		C51.62,44.417,51.193,43.715,50.711,43.074z M46.311,32.002c-0.608,0-1.104,0.495-1.104,1.103c0,0.608,0.495,1.103,1.104,1.103
		c0.607,0,1.102-0.495,1.102-1.103c0-0.236-0.091-0.443-0.217-0.622c0.242,0.304,0.514,0.588,0.818,0.851
		c-0.374,0.177-0.637,0.551-0.637,0.991c0,0.232,0.079,0.448,0.209,0.63l-0.272,0.065c-4.328-2.175-11.504-9.783-13.263-12.398
		l1.088-0.666h7.227c1.122,0.78,1.867,1.832,2.275,3.215c0.145,0.492,0.269,1.079,0.399,1.7c0.36,1.711,0.806,3.803,2.022,5.435
		C46.864,32.121,46.603,32.002,46.311,32.002z M49.581,34.311c0.082,0.036,0.159,0.077,0.245,0.11l-0.266,0.063
		c0.008-0.053,0.022-0.106,0.022-0.159C49.583,34.32,49.581,34.315,49.581,34.311z M18.972,43.343
		c-0.4,0.563-0.751,1.182-1.076,1.826v-4.124C18.062,42.051,18.414,42.827,18.972,43.343z M20.317,64.697
		c-0.083-0.036-0.16-0.077-0.247-0.111l0.267-0.064c-0.008,0.053-0.022,0.106-0.022,0.16C20.315,64.687,20.317,64.692,20.317,64.697
		z M50.925,55.663c0.4-0.563,0.75-1.181,1.075-1.825v4.114C51.834,56.95,51.482,56.177,50.925,55.663z M52,39.307
		c-1.853-0.578-4.166-1.496-6.718-3.36l0.698-0.167l2.079-0.496c0,0,0.001,0,0.001,0l0.768-0.183l1.836-0.438
		c0.096-0.022,0.163-0.107,0.165-0.206s-0.063-0.185-0.158-0.211c-0.475-0.13-0.903-0.299-1.289-0.499
		c-0.003-0.002-0.005-0.007-0.008-0.009c-0.263-0.137-0.514-0.294-0.748-0.467c-2.117-1.552-2.69-4.236-3.163-6.489
		c-0.133-0.63-0.258-1.225-0.408-1.733c-0.38-1.289-1.055-2.297-2.014-3.093H52V39.307z M34.315,21.957l-0.68,0.416
		c-0.001,0-0.001,0-0.002,0l-2.868,1.756c-0.097,0.06-0.131,0.184-0.078,0.284c0.086,0.162,0.183,0.331,0.28,0.5
		c-2.749,0.932-4.576,3.305-4.986,6.659c-0.162,0.468-0.301,0.998-0.418,1.552c-0.759,0.482-1.415,1.019-1.975,1.605
		c-0.063-0.099-0.135-0.194-0.22-0.279c-0.582-0.582-1.501-0.625-2.135-0.134c-0.632-0.492-1.552-0.448-2.136,0.134
		c-0.306,0.305-0.474,0.711-0.474,1.143c0,0.364,0.119,0.709,0.34,0.992c-0.221,0.282-0.34,0.627-0.34,0.991
		c0,0.432,0.168,0.838,0.475,1.145c0.441,0.44,1.074,0.569,1.63,0.395v2.229v0.018c-0.036,0.033-0.069,0.07-0.104,0.103
		c-0.001-0.003-0.003-0.006-0.004-0.009c-0.623-1.217-1.673-1.805-2.544-2.152c-0.058-0.024-0.124-0.011-0.179,0.019V21.957H34.315z
		 M17.896,59.7c1.853,0.577,4.166,1.496,6.719,3.359l-2.779,0.663c0,0,0,0,0,0l-0.273,0.065l-2.329,0.556
		c-0.096,0.022-0.163,0.107-0.165,0.206s0.063,0.185,0.158,0.211c0.477,0.131,0.906,0.3,1.294,0.5
		c0.003,0.002,0.004,0.005,0.006,0.006c0.26,0.136,0.511,0.294,0.748,0.468c2.117,1.553,2.689,4.236,3.163,6.49
		c0.133,0.629,0.258,1.224,0.407,1.732c0.38,1.289,1.055,2.298,2.015,3.093h-8.962V59.7z M35.583,77.051l3.551-2.173
		c0.097-0.06,0.131-0.184,0.078-0.284c-0.086-0.162-0.183-0.331-0.28-0.499c2.748-0.932,4.575-3.305,4.985-6.66
		c0.162-0.468,0.301-0.998,0.418-1.553c0.766-0.487,1.428-1.029,1.992-1.622c0.063,0.101,0.115,0.208,0.203,0.296c0,0,0,0,0,0
		c0.316,0.315,0.73,0.473,1.145,0.473c0.351,0,0.701-0.113,0.991-0.339c0.636,0.493,1.555,0.447,2.136-0.134
		c0.581-0.582,0.626-1.5,0.134-2.135c0.491-0.634,0.447-1.553-0.134-2.135c-0.44-0.439-1.073-0.569-1.631-0.395v-2.229v-0.019
		c0.036-0.033,0.069-0.07,0.104-0.103c0.002,0.003,0.003,0.007,0.004,0.01c0.623,1.217,1.673,1.805,2.544,2.151
		c0.025,0.01,0.052,0.015,0.079,0.015c0.035,0,0.068-0.013,0.099-0.03v17.365H35.583z"/>
	<path d="M34.029,39.679c-2.063-0.577-4.798-0.463-5.687,0.018c-0.104,0.056-0.144,0.187-0.087,0.292
		c0.057,0.105,0.187,0.143,0.292,0.086c0.727-0.394,3.299-0.561,5.366,0.018c0.02,0.005,0.039,0.008,0.058,0.008
		c0.094,0,0.181-0.062,0.207-0.157C34.211,39.83,34.143,39.711,34.029,39.679z"/>
	<path d="M32.141,40.76c-0.276,0.242-0.796,0.352-1.288,0.274c-0.338-0.053-0.604-0.189-0.71-0.365
		c-0.061-0.102-0.192-0.133-0.295-0.073c-0.102,0.062-0.134,0.194-0.072,0.295c0.176,0.292,0.535,0.493,1.011,0.567
		c0.127,0.02,0.255,0.03,0.382,0.03c0.491,0,0.959-0.146,1.256-0.405c0.089-0.078,0.099-0.214,0.021-0.303
		C32.364,40.69,32.23,40.681,32.141,40.76z"/>
	<path class="st0" d="M48.74,55.301c-0.051,0.002-0.097,0.012-0.149,0.013v4.801c0.023,0.016,0.051,0.02,0.073,0.037
		c0.023-0.018,0.052-0.023,0.076-0.039V55.301z"/>
	<path class="st0" d="M48.565,48.442c-1.948,0-3.258,1.294-3.258,3.221c0,0.611,0.144,1.148,0.386,1.611
		c0.092,0.177,0.2,0.339,0.32,0.488c0.036,0.044,0.069,0.09,0.108,0.132c0.136,0.15,0.289,0.281,0.454,0.398
		c0.03,0.021,0.054,0.048,0.084,0.067c0.422,0.276,0.926,0.45,1.495,0.506c0.057,0.005,0.099,0.009,0.164,0.009
		c0.188-0.003,0.418-0.055,0.47-0.279c0.046-0.202-0.065-0.425-0.197-0.489c-0.535-0.265-0.944-0.706-1.181-1.276
		c-0.022-0.054-0.022-0.115,0.001-0.168c0.186-0.427,0.094-1.001-0.219-1.364c-0.257-0.301-0.616-0.41-1.018-0.306
		c-0.119,0.031-0.233-0.039-0.263-0.154c-0.03-0.115,0.039-0.232,0.153-0.262c0.556-0.145,1.089,0.015,1.454,0.441
		c0.398,0.465,0.524,1.161,0.321,1.726c0.251,0.546,0.646,0.832,0.94,0.977c0.321,0.159,0.513,0.595,0.426,0.971
		c-0.011,0.049-0.037,0.087-0.056,0.131c1.922-0.305,2.247-2.062,2.247-3.16C51.398,50.46,51.03,48.442,48.565,48.442z"/>
	<path class="st0" d="M39.567,35.292c0.665,1.398,2.487,3.427,4.412,4.402c0.105,0.054,0.147,0.183,0.094,0.289
		c-0.037,0.075-0.113,0.118-0.191,0.118c-0.033,0-0.066-0.007-0.098-0.023c-2.069-1.05-4.041-3.283-4.681-4.75
		c-0.047-0.109,0.003-0.235,0.111-0.283c0.031-0.014,0.062-0.003,0.094-0.002c-0.558-0.541-1.132-1.122-1.708-1.726
		c1.116,3.954,4.555,8.885,12.157,9.284c-2.627-1.245-5.142-2.911-7.816-5.177c-0.005-0.004-0.011-0.006-0.017-0.01
		c-0.356-0.303-0.715-0.616-1.076-0.938c-0.042-0.037-0.082-0.07-0.123-0.107C40.352,36.036,39.963,35.672,39.567,35.292z"/>
	<path class="st0" d="M26.447,31.32c2.174-0.688,3.276-1.539,4.583-3.484c0.045-0.066,0.122-0.104,0.203-0.093
		c0.08,0.009,0.148,0.062,0.177,0.137c0.773,2.04,2.453,2.691,3.85,2.859c-0.963-1.118-1.878-2.257-2.674-3.353
		c-0.53-0.73-1.002-1.437-1.406-2.108C29.359,25.87,27.03,27.394,26.447,31.32z M30.753,26.582c0.113,0.035,0.178,0.155,0.144,0.268
		c-0.265,0.869-2.298,2.917-3.398,3.423c-0.029,0.013-0.06,0.02-0.09,0.02c-0.081,0-0.159-0.046-0.195-0.125
		c-0.05-0.108-0.002-0.235,0.105-0.285c0.982-0.452,2.936-2.399,3.166-3.157C30.518,26.611,30.639,26.545,30.753,26.582z
		 M29.131,26.63c0.088-0.08,0.224-0.075,0.304,0.011c0.081,0.087,0.076,0.223-0.011,0.304c-0.354,0.328-1.232,1.364-1.508,1.844
		c-0.04,0.069-0.112,0.108-0.187,0.108c-0.036,0-0.073-0.009-0.107-0.028c-0.103-0.059-0.138-0.19-0.079-0.293
		C27.841,28.057,28.751,26.983,29.131,26.63z"/>
	<path class="st2" d="M45.04,26.872c-0.131-0.622-0.255-1.208-0.399-1.7c-0.408-1.383-1.153-2.435-2.275-3.215h-7.227l-1.088,0.666
		c1.759,2.615,8.935,10.223,13.263,12.398l0.272-0.065c-0.13-0.183-0.209-0.398-0.209-0.63c0-0.44,0.264-0.814,0.637-0.991
		c-0.305-0.262-0.576-0.547-0.818-0.851c0.127,0.18,0.217,0.386,0.217,0.622c0,0.608-0.494,1.103-1.102,1.103
		c-0.608,0-1.104-0.495-1.104-1.103c0-0.608,0.495-1.103,1.104-1.103c0.291,0,0.553,0.119,0.75,0.304
		C45.846,30.674,45.4,28.582,45.04,26.872z M35.518,23.663c0-0.608,0.495-1.103,1.104-1.103s1.104,0.495,1.104,1.103
		s-0.495,1.103-1.104,1.103S35.518,24.27,35.518,23.663z M38.398,27.002c-0.608,0-1.103-0.495-1.103-1.103s0.494-1.103,1.103-1.103
		s1.104,0.495,1.104,1.103S39.007,27.002,38.398,27.002z M40.351,28.897c-0.608,0-1.104-0.495-1.104-1.103s0.495-1.103,1.104-1.103
		c0.607,0,1.102,0.495,1.102,1.103S40.959,28.897,40.351,28.897z M42.316,30.773c-0.608,0-1.103-0.495-1.103-1.103
		c0-0.608,0.494-1.103,1.103-1.103s1.104,0.495,1.104,1.103C43.42,30.278,42.925,30.773,42.316,30.773z M44.267,32.616
		c-0.608,0-1.103-0.495-1.103-1.103c0-0.608,0.494-1.103,1.103-1.103c0.607,0,1.102,0.495,1.102,1.103
		C45.369,32.121,44.875,32.616,44.267,32.616z"/>
	<path class="st2" d="M49.826,34.421c-0.086-0.034-0.162-0.074-0.245-0.11c0,0.005,0.002,0.009,0.002,0.014
		c0,0.054-0.014,0.106-0.022,0.159L49.826,34.421z"/>
	<path class="st1" d="M43.21,34.846l-0.47-0.415c-3.104-2.732-8.259-7.272-10.401-10.761l-1.177,0.72
		c2.08,3.811,6.981,9.086,9.85,11.66c3.814,3.424,7.216,5.61,10.988,7.054v-0.512V39.76C49.666,39.042,46.586,37.823,43.21,34.846z"
		/>
	<path class="st2" d="M19.053,37.577c0,0.317,0.124,0.616,0.349,0.84c0.461,0.459,1.216,0.462,1.679,0
		c0.042-0.042,0.098-0.063,0.152-0.063s0.11,0.021,0.152,0.063c0.463,0.462,1.215,0.462,1.678,0c0.225-0.224,0.349-0.522,0.349-0.84
		c0-0.317-0.124-0.615-0.349-0.839C23.022,36.698,23,36.643,23,36.586s0.022-0.112,0.063-0.152c0.225-0.225,0.349-0.523,0.349-0.84
		c0-0.317-0.124-0.615-0.349-0.838c-0.464-0.463-1.218-0.463-1.678,0c-0.084,0.084-0.221,0.083-0.305,0
		c-0.462-0.463-1.216-0.462-1.68,0c-0.224,0.224-0.348,0.521-0.348,0.838c0,0.317,0.124,0.616,0.349,0.84
		c0.04,0.04,0.063,0.095,0.063,0.152s-0.022,0.112-0.063,0.152C19.177,36.962,19.053,37.26,19.053,37.577z M21.232,35.379
		c0.665,0,1.206,0.541,1.206,1.207c0,0.665-0.541,1.206-1.206,1.206c-0.666,0-1.207-0.541-1.207-1.206
		C20.025,35.92,20.566,35.379,21.232,35.379z"/>
	<path class="st0" d="M21.232,37.362c0.428,0,0.776-0.348,0.776-0.776s-0.349-0.777-0.776-0.777c-0.429,0-0.777,0.349-0.777,0.777
		S20.804,37.362,21.232,37.362z"/>
	<path d="M21.232,37.792c0.665,0,1.206-0.541,1.206-1.206c0-0.666-0.541-1.207-1.206-1.207c-0.666,0-1.207,0.541-1.207,1.207
		C20.025,37.251,20.566,37.792,21.232,37.792z M21.232,35.809c0.428,0,0.776,0.349,0.776,0.777s-0.349,0.776-0.776,0.776
		c-0.429,0-0.777-0.348-0.777-0.776S20.804,35.809,21.232,35.809z"/>
	<path class="st7" d="M18.211,39.83c0.034,2.349,0.858,3.611,2.513,3.848C20.644,41.316,19.4,40.36,18.211,39.83z"/>
	<path class="st7" d="M21.741,43.677c1.654-0.237,2.479-1.499,2.513-3.848C23.064,40.36,21.82,41.316,21.741,43.677z"/>
	<circle cx="36.622" cy="23.663" r="1.103"/>
	<path d="M38.398,24.797c-0.608,0-1.103,0.495-1.103,1.103s0.494,1.103,1.103,1.103s1.104-0.495,1.104-1.103
		S39.007,24.797,38.398,24.797z"/>
	<path d="M40.351,26.692c-0.608,0-1.104,0.495-1.104,1.103s0.495,1.103,1.104,1.103c0.607,0,1.102-0.495,1.102-1.103
		S40.959,26.692,40.351,26.692z"/>
	<path d="M42.316,28.567c-0.608,0-1.103,0.495-1.103,1.103c0,0.608,0.494,1.103,1.103,1.103s1.104-0.495,1.104-1.103
		C43.42,29.062,42.925,28.567,42.316,28.567z"/>
	<path d="M44.267,30.41c-0.608,0-1.103,0.495-1.103,1.103c0,0.608,0.494,1.103,1.103,1.103c0.607,0,1.102-0.495,1.102-1.103
		C45.369,30.905,44.875,30.41,44.267,30.41z"/>
	<path d="M27.318,29.882c-0.107,0.05-0.155,0.177-0.105,0.285c0.036,0.079,0.114,0.125,0.195,0.125c0.03,0,0.061-0.006,0.09-0.02
		c1.101-0.506,3.134-2.554,3.398-3.423c0.034-0.113-0.03-0.233-0.144-0.268c-0.114-0.037-0.234,0.029-0.269,0.143
		C30.254,27.483,28.301,29.43,27.318,29.882z"/>
	<path d="M27.622,28.869c0.034,0.02,0.071,0.028,0.107,0.028c0.074,0,0.146-0.039,0.187-0.108c0.275-0.48,1.154-1.516,1.508-1.844
		c0.087-0.081,0.092-0.217,0.011-0.304c-0.08-0.086-0.216-0.091-0.304-0.011c-0.38,0.354-1.29,1.427-1.588,1.946
		C27.484,28.679,27.519,28.81,27.622,28.869z"/>
	<path class="st0" d="M35.143,64.508c0,0.085,0.069,0.155,0.154,0.155c0.086,0,0.155-0.07,0.155-0.155
		c0-0.085-0.069-0.154-0.155-0.154C35.213,64.353,35.143,64.423,35.143,64.508z"/>
	<path class="st0" d="M41.278,64.353c-0.085,0-0.154,0.069-0.154,0.154c0,0.085,0.069,0.155,0.154,0.155
		c0.086,0,0.155-0.07,0.155-0.155C41.434,64.423,41.364,64.353,41.278,64.353z"/>
	<path class="st0" d="M33.464,64.01c0.314,1.074,1.521,1.603,2.577,1.576c0.866-0.024,1.844-0.423,2.065-1.463
		C36.706,63.19,34.597,63.484,33.464,64.01z M35.883,64.508c0,0.323-0.263,0.585-0.585,0.585s-0.584-0.262-0.584-0.585
		c0-0.322,0.262-0.584,0.584-0.584S35.883,64.186,35.883,64.508z"/>
	<path class="st0" d="M43.195,58.879c-0.884-1.512-2.301-2.453-4.212-2.795c-0.629-0.112-1.251-0.168-1.86-0.168
		c-2.735,0-5.203,1.115-6.828,3.146c-0.252,0.315-0.476,0.646-0.676,0.988c1.838,1.96,2.852,4.295,3.286,6.284
		c0.3,0.323,0.599,0.65,0.896,0.982c1.207,0.25,2.847,0.241,3.892-0.57c-0.29,0.633-1.058,1.138-1.917,1.319
		c1.214,0.38,2.315,1.16,2.958,2.54c0.826-1.174,1.603-1.936,2.632-2.513c-0.778-0.16-1.481-0.688-1.734-1.349
		c1.068,0.977,2.892,0.807,3.921,0.411C44.315,64.865,44.665,61.394,43.195,58.879z M37.474,57.922
		c0.374-0.325,1.016-0.472,1.639-0.374c0.475,0.075,0.833,0.276,1.009,0.567c0.062,0.102,0.029,0.234-0.072,0.295
		c-0.035,0.021-0.073,0.031-0.111,0.031c-0.072,0-0.144-0.037-0.184-0.104c-0.106-0.175-0.371-0.312-0.708-0.365
		c-0.495-0.077-1.013,0.033-1.291,0.273c-0.089,0.078-0.227,0.068-0.303-0.021C37.374,58.135,37.384,57.999,37.474,57.922z
		 M35.983,58.913c2.064,0.578,4.639,0.411,5.366,0.018c0.105-0.055,0.235-0.019,0.292,0.087c0.057,0.104,0.018,0.235-0.087,0.291
		c-0.472,0.255-1.465,0.407-2.601,0.407c-1.004,0-2.118-0.119-3.086-0.389c-0.114-0.032-0.182-0.15-0.149-0.265
		C35.751,58.948,35.871,58.884,35.983,58.913z M36.054,66.017c-0.032,0-0.063,0.001-0.096,0.001c-1.274,0-2.676-0.703-2.955-2.081
		c-0.019-0.093,0.026-0.188,0.111-0.233c1.246-0.655,3.732-1.04,5.354,0.149c0.064,0.047,0.098,0.125,0.086,0.205
		C38.387,65.21,37.404,65.979,36.054,66.017z M41.732,66.004c-1.001,0-2.092-0.595-2.342-1.955
		c-0.013-0.073,0.013-0.148,0.067-0.198c1.313-1.192,3.454-0.792,4.555-0.127c0.071,0.043,0.111,0.125,0.103,0.208
		c-0.152,1.372-1.295,2.035-2.293,2.071C41.792,66.003,41.763,66.004,41.732,66.004z"/>
	<path class="st0" d="M43.668,64.022c-0.967-0.522-2.73-0.826-3.829,0.068c0.266,1.133,1.23,1.504,1.968,1.482
		C42.618,65.543,43.487,65.053,43.668,64.022z M41.278,65.093c-0.322,0-0.584-0.262-0.584-0.585c0-0.322,0.262-0.584,0.584-0.584
		s0.585,0.262,0.585,0.584C41.863,64.831,41.601,65.093,41.278,65.093z"/>
	<path d="M33.114,63.704c-0.085,0.044-0.13,0.14-0.111,0.233c0.279,1.378,1.681,2.081,2.955,2.081c0.032,0,0.063,0,0.096-0.001
		c1.351-0.038,2.333-0.807,2.501-1.959c0.012-0.079-0.021-0.158-0.086-0.205C36.847,62.664,34.36,63.048,33.114,63.704z
		 M36.041,65.586c-1.056,0.026-2.263-0.502-2.577-1.576c1.133-0.526,3.242-0.82,4.643,0.113
		C37.885,65.163,36.907,65.562,36.041,65.586z"/>
	<path d="M44.115,63.932c0.009-0.083-0.031-0.164-0.103-0.208c-1.101-0.665-3.242-1.065-4.555,0.127
		c-0.055,0.05-0.08,0.125-0.067,0.198c0.25,1.359,1.341,1.955,2.342,1.955c0.03,0,0.06,0,0.09-0.001
		C42.82,65.967,43.963,65.304,44.115,63.932z M41.807,65.573c-0.737,0.022-1.702-0.349-1.968-1.482
		c1.099-0.894,2.862-0.591,3.829-0.068C43.487,65.053,42.618,65.543,41.807,65.573z"/>
	<path d="M34.714,64.508c0,0.323,0.262,0.585,0.584,0.585s0.585-0.262,0.585-0.585c0-0.322-0.263-0.584-0.585-0.584
		S34.714,64.186,34.714,64.508z M35.453,64.508c0,0.085-0.069,0.155-0.155,0.155c-0.085,0-0.154-0.07-0.154-0.155
		c0-0.085,0.069-0.154,0.154-0.154C35.384,64.353,35.453,64.423,35.453,64.508z"/>
	<path d="M41.278,63.924c-0.322,0-0.584,0.262-0.584,0.584c0,0.323,0.262,0.585,0.584,0.585s0.585-0.262,0.585-0.585
		C41.863,64.186,41.601,63.924,41.278,63.924z M41.278,64.663c-0.085,0-0.154-0.07-0.154-0.155c0-0.085,0.069-0.154,0.154-0.154
		c0.086,0,0.155,0.069,0.155,0.154C41.434,64.593,41.364,64.663,41.278,64.663z"/>
	<path d="M35.868,59.327c0.968,0.271,2.082,0.389,3.086,0.389c1.136,0,2.129-0.152,2.601-0.407c0.104-0.056,0.144-0.187,0.087-0.291
		c-0.057-0.106-0.187-0.142-0.292-0.087c-0.728,0.393-3.302,0.56-5.366-0.018c-0.112-0.029-0.232,0.035-0.265,0.149
		C35.686,59.177,35.754,59.295,35.868,59.327z"/>
	<path d="M37.452,58.225c0.076,0.089,0.214,0.099,0.303,0.021c0.278-0.24,0.796-0.35,1.291-0.273
		c0.337,0.053,0.602,0.189,0.708,0.365c0.04,0.067,0.111,0.104,0.184,0.104c0.038,0,0.076-0.01,0.111-0.031
		c0.102-0.062,0.134-0.194,0.072-0.295c-0.176-0.291-0.534-0.492-1.009-0.567c-0.623-0.098-1.265,0.049-1.639,0.374
		C37.384,57.999,37.374,58.135,37.452,58.225z"/>
	<path class="st0" d="M20.14,56.405c2.626,1.245,5.142,2.91,7.816,5.177c0.005,0.004,0.012,0.006,0.017,0.01
		c0.396,0.337,0.794,0.682,1.199,1.045c0.373,0.334,0.762,0.698,1.159,1.079c-0.667-1.399-2.49-3.429-4.412-4.404
		c-0.105-0.054-0.147-0.183-0.094-0.289c0.053-0.106,0.185-0.147,0.289-0.095c2.066,1.049,4.039,3.282,4.681,4.75
		c0.047,0.108-0.002,0.235-0.111,0.283c-0.026,0.012-0.053,0.016-0.08,0.017c0.553,0.538,1.122,1.113,1.695,1.713
		C31.182,61.737,27.743,56.805,20.14,56.405z"/>
	<path class="st0" d="M43.45,67.686c-2.175,0.688-3.277,1.539-4.582,3.484c-0.045,0.067-0.127,0.097-0.203,0.094
		c-0.08-0.009-0.148-0.063-0.177-0.138c-0.774-2.039-2.455-2.69-3.851-2.859c1.604,1.862,3.071,3.783,4.081,5.461
		C40.539,73.137,42.867,71.613,43.45,67.686z M39.207,72.434c-0.021,0-0.042-0.003-0.063-0.009
		c-0.113-0.034-0.178-0.154-0.144-0.268c0.264-0.869,2.297-2.917,3.398-3.423c0.106-0.05,0.234-0.003,0.285,0.105
		c0.05,0.108,0.002,0.235-0.105,0.285c-0.983,0.453-2.937,2.4-3.166,3.158C39.385,72.374,39.3,72.434,39.207,72.434z M40.767,72.376
		c-0.041,0.039-0.094,0.058-0.146,0.058c-0.058,0-0.115-0.023-0.157-0.068c-0.081-0.087-0.076-0.223,0.011-0.304
		c0.354-0.33,1.232-1.366,1.507-1.845c0.06-0.103,0.191-0.139,0.293-0.08c0.104,0.059,0.139,0.19,0.08,0.293
		C42.058,70.948,41.147,72.022,40.767,72.376z"/>
	<path class="st2" d="M20.07,64.586c0.086,0.034,0.164,0.075,0.247,0.111c0-0.005-0.002-0.01-0.002-0.015
		c0-0.054,0.014-0.107,0.022-0.16L20.07,64.586z"/>
	<path class="st2" d="M22.583,63.986l-0.273,0.065c0.13,0.183,0.21,0.398,0.21,0.631c0,0.44-0.263,0.815-0.637,0.991
		c0.303,0.261,0.574,0.544,0.815,0.846c-0.125-0.179-0.215-0.384-0.215-0.618c0-0.608,0.495-1.103,1.104-1.103
		s1.103,0.495,1.103,1.103c0,0.608-0.494,1.103-1.103,1.103c-0.292,0-0.554-0.119-0.751-0.304c1.216,1.633,1.662,3.726,2.022,5.437
		c0.131,0.621,0.254,1.207,0.398,1.698c0.408,1.383,1.153,2.436,2.275,3.215h7.228l1.087-0.666
		C34.088,73.771,26.911,66.16,22.583,63.986z M25.631,68.596c-0.608,0-1.104-0.495-1.104-1.103s0.495-1.103,1.104-1.103
		s1.103,0.495,1.103,1.103S26.239,68.596,25.631,68.596z M27.58,70.439c-0.608,0-1.103-0.495-1.103-1.103
		c0-0.608,0.494-1.103,1.103-1.103s1.103,0.495,1.103,1.103C28.683,69.945,28.188,70.439,27.58,70.439z M29.546,72.315
		c-0.608,0-1.103-0.495-1.103-1.103s0.494-1.103,1.103-1.103c0.607,0,1.102,0.495,1.102,1.103S30.153,72.315,29.546,72.315z
		 M30.395,73.106c0-0.608,0.494-1.102,1.103-1.102s1.103,0.494,1.103,1.102c0,0.608-0.494,1.103-1.103,1.103
		S30.395,73.715,30.395,73.106z M33.275,76.447c-0.608,0-1.104-0.494-1.104-1.102c0-0.608,0.495-1.103,1.104-1.103
		s1.103,0.495,1.103,1.103C34.378,75.953,33.884,76.447,33.275,76.447z"/>
	<path class="st1" d="M28.886,62.957c-3.815-3.425-7.218-5.611-10.989-7.055v0.512v2.833c2.334,0.717,5.414,1.937,8.791,4.914
		l0.479,0.423c3.101,2.73,8.252,7.268,10.391,10.753l1.178-0.72C36.653,70.803,31.752,65.529,28.886,62.957z"/>
	<path class="st2" d="M50.496,60.59c-0.462-0.462-1.215-0.463-1.681,0c-0.082,0.084-0.22,0.083-0.304,0
		c-0.447-0.448-1.23-0.45-1.678,0c-0.462,0.462-0.462,1.216,0,1.679c0.084,0.084,0.084,0.22,0,0.304
		c-0.463,0.463-0.463,1.216,0,1.679c0.462,0.462,1.215,0.464,1.679,0c0.084-0.084,0.221-0.083,0.305,0
		c0.464,0.464,1.217,0.462,1.679,0c0.463-0.462,0.463-1.215,0-1.679c-0.084-0.084-0.084-0.22,0-0.304
		C50.958,61.806,50.958,61.053,50.496,60.59z M48.665,63.627c-0.666,0-1.207-0.541-1.207-1.207c0-0.665,0.541-1.206,1.207-1.206
		c0.665,0,1.206,0.541,1.206,1.206C49.871,63.086,49.33,63.627,48.665,63.627z"/>
	<path class="st0" d="M49.441,62.421c0-0.428-0.349-0.776-0.776-0.776c-0.429,0-0.777,0.348-0.777,0.776s0.349,0.777,0.777,0.777
		C49.093,63.198,49.441,62.849,49.441,62.421z"/>
	<path d="M48.665,61.215c-0.666,0-1.207,0.541-1.207,1.206c0,0.666,0.541,1.207,1.207,1.207c0.665,0,1.206-0.541,1.206-1.207
		C49.871,61.756,49.33,61.215,48.665,61.215z M47.888,62.421c0-0.428,0.349-0.776,0.777-0.776c0.428,0,0.776,0.348,0.776,0.776
		s-0.349,0.777-0.776,0.777C48.236,63.198,47.888,62.849,47.888,62.421z"/>
	<path class="st7" d="M51.686,59.177c-0.033-2.349-0.857-3.611-2.513-3.848C49.253,57.69,50.497,58.646,51.686,59.177z"/>
	<path class="st7" d="M48.157,55.329c-1.655,0.236-2.479,1.499-2.513,3.848C46.834,58.646,48.078,57.69,48.157,55.329z"/>
	<path d="M33.275,74.242c-0.608,0-1.104,0.495-1.104,1.103c0,0.608,0.495,1.102,1.104,1.102s1.103-0.494,1.103-1.102
		C34.378,74.736,33.884,74.242,33.275,74.242z"/>
	<path d="M32.601,73.106c0-0.608-0.494-1.102-1.103-1.102s-1.103,0.494-1.103,1.102c0,0.608,0.494,1.103,1.103,1.103
		S32.601,73.715,32.601,73.106z"/>
	<path d="M29.546,70.109c-0.608,0-1.103,0.495-1.103,1.103s0.494,1.103,1.103,1.103c0.607,0,1.102-0.495,1.102-1.103
		S30.153,70.109,29.546,70.109z"/>
	<path d="M27.58,68.234c-0.608,0-1.103,0.495-1.103,1.103c0,0.608,0.494,1.103,1.103,1.103s1.103-0.495,1.103-1.103
		C28.683,68.728,28.188,68.234,27.58,68.234z"/>
	<path d="M25.631,66.391c-0.608,0-1.104,0.495-1.104,1.103s0.495,1.103,1.104,1.103s1.103-0.495,1.103-1.103
		S26.239,66.391,25.631,66.391z"/>
	<path d="M42.579,69.124c0.107-0.05,0.155-0.177,0.105-0.285c-0.051-0.108-0.179-0.155-0.285-0.105
		c-1.102,0.507-3.135,2.555-3.398,3.423c-0.034,0.114,0.03,0.234,0.144,0.268c0.021,0.006,0.042,0.009,0.063,0.009
		c0.093,0,0.178-0.06,0.206-0.152C39.642,71.524,41.596,69.577,42.579,69.124z"/>
	<path d="M42.273,70.137c-0.102-0.06-0.233-0.023-0.293,0.08c-0.274,0.479-1.152,1.515-1.507,1.845
		c-0.087,0.081-0.092,0.217-0.011,0.304c0.042,0.045,0.1,0.068,0.157,0.068c0.053,0,0.105-0.019,0.146-0.058
		c0.381-0.354,1.291-1.429,1.587-1.946C42.412,70.328,42.377,70.196,42.273,70.137z"/>
</g>
</svg>
