<?xml version="1.0" encoding="utf-8"?>
<!-- Generator: Adobe Illustrator 23.0.2, SVG Export Plug-In . SVG Version: 6.00 Build 0)  -->
<svg version="1.1" id="Layer_1" xmlns="http://www.w3.org/2000/svg" xmlns:xlink="http://www.w3.org/1999/xlink" x="0px" y="0px"
	 viewBox="0 0 82.452 99.776" style="enable-background:new 0 0 82.452 99.776;" xml:space="preserve">
<style type="text/css">
	.st0{fill:#FFFFFF;}
	.st1{fill:#ED1C24;}
	.st2{fill:#FFCB05;}
	.st3{fill:#21409A;}
	.st4{fill:#D4D5D6;}
	.st5{fill:#000100;}
	.st6{fill:#300505;}
	.st7{fill:#BFD730;}
	.st8{fill:#F15A22;}
</style>
<g>
	<path class="st0" d="M29.409,73.546c-0.149-0.508-0.274-1.103-0.407-1.732c-0.473-2.253-1.045-4.937-3.161-6.49
		c-0.237-0.175-0.489-0.333-0.749-0.469c-0.003-0.002-0.004-0.006-0.008-0.008c-0.387-0.2-0.816-0.369-1.292-0.5
		c-0.095-0.026-0.16-0.113-0.158-0.211s0.069-0.183,0.165-0.206l4.581-1.092l0.802-0.191c-2.552-1.863-4.865-2.781-6.719-3.359
		v17.35h8.962C30.464,75.843,29.789,74.835,29.409,73.546z"/>
	<path class="st0" d="M22.641,38.895c0.871,0.347,1.921,0.934,2.544,2.151c0.038-0.035,0.07-0.078,0.109-0.112v-2.232
		c-0.158,0.05-0.322,0.079-0.486,0.079c-0.414,0-0.828-0.157-1.144-0.472c-0.307-0.306-0.475-0.712-0.475-1.145
		c0-0.364,0.119-0.709,0.34-0.992c-0.221-0.282-0.34-0.627-0.34-0.991c0-0.432,0.168-0.838,0.474-1.144
		c0.584-0.582,1.504-0.626,2.136-0.135c0.634-0.491,1.553-0.447,2.135,0.134v0c0.085,0.085,0.157,0.18,0.22,0.279
		c0.56-0.586,1.216-1.123,1.975-1.605c0.117-0.554,0.256-1.084,0.418-1.552c0.038-0.313,0.108-0.603,0.17-0.898
		c-0.995,0.779-2.556,0.635-3.3-0.828c0.106,0.988,0.565,2.491,1.493,2.85h-3.413c0.93-0.359,1.388-1.863,1.493-2.85
		c-1.137,2.239-4.198,1.404-4.198-1.13c0-1.774,1.184-2.952,2.43-4.067c0.623-0.558,1.451-1.303,1.981-2.085
		c0.532,0.782,1.359,1.527,1.982,2.085c1.138,1.019,2.215,2.097,2.393,3.629c0.873-1.617,2.225-2.778,3.953-3.364
		c-0.096-0.168-0.194-0.338-0.28-0.5c-0.053-0.101-0.019-0.225,0.078-0.284l1.534-0.939c0,0,0,0,0.001,0l1.333-0.816c0,0,0,0,0,0
		l0.682-0.417H22.462v17.369C22.517,38.884,22.582,38.872,22.641,38.895z"/>
	<path class="st0" d="M49.618,24.639c0.15,0.508,0.275,1.104,0.408,1.733c0.474,2.256,1.047,4.943,3.17,6.494
		c0.233,0.17,0.481,0.327,0.741,0.463c0.003,0.001,0.004,0.005,0.006,0.006c0.387,0.2,0.815,0.369,1.292,0.5
		c0.095,0.026,0.16,0.113,0.158,0.211s-0.069,0.183-0.165,0.206l-1.375,0.328c-0.001,0-0.001,0.001-0.001,0.001l-1.228,0.292
		c0,0-0.001,0-0.001,0l-0.725,0.173c0,0,0,0,0,0l-2.051,0.49c2.552,1.864,4.866,2.782,6.718,3.359V21.546h-8.962
		C48.563,22.341,49.238,23.349,49.618,24.639z"/>
	<path class="st0" d="M56.467,59.305c-0.027,0-0.054-0.005-0.079-0.015c-0.871-0.347-1.921-0.934-2.544-2.152
		c-0.037,0.035-0.071,0.078-0.109,0.112v2.23c0.558-0.175,1.191-0.045,1.631,0.394c0.581,0.582,0.626,1.501,0.134,2.135
		c0.491,0.634,0.447,1.553-0.134,2.136c-0.581,0.581-1.5,0.626-2.136,0.134c-0.291,0.226-0.642,0.338-0.992,0.338
		c-0.414,0-0.828-0.158-1.144-0.472c0,0,0,0,0,0c-0.088-0.088-0.14-0.195-0.203-0.297c-0.563,0.593-1.225,1.135-1.991,1.621
		c-0.118,0.555-0.256,1.085-0.418,1.553c-0.036,0.297-0.104,0.571-0.162,0.852c0.993-0.807,2.579-0.675,3.33,0.804
		c-0.105-0.987-0.565-2.491-1.493-2.85h3.412c-0.928,0.359-1.387,1.863-1.492,2.85c1.137-2.239,4.198-1.404,4.198,1.129
		c0,1.775-1.185,2.953-2.43,4.068c-0.623,0.557-1.45,1.302-1.981,2.085c-0.532-0.782-1.359-1.527-1.981-2.085
		c-1.139-1.02-2.216-2.098-2.393-3.632c-0.871,1.655-2.238,2.843-3.993,3.438c0.097,0.169,0.195,0.338,0.281,0.501
		c0.026,0.05,0.031,0.106,0.017,0.157c-0.014,0.051-0.047,0.097-0.095,0.127l-3.551,2.172h16.417V59.275
		C56.534,59.291,56.502,59.305,56.467,59.305z"/>
	<path class="st0" d="M55.353,42.663c-0.017,0-0.035,0.001-0.052,0.001c-0.009,0-0.016-0.001-0.025-0.001
		c0.482,0.641,0.91,1.343,1.289,2.095V43.15C56.157,42.996,55.753,42.834,55.353,42.663z"/>
	<path class="st0" d="M56.565,53.427c-0.325,0.644-0.675,1.262-1.075,1.825c0.557,0.514,0.909,1.287,1.075,2.289V53.427z"/>
	<path class="st0" d="M61.584,74.194c-0.014-0.036-0.027-0.082-0.04-0.154c-0.123,0.654-0.441,1.018-0.897,1.018
		c-0.489,0-0.862-0.391-1.297-1.355c-0.123,0.364-0.17,0.518-0.21,0.691c-0.088,0.4-0.143,1.054-0.143,1.718
		c0,0.972,0.108,1.773,0.319,2.372c0.224,0.618,0.625,0.964,1.121,0.964c0.455,0,0.821-0.3,1.032-0.845
		c0.237-0.609,0.36-1.446,0.36-2.455c0-0.573-0.048-1.118-0.13-1.49C61.693,74.63,61.652,74.457,61.584,74.194z"/>
	<path class="st0" d="M19.751,19.629c-0.224-0.618-0.625-0.964-1.121-0.964c-0.455,0-0.821,0.3-1.032,0.845
		c-0.237,0.609-0.36,1.445-0.36,2.455c0,0.573,0.048,1.118,0.129,1.49c0.007,0.027,0.047,0.2,0.115,0.464
		c0.014,0.036,0.027,0.082,0.041,0.155c0.122-0.654,0.441-1.018,0.896-1.018c0.489,0,0.862,0.391,1.297,1.355
		c0.123-0.364,0.17-0.518,0.21-0.691c0.088-0.4,0.143-1.055,0.143-1.718C20.069,21.029,19.961,20.23,19.751,19.629z"/>
	<path class="st0" d="M23.728,55.543c0.014,0,0.027,0,0.041,0c-0.489-0.647-0.923-1.356-1.307-2.116v1.608
		C22.888,55.196,23.31,55.364,23.728,55.543z"/>
	<path class="st0" d="M61.155,14.811H17.914c-1.564,0-2.837,1.272-2.837,2.836v62.82c0,1.563,1.272,2.836,2.837,2.836h43.241
		c1.563,0,2.835-1.272,2.835-2.836v-62.82C63.99,16.083,62.719,14.811,61.155,14.811z M18.669,31.004
		c0.055,0.521,0.297,1.316,0.787,1.506h-1.801c0.491-0.19,0.733-0.984,0.787-1.506c-0.599,1.183-2.216,0.742-2.216-0.596
		c0-0.937,0.626-1.559,1.283-2.148c0.33-0.294,0.767-0.687,1.046-1.1c0.282,0.413,0.717,0.806,1.047,1.1
		c0.657,0.589,1.282,1.211,1.282,2.148C20.884,31.746,19.269,32.187,18.669,31.004z M20.212,26.11c-0.373,0-0.638-0.2-0.944-0.718
		c-0.224,0.082-0.38,0.109-0.611,0.109c-0.706,0-1.311-0.318-1.732-0.927c-0.435-0.609-0.659-1.473-0.659-2.536
		c0-1.064,0.211-1.963,0.618-2.609c0.408-0.663,1.025-1.009,1.773-1.009c1.467,0,2.383,1.327,2.383,3.445
		c0,0.936-0.156,1.727-0.469,2.363c-0.149,0.318-0.292,0.509-0.557,0.764c0.245,0.427,0.469,0.618,0.72,0.618
		c0.143,0,0.306-0.054,0.489-0.172l0.041,0.209C20.898,25.965,20.572,26.11,20.212,26.11z M56.995,39.189v2.894v0.921v2.677v0.004
		v0.733v1.397v3.657v1.032v24.349c0,0.119-0.096,0.215-0.215,0.215H39.385H32.03h-9.783c-0.119,0-0.215-0.096-0.215-0.215V58.995
		v-2.893v-0.922v-2.676v-0.006v-0.733V50.37v-3.658v-1.031v-24.35c0-0.119,0.096-0.215,0.215-0.215h17.396h7.354h9.783
		c0.119,0,0.215,0.096,0.215,0.215V39.189z M62.182,78.684c-0.408,0.663-1.026,1.009-1.773,1.009c-1.467,0-2.383-1.327-2.383-3.445
		c0-0.936,0.156-1.727,0.469-2.363c0.149-0.318,0.292-0.509,0.557-0.764c-0.245-0.427-0.469-0.618-0.72-0.618
		c-0.143,0-0.306,0.055-0.489,0.173l-0.041-0.209c0.367-0.318,0.693-0.464,1.053-0.464c0.373,0,0.638,0.2,0.944,0.718
		c0.224-0.082,0.38-0.109,0.611-0.109c0.706,0,1.311,0.318,1.732,0.927c0.435,0.609,0.659,1.473,0.659,2.536
		C62.8,77.139,62.589,78.038,62.182,78.684z M61.56,69.853c-0.33,0.295-0.768,0.688-1.047,1.101
		c-0.281-0.413-0.716-0.806-1.046-1.101c-0.658-0.588-1.283-1.211-1.283-2.147c0-1.337,1.616-1.778,2.216-0.597
		c-0.055-0.521-0.298-1.315-0.788-1.505h1.802c-0.49,0.189-0.733,0.983-0.788,1.505c0.6-1.182,2.216-0.741,2.216,0.597
		C62.842,68.642,62.216,69.265,61.56,69.853z"/>
	<path class="st0" d="M18.101,23.711c-0.245,0-0.394,0.218-0.441,0.663c0.068,0.282,0.122,0.409,0.265,0.554
		c0.197,0.218,0.462,0.336,0.734,0.336c0.17,0,0.326-0.036,0.489-0.127c-0.238-0.554-0.306-0.691-0.448-0.937
		C18.501,23.856,18.318,23.711,18.101,23.711z"/>
	<path class="st0" d="M22.462,44.759c0.325-0.644,0.676-1.263,1.076-1.826c-0.559-0.516-0.911-1.292-1.076-2.298V44.759z"/>
	<path class="st0" d="M60.966,74.403c0.245,0,0.394-0.218,0.441-0.663c-0.068-0.282-0.122-0.409-0.265-0.554
		c-0.197-0.218-0.462-0.337-0.734-0.337c-0.169,0-0.326,0.036-0.489,0.127c0.238,0.554,0.306,0.691,0.448,0.937
		C60.566,74.257,60.749,74.403,60.966,74.403z"/>
	<path d="M61.155,14.381H17.914c-1.802,0-3.267,1.465-3.267,3.266v62.82c0,1.801,1.465,3.266,3.267,3.266h43.241
		c1.8,0,3.265-1.465,3.265-3.266v-62.82C64.42,15.846,62.955,14.381,61.155,14.381z M63.99,80.467c0,1.563-1.271,2.836-2.835,2.836
		H17.914c-1.564,0-2.837-1.272-2.837-2.836v-62.82c0-1.563,1.272-2.836,2.837-2.836h43.241c1.563,0,2.835,1.272,2.835,2.836V80.467z
		"/>
	<path class="st5" d="M20.735,25.61c-0.251,0-0.475-0.19-0.72-0.618c0.265-0.255,0.407-0.445,0.557-0.764
		c0.313-0.636,0.469-1.427,0.469-2.363c0-2.118-0.917-3.445-2.383-3.445c-0.747,0-1.365,0.346-1.773,1.009
		c-0.407,0.646-0.618,1.545-0.618,2.609c0,1.064,0.224,1.927,0.659,2.536c0.421,0.609,1.025,0.927,1.732,0.927
		c0.231,0,0.387-0.027,0.611-0.109c0.306,0.518,0.571,0.718,0.944,0.718c0.36,0,0.686-0.145,1.053-0.464l-0.041-0.209
		C21.041,25.556,20.878,25.61,20.735,25.61z M18.657,25.265c-0.271,0-0.537-0.118-0.734-0.336c-0.143-0.145-0.197-0.273-0.265-0.554
		c0.047-0.445,0.197-0.663,0.441-0.663c0.217,0,0.4,0.145,0.597,0.49c0.143,0.245,0.21,0.382,0.448,0.937
		C18.983,25.228,18.827,25.265,18.657,25.265z M19.716,24.411c-0.435-0.964-0.808-1.355-1.297-1.355
		c-0.455,0-0.774,0.364-0.896,1.018c-0.014-0.072-0.027-0.118-0.041-0.155c-0.068-0.263-0.108-0.436-0.115-0.464
		c-0.081-0.372-0.129-0.918-0.129-1.49c0-1.009,0.123-1.846,0.36-2.455c0.211-0.545,0.577-0.845,1.032-0.845
		c0.496,0,0.897,0.346,1.121,0.964c0.21,0.6,0.319,1.4,0.319,2.372c0,0.664-0.054,1.318-0.143,1.718
		C19.886,23.892,19.839,24.047,19.716,24.411z"/>
	<path d="M19.602,28.26c-0.33-0.294-0.765-0.687-1.047-1.1c-0.279,0.413-0.716,0.806-1.046,1.1
		c-0.657,0.589-1.283,1.211-1.283,2.148c0,1.338,1.617,1.779,2.216,0.596c-0.054,0.521-0.297,1.316-0.787,1.506h1.801
		c-0.491-0.19-0.732-0.984-0.787-1.506c0.6,1.183,2.215,0.742,2.215-0.596C20.884,29.471,20.259,28.848,19.602,28.26z"/>
	<path class="st5" d="M60.41,72.612c-0.231,0-0.387,0.027-0.611,0.109c-0.306-0.518-0.571-0.718-0.944-0.718
		c-0.36,0-0.686,0.145-1.053,0.464l0.041,0.209c0.183-0.118,0.346-0.173,0.489-0.173c0.251,0,0.475,0.191,0.72,0.618
		c-0.265,0.254-0.407,0.445-0.557,0.764c-0.313,0.637-0.469,1.427-0.469,2.363c0,2.118,0.917,3.445,2.383,3.445
		c0.747,0,1.365-0.346,1.773-1.009c0.407-0.646,0.618-1.545,0.618-2.609c0-1.064-0.224-1.927-0.659-2.536
		C61.72,72.931,61.116,72.612,60.41,72.612z M60.41,72.848c0.272,0,0.537,0.118,0.734,0.337c0.143,0.145,0.197,0.273,0.265,0.554
		c-0.047,0.445-0.197,0.663-0.441,0.663c-0.217,0-0.4-0.145-0.597-0.49c-0.143-0.246-0.21-0.382-0.448-0.937
		C60.084,72.885,60.24,72.848,60.41,72.848z M61.469,78.603c-0.211,0.545-0.578,0.845-1.032,0.845c-0.496,0-0.897-0.346-1.121-0.964
		c-0.21-0.599-0.319-1.4-0.319-2.372c0-0.664,0.054-1.318,0.143-1.718c0.04-0.173,0.088-0.327,0.21-0.691
		c0.435,0.964,0.808,1.355,1.297,1.355c0.455,0,0.774-0.364,0.897-1.018c0.013,0.072,0.027,0.118,0.04,0.154
		c0.068,0.264,0.108,0.436,0.115,0.464c0.082,0.372,0.13,0.918,0.13,1.49C61.829,77.157,61.707,77.993,61.469,78.603z"/>
	<path d="M60.626,67.109c0.055-0.521,0.298-1.315,0.788-1.505h-1.802c0.49,0.189,0.733,0.983,0.788,1.505
		c-0.6-1.182-2.216-0.741-2.216,0.597c0,0.936,0.625,1.559,1.283,2.147c0.33,0.295,0.765,0.688,1.046,1.101
		c0.279-0.413,0.717-0.806,1.047-1.101c0.656-0.588,1.282-1.211,1.282-2.147C62.842,66.368,61.226,65.927,60.626,67.109z"/>
	<path class="st1" d="M28.372,37.494c-0.042,0.207-0.124,0.402-0.243,0.577c-0.126,0.344-0.227,0.707-0.295,1.087
		c0.747-0.386,1.545-0.677,2.377-0.898c-0.249-0.864-0.372-1.768-0.38-2.669C29.241,36.1,28.738,36.741,28.372,37.494z"/>
	<path class="st1" d="M50.711,60.567c0.037-0.127,0.089-0.246,0.158-0.362c0.142-0.371,0.251-0.765,0.325-1.178
		c-0.747,0.385-1.545,0.677-2.377,0.897c0.249,0.864,0.372,1.768,0.38,2.669C49.818,62.057,50.341,61.373,50.711,60.567z"/>
	<path class="st1" d="M54.015,42.605c-0.01,1.311-0.704,2.998-2.2,4.399c1.218-0.793,2.765-1.379,4.547-1.689
		c-0.464-0.986-1.02-1.88-1.657-2.678C54.472,42.63,54.241,42.62,54.015,42.605z"/>
	<path class="st1" d="M27.446,43.354c-0.093,0.048-0.198,0.08-0.298,0.119c0.067,0.021,0.135,0.04,0.2,0.064
		c0.19,0.071,0.365,0.164,0.534,0.263c0.143,0.083,0.273,0.18,0.401,0.282c0.117,0.094,0.233,0.188,0.336,0.296
		c0.073,0.078,0.138,0.163,0.204,0.249c0.11,0.142,0.208,0.292,0.296,0.452c0.025,0.046,0.061,0.081,0.084,0.128
		c0.006,0.012-0.001,0.025,0.002,0.037c0.097,0.202,0.173,0.416,0.233,0.641l1.023-0.275C29.749,44.717,28.728,43.949,27.446,43.354
		z"/>
	<path class="st1" d="M22.462,46.497h0.202c0.108-1.512,0.763-2.549,1.886-2.982c-0.241-0.084-0.461-0.195-0.663-0.33
		c-0.546,0.769-1.025,1.617-1.425,2.54V46.497z"/>
	<path class="st1" d="M56.565,51.687h-0.201c-0.108,1.512-0.762,2.55-1.886,2.983c0.241,0.084,0.461,0.195,0.663,0.329
		c0.546-0.769,1.024-1.616,1.424-2.539V51.687z"/>
	<path class="st1" d="M31.137,46.687l-1.009,0.271c-0.149,1.24-0.765,2.371-1.758,3.315c0.888-0.584,1.965-1.064,3.244-1.376
		c0.001-0.031,0.005-0.062,0.005-0.092C31.618,48.059,31.451,47.349,31.137,46.687z"/>
	<path class="st1" d="M37.08,51.227h-1.859c-0.518,1.914-2.026,4.12-4.805,5.686c0.831,0.391,1.577,0.849,2.246,1.359
		C35.814,55.942,36.798,52.625,37.08,51.227z"/>
	<path class="st1" d="M25.011,55.574c0.012-1.31,0.706-2.994,2.199-4.392c-1.218,0.793-2.764,1.378-4.546,1.688
		c0.464,0.985,1.019,1.878,1.655,2.675C24.553,55.552,24.786,55.559,25.011,55.574z"/>
	<path class="st1" d="M41.947,46.958h1.86c0.518-1.914,2.026-4.12,4.807-5.686c-0.831-0.392-1.578-0.849-2.247-1.359
		C43.217,42.242,42.23,45.559,41.947,46.958z"/>
	<path class="st1" d="M51.582,54.83c0.092-0.048,0.197-0.08,0.297-0.119c-0.069-0.021-0.137-0.041-0.203-0.066
		c-0.173-0.065-0.331-0.151-0.488-0.24c-0.161-0.091-0.31-0.195-0.452-0.31c-0.113-0.091-0.226-0.182-0.326-0.287
		c-0.075-0.08-0.141-0.167-0.208-0.255c-0.108-0.139-0.205-0.287-0.291-0.445c-0.026-0.047-0.063-0.084-0.087-0.133
		c-0.006-0.013,0.001-0.026-0.002-0.039c-0.096-0.201-0.173-0.415-0.232-0.64l-1.024,0.275C49.278,53.467,50.3,54.235,51.582,54.83z
		"/>
	<path class="st1" d="M47.891,51.497l1.009-0.271c0.149-1.24,0.765-2.371,1.759-3.316c-0.888,0.584-1.966,1.065-3.245,1.377
		c-0.001,0.03-0.005,0.062-0.005,0.092C47.409,50.126,47.577,50.836,47.891,51.497z"/>
	<path class="st1" d="M27.08,40.101c-0.268,0.174-0.524,0.367-0.777,0.565v0.208h0.188C26.662,40.573,26.865,40.325,27.08,40.101z"
		/>
	<path class="st1" d="M30.896,39.934c-0.235-0.402-0.413-0.831-0.565-1.27c-0.382,0.1-0.76,0.211-1.125,0.349
		c0.014,0.028,0.043,0.048,0.043,0.08c0.01,0.668-0.045,1.256-0.152,1.781h0.602c0.033,0,0.065,0.007,0.095,0.022
		c3.963,1.946,5.125,4.92,5.435,6.063h1.852c-0.171-0.848-0.599-2.403-1.612-4.015c-0.021-0.004-0.042-0.005-0.064-0.009
		C33.363,42.569,31.847,41.56,30.896,39.934z"/>
	<path class="st1" d="M51.951,58.082c0.267-0.174,0.523-0.367,0.776-0.564v-0.207h-0.188C52.368,57.611,52.165,57.859,51.951,58.082
		z"/>
	<path class="st1" d="M48.132,58.251c0.235,0.402,0.413,0.831,0.565,1.27c0.383-0.1,0.76-0.211,1.126-0.349
		c-0.013-0.028-0.042-0.047-0.043-0.079c-0.01-0.668,0.045-1.257,0.152-1.782H49.33c-0.033,0-0.065-0.007-0.095-0.022
		c-3.965-1.947-5.127-4.921-5.437-6.063h-1.851c0.171,0.849,0.6,2.404,1.613,4.016c0.021,0.004,0.042,0.004,0.064,0.007
		C45.665,55.615,47.182,56.625,48.132,58.251z"/>
	<path class="st2" d="M22.462,52.456c0.001,0.001,0.001,0.002,0.001,0.003l0.007,0.014c2.352-0.389,4.261-1.279,5.54-2.473
		c-0.583,0.374-1.302,0.584-2.112,0.584c-0.786,0-1.443-0.193-1.958-0.557c-0.459,0.194-0.947,0.369-1.477,0.509v0.973V52.456z"/>
	<path class="st2" d="M29.674,47.08l-0.105,0.028c-0.008,0.198-0.018,0.395-0.052,0.581C29.579,47.489,29.641,47.288,29.674,47.08z"
		/>
	<path class="st2" d="M29.433,47.994c0.023-0.06,0.032-0.123,0.053-0.184C29.472,47.874,29.45,47.932,29.433,47.994z"/>
	<path class="st3" d="M25.667,55.4c0.067-0.46,0.583-0.887,1.183-0.43c0.234-0.104,0.458-0.214,0.674-0.328
		c0.479-1.191,1.567-2.448,3.385-3.192c0.132-0.242,0.241-0.487,0.335-0.732c-0.291-0.57-0.051-1.024,0.308-1.156
		c0.011-0.072,0.026-0.145,0.034-0.217c-4.216,1.077-6.077,4.082-6.141,6.139c0.075-0.023,0.147-0.047,0.221-0.071
		C25.667,55.409,25.666,55.405,25.667,55.4z M29.629,50.291c0.461-0.161,1.129,0.128,0.911,0.962
		c-0.18-0.393-0.495-0.495-0.697-0.437c-0.305,0.087-0.453,0.562-0.233,0.84C28.96,51.136,29.167,50.451,29.629,50.291z
		 M27.73,51.513c0.37-0.318,1.097-0.295,1.201,0.559c-0.311-0.301-0.642-0.277-0.809-0.15c-0.251,0.193-0.214,0.689,0.092,0.866
		C27.419,52.546,27.361,51.832,27.73,51.513z M26.447,53.273c0.234-0.428,0.924-0.66,1.32,0.104
		c-0.397-0.173-0.698-0.036-0.81,0.141c-0.168,0.269,0.04,0.721,0.389,0.78C26.514,54.349,26.211,53.701,26.447,53.273z"/>
	<path class="st3" d="M31.269,50.65c0.046-0.124,0.09-0.248,0.127-0.372C31.309,50.383,31.268,50.514,31.269,50.65z"/>
	<path class="st0" d="M28.215,52.789c-0.307-0.177-0.343-0.673-0.092-0.866c0.167-0.127,0.497-0.151,0.809,0.15
		c-0.104-0.854-0.831-0.877-1.201-0.559C27.361,51.832,27.419,52.546,28.215,52.789z"/>
	<path class="st0" d="M27.346,54.298c-0.349-0.059-0.557-0.51-0.389-0.78c0.112-0.177,0.413-0.314,0.81-0.141
		c-0.396-0.765-1.086-0.533-1.32-0.104C26.211,53.701,26.514,54.349,27.346,54.298z"/>
	<path class="st0" d="M25.667,55.4c-0.001,0.004,0.001,0.009,0,0.013c0.415-0.134,0.814-0.279,1.183-0.442
		C26.25,54.513,25.734,54.941,25.667,55.4z"/>
	<path class="st0" d="M29.611,51.655c-0.22-0.278-0.072-0.752,0.233-0.84c0.202-0.057,0.517,0.044,0.697,0.437
		c0.218-0.834-0.451-1.122-0.911-0.962C29.167,50.451,28.96,51.136,29.611,51.655z"/>
	<path class="st0" d="M31.245,50.718c0.009-0.022,0.016-0.045,0.025-0.068c-0.001-0.136,0.04-0.268,0.127-0.372
		c0.071-0.24,0.121-0.479,0.157-0.716C31.194,49.694,30.954,50.148,31.245,50.718z"/>
	<path class="st3" d="M28.277,54.204c0.894-0.578,1.595-1.25,2.123-1.963C29.412,52.781,28.71,53.483,28.277,54.204z"/>
	<path class="st0" d="M27.524,54.642c0.264-0.139,0.515-0.285,0.753-0.439c0.433-0.721,1.135-1.423,2.123-1.963
		c0.192-0.259,0.364-0.523,0.51-0.791C29.091,52.194,28.003,53.452,27.524,54.642z"/>
	<path class="st3" d="M47.758,47.533c-0.046,0.125-0.091,0.249-0.128,0.374C47.718,47.803,47.76,47.67,47.758,47.533z"/>
	<path class="st3" d="M53.361,42.784c-0.067,0.46-0.583,0.887-1.183,0.43c-0.234,0.104-0.458,0.214-0.674,0.328
		c-0.479,1.19-1.567,2.447-3.386,3.192c-0.132,0.242-0.241,0.486-0.335,0.732c0.291,0.571,0.052,1.025-0.309,1.157
		c-0.011,0.072-0.026,0.145-0.034,0.217c4.215-1.077,6.076-4.082,6.141-6.139c-0.075,0.023-0.147,0.047-0.22,0.071
		C53.36,42.776,53.361,42.78,53.361,42.784z M49.398,47.894c-0.461,0.161-1.128-0.128-0.91-0.962
		c0.179,0.394,0.494,0.495,0.696,0.437c0.305-0.087,0.453-0.561,0.233-0.84C50.068,47.048,49.859,47.733,49.398,47.894z
		 M51.299,46.671c-0.371,0.319-1.097,0.296-1.201-0.558c0.311,0.3,0.641,0.278,0.808,0.15c0.252-0.193,0.214-0.69-0.091-0.866
		C51.61,45.639,51.667,46.353,51.299,46.671z M52.582,44.911c-0.235,0.429-0.925,0.66-1.321-0.104
		c0.397,0.172,0.699,0.036,0.81-0.142c0.168-0.269-0.04-0.72-0.389-0.779C52.513,43.835,52.817,44.484,52.582,44.911z"/>
	<path class="st0" d="M50.814,45.397c0.306,0.176,0.343,0.672,0.091,0.866c-0.167,0.128-0.496,0.15-0.808-0.15
		c0.104,0.854,0.83,0.877,1.201,0.558C51.667,46.353,51.61,45.639,50.814,45.397z"/>
	<path class="st0" d="M51.682,43.886c0.349,0.059,0.557,0.51,0.389,0.779c-0.111,0.179-0.413,0.314-0.81,0.142
		c0.396,0.764,1.086,0.533,1.321,0.104C52.817,44.484,52.513,43.835,51.682,43.886z"/>
	<path class="st0" d="M53.361,42.784c0.001-0.004,0-0.008,0-0.012c-0.415,0.134-0.814,0.278-1.183,0.442
		C52.778,43.671,53.294,43.244,53.361,42.784z"/>
	<path class="st0" d="M49.417,46.529c0.22,0.278,0.072,0.753-0.233,0.84c-0.202,0.058-0.517-0.043-0.696-0.437
		c-0.218,0.833,0.449,1.122,0.91,0.962C49.859,47.733,50.068,47.048,49.417,46.529z"/>
	<path class="st0" d="M47.782,47.466c-0.009,0.022-0.016,0.045-0.024,0.067c0.002,0.137-0.04,0.269-0.128,0.374
		c-0.07,0.24-0.12,0.478-0.157,0.716C47.834,48.491,48.074,48.037,47.782,47.466z"/>
	<path class="st3" d="M50.752,43.98c-0.895,0.578-1.596,1.25-2.124,1.963C49.616,45.403,50.319,44.701,50.752,43.98z"/>
	<path class="st0" d="M51.504,43.542c-0.264,0.139-0.515,0.285-0.752,0.438c-0.433,0.721-1.136,1.423-2.124,1.963
		c-0.192,0.259-0.364,0.523-0.51,0.791C49.937,45.989,51.025,44.732,51.504,43.542z"/>
	<path class="st2" d="M25.189,41.057c0.035-0.033,0.068-0.07,0.104-0.103v-0.019c-0.038,0.035-0.071,0.077-0.109,0.112
		C25.186,41.05,25.187,41.054,25.189,41.057z"/>
	<path class="st2" d="M53.84,57.128c-0.035,0.033-0.068,0.07-0.104,0.103v0.019c0.038-0.034,0.071-0.077,0.109-0.112
		C53.842,57.135,53.841,57.132,53.84,57.128z"/>
	<path class="st2" d="M43.799,51.227c0.31,1.142,1.472,4.116,5.437,6.063c0.029,0.015,0.062,0.022,0.095,0.022h0.602
		c0.031-0.151,0.071-0.29,0.112-0.43H49.38c-4.021-1.994-5.007-5.06-5.213-5.954c-0.024-0.107-0.126-0.157-0.234-0.147
		c-0.021,0.002-0.039,0.008-0.058,0.017h-2.187c-0.063,0-0.124,0.028-0.165,0.077c-0.04,0.048-0.058,0.112-0.047,0.175
		c0.13,0.747,0.519,2.385,1.549,4.131c0.179,0.022,0.356,0.032,0.536,0.063c-1.013-1.612-1.442-3.167-1.613-4.016H43.799z"/>
	<path class="st2" d="M35.228,46.958c-0.31-1.142-1.472-4.116-5.435-6.063c-0.029-0.015-0.062-0.022-0.095-0.022h-0.602
		c-0.031,0.151-0.072,0.29-0.112,0.43h0.664c4.019,1.993,5.005,5.059,5.211,5.954c0.025,0.107,0.128,0.161,0.234,0.147
		c0.021-0.002,0.039-0.008,0.058-0.017h2.187c0.063,0,0.124-0.028,0.164-0.076c0.041-0.049,0.059-0.113,0.048-0.175
		c-0.129-0.746-0.516-2.378-1.54-4.12c-0.181-0.022-0.361-0.042-0.542-0.073c1.013,1.612,1.441,3.167,1.612,4.015H35.228z"/>
	<path class="st2" d="M25.108,55.583c0.367,0.027,0.727,0.061,1.075,0.108c4.03-1.441,5.864-4.368,5.864-6.886
		c0-2.388-1.542-4.429-4.185-5.73c-0.132,0.102-0.266,0.201-0.416,0.279c1.282,0.595,2.303,1.363,3.015,2.257
		c0.271,0.341,0.497,0.7,0.675,1.076c0.314,0.662,0.481,1.372,0.481,2.118c0,0.03-0.004,0.062-0.005,0.092
		c-0.003,0.148-0.01,0.297-0.026,0.447c-0.008,0.072-0.023,0.145-0.034,0.217c-0.036,0.238-0.086,0.476-0.157,0.716
		c-0.037,0.124-0.081,0.248-0.127,0.372c-0.008,0.023-0.016,0.045-0.025,0.068c-0.094,0.245-0.204,0.49-0.335,0.732
		c-0.146,0.268-0.318,0.532-0.51,0.791c-0.528,0.713-1.229,1.385-2.123,1.963c-0.237,0.153-0.489,0.299-0.753,0.439
		c-0.216,0.114-0.44,0.225-0.674,0.328c-0.369,0.164-0.768,0.308-1.183,0.442c-0.074,0.024-0.146,0.048-0.221,0.071
		C25.335,55.518,25.223,55.552,25.108,55.583z"/>
	<path class="st2" d="M53.923,42.601c-0.365-0.026-0.716-0.067-1.062-0.113c-4.042,1.438-5.881,4.369-5.881,6.891
		c0,0.787,0.169,1.535,0.488,2.232l0.424-0.114c-0.314-0.662-0.482-1.372-0.482-2.119c0-0.03,0.004-0.061,0.005-0.092
		c0.003-0.148,0.01-0.297,0.026-0.447c0.008-0.072,0.023-0.145,0.034-0.217c0.036-0.237,0.086-0.476,0.157-0.716
		c0.037-0.125,0.081-0.249,0.128-0.374c0.008-0.022,0.016-0.045,0.024-0.067c0.094-0.245,0.204-0.49,0.335-0.732
		c0.146-0.268,0.318-0.531,0.51-0.791c0.528-0.713,1.23-1.385,2.124-1.963c0.237-0.153,0.489-0.299,0.752-0.438
		c0.216-0.114,0.44-0.224,0.674-0.328c0.369-0.163,0.768-0.308,1.183-0.442c0.073-0.024,0.145-0.048,0.22-0.071
		C53.694,42.667,53.807,42.633,53.923,42.601z"/>
	<path class="st2" d="M43.934,47.454c0.104,0.014,0.209-0.059,0.233-0.165c0.447-1.928,1.975-4.223,4.925-5.79
		c-0.166-0.07-0.318-0.152-0.478-0.228c-2.781,1.566-4.289,3.773-4.807,5.686h-1.86c0.282-1.399,1.27-4.716,4.42-7.045
		c-0.12-0.092-0.238-0.184-0.353-0.279c-3.409,2.573-4.322,6.262-4.538,7.502c-0.011,0.063,0.007,0.127,0.047,0.175
		c0.041,0.049,0.102,0.077,0.165,0.077h2.113C43.835,47.424,43.881,47.448,43.934,47.454z"/>
	<path class="st2" d="M37.551,51.048c0.011-0.063-0.007-0.126-0.048-0.175c-0.04-0.048-0.101-0.076-0.164-0.076h-2.112
		c-0.033-0.036-0.08-0.06-0.132-0.066c-0.111-0.016-0.21,0.059-0.233,0.165c-0.448,1.931-1.98,4.23-4.938,5.797
		c0.167,0.071,0.331,0.144,0.492,0.22c2.78-1.566,4.288-3.772,4.805-5.686h1.859c-0.282,1.398-1.266,4.715-4.419,7.045
		c0.12,0.091,0.249,0.176,0.364,0.271C36.428,55.969,37.336,52.287,37.551,51.048z"/>
	<path class="st2" d="M26.49,40.874h-0.188v0.412C26.364,41.146,26.419,40.998,26.49,40.874z"/>
	<path class="st2" d="M52.539,57.312h0.188v-0.413C52.666,57.039,52.61,57.187,52.539,57.312z"/>
	<path class="st2" d="M51.166,55.109c0.132-0.102,0.266-0.201,0.416-0.279c-1.282-0.595-2.304-1.363-3.016-2.258l-0.452,0.121
		C48.829,53.647,49.863,54.468,51.166,55.109z"/>
	<path class="st2" d="M49.354,51.104l0.105-0.028c0.008-0.198,0.018-0.396,0.052-0.581C49.449,50.695,49.387,50.896,49.354,51.104z"
		/>
	<path class="st2" d="M49.595,50.19c-0.024,0.063-0.034,0.129-0.055,0.192C49.554,50.316,49.578,50.255,49.595,50.19z"/>
	<path class="st2" d="M56.559,45.712c-2.353,0.389-4.262,1.279-5.54,2.473c0.583-0.374,1.302-0.584,2.112-0.584
		c0.786,0,1.443,0.193,1.958,0.557c0.459-0.194,0.947-0.368,1.476-0.509L56.559,45.712z"/>
	<path class="st2" d="M41.483,44.507c-0.962-0.322-1.776,0.75-1.776,1.293c0,0.544,0.478,1.127,1.346,0.729
		C40.639,45.875,40.76,44.815,41.483,44.507z"/>
	<path class="st2" d="M37.544,44.507c0.724,0.309,0.845,1.368,0.43,2.022c0.868,0.398,1.346-0.185,1.346-0.729
		C39.32,45.257,38.506,44.185,37.544,44.507z"/>
	<path class="st0" d="M45.433,49.998c0.48,0,0.87-0.389,0.87-0.87c0-0.481-0.39-0.871-0.87-0.871c-0.481,0-0.871,0.39-0.871,0.871
		C44.562,49.609,44.952,49.998,45.433,49.998z"/>
	<path class="st0" d="M45.047,46.671c0,0.481,0.39,0.871,0.873,0.871c0.479,0,0.869-0.391,0.869-0.871
		c0-0.48-0.39-0.871-0.869-0.871C45.437,45.8,45.047,46.191,45.047,46.671z"/>
	<path class="st0" d="M48.274,44.507c0-0.481-0.39-0.872-0.871-0.872c-0.48,0-0.87,0.391-0.87,0.872c0,0.48,0.39,0.87,0.87,0.87
		C47.883,45.377,48.274,44.987,48.274,44.507z"/>
	<path class="st0" d="M49.412,43.594c0.481,0,0.871-0.39,0.871-0.871c0-0.481-0.39-0.87-0.871-0.87c-0.48,0-0.87,0.39-0.87,0.87
		C48.542,43.204,48.932,43.594,49.412,43.594z"/>
	<path class="st0" d="M51.804,42.43c0.097,0,0.186-0.026,0.274-0.055c-0.308-0.057-0.598-0.13-0.891-0.202
		C51.344,42.331,51.562,42.43,51.804,42.43z"/>
	<path class="st0" d="M33.184,34.242c0.086,0,0.156-0.069,0.156-0.155c0-0.085-0.07-0.154-0.156-0.154
		c-0.084,0-0.153,0.069-0.153,0.154C33.03,34.173,33.1,34.242,33.184,34.242z"/>
	<path class="st0" d="M39.319,34.087c0-0.085-0.069-0.154-0.155-0.154c-0.085,0-0.154,0.069-0.154,0.154
		c0,0.085,0.069,0.155,0.154,0.155C39.25,34.242,39.319,34.173,39.319,34.087z"/>
	<path class="st0" d="M40.999,34.586c-0.315-1.074-1.521-1.63-2.577-1.577c-0.866,0.023-1.844,0.423-2.065,1.463
		C37.756,35.403,39.865,35.112,40.999,34.586z M38.58,34.087c0-0.322,0.262-0.584,0.584-0.584s0.585,0.262,0.585,0.584
		s-0.263,0.584-0.585,0.584S38.58,34.41,38.58,34.087z"/>
	<path class="st0" d="M30.796,34.573c0.965,0.523,2.729,0.826,3.828-0.068c-0.265-1.134-1.209-1.496-1.968-1.482
		C31.846,33.052,30.976,33.543,30.796,34.573z M33.184,33.503c0.323,0,0.586,0.262,0.586,0.584s-0.263,0.584-0.586,0.584
		c-0.321,0-0.583-0.262-0.583-0.584S32.862,33.503,33.184,33.503z"/>
	<path class="st0" d="M31.268,39.716c0.884,1.513,2.302,2.453,4.213,2.795c3.456,0.618,6.702-0.495,8.688-2.979
		c0.25-0.313,0.473-0.641,0.672-0.98c-1.84-1.96-2.846-4.3-3.281-6.289c-0.301-0.323-0.6-0.651-0.897-0.983
		c-1.208-0.251-2.847-0.242-3.892,0.569c0.29-0.632,1.056-1.137,1.914-1.318c-1.214-0.381-2.313-1.162-2.955-2.541
		c-0.827,1.175-1.604,1.937-2.632,2.514c0.778,0.16,1.481,0.688,1.734,1.349c-1.066-0.977-2.891-0.807-3.92-0.411
		C30.148,33.731,29.797,37.202,31.268,39.716z M36.989,40.673c-0.297,0.258-0.764,0.404-1.256,0.404
		c-0.126,0-0.255-0.01-0.382-0.029c-0.476-0.075-0.835-0.276-1.011-0.567c-0.062-0.102-0.029-0.234,0.072-0.295
		c0.103-0.06,0.234-0.029,0.295,0.073c0.106,0.176,0.372,0.312,0.71,0.365c0.493,0.077,1.011-0.033,1.288-0.274
		c0.09-0.079,0.224-0.069,0.304,0.021C37.088,40.459,37.078,40.595,36.989,40.673z M38.537,39.69c-0.02,0-0.038-0.002-0.058-0.008
		c-2.065-0.578-4.639-0.413-5.366-0.018c-0.103,0.056-0.235,0.019-0.292-0.086c-0.057-0.104-0.018-0.235,0.087-0.292
		c0.887-0.482,3.624-0.596,5.687-0.018c0.114,0.032,0.182,0.15,0.149,0.265C38.718,39.628,38.631,39.69,38.537,39.69z M38.41,32.579
		c1.325-0.028,2.764,0.668,3.05,2.081c0.019,0.094-0.026,0.188-0.111,0.233c-0.662,0.348-1.674,0.62-2.721,0.62
		c-0.923,0-1.873-0.211-2.634-0.769c-0.064-0.047-0.098-0.125-0.086-0.205C36.076,33.385,37.059,32.616,38.41,32.579z
		 M35.072,34.546c0.013,0.073-0.013,0.148-0.067,0.198c-0.609,0.554-1.397,0.764-2.177,0.764c-0.899,0-1.787-0.281-2.377-0.637
		c-0.071-0.043-0.111-0.125-0.103-0.208c0.151-1.372,1.295-2.035,2.293-2.07C33.662,32.553,34.815,33.147,35.072,34.546z"/>
	<path d="M38.628,35.512c1.047,0,2.059-0.272,2.721-0.62c0.085-0.044,0.13-0.139,0.111-0.233c-0.286-1.413-1.725-2.108-3.05-2.081
		c-1.352,0.037-2.334,0.806-2.502,1.959c-0.012,0.079,0.021,0.158,0.086,0.205C36.755,35.301,37.705,35.512,38.628,35.512z
		 M38.422,33.009c1.056-0.053,2.262,0.502,2.577,1.577c-1.134,0.526-3.243,0.817-4.643-0.114
		C36.578,33.432,37.556,33.033,38.422,33.009z"/>
	<path d="M30.349,34.664c-0.009,0.083,0.031,0.164,0.103,0.208c0.59,0.356,1.478,0.637,2.377,0.637c0.779,0,1.567-0.21,2.177-0.764
		c0.055-0.05,0.08-0.125,0.067-0.198c-0.257-1.399-1.41-1.993-2.431-1.953C31.643,32.629,30.5,33.292,30.349,34.664z M32.656,33.023
		c0.759-0.014,1.703,0.348,1.968,1.482c-1.1,0.894-2.863,0.591-3.828,0.068C30.976,33.543,31.846,33.052,32.656,33.023z"/>
	<path d="M39.749,34.087c0-0.322-0.263-0.584-0.585-0.584s-0.584,0.262-0.584,0.584s0.262,0.584,0.584,0.584
		S39.749,34.41,39.749,34.087z M39.01,34.087c0-0.085,0.069-0.154,0.154-0.154c0.086,0,0.155,0.069,0.155,0.154
		c0,0.085-0.069,0.155-0.155,0.155C39.079,34.242,39.01,34.173,39.01,34.087z"/>
	<path d="M33.184,34.672c0.323,0,0.586-0.262,0.586-0.584s-0.263-0.584-0.586-0.584c-0.321,0-0.583,0.262-0.583,0.584
		S32.862,34.672,33.184,34.672z M33.184,33.933c0.086,0,0.156,0.069,0.156,0.154c0,0.085-0.07,0.155-0.156,0.155
		c-0.084,0-0.153-0.069-0.153-0.155C33.03,34.002,33.1,33.933,33.184,33.933z"/>
	<path class="st1" d="M36.592,48.463v1.258h0.001h1.22c-0.032-0.202-0.054-0.411-0.054-0.63c0-0.219,0.022-0.427,0.053-0.628h-1.22
		H36.592z"/>
	<path class="st0" d="M25.723,43.295c0.052-0.002,0.098-0.012,0.15-0.013v-4.8c-0.024-0.016-0.052-0.021-0.075-0.039
		c-0.023,0.018-0.051,0.024-0.075,0.04V43.295z"/>
	<path class="st0" d="M25.897,50.154c1.948,0,3.258-1.294,3.258-3.221c0-0.607-0.143-1.141-0.381-1.602
		c-0.094-0.182-0.206-0.349-0.33-0.503c-0.033-0.041-0.064-0.083-0.099-0.122c-0.141-0.155-0.298-0.292-0.469-0.412
		c-0.025-0.017-0.045-0.039-0.07-0.056c-0.422-0.277-0.928-0.451-1.498-0.507c-0.051-0.006-0.098-0.009-0.141-0.009
		c-0.202,0.001-0.439,0.05-0.492,0.278c-0.047,0.202,0.065,0.424,0.195,0.489c0.376,0.185,0.886,0.556,1.183,1.276
		c0.021,0.054,0.021,0.114-0.002,0.167c-0.185,0.427-0.092,1.001,0.22,1.365c0.258,0.3,0.618,0.41,1.018,0.305
		c0.119-0.03,0.232,0.039,0.263,0.154s-0.039,0.232-0.153,0.262c-0.135,0.035-0.269,0.053-0.398,0.053
		c-0.406,0-0.777-0.17-1.055-0.493c-0.398-0.465-0.525-1.161-0.323-1.727c-0.249-0.545-0.646-0.831-0.94-0.977
		c-0.321-0.158-0.512-0.594-0.425-0.971c0.011-0.049,0.037-0.087,0.056-0.131c-1.922,0.305-2.247,2.062-2.247,3.159
		C23.064,48.136,23.433,50.154,25.897,50.154z"/>
	<path class="st2" d="M39.32,52.384c0-0.544-0.478-1.127-1.346-0.729c0.415,0.656,0.294,1.714-0.43,2.023
		C38.506,53.999,39.32,52.928,39.32,52.384z"/>
	<path class="st2" d="M41.483,53.678c-0.723-0.309-0.844-1.367-0.43-2.023c-0.868-0.398-1.346,0.186-1.346,0.729
		C39.707,52.928,40.522,53.999,41.483,53.678z"/>
	<path class="st0" d="M34.466,49.057c0-0.481-0.389-0.87-0.871-0.87c-0.48,0-0.869,0.39-0.869,0.87c0,0.481,0.389,0.87,0.869,0.87
		C34.077,49.927,34.466,49.538,34.466,49.057z"/>
	<path class="st0" d="M33.98,51.513c0-0.481-0.389-0.871-0.87-0.871c-0.48,0-0.87,0.39-0.87,0.871c0,0.481,0.39,0.871,0.87,0.871
		C33.591,52.384,33.98,51.995,33.98,51.513z"/>
	<path class="st0" d="M31.625,52.807c-0.48,0-0.87,0.391-0.87,0.871c0,0.482,0.39,0.871,0.87,0.871s0.87-0.39,0.87-0.871
		C32.496,53.198,32.106,52.807,31.625,52.807z"/>
	<path class="st0" d="M30.486,55.461c0-0.48-0.389-0.871-0.87-0.871c-0.48,0-0.87,0.391-0.87,0.871c0,0.481,0.39,0.871,0.87,0.871
		C30.097,56.333,30.486,55.942,30.486,55.461z"/>
	<path class="st0" d="M27.225,55.754c-0.105,0-0.202,0.026-0.296,0.06c0.304,0.055,0.605,0.114,0.893,0.184
		C27.666,55.848,27.457,55.754,27.225,55.754z"/>
	<path class="st1" d="M42.437,49.721v-1.258h-0.001h-1.221c0.032,0.202,0.053,0.41,0.053,0.628c0,0.219-0.022,0.427-0.054,0.63
		h1.222H42.437z"/>
	<path class="st2" d="M39.515,46.886c-0.718,0-1.325,1.01-1.325,2.206c0,1.196,0.607,2.207,1.325,2.207
		c0.717,0,1.323-1.011,1.323-2.207C40.838,47.896,40.231,46.886,39.515,46.886z M38.533,49.092c0-0.796,0.431-1.419,0.981-1.419
		c0.55,0,0.979,0.624,0.979,1.419c0,0.796-0.43,1.42-0.979,1.42C38.964,50.512,38.533,49.888,38.533,49.092z"/>
	<path class="st2" d="M39.515,50.083c0.26,0,0.55-0.407,0.55-0.991c0-0.583-0.29-0.99-0.55-0.99c-0.261,0-0.552,0.407-0.552,0.99
		C38.963,49.676,39.254,50.083,39.515,50.083z"/>
	<path d="M40.494,49.092c0-0.796-0.43-1.419-0.979-1.419c-0.551,0-0.981,0.624-0.981,1.419c0,0.796,0.431,1.42,0.981,1.42
		C40.064,50.512,40.494,49.888,40.494,49.092z M38.963,49.092c0-0.583,0.291-0.99,0.552-0.99c0.26,0,0.55,0.407,0.55,0.99
		c0,0.584-0.29,0.991-0.55,0.991C39.254,50.083,38.963,49.676,38.963,49.092z"/>
	<path d="M56.78,21.116h-9.783h-7.354H22.247c-0.119,0-0.215,0.096-0.215,0.215v24.35v1.031v3.658v1.396v0.733v0.006v2.676v0.922
		v2.893v17.859c0,0.119,0.096,0.215,0.215,0.215h9.783h7.354H56.78c0.119,0,0.215-0.096,0.215-0.215V52.505v-1.032v-3.657v-1.397
		v-0.733v-0.004v-2.677v-0.921v-2.894V21.331C56.995,21.212,56.899,21.116,56.78,21.116z M32.097,76.639
		c-1.123-0.78-1.867-1.833-2.275-3.214c-0.145-0.492-0.268-1.078-0.398-1.699c-0.36-1.711-0.805-3.805-2.022-5.438
		c0.198,0.185,0.46,0.304,0.752,0.304c0.608,0,1.103-0.494,1.103-1.102c0-0.608-0.494-1.103-1.103-1.103s-1.104,0.495-1.104,1.103
		c0,0.234,0.09,0.44,0.215,0.619c-0.241-0.302-0.512-0.586-0.816-0.847c0.373-0.177,0.636-0.551,0.636-0.991
		c0-0.232-0.08-0.448-0.21-0.631l0.274-0.065c4.327,2.174,11.504,9.784,13.262,12.399l-1.087,0.665H32.097z M56.565,42.181v0.512
		c-3.772-1.444-7.175-3.63-10.988-7.055c-2.868-2.573-7.771-7.848-9.85-11.66l1.177-0.72c2.141,3.487,7.294,8.025,10.395,10.756
		l0.477,0.42c3.376,2.978,6.456,4.196,8.79,4.914V42.181z M53.739,54.918c1.655,0.236,2.479,1.499,2.513,3.848
		C55.062,58.236,53.818,57.28,53.739,54.918z M55.061,62.162c0.462,0.463,0.462,1.217,0,1.68c-0.464,0.463-1.217,0.461-1.679,0
		c-0.042-0.042-0.098-0.063-0.152-0.063s-0.11,0.021-0.152,0.063c-0.462,0.462-1.215,0.463-1.679,0c-0.462-0.463-0.462-1.217,0-1.68
		c0.084-0.084,0.084-0.22,0-0.304c-0.463-0.463-0.463-1.216,0-1.679c0.463-0.464,1.217-0.462,1.678,0
		c0.084,0.084,0.22,0.084,0.304,0c0.466-0.463,1.219-0.462,1.681,0c0.463,0.463,0.463,1.216,0,1.679
		C54.977,61.942,54.977,62.078,55.061,62.162z M43.283,73.317c-1.009-1.677-2.475-3.597-4.078-5.458
		c1.396,0.17,3.077,0.821,3.849,2.857c0.028,0.075,0.097,0.128,0.177,0.138c0.076,0.006,0.158-0.028,0.203-0.094
		c1.305-1.945,2.407-2.796,4.582-3.484C47.432,71.201,45.104,72.725,43.283,73.317z M42.123,74.926
		c-2.14-3.486-7.292-8.024-10.393-10.755l-0.478-0.421c-3.374-2.975-6.455-4.195-8.791-4.914v-2.832v-0.512
		c3.771,1.445,7.174,3.63,10.989,7.054c2.867,2.573,7.769,7.848,9.85,11.66L42.123,74.926z M25.289,43.267
		c-1.654-0.236-2.479-1.499-2.513-3.848C23.966,39.949,25.21,40.905,25.289,43.267z M23.967,36.022
		c-0.225-0.224-0.349-0.521-0.349-0.838s0.124-0.615,0.348-0.839c0.232-0.231,0.537-0.347,0.841-0.347s0.608,0.115,0.839,0.346
		c0.084,0.083,0.221,0.083,0.305,0c0.463-0.462,1.215-0.461,1.678,0c0.225,0.225,0.349,0.523,0.349,0.84
		c0,0.317-0.124,0.615-0.349,0.839c-0.04,0.041-0.063,0.095-0.063,0.152s0.022,0.112,0.063,0.152
		c0.225,0.224,0.349,0.522,0.349,0.839s-0.124,0.616-0.349,0.84c-0.463,0.462-1.215,0.462-1.678,0c-0.084-0.083-0.221-0.083-0.305,0
		c-0.461,0.463-1.216,0.462-1.679,0c-0.225-0.225-0.349-0.523-0.349-0.84s0.124-0.616,0.349-0.839
		c0.04-0.041,0.063-0.095,0.063-0.152S24.007,36.062,23.967,36.022z M35.746,24.867c0.694,1.154,1.601,2.422,2.625,3.708
		c0.465,0.584,0.954,1.172,1.455,1.753c-1.396-0.169-3.078-0.822-3.85-2.861c-0.028-0.075-0.097-0.128-0.177-0.137
		c-0.081-0.012-0.158,0.027-0.203,0.093c-1.308,1.947-2.41,2.798-4.583,3.485C31.596,26.983,33.925,25.459,35.746,24.867z
		 M49.197,62.594c-0.009-0.901-0.131-1.805-0.38-2.669c0.831-0.22,1.63-0.512,2.377-0.897c-0.074,0.413-0.183,0.807-0.325,1.178
		c-0.069,0.117-0.121,0.235-0.158,0.362C50.341,61.373,49.818,62.057,49.197,62.594z M29.831,35.591
		c0.009,0.901,0.131,1.805,0.38,2.669c-0.831,0.22-1.63,0.512-2.377,0.898c0.068-0.38,0.169-0.743,0.295-1.087
		c0.118-0.175,0.201-0.37,0.243-0.577C28.738,36.741,29.241,36.1,29.831,35.591z M46.49,37.003c0.004,0.003,0.009,0.005,0.013,0.008
		c2.675,2.268,5.191,3.934,7.819,5.18c-7.602-0.4-11.041-5.331-12.157-9.285c0.577,0.604,1.151,1.185,1.709,1.727
		c-0.032-0.001-0.063-0.012-0.094,0.002c-0.108,0.048-0.158,0.174-0.111,0.283c0.64,1.466,2.611,3.699,4.681,4.75
		c0.031,0.016,0.064,0.023,0.098,0.023c0.078,0,0.154-0.043,0.191-0.118c0.054-0.106,0.012-0.235-0.094-0.289
		c-1.925-0.976-3.747-3.005-4.412-4.403c0.397,0.38,0.786,0.744,1.158,1.078c0.053,0.047,0.104,0.089,0.156,0.135
		C45.796,36.406,46.144,36.71,46.49,37.003z M56.565,47.649c-0.53,0.141-1.017,0.315-1.476,0.509
		c-0.515-0.364-1.172-0.557-1.958-0.557c-0.811,0-1.529,0.21-2.112,0.584c1.279-1.194,3.187-2.084,5.54-2.473L56.565,47.649z
		 M43.561,55.243c-0.18-0.031-0.357-0.041-0.536-0.063c-1.03-1.746-1.419-3.384-1.549-4.131c-0.011-0.063,0.007-0.127,0.047-0.175
		c0.041-0.049,0.102-0.077,0.165-0.077h2.187c0.019-0.009,0.037-0.014,0.058-0.017c0.108-0.009,0.21,0.041,0.234,0.147
		c0.206,0.895,1.192,3.96,5.213,5.954h0.664c-0.04,0.139-0.081,0.278-0.112,0.43c-0.107,0.525-0.162,1.114-0.152,1.782
		c0,0.032,0.029,0.051,0.043,0.079c-0.365,0.138-0.743,0.249-1.126,0.349c-0.152-0.439-0.331-0.868-0.565-1.27
		c-0.95-1.626-2.467-2.636-4.507-3.001C43.604,55.246,43.583,55.246,43.561,55.243z M36.864,65.28
		c-0.572-0.6-1.141-1.175-1.695-1.713c0.027-0.001,0.055-0.005,0.08-0.017c0.109-0.047,0.158-0.174,0.111-0.283
		c-0.643-1.468-2.614-3.701-4.681-4.75c-0.104-0.053-0.236-0.012-0.289,0.095c-0.054,0.106-0.012,0.235,0.094,0.289
		c1.922,0.975,3.745,3.005,4.412,4.404c-0.397-0.381-0.786-0.745-1.159-1.079c-0.405-0.362-0.803-0.707-1.199-1.044
		c-0.005-0.004-0.011-0.006-0.016-0.01c-2.675-2.266-5.19-3.932-7.817-5.177C32.308,56.395,35.748,61.326,36.864,65.28z
		 M35.468,42.943c0.182,0.032,0.362,0.051,0.542,0.073c1.024,1.742,1.411,3.374,1.54,4.12c0.011,0.063-0.007,0.126-0.048,0.175
		c-0.04,0.048-0.101,0.076-0.164,0.076h-2.187c-0.019,0.009-0.037,0.014-0.058,0.017c-0.106,0.014-0.209-0.04-0.234-0.147
		c-0.206-0.895-1.192-3.96-5.211-5.954h-0.664c0.04-0.139,0.081-0.278,0.112-0.43c0.107-0.525,0.162-1.113,0.152-1.781
		c0-0.032-0.03-0.052-0.043-0.08c0.365-0.138,0.743-0.249,1.125-0.349c0.152,0.439,0.331,0.868,0.565,1.27
		c0.95,1.626,2.467,2.636,4.508,3.001C35.426,42.938,35.447,42.939,35.468,42.943z M47.44,48.84
		c-0.016,0.15-0.024,0.299-0.026,0.447c1.279-0.312,2.357-0.792,3.245-1.377c-0.993,0.945-1.61,2.076-1.759,3.316l-1.009,0.271
		l-0.424,0.114c-0.319-0.697-0.488-1.446-0.488-2.232c0-2.522,1.84-5.454,5.881-6.891c0.346,0.047,0.697,0.087,1.062,0.113
		c-0.116,0.032-0.229,0.066-0.342,0.1C53.517,44.758,51.656,47.762,47.44,48.84z M53.717,54.411c0.019-0.043,0.045-0.082,0.056-0.13
		c0.087-0.377-0.104-0.813-0.426-0.971c-0.294-0.145-0.689-0.431-0.94-0.977c0.203-0.565,0.077-1.261-0.321-1.726
		c-0.365-0.427-0.898-0.586-1.454-0.441c-0.114,0.03-0.184,0.147-0.153,0.263c0.029,0.114,0.144,0.184,0.263,0.153
		c0.394-0.104,0.76,0.003,1.018,0.305c0.313,0.364,0.404,0.938,0.219,1.364c-0.023,0.053-0.023,0.114-0.001,0.168
		c0.236,0.57,0.645,1.012,1.182,1.276c0.131,0.064,0.242,0.287,0.196,0.489c-0.053,0.228-0.29,0.277-0.493,0.278
		c-0.042,0-0.089-0.004-0.141-0.009c-0.569-0.055-1.074-0.23-1.496-0.506c-0.027-0.018-0.048-0.041-0.075-0.06
		c-0.169-0.119-0.326-0.254-0.465-0.408c-0.036-0.039-0.068-0.083-0.102-0.125c-0.123-0.152-0.233-0.317-0.327-0.497
		c-0.24-0.461-0.384-0.997-0.384-1.606c0-1.927,1.31-3.222,3.258-3.222c2.465,0,2.833,2.019,2.833,3.222
		C55.964,52.35,55.639,54.106,53.717,54.411z M52.727,57.312v0.207c-0.253,0.198-0.508,0.39-0.776,0.564
		c0.215-0.224,0.417-0.471,0.588-0.771c0.071-0.125,0.127-0.273,0.188-0.413V57.312z M48.114,52.694l0.452-0.121l1.024-0.275
		c0.059,0.225,0.135,0.439,0.232,0.64c0.003,0.013-0.004,0.026,0.002,0.039c0.024,0.049,0.061,0.085,0.087,0.133
		c0.086,0.157,0.183,0.305,0.291,0.445c0.067,0.088,0.133,0.175,0.208,0.255c0.1,0.105,0.212,0.196,0.326,0.287
		c0.142,0.115,0.291,0.219,0.452,0.31c0.156,0.089,0.315,0.174,0.488,0.24c0.066,0.025,0.134,0.045,0.203,0.066
		c-0.099,0.039-0.204,0.071-0.297,0.119c-0.151,0.078-0.284,0.177-0.416,0.279C49.863,54.468,48.829,53.647,48.114,52.694z
		 M31.587,49.345c0.016-0.15,0.024-0.299,0.026-0.447c-1.278,0.312-2.355,0.792-3.244,1.376c0.993-0.944,1.609-2.075,1.758-3.315
		l1.009-0.271c-0.178-0.375-0.404-0.735-0.675-1.076l-1.023,0.275c-0.059-0.226-0.136-0.44-0.233-0.641
		c-0.003-0.013,0.004-0.025-0.002-0.037c-0.023-0.047-0.059-0.082-0.084-0.128c-0.088-0.16-0.186-0.311-0.296-0.452
		c-0.066-0.086-0.131-0.171-0.204-0.249c-0.103-0.108-0.219-0.202-0.336-0.296c-0.127-0.103-0.258-0.199-0.401-0.282
		c-0.17-0.099-0.345-0.191-0.534-0.263c-0.065-0.024-0.133-0.043-0.2-0.064c0.1-0.039,0.205-0.071,0.298-0.119
		c0.151-0.078,0.284-0.177,0.416-0.279c2.644,1.301,4.185,3.342,4.185,5.73c0,2.518-1.834,5.445-5.864,6.886
		c-0.348-0.047-0.708-0.082-1.075-0.108c0.115-0.032,0.226-0.065,0.338-0.099C25.51,53.427,27.371,50.422,31.587,49.345z
		 M23.064,46.933c0-1.097,0.325-2.854,2.247-3.159c-0.019,0.044-0.045,0.082-0.056,0.131c-0.087,0.377,0.104,0.813,0.425,0.971
		c0.295,0.146,0.691,0.432,0.94,0.977c-0.202,0.565-0.075,1.262,0.323,1.727c0.277,0.323,0.648,0.493,1.055,0.493
		c0.13,0,0.264-0.018,0.398-0.053c0.114-0.03,0.184-0.147,0.153-0.262s-0.144-0.184-0.263-0.154
		c-0.399,0.105-0.76-0.004-1.018-0.305c-0.312-0.363-0.404-0.938-0.22-1.365c0.023-0.053,0.023-0.114,0.002-0.167
		c-0.297-0.72-0.807-1.091-1.183-1.276c-0.13-0.064-0.242-0.287-0.195-0.489c0.053-0.229,0.29-0.277,0.492-0.278
		c0.043,0,0.09,0.003,0.141,0.009c0.571,0.056,1.076,0.23,1.498,0.507c0.025,0.016,0.045,0.039,0.07,0.056
		c0.171,0.12,0.329,0.257,0.469,0.412c0.035,0.039,0.066,0.081,0.099,0.122c0.125,0.154,0.236,0.321,0.33,0.503
		c0.239,0.461,0.381,0.995,0.381,1.602c0,1.927-1.31,3.221-3.258,3.221C23.433,50.154,23.064,48.136,23.064,46.933z M26.303,40.874
		v-0.208c0.253-0.198,0.509-0.391,0.777-0.565c-0.215,0.224-0.418,0.472-0.59,0.773c-0.071,0.125-0.127,0.272-0.188,0.412V40.874z
		 M28.819,39.419c-0.034,2.349-0.858,3.611-2.513,3.848C26.386,40.905,27.63,39.949,28.819,39.419z M29.674,47.08
		c-0.033,0.208-0.095,0.409-0.157,0.609c0.034-0.186,0.044-0.383,0.052-0.581L29.674,47.08z M32.496,53.678
		c0,0.482-0.39,0.871-0.87,0.871s-0.87-0.39-0.87-0.871c0-0.48,0.39-0.871,0.87-0.871S32.496,53.198,32.496,53.678z M26.929,55.814
		c0.093-0.034,0.191-0.06,0.296-0.06c0.233,0,0.441,0.095,0.597,0.244C27.534,55.927,27.233,55.869,26.929,55.814z M28.745,55.461
		c0-0.48,0.39-0.871,0.87-0.871c0.481,0,0.87,0.391,0.87,0.871c0,0.481-0.389,0.871-0.87,0.871
		C29.135,56.333,28.745,55.942,28.745,55.461z M32.239,51.513c0-0.481,0.39-0.871,0.87-0.871c0.481,0,0.87,0.39,0.87,0.871
		c0,0.481-0.389,0.871-0.87,0.871C32.629,52.384,32.239,51.995,32.239,51.513z M33.594,49.927c-0.48,0-0.869-0.389-0.869-0.87
		c0-0.481,0.389-0.87,0.869-0.87c0.482,0,0.871,0.39,0.871,0.87C34.466,49.538,34.077,49.927,33.594,49.927z M32.661,58.271
		c-0.669-0.51-1.415-0.968-2.246-1.359c-0.161-0.076-0.325-0.15-0.492-0.22c2.958-1.567,4.49-3.866,4.938-5.797
		c0.023-0.106,0.122-0.181,0.233-0.165c0.052,0.006,0.099,0.03,0.132,0.066h2.112c0.063,0,0.124,0.028,0.164,0.076
		c0.041,0.049,0.059,0.113,0.048,0.175c-0.214,1.239-1.122,4.92-4.526,7.494C32.91,58.448,32.781,58.363,32.661,58.271z
		 M41.053,46.529c-0.868,0.398-1.346-0.185-1.346-0.729c0-0.543,0.814-1.615,1.776-1.293C40.76,44.815,40.639,45.875,41.053,46.529z
		 M40.838,49.092c0,1.196-0.606,2.207-1.323,2.207c-0.718,0-1.325-1.011-1.325-2.207c0-1.196,0.607-2.206,1.325-2.206
		C40.231,46.886,40.838,47.896,40.838,49.092z M37.974,46.529c0.415-0.655,0.294-1.714-0.43-2.022
		c0.962-0.322,1.776,0.75,1.776,1.293C39.32,46.344,38.842,46.927,37.974,46.529z M37.813,48.463
		c-0.032,0.202-0.053,0.41-0.053,0.628c0,0.219,0.022,0.427,0.054,0.63h-1.22h-0.001v-1.258h0.001H37.813z M37.974,51.655
		c0.868-0.398,1.346,0.186,1.346,0.729c0,0.544-0.814,1.615-1.776,1.294C38.269,53.369,38.39,52.311,37.974,51.655z M41.053,51.655
		c-0.414,0.656-0.293,1.714,0.43,2.023c-0.962,0.321-1.776-0.75-1.776-1.294C39.707,51.841,40.185,51.257,41.053,51.655z
		 M41.214,49.721c0.032-0.202,0.054-0.411,0.054-0.63c0-0.219-0.021-0.427-0.053-0.628h1.221h0.001v1.258h-0.001H41.214z
		 M41.687,47.388c-0.063,0-0.124-0.028-0.165-0.077c-0.04-0.048-0.058-0.112-0.047-0.175c0.216-1.24,1.129-4.928,4.538-7.502
		c0.115,0.095,0.233,0.187,0.353,0.279c0.669,0.51,1.417,0.967,2.247,1.359c0.16,0.075,0.312,0.158,0.478,0.228
		c-2.95,1.567-4.478,3.862-4.925,5.79c-0.024,0.106-0.129,0.179-0.233,0.165c-0.053-0.006-0.099-0.03-0.133-0.066H41.687z
		 M52.077,42.375c-0.087,0.029-0.176,0.055-0.274,0.055c-0.242,0-0.46-0.099-0.617-0.258C51.479,42.245,51.769,42.318,52.077,42.375
		z M50.21,58.766c0.033-2.349,0.857-3.612,2.513-3.848C52.643,57.279,51.399,58.235,50.21,58.766z M49.354,51.104
		c0.033-0.208,0.095-0.409,0.158-0.61c-0.034,0.186-0.044,0.383-0.052,0.581L49.354,51.104z M46.788,46.671
		c0,0.481-0.39,0.871-0.869,0.871c-0.483,0-0.873-0.391-0.873-0.871c0-0.48,0.39-0.871,0.873-0.871
		C46.398,45.8,46.788,46.191,46.788,46.671z M47.402,45.377c-0.48,0-0.87-0.391-0.87-0.87c0-0.481,0.39-0.872,0.87-0.872
		c0.481,0,0.871,0.391,0.871,0.872C48.274,44.987,47.883,45.377,47.402,45.377z M48.542,42.723c0-0.481,0.39-0.87,0.87-0.87
		c0.481,0,0.871,0.39,0.871,0.87c0,0.481-0.39,0.871-0.871,0.871C48.932,43.594,48.542,43.204,48.542,42.723z M45.433,48.256
		c0.48,0,0.87,0.39,0.87,0.871c0,0.481-0.39,0.87-0.87,0.87c-0.481,0-0.871-0.389-0.871-0.87
		C44.562,48.646,44.952,48.256,45.433,48.256z M49.54,50.382c0.021-0.063,0.031-0.13,0.055-0.192
		C49.578,50.255,49.554,50.316,49.54,50.382z M29.486,47.81c-0.021,0.06-0.029,0.124-0.053,0.184
		C29.45,47.932,29.472,47.874,29.486,47.81z M27.211,51.182c-1.493,1.398-2.188,3.082-2.199,4.392
		c-0.226-0.015-0.458-0.022-0.692-0.029c-0.636-0.797-1.191-1.69-1.655-2.675C24.447,52.56,25.993,51.975,27.211,51.182z
		 M51.815,47.004c1.496-1.4,2.19-3.088,2.2-4.399c0.226,0.015,0.457,0.024,0.69,0.032c0.636,0.798,1.193,1.691,1.657,2.678
		C54.58,45.625,53.033,46.211,51.815,47.004z M24.55,43.515c-1.123,0.433-1.778,1.47-1.886,2.982h-0.202v-0.772
		c0.4-0.923,0.879-1.771,1.425-2.54C24.089,43.319,24.309,43.431,24.55,43.515z M22.462,51.509v-0.973
		c0.53-0.141,1.018-0.315,1.477-0.509c0.515,0.364,1.173,0.557,1.958,0.557c0.81,0,1.529-0.21,2.112-0.584
		c-1.279,1.194-3.187,2.083-5.54,2.473l-0.007-0.014c0,0,0-0.001-0.001-0.003V51.509z M54.478,54.67
		c1.124-0.433,1.778-1.47,1.886-2.983h0.201v0.773c-0.4,0.923-0.878,1.77-1.424,2.539C54.94,54.865,54.72,54.754,54.478,54.67z
		 M30.91,31.443c1.029-0.396,2.853-0.566,3.92,0.411c-0.253-0.662-0.956-1.189-1.734-1.349c1.029-0.577,1.805-1.34,2.632-2.514
		c0.643,1.38,1.742,2.161,2.955,2.541c-0.858,0.181-1.624,0.686-1.914,1.318c1.045-0.811,2.684-0.82,3.892-0.569
		c0.297,0.332,0.597,0.66,0.897,0.983c0.434,1.989,1.441,4.33,3.281,6.289c-0.199,0.34-0.422,0.668-0.672,0.98
		c-1.985,2.484-5.231,3.596-8.688,2.979c-1.911-0.342-3.329-1.283-4.213-2.795C29.797,37.202,30.148,33.731,30.91,31.443z
		 M25.798,38.444c0.023,0.018,0.052,0.022,0.075,0.039v4.8c-0.053,0-0.099,0.011-0.15,0.013v-4.811
		C25.746,38.468,25.775,38.462,25.798,38.444z M23.769,55.543c-0.014,0-0.027,0-0.041,0c-0.417-0.18-0.84-0.347-1.266-0.508v-1.608
		C22.846,54.187,23.28,54.896,23.769,55.543z M48.119,66.741c-1.028,0.397-2.853,0.567-3.921-0.41
		c0.253,0.662,0.956,1.189,1.733,1.349c-1.029,0.578-1.805,1.34-2.631,2.514c-0.643-1.379-1.743-2.16-2.958-2.54
		c0.859-0.181,1.627-0.686,1.917-1.319c-1.045,0.811-2.685,0.82-3.892,0.57c-0.297-0.332-0.596-0.659-0.896-0.982
		c-0.434-1.989-1.448-4.324-3.286-6.284c0.199-0.341,0.423-0.671,0.674-0.986c1.625-2.032,4.095-3.147,6.831-3.147
		c0.608,0,1.23,0.055,1.858,0.167c1.911,0.342,3.328,1.283,4.212,2.795C49.231,60.983,48.88,64.453,48.119,66.741z M53.229,59.741
		c-0.022-0.017-0.05-0.022-0.073-0.038v-4.801c0.052,0,0.098-0.011,0.149-0.013v4.812C53.282,59.718,53.253,59.723,53.229,59.741z
		 M55.276,42.663c0.009,0,0.016,0.001,0.025,0.001c0.017,0,0.035-0.001,0.052-0.001c0.4,0.171,0.804,0.333,1.213,0.487v1.609
		C56.186,44.006,55.758,43.304,55.276,42.663z M50.877,31.592c-0.608,0-1.104,0.495-1.104,1.103c0,0.608,0.495,1.103,1.104,1.103
		c0.607,0,1.102-0.495,1.102-1.103c0-0.238-0.092-0.447-0.221-0.628c0.243,0.305,0.516,0.592,0.822,0.855
		c-0.374,0.177-0.637,0.551-0.637,0.991c0,0.232,0.079,0.448,0.209,0.631l-0.273,0.065c-4.328-2.176-11.504-9.783-13.263-12.398
		l1.088-0.666h7.227c1.123,0.779,1.867,1.831,2.275,3.215c0.145,0.492,0.269,1.079,0.399,1.7c0.36,1.711,0.806,3.804,2.023,5.436
		C51.431,31.711,51.169,31.592,50.877,31.592z M54.147,33.899c0.082,0.036,0.159,0.077,0.245,0.11l-0.265,0.063
		c0.008-0.053,0.022-0.105,0.022-0.159C54.148,33.908,54.147,33.904,54.147,33.899z M23.538,42.932
		c-0.4,0.563-0.751,1.182-1.076,1.826v-4.124C22.628,41.64,22.979,42.417,23.538,42.932z M24.882,64.285
		c-0.083-0.036-0.16-0.077-0.247-0.111l0.267-0.064c-0.008,0.054-0.022,0.106-0.022,0.161
		C24.881,64.276,24.882,64.281,24.882,64.285z M55.49,55.252c0.4-0.563,0.75-1.181,1.075-1.825v4.114
		C56.399,56.539,56.048,55.766,55.49,55.252z M56.565,38.895c-1.853-0.577-4.166-1.495-6.718-3.359l2.051-0.49c0,0,0,0,0,0
		l0.725-0.173c0,0,0.001,0,0.001,0l1.228-0.292c0.001,0,0.001-0.001,0.001-0.001l1.375-0.328c0.096-0.022,0.163-0.107,0.165-0.206
		s-0.063-0.185-0.158-0.211c-0.476-0.13-0.905-0.299-1.292-0.5c-0.003-0.001-0.003-0.005-0.006-0.006
		c-0.26-0.136-0.508-0.293-0.741-0.463c-2.123-1.551-2.696-4.238-3.17-6.494c-0.133-0.63-0.258-1.225-0.408-1.733
		c-0.38-1.29-1.055-2.298-2.014-3.093h8.962V38.895z M38.88,21.546l-0.682,0.417c0,0,0,0,0,0l-1.333,0.816c0,0,0,0-0.001,0
		l-1.534,0.939c-0.097,0.06-0.131,0.184-0.078,0.284c0.086,0.162,0.184,0.332,0.28,0.5c-1.728,0.586-3.08,1.748-3.953,3.364
		c-0.178-1.532-1.255-2.609-2.393-3.629c-0.624-0.558-1.451-1.303-1.982-2.085c-0.53,0.782-1.359,1.527-1.981,2.085
		c-1.246,1.115-2.43,2.293-2.43,4.067c0,2.533,3.06,3.368,4.198,1.13c-0.105,0.988-0.563,2.491-1.493,2.85h3.413
		c-0.929-0.359-1.387-1.863-1.493-2.85c0.744,1.463,2.305,1.607,3.3,0.828c-0.062,0.296-0.132,0.586-0.17,0.898
		c-0.162,0.468-0.3,0.997-0.418,1.552c-0.759,0.482-1.415,1.019-1.975,1.605c-0.063-0.099-0.135-0.194-0.22-0.279v0
		c-0.582-0.581-1.501-0.625-2.135-0.134c-0.632-0.491-1.552-0.447-2.136,0.135c-0.306,0.306-0.474,0.712-0.474,1.144
		c0,0.364,0.119,0.708,0.34,0.991c-0.221,0.282-0.34,0.628-0.34,0.992c0,0.432,0.168,0.839,0.475,1.145
		c0.315,0.314,0.729,0.472,1.144,0.472c0.164,0,0.328-0.03,0.486-0.079v2.232v0.019c-0.036,0.033-0.069,0.07-0.104,0.103
		c-0.002-0.003-0.003-0.007-0.004-0.01c-0.623-1.217-1.673-1.805-2.544-2.151c-0.058-0.024-0.124-0.011-0.179,0.019V21.546H38.88z
		 M22.462,59.289c1.854,0.578,4.168,1.497,6.719,3.359l-0.802,0.191l-4.581,1.092c-0.096,0.022-0.163,0.107-0.165,0.206
		s0.063,0.185,0.158,0.211c0.477,0.13,0.905,0.299,1.292,0.5c0.003,0.002,0.004,0.006,0.008,0.008
		c0.26,0.136,0.512,0.294,0.749,0.469c2.116,1.553,2.688,4.236,3.161,6.49c0.133,0.629,0.258,1.224,0.407,1.732
		c0.38,1.289,1.055,2.297,2.015,3.093h-8.962V59.289z M40.148,76.639l3.551-2.172c0.048-0.03,0.081-0.076,0.095-0.127
		c0.014-0.051,0.009-0.107-0.017-0.157c-0.086-0.163-0.184-0.332-0.281-0.501c1.755-0.595,3.122-1.783,3.993-3.438
		c0.177,1.534,1.254,2.612,2.393,3.632c0.623,0.557,1.45,1.302,1.981,2.085c0.532-0.782,1.359-1.527,1.981-2.085
		c1.244-1.115,2.43-2.293,2.43-4.068c0-2.533-3.06-3.368-4.198-1.129c0.105-0.987,0.564-2.491,1.492-2.85h-3.412
		c0.928,0.359,1.388,1.863,1.493,2.85c-0.751-1.479-2.337-1.611-3.33-0.804c0.058-0.281,0.125-0.555,0.162-0.852
		c0.162-0.469,0.301-0.998,0.418-1.553c0.766-0.487,1.428-1.028,1.991-1.621c0.063,0.101,0.115,0.209,0.203,0.297c0,0,0,0,0,0
		c0.315,0.314,0.729,0.472,1.144,0.472c0.351,0,0.701-0.113,0.992-0.338c0.636,0.492,1.555,0.446,2.136-0.134
		c0.581-0.583,0.625-1.502,0.134-2.136c0.492-0.634,0.447-1.553-0.134-2.135c-0.44-0.439-1.073-0.569-1.631-0.394v-2.23v-0.019
		c0.036-0.033,0.069-0.07,0.104-0.103c0.002,0.003,0.003,0.006,0.004,0.009c0.623,1.217,1.673,1.805,2.544,2.152
		c0.025,0.01,0.052,0.015,0.079,0.015c0.035,0,0.068-0.013,0.099-0.03v17.364H40.148z"/>
	<path d="M38.595,39.269c-2.063-0.578-4.8-0.464-5.687,0.018c-0.104,0.057-0.144,0.187-0.087,0.292
		c0.057,0.105,0.189,0.143,0.292,0.086c0.728-0.395,3.301-0.56,5.366,0.018c0.02,0.005,0.038,0.008,0.058,0.008
		c0.094,0,0.181-0.062,0.207-0.157C38.776,39.419,38.709,39.3,38.595,39.269z"/>
	<path d="M36.706,40.349c-0.277,0.242-0.795,0.351-1.288,0.274c-0.338-0.053-0.604-0.189-0.71-0.365
		c-0.061-0.102-0.192-0.132-0.295-0.073c-0.102,0.062-0.134,0.194-0.072,0.295c0.176,0.292,0.535,0.493,1.011,0.567
		c0.127,0.02,0.256,0.029,0.382,0.029c0.492,0,0.959-0.146,1.256-0.404c0.089-0.078,0.099-0.214,0.021-0.303
		C36.93,40.28,36.796,40.27,36.706,40.349z"/>
	<path class="st0" d="M53.306,54.889c-0.051,0.002-0.097,0.012-0.149,0.013v4.801c0.023,0.016,0.051,0.021,0.073,0.038
		c0.023-0.018,0.052-0.023,0.076-0.039V54.889z"/>
	<path class="st0" d="M53.131,48.031c-1.948,0-3.258,1.295-3.258,3.222c0,0.608,0.143,1.144,0.384,1.606
		c0.094,0.18,0.203,0.345,0.327,0.497c0.034,0.042,0.065,0.085,0.102,0.125c0.139,0.153,0.295,0.289,0.465,0.408
		c0.026,0.018,0.048,0.042,0.075,0.06c0.422,0.277,0.927,0.451,1.496,0.506c0.052,0.005,0.099,0.009,0.141,0.009
		c0.203-0.001,0.44-0.05,0.493-0.278c0.046-0.202-0.065-0.424-0.196-0.489c-0.537-0.265-0.945-0.706-1.182-1.276
		c-0.022-0.054-0.022-0.115,0.001-0.168c0.186-0.427,0.094-1-0.219-1.364c-0.258-0.302-0.624-0.41-1.018-0.305
		c-0.119,0.03-0.233-0.04-0.263-0.153c-0.03-0.115,0.039-0.232,0.153-0.263c0.556-0.145,1.089,0.014,1.454,0.441
		c0.398,0.465,0.524,1.161,0.321,1.726c0.251,0.546,0.646,0.832,0.94,0.977c0.321,0.158,0.513,0.594,0.426,0.971
		c-0.011,0.048-0.037,0.087-0.056,0.13c1.921-0.305,2.247-2.061,2.247-3.158C55.964,50.05,55.596,48.031,53.131,48.031z"/>
	<path class="st0" d="M44.132,34.881c0.665,1.398,2.487,3.427,4.412,4.403c0.105,0.054,0.147,0.183,0.094,0.289
		c-0.037,0.075-0.113,0.118-0.191,0.118c-0.033,0-0.066-0.007-0.098-0.023c-2.069-1.05-4.041-3.283-4.681-4.75
		c-0.047-0.109,0.003-0.235,0.111-0.283c0.031-0.014,0.062-0.004,0.094-0.002c-0.558-0.541-1.132-1.122-1.709-1.727
		c1.116,3.953,4.555,8.884,12.157,9.285c-2.628-1.246-5.144-2.912-7.819-5.18c-0.004-0.003-0.009-0.005-0.013-0.008
		c-0.346-0.293-0.695-0.597-1.044-0.909c-0.053-0.047-0.103-0.088-0.156-0.135C44.918,35.624,44.529,35.261,44.132,34.881z"/>
	<path class="st0" d="M31.013,30.91c2.173-0.688,3.275-1.539,4.583-3.485c0.045-0.066,0.122-0.105,0.203-0.093
		c0.08,0.009,0.148,0.062,0.177,0.137c0.772,2.038,2.454,2.692,3.85,2.861c-0.501-0.582-0.99-1.169-1.455-1.753
		c-1.024-1.287-1.931-2.554-2.625-3.708C33.925,25.459,31.596,26.983,31.013,30.91z M35.318,26.171
		c0.114,0.035,0.178,0.155,0.144,0.268c-0.266,0.869-2.298,2.917-3.398,3.423c-0.029,0.013-0.06,0.02-0.09,0.02
		c-0.081,0-0.159-0.046-0.195-0.125c-0.05-0.108-0.003-0.235,0.105-0.285c0.982-0.452,2.936-2.4,3.166-3.158
		C35.084,26.201,35.204,26.136,35.318,26.171z M32.108,28.165c0.299-0.52,1.208-1.593,1.588-1.945
		C33.784,26.14,33.92,26.144,34,26.23c0.081,0.087,0.076,0.223-0.011,0.304c-0.354,0.328-1.231,1.362-1.508,1.844
		c-0.04,0.069-0.112,0.108-0.187,0.108c-0.036,0-0.073-0.009-0.107-0.028C32.085,28.399,32.05,28.268,32.108,28.165z"/>
	<path class="st2" d="M49.605,26.46c-0.131-0.621-0.255-1.208-0.399-1.7c-0.408-1.384-1.152-2.436-2.275-3.215h-7.227l-1.088,0.666
		c1.759,2.614,8.935,10.222,13.263,12.398l0.273-0.065c-0.13-0.183-0.209-0.399-0.209-0.631c0-0.44,0.263-0.814,0.637-0.991
		c-0.306-0.264-0.579-0.55-0.822-0.855c0.129,0.181,0.221,0.39,0.221,0.628c0,0.608-0.494,1.103-1.102,1.103
		c-0.608,0-1.104-0.495-1.104-1.103c0-0.608,0.495-1.103,1.104-1.103c0.292,0,0.554,0.119,0.751,0.305
		C50.411,30.264,49.965,28.171,49.605,26.46z M40.084,23.251c0-0.608,0.495-1.102,1.104-1.102s1.104,0.494,1.104,1.102
		c0,0.608-0.495,1.103-1.104,1.103S40.084,23.859,40.084,23.251z M42.964,26.592c-0.608,0-1.103-0.495-1.103-1.103
		c0-0.608,0.494-1.103,1.103-1.103s1.104,0.495,1.104,1.103C44.067,26.097,43.572,26.592,42.964,26.592z M44.917,28.486
		c-0.608,0-1.104-0.495-1.104-1.103c0-0.608,0.495-1.103,1.104-1.103c0.607,0,1.102,0.495,1.102,1.103
		C46.018,27.992,45.524,28.486,44.917,28.486z M46.882,30.362c-0.608,0-1.103-0.495-1.103-1.103s0.494-1.103,1.103-1.103
		s1.104,0.495,1.104,1.103S47.49,30.362,46.882,30.362z M48.833,32.205c-0.608,0-1.103-0.495-1.103-1.103
		c0-0.608,0.494-1.103,1.103-1.103c0.607,0,1.102,0.495,1.102,1.103C49.935,31.71,49.44,32.205,48.833,32.205z"/>
	<path class="st2" d="M54.392,34.009c-0.086-0.033-0.162-0.074-0.245-0.11c0,0.005,0.002,0.009,0.002,0.014
		c0,0.055-0.014,0.106-0.022,0.159L54.392,34.009z"/>
	<path class="st1" d="M47.775,34.435l-0.477-0.42c-3.101-2.731-8.254-7.269-10.395-10.756l-1.177,0.72
		c2.079,3.812,6.981,9.086,9.85,11.66c3.813,3.424,7.216,5.61,10.988,7.055v-0.512v-2.833
		C54.231,38.631,51.151,37.412,47.775,34.435z"/>
	<path class="st2" d="M23.618,37.166c0,0.317,0.124,0.616,0.349,0.84c0.463,0.462,1.218,0.462,1.679,0
		c0.084-0.083,0.221-0.083,0.305,0c0.463,0.462,1.215,0.462,1.678,0c0.225-0.224,0.349-0.522,0.349-0.84s-0.124-0.616-0.349-0.839
		c-0.04-0.041-0.063-0.095-0.063-0.152s0.022-0.112,0.063-0.152c0.225-0.224,0.349-0.521,0.349-0.839
		c0-0.317-0.124-0.615-0.349-0.84c-0.463-0.461-1.215-0.461-1.678,0c-0.084,0.083-0.221,0.083-0.305,0
		c-0.23-0.231-0.535-0.346-0.839-0.346s-0.608,0.115-0.841,0.347c-0.224,0.224-0.348,0.522-0.348,0.839s0.124,0.615,0.349,0.838
		c0.04,0.041,0.063,0.095,0.063,0.152s-0.022,0.112-0.063,0.152C23.742,36.55,23.618,36.849,23.618,37.166z M25.798,34.968
		c0.665,0,1.206,0.541,1.206,1.206c0,0.666-0.541,1.207-1.206,1.207c-0.666,0-1.207-0.542-1.207-1.207
		C24.591,35.509,25.132,34.968,25.798,34.968z"/>
	<path class="st0" d="M25.798,36.952c0.428,0,0.776-0.349,0.776-0.777c0-0.428-0.349-0.776-0.776-0.776
		c-0.429,0-0.777,0.348-0.777,0.776C25.02,36.603,25.369,36.952,25.798,36.952z"/>
	<path d="M25.798,37.381c0.665,0,1.206-0.542,1.206-1.207c0-0.665-0.541-1.206-1.206-1.206c-0.666,0-1.207,0.541-1.207,1.206
		C24.591,36.84,25.132,37.381,25.798,37.381z M25.798,35.398c0.428,0,0.776,0.348,0.776,0.776c0,0.429-0.349,0.777-0.776,0.777
		c-0.429,0-0.777-0.349-0.777-0.777C25.02,35.746,25.369,35.398,25.798,35.398z"/>
	<path class="st7" d="M22.776,39.419c0.034,2.349,0.858,3.611,2.513,3.848C25.21,40.905,23.966,39.949,22.776,39.419z"/>
	<path class="st7" d="M26.307,43.267c1.654-0.237,2.479-1.499,2.513-3.848C27.63,39.949,26.386,40.905,26.307,43.267z"/>
	<path d="M42.291,23.251c0-0.608-0.495-1.102-1.104-1.102s-1.104,0.494-1.104,1.102c0,0.608,0.495,1.103,1.104,1.103
		S42.291,23.859,42.291,23.251z"/>
	<path d="M42.964,24.386c-0.608,0-1.103,0.495-1.103,1.103c0,0.608,0.494,1.103,1.103,1.103s1.104-0.495,1.104-1.103
		C44.067,24.881,43.572,24.386,42.964,24.386z"/>
	<path d="M44.917,26.281c-0.608,0-1.104,0.495-1.104,1.103c0,0.608,0.495,1.103,1.104,1.103c0.607,0,1.102-0.495,1.102-1.103
		C46.018,26.775,45.524,26.281,44.917,26.281z"/>
	<path d="M46.882,28.157c-0.608,0-1.103,0.495-1.103,1.103s0.494,1.103,1.103,1.103s1.104-0.495,1.104-1.103
		S47.49,28.157,46.882,28.157z"/>
	<path d="M48.833,29.999c-0.608,0-1.103,0.495-1.103,1.103c0,0.608,0.494,1.103,1.103,1.103c0.607,0,1.102-0.495,1.102-1.103
		C49.935,30.494,49.44,29.999,48.833,29.999z"/>
	<path d="M31.884,29.472c-0.108,0.05-0.155,0.177-0.105,0.285c0.036,0.079,0.114,0.125,0.195,0.125c0.03,0,0.061-0.006,0.09-0.02
		c1.101-0.507,3.133-2.554,3.398-3.423c0.034-0.113-0.029-0.233-0.144-0.268c-0.114-0.036-0.234,0.029-0.269,0.143
		C34.819,27.072,32.866,29.02,31.884,29.472z"/>
	<path d="M32.295,28.486c0.074,0,0.146-0.039,0.187-0.108c0.276-0.481,1.154-1.516,1.508-1.844c0.087-0.081,0.092-0.217,0.011-0.304
		c-0.08-0.087-0.216-0.09-0.304-0.011c-0.38,0.353-1.289,1.425-1.588,1.945c-0.059,0.103-0.023,0.234,0.079,0.293
		C32.222,28.478,32.259,28.486,32.295,28.486z"/>
	<path class="st0" d="M45.844,63.942c-0.085,0-0.154,0.069-0.154,0.155s0.069,0.155,0.154,0.155c0.086,0,0.155-0.069,0.155-0.155
		S45.93,63.942,45.844,63.942z"/>
	<path class="st0" d="M38.029,63.599c0.314,1.074,1.521,1.603,2.577,1.577c0.866-0.024,1.844-0.423,2.065-1.463
		C41.272,62.781,39.164,63.072,38.029,63.599z M40.448,64.097c0,0.322-0.263,0.584-0.585,0.584s-0.584-0.262-0.584-0.584
		c0-0.322,0.262-0.584,0.584-0.584S40.448,63.774,40.448,64.097z"/>
	<path class="st0" d="M39.709,64.097c0,0.085,0.069,0.155,0.154,0.155c0.086,0,0.155-0.069,0.155-0.155s-0.069-0.155-0.155-0.155
		C39.778,63.942,39.709,64.011,39.709,64.097z"/>
	<path class="st0" d="M47.761,58.468c-0.884-1.512-2.301-2.453-4.212-2.795c-0.628-0.112-1.25-0.167-1.858-0.167
		c-2.736,0-5.206,1.115-6.831,3.147c-0.251,0.315-0.475,0.644-0.674,0.986c1.838,1.96,2.852,4.296,3.286,6.284
		c0.3,0.323,0.599,0.65,0.896,0.982c1.207,0.25,2.847,0.242,3.892-0.57c-0.29,0.633-1.058,1.138-1.917,1.319
		c1.215,0.38,2.315,1.161,2.958,2.54c0.826-1.174,1.602-1.936,2.631-2.514c-0.778-0.16-1.481-0.688-1.733-1.349
		c1.068,0.977,2.893,0.807,3.921,0.41C48.88,64.453,49.231,60.983,47.761,58.468z M42.038,57.512
		c0.375-0.325,1.021-0.471,1.64-0.375c0.475,0.074,0.833,0.276,1.009,0.567c0.062,0.102,0.029,0.234-0.072,0.295
		c-0.035,0.021-0.073,0.031-0.111,0.031c-0.072,0-0.144-0.037-0.184-0.104c-0.106-0.176-0.371-0.312-0.708-0.365
		c-0.495-0.078-1.013,0.034-1.29,0.274c-0.091,0.078-0.228,0.068-0.304-0.021C41.939,57.726,41.949,57.589,42.038,57.512z
		 M40.549,58.502c2.066,0.577,4.64,0.412,5.366,0.018c0.105-0.056,0.235-0.019,0.292,0.086c0.057,0.104,0.018,0.235-0.087,0.292
		c-0.472,0.255-1.464,0.407-2.601,0.407c-1.003,0-2.118-0.118-3.086-0.389c-0.114-0.032-0.182-0.15-0.149-0.265
		C40.316,58.537,40.436,58.473,40.549,58.502z M40.618,65.606c-0.031,0-0.063,0.001-0.095,0.001c-1.274,0-2.676-0.703-2.955-2.082
		c-0.019-0.093,0.026-0.188,0.111-0.233c1.245-0.653,3.73-1.041,5.354,0.149c0.064,0.047,0.098,0.125,0.086,0.204
		C42.952,64.799,41.97,65.568,40.618,65.606z M46.297,65.593c-1.001,0-2.091-0.595-2.341-1.954
		c-0.013-0.073,0.013-0.148,0.067-0.198c1.313-1.192,3.454-0.792,4.555-0.128c0.071,0.043,0.111,0.125,0.103,0.208
		c-0.152,1.372-1.296,2.035-2.294,2.071C46.357,65.592,46.327,65.593,46.297,65.593z"/>
	<path class="st0" d="M48.233,63.611c-0.965-0.522-2.729-0.824-3.829,0.069c0.266,1.133,1.23,1.515,1.967,1.481
		C47.183,65.133,48.053,64.642,48.233,63.611z M45.844,64.681c-0.322,0-0.584-0.262-0.584-0.584c0-0.322,0.262-0.584,0.584-0.584
		s0.585,0.262,0.585,0.584C46.429,64.419,46.166,64.681,45.844,64.681z"/>
	<path d="M37.68,63.292c-0.085,0.044-0.13,0.14-0.111,0.233c0.279,1.379,1.681,2.082,2.955,2.082c0.032,0,0.063,0,0.095-0.001
		c1.352-0.038,2.334-0.807,2.502-1.96c0.012-0.079-0.021-0.157-0.086-0.204C41.41,62.251,38.925,62.639,37.68,63.292z
		 M40.606,65.176c-1.056,0.025-2.263-0.503-2.577-1.577c1.135-0.527,3.243-0.817,4.643,0.114
		C42.45,64.752,41.473,65.152,40.606,65.176z"/>
	<path d="M48.681,63.52c0.009-0.083-0.031-0.164-0.103-0.208c-1.101-0.664-3.242-1.064-4.555,0.128
		c-0.055,0.05-0.08,0.125-0.067,0.198c0.25,1.359,1.34,1.954,2.341,1.954c0.03,0,0.061,0,0.09-0.001
		C47.385,65.556,48.528,64.893,48.681,63.52z M46.371,65.162c-0.736,0.034-1.701-0.348-1.967-1.481
		c1.101-0.894,2.864-0.592,3.829-0.069C48.053,64.642,47.183,65.133,46.371,65.162z"/>
	<path d="M39.279,64.097c0,0.322,0.262,0.584,0.584,0.584s0.585-0.262,0.585-0.584c0-0.322-0.263-0.584-0.585-0.584
		S39.279,63.774,39.279,64.097z M40.018,64.097c0,0.085-0.069,0.155-0.155,0.155c-0.085,0-0.154-0.069-0.154-0.155
		s0.069-0.155,0.154-0.155C39.949,63.942,40.018,64.011,40.018,64.097z"/>
	<path d="M45.844,63.512c-0.322,0-0.584,0.262-0.584,0.584c0,0.322,0.262,0.584,0.584,0.584s0.585-0.262,0.585-0.584
		C46.429,63.774,46.166,63.512,45.844,63.512z M45.844,64.251c-0.085,0-0.154-0.069-0.154-0.155s0.069-0.155,0.154-0.155
		c0.086,0,0.155,0.069,0.155,0.155S45.93,64.251,45.844,64.251z"/>
	<path d="M40.434,58.916c0.968,0.271,2.083,0.389,3.086,0.389c1.137,0,2.129-0.152,2.601-0.407c0.104-0.056,0.144-0.187,0.087-0.292
		c-0.057-0.105-0.187-0.143-0.292-0.086c-0.727,0.394-3.3,0.559-5.366-0.018c-0.112-0.029-0.232,0.035-0.265,0.149
		C40.252,58.766,40.319,58.884,40.434,58.916z"/>
	<path d="M42.018,57.815c0.076,0.089,0.213,0.099,0.304,0.021c0.277-0.241,0.795-0.353,1.29-0.274
		c0.337,0.053,0.602,0.189,0.708,0.365c0.04,0.067,0.111,0.104,0.184,0.104c0.038,0,0.076-0.01,0.111-0.031
		c0.102-0.062,0.134-0.194,0.072-0.295c-0.176-0.291-0.534-0.493-1.009-0.567c-0.618-0.096-1.265,0.05-1.64,0.375
		C41.949,57.589,41.939,57.726,42.018,57.815z"/>
	<path class="st0" d="M24.706,55.994c2.627,1.245,5.142,2.911,7.817,5.177c0.005,0.004,0.011,0.005,0.016,0.01
		c0.396,0.337,0.794,0.682,1.199,1.044c0.373,0.334,0.762,0.698,1.159,1.079c-0.667-1.398-2.49-3.428-4.412-4.404
		c-0.105-0.054-0.147-0.183-0.094-0.289c0.053-0.106,0.185-0.147,0.289-0.095c2.066,1.049,4.038,3.282,4.681,4.75
		c0.047,0.108-0.002,0.235-0.111,0.283c-0.026,0.012-0.053,0.016-0.08,0.017c0.553,0.538,1.122,1.114,1.695,1.713
		C35.748,61.326,32.308,56.395,24.706,55.994z"/>
	<path class="st0" d="M48.016,67.275c-2.175,0.688-3.277,1.539-4.582,3.484c-0.045,0.066-0.127,0.1-0.203,0.094
		c-0.08-0.009-0.148-0.063-0.177-0.138c-0.772-2.036-2.453-2.687-3.849-2.857c1.603,1.862,3.069,3.781,4.078,5.458
		C45.104,72.725,47.432,71.201,48.016,67.275z M43.772,72.022c-0.021,0-0.042-0.003-0.063-0.009
		c-0.113-0.034-0.178-0.154-0.144-0.268c0.264-0.869,2.297-2.917,3.398-3.423c0.106-0.052,0.234-0.002,0.285,0.105
		c0.05,0.108,0.002,0.236-0.105,0.285c-0.983,0.452-2.937,2.399-3.166,3.157C43.95,71.963,43.865,72.022,43.772,72.022z
		 M46.919,70.02c-0.296,0.518-1.206,1.591-1.587,1.945c-0.042,0.038-0.094,0.057-0.146,0.057c-0.058,0-0.115-0.023-0.157-0.068
		c-0.081-0.087-0.076-0.223,0.011-0.304c0.354-0.329,1.232-1.364,1.507-1.844c0.06-0.103,0.191-0.139,0.293-0.08
		C46.942,69.786,46.977,69.917,46.919,70.02z"/>
	<path class="st2" d="M27.149,63.575l-0.274,0.065c0.131,0.183,0.21,0.398,0.21,0.631c0,0.44-0.263,0.814-0.636,0.991
		c0.303,0.261,0.574,0.545,0.816,0.847c-0.125-0.179-0.215-0.384-0.215-0.619c0-0.608,0.495-1.103,1.104-1.103
		s1.103,0.495,1.103,1.103c0,0.608-0.494,1.102-1.103,1.102c-0.292,0-0.554-0.118-0.752-0.304c1.217,1.633,1.662,3.726,2.022,5.438
		c0.131,0.621,0.254,1.207,0.398,1.699c0.408,1.382,1.152,2.434,2.275,3.214h7.228l1.087-0.665
		C38.652,73.359,31.476,65.749,27.149,63.575z M30.196,68.185c-0.608,0-1.104-0.494-1.104-1.102c0-0.608,0.495-1.103,1.104-1.103
		s1.103,0.495,1.103,1.103C31.299,67.691,30.805,68.185,30.196,68.185z M32.145,70.028c-0.608,0-1.103-0.494-1.103-1.102
		c0-0.608,0.494-1.103,1.103-1.103s1.103,0.495,1.103,1.103C33.248,69.534,32.754,70.028,32.145,70.028z M34.111,71.904
		c-0.608,0-1.103-0.495-1.103-1.104c0-0.608,0.494-1.103,1.103-1.103c0.607,0,1.102,0.495,1.102,1.103
		C35.213,71.409,34.719,71.904,34.111,71.904z M34.961,72.696c0-0.608,0.494-1.103,1.103-1.103s1.103,0.495,1.103,1.103
		c0,0.608-0.494,1.102-1.103,1.102S34.961,73.304,34.961,72.696z M37.841,76.036c-0.608,0-1.104-0.495-1.104-1.103
		s0.495-1.103,1.104-1.103s1.103,0.495,1.103,1.103S38.449,76.036,37.841,76.036z"/>
	<path class="st2" d="M24.636,64.174c0.086,0.034,0.164,0.075,0.247,0.111c0-0.005-0.002-0.009-0.002-0.014
		c0-0.055,0.014-0.107,0.022-0.161L24.636,64.174z"/>
	<path class="st1" d="M33.451,62.546c-3.815-3.424-7.218-5.609-10.989-7.054v0.512v2.832c2.336,0.718,5.417,1.938,8.791,4.914
		l0.478,0.421c3.101,2.731,8.253,7.269,10.393,10.755l1.178-0.72C41.22,70.394,36.318,65.119,33.451,62.546z"/>
	<path class="st2" d="M55.061,60.179c-0.462-0.462-1.215-0.462-1.681,0c-0.084,0.084-0.22,0.083-0.304,0
		c-0.461-0.462-1.215-0.463-1.678,0c-0.463,0.462-0.463,1.215,0,1.679c0.084,0.084,0.084,0.22,0,0.304
		c-0.462,0.463-0.462,1.217,0,1.68c0.464,0.463,1.217,0.461,1.679,0c0.042-0.042,0.098-0.063,0.152-0.063s0.11,0.021,0.152,0.063
		c0.462,0.461,1.215,0.463,1.679,0c0.462-0.463,0.462-1.217,0-1.68c-0.084-0.084-0.084-0.22,0-0.304
		C55.524,61.395,55.524,60.642,55.061,60.179z M53.23,63.217c-0.666,0-1.207-0.542-1.207-1.207c0-0.665,0.541-1.206,1.207-1.206
		c0.665,0,1.206,0.541,1.206,1.206C54.436,62.675,53.895,63.217,53.23,63.217z"/>
	<path class="st0" d="M54.007,62.01c0-0.428-0.349-0.776-0.776-0.776c-0.429,0-0.777,0.348-0.777,0.776
		c0,0.429,0.349,0.777,0.777,0.777C53.658,62.787,54.007,62.438,54.007,62.01z"/>
	<path d="M53.23,60.804c-0.666,0-1.207,0.541-1.207,1.206c0,0.666,0.541,1.207,1.207,1.207c0.665,0,1.206-0.542,1.206-1.207
		C54.436,61.345,53.895,60.804,53.23,60.804z M52.453,62.01c0-0.428,0.349-0.776,0.777-0.776c0.428,0,0.776,0.348,0.776,0.776
		c0,0.429-0.349,0.777-0.776,0.777C52.802,62.787,52.453,62.438,52.453,62.01z"/>
	<path class="st7" d="M56.252,58.766c-0.033-2.349-0.857-3.611-2.513-3.848C53.818,57.28,55.062,58.236,56.252,58.766z"/>
	<path class="st7" d="M52.723,54.918c-1.655,0.236-2.479,1.499-2.513,3.848C51.399,58.235,52.643,57.279,52.723,54.918z"/>
	<path d="M37.841,73.83c-0.608,0-1.104,0.495-1.104,1.103s0.495,1.103,1.104,1.103s1.103-0.495,1.103-1.103
		S38.449,73.83,37.841,73.83z"/>
	<path d="M37.166,72.696c0-0.608-0.494-1.103-1.103-1.103s-1.103,0.495-1.103,1.103c0,0.608,0.494,1.102,1.103,1.102
		S37.166,73.304,37.166,72.696z"/>
	<path d="M34.111,69.698c-0.608,0-1.103,0.495-1.103,1.103c0,0.608,0.494,1.104,1.103,1.104c0.607,0,1.102-0.495,1.102-1.104
		C35.213,70.193,34.719,69.698,34.111,69.698z"/>
	<path d="M32.145,67.823c-0.608,0-1.103,0.495-1.103,1.103c0,0.608,0.494,1.102,1.103,1.102s1.103-0.494,1.103-1.102
		C33.248,68.317,32.754,67.823,32.145,67.823z"/>
	<path d="M30.196,65.98c-0.608,0-1.104,0.495-1.104,1.103c0,0.608,0.495,1.102,1.104,1.102s1.103-0.494,1.103-1.102
		C31.299,66.475,30.805,65.98,30.196,65.98z"/>
	<path d="M47.144,68.713c0.107-0.049,0.155-0.177,0.105-0.285c-0.051-0.108-0.179-0.157-0.285-0.105
		c-1.102,0.506-3.135,2.554-3.398,3.423c-0.034,0.114,0.03,0.234,0.144,0.268c0.021,0.006,0.042,0.009,0.063,0.009
		c0.093,0,0.178-0.06,0.206-0.152C44.208,71.112,46.161,69.165,47.144,68.713z"/>
	<path d="M46.546,69.806c-0.274,0.479-1.152,1.515-1.507,1.844c-0.087,0.081-0.092,0.217-0.011,0.304
		c0.042,0.045,0.1,0.068,0.157,0.068c0.053,0,0.104-0.019,0.146-0.057c0.381-0.354,1.291-1.428,1.587-1.945
		c0.059-0.103,0.023-0.234-0.08-0.293C46.737,69.667,46.605,69.703,46.546,69.806z"/>
</g>
</svg>
