<?xml version="1.0" encoding="utf-8"?>
<!-- Generator: Adobe Illustrator 23.0.2, SVG Export Plug-In . SVG Version: 6.00 Build 0)  -->
<svg version="1.1" id="Layer_1" xmlns="http://www.w3.org/2000/svg" xmlns:xlink="http://www.w3.org/1999/xlink" x="0px" y="0px"
	 viewBox="0 0 82.452 99.776" style="enable-background:new 0 0 82.452 99.776;" xml:space="preserve">
<style type="text/css">
	.st0{fill:#FFFFFF;}
	.st1{fill:#ED1C24;}
	.st2{fill:#FFCB05;}
	.st3{fill:#21409A;}
	.st4{fill:#D4D5D6;}
	.st5{fill:#000100;}
	.st6{fill:#300505;}
	.st7{fill:#BFD730;}
	.st8{fill:#F15A22;}
</style>
<g>
	<path class="st0" d="M59.389,77.262c-0.371,0-0.626,0.309-0.785,0.945c-0.131,0.5-0.189,1.227-0.189,2.3
		c0,1.182,0.073,1.936,0.233,2.454c0.16,0.536,0.4,0.791,0.742,0.791c0.676,0,0.974-0.991,0.974-3.245
		c0-1.154-0.072-1.936-0.233-2.454C59.971,77.526,59.723,77.262,59.389,77.262z"/>
	<path class="st0" d="M24.14,23.207c-0.676,0-0.974,0.991-0.974,3.245c0,1.154,0.072,1.936,0.233,2.454
		c0.16,0.527,0.407,0.791,0.741,0.791c0.371,0,0.626-0.309,0.785-0.945c0.131-0.5,0.189-1.227,0.189-2.3
		c0-1.181-0.073-1.936-0.233-2.454C24.722,23.461,24.483,23.207,24.14,23.207z"/>
	<path class="st0" d="M63.385,19.233h-43.24c-1.563,0-2.836,1.272-2.836,2.836v62.82c0,1.564,1.272,2.836,2.836,2.836h43.24
		c1.564,0,2.837-1.272,2.837-2.836v-62.82C66.222,20.506,64.949,19.233,63.385,19.233z M37.854,37.589
		c0.518-0.245,1.08-0.288,1.596-0.161h0.001c0.006,0.002,0.014,0.002,0.018,0.003l1.258,0.295l-0.805-1.011
		c-0.003-0.005-0.007-0.01-0.01-0.015l-0.002-0.001c-0.334-0.413-0.537-0.939-0.537-1.511c0-1.322,1.071-2.394,2.394-2.394
		c1.321,0,2.392,1.072,2.392,2.394c0,0.572-0.201,1.098-0.537,1.511L43.62,36.7c-0.002,0.005-0.008,0.009-0.011,0.015l-0.805,1.011
		l1.259-0.295c0.006-0.001,0.014-0.001,0.017-0.003h0.003c0.514-0.127,1.076-0.084,1.595,0.161c1.194,0.566,1.704,1.993,1.136,3.188
		c-0.565,1.194-1.993,1.704-3.187,1.137c-0.518-0.245-0.907-0.654-1.136-1.134c-0.001-0.006-0.003-0.013-0.008-0.017l-0.494-1.008
		v1.136c0,1.075,0.527,3.347,1.785,3.834h-4.017c1.256-0.488,1.786-2.76,1.786-3.834v-1.136l-0.494,1.008
		c-0.003,0.005-0.006,0.011-0.008,0.017h-0.001c-0.228,0.48-0.616,0.889-1.133,1.134c-1.197,0.566-2.625,0.057-3.19-1.137
		C36.151,39.582,36.659,38.155,37.854,37.589z M27.808,30.229c0.519-0.245,1.08-0.287,1.596-0.161h0.002
		c0.005,0.002,0.011,0.002,0.017,0.003l1.259,0.295l-0.805-1.012c-0.003-0.005-0.009-0.009-0.011-0.014l-0.001-0.001
		c-0.336-0.413-0.536-0.939-0.536-1.511c0-1.322,1.07-2.394,2.391-2.394c1.323,0,2.394,1.072,2.394,2.394
		c0,0.572-0.203,1.098-0.537,1.511l-0.002,0.001c-0.003,0.005-0.007,0.009-0.01,0.014l-0.805,1.012l1.258-0.295
		c0.005-0.001,0.013-0.001,0.018-0.003h0.002c0.514-0.127,1.077-0.084,1.595,0.161c1.194,0.566,1.703,1.993,1.137,3.188
		c-0.566,1.194-1.994,1.704-3.19,1.137c-0.517-0.245-0.905-0.654-1.133-1.134h-0.001c-0.001-0.006-0.005-0.013-0.008-0.017
		l-0.494-1.008v1.136c0,1.074,0.529,3.347,1.787,3.834h-4.017c1.256-0.488,1.785-2.76,1.785-3.834v-1.136l-0.495,1.008
		c-0.003,0.005-0.007,0.011-0.008,0.017c-0.229,0.48-0.618,0.889-1.136,1.134c-1.194,0.566-2.622,0.057-3.187-1.137
		C26.104,32.222,26.612,30.795,27.808,30.229z M27.808,44.949c0.519-0.245,1.08-0.288,1.596-0.161h0.002
		c0.005,0.002,0.011,0.002,0.017,0.003l1.259,0.295l-0.805-1.011c-0.003-0.005-0.009-0.01-0.011-0.015l-0.001-0.001
		c-0.336-0.413-0.536-0.939-0.536-1.511c0-1.322,1.07-2.394,2.391-2.394c1.323,0,2.394,1.072,2.394,2.394
		c0,0.572-0.203,1.098-0.537,1.511l-0.002,0.001c-0.003,0.005-0.007,0.009-0.01,0.015l-0.805,1.011l1.258-0.295
		c0.005-0.001,0.013-0.001,0.018-0.003h0.002c0.514-0.127,1.077-0.084,1.595,0.161c1.194,0.566,1.703,1.993,1.137,3.188
		c-0.566,1.194-1.994,1.703-3.19,1.137c-0.517-0.245-0.905-0.654-1.133-1.134h-0.001c-0.001-0.006-0.005-0.013-0.008-0.017
		l-0.494-1.009v1.136c0,1.074,0.529,3.347,1.787,3.834h-4.017c1.256-0.487,1.785-2.76,1.785-3.834v-1.136l-0.495,1.009
		c-0.003,0.005-0.007,0.011-0.008,0.017c-0.229,0.48-0.618,0.889-1.136,1.134c-1.194,0.566-2.622,0.057-3.187-1.137
		C26.104,46.942,26.612,45.515,27.808,44.949z M26.672,58.823c0.565-1.194,1.993-1.704,3.187-1.137
		c0.518,0.245,0.907,0.654,1.136,1.134c0.001,0.006,0.005,0.013,0.008,0.017l0.495,1.008v-1.136c0-1.074-0.529-3.347-1.785-3.834
		h4.017c-1.258,0.487-1.787,2.76-1.787,3.834v1.136l0.494-1.008c0.003-0.004,0.007-0.011,0.008-0.017h0.001
		c0.228-0.48,0.616-0.889,1.133-1.134c1.197-0.566,2.625-0.057,3.19,1.137c0.566,1.195,0.057,2.622-1.137,3.188
		c-0.518,0.245-1.08,0.288-1.595,0.161h-0.002c-0.006-0.002-0.014-0.002-0.018-0.003l-1.258-0.295l0.805,1.012
		c0.003,0.005,0.007,0.009,0.01,0.014l0.002,0.001c0.334,0.413,0.537,0.939,0.537,1.511c0,1.322-1.071,2.394-2.394,2.394
		c-1.321,0-2.391-1.072-2.391-2.394c0-0.573,0.2-1.098,0.536-1.511l0.001-0.001c0.002-0.005,0.008-0.009,0.011-0.014l0.805-1.012
		l-1.259,0.295c-0.006,0.001-0.013,0.001-0.017,0.003h-0.002c-0.516,0.127-1.077,0.084-1.596-0.161
		C26.612,61.444,26.104,60.017,26.672,58.823z M18.476,29.524c0.334-0.009,0.436-0.027,0.545-0.109
		c0.167-0.109,0.218-0.345,0.218-0.927v-4.181c-0.007-0.464-0.007-0.464-0.022-0.545c-0.029-0.2-0.124-0.245-0.495-0.245h-0.196
		v-0.255c0.691-0.073,1.222-0.164,1.701-0.273c-0.043,0.645-0.065,1.409-0.065,2.29v3.209c0,0.555,0.043,0.782,0.175,0.909
		c0.102,0.1,0.189,0.118,0.56,0.127v0.255h-2.421V29.524z M24.069,35.162c-0.253,0.536-0.894,0.764-1.43,0.51
		c-0.233-0.11-0.407-0.293-0.509-0.509h-0.001c-0.001-0.003-0.002-0.005-0.003-0.008l-0.221-0.452v0.51
		c0,0.482,0.237,1.502,0.801,1.72h-1.802c0.565-0.218,0.801-1.238,0.801-1.72v-0.51l-0.221,0.452
		c-0.001,0.002-0.002,0.005-0.003,0.008c-0.103,0.216-0.277,0.399-0.51,0.509c-0.536,0.254-1.176,0.025-1.43-0.51
		c-0.254-0.536-0.026-1.177,0.51-1.43c0.233-0.11,0.485-0.129,0.716-0.072h0.001c0.001,0.001,0.005,0.001,0.007,0.001l0.566,0.132
		l-0.36-0.454c-0.002-0.002-0.005-0.004-0.006-0.006v0c-0.152-0.186-0.242-0.421-0.242-0.678c0-0.593,0.48-1.074,1.075-1.074
		c0.592,0,1.072,0.481,1.072,1.074c0,0.257-0.091,0.492-0.24,0.678l-0.001,0c-0.002,0.002-0.003,0.004-0.006,0.006l-0.362,0.454
		l0.566-0.132c0.001-0.001,0.005-0.001,0.008-0.001h0.001c0.23-0.057,0.484-0.038,0.715,0.072
		C24.095,33.985,24.323,34.626,24.069,35.162z M25.544,29.024c-0.305,0.573-0.822,0.9-1.404,0.9c-0.589,0-1.105-0.327-1.41-0.9
		c-0.342-0.645-0.531-1.545-0.531-2.573c0-1.045,0.182-1.927,0.531-2.581c0.305-0.564,0.822-0.891,1.41-0.891
		c0.582,0,1.098,0.327,1.404,0.891c0.349,0.645,0.531,1.536,0.531,2.581C26.075,27.497,25.893,28.388,25.544,29.024z M35.632,76.73
		c-0.518,0.245-1.08,0.288-1.595,0.161h-0.002c-0.006-0.002-0.014-0.002-0.018-0.004l-1.258-0.295l0.805,1.011
		c0.003,0.005,0.007,0.009,0.01,0.015l0.002,0.001c0.334,0.413,0.537,0.939,0.537,1.511c0,1.322-1.071,2.394-2.394,2.394
		c-1.321,0-2.391-1.072-2.391-2.394c0-0.572,0.2-1.098,0.536-1.511l0.001-0.001c0.002-0.005,0.008-0.009,0.011-0.015l0.805-1.011
		l-1.259,0.295c-0.006,0.001-0.013,0.001-0.017,0.004h-0.002c-0.516,0.127-1.077,0.084-1.596-0.161
		c-1.195-0.566-1.704-1.993-1.136-3.188c0.565-1.194,1.993-1.704,3.187-1.137c0.518,0.245,0.907,0.654,1.136,1.134
		c0.001,0.007,0.005,0.013,0.008,0.017l0.495,1.009v-1.136c0-1.075-0.529-3.347-1.785-3.834h4.017
		c-1.258,0.487-1.787,2.76-1.787,3.834v1.136l0.494-1.009c0.003-0.004,0.007-0.011,0.008-0.017h0.001
		c0.228-0.48,0.616-0.889,1.133-1.134c1.197-0.567,2.625-0.057,3.19,1.137C37.335,74.737,36.826,76.164,35.632,76.73z M45.677,69.37
		c-0.519,0.245-1.08,0.288-1.595,0.161h-0.003c-0.003-0.002-0.011-0.002-0.017-0.004l-1.259-0.294l0.805,1.011
		c0.003,0.005,0.009,0.009,0.011,0.015l0.001,0c0.336,0.413,0.537,0.939,0.537,1.511c0,1.322-1.071,2.394-2.392,2.394
		c-1.323,0-2.394-1.072-2.394-2.394c0-0.573,0.203-1.098,0.537-1.511l0.002,0c0.003-0.005,0.007-0.009,0.01-0.015l0.805-1.011
		l-1.258,0.294c-0.005,0.001-0.013,0.001-0.018,0.004h-0.001c-0.516,0.127-1.078,0.084-1.596-0.161
		c-1.194-0.566-1.703-1.993-1.137-3.188c0.566-1.194,1.994-1.704,3.19-1.137c0.517,0.245,0.905,0.654,1.133,1.134h0.001
		c0.002,0.006,0.005,0.013,0.008,0.017l0.494,1.008v-1.136c0-1.075-0.53-3.347-1.786-3.835h4.017
		c-1.258,0.488-1.785,2.76-1.785,3.835v1.136l0.494-1.008c0.005-0.005,0.007-0.011,0.008-0.017c0.229-0.48,0.618-0.889,1.136-1.134
		c1.194-0.566,2.622-0.057,3.187,1.137C47.382,67.377,46.872,68.804,45.677,69.37z M55.722,76.73
		c-0.518,0.245-1.08,0.288-1.595,0.161h-0.002c-0.005-0.002-0.011-0.002-0.017-0.004l-1.259-0.295l0.804,1.011
		c0.005,0.005,0.01,0.009,0.011,0.015l0.002,0.001c0.337,0.413,0.536,0.939,0.536,1.511c0,1.322-1.07,2.394-2.392,2.394
		c-1.321,0-2.393-1.072-2.393-2.394c0-0.572,0.203-1.098,0.537-1.511l0.002-0.001c0.003-0.005,0.007-0.009,0.01-0.015l0.805-1.011
		l-1.258,0.295c-0.005,0.001-0.013,0.001-0.018,0.004h-0.001c-0.516,0.127-1.079,0.084-1.596-0.161
		c-1.195-0.566-1.703-1.993-1.137-3.188c0.566-1.194,1.994-1.704,3.189-1.137c0.518,0.245,0.906,0.654,1.133,1.134h0.002
		c0.001,0.007,0.005,0.013,0.007,0.017l0.495,1.009v-1.136c0-1.075-0.529-3.347-1.787-3.834h4.017
		c-1.257,0.487-1.785,2.76-1.785,3.834v1.136l0.495-1.009c0.003-0.004,0.007-0.011,0.008-0.017c0.228-0.48,0.617-0.889,1.136-1.134
		c1.194-0.567,2.622-0.057,3.187,1.137C57.427,74.737,56.919,76.164,55.722,76.73z M55.722,62.01
		c-0.518,0.245-1.08,0.288-1.595,0.161h-0.002c-0.005-0.002-0.011-0.002-0.017-0.003l-1.259-0.295l0.804,1.012
		c0.005,0.005,0.01,0.009,0.011,0.014l0.002,0.001c0.337,0.413,0.536,0.939,0.536,1.511c0,1.322-1.07,2.394-2.392,2.394
		c-1.321,0-2.393-1.072-2.393-2.394c0-0.573,0.203-1.098,0.537-1.511l0.002-0.001c0.003-0.005,0.007-0.009,0.01-0.014l0.805-1.012
		l-1.258,0.295c-0.005,0.001-0.013,0.001-0.018,0.003h-0.001c-0.516,0.127-1.079,0.084-1.596-0.161
		c-1.195-0.566-1.703-1.993-1.137-3.188c0.566-1.194,1.994-1.704,3.189-1.137c0.518,0.245,0.906,0.654,1.133,1.134h0.002
		c0.001,0.006,0.005,0.013,0.007,0.017l0.495,1.008v-1.136c0-1.074-0.529-3.347-1.787-3.834h4.017
		c-1.257,0.487-1.785,2.76-1.785,3.834v1.136l0.495-1.008c0.003-0.004,0.007-0.011,0.008-0.017c0.228-0.48,0.617-0.889,1.136-1.134
		c1.194-0.566,2.622-0.057,3.187,1.137C57.427,60.017,56.919,61.444,55.722,62.01z M56.859,48.137
		c-0.565,1.194-1.993,1.703-3.187,1.137c-0.519-0.245-0.908-0.654-1.136-1.134c-0.001-0.006-0.005-0.013-0.008-0.017l-0.495-1.009
		v1.136c0,1.074,0.528,3.347,1.785,3.834h-4.017c1.258-0.487,1.787-2.76,1.787-3.834v-1.136l-0.495,1.009
		c-0.002,0.005-0.006,0.011-0.007,0.017h-0.002c-0.227,0.48-0.615,0.889-1.133,1.134c-1.195,0.566-2.624,0.057-3.189-1.137
		c-0.566-1.195-0.058-2.622,1.137-3.188c0.517-0.245,1.08-0.288,1.596-0.161h0.001c0.006,0.002,0.014,0.002,0.018,0.003l1.258,0.295
		l-0.805-1.011c-0.003-0.005-0.007-0.01-0.01-0.015l-0.002-0.001c-0.334-0.413-0.537-0.939-0.537-1.511
		c0-1.322,1.072-2.394,2.393-2.394c1.322,0,2.392,1.072,2.392,2.394c0,0.572-0.2,1.098-0.536,1.511l-0.002,0.001
		c-0.001,0.005-0.007,0.009-0.011,0.015l-0.804,1.011l1.259-0.295c0.006-0.001,0.013-0.001,0.017-0.003h0.002
		c0.514-0.127,1.077-0.084,1.595,0.161C56.919,45.515,57.427,46.942,56.859,48.137z M56.859,33.417
		c-0.565,1.194-1.993,1.704-3.187,1.137c-0.519-0.245-0.908-0.654-1.136-1.134c-0.001-0.006-0.005-0.013-0.008-0.017l-0.495-1.008
		v1.136c0,1.074,0.528,3.347,1.785,3.834h-4.017c1.258-0.488,1.787-2.76,1.787-3.834v-1.136l-0.495,1.008
		c-0.002,0.005-0.006,0.011-0.007,0.017h-0.002c-0.227,0.48-0.615,0.889-1.133,1.134c-1.195,0.566-2.624,0.057-3.189-1.137
		c-0.566-1.195-0.058-2.622,1.137-3.188c0.517-0.245,1.08-0.287,1.596-0.161h0.001c0.006,0.002,0.014,0.002,0.018,0.003l1.258,0.295
		l-0.805-1.012c-0.003-0.005-0.007-0.009-0.01-0.014l-0.002-0.001c-0.334-0.413-0.537-0.939-0.537-1.511
		c0-1.322,1.072-2.394,2.393-2.394c1.322,0,2.392,1.072,2.392,2.394c0,0.572-0.2,1.098-0.536,1.511l-0.002,0.001
		c-0.001,0.005-0.007,0.009-0.011,0.014l-0.804,1.012l1.259-0.295c0.006-0.001,0.013-0.001,0.017-0.003h0.002
		c0.514-0.127,1.077-0.084,1.595,0.161C56.919,30.795,57.427,32.222,56.859,33.417z M60.8,83.089
		c-0.305,0.564-0.822,0.891-1.41,0.891c-0.582,0-1.098-0.327-1.404-0.891c-0.349-0.645-0.531-1.536-0.531-2.581
		c0-1.045,0.182-1.936,0.531-2.573c0.305-0.573,0.822-0.9,1.404-0.9c0.589,0,1.105,0.327,1.41,0.9
		c0.342,0.645,0.531,1.545,0.531,2.573C61.331,81.552,61.149,82.434,60.8,83.089z M61.728,75.379c-0.593,0-1.074-0.481-1.074-1.074
		c0-0.257,0.091-0.493,0.242-0.678v0c0.002-0.002,0.003-0.004,0.005-0.006l0.363-0.454l-0.565,0.132c-0.003,0-0.007,0-0.009,0.001
		c-0.232,0.057-0.484,0.038-0.716-0.072c-0.536-0.254-0.764-0.894-0.51-1.43c0.253-0.536,0.894-0.764,1.43-0.51
		c0.233,0.11,0.407,0.293,0.509,0.509h0.001c0,0.003,0.001,0.006,0.002,0.008l0.222,0.453v-0.51c0-0.482-0.237-1.501-0.802-1.72
		h1.802c-0.565,0.219-0.801,1.239-0.801,1.72v0.51l0.222-0.453c0.001-0.002,0.002-0.005,0.003-0.008
		c0.103-0.215,0.276-0.399,0.509-0.509c0.536-0.254,1.177-0.026,1.43,0.51c0.254,0.536,0.026,1.177-0.51,1.43
		c-0.233,0.11-0.484,0.129-0.715,0.072c-0.005-0.001-0.007-0.001-0.009-0.001l-0.565-0.132l0.36,0.454
		c0.002,0.002,0.005,0.004,0.006,0.006v0c0.152,0.186,0.242,0.421,0.242,0.678C62.801,74.898,62.321,75.379,61.728,75.379z
		 M65.054,77.435c-0.334,0.009-0.436,0.027-0.545,0.109c-0.167,0.109-0.218,0.346-0.218,0.927v4.181
		c0.007,0.464,0.007,0.464,0.022,0.545c0.029,0.2,0.124,0.245,0.495,0.245h0.196v0.255c-0.691,0.073-1.222,0.164-1.701,0.273
		c0.043-0.645,0.065-1.409,0.065-2.29v-3.209c0-0.555-0.043-0.782-0.174-0.909c-0.102-0.1-0.189-0.118-0.56-0.127V77.18h2.421
		V77.435z"/>
	<path d="M63.385,18.804h-43.24c-1.801,0-3.266,1.465-3.266,3.266v62.82c0,1.801,1.465,3.266,3.266,3.266h43.24
		c1.802,0,3.267-1.465,3.267-3.266v-62.82C66.651,20.269,65.187,18.804,63.385,18.804z M66.222,84.89
		c0,1.564-1.272,2.836-2.837,2.836h-43.24c-1.563,0-2.836-1.272-2.836-2.836v-62.82c0-1.563,1.272-2.836,2.836-2.836h43.24
		c1.564,0,2.837,1.272,2.837,2.836V84.89z"/>
	<path d="M23.559,33.732c-0.232-0.11-0.485-0.129-0.715-0.072h-0.001c-0.003,0.001-0.007,0.001-0.008,0.001l-0.566,0.132
		l0.362-0.454c0.002-0.002,0.003-0.004,0.006-0.006l0.001,0c0.148-0.186,0.24-0.421,0.24-0.678c0-0.593-0.48-1.074-1.072-1.074
		c-0.594,0-1.075,0.481-1.075,1.074c0,0.257,0.09,0.492,0.242,0.678v0c0.001,0.002,0.003,0.004,0.006,0.006l0.36,0.454l-0.566-0.132
		c-0.002-0.001-0.006-0.001-0.007-0.001h-0.001c-0.232-0.057-0.484-0.038-0.716,0.072c-0.536,0.253-0.764,0.894-0.51,1.43
		c0.254,0.536,0.894,0.764,1.43,0.51c0.233-0.11,0.407-0.293,0.51-0.509c0.001-0.003,0.002-0.005,0.003-0.008l0.221-0.452v0.51
		c0,0.482-0.236,1.502-0.801,1.72h1.802c-0.564-0.218-0.801-1.238-0.801-1.72v-0.51l0.221,0.452
		c0.001,0.002,0.002,0.005,0.003,0.008h0.001c0.102,0.216,0.276,0.399,0.509,0.509c0.536,0.254,1.177,0.025,1.43-0.51
		C24.323,34.626,24.095,33.985,23.559,33.732z"/>
	<path d="M29.859,34.554c0.518-0.245,0.907-0.654,1.136-1.134c0.001-0.006,0.005-0.013,0.008-0.017l0.495-1.008v1.136
		c0,1.074-0.529,3.347-1.785,3.834h4.017c-1.258-0.488-1.787-2.76-1.787-3.834v-1.136l0.494,1.008
		c0.003,0.005,0.007,0.011,0.008,0.017h0.001c0.228,0.48,0.616,0.889,1.133,1.134c1.197,0.566,2.625,0.057,3.19-1.137
		c0.566-1.195,0.057-2.622-1.137-3.188c-0.518-0.245-1.08-0.287-1.595-0.161h-0.002c-0.006,0.002-0.014,0.002-0.018,0.003
		l-1.258,0.295l0.805-1.012c0.003-0.005,0.007-0.009,0.01-0.014l0.002-0.001c0.334-0.413,0.537-0.939,0.537-1.511
		c0-1.322-1.071-2.394-2.394-2.394c-1.321,0-2.391,1.072-2.391,2.394c0,0.572,0.2,1.098,0.536,1.511l0.001,0.001
		c0.002,0.005,0.008,0.009,0.011,0.014l0.805,1.012l-1.259-0.295c-0.006-0.001-0.013-0.001-0.017-0.003h-0.002
		c-0.516-0.127-1.077-0.084-1.596,0.161c-1.195,0.566-1.704,1.993-1.136,3.188C27.236,34.611,28.664,35.12,29.859,34.554z"/>
	<path d="M55.722,30.229c-0.518-0.245-1.08-0.287-1.595-0.161h-0.002c-0.005,0.002-0.011,0.002-0.017,0.003l-1.259,0.295
		l0.804-1.012c0.005-0.005,0.01-0.009,0.011-0.014l0.002-0.001c0.337-0.413,0.536-0.939,0.536-1.511c0-1.322-1.07-2.394-2.392-2.394
		c-1.321,0-2.393,1.072-2.393,2.394c0,0.572,0.203,1.098,0.537,1.511l0.002,0.001c0.003,0.005,0.007,0.009,0.01,0.014l0.805,1.012
		l-1.258-0.295c-0.005-0.001-0.013-0.001-0.018-0.003h-0.001c-0.516-0.127-1.079-0.084-1.596,0.161
		c-1.195,0.566-1.703,1.993-1.137,3.188c0.566,1.194,1.994,1.704,3.189,1.137c0.518-0.245,0.906-0.654,1.133-1.134h0.002
		c0.001-0.006,0.005-0.013,0.007-0.017l0.495-1.008v1.136c0,1.074-0.529,3.347-1.787,3.834h4.017
		c-1.257-0.488-1.785-2.76-1.785-3.834v-1.136l0.495,1.008c0.003,0.005,0.007,0.011,0.008,0.017c0.228,0.48,0.617,0.889,1.136,1.134
		c1.194,0.566,2.622,0.057,3.187-1.137C57.427,32.222,56.919,30.795,55.722,30.229z"/>
	<path d="M29.859,49.273c0.518-0.245,0.907-0.654,1.136-1.134c0.001-0.006,0.005-0.013,0.008-0.017l0.495-1.009v1.136
		c0,1.074-0.529,3.347-1.785,3.834h4.017c-1.258-0.487-1.787-2.76-1.787-3.834v-1.136l0.494,1.009
		c0.003,0.005,0.007,0.011,0.008,0.017h0.001c0.228,0.48,0.616,0.889,1.133,1.134c1.197,0.566,2.625,0.057,3.19-1.137
		c0.566-1.195,0.057-2.622-1.137-3.188c-0.518-0.245-1.08-0.288-1.595-0.161h-0.002c-0.006,0.002-0.014,0.002-0.018,0.003
		l-1.258,0.295l0.805-1.011c0.003-0.005,0.007-0.01,0.01-0.015l0.002-0.001c0.334-0.413,0.537-0.939,0.537-1.511
		c0-1.322-1.071-2.394-2.394-2.394c-1.321,0-2.391,1.072-2.391,2.394c0,0.572,0.2,1.098,0.536,1.511l0.001,0.001
		c0.002,0.005,0.008,0.009,0.011,0.015l0.805,1.011l-1.259-0.295c-0.006-0.001-0.013-0.001-0.017-0.003h-0.002
		c-0.516-0.127-1.077-0.084-1.596,0.161c-1.195,0.566-1.704,1.993-1.136,3.188C27.236,49.331,28.664,49.84,29.859,49.273z"/>
	<path d="M55.722,44.949c-0.518-0.245-1.08-0.288-1.595-0.161h-0.002c-0.005,0.002-0.011,0.002-0.017,0.003l-1.259,0.295
		l0.804-1.011c0.005-0.005,0.01-0.01,0.011-0.015l0.002-0.001c0.337-0.413,0.536-0.939,0.536-1.511c0-1.322-1.07-2.394-2.392-2.394
		c-1.321,0-2.393,1.072-2.393,2.394c0,0.572,0.203,1.098,0.537,1.511l0.002,0.001c0.003,0.005,0.007,0.009,0.01,0.015l0.805,1.011
		l-1.258-0.295c-0.005-0.001-0.013-0.001-0.018-0.003h-0.001c-0.516-0.127-1.079-0.084-1.596,0.161
		c-1.195,0.566-1.703,1.993-1.137,3.188c0.566,1.194,1.994,1.703,3.189,1.137c0.518-0.245,0.906-0.654,1.133-1.134h0.002
		c0.001-0.006,0.005-0.013,0.007-0.017l0.495-1.009v1.136c0,1.074-0.529,3.347-1.787,3.834h4.017
		c-1.257-0.487-1.785-2.76-1.785-3.834v-1.136l0.495,1.009c0.003,0.005,0.007,0.011,0.008,0.017c0.228,0.48,0.617,0.889,1.136,1.134
		c1.194,0.566,2.622,0.057,3.187-1.137C57.427,46.942,56.919,45.515,55.722,44.949z"/>
	<path d="M36.716,40.776c0.566,1.194,1.994,1.704,3.19,1.137c0.517-0.245,0.905-0.654,1.133-1.134h0.001
		c0.002-0.006,0.005-0.013,0.008-0.017l0.494-1.008v1.136c0,1.075-0.53,3.347-1.786,3.834h4.017
		c-1.258-0.488-1.785-2.76-1.785-3.834v-1.136l0.494,1.008c0.005,0.005,0.007,0.011,0.008,0.017c0.229,0.48,0.618,0.889,1.136,1.134
		c1.194,0.566,2.622,0.057,3.187-1.137c0.568-1.195,0.058-2.622-1.136-3.188c-0.519-0.245-1.08-0.288-1.595-0.161h-0.003
		c-0.003,0.002-0.011,0.002-0.017,0.003l-1.259,0.295l0.805-1.011c0.003-0.005,0.009-0.01,0.011-0.015l0.001-0.001
		c0.336-0.413,0.537-0.939,0.537-1.511c0-1.322-1.071-2.394-2.392-2.394c-1.323,0-2.394,1.072-2.394,2.394
		c0,0.572,0.203,1.098,0.537,1.511l0.002,0.001c0.003,0.005,0.007,0.009,0.01,0.015l0.805,1.011l-1.258-0.295
		c-0.005-0.001-0.013-0.001-0.018-0.003h-0.001c-0.516-0.127-1.078-0.084-1.596,0.161C36.659,38.155,36.151,39.582,36.716,40.776z"
		/>
	<path d="M33.578,72.405c-0.517,0.245-0.905,0.654-1.133,1.134h-0.001c-0.001,0.007-0.005,0.013-0.008,0.017l-0.494,1.009v-1.136
		c0-1.075,0.529-3.347,1.787-3.834h-4.017c1.256,0.487,1.785,2.76,1.785,3.834v1.136l-0.495-1.009
		c-0.003-0.004-0.007-0.011-0.008-0.017c-0.229-0.48-0.618-0.889-1.136-1.134c-1.194-0.567-2.622-0.057-3.187,1.137
		c-0.568,1.195-0.059,2.622,1.136,3.188c0.519,0.245,1.08,0.288,1.596,0.161h0.002c0.005-0.002,0.011-0.002,0.017-0.004l1.259-0.295
		l-0.805,1.011c-0.003,0.005-0.009,0.009-0.011,0.015l-0.001,0.001c-0.336,0.413-0.536,0.939-0.536,1.511
		c0,1.322,1.07,2.394,2.391,2.394c1.323,0,2.394-1.072,2.394-2.394c0-0.572-0.203-1.098-0.537-1.511l-0.002-0.001
		c-0.003-0.005-0.007-0.009-0.01-0.015l-0.805-1.011l1.258,0.295c0.005,0.001,0.013,0.001,0.018,0.004h0.002
		c0.514,0.127,1.077,0.084,1.595-0.161c1.194-0.566,1.703-1.993,1.137-3.188C36.203,72.348,34.775,71.839,33.578,72.405z"/>
	<path d="M27.808,62.01c0.519,0.245,1.08,0.288,1.596,0.161h0.002c0.005-0.002,0.011-0.002,0.017-0.003l1.259-0.295l-0.805,1.012
		c-0.003,0.005-0.009,0.009-0.011,0.014L29.864,62.9c-0.336,0.413-0.536,0.939-0.536,1.511c0,1.322,1.07,2.394,2.391,2.394
		c1.323,0,2.394-1.072,2.394-2.394c0-0.573-0.203-1.098-0.537-1.511l-0.002-0.001c-0.003-0.005-0.007-0.009-0.01-0.014l-0.805-1.012
		l1.258,0.295c0.005,0.001,0.013,0.001,0.018,0.003h0.002c0.514,0.127,1.077,0.084,1.595-0.161c1.194-0.566,1.703-1.993,1.137-3.188
		c-0.566-1.194-1.994-1.704-3.19-1.137c-0.517,0.245-0.905,0.654-1.133,1.134h-0.001c-0.001,0.006-0.005,0.013-0.008,0.017
		l-0.494,1.008v-1.136c0-1.074,0.529-3.347,1.787-3.834h-4.017c1.256,0.487,1.785,2.76,1.785,3.834v1.136l-0.495-1.008
		c-0.003-0.004-0.007-0.011-0.008-0.017c-0.229-0.48-0.618-0.889-1.136-1.134c-1.194-0.566-2.622-0.057-3.187,1.137
		C26.104,60.017,26.612,61.444,27.808,62.01z"/>
	<path d="M53.672,72.405c-0.519,0.245-0.908,0.654-1.136,1.134c-0.001,0.007-0.005,0.013-0.008,0.017l-0.495,1.009v-1.136
		c0-1.075,0.528-3.347,1.785-3.834h-4.017c1.258,0.487,1.787,2.76,1.787,3.834v1.136l-0.495-1.009
		c-0.002-0.004-0.006-0.011-0.007-0.017h-0.002c-0.227-0.48-0.615-0.889-1.133-1.134c-1.195-0.567-2.624-0.057-3.189,1.137
		c-0.566,1.195-0.058,2.622,1.137,3.188c0.517,0.245,1.08,0.288,1.596,0.161h0.001c0.006-0.002,0.014-0.002,0.018-0.004l1.258-0.295
		l-0.805,1.011c-0.003,0.005-0.007,0.009-0.01,0.015l-0.002,0.001c-0.334,0.413-0.537,0.939-0.537,1.511
		c0,1.322,1.072,2.394,2.393,2.394c1.322,0,2.392-1.072,2.392-2.394c0-0.572-0.2-1.098-0.536-1.511l-0.002-0.001
		c-0.001-0.005-0.007-0.009-0.011-0.015l-0.804-1.011l1.259,0.295c0.006,0.001,0.013,0.001,0.017,0.004h0.002
		c0.514,0.127,1.077,0.084,1.595-0.161c1.197-0.566,1.705-1.993,1.137-3.188C56.295,72.348,54.867,71.839,53.672,72.405z"/>
	<path d="M53.672,57.685c-0.519,0.245-0.908,0.654-1.136,1.134c-0.001,0.006-0.005,0.013-0.008,0.017l-0.495,1.008v-1.136
		c0-1.074,0.528-3.347,1.785-3.834h-4.017c1.258,0.487,1.787,2.76,1.787,3.834v1.136l-0.495-1.008
		c-0.002-0.004-0.006-0.011-0.007-0.017h-0.002c-0.227-0.48-0.615-0.889-1.133-1.134c-1.195-0.566-2.624-0.057-3.189,1.137
		c-0.566,1.195-0.058,2.622,1.137,3.188c0.517,0.245,1.08,0.288,1.596,0.161h0.001c0.006-0.002,0.014-0.002,0.018-0.003l1.258-0.295
		l-0.805,1.012c-0.003,0.005-0.007,0.009-0.01,0.014L49.955,62.9c-0.334,0.413-0.537,0.939-0.537,1.511
		c0,1.322,1.072,2.394,2.393,2.394c1.322,0,2.392-1.072,2.392-2.394c0-0.573-0.2-1.098-0.536-1.511l-0.002-0.001
		c-0.001-0.005-0.007-0.009-0.011-0.014l-0.804-1.012l1.259,0.295c0.006,0.001,0.013,0.001,0.017,0.003h0.002
		c0.514,0.127,1.077,0.084,1.595-0.161c1.197-0.566,1.705-1.993,1.137-3.188C56.295,57.628,54.867,57.119,53.672,57.685z"/>
	<path d="M46.813,66.182c-0.565-1.194-1.993-1.704-3.187-1.137c-0.518,0.245-0.907,0.654-1.136,1.134
		c-0.001,0.006-0.003,0.013-0.008,0.017l-0.494,1.008v-1.136c0-1.075,0.527-3.347,1.785-3.835h-4.017
		c1.256,0.488,1.786,2.76,1.786,3.835v1.136l-0.494-1.008c-0.003-0.005-0.006-0.011-0.008-0.017h-0.001
		c-0.228-0.48-0.616-0.889-1.133-1.134c-1.197-0.566-2.625-0.057-3.19,1.137c-0.566,1.195-0.057,2.622,1.137,3.188
		c0.518,0.245,1.08,0.288,1.596,0.161h0.001c0.006-0.002,0.014-0.002,0.018-0.004l1.258-0.294l-0.805,1.011
		c-0.003,0.005-0.007,0.009-0.01,0.015l-0.002,0c-0.334,0.413-0.537,0.939-0.537,1.511c0,1.322,1.071,2.394,2.394,2.394
		c1.321,0,2.392-1.072,2.392-2.394c0-0.573-0.201-1.098-0.537-1.511l-0.001,0c-0.002-0.005-0.008-0.009-0.011-0.015l-0.805-1.011
		l1.259,0.294c0.006,0.001,0.014,0.001,0.017,0.004h0.003c0.514,0.127,1.076,0.084,1.595-0.161
		C46.872,68.804,47.382,67.377,46.813,66.182z"/>
	<path class="st5" d="M20.897,29.524c-0.371-0.009-0.458-0.027-0.56-0.127c-0.131-0.128-0.175-0.354-0.175-0.909v-3.209
		c0-0.881,0.022-1.645,0.065-2.29c-0.48,0.109-1.011,0.2-1.701,0.273v0.255h0.196c0.371,0,0.465,0.045,0.495,0.245
		c0.015,0.082,0.015,0.082,0.022,0.545v4.181c0,0.582-0.051,0.818-0.218,0.927c-0.109,0.082-0.211,0.1-0.545,0.109v0.255h2.421
		V29.524z"/>
	<path class="st5" d="M24.14,22.98c-0.589,0-1.105,0.327-1.41,0.891c-0.349,0.654-0.531,1.536-0.531,2.581
		c0,1.027,0.189,1.927,0.531,2.573c0.305,0.573,0.822,0.9,1.41,0.9c0.582,0,1.098-0.327,1.404-0.9
		c0.349-0.636,0.531-1.527,0.531-2.573c0-1.045-0.182-1.936-0.531-2.581C25.239,23.307,24.722,22.98,24.14,22.98z M24.926,28.752
		c-0.16,0.636-0.415,0.945-0.785,0.945c-0.334,0-0.582-0.264-0.741-0.791c-0.16-0.518-0.233-1.3-0.233-2.454
		c0-2.254,0.298-3.245,0.974-3.245c0.342,0,0.582,0.254,0.742,0.791c0.16,0.518,0.233,1.273,0.233,2.454
		C25.115,27.524,25.057,28.252,24.926,28.752z"/>
	<path d="M62.559,73.626L62.559,73.626c-0.001-0.002-0.003-0.004-0.006-0.007l-0.36-0.454l0.565,0.132c0.002,0,0.005,0,0.009,0.001
		c0.232,0.057,0.483,0.038,0.715-0.072c0.536-0.254,0.764-0.894,0.51-1.43c-0.253-0.536-0.894-0.764-1.43-0.51
		c-0.233,0.11-0.406,0.293-0.509,0.509c-0.001,0.003-0.002,0.006-0.003,0.008l-0.222,0.453v-0.51c0-0.482,0.236-1.501,0.801-1.72
		h-1.802c0.565,0.219,0.802,1.239,0.802,1.72v0.51l-0.222-0.453c-0.001-0.002-0.002-0.005-0.002-0.008h-0.001
		c-0.102-0.215-0.276-0.399-0.509-0.509c-0.536-0.254-1.177-0.026-1.43,0.51c-0.254,0.536-0.026,1.177,0.51,1.43
		c0.233,0.11,0.485,0.129,0.716,0.072c0.002-0.001,0.006-0.001,0.009-0.001l0.565-0.132L60.9,73.62
		c-0.001,0.002-0.002,0.004-0.005,0.006v0c-0.151,0.186-0.242,0.421-0.242,0.678c0,0.593,0.481,1.074,1.074,1.074
		c0.593,0,1.073-0.481,1.073-1.074C62.801,74.048,62.711,73.812,62.559,73.626z"/>
	<path class="st5" d="M62.633,77.435c0.371,0.009,0.458,0.027,0.56,0.127c0.131,0.127,0.174,0.354,0.174,0.909v3.209
		c0,0.882-0.022,1.645-0.065,2.29c0.48-0.109,1.011-0.2,1.701-0.273v-0.255h-0.196c-0.371,0-0.465-0.045-0.495-0.245
		c-0.015-0.082-0.015-0.082-0.022-0.545v-4.181c0-0.582,0.051-0.818,0.218-0.927c0.109-0.082,0.211-0.1,0.545-0.109V77.18h-2.421
		V77.435z"/>
	<path class="st5" d="M59.389,77.035c-0.582,0-1.098,0.327-1.404,0.9c-0.349,0.636-0.531,1.527-0.531,2.573
		c0,1.045,0.182,1.936,0.531,2.581c0.305,0.564,0.822,0.891,1.404,0.891c0.589,0,1.105-0.327,1.41-0.891
		c0.349-0.654,0.531-1.536,0.531-2.581c0-1.027-0.189-1.927-0.531-2.573C60.495,77.362,59.978,77.035,59.389,77.035z M59.389,83.752
		c-0.342,0-0.582-0.254-0.742-0.791c-0.16-0.518-0.233-1.272-0.233-2.454c0-1.073,0.058-1.8,0.189-2.3
		c0.16-0.636,0.415-0.945,0.785-0.945c0.334,0,0.582,0.264,0.741,0.791c0.16,0.518,0.233,1.3,0.233,2.454
		C60.363,82.762,60.066,83.752,59.389,83.752z"/>
</g>
</svg>
