<?xml version="1.0" encoding="utf-8"?>
<!-- Generator: Adobe Illustrator 23.0.2, SVG Export Plug-In . SVG Version: 6.00 Build 0)  -->
<svg version="1.1" id="Layer_1" xmlns="http://www.w3.org/2000/svg" xmlns:xlink="http://www.w3.org/1999/xlink" x="0px" y="0px"
	 viewBox="0 0 82.452 99.776" style="enable-background:new 0 0 82.452 99.776;" xml:space="preserve">
<style type="text/css">
	.st0{fill:#FFFFFF;}
	.st1{fill:#ED1C24;}
	.st2{fill:#FFCB05;}
	.st3{fill:#21409A;}
	.st4{fill:#D4D5D6;}
	.st5{fill:#000100;}
	.st6{fill:#300505;}
	.st7{fill:#BFD730;}
	.st8{fill:#F15A22;}
</style>
<g>
	<path class="st0" d="M58.381,73.702c-0.371,0-0.626,0.309-0.785,0.945c-0.131,0.5-0.189,1.227-0.189,2.3
		c0,1.182,0.073,1.936,0.233,2.454c0.16,0.536,0.4,0.791,0.742,0.791c0.676,0,0.974-0.991,0.974-3.245
		c0-1.154-0.072-1.936-0.233-2.454C58.962,73.966,58.715,73.702,58.381,73.702z"/>
	<path class="st0" d="M62.376,15.673h-43.24c-1.563,0-2.836,1.272-2.836,2.836v62.82c0,1.564,1.272,2.836,2.836,2.836h43.24
		c1.564,0,2.837-1.272,2.837-2.836v-62.82C65.213,16.945,63.941,15.673,62.376,15.673z M40.753,32.201
		c0.617,2.15,3.106,5.522,5.125,6.673c-2.019,1.152-4.508,4.524-5.125,6.675c-0.616-2.151-3.105-5.523-5.124-6.675
		C37.648,37.723,40.137,34.351,40.753,32.201z M30.71,21.16c0.617,2.151,3.105,5.523,5.123,6.675
		c-2.018,1.152-4.506,4.523-5.123,6.674c-0.617-2.151-3.106-5.522-5.124-6.674C27.604,26.683,30.093,23.311,30.71,21.16z
		 M30.709,35.884c0.617,2.15,3.106,5.523,5.124,6.674c-2.018,1.152-4.507,4.523-5.124,6.674c-0.617-2.151-3.105-5.522-5.124-6.674
		C27.604,41.406,30.092,38.034,30.709,35.884z M17.467,25.964c0.334-0.009,0.436-0.027,0.545-0.109
		c0.167-0.109,0.218-0.346,0.218-0.927v-4.181c-0.007-0.464-0.007-0.464-0.022-0.546c-0.029-0.2-0.124-0.245-0.495-0.245h-0.196
		v-0.255c0.691-0.073,1.222-0.164,1.701-0.273c-0.043,0.645-0.065,1.409-0.065,2.29v3.209c0,0.555,0.043,0.782,0.175,0.909
		c0.102,0.1,0.189,0.118,0.56,0.127v0.254h-2.421V25.964z M20.796,33.392c-0.249-0.868-1.253-2.227-2.067-2.693
		c0.814-0.465,1.818-1.825,2.067-2.693c0.249,0.868,1.252,2.228,2.067,2.693C22.048,31.165,21.044,32.525,20.796,33.392z
		 M24.535,25.465c-0.305,0.573-0.822,0.9-1.404,0.9c-0.589,0-1.105-0.327-1.41-0.9c-0.342-0.645-0.531-1.545-0.531-2.573
		c0-1.045,0.182-1.927,0.531-2.581c0.305-0.564,0.822-0.891,1.41-0.891c0.582,0,1.098,0.327,1.404,0.891
		c0.349,0.645,0.531,1.536,0.531,2.581C25.066,23.937,24.884,24.828,24.535,25.465z M30.709,50.607
		c0.617,2.15,3.106,5.523,5.124,6.674c-2.018,1.152-4.507,4.523-5.124,6.674c-0.617-2.15-3.105-5.522-5.124-6.674
		C27.604,56.13,30.092,52.757,30.709,50.607z M30.71,78.678c-0.617-2.151-3.106-5.523-5.124-6.674
		c2.018-1.152,4.507-4.523,5.124-6.674c0.617,2.15,3.105,5.522,5.123,6.674C33.815,73.156,31.327,76.528,30.71,78.678z
		 M40.753,67.639c-0.616-2.15-3.105-5.523-5.124-6.674c2.019-1.152,4.508-4.523,5.124-6.674c0.617,2.151,3.106,5.522,5.125,6.674
		C43.859,62.116,41.37,65.488,40.753,67.639z M50.797,78.678c-0.616-2.151-3.105-5.523-5.124-6.674
		c2.019-1.152,4.508-4.523,5.124-6.674c0.617,2.15,3.107,5.522,5.125,6.674C53.905,73.156,51.415,76.528,50.797,78.678z
		 M50.797,63.955c-0.616-2.15-3.105-5.522-5.124-6.674c2.019-1.152,4.508-4.524,5.124-6.674c0.617,2.15,3.107,5.523,5.125,6.674
		C53.905,58.433,51.415,61.804,50.797,63.955z M50.797,49.232c-0.616-2.151-3.105-5.522-5.124-6.674
		c2.019-1.151,4.508-4.524,5.124-6.674c0.617,2.15,3.107,5.523,5.125,6.674C53.905,43.71,51.415,47.081,50.797,49.232z
		 M50.797,34.509c-0.616-2.151-3.105-5.522-5.124-6.674c2.019-1.152,4.508-4.524,5.124-6.675c0.617,2.151,3.107,5.523,5.125,6.675
		C53.905,28.987,51.415,32.358,50.797,34.509z M59.791,79.528c-0.305,0.564-0.822,0.891-1.41,0.891
		c-0.582,0-1.098-0.327-1.404-0.891c-0.349-0.645-0.531-1.536-0.531-2.581c0-1.045,0.182-1.936,0.531-2.573
		c0.305-0.573,0.822-0.9,1.404-0.9c0.589,0,1.105,0.327,1.41,0.9c0.342,0.645,0.531,1.545,0.531,2.573
		C60.322,77.992,60.14,78.874,59.791,79.528z M58.65,69.139c0.814-0.465,1.819-1.825,2.068-2.693
		c0.249,0.867,1.252,2.228,2.067,2.693c-0.815,0.465-1.818,1.825-2.067,2.693C60.469,70.964,59.464,69.604,58.65,69.139z
		 M64.045,73.875c-0.334,0.009-0.436,0.027-0.545,0.109c-0.167,0.109-0.218,0.346-0.218,0.927v4.181
		c0.007,0.464,0.007,0.464,0.022,0.546c0.029,0.2,0.124,0.245,0.495,0.245h0.196v0.255c-0.691,0.073-1.222,0.164-1.701,0.273
		c0.043-0.645,0.065-1.409,0.065-2.29v-3.209c0-0.555-0.043-0.782-0.174-0.909c-0.102-0.1-0.189-0.118-0.56-0.127V73.62h2.421
		V73.875z"/>
	<path class="st0" d="M23.132,19.647c-0.676,0-0.974,0.991-0.974,3.245c0,1.154,0.072,1.936,0.233,2.454
		c0.16,0.527,0.407,0.791,0.741,0.791c0.371,0,0.626-0.309,0.785-0.945c0.131-0.5,0.189-1.227,0.189-2.3
		c0-1.182-0.073-1.936-0.233-2.454C23.713,19.902,23.474,19.647,23.132,19.647z"/>
	<path d="M62.376,15.243h-43.24c-1.801,0-3.266,1.465-3.266,3.266v62.82c0,1.801,1.465,3.266,3.266,3.266h43.24
		c1.802,0,3.267-1.465,3.267-3.266v-62.82C65.643,16.708,64.178,15.243,62.376,15.243z M65.213,81.329
		c0,1.564-1.272,2.836-2.837,2.836h-43.24c-1.563,0-2.836-1.272-2.836-2.836v-62.82c0-1.564,1.272-2.836,2.836-2.836h43.24
		c1.564,0,2.837,1.272,2.837,2.836V81.329z"/>
	<path class="st1" d="M19.888,25.964c-0.371-0.009-0.458-0.027-0.56-0.127c-0.131-0.127-0.175-0.354-0.175-0.909v-3.209
		c0-0.882,0.022-1.645,0.065-2.29c-0.48,0.109-1.011,0.2-1.701,0.273v0.255h0.196c0.371,0,0.465,0.045,0.495,0.245
		c0.015,0.082,0.015,0.082,0.022,0.546v4.181c0,0.582-0.051,0.818-0.218,0.927c-0.109,0.082-0.211,0.1-0.545,0.109v0.254h2.421
		V25.964z"/>
	<path class="st1" d="M23.132,19.42c-0.589,0-1.105,0.327-1.41,0.891c-0.349,0.654-0.531,1.536-0.531,2.581
		c0,1.027,0.189,1.927,0.531,2.573c0.305,0.573,0.822,0.9,1.41,0.9c0.582,0,1.098-0.327,1.404-0.9
		c0.349-0.636,0.531-1.527,0.531-2.573c0-1.045-0.182-1.936-0.531-2.581C24.23,19.747,23.713,19.42,23.132,19.42z M23.917,25.192
		c-0.16,0.636-0.415,0.945-0.785,0.945c-0.334,0-0.582-0.264-0.741-0.791c-0.16-0.518-0.233-1.3-0.233-2.454
		c0-2.254,0.298-3.245,0.974-3.245c0.342,0,0.582,0.254,0.742,0.791c0.16,0.518,0.233,1.272,0.233,2.454
		C24.106,23.965,24.048,24.692,23.917,25.192z"/>
	<path class="st1" d="M61.624,73.875c0.371,0.009,0.458,0.027,0.56,0.127c0.131,0.127,0.174,0.354,0.174,0.909v3.209
		c0,0.882-0.022,1.645-0.065,2.29c0.48-0.109,1.011-0.2,1.701-0.273v-0.255h-0.196c-0.371,0-0.465-0.045-0.495-0.245
		c-0.015-0.082-0.015-0.082-0.022-0.546v-4.181c0-0.582,0.051-0.818,0.218-0.927c0.109-0.082,0.211-0.1,0.545-0.109V73.62h-2.421
		V73.875z"/>
	<path class="st1" d="M58.381,73.475c-0.582,0-1.098,0.327-1.404,0.9c-0.349,0.636-0.531,1.527-0.531,2.573
		c0,1.045,0.182,1.936,0.531,2.581c0.305,0.564,0.822,0.891,1.404,0.891c0.589,0,1.105-0.327,1.41-0.891
		c0.349-0.654,0.531-1.536,0.531-2.581c0-1.027-0.189-1.927-0.531-2.573C59.486,73.802,58.969,73.475,58.381,73.475z M58.381,80.192
		c-0.342,0-0.582-0.254-0.742-0.791c-0.16-0.518-0.233-1.272-0.233-2.454c0-1.073,0.058-1.8,0.189-2.3
		c0.16-0.636,0.415-0.945,0.785-0.945c0.334,0,0.582,0.264,0.741,0.791c0.16,0.518,0.233,1.3,0.233,2.454
		C59.355,79.201,59.057,80.192,58.381,80.192z"/>
	<path class="st1" d="M30.71,34.509c0.617-2.151,3.105-5.522,5.123-6.674c-2.018-1.152-4.506-4.524-5.123-6.675
		c-0.617,2.151-3.106,5.523-5.124,6.675C27.604,28.987,30.093,32.358,30.71,34.509z"/>
	<path class="st1" d="M50.797,21.16c-0.616,2.151-3.105,5.523-5.124,6.675c2.019,1.152,4.508,4.523,5.124,6.674
		c0.617-2.151,3.107-5.522,5.125-6.674C53.905,26.683,51.415,23.311,50.797,21.16z"/>
	<path class="st1" d="M30.71,65.33c-0.617,2.15-3.106,5.522-5.124,6.674c2.018,1.151,4.507,4.524,5.124,6.674
		c0.617-2.151,3.105-5.523,5.123-6.674C33.815,70.852,31.327,67.481,30.71,65.33z"/>
	<path class="st1" d="M50.797,65.33c-0.616,2.15-3.105,5.522-5.124,6.674c2.019,1.151,4.508,4.524,5.124,6.674
		c0.617-2.151,3.107-5.523,5.125-6.674C53.905,70.852,51.415,67.481,50.797,65.33z"/>
	<path class="st1" d="M30.709,63.955c0.617-2.15,3.106-5.522,5.124-6.674c-2.018-1.152-4.507-4.524-5.124-6.674
		c-0.617,2.15-3.105,5.523-5.124,6.674C27.604,58.433,30.092,61.804,30.709,63.955z"/>
	<ellipse class="st1" cx="30.709" cy="42.558" rx="5.124" ry="6.674"/>
	<path class="st1" d="M50.797,50.607c-0.616,2.15-3.105,5.523-5.124,6.674c2.019,1.152,4.508,4.523,5.124,6.674
		c0.617-2.15,3.107-5.522,5.125-6.674C53.905,56.13,51.415,52.757,50.797,50.607z"/>
	<path class="st1" d="M50.797,35.884c-0.616,2.15-3.105,5.523-5.124,6.674c2.019,1.152,4.508,4.523,5.124,6.674
		c0.617-2.151,3.107-5.522,5.125-6.674C53.905,41.406,51.415,38.034,50.797,35.884z"/>
	<path class="st1" d="M40.753,54.291c-0.616,2.151-3.105,5.522-5.124,6.674c2.019,1.151,4.508,4.524,5.124,6.674
		c0.617-2.15,3.106-5.523,5.125-6.674C43.859,59.813,41.37,56.441,40.753,54.291z"/>
	<path class="st1" d="M40.753,45.549c0.617-2.151,3.106-5.523,5.125-6.675c-2.019-1.151-4.508-4.523-5.125-6.673
		c-0.616,2.15-3.105,5.522-5.124,6.673C37.648,40.026,40.137,43.398,40.753,45.549z"/>
	<path class="st1" d="M20.796,28.007c-0.249,0.868-1.253,2.228-2.067,2.693c0.814,0.465,1.818,1.825,2.067,2.693
		c0.249-0.868,1.252-2.227,2.067-2.693C22.048,30.235,21.044,28.875,20.796,28.007z"/>
	<path class="st1" d="M62.785,69.139c-0.815-0.465-1.818-1.825-2.067-2.693c-0.249,0.867-1.254,2.228-2.068,2.693
		c0.814,0.465,1.819,1.825,2.068,2.693C60.967,70.964,61.97,69.604,62.785,69.139z"/>
</g>
</svg>
