<?xml version="1.0" encoding="utf-8"?>
<!-- Generator: Adobe Illustrator 23.0.2, SVG Export Plug-In . SVG Version: 6.00 Build 0)  -->
<svg version="1.1" id="Layer_1" xmlns="http://www.w3.org/2000/svg" xmlns:xlink="http://www.w3.org/1999/xlink" x="0px" y="0px"
	 viewBox="0 0 82.452 99.776" style="enable-background:new 0 0 82.452 99.776;" xml:space="preserve">
<style type="text/css">
	.st0{fill:#FFFFFF;}
	.st1{fill:#ED1C24;}
	.st2{fill:#FFCB05;}
	.st3{fill:#21409A;}
	.st4{fill:#D4D5D6;}
	.st5{fill:#000100;}
	.st6{fill:#300505;}
	.st7{fill:#BFD730;}
	.st8{fill:#F15A22;}
</style>
<g>
	<path class="st0" d="M65.183,85.942c-0.37,0.001-0.625,0.309-0.785,0.946c-0.131,0.5-0.189,1.226-0.189,2.3
		c0,1.181,0.074,1.935,0.232,2.453c0.161,0.537,0.399,0.792,0.742,0.792c0.676,0,0.974-0.991,0.975-3.245
		c0-1.154-0.073-1.937-0.234-2.455C65.767,86.205,65.519,85.942,65.183,85.942z"/>
	<path class="st0" d="M29.934,31.886c-0.676,0-0.973,0.99-0.974,3.245c0.001,1.155,0.073,1.937,0.233,2.454
		c0.16,0.528,0.407,0.792,0.742,0.791c0.371,0.001,0.625-0.308,0.785-0.945c0.131-0.5,0.189-1.226,0.188-2.299
		c0.001-1.182-0.071-1.936-0.232-2.455C30.517,32.141,30.277,31.886,29.934,31.886z"/>
	<path class="st0" d="M71.187,28.744c-0.536-0.536-1.249-0.832-2.008-0.832h-43.24c-1.563,0-2.836,1.272-2.836,2.836l0.001,62.82
		c0,0.757,0.295,1.47,0.831,2.006c0.536,0.536,1.248,0.831,2.005,0.831l43.239,0c1.564,0,2.837-1.273,2.837-2.837l-0.001-62.82
		C72.016,29.992,71.721,29.281,71.187,28.744z M47.557,43.8c1.056-4.17,5.199-3.06,5.198,0.874c0,2.572-1.395,4.279-2.863,5.894
		c-0.735,0.808-1.709,1.888-2.334,3.021c-0.627-1.132-1.601-2.213-2.336-3.021c-1.467-1.615-2.863-3.322-2.864-5.894
		C42.359,40.74,46.501,39.63,47.557,43.8z M57.602,51.228c1.056-4.17,5.198-3.059,5.198,0.873c0,2.573-1.396,4.279-2.864,5.894
		c-0.734,0.808-1.708,1.888-2.334,3.02c-0.625-1.132-1.602-2.212-2.335-3.02c-1.467-1.616-2.864-3.321-2.865-5.894
		C52.403,48.167,56.546,47.057,57.602,51.228z M37.515,36.503c1.055-4.169,5.196-3.06,5.196,0.873
		c0.001,2.572-1.394,4.279-2.862,5.893c-0.733,0.809-1.709,1.89-2.335,3.022c-0.626-1.132-1.602-2.213-2.336-3.021
		c-1.467-1.615-2.864-3.321-2.864-5.893C32.314,33.443,36.458,32.334,37.515,36.503z M24.271,38.204
		c0.333-0.009,0.436-0.027,0.545-0.109c0.167-0.109,0.218-0.346,0.218-0.928l-0.001-4.18c-0.006-0.464-0.006-0.464-0.022-0.546
		c-0.027-0.199-0.123-0.245-0.494-0.246l-0.196,0v-0.254c0.691-0.072,1.222-0.164,1.702-0.272c-0.044,0.645-0.066,1.408-0.065,2.29
		v3.209c0,0.554,0.043,0.782,0.174,0.909c0.102,0.099,0.188,0.117,0.559,0.127v0.254l-2.421,0.001V38.204z M28.647,44.371
		c-0.329,0.362-0.767,0.846-1.046,1.354c-0.281-0.507-0.72-0.992-1.047-1.354c-0.658-0.723-1.284-1.487-1.284-2.641
		c0.001-1.763,1.858-2.261,2.331-0.392c0.473-1.869,2.328-1.371,2.329,0.392C29.928,42.883,29.305,43.648,28.647,44.371z
		 M31.339,37.704c-0.305,0.573-0.822,0.899-1.404,0.9c-0.589-0.001-1.106-0.328-1.41-0.9c-0.342-0.645-0.53-1.546-0.53-2.572
		c-0.001-1.046,0.181-1.927,0.531-2.581c0.303-0.564,0.821-0.892,1.409-0.891c0.582-0.001,1.1,0.326,1.404,0.889
		c0.349,0.645,0.532,1.537,0.531,2.581C31.871,36.177,31.688,37.068,31.339,37.704z M37.513,51.226
		c1.056-4.169,5.199-3.059,5.197,0.874c0.002,2.573-1.394,4.279-2.862,5.894c-0.734,0.808-1.709,1.888-2.334,3.022
		c-0.626-1.134-1.6-2.215-2.336-3.022c-1.467-1.616-2.862-3.322-2.864-5.895C32.314,48.167,36.457,47.058,37.513,51.226z
		 M42.711,72.218c0.001,3.933-4.141,5.043-5.196,0.875c-1.057,4.168-5.2,3.058-5.2-0.875c-0.001-2.573,1.396-4.279,2.863-5.893
		c0.735-0.81,1.71-1.889,2.337-3.021c0.624,1.133,1.6,2.212,2.334,3.021C41.317,67.939,42.71,69.645,42.711,72.218z M37.515,87.815
		c-1.059,4.17-5.201,3.06-5.2-0.875c0-2.571,1.395-4.279,2.864-5.892c0.735-0.809,1.71-1.89,2.337-3.021
		c0.625,1.131,1.6,2.213,2.334,3.021c1.467,1.614,2.863,3.321,2.863,5.894C42.711,90.875,38.57,91.986,37.515,87.815z
		 M47.557,80.518c-1.055,4.17-5.198,3.06-5.199-0.873c0.001-2.572,1.397-4.279,2.864-5.894c0.735-0.808,1.709-1.889,2.336-3.021
		c0.625,1.133,1.6,2.213,2.334,3.021c1.468,1.615,2.863,3.322,2.863,5.894C52.755,83.578,48.613,84.688,47.557,80.518z
		 M57.604,87.814c-1.057,4.17-5.199,3.061-5.199-0.873c0-2.573,1.395-4.279,2.863-5.893c0.736-0.81,1.71-1.889,2.336-3.021
		c0.625,1.132,1.599,2.211,2.333,3.02c1.47,1.615,2.864,3.321,2.865,5.894C62.8,90.875,58.659,91.985,57.604,87.814z M57.604,73.093
		c-1.056,4.168-5.199,3.058-5.199-0.876c-0.001-2.572,1.396-4.279,2.862-5.892c0.736-0.81,1.712-1.89,2.337-3.022
		c0.625,1.132,1.599,2.212,2.333,3.022c1.47,1.614,2.865,3.32,2.865,5.892C62.8,76.151,58.659,77.261,57.604,73.093z M59.937,43.269
		c-0.733,0.81-1.709,1.889-2.335,3.022c-0.625-1.132-1.6-2.213-2.336-3.021c-1.466-1.615-2.863-3.321-2.862-5.894
		c0.001-3.933,4.143-5.044,5.2-0.873c1.057-4.17,5.198-3.06,5.198,0.873C62.801,39.949,61.406,41.656,59.937,43.269z M66.595,91.768
		c-0.306,0.563-0.822,0.891-1.411,0.892c-0.582-0.001-1.098-0.328-1.404-0.892c-0.349-0.646-0.53-1.536-0.532-2.581
		c0.001-1.045,0.182-1.936,0.532-2.573c0.305-0.571,0.822-0.899,1.404-0.899c0.589-0.001,1.105,0.327,1.411,0.901
		c0.341,0.645,0.53,1.544,0.53,2.572C67.126,90.232,66.943,91.113,66.595,91.768z M67.519,82.979
		c-0.472,1.869-2.328,1.372-2.329-0.393c0.001-1.151,0.626-1.916,1.284-2.641c0.329-0.362,0.765-0.845,1.046-1.354
		c0.279,0.508,0.717,0.993,1.047,1.354c0.656,0.724,1.284,1.489,1.283,2.641C69.851,84.351,67.994,84.847,67.519,82.979z
		 M70.848,86.115c-0.335,0.007-0.435,0.026-0.546,0.108c-0.167,0.11-0.218,0.346-0.216,0.929l-0.001,4.18
		c0.008,0.464,0.008,0.464,0.021,0.547c0.03,0.2,0.125,0.246,0.496,0.245l0.195,0l0.001,0.255c-0.692,0.072-1.221,0.163-1.702,0.272
		c0.043-0.645,0.066-1.408,0.066-2.289l-0.001-3.21c0-0.553-0.043-0.781-0.173-0.909c-0.102-0.099-0.19-0.119-0.561-0.127
		l0.001-0.255l2.42,0L70.848,86.115z"/>
	<path d="M72.445,30.749c0.001-0.872-0.338-1.691-0.954-2.308c-0.617-0.618-1.438-0.958-2.312-0.958h-43.24
		c-1.801,0-3.266,1.465-3.266,3.266l0.001,62.82c-0.001,0.872,0.339,1.692,0.956,2.31c0.617,0.617,1.438,0.957,2.31,0.957l43.239,0
		c1.802,0,3.267-1.466,3.267-3.267L72.445,30.749z M69.179,96.406l-43.239,0c-0.757,0-1.469-0.295-2.005-0.831
		c-0.536-0.536-0.831-1.249-0.831-2.006l-0.001-62.82c0-1.564,1.272-2.836,2.836-2.836h43.24c0.759,0,1.472,0.296,2.008,0.832
		c0.534,0.536,0.829,1.248,0.828,2.004l0.001,62.82C72.016,95.133,70.744,96.406,69.179,96.406z"/>
	<path class="st1" d="M26.692,38.204c-0.371-0.01-0.457-0.028-0.559-0.127c-0.132-0.128-0.174-0.355-0.174-0.909v-3.209
		c-0.001-0.882,0.021-1.645,0.065-2.29c-0.48,0.108-1.011,0.2-1.702,0.272v0.254l0.196,0c0.371,0,0.466,0.046,0.494,0.246
		c0.016,0.082,0.016,0.082,0.022,0.546l0.001,4.18c0,0.582-0.051,0.819-0.218,0.928c-0.109,0.082-0.212,0.1-0.545,0.109v0.255
		l2.421-0.001V38.204z"/>
	<path class="st1" d="M29.934,31.66c-0.587-0.001-1.105,0.326-1.409,0.891c-0.35,0.654-0.532,1.535-0.531,2.581
		c-0.001,1.026,0.188,1.927,0.53,2.572c0.305,0.573,0.821,0.899,1.41,0.9c0.582-0.001,1.099-0.328,1.404-0.9
		c0.35-0.637,0.532-1.527,0.53-2.573c0.001-1.044-0.182-1.936-0.531-2.581C31.034,31.987,30.516,31.66,29.934,31.66z M30.72,37.431
		c-0.16,0.637-0.414,0.946-0.785,0.945c-0.335,0.001-0.582-0.263-0.742-0.791c-0.16-0.517-0.233-1.299-0.233-2.454
		c0.001-2.254,0.298-3.245,0.974-3.245c0.342,0,0.583,0.255,0.743,0.791c0.16,0.519,0.233,1.273,0.232,2.455
		C30.91,36.204,30.851,36.931,30.72,37.431z"/>
	<path class="st1" d="M68.427,86.114c0.371,0.009,0.459,0.028,0.561,0.127c0.131,0.128,0.173,0.356,0.173,0.909l0.001,3.21
		c0,0.881-0.023,1.644-0.066,2.289c0.481-0.108,1.011-0.2,1.702-0.272l-0.001-0.255l-0.195,0c-0.371,0.001-0.466-0.045-0.496-0.245
		c-0.013-0.082-0.013-0.082-0.021-0.547l0.001-4.18c-0.002-0.582,0.05-0.819,0.216-0.929c0.111-0.081,0.211-0.101,0.546-0.108
		l0.001-0.255l-2.42,0L68.427,86.114z"/>
	<path class="st1" d="M65.184,85.714c-0.582,0.001-1.099,0.328-1.404,0.899c-0.35,0.636-0.531,1.527-0.532,2.573
		c0.001,1.045,0.182,1.936,0.532,2.581c0.306,0.564,0.822,0.891,1.404,0.892c0.589-0.001,1.105-0.328,1.411-0.892
		c0.348-0.655,0.53-1.536,0.53-2.581c0-1.027-0.19-1.927-0.53-2.572C66.289,86.042,65.773,85.714,65.184,85.714z M65.184,92.432
		c-0.343,0.001-0.581-0.255-0.742-0.792c-0.159-0.518-0.232-1.272-0.232-2.453c0-1.074,0.058-1.8,0.189-2.3
		c0.16-0.636,0.415-0.945,0.785-0.946c0.335,0,0.583,0.263,0.741,0.79c0.161,0.518,0.234,1.301,0.234,2.455
		C66.157,91.44,65.86,92.432,65.184,92.432z"/>
	<path class="st1" d="M27.6,41.339c-0.473-1.87-2.33-1.372-2.331,0.392c0,1.154,0.626,1.918,1.284,2.641
		c0.327,0.362,0.767,0.847,1.047,1.354c0.279-0.507,0.717-0.992,1.046-1.354c0.658-0.724,1.281-1.488,1.282-2.64
		C29.928,39.967,28.073,39.47,27.6,41.339z"/>
	<path class="st1" d="M69.85,82.586c0.001-1.152-0.627-1.916-1.283-2.641c-0.329-0.361-0.767-0.847-1.047-1.354
		c-0.281,0.508-0.717,0.991-1.046,1.354c-0.659,0.725-1.283,1.489-1.284,2.641c0.001,1.765,1.857,2.262,2.329,0.393
		C67.994,84.847,69.851,84.351,69.85,82.586z"/>
	<path class="st1" d="M45.222,50.567c0.735,0.808,1.709,1.889,2.336,3.021c0.625-1.133,1.6-2.213,2.334-3.021
		c1.468-1.615,2.863-3.322,2.863-5.894c0.001-3.934-4.142-5.044-5.198-0.874c-1.055-4.17-5.198-3.06-5.199,0.873
		C42.359,47.246,43.755,48.952,45.222,50.567z"/>
	<path class="st1" d="M49.892,73.751c-0.735-0.808-1.709-1.888-2.334-3.021c-0.627,1.132-1.601,2.213-2.336,3.021
		c-1.467,1.615-2.863,3.322-2.864,5.894c0.001,3.933,4.143,5.043,5.199,0.873c1.056,4.17,5.199,3.06,5.198-0.874
		C52.755,77.073,51.359,75.366,49.892,73.751z"/>
	<path class="st1" d="M37.514,61.016c0.626-1.134,1.6-2.214,2.334-3.022c1.469-1.615,2.864-3.321,2.862-5.894
		c0.001-3.933-4.141-5.043-5.197-0.874c-1.056-4.169-5.199-3.059-5.199,0.874c0.001,2.573,1.396,4.279,2.864,5.895
		C35.914,58.801,36.887,59.882,37.514,61.016z"/>
	<path class="st1" d="M57.602,61.015c0.626-1.132,1.6-2.212,2.334-3.02c1.467-1.614,2.864-3.321,2.864-5.894
		c0-3.932-4.142-5.043-5.198-0.873c-1.057-4.171-5.199-3.06-5.2,0.873c0.001,2.573,1.398,4.279,2.865,5.894
		C56.001,58.802,56.977,59.882,57.602,61.015z"/>
	<path class="st1" d="M37.514,46.291c0.626-1.132,1.602-2.212,2.335-3.022c1.467-1.614,2.863-3.321,2.862-5.893
		c0.001-3.934-4.141-5.042-5.196-0.873c-1.057-4.169-5.201-3.06-5.201,0.873c-0.001,2.572,1.397,4.279,2.864,5.893
		C35.913,44.078,36.888,45.159,37.514,46.291z"/>
	<path class="st1" d="M57.604,36.503c-1.057-4.17-5.199-3.06-5.2,0.873c-0.001,2.573,1.397,4.278,2.862,5.894
		c0.736,0.808,1.711,1.889,2.336,3.021c0.626-1.133,1.602-2.212,2.335-3.022c1.469-1.614,2.864-3.32,2.864-5.893
		C62.802,33.443,58.66,32.333,57.604,36.503z"/>
	<path class="st1" d="M37.515,78.027c-0.626,1.132-1.602,2.212-2.337,3.021c-1.469,1.613-2.864,3.321-2.864,5.892
		c-0.001,3.934,4.142,5.044,5.2,0.875c1.055,4.17,5.196,3.06,5.197-0.873c0-2.574-1.396-4.28-2.863-5.894
		C39.116,80.24,38.14,79.159,37.515,78.027z"/>
	<path class="st1" d="M57.604,78.028c-0.626,1.132-1.6,2.211-2.336,3.021c-1.468,1.614-2.863,3.32-2.863,5.893
		c0,3.934,4.142,5.043,5.199,0.873c1.056,4.171,5.197,3.06,5.198-0.873c-0.001-2.573-1.395-4.279-2.865-5.894
		C59.203,80.239,58.229,79.159,57.604,78.028z"/>
	<path class="st1" d="M37.515,63.303c-0.627,1.133-1.603,2.212-2.337,3.021c-1.467,1.614-2.864,3.321-2.863,5.893
		c0,3.933,4.143,5.043,5.2,0.875c1.055,4.168,5.197,3.058,5.196-0.875c-0.001-2.573-1.394-4.279-2.862-5.893
		C39.116,65.516,38.139,64.436,37.515,63.303z"/>
	<path class="st1" d="M57.604,63.303c-0.625,1.132-1.601,2.212-2.337,3.022c-1.466,1.613-2.863,3.32-2.862,5.892
		c0,3.933,4.143,5.044,5.199,0.876c1.055,4.168,5.197,3.058,5.198-0.876c0-2.572-1.395-4.278-2.865-5.892
		C59.203,65.515,58.228,64.435,57.604,63.303z"/>
</g>
</svg>
