<?xml version="1.0" encoding="utf-8"?>
<!-- Generator: Adobe Illustrator 23.0.2, SVG Export Plug-In . SVG Version: 6.00 Build 0)  -->
<svg version="1.1" id="Layer_1" xmlns="http://www.w3.org/2000/svg" xmlns:xlink="http://www.w3.org/1999/xlink" x="0px" y="0px"
	 viewBox="0 0 82.452 99.776" style="enable-background:new 0 0 82.452 99.776;" xml:space="preserve">
<style type="text/css">
	.st0{fill:#FFFFFF;}
	.st1{fill:#ED1C24;}
	.st2{fill:#FFCB05;}
	.st3{fill:#21409A;}
	.st4{fill:#D4D5D6;}
	.st5{fill:#000100;}
	.st6{fill:#300505;}
	.st7{fill:#BFD730;}
	.st8{fill:#F15A22;}
</style>
<g>
	<path class="st0" d="M29.469,26.551c-0.676,0-0.974,0.991-0.974,3.245c0,1.154,0.072,1.936,0.233,2.454
		c0.16,0.528,0.407,0.791,0.741,0.791c0.371,0,0.626-0.309,0.785-0.946c0.131-0.5,0.189-1.227,0.189-2.3
		c0-1.182-0.073-1.936-0.233-2.454C30.05,26.806,29.811,26.551,29.469,26.551z"/>
	<path class="st0" d="M68.713,22.578h-43.24c-1.563,0-2.836,1.272-2.836,2.836v62.82c0,1.563,1.272,2.836,2.836,2.836h43.24
		c1.564,0,2.837-1.272,2.837-2.836v-62.82C71.55,23.851,70.278,22.578,68.713,22.578z M44.755,38.586
		c0.736-0.658,1.71-1.536,2.335-2.456c0.627,0.92,1.602,1.799,2.337,2.456c1.467,1.313,2.863,2.701,2.863,4.793
		c0,2.986-3.608,3.97-4.948,1.331c0.124,1.165,0.665,2.935,1.76,3.359h-4.021c1.094-0.424,1.635-2.195,1.758-3.359
		c-1.34,2.639-4.947,1.655-4.947-1.331C41.892,41.287,43.289,39.9,44.755,38.586z M34.712,31.226
		c0.733-0.657,1.709-1.536,2.335-2.457c0.626,0.921,1.6,1.8,2.335,2.457c1.468,1.313,2.863,2.701,2.863,4.794
		c0,2.986-3.607,3.97-4.947,1.331c0.124,1.164,0.665,2.936,1.759,3.359h-4.02c1.094-0.424,1.635-2.195,1.758-3.359
		c-1.34,2.638-4.947,1.655-4.947-1.331C31.848,33.927,33.244,32.539,34.712,31.226z M34.712,45.946
		c0.733-0.658,1.709-1.536,2.335-2.457c0.626,0.921,1.6,1.799,2.335,2.457c1.468,1.313,2.863,2.701,2.863,4.792
		c0,2.986-3.607,3.971-4.947,1.332c0.124,1.163,0.665,2.935,1.759,3.358h-4.02c1.094-0.423,1.635-2.195,1.758-3.358
		c-1.34,2.638-4.947,1.654-4.947-1.332C31.848,48.647,33.244,47.26,34.712,45.946z M36.795,61.578
		c-0.123-1.164-0.664-2.936-1.758-3.359h4.02c-1.094,0.424-1.635,2.195-1.759,3.359c1.34-2.638,4.947-1.655,4.947,1.332
		c0,2.092-1.395,3.479-2.863,4.793c-0.735,0.657-1.709,1.535-2.335,2.457c-0.626-0.922-1.602-1.8-2.335-2.457
		c-1.468-1.314-2.864-2.701-2.864-4.793C31.848,59.924,35.455,58.94,36.795,61.578z M23.804,32.869
		c0.334-0.009,0.436-0.027,0.545-0.109c0.167-0.109,0.218-0.346,0.218-0.927v-4.181c-0.007-0.464-0.007-0.464-0.022-0.545
		c-0.029-0.2-0.124-0.246-0.495-0.246h-0.196v-0.254c0.691-0.072,1.222-0.164,1.701-0.273c-0.043,0.645-0.065,1.409-0.065,2.29
		v3.209c0,0.554,0.043,0.782,0.175,0.909c0.102,0.1,0.189,0.118,0.56,0.127v0.254h-2.421V32.869z M27.246,38.773
		c0.056,0.521,0.298,1.316,0.788,1.505h-1.802c0.492-0.189,0.733-0.984,0.788-1.505c-0.6,1.182-2.216,0.742-2.216-0.596
		c0-0.937,0.625-1.559,1.283-2.147c0.329-0.294,0.767-0.688,1.046-1.101c0.281,0.413,0.717,0.807,1.047,1.101
		c0.657,0.589,1.282,1.211,1.282,2.147C29.462,39.515,27.846,39.955,27.246,38.773z M30.872,32.369
		c-0.305,0.573-0.822,0.9-1.404,0.9c-0.589,0-1.105-0.327-1.41-0.9c-0.342-0.645-0.531-1.545-0.531-2.572
		c0-1.045,0.182-1.927,0.531-2.581c0.305-0.563,0.822-0.891,1.41-0.891c0.582,0,1.098,0.327,1.404,0.891
		c0.349,0.645,0.531,1.536,0.531,2.581C31.403,30.842,31.221,31.733,30.872,32.369z M39.382,82.423
		c-0.735,0.658-1.709,1.536-2.335,2.458c-0.626-0.922-1.602-1.8-2.335-2.458c-1.468-1.313-2.864-2.702-2.864-4.793
		c0-2.986,3.607-3.97,4.947-1.332c-0.123-1.164-0.664-2.936-1.758-3.359h4.02c-1.094,0.423-1.635,2.195-1.759,3.359
		c1.34-2.638,4.947-1.655,4.947,1.332C42.245,79.721,40.85,81.11,39.382,82.423z M49.429,75.063
		c-0.736,0.658-1.71,1.536-2.335,2.458c-0.626-0.922-1.602-1.8-2.336-2.458c-1.467-1.313-2.863-2.701-2.863-4.793
		c0-2.986,3.606-3.97,4.947-1.332c-0.123-1.164-0.665-2.935-1.758-3.359h4.02c-1.094,0.423-1.635,2.195-1.759,3.359
		c1.339-2.638,4.948-1.654,4.948,1.332C52.293,72.362,50.897,73.749,49.429,75.063z M59.472,82.423
		c-0.735,0.658-1.71,1.536-2.336,2.458c-0.626-0.922-1.6-1.8-2.335-2.458c-1.467-1.313-2.864-2.702-2.864-4.793
		c0-2.986,3.607-3.97,4.947-1.332c-0.122-1.164-0.664-2.936-1.758-3.359h4.021c-1.095,0.423-1.636,2.195-1.76,3.359
		c1.34-2.638,4.948-1.655,4.948,1.332C62.335,79.721,60.939,81.11,59.472,82.423z M59.472,67.703
		c-0.735,0.657-1.71,1.535-2.336,2.457c-0.626-0.922-1.6-1.8-2.335-2.457c-1.467-1.314-2.864-2.701-2.864-4.793
		c0-2.986,3.607-3.97,4.947-1.332c-0.122-1.164-0.664-2.936-1.758-3.359h4.021c-1.095,0.424-1.636,2.195-1.76,3.359
		c1.34-2.638,4.948-1.655,4.948,1.332C62.335,65.002,60.939,66.389,59.472,67.703z M57.387,52.071
		c0.124,1.163,0.665,2.935,1.76,3.358h-4.021c1.094-0.423,1.636-2.195,1.758-3.358c-1.34,2.638-4.947,1.654-4.947-1.332
		c0-2.092,1.397-3.479,2.864-4.792c0.735-0.658,1.709-1.536,2.335-2.457c0.626,0.921,1.602,1.799,2.336,2.457
		c1.467,1.313,2.863,2.701,2.863,4.792C62.335,53.725,58.727,54.709,57.387,52.071z M57.387,37.351
		c0.124,1.164,0.665,2.936,1.76,3.359h-4.021c1.094-0.424,1.636-2.195,1.758-3.359c-1.34,2.638-4.947,1.655-4.947-1.331
		c0-2.093,1.397-3.48,2.864-4.794c0.735-0.657,1.709-1.536,2.335-2.457c0.626,0.921,1.602,1.8,2.336,2.457
		c1.467,1.313,2.863,2.701,2.863,4.794C62.335,39.005,58.727,39.989,57.387,37.351z M66.128,86.434
		c-0.305,0.563-0.822,0.891-1.41,0.891c-0.582,0-1.098-0.327-1.404-0.891c-0.349-0.645-0.531-1.536-0.531-2.581
		c0-1.045,0.182-1.936,0.531-2.572c0.305-0.573,0.822-0.9,1.404-0.9c0.589,0,1.105,0.327,1.41,0.9
		c0.342,0.645,0.531,1.545,0.531,2.572C66.659,84.898,66.477,85.779,66.128,86.434z M67.055,78.72
		c-0.279-0.413-0.716-0.806-1.046-1.101c-0.657-0.588-1.283-1.211-1.283-2.148c0-1.337,1.616-1.778,2.217-0.596
		c-0.056-0.521-0.298-1.315-0.788-1.505h1.801c-0.491,0.19-0.734,0.984-0.788,1.505c0.601-1.182,2.216-0.741,2.216,0.596
		c0,0.937-0.625,1.56-1.282,2.148C67.773,77.914,67.335,78.308,67.055,78.72z M70.382,80.78c-0.334,0.009-0.436,0.027-0.545,0.109
		c-0.167,0.109-0.218,0.346-0.218,0.927v4.181c0.007,0.464,0.007,0.464,0.022,0.545c0.029,0.2,0.124,0.246,0.495,0.246h0.196v0.254
		c-0.691,0.073-1.222,0.164-1.701,0.273c0.043-0.646,0.065-1.409,0.065-2.29v-3.209c0-0.554-0.043-0.782-0.174-0.909
		c-0.102-0.1-0.189-0.118-0.56-0.127v-0.254h2.421V80.78z"/>
	<path class="st0" d="M64.718,80.607c-0.371,0-0.626,0.309-0.785,0.946c-0.131,0.5-0.189,1.227-0.189,2.3
		c0,1.182,0.073,1.936,0.233,2.454c0.16,0.536,0.4,0.791,0.742,0.791c0.676,0,0.974-0.991,0.974-3.245
		c0-1.154-0.072-1.936-0.233-2.454C65.299,80.871,65.052,80.607,64.718,80.607z"/>
	<path d="M68.713,22.149h-43.24c-1.801,0-3.266,1.465-3.266,3.266v62.82c0,1.801,1.465,3.266,3.266,3.266h43.24
		c1.802,0,3.267-1.465,3.267-3.266v-62.82C71.98,23.613,70.515,22.149,68.713,22.149z M71.55,88.235
		c0,1.563-1.272,2.836-2.837,2.836h-43.24c-1.563,0-2.836-1.272-2.836-2.836v-62.82c0-1.563,1.272-2.836,2.836-2.836h43.24
		c1.564,0,2.837,1.272,2.837,2.836V88.235z"/>
	<path class="st5" d="M26.225,32.869c-0.371-0.009-0.458-0.027-0.56-0.127c-0.131-0.127-0.175-0.355-0.175-0.909v-3.209
		c0-0.882,0.022-1.645,0.065-2.29c-0.48,0.109-1.011,0.2-1.701,0.273v0.254h0.196c0.371,0,0.465,0.046,0.495,0.246
		c0.015,0.082,0.015,0.082,0.022,0.545v4.181c0,0.582-0.051,0.818-0.218,0.927c-0.109,0.082-0.211,0.1-0.545,0.109v0.254h2.421
		V32.869z"/>
	<path class="st5" d="M29.469,26.324c-0.589,0-1.105,0.327-1.41,0.891c-0.349,0.654-0.531,1.536-0.531,2.581
		c0,1.027,0.189,1.927,0.531,2.572c0.305,0.573,0.822,0.9,1.41,0.9c0.582,0,1.098-0.327,1.404-0.9
		c0.349-0.636,0.531-1.527,0.531-2.572c0-1.045-0.182-1.936-0.531-2.581C30.567,26.652,30.05,26.324,29.469,26.324z M30.254,32.096
		c-0.16,0.637-0.415,0.946-0.785,0.946c-0.334,0-0.582-0.263-0.741-0.791c-0.16-0.518-0.233-1.3-0.233-2.454
		c0-2.254,0.298-3.245,0.974-3.245c0.342,0,0.582,0.255,0.742,0.791c0.16,0.518,0.233,1.272,0.233,2.454
		C30.443,30.869,30.385,31.597,30.254,32.096z"/>
	<path class="st5" d="M67.961,80.78c0.371,0.009,0.458,0.027,0.56,0.127c0.131,0.127,0.174,0.355,0.174,0.909v3.209
		c0,0.882-0.022,1.645-0.065,2.29c0.48-0.109,1.011-0.2,1.701-0.273v-0.254h-0.196c-0.371,0-0.465-0.046-0.495-0.246
		c-0.015-0.082-0.015-0.082-0.022-0.545v-4.181c0-0.582,0.051-0.818,0.218-0.927c0.109-0.082,0.211-0.1,0.545-0.109v-0.254h-2.421
		V80.78z"/>
	<path class="st5" d="M64.718,80.38c-0.582,0-1.098,0.327-1.404,0.9c-0.349,0.636-0.531,1.527-0.531,2.572
		c0,1.045,0.182,1.936,0.531,2.581c0.305,0.563,0.822,0.891,1.404,0.891c0.589,0,1.105-0.327,1.41-0.891
		c0.349-0.654,0.531-1.536,0.531-2.581c0-1.027-0.189-1.927-0.531-2.572C65.823,80.707,65.306,80.38,64.718,80.38z M64.718,87.097
		c-0.342,0-0.582-0.255-0.742-0.791c-0.16-0.518-0.233-1.272-0.233-2.454c0-1.073,0.058-1.8,0.189-2.3
		c0.16-0.636,0.415-0.946,0.785-0.946c0.334,0,0.582,0.263,0.741,0.791c0.16,0.518,0.233,1.3,0.233,2.454
		C65.692,86.106,65.394,87.097,64.718,87.097z"/>
	<path d="M36.795,52.071c-0.123,1.163-0.664,2.935-1.758,3.358h4.02c-1.094-0.423-1.635-2.195-1.759-3.358
		c1.34,2.638,4.947,1.654,4.947-1.332c0-2.092-1.395-3.479-2.863-4.792c-0.735-0.658-1.709-1.536-2.335-2.457
		c-0.626,0.921-1.602,1.799-2.335,2.457c-1.468,1.313-2.864,2.701-2.864,4.792C31.848,53.725,35.455,54.709,36.795,52.071z"/>
	<path d="M59.472,45.946c-0.735-0.658-1.71-1.536-2.336-2.457c-0.626,0.921-1.6,1.799-2.335,2.457
		c-1.467,1.313-2.864,2.701-2.864,4.792c0,2.986,3.607,3.971,4.947,1.332c-0.122,1.163-0.664,2.935-1.758,3.358h4.021
		c-1.095-0.423-1.636-2.195-1.76-3.358c1.34,2.638,4.948,1.654,4.948-1.332C62.335,48.647,60.939,47.26,59.472,45.946z"/>
	<path d="M46.839,44.71c-0.123,1.165-0.664,2.935-1.758,3.359h4.021c-1.095-0.424-1.636-2.195-1.76-3.359
		c1.34,2.639,4.948,1.655,4.948-1.331c0-2.092-1.396-3.48-2.863-4.793c-0.736-0.658-1.71-1.536-2.337-2.456
		c-0.625,0.92-1.599,1.799-2.335,2.456c-1.466,1.313-2.863,2.701-2.863,4.793C41.892,46.365,45.498,47.349,46.839,44.71z"/>
	<path d="M36.795,37.351c-0.123,1.164-0.664,2.936-1.758,3.359h4.02c-1.094-0.424-1.635-2.195-1.759-3.359
		c1.34,2.638,4.947,1.655,4.947-1.331c0-2.093-1.395-3.48-2.863-4.794c-0.735-0.657-1.709-1.536-2.335-2.457
		c-0.626,0.921-1.602,1.8-2.335,2.457c-1.468,1.313-2.864,2.701-2.864,4.794C31.848,39.005,35.455,39.989,36.795,37.351z"/>
	<path d="M59.472,31.226c-0.735-0.657-1.71-1.536-2.336-2.457c-0.626,0.921-1.6,1.8-2.335,2.457
		c-1.467,1.313-2.864,2.701-2.864,4.794c0,2.986,3.607,3.97,4.947,1.331c-0.122,1.164-0.664,2.936-1.758,3.359h4.021
		c-1.095-0.424-1.636-2.195-1.76-3.359c1.34,2.638,4.948,1.655,4.948-1.331C62.335,33.927,60.939,32.539,59.472,31.226z"/>
	<path d="M37.298,76.298c0.124-1.164,0.665-2.936,1.759-3.359h-4.02c1.094,0.423,1.635,2.195,1.758,3.359
		c-1.34-2.638-4.947-1.655-4.947,1.332c0,2.091,1.396,3.48,2.864,4.793c0.733,0.658,1.709,1.536,2.335,2.458
		c0.626-0.922,1.6-1.8,2.335-2.458c1.468-1.313,2.863-2.702,2.863-4.793C42.245,74.644,38.639,73.66,37.298,76.298z"/>
	<path d="M57.387,76.298c0.124-1.164,0.665-2.936,1.76-3.359h-4.021c1.094,0.423,1.636,2.195,1.758,3.359
		c-1.34-2.638-4.947-1.655-4.947,1.332c0,2.091,1.397,3.48,2.864,4.793c0.735,0.658,1.709,1.536,2.335,2.458
		c0.626-0.922,1.602-1.8,2.336-2.458c1.467-1.313,2.863-2.702,2.863-4.793C62.335,74.644,58.727,73.66,57.387,76.298z"/>
	<path d="M34.712,67.703c0.733,0.657,1.709,1.535,2.335,2.457c0.626-0.922,1.6-1.8,2.335-2.457c1.468-1.314,2.863-2.701,2.863-4.793
		c0-2.986-3.607-3.97-4.947-1.332c0.124-1.164,0.665-2.936,1.759-3.359h-4.02c1.094,0.424,1.635,2.195,1.758,3.359
		c-1.34-2.638-4.947-1.655-4.947,1.332C31.848,65.002,33.244,66.389,34.712,67.703z"/>
	<path d="M57.387,61.578c0.124-1.164,0.665-2.936,1.76-3.359h-4.021c1.094,0.424,1.636,2.195,1.758,3.359
		c-1.34-2.638-4.947-1.655-4.947,1.332c0,2.092,1.397,3.479,2.864,4.793c0.735,0.657,1.709,1.535,2.335,2.457
		c0.626-0.922,1.602-1.8,2.336-2.457c1.467-1.314,2.863-2.701,2.863-4.793C62.335,59.924,58.727,58.94,57.387,61.578z"/>
	<path d="M47.345,68.938c0.124-1.164,0.665-2.935,1.759-3.359h-4.02c1.093,0.423,1.635,2.195,1.758,3.359
		c-1.341-2.638-4.947-1.654-4.947,1.332c0,2.092,1.396,3.48,2.863,4.793c0.735,0.658,1.71,1.536,2.336,2.458
		c0.625-0.922,1.599-1.8,2.335-2.458c1.468-1.313,2.864-2.701,2.864-4.793C52.293,67.284,48.684,66.3,47.345,68.938z"/>
	<path d="M28.18,36.029c-0.33-0.294-0.767-0.688-1.047-1.101c-0.279,0.413-0.717,0.807-1.046,1.101
		c-0.658,0.589-1.283,1.211-1.283,2.147c0,1.338,1.616,1.779,2.216,0.596c-0.055,0.521-0.297,1.316-0.788,1.505h1.802
		c-0.49-0.189-0.732-0.984-0.788-1.505c0.6,1.182,2.216,0.742,2.216-0.596C29.462,37.24,28.837,36.618,28.18,36.029z"/>
	<path d="M69.384,75.472c0-1.337-1.615-1.778-2.216-0.596c0.055-0.521,0.298-1.315,0.788-1.505h-1.801
		c0.49,0.19,0.732,0.984,0.788,1.505c-0.601-1.182-2.217-0.741-2.217,0.596c0,0.937,0.626,1.56,1.283,2.148
		c0.33,0.295,0.767,0.688,1.046,1.101c0.281-0.413,0.719-0.806,1.047-1.101C68.759,77.032,69.384,76.409,69.384,75.472z"/>
</g>
</svg>
